<svg xmlns="http://www.w3.org/2000/svg" viewBox="0 0 240 180">
  <g fill="#17324a" stroke="#fffaf3" stroke-width="3.2" stroke-linejoin="round" stroke-linecap="round">
  <path d="M110.1 31.1 L118.9 38.7 L120.9 35.5 L124 33.1 L125.3 36.5 L126.6 41.8 L129.2 42 L127.2 44.6 L127.1 48.8 L123 49.9 L124.2 63 L123.7 83 L120.7 107.9 L118.8 112.8 L112.9 122.6 L109.2 108.3 L106 101 L101.9 94.7 L93.1 84.6 L91.6 78.3 L95.6 70.7 L96.7 67.4 L97.8 64.1 L96.6 55.6 L89.2 38.5 L89.4 34.8 L91.7 24.1 L93.2 21.4 L95.9 20.1 L103 20.8 L106.2 22.3 L108.9 23.5 L108.9 23.5 L117.3 20.2 L118.6 21 L121.8 27.9 L120.7 30.3 L118.8 30.8 L113 30 L110.1 31.1 Z"/>
  <path d="M155.4 137.9 L157.1 138.2 L158.8 136.9 L160.8 135.8 L160.8 137.2 L160.3 139.2 L158.8 141.5 L157.2 143.5 L158.2 144.5 L159.8 146.2 L159 147.4 L156.6 146.8 L153 150.1 L155.8 156.7 L154.4 157.3 L153.6 158.7 L153.3 160.6 L154.5 161.4 L155.4 162.7 L151.9 168 L152.4 169.4 L151.8 170 L149.5 168.9 L147.9 166.4 L148.7 164.3 L150.3 160.7 L150.1 158.6 L150.1 155.4 L148.3 153.4 L148.5 151.4 L148.7 148.7 L149.5 145.7 L151.5 142.4 L154.2 139.1 L155.4 137.9 Z"/>
  <path d="M120.3 11.9 L126.6 10 L131.2 12.4 L131.4 15.8 L131.4 19.2 L134.5 23.6 L137.1 24.8 L136 28 L134.9 29.2 L131.6 27.2 L130.8 24.1 L129.7 20.9 L126.8 20.2 L124.2 19.7 L122.5 20.4 L119.9 15.6 L120.3 11.9 Z"/>
  <path d="M78.8 35.5 L81 36.2 L83.2 37.4 L83.2 41.3 L83.6 44.5 L84.1 47.9 L80.3 46.9 L76.4 47.1 L75.3 43.5 L75.8 38.9 L78.8 35.5 Z"/>
  <path d="M159.3 153.7 L160.6 153.8 L163 154.3 L164 155.4 L163.8 157.1 L163 158.3 L162.2 158 L161.2 157.7 L159.8 158 L158.8 158.6 L157.6 154.5 L158 153.5 L159.3 153.7 Z"/>
  <path d="M161.6 147.5 L164.7 147.7 L164 149.8 L162.4 151 L161.5 149.7 L161.1 148.5 L161.6 147.5 Z"/>
  </g>
</svg>
