<svg xmlns="http://www.w3.org/2000/svg" viewBox="0 0 240 180">
  <g fill="#17324a" stroke="#fffaf3" stroke-width="3.2" stroke-linejoin="round" stroke-linecap="round">
  <path d="M80 138.6 L82.6 99.1 L82.3 43.7 L83.5 41.9 L88.4 40.1 L92.5 43.2 L94.4 43.2 L95.2 45 L98.8 46.8 L99.7 44.5 L102.7 42.2 L104.4 38.6 L107.3 36 L109.5 30.2 L109.3 29.3 L109.1 29.2 L113.7 25.6 L114.8 21.7 L116.6 19.6 L117.4 18.5 L118.9 12.2 L119.4 11.8 L121.2 10.4 L132.1 10.6 L132.1 10.8 L133.1 11.7 L127 17.4 L127.6 18.3 L128.5 18.4 L131.3 17.1 L128.9 21.5 L133.7 18.1 L138.4 19.2 L144.2 17.1 L144.5 17.3 L144.4 18.2 L141.3 21.1 L144.3 19.6 L144.5 20 L145 27.2 L144.5 32.8 L144.3 33.8 L141.1 41.8 L137.6 47.3 L138 48.9 L137.3 54 L135.9 59 L133 64.3 L133.3 65.8 L137 69 L139.5 69.5 L140 70 L139.3 71.2 L135.7 71.5 L133.1 80.5 L132.3 90.4 L133.5 95.7 L134 96.1 L135.3 96.5 L136 97.4 L136.5 98.6 L137.3 103.4 L133.5 107 L133.3 108 L133.5 109.1 L135.3 112.8 L133.3 113.4 L132.2 115.3 L131.9 122.6 L129.5 127.9 L129.3 128.9 L129.7 130.5 L129.4 131 L129 131.6 L128.6 131.6 L128.4 130.7 L130.3 123.7 L131.2 122.7 L131.6 122 L130.1 122.8 L128.5 126.9 L127.2 128.4 L127.6 128.4 L128.4 128.8 L126.8 128.8 L128 129.6 L127 131.1 L127.2 132.6 L123.8 136.3 L123.6 138.4 L122.3 138.8 L118.8 144 L118.4 146 L116.4 146.5 L116.3 146.7 L116 147.7 L116 145.1 L114.4 146.7 L113 145 L111.8 145.1 L111.6 146.8 L106.5 148.5 L106.2 153.1 L100.2 158.6 L99.7 160.9 L95.5 163.6 L96.3 169.1 L94.1 170 L88.9 168.6 L80.9 168.7 L77.9 169.9 L77.5 169.1 L80 138.6 Z"/>
  <path d="M154.9 38.5 L153.7 43.6 L151.8 45.4 L149.3 46 L149.3 45.6 L153 43 L152.6 39.6 L155.4 30.7 L158.2 29.7 L158.8 30.5 L158.7 31.9 L155.7 37.7 L155.3 37.4 L154.9 37.2 L153.7 38.9 L153.7 39.3 L154.1 40.2 L154.9 38.5 Z"/>
  <path d="M159.9 67.9 L162.2 68.8 L162.5 70 L162.3 70.9 L159.7 75.4 L158.9 75.9 L157.7 75 L155.7 77.3 L154.1 84.3 L153.3 83.4 L155.1 75.2 L158.1 72.5 L160.9 72.4 L160.9 69.1 L159.3 70 L159.3 69.6 L159.9 67.9 Z"/>
  </g>
</svg>
