<svg xmlns="http://www.w3.org/2000/svg" viewBox="0 0 240 180">
  <g fill="#17324a" stroke="#fffaf3" stroke-width="3.2" stroke-linejoin="round" stroke-linecap="round">
  <path d="M166.3 35.9 L162.8 39.4 L161.2 46.6 L158.7 48.1 L150.4 47.6 L147 48.5 L144.2 50.3 L139.3 55 L129.5 60.4 L129.4 62.9 L130.6 65.8 L133.5 71.5 L134.4 74.6 L135 78 L135.7 96 L136.6 101.6 L139.4 105.9 L145.8 107.4 L145.4 111.8 L144 117.6 L142.9 120.2 L135.7 128.8 L135.8 131.9 L140.5 130 L141.1 132.6 L140 135.5 L136.5 140.7 L133.4 152.3 L119.3 165.8 L112 170 L105.7 169.3 L103.1 162.7 L89 150.3 L86.8 147.3 L85.3 144.3 L82.1 134.6 L80.2 132.6 L77.3 132.4 L71.1 133.5 L64.4 132.2 L59.1 131.8 L58.4 130.4 L58.1 128.1 L61.3 123.9 L60.2 117 L58.1 113.8 L58.1 109.6 L57 105.3 L56.1 103.6 L54.4 101.8 L53.4 98.5 L49 97.6 L47.8 94.4 L46 93.2 L42.3 91.8 L37.3 87.9 L34 86.2 L25.6 84.9 L15.6 80.1 L54.4 81.4 L65.9 79.2 L76.5 73.3 L91.6 67.8 L96.9 65.9 L100.2 62.7 L102.5 58.3 L108.1 52.6 L126.6 37.9 L132.3 34.4 L158.1 18.7 L177.9 10.5 L181.8 10 L184.7 11.1 L184.9 13.1 L182.7 14.7 L177.9 16.9 L172.6 29 L167.8 33.4 L166.3 35.9 Z"/>
  <path d="M191.5 32.9 L191.6 36.4 L197 40.1 L200.9 45.6 L210.9 74.6 L211.6 78.3 L211.3 81 L210.1 87 L210 93.1 L210.9 99.6 L212.9 105.6 L224 118.7 L224.4 121.9 L222.2 124.3 L218.8 124.2 L211.1 120.3 L208.2 120.4 L202.9 117.2 L198.3 117.7 L195.1 117 L186.4 113.8 L184.4 112.4 L183.2 110.2 L181.3 95.1 L179.5 89 L174.5 77 L173.2 71.1 L172.6 58.6 L173.7 46.4 L176.5 49.3 L179.3 47.5 L182.3 44.1 L185.7 42.2 L189 41.5 L189.1 39.8 L187.8 37.3 L186.9 34.8 L187.3 33.6 L188.3 33 L191.5 32.9 Z"/>
  </g>
</svg>
