<svg xmlns="http://www.w3.org/2000/svg" viewBox="0 0 240 180">
  <g fill="#17324a" stroke="#fffaf3" stroke-width="3.2" stroke-linejoin="round" stroke-linecap="round">
  <path d="M152.8 17 L152.8 17.5 L155.2 21 L157 22.2 L160.1 25.2 L166 35 L166.5 37.9 L165.4 40.5 L165.8 44.9 L164.4 46.5 L163.1 46.7 L162.5 49.3 L163.2 50.3 L164.7 50 L163.3 53.3 L163.7 54.5 L175.7 54.8 L176.2 56.7 L174.3 59.1 L174.6 61.2 L177.6 62.4 L178.7 62 L179.3 62 L180.6 63 L185.5 63.5 L189.9 68.3 L192.5 68.9 L193.6 72.3 L191.6 73.7 L192.1 75 L194.7 77.7 L206.1 83.6 L207.2 86.4 L212.1 89.4 L210.3 92.6 L210.6 93.9 L214.3 97 L212.9 99.3 L213.1 99.2 L213.8 98.7 L214.9 100 L218.8 100.8 L219.5 102.3 L224.5 104.3 L227 107.7 L226.2 110.2 L227 113 L230 116.3 L223.8 114 L220.4 116.8 L218.4 115.9 L214.2 116.7 L212.3 114.9 L209.5 114.4 L209.1 113.4 L207.9 113.1 L206.2 114.2 L205.2 113.6 L204.2 114.6 L197.8 111.1 L195 112.2 L193.8 117 L184.3 118.9 L183.2 118.7 L183 118.7 L183.1 118.5 L183.3 118.2 L180.7 116 L179.7 115.6 L179.3 116.3 L178.7 115.4 L178.1 116.4 L178.7 116.9 L176.8 117.5 L176.4 118.7 L175.5 118.2 L174.6 119.1 L171.2 119.7 L171.1 120.6 L168.9 120.5 L164.7 122.1 L161.7 124.5 L159.6 123.7 L158 121.9 L157.2 122.3 L156.8 122.4 L154.8 120.3 L153.6 120.4 L152.7 122.4 L151.5 122.1 L149.9 126.1 L148.3 126.4 L148.6 128.3 L146.9 131.2 L143.4 132.2 L133.6 129.4 L130.5 130.3 L126.5 128.8 L125 129.5 L122.7 127.7 L119.3 126.7 L114.4 127.4 L112.2 125.5 L112.3 123.9 L110.3 121.3 L102.8 117.4 L101.6 115.8 L97.3 114.8 L94.6 115.2 L89.1 119 L83.6 127.6 L80 128.9 L81.8 133.6 L80.9 139.4 L81.4 143.3 L78.8 140.7 L75.1 141.6 L73.9 143.3 L72.3 141.8 L68.5 142.3 L67.4 140.9 L63.9 140.7 L62.2 139.4 L59.7 140.9 L54.2 142.3 L48 142.4 L47.3 142.9 L46.7 143.5 L45 148.7 L45.3 154.2 L40.2 164.2 L38.7 159.7 L39 156.5 L38.2 156.4 L38.6 153.3 L35.7 149.7 L33.6 149.6 L21.8 136.4 L20.8 134 L23.6 133.5 L21.9 132.4 L20.2 127.4 L15.6 123.9 L14.5 114.3 L12.2 112.5 L13.9 109.1 L13.9 102.8 L13.3 101.8 L11.3 101.8 L10 99.8 L12.5 97.3 L16.5 95.1 L19.2 88.4 L20.9 87.3 L23.5 82 L24.1 79.3 L27.6 76.9 L28.4 74.7 L31.6 74.8 L32.5 75.6 L33.1 75.8 L33.7 75.8 L35.9 75.2 L37.9 73.6 L43.6 72 L43.8 70.2 L46.4 68.8 L47.5 72 L50.8 74.3 L51.8 72.9 L55.8 72 L58.3 69.6 L64.8 66.8 L68.5 67.2 L72.1 66.2 L79.5 66 L80.8 65.8 L81.6 63.5 L84.6 61.9 L89.8 55.1 L85.5 52.2 L88.1 49.8 L102.7 48.8 L106.4 47 L107.2 47.6 L111.9 47.3 L113.7 44.1 L115.8 44.5 L115.6 43.8 L118.5 42.5 L121.2 39.4 L121.7 37 L123.2 36.5 L126 32.8 L127.8 33.1 L130.1 29.2 L133.6 27.6 L133.6 21.8 L138.4 20 L139.1 18.4 L141.3 18.8 L142.3 17.3 L145.8 15.7 L152.8 17 Z"/>
  </g>
</svg>
