<svg xmlns="http://www.w3.org/2000/svg" viewBox="0 0 240 180">
  <g fill="#17324a" stroke="#fffaf3" stroke-width="3.2" stroke-linejoin="round" stroke-linecap="round">
  <path d="M182.3 78 L182.1 80.2 L179.6 81.2 L176.4 84.3 L174.1 91.2 L173.8 97.9 L172.7 98.4 L172 98.9 L171.1 101.5 L170.6 102.4 L163.2 103.4 L159.5 107.7 L150.5 111 L147.7 111.7 L145.9 109.5 L145.7 113.6 L142.3 115.7 L133.4 117.6 L129 120.2 L127.2 120.5 L118.6 119.5 L109.9 120.5 L108.1 121 L106.4 122.2 L100.8 127.4 L99.6 129.9 L96.6 129.9 L94 130.2 L93.2 131.3 L92.3 130.7 L92.1 128.6 L93.5 127.4 L94.1 128.2 L96.4 128.2 L96.2 124.2 L92.2 123.6 L90.7 125.1 L90 126.5 L89.2 125.8 L87.7 125.1 L87.3 126.1 L83.8 125.2 L81.5 123.4 L80.9 122.1 L80.8 120.2 L77.5 120.1 L75.9 122.1 L74.3 122.3 L73.4 124.5 L71 124.2 L69.6 123.8 L68.8 124.8 L68.9 127.1 L67.5 127.6 L62.4 128.3 L57.4 127.3 L44.3 120.3 L41.8 119.7 L36.7 119.2 L34.6 118.3 L32.5 117 L27.7 113.2 L27 112.4 L22.9 98.4 L16.9 92.9 L16.2 91.1 L16.1 89.2 L17.2 87.3 L14.9 83.5 L14.1 76 L11.5 71.5 L10.5 69.2 L10 65.5 L10.4 62.8 L11.8 61.9 L19.8 69.2 L22.1 70.1 L27.1 69.9 L31.5 67.6 L35 64 L37.7 60.2 L39.5 55.6 L40.8 53.2 L43.3 50.4 L47.7 50.9 L48.6 52.6 L50.4 53.6 L52.2 53.9 L53.6 53.6 L55.1 52.6 L56 50.6 L56.7 48.7 L60.5 49.2 L63.1 56.6 L74.4 62.3 L74.8 64.5 L74.8 65.8 L75.5 67 L76.7 67.6 L77.8 67.6 L80.9 66.7 L84.5 62.8 L88.3 65.6 L89.9 65.6 L95.9 60.2 L102.2 56.2 L112.5 57 L118.6 52.3 L125.2 53.7 L129.2 57.7 L131.2 58.9 L133.9 59.5 L139.6 53.5 L147.7 52.7 L148.4 53.1 L148.4 55 L148.8 57.1 L152.9 62.3 L152.9 70.1 L152.2 73.4 L151.4 76 L151.8 78 L152.9 79.5 L154.2 79.5 L156.2 78.9 L157 76.6 L157.5 72.4 L160.2 69.7 L161.2 70.8 L161.2 74.3 L161.9 76.3 L163.4 76.9 L165.6 76 L166.5 74.1 L167.6 73.3 L168.9 73.5 L170.3 74.4 L171.3 74.2 L172.3 73.7 L182.3 78 Z"/>
  <path d="M205.8 67.2 L209.7 68.7 L215.7 67.8 L216.8 68.6 L218.3 69.3 L220.7 67.8 L222.4 69.3 L224.2 71.4 L225.6 75.4 L226.9 78 L228.5 80.3 L230 81.3 L222.2 80.2 L220.9 78.8 L219.5 78 L212.9 78.9 L207.3 80.6 L206 81.3 L205 82.4 L201.7 81.6 L199.5 82.1 L198.6 81.5 L200.1 80.2 L201.1 79.9 L201.1 77.4 L198.8 77.2 L197.5 76 L197.6 72.8 L196.7 71.8 L193.9 70.6 L194.5 68.9 L195.6 68 L197.3 67.2 L198.2 67.9 L198.9 68.7 L200.6 68.4 L203.6 65.5 L205.8 67.2 Z"/>
  </g>
</svg>
