<svg xmlns="http://www.w3.org/2000/svg" viewBox="0 0 240 180">
  <g fill="#17324a" stroke="#fffaf3" stroke-width="3.2" stroke-linejoin="round" stroke-linecap="round">
  <path d="M37.1 153.5 L37.5 150.9 L36.5 147.1 L37.7 141.6 L34.7 141.1 L34.4 141.1 L34.3 141.5 L34.2 143.5 L32.6 145 L31.4 143.1 L32.3 138.4 L35.2 139.2 L34.1 140.8 L37.9 141.2 L35.9 126.3 L30.9 125 L29.8 123.9 L27.3 120 L27.9 119.2 L26.1 119.1 L25.6 119.6 L25.3 120.3 L25.4 120.7 L26.2 121.6 L25.4 122.3 L27.4 123.7 L27.7 124.6 L27.3 124.7 L21.2 120.7 L23.7 111.7 L22.2 98.6 L24.1 104.9 L23.8 107.4 L28.3 104.6 L29.4 103.4 L29.6 102.6 L27.5 98.7 L26.5 94.2 L22.8 92.4 L22.4 98.3 L21.6 96.8 L22.3 87.7 L22 70.3 L23.6 64.3 L24.7 62.4 L24.2 65.9 L27.1 68 L27.2 70.2 L27.3 68.9 L28.2 68.7 L29.6 68.6 L33 70.7 L34.4 68.9 L35.2 72.4 L36.4 73.9 L39.1 73.7 L39.9 69.7 L37.7 66.5 L38 66.2 L39.3 66.1 L41.1 63.1 L41.5 62.8 L44.3 62.3 L42.1 61.7 L43.1 59.6 L44 59 L45.3 57.7 L48.3 57.2 L49 57.4 L49.5 57.8 L51.5 62.4 L49.2 64.1 L48.2 66.2 L48.3 69.6 L49.6 67.3 L50.9 67.2 L50 66.9 L50.9 64.8 L50.8 65.9 L54.3 66.2 L53.6 68.9 L55.7 71.4 L57 69.6 L54.8 69.8 L55.7 64.4 L55.7 64.4 L55.1 63.1 L54.2 62.7 L51.6 64.1 L51.3 63.4 L53.4 60.5 L51.5 57.5 L52.5 54.6 L51.1 53.1 L51.7 51.8 L52.2 50.8 L54.7 47.9 L58.8 46.5 L59.7 46.6 L63 47.9 L62.6 48.8 L63.6 49.3 L65.9 45.8 L67 45.4 L67.9 44.8 L69.2 45.2 L72.2 44.8 L68.9 42.4 L66.5 44.7 L64.9 43.9 L64 44.8 L62.8 45.3 L60.4 45.3 L54 47.6 L49.8 44.8 L50 45.5 L47.8 46.9 L47 46.2 L43.8 48.5 L42.4 47.6 L41.3 49.3 L37.6 50.1 L35.6 55.3 L32.3 58.1 L31.9 62 L33 61.9 L33.3 62 L33.5 62.7 L33.3 63.1 L31.3 62.7 L30 63.4 L32.6 64.1 L34.6 63.3 L35 63.4 L35.6 66.3 L34.2 68.2 L31.7 65.3 L28.4 63.2 L27 59.6 L25.4 59 L25.5 62.6 L25.2 61.6 L25.2 59.3 L25.5 57.2 L26.1 55.6 L35.9 41.6 L40.5 42.5 L43.1 41.9 L44.2 41.4 L45.5 39.9 L46 39.7 L53 40.7 L55.6 40.4 L58.1 39.4 L60.5 37.9 L62.6 35.6 L68.6 24.7 L73.6 18 L80.1 17.5 L82.4 16.5 L84.4 15.1 L87.8 11.7 L89.7 10.4 L92.1 10.2 L92.7 10.7 L91.2 11.3 L89.8 12.6 L87.5 16.1 L86.6 19.1 L89.9 25.9 L89.1 28.1 L89.1 30.7 L89.7 35.9 L86.1 40.5 L84.3 47.3 L81.3 48.1 L74.4 43.1 L72.5 44.8 L74.6 43.5 L80 48.1 L83.4 48.6 L82 52.4 L82.8 58.9 L84.1 62 L80.3 62.7 L78.7 61.7 L73 65 L69.1 65.5 L69.1 65.9 L70.4 66.1 L74.6 64.8 L76.3 63.4 L77.4 63.7 L78.3 62.2 L81.3 63.4 L83.9 62.7 L84.4 63.8 L84.6 65.4 L84.1 66.9 L80.6 70 L79.7 74.4 L80.6 74.4 L80.9 74.1 L81.2 70.2 L83.8 67.7 L84.8 70 L85.6 70.7 L87.7 71.9 L97.6 71.2 L101.6 75.5 L100.1 81.2 L95.7 86.5 L95.2 90.3 L94.4 90.5 L93.4 89.7 L92.7 88.6 L93.5 88.4 L93.8 88.2 L93.9 87.5 L93.8 86.9 L92.2 86.1 L89.9 89.1 L90.6 92.4 L89.4 93 L88.3 91 L89.1 89.8 L88.8 89.5 L87.7 89.1 L86 89.7 L84.5 87.9 L86.6 86.9 L87.9 87.9 L88.3 87.2 L87.8 86.4 L87.9 85.7 L88.7 84.1 L85.9 83 L80.7 90.6 L82 94.3 L81 97.2 L82.3 97.1 L79.7 106.4 L77.4 104 L70.9 105.5 L75.9 107.4 L75.1 110.2 L76.2 110.6 L75.1 111.3 L74.7 113.1 L74.1 112.6 L68.8 114.4 L65.8 112.7 L62.9 112.7 L62.2 112.3 L62 113.1 L65 113.6 L67.2 116.7 L67.8 116.8 L70.5 116.8 L66.5 120.1 L66.4 121.3 L62.2 122 L60.5 123.7 L63.4 123.4 L65.1 124.3 L64.7 126.1 L63 126.8 L63.4 129.9 L64.6 131.1 L64.3 132.3 L66.5 135.8 L65.7 138.4 L62.5 138.6 L60.4 140.2 L60.9 141.6 L59.4 142 L61.2 142.5 L61.6 142.9 L62.2 144 L61.5 145 L61 145.5 L58.7 146.4 L59 147.1 L59.3 147.1 L62.8 145.8 L67 148.5 L67.9 153.5 L66.3 154 L67.4 155 L67.5 156.6 L66.1 155.4 L64 155.1 L63.7 153.2 L63.9 153 L64.6 152.7 L64.5 152.1 L63.8 151.7 L59.4 156.2 L58.8 157.9 L57.4 157.4 L55.5 158.3 L53.4 158.3 L52.9 158.1 L52 155.8 L46.1 154.4 L43.9 153.4 L37.1 153.5 Z"/>
  <path d="M131.7 153.7 L133.3 153.4 L135.3 156.4 L132.9 158.5 L132.4 159 L129.5 163.7 L129.7 169.9 L129.1 170 L126.9 165.4 L128 162.3 L127.5 162.2 L127.1 161.9 L127 161.4 L127.3 160.6 L125.2 158.1 L122.5 151.3 L123.8 149.9 L125.1 150.9 L127.3 149.2 L126.1 146.8 L119.8 143.7 L125.7 145.8 L122.7 142 L125.2 140.9 L122.5 139.9 L122.7 137.8 L120.7 139.2 L114.4 137.2 L111 137.8 L111 138.2 L111.5 138.5 L110.6 138.5 L109.9 138.2 L109.4 137.5 L109.2 136.1 L109.7 136.4 L110.1 136.5 L110.4 136.1 L110.6 135.4 L109.3 135.8 L109.3 135.5 L109.3 134.3 L107.1 132.3 L107.9 130.9 L106.6 130.6 L105.6 131.6 L105.4 131.4 L105 130.3 L108.6 128 L107.2 123.1 L104.8 122.5 L106.7 120.3 L106.6 119.3 L106.3 118.4 L105 116.8 L103.7 116 L100.6 115.1 L100.6 114.7 L105 115.1 L101.5 111.9 L99.1 111 L103.5 111.7 L107.1 110.6 L106 111.3 L108 113.1 L108.7 112.7 L107.5 111.7 L107.9 111.3 L109.6 111.7 L112.4 110.3 L113.1 107.7 L112.3 106.2 L113 106.6 L113.7 106.8 L115.9 106 L116.7 104.6 L116.9 102.6 L115.9 101 L111.1 99.7 L110.5 99.1 L110.2 98.2 L113.8 99.9 L119.3 100.9 L124.1 99.5 L123.4 102.9 L122.9 102.9 L122.5 102.7 L122.5 102.5 L122.7 102 L121.1 102.7 L122.5 105.2 L123 106.5 L122.7 107.5 L120.9 107.5 L119.6 108.9 L123.3 108.2 L123.9 110.6 L121 111.6 L123.9 112 L124.6 113.1 L124.8 113.7 L124.4 115.1 L126.5 111.5 L126.9 107.9 L128.8 106.8 L129.3 105.4 L128.7 103.8 L128 102.3 L128.2 101.3 L128.7 101.4 L130.5 102.9 L132 111.3 L131.3 112.3 L130.3 112 L129.8 112 L128 115.1 L128.6 115.3 L129.4 114.9 L130.6 113.2 L131.7 114.4 L130.8 114.1 L130.7 114.2 L130.9 114.7 L131.3 115 L132.3 115.4 L133.2 111.7 L131.3 101 L130.9 100.3 L130.4 100 L126.8 101.1 L126.3 100.6 L126.8 99.4 L135.2 92.8 L137.4 91.6 L139.8 91.7 L142.2 93.1 L144.2 93.1 L148 95.8 L144.9 101.6 L147.4 108.2 L147.4 112.7 L144.2 117.7 L141.9 117.2 L139.8 118.4 L136.1 123.8 L136.9 126.4 L138.2 127.7 L140.9 128.2 L142.1 129.3 L142.7 130 L143.6 133.7 L141.5 135.5 L135.7 136.9 L134 138.7 L133.3 141.2 L132.7 139.2 L131.1 139.7 L131.9 141.3 L134.2 141.5 L135.3 141.9 L135.5 143 L135.4 143.5 L133.9 144.6 L135.1 148.1 L131.5 149.9 L128 147.8 L127.3 151.3 L128.3 152.2 L129.4 150.9 L131.7 153.7 Z"/>
  <path d="M93.2 145.1 L91 145.4 L89.6 146.8 L83.3 145.1 L81.1 143.7 L80.3 143.6 L80.1 144 L80.1 145.1 L78.5 143.7 L76.4 143.7 L78.6 142 L78.9 141.3 L78.5 140.6 L78.1 139.7 L74.7 138.4 L75.3 142 L75.1 142.1 L74.2 141.9 L74 137.6 L73.6 137.3 L72.4 137.1 L71.3 135.6 L71.3 130.8 L69.4 130.5 L69 130.1 L68.4 129.2 L70.1 128.2 L66.3 125.1 L69.3 126.1 L65.7 122.9 L69.2 120.6 L71.4 122.7 L80.5 118.1 L81.2 117.9 L82 117.8 L82.4 118.9 L83.2 117.2 L89.1 121.5 L87.9 121.6 L88.2 123.4 L86.3 125.2 L86.8 126.1 L87.8 126 L88.3 124.9 L91.5 123.7 L90.4 122 L91.8 121.8 L91.2 119.2 L91.3 119.5 L91.8 119.9 L92.1 117.5 L95.4 123.8 L93 125.2 L91 125 L90.6 125.1 L90.2 125.4 L90.1 126.1 L90.3 126.4 L90.8 126.4 L91.3 125.2 L91.8 125.3 L93.7 125.8 L94.1 126.2 L96.9 130.3 L97.9 133.7 L96.9 132.8 L96.4 133 L96.2 133.9 L97.4 137.5 L96.5 142.1 L94.7 145.1 L94.3 145.2 L93.2 145.1 Z"/>
  <path d="M126.2 161.8 L125.2 163 L126.3 163.5 L126.2 164.6 L125.3 165.7 L124 166.1 L119.7 165.1 L115.2 167 L107.8 161.8 L102.8 159.8 L102.5 159 L102.7 158.2 L105.1 157.8 L105.6 156.8 L103.1 153.2 L103.5 152.4 L104.6 150.9 L105 151.1 L109.1 150.3 L112.1 152.4 L112.9 154.3 L119.2 157.8 L118.6 156 L120.9 155 L120.7 152.7 L124.6 156.8 L124.6 158 L126 159.2 L126.3 159.7 L126.2 161.8 Z"/>
  <path d="M218.8 141.6 L217.7 147.4 L216.6 148.7 L208.4 145.7 L206.1 143.8 L205.7 143.2 L206.4 136.5 L207.9 132.8 L212.5 137.5 L213.3 137.3 L213.8 137.4 L214.9 139.1 L218.8 141.6 Z"/>
  <path d="M41.7 60.6 L40 62.9 L37.8 63.5 L37 63.9 L35 61 L33 60.9 L33.1 60.3 L34.1 59.4 L33.8 58.3 L37.3 56.5 L36 56.2 L36.8 53.1 L41.4 52.3 L44.2 48.8 L43.8 54.1 L43.6 54.3 L43.4 54.5 L42.9 53.1 L42.2 53.6 L42.1 53.8 L43.2 57.5 L41.7 60.6 Z"/>
  <path d="M74.9 149.5 L76.4 154.3 L73.7 155.4 L71.1 154 L71.1 153.7 L71.8 153.3 L74.3 154.7 L74.3 154.4 L73 153.2 L69.4 153.3 L68.4 152.5 L67.8 149.2 L70.3 150.9 L68.6 148.3 L68.9 147.8 L68.9 147.5 L65.4 147.3 L66.1 145.8 L64.6 146.1 L64.2 145.8 L64.2 145.4 L66.6 144.2 L67.6 144 L68.8 144.3 L74.9 149.5 Z"/>
  <path d="M98.5 146.1 L98.7 144.7 L99.6 142.2 L100.7 140.3 L101.4 140.6 L100 146.8 L95.3 160.8 L94 161.6 L91.4 156.4 L92.9 155.8 L93.7 153.9 L94.9 154 L94.8 153.5 L94.7 153 L93.7 153 L94.1 151.8 L98.5 146.1 Z"/>
  </g>
</svg>
