<svg xmlns="http://www.w3.org/2000/svg" viewBox="0 0 240 180">
  <g fill="#17324a" stroke="#fffaf3" stroke-width="3.2" stroke-linejoin="round" stroke-linecap="round">
  <path d="M211.5 160.1 L204.2 162.9 L203.6 164.4 L202.4 165.5 L202.6 168 L199.5 170 L195.2 166.1 L193.9 165.6 L193.2 165.4 L192.7 165.5 L191.3 167 L186 159.4 L179.4 155.4 L173 144.8 L158.8 134.4 L156.9 130.9 L154.7 127.1 L151.8 123.8 L149 120.5 L137.7 115.8 L135.9 114 L133.8 112 L132.7 111.4 L131.5 110.9 L129 110.3 L128.6 110.3 L123.2 111.4 L120.6 109.5 L116.6 109.4 L112.9 107.4 L111.1 109.2 L106.2 109.7 L104.5 111 L102.3 106.4 L99.1 105.1 L98.3 107.4 L95.2 109.5 L83.2 111.7 L80.1 108.8 L77.8 104.2 L75.1 104.3 L74.6 104.2 L71.7 103 L68.5 98.6 L59.3 120.5 L52.2 110.5 L48.2 111 L47.4 111.6 L47 112.2 L46.4 115.1 L44.3 116.1 L39.1 114.1 L34.5 114.6 L31.2 116 L28.4 91.4 L31.1 88.1 L32.5 84 L33 83.1 L33.9 82.5 L33.6 81.3 L33.6 80.1 L35.1 74.7 L37.5 71.4 L41 61.6 L42.9 58.9 L42.3 55 L40.7 52.3 L41.4 48.2 L43 46.8 L44.1 43.1 L43.4 36.7 L47.5 38 L52.6 36.9 L55.2 37.6 L57.7 33.5 L57.7 29.6 L63.8 27.6 L65 25.5 L66 25 L68.6 25.9 L72.5 22.9 L73.2 22.9 L73.4 23.2 L73.6 24.9 L74.7 23 L77.9 23.6 L78.5 21.4 L80.9 19.9 L84 13.2 L87.9 10 L96.9 27.2 L97.6 29.6 L97.9 30.2 L97.5 31.3 L100.4 37.5 L102.9 46.5 L102.9 51.4 L103.7 52 L104.2 58.4 L106.9 68.8 L110.8 72.2 L110.4 73.4 L111.9 76.4 L111 77.2 L112.1 77.2 L110.6 78.1 L111.3 80.3 L113.9 79.8 L115.6 81 L118.5 87.7 L118.4 92.5 L120 93.2 L121.4 92.5 L122.3 89.7 L121.2 87.2 L120.4 87.9 L120 84.1 L120.7 82.4 L122.8 80.9 L128.4 85.5 L126.9 88.4 L130.6 95.7 L134 97.6 L136.9 95.1 L137.2 96.1 L138.6 95 L140 96.2 L140.2 94.7 L141.7 96.6 L143.1 96.6 L143.4 98.2 L145.2 98.1 L144.5 98.6 L146.1 99.9 L146 102.1 L147.2 103.8 L148.3 103 L148.9 103.3 L150.4 103.3 L158.1 105.5 L161.3 108.8 L162.7 112.1 L167.4 117.5 L168.1 119.6 L170.5 121.7 L172.1 125.2 L175.4 125.4 L176.6 126.9 L180.1 127.9 L183.8 133.6 L184.8 133.4 L187 136.2 L186.3 134.9 L186.9 133.9 L185.3 133.3 L186 132.9 L188.8 135.6 L191.2 145.5 L194.5 146.3 L195.5 145.3 L198.8 149.8 L200.9 150.9 L202.3 156.1 L203.8 155.7 L206.5 157.8 L208.3 154.7 L210.6 156.9 L211.5 160.1 Z"/>
  <path d="M136.8 77 L137.5 78.2 L137.4 78.7 L137 78.9 L125.6 78 L124.5 75.3 L125.4 76.4 L128.4 76.4 L126.4 74.3 L124.3 74.2 L124.4 72.8 L125.9 73.3 L125.5 72.1 L127.2 71.4 L124.8 69.8 L128.7 71.1 L128.8 72.9 L129.9 72.3 L129.8 75 L130.7 76.9 L130.9 76.9 L132.5 77.4 L133.3 76.4 L132.2 75.7 L133.5 75.2 L136.8 77 Z"/>
  </g>
</svg>
