<svg xmlns="http://www.w3.org/2000/svg" viewBox="0 0 240 180">
  <g fill="#17324a" stroke="#fffaf3" stroke-width="3.2" stroke-linejoin="round" stroke-linecap="round">
  <path d="M163.4 14.1 L163 17.1 L161.1 18.4 L160 20.8 L160.8 22.2 L159.2 28.7 L162 32.9 L162.3 35.2 L159.9 37.5 L162.2 38.1 L165 36.4 L169.7 36.6 L172.3 34.7 L175.2 34.2 L176.2 32.7 L181 33.2 L181.4 33.2 L182.7 34.2 L185.1 33.8 L187.9 35.3 L188.6 40.5 L189 41 L190.3 41.6 L191.7 44.6 L193.4 46 L192.6 47 L192.7 47.3 L192.9 48.5 L190.1 51.6 L190 52.9 L189.8 53.5 L187.7 55.4 L183.4 55.6 L182.6 56.7 L182.9 58.2 L180 60.4 L178.1 64.3 L178.7 68.3 L179.7 68.8 L179.4 70.7 L177.1 73.9 L178.4 76.1 L179.4 75.4 L183.8 76.4 L185.5 81 L188.9 80.5 L189.6 80.7 L190.6 81.2 L193.3 83.5 L193.9 84.7 L194.2 85.5 L192.8 89.2 L193.1 91.3 L191.4 95.2 L193.3 100.4 L192.3 103.4 L193.9 105.4 L192.6 107.8 L193.2 109 L190.7 110.6 L192.9 112.5 L191.8 113.7 L191.8 117.8 L187.5 120 L187.4 123.9 L185.2 126.2 L187.4 129.6 L185.6 130 L183.5 133.3 L177.5 132.4 L179 129.7 L174.9 123 L171.3 128.7 L167.6 131.8 L156.5 129.1 L155.1 130 L156.1 127.6 L154.5 125.2 L153.8 125.5 L153.5 125.5 L150.9 118.4 L146.5 116 L143.5 117.1 L142.7 118.6 L141.2 117.5 L141.5 121.7 L142.1 122.5 L143.1 122.9 L142 128.9 L131.9 131.1 L128.7 128.9 L124.1 131.1 L121.5 129.3 L119.2 128.9 L120.7 136.7 L118.3 142.6 L121 141.8 L124.6 146.2 L122.8 147.3 L122.3 150.4 L128.9 153.8 L125.8 160.7 L127.9 162.5 L126.2 164.2 L122.3 163.9 L119.3 160 L118.3 159.3 L117.1 159.1 L115.3 161.1 L110.2 163.9 L107.6 170 L105.3 168 L103.8 163.7 L95.7 157.6 L95.4 154.1 L76.7 138.4 L72.1 132.8 L71.6 131.8 L73.9 133.3 L75.1 132.2 L75.3 134 L77.1 134.5 L77.5 135.1 L77.5 135.7 L78.4 135.3 L78.5 136.3 L78.6 136.6 L82.9 135.3 L82.7 134 L81.1 133.1 L81.2 133.5 L81.6 134.8 L79.6 133.4 L78.4 134.7 L78.1 133.4 L79 133.1 L76.8 132.5 L76.3 131.3 L76.2 131.1 L72.8 132.5 L72 130.1 L71.6 131.6 L68.9 129.5 L68.1 125.4 L60.5 117.3 L62.8 118.3 L63.3 117.6 L63.3 118.7 L65.6 118.5 L65.3 119.9 L66.6 120.5 L67.5 122.3 L68.1 121.8 L66.3 119.4 L66.8 118.6 L66 117.2 L65.5 116.7 L64.8 116.6 L64.8 117.6 L63.2 115.9 L62.3 117.6 L61.1 116 L60.5 116.4 L60.1 116.3 L59.7 110.8 L53.2 100.8 L57.7 106.9 L60.4 108.6 L60.6 111.8 L60.8 112.2 L61.2 111.1 L61.6 111.7 L63.9 110.6 L64.2 112 L64.2 110.5 L67.9 110.5 L66.9 110.1 L66.5 109.8 L66 107.3 L65.2 106.9 L63.3 109.3 L60.9 109.4 L60 107.3 L62.7 103.9 L62 102 L61.9 104.4 L60.7 104.1 L58.4 105.4 L57.4 103.4 L56.4 103.8 L54.4 102.6 L54.5 99.9 L54 99.3 L53.5 98.9 L53.5 100.6 L52.8 97.6 L50.2 94.3 L50.9 95 L51.3 95.1 L52 94 L50.5 94.3 L49.5 92.9 L45.8 84.4 L46.2 83.8 L47.8 85.6 L49.6 89.8 L50.2 87.8 L51.4 87.9 L50.9 86.6 L51.2 86.6 L51.8 86.9 L53.9 91.7 L54.9 87.5 L55.9 86.2 L56.2 86.1 L56.5 86.8 L56.2 84.7 L61.4 77.9 L62.7 68.7 L61.3 61.9 L62.4 60.3 L63.3 61.5 L62.8 64.7 L64.5 64 L66.1 66.9 L66.5 64.6 L67.8 64.9 L68.1 65.1 L68.6 66.5 L69.7 65.4 L71.8 65.9 L74.4 68.8 L73 66.2 L74.6 66.3 L76.8 64.6 L79.8 64.6 L77.5 63.8 L73.9 64.7 L70.7 63.6 L68.1 61.2 L66.3 61.9 L63.8 56.9 L61.4 55.5 L61.7 53.4 L67.4 51.9 L67.9 53.5 L65.5 54.1 L66.1 53.9 L66.8 53.9 L67.4 54.3 L67.6 54.9 L68.3 54.1 L68.5 57.1 L68.7 57.3 L69.2 57.4 L70 54.1 L68 44.8 L68.7 43.4 L70.7 42.3 L73.1 42.4 L73.9 44.6 L74.9 43.9 L77.3 45.7 L78.5 45.3 L78.7 43.9 L79.2 43.8 L79.9 43.7 L113.3 43.8 L113 14 L113.7 10.6 L121.9 10 L124.4 11.1 L135.5 11.1 L138.5 10.2 L149.5 12.2 L150.9 11.5 L158 11.9 L160 11 L162.7 11.7 L163.4 14.1 Z"/>
  </g>
</svg>
