<svg xmlns="http://www.w3.org/2000/svg" viewBox="0 0 240 180">
  <g fill="#17324a" stroke="#fffaf3" stroke-width="3.2" stroke-linejoin="round" stroke-linecap="round">
  <path d="M118 105.7 L120.4 110.9 L121 115.3 L119.9 130.2 L115.9 139.1 L116 141.5 L117.7 146.4 L116.9 147.4 L115.4 148.1 L114.5 149.9 L114.2 152.3 L114.1 154.8 L112.4 157.5 L99.7 164.2 L99.7 161.9 L97.2 163.2 L95.3 164.9 L94.1 167.1 L93.6 170 L90.9 169.5 L88.2 168.7 L85.7 167.5 L83.3 166.1 L80.3 168.8 L75.2 169.8 L69.7 169.5 L65.3 168.3 L75.6 161.7 L77.4 159.8 L78.5 155.4 L75.4 144.2 L77 137.4 L83.1 125.5 L83.3 120.3 L100.6 99.2 L106.8 98.1 L113.6 99 L120 103 L119.8 104 L118 105.7 Z"/>
  <path d="M172.8 32.8 L167.6 31.2 L152.6 37.1 L156.6 28.6 L155.7 28.5 L152.6 28.6 L153 27.4 L154.8 24.5 L161.2 26.4 L165 21.2 L168.2 14 L172.8 10 L174.7 15 L172.8 32.8 Z"/>
  </g>
</svg>
