<svg xmlns="http://www.w3.org/2000/svg" viewBox="0 0 240 180">
  <g fill="#17324a" stroke="#fffaf3" stroke-width="3.2" stroke-linejoin="round" stroke-linecap="round">
  <path d="M222.4 100.8 L225.4 107 L227.3 109 L230 111 L218 115.8 L216.2 115.4 L217.6 113.2 L215.8 113.9 L214.1 116.3 L212.4 116.8 L207.2 115 L204.1 116.2 L196.2 116.9 L188.3 116.1 L187.2 115.4 L186.3 112.1 L183 109.6 L177.7 107.8 L170.4 109 L165.2 108.8 L165.2 108.1 L176.2 107.4 L173.7 106 L170.7 105.9 L168.6 106 L163.4 102.9 L161 107.3 L159.7 107.2 L159.3 108 L158.9 110.4 L157.1 116.8 L155.7 118.7 L154.1 119.7 L150 118.3 L144.4 118.3 L144.4 117.5 L146.6 116.8 L141.8 112.7 L138.9 112.4 L136.3 113.3 L134.1 114.7 L132.4 118 L132 118.9 L132.8 121.9 L130 123.3 L130.7 125.6 L129.6 125.1 L128.5 125 L127.5 125.4 L126.5 126.2 L128.3 127.3 L130.2 127.7 L132.1 127.5 L134.1 126.9 L135.2 130.9 L134.9 132.7 L132.4 133.5 L130.3 133.4 L128.4 133 L126.6 132.1 L117.8 124.2 L116 121.9 L108.5 117.5 L106.3 116.7 L103.9 116.4 L102.1 117.2 L99.9 118.6 L97.8 118.8 L93.4 117.5 L89.1 116.8 L75.5 117.6 L74.8 117.5 L68.3 113.6 L66.2 108.5 L64.4 107.9 L63.8 107.4 L63.2 100.3 L60.7 99.3 L53.7 99.3 L52.1 98.7 L49.7 93.1 L48.9 92 L45.6 90.1 L42.6 82.5 L40.1 81.1 L32.7 81.3 L28.2 80.5 L26.5 80.5 L25.6 81.3 L24.8 81.8 L13.4 78.6 L11.7 77.4 L10.4 75.8 L10 74 L12.8 71.1 L13 69.8 L12.9 66.6 L13.9 63.6 L14.3 63.2 L15.9 63.1 L18.7 60.3 L20.4 60.9 L21.4 57.9 L24.5 55.1 L28.1 53.9 L30.7 55.8 L32.2 54.1 L33.8 54 L35.6 54.7 L37.9 55.2 L44.4 54.4 L50.7 55.2 L54.7 48.9 L55.7 48 L57.5 47.2 L61.6 46.5 L66.2 46.7 L74.3 48.4 L81.4 50 L91.2 50.2 L95.6 51.2 L102.5 51.8 L105.2 52.4 L107.2 53.7 L110.4 52.8 L115.6 52.9 L120.9 53.5 L124.5 54.4 L125.8 56.6 L127.2 55.8 L131.7 56.6 L134.5 58.8 L143.1 58 L147.6 59.5 L156.3 58.4 L157.6 58.6 L158.9 58.8 L159.6 59.7 L159.3 60.8 L159.3 62.2 L167.1 67.4 L167.7 68.4 L168.6 71.2 L169.2 72.1 L170.2 72.7 L178.9 74 L183.8 77.7 L185.5 78.2 L188.8 78 L193.1 80.5 L200.6 80.5 L202.3 82.8 L209.7 84.2 L213.6 85.6 L214.1 87.8 L216.9 90.5 L219.2 93.7 L222.4 100.8 Z"/>
  </g>
</svg>
