<svg xmlns="http://www.w3.org/2000/svg" viewBox="0 0 240 180">
  <g fill="#17324a" stroke="#fffaf3" stroke-width="3.2" stroke-linejoin="round" stroke-linecap="round">
  <path d="M20.9 86.8 L20.9 86.8 L20.9 86.8 L20.9 86.8 L20.9 86.8 L20.9 86.8 L20.9 86.8 L20.8 86.8 L20.8 86.8 L20.8 86.8 L20.8 86.8 L20.8 86.8 L20.8 86.8 L20.8 86.8 L20.8 86.8 L20.8 86.8 L20.7 86.8 L20.7 86.8 L20.7 86.7 L20.7 86.7 L20.7 86.7 L20.6 86.7 L20.6 86.7 L20.6 86.7 L20.6 86.7 L20.6 86.7 L20.6 86.7 L20.6 86.7 L20.7 86.7 L20.7 86.7 L20.7 86.7 L20.7 86.7 L20.6 86.7 L20.6 86.7 L20.6 86.7 L20.6 86.7 L20.7 86.7 L20.7 86.7 L20.7 86.7 L20.7 86.7 L20.7 86.7 L20.7 86.7 L20.7 86.7 L20.7 86.7 L20.7 86.7 L20.7 86.7 L20.7 86.7 L20.7 86.7 L20.7 86.7 L20.7 86.7 L20.7 86.7 L20.7 86.7 L20.7 86.7 L20.7 86.7 L20.7 86.7 L20.7 86.7 L20.7 86.7 L20.7 86.7 L20.7 86.7 L20.7 86.7 L20.7 86.7 L20.7 86.7 L20.7 86.7 L20.7 86.7 L20.7 86.7 L20.7 86.7 L20.7 86.7 L20.7 86.7 L20.7 86.7 L20.7 86.7 L20.7 86.7 L20.7 86.7 L20.7 86.7 L20.7 86.7 L20.7 86.7 L20.8 86.7 L20.8 86.7 L20.8 86.7 L20.8 86.7 L20.8 86.7 L20.8 86.7 L20.7 86.7 L20.7 86.7 L20.7 86.6 L20.7 86.6 L20.7 86.6 L20.7 86.6 L20.7 86.6 L20.7 86.6 L20.7 86.6 L20.7 86.6 L20.7 86.6 L20.7 86.6 L20.7 86.6 L20.7 86.6 L20.7 86.6 L20.7 86.6 L20.8 86.7 L20.8 86.6 L20.8 86.7 L20.8 86.7 L20.8 86.7 L20.8 86.7 L20.8 86.7 L20.8 86.7 L20.8 86.7 L20.8 86.7 L20.8 86.7 L20.8 86.8 L20.8 86.8 L20.8 86.8 L20.9 86.8 L20.9 86.8 Z"/>
  <path d="M19.6 85.5 L19.6 85.5 L19.6 85.5 L19.6 85.5 L19.6 85.5 L19.6 85.5 L19.6 85.5 L19.6 85.5 L19.5 85.5 L19.5 85.5 L19.5 85.5 L19.5 85.5 L19.5 85.5 L19.5 85.5 L19.6 85.5 L19.6 85.5 L19.6 85.5 L19.5 85.5 L19.5 85.5 L19.5 85.5 L19.5 85.5 L19.5 85.5 L19.5 85.4 L19.5 85.4 L19.5 85.4 L19.5 85.4 L19.5 85.4 L19.5 85.4 L19.5 85.5 L19.5 85.5 L19.5 85.4 L19.5 85.4 L19.5 85.4 L19.5 85.4 L19.5 85.4 L19.5 85.4 L19.5 85.5 L19.5 85.5 L19.5 85.5 L19.6 85.5 Z"/>
  <path d="M22.2 90.4 L22.3 90.4 L22.3 90.4 L22.3 90.4 L22.3 90.4 L22.3 90.4 L22.3 90.4 L22.3 90.5 L22.3 90.5 L22.2 90.4 L22.2 90.4 L22.2 90.4 L22.2 90.4 L22.2 90.4 L22.2 90.4 Z"/>
  <path d="M228.9 88.8 L228.9 88.8 L228.9 88.8 L228.9 88.8 L228.9 88.9 L228.8 88.9 L228.8 88.8 L228.9 88.8 L228.9 88.8 L228.9 88.8 L228.9 88.8 L228.9 88.8 L228.9 88.8 L228.9 88.8 L228.9 88.9 L228.9 88.8 L228.9 88.8 L228.9 88.8 L228.9 88.8 L228.9 88.8 L228.9 88.8 L228.9 88.8 L228.9 88.8 L228.9 88.8 L228.9 88.8 L228.9 88.8 Z"/>
  <path d="M228.7 88.6 L228.7 88.7 L228.7 88.7 L228.7 88.7 L228.7 88.7 L228.7 88.6 L228.7 88.6 L228.7 88.6 L228.7 88.6 L228.7 88.6 L228.7 88.6 L228.7 88.6 L228.7 88.6 L228.7 88.6 Z"/>
  <path d="M227.8 86.6 L227.8 86.6 L227.8 86.6 L227.8 86.6 L227.8 86.6 L227.8 86.6 L227.8 86.6 L227.8 86.6 L227.8 86.6 L227.8 86.6 L227.8 86.6 L227.8 86.6 L227.8 86.6 L227.8 86.6 L227.8 86.6 L227.8 86.6 L227.8 86.6 L227.8 86.6 L227.8 86.6 L227.8 86.6 L227.8 86.6 L227.8 86.6 L227.8 86.6 L227.8 86.6 L227.8 86.6 L227.8 86.6 L227.8 86.6 L227.8 86.6 L227.8 86.6 L227.8 86.6 L227.8 86.6 L227.8 86.6 L227.8 86.6 L227.8 86.6 L227.8 86.6 L227.8 86.6 L227.8 86.6 L227.8 86.6 L227.8 86.7 L227.8 86.7 L227.8 86.7 L227.8 86.7 L227.8 86.7 L227.8 86.7 L227.8 86.7 L227.8 86.7 L227.8 86.7 L227.8 86.7 L227.8 86.6 L227.7 86.6 L227.7 86.6 L227.8 86.6 L227.8 86.6 L227.8 86.6 L227.8 86.6 L227.8 86.6 L227.8 86.6 L227.8 86.6 L227.8 86.7 L227.8 86.7 L227.8 86.7 L227.8 86.7 L227.8 86.7 L227.8 86.6 L227.8 86.6 L227.8 86.6 L227.8 86.6 L227.8 86.6 L227.8 86.6 L227.8 86.6 L227.8 86.6 L227.8 86.6 L227.8 86.6 L227.8 86.6 L227.8 86.6 L227.8 86.6 Z"/>
  <path d="M24.2 95 L24.2 95 L24.2 95.1 L24.3 95.1 L24.2 95.1 L24.2 95.1 L24.2 95 L24.2 95 L24.2 95 Z"/>
  <path d="M229.7 88.7 L229.7 88.7 L229.7 88.7 L229.8 88.8 L229.8 88.8 L229.7 88.8 L229.7 88.8 L229.7 88.8 L229.7 88.7 L229.7 88.7 L229.7 88.7 L229.7 88.7 L229.7 88.7 L229.7 88.7 L229.7 88.7 Z"/>
  <path d="M230 89.5 L230 89.5 L230 89.5 L230 89.6 L230 89.6 L230 89.6 L230 89.5 L230 89.5 L230 89.5 L230 89.5 Z"/>
  <path d="M227.4 86 L227.4 86 L227.5 86 L227.5 86 L227.5 86 L227.5 86 L227.5 86 L227.5 86 L227.5 86 L227.5 86 L227.5 86 L227.5 86 L227.5 86 L227.5 86 L227.4 86 L227.4 86 L227.4 86 L227.4 86 L227.4 86 Z"/>
  <path d="M228.1 87.6 L228.1 87.6 L228.2 87.6 L228.2 87.6 L228.1 87.6 L228.1 87.6 L228.1 87.6 L228.1 87.6 L228.1 87.6 L228.1 87.6 L228.1 87.6 L228.1 87.6 Z"/>
  <path d="M229.5 88.7 L229.5 88.7 L229.5 88.8 L229.5 88.8 L229.5 88.7 L229.5 88.7 L229.5 88.7 L229.5 88.7 L229.5 88.7 L229.5 88.7 L229.5 88.7 L229.5 88.7 L229.4 88.7 L229.4 88.7 L229.4 88.7 L229.4 88.7 L229.4 88.7 L229.4 88.7 L229.4 88.7 L229.4 88.7 L229.4 88.7 L229.5 88.7 L229.5 88.7 L229.5 88.7 Z"/>
  <path d="M227.6 87 L227.6 87 L227.6 87 L227.6 87 L227.6 87 L227.6 87 L227.7 87 L227.7 87 L227.7 87 L227.7 87 L227.7 87 L227.7 87 L227.7 87 L227.7 87 L227.7 87 L227.7 87 L227.7 87 L227.6 87 L227.6 87 L227.6 87 Z"/>
  <path d="M11.8 89.7 L11.8 89.7 L11.8 89.7 L11.8 89.7 L11.8 89.7 L11.8 89.7 L11.8 89.7 L11.8 89.7 L11.8 89.7 L11.8 89.7 L11.8 89.7 L11.8 89.7 L11.8 89.7 L11.8 89.7 L11.8 89.7 L11.8 89.7 L11.8 89.6 L11.8 89.6 L11.8 89.6 L11.8 89.6 L11.8 89.6 L11.8 89.6 L11.8 89.6 L11.8 89.6 L11.8 89.6 L11.8 89.6 L11.8 89.6 L11.8 89.6 L11.8 89.7 L11.8 89.7 L11.8 89.7 L11.8 89.7 L11.8 89.7 L11.8 89.7 L11.8 89.7 L11.8 89.7 L11.8 89.7 Z"/>
  <path d="M227.6 87.3 L227.6 87.3 L227.6 87.3 L227.6 87.3 L227.6 87.3 L227.6 87.4 L227.6 87.4 L227.6 87.4 L227.6 87.3 L227.6 87.3 L227.6 87.3 L227.6 87.3 L227.6 87.3 L227.6 87.3 L227.6 87.3 L227.6 87.3 L227.6 87.3 L227.6 87.3 L227.6 87.3 L227.6 87.3 L227.6 87.3 L227.6 87.3 L227.6 87.3 L227.6 87.3 L227.6 87.2 L227.6 87.2 L227.6 87.2 L227.6 87.3 L227.6 87.3 L227.6 87.3 Z"/>
  <path d="M21.7 91.4 L21.7 91.4 L21.7 91.4 L21.7 91.4 L21.7 91.4 L21.7 91.4 L21.7 91.4 L21.7 91.4 L21.7 91.4 L21.7 91.4 L21.7 91.4 L21.7 91.4 Z"/>
  <path d="M228.5 88.3 L228.5 88.3 L228.5 88.4 L228.5 88.4 L228.5 88.4 L228.5 88.4 L228.5 88.4 L228.5 88.4 L228.5 88.4 L228.5 88.4 L228.5 88.4 L228.5 88.4 L228.5 88.4 L228.5 88.4 L228.5 88.4 L228.5 88.4 L228.5 88.4 L228.5 88.4 L228.5 88.4 L228.5 88.4 L228.5 88.4 L228.5 88.3 L228.5 88.3 L228.5 88.3 Z"/>
  <path d="M227.6 86.9 L227.6 86.9 L227.6 86.9 L227.6 86.9 L227.6 86.9 L227.6 86.9 L227.6 86.9 L227.6 86.9 L227.6 86.9 L227.6 86.9 L227.6 86.9 Z"/>
  <path d="M227.6 86.7 L227.6 86.7 L227.6 86.7 L227.6 86.7 L227.6 86.7 L227.6 86.7 L227.6 86.7 L227.5 86.7 L227.5 86.7 L227.6 86.7 L227.6 86.7 L227.6 86.7 L227.6 86.7 Z"/>
  <path d="M228.5 88.3 L228.5 88.3 L228.5 88.3 L228.5 88.3 L228.5 88.3 L228.5 88.3 L228.5 88.3 L228.5 88.3 L228.5 88.3 L228.5 88.3 L228.5 88.3 L228.5 88.3 Z"/>
  <path d="M228 87.8 L228 87.8 L228 87.8 L228 87.8 L228 87.8 L228 87.8 L228 87.8 L228 87.8 L228 87.7 L228 87.8 L228 87.8 L228 87.8 L228 87.8 L228 87.8 L228 87.8 Z"/>
  <path d="M225.4 88.4 L225.4 88.4 L225.4 88.4 L225.4 88.4 L225.4 88.4 L225.4 88.4 L225.4 88.4 L225.4 88.4 L225.4 88.4 L225.4 88.4 L225.4 88.4 L225.4 88.4 L225.4 88.4 L225.4 88.4 L225.4 88.4 L225.4 88.4 L225.4 88.4 L225.4 88.4 L225.4 88.4 L225.4 88.4 L225.4 88.4 L225.4 88.4 L225.4 88.4 L225.4 88.4 L225.4 88.4 L225.4 88.4 L225.4 88.4 L225.4 88.4 L225.4 88.4 L225.4 88.4 L225.4 88.4 L225.4 88.4 L225.4 88.4 L225.4 88.4 L225.4 88.4 L225.4 88.4 Z"/>
  <path d="M12.1 90.7 L12.1 90.7 L12.1 90.7 L12.1 90.7 L12.1 90.7 L12.1 90.7 L12.1 90.7 L12.1 90.7 L12.1 90.7 Z"/>
  <path d="M229.2 89.1 L229.2 89.1 L229.2 89.1 L229.2 89.1 L229.2 89.1 L229.2 89.1 L229.2 89 L229.2 89 L229.2 89 L229.2 89.1 Z"/>
  <path d="M11.5 90.7 L11.5 90.7 L11.5 90.7 L11.5 90.7 L11.5 90.7 L11.5 90.7 L11.5 90.7 L11.4 90.7 L11.5 90.7 L11.5 90.7 L11.5 90.7 L11.5 90.7 L11.5 90.7 Z"/>
  <path d="M227.6 86.8 L227.6 86.8 L227.6 86.8 L227.6 86.8 L227.6 86.8 L227.6 86.8 L227.6 86.8 L227.6 86.8 L227.6 86.8 L227.6 86.8 L227.6 86.8 L227.6 86.8 L227.6 86.8 L227.6 86.8 L227.6 86.8 L227.6 86.8 Z"/>
  <path d="M227.6 85.9 L227.6 85.9 L227.6 85.9 L227.6 85.9 L227.6 85.9 L227.5 85.9 L227.5 85.9 L227.6 85.9 L227.6 85.9 Z"/>
  <path d="M18.8 84.9 L18.8 84.9 L18.8 84.9 L18.9 84.9 L18.9 84.9 L18.9 84.9 L18.9 84.9 L18.9 84.9 L18.8 84.9 Z"/>
  <path d="M12.2 89.9 L12.2 89.8 L12.2 89.8 L12.2 89.9 L12.2 89.9 L12.2 89.9 L12.2 89.9 Z"/>
  <path d="M10 90.8 L10 90.8 L10 90.8 L10 90.8 L10 90.8 L10 90.8 L10 90.8 L10 90.8 L10 90.8 Z"/>
  <path d="M229.5 89.5 L229.5 89.5 L229.5 89.4 L229.5 89.5 L229.5 89.5 L229.5 89.5 L229.5 89.5 L229.5 89.5 L229.5 89.5 L229.5 89.5 L229.5 89.5 Z"/>
  </g>
</svg>
