<svg xmlns="http://www.w3.org/2000/svg" viewBox="0 0 240 180">
  <g fill="#17324a" stroke="#fffaf3" stroke-width="3.2" stroke-linejoin="round" stroke-linecap="round">
  <path d="M203.8 53.5 L209.1 53.5 L208.6 58.9 L209.3 59.8 L212.5 61.2 L218.6 66.7 L218.1 74 L213.8 77.1 L215.7 79.1 L215.8 80.5 L214.8 85.2 L212.7 89.5 L212.1 91.5 L212.6 91.6 L213.1 91.8 L215.6 90.3 L216.9 90 L220.8 92.8 L219.3 97.1 L219.8 98.1 L222.8 100.2 L223.7 105.7 L227.2 108 L226.3 111.1 L228.4 114.1 L230 123.3 L227.9 130.5 L226.8 129.7 L221.2 132.3 L216.8 137.5 L216.6 138.8 L215.6 140.6 L212.6 142.7 L211 149.8 L210.2 149.9 L206.4 149.5 L203.7 147.7 L201 150.2 L197.7 147.7 L192.4 148 L187.7 154.7 L185.3 156 L182.1 155.3 L181.4 155.7 L180.7 156.9 L179 156.7 L177.3 156.2 L173.1 154.1 L171.2 152.6 L168.1 146.7 L153.5 133.5 L152.4 130.6 L148.2 129.7 L146.2 130.1 L134.6 127.4 L131.5 121.7 L129.6 114.9 L129.1 114 L128.4 113.8 L127.7 115.9 L122.6 117.4 L118.4 122.4 L116.6 123.4 L115.6 123.9 L111.7 121.8 L106.3 124.1 L98.1 119.9 L93.7 120.1 L93.1 118.7 L92.3 118.8 L90.2 118.7 L89.2 119 L87.4 120.1 L80.4 117.7 L76.9 118.5 L75.1 121.1 L73.5 121.5 L69.4 115.5 L61.5 119 L58.8 116.8 L56.8 116.4 L47.8 116.7 L44.2 115.2 L31.7 121.2 L29 121.3 L27.9 121.9 L23.7 125.2 L20.9 125.9 L17.9 129.3 L16.7 133.7 L12.5 134.1 L10.1 125.5 L10 117.8 L11.1 109.5 L12.3 112.7 L11.9 115.7 L12.6 116.7 L12.8 116.9 L13.4 116 L12.6 110 L10.7 107.9 L12.7 100.1 L12.6 92.3 L18.3 87.4 L22.6 82.3 L23.1 80.8 L23.5 78.8 L23.7 66.8 L32.2 52 L33.1 51 L34.4 50.3 L40 49.9 L41.3 49.5 L47.2 46.3 L56 41.6 L59.5 40.7 L59.2 47 L59.5 47.8 L61.2 50.3 L72.6 60.9 L75.6 62.2 L79.6 77.3 L82 79.6 L84.5 80.6 L87.1 81.1 L89.4 84 L90.8 84.5 L92.8 84.7 L100.6 82.1 L103.1 79 L108.4 76 L114.2 68.5 L112.9 52.3 L113 50.8 L113.4 48.8 L113 45.5 L112.9 44.8 L111.5 42.6 L111.1 41.5 L111.3 34.6 L112.6 35.2 L113.5 35.1 L115 32.8 L118.2 30.4 L122.8 30.2 L124.3 27.7 L126.8 28.6 L130.8 26.9 L135.2 23.6 L136.6 23.5 L137.4 24 L138.5 27.8 L138.9 28.1 L139.4 28.1 L140.4 27.6 L141 26.9 L140.8 26 L139.9 24.5 L140.9 23.2 L142.2 25.4 L144.4 26 L146.2 28.2 L148.8 29.4 L149.9 31.8 L150.6 32.2 L151.3 32.3 L154.5 31.6 L156.4 35.3 L162.8 35.9 L163.1 36 L163.5 39.8 L166.8 42.6 L167.8 43.7 L170.7 48.4 L171.7 49.6 L175.8 51.6 L177.9 54.2 L179.2 53.5 L180.3 54.1 L184 51.1 L186.3 51.3 L186.9 51.1 L189.2 48 L192.5 49 L195.6 52.3 L198.1 52.5 L202.8 54.2 L203.8 53.5 Z"/>
  </g>
</svg>
