<svg xmlns="http://www.w3.org/2000/svg" viewBox="0 0 240 180">
  <g fill="#17324a" stroke="#fffaf3" stroke-width="3.2" stroke-linejoin="round" stroke-linecap="round">
  <path d="M170.7 35.9 L174.7 37 L175.7 40.2 L180.4 42.3 L185.9 48.2 L192.8 49.8 L193.1 54.2 L195.8 56.9 L199.6 65.1 L199.7 67.3 L201.1 69.1 L198.6 75.9 L192.3 78.7 L190.9 80.1 L190.4 83.7 L190.8 85.5 L191.8 86.7 L190.7 87.4 L190.6 88.6 L190.6 89.9 L182.8 94 L179.6 100.4 L179.1 106.2 L180 107.5 L180.9 108.2 L182.1 112.7 L162.7 124.6 L158.4 126.4 L154 127.3 L148 129.6 L141.4 128.2 L135.8 130.8 L132.6 130.3 L131 130.6 L125 138.1 L121.2 139.2 L119.8 140 L118.8 141.2 L118.6 142.6 L121.1 144.8 L121.3 146.5 L120.8 148.2 L119.9 149.2 L114.3 153.6 L113.8 154.6 L114.8 157.9 L113.7 161.5 L113.5 161.9 L110.8 164.5 L110.7 170 L109.1 169.3 L101.2 168.6 L96 165.8 L93.4 166.6 L90.6 166.2 L88.3 165.5 L86.3 164.3 L82.7 160.2 L78.7 157.1 L77.9 154.4 L76.3 152.1 L74.5 150.4 L74.3 149.7 L74.1 148.8 L71.6 147.7 L70.6 146.8 L68.9 143.3 L63.2 143.4 L61.7 135.8 L64.2 130.4 L59.6 129.6 L57.5 123.6 L52 117.9 L44.1 99.2 L42.2 96.3 L38.9 94 L39.8 92.1 L39.8 90.8 L40.3 90.1 L41 90.1 L41.6 91 L42.9 88.9 L44.5 90 L47.3 87.2 L58.5 83.1 L59.8 80.2 L60.2 79.9 L61.8 80 L63.1 77.1 L65.9 74.1 L66.4 73.7 L66 70.3 L68.5 68.3 L69 65.2 L74 62.9 L73.5 59.5 L75.8 57.9 L79.6 53.1 L81.1 50.3 L81.1 49.9 L80.8 48.4 L83.1 47.9 L81.4 45.6 L86.2 42.2 L86.8 38.7 L89.1 37.2 L88.6 35.9 L96.2 36.4 L97.9 35.6 L99.5 32.2 L100.5 31.7 L103.9 33.8 L105.7 33.8 L106.3 33.6 L106.7 31.9 L115.7 20.1 L125.2 20.4 L126.5 19.9 L127.8 18.7 L129.6 15.6 L130.9 14.3 L132.3 13.7 L141.6 13.1 L147.7 10 L148.9 10.9 L149.8 12 L152 19 L155 19.1 L158.4 24.1 L163.6 26.3 L164.4 27.4 L167.1 32.1 L170.7 35.9 Z"/>
  </g>
</svg>
