<svg xmlns="http://www.w3.org/2000/svg" viewBox="0 0 240 180">
  <g fill="#17324a" stroke="#fffaf3" stroke-width="3.2" stroke-linejoin="round" stroke-linecap="round">
  <path d="M42.9 72.4 L44.1 71.9 L44.4 71.7 L46.1 66.6 L47.4 66.2 L46.8 64.1 L48.9 61.3 L49.5 61.1 L52.6 59.7 L56.1 55.4 L61.7 51 L65.6 49.2 L66 48.8 L71 42.6 L75.3 40.2 L75.2 31 L75.3 30.6 L78.6 26.7 L84 26.1 L86.4 24.5 L86 21.1 L87.9 13.1 L89.5 12.7 L89.8 13.4 L92.3 11.5 L92.9 11.6 L95.1 12.1 L95.7 12.4 L95.9 13 L95.5 14.8 L95.7 15.3 L96.2 15.4 L97 15.3 L100.6 12.9 L105.8 12.2 L106.4 10 L107.1 10.1 L109 14.9 L109.7 13 L111.7 13.8 L110.7 16.6 L113.6 15.9 L117.4 18.4 L115.9 19.5 L117 21.2 L116.2 24.4 L118.1 25.2 L118.9 28.8 L118.3 30.4 L119.6 29.5 L120 30 L120.2 30.5 L119.3 34.9 L122.8 41.2 L122.4 42.2 L122 43.6 L122.1 44.8 L122.9 45.8 L117.7 55.1 L119.7 53.4 L120.4 54.7 L120.9 55 L122.4 53.4 L124.2 53.8 L124.9 55.1 L127.4 54.9 L127.9 55.7 L128.4 58.1 L131.7 60.4 L131.8 60.9 L131.5 62.2 L136.9 59.9 L137.8 58.5 L139.5 59.9 L141.2 59.3 L141.6 59 L141.5 55.8 L146.4 50.1 L146 47.9 L148 43 L152.5 43.3 L152.3 44.7 L152.6 45.7 L157.9 50.3 L159.3 57.4 L162.4 63.8 L163.2 68.7 L161.8 70.9 L161.3 73.8 L162 75.6 L161.7 76.7 L161.2 77.8 L150.6 88.6 L152.9 88.8 L155.2 90.9 L156.3 88.8 L158.6 90.8 L158.4 94.4 L160.6 93.6 L162.5 94.4 L162.8 95.4 L167.5 96.9 L172.7 95.9 L177.1 97 L179.7 99.8 L179.1 104.2 L181.1 104.6 L182 106.4 L181.4 106.9 L181.9 108.9 L184.6 111.1 L185.9 109.5 L189.6 111.7 L190.5 113.4 L191.7 112.7 L193 114.7 L193.6 112.6 L194.8 113.2 L195.3 120.4 L197.1 123.7 L196.3 123.5 L196.8 125.4 L196 125.4 L195.8 125.4 L194.6 129.2 L195.4 131 L196.6 131.3 L196.9 133.2 L195.8 135.4 L195 134.2 L193.7 135.2 L193.4 139.2 L193.2 139.9 L192.2 141.8 L191.6 141.5 L191 141.5 L190.4 141.8 L189.9 142.5 L190.9 148.5 L189.9 148.2 L188.8 149.1 L188.8 152.2 L189.8 153.4 L189.9 153.8 L190 155.7 L189.8 168.5 L190 168.9 L191.2 169.8 L184.7 169.5 L181.4 167.8 L180.2 166 L175.4 163.7 L164.2 161.2 L162.6 159.4 L157.4 157.5 L153.2 154.5 L151 153.3 L145.7 151.4 L140.9 147.9 L135.7 146.1 L125.7 139.7 L125.2 138.4 L118.5 133.1 L117.1 130.1 L113.8 128.9 L114.3 127.6 L113.7 126.7 L110 124.5 L97 112.8 L96.4 110.7 L90 105.7 L85.2 103.4 L84.8 102.9 L84.9 102.4 L85.9 102.1 L82.4 99.8 L81 99.8 L84.1 102.4 L81.3 100.6 L73.7 98.7 L68.8 96.2 L68.1 95.5 L68.4 94.9 L69.4 95.7 L68.8 94.6 L68.7 93.7 L69 92.8 L69.9 92 L68.4 92.5 L64.8 88.4 L47.5 80.7 L46.7 79.7 L47 76.5 L42.9 72.4 Z"/>
  </g>
</svg>
