<svg xmlns="http://www.w3.org/2000/svg" viewBox="0 0 240 180">
  <g fill="#17324a" stroke="#fffaf3" stroke-width="3.2" stroke-linejoin="round" stroke-linecap="round">
  <path d="M215.5 58.6 L215.6 64.8 L213.3 68 L213.7 71.5 L212.4 72.8 L210.2 79.2 L213.1 81 L213.7 81.1 L215.8 80.5 L221.8 81.5 L222.6 82.1 L222.9 83.2 L222.5 84.2 L221.7 84.9 L218.8 85.8 L217.8 86.8 L217.2 87.6 L215.8 92.7 L215 92.9 L211.2 91.2 L209.6 92.3 L203.7 91.5 L202.6 93.3 L202.3 96.9 L199.2 102.3 L189.6 104.1 L188.8 106.2 L186.5 108.5 L186.4 112.5 L184.3 114.9 L183.9 121.4 L185 127.3 L181.1 131.1 L180.4 136.5 L177.5 141.2 L177.4 142.8 L177.9 143.6 L178.7 143.9 L183.4 142.8 L184.2 145.3 L185 145.2 L186.7 147.7 L185.8 153.1 L183.2 153.6 L181.9 154.9 L177 153.9 L176.2 153.1 L175.9 151.9 L177.4 150.7 L176.5 149 L178.3 148.4 L175 144.2 L171.7 147.4 L165.9 146.8 L164.1 151.9 L162.7 153.6 L161.1 154.6 L159.5 154.9 L156.7 153.8 L155 153.5 L152.1 154.5 L152 156 L150.7 157.1 L152.1 161.7 L152.1 163.4 L151 164.8 L148.7 165.2 L148 165.2 L146.6 163.3 L141.7 165.5 L137.6 169.3 L136.3 170 L132 169.6 L131.6 168.9 L131 167.1 L130 165.9 L128.8 165.5 L124.4 167.2 L122.1 167.3 L119.9 166.2 L116.3 168 L115.2 167.4 L109.4 169.3 L104.4 166.7 L103.4 164.1 L104.8 161.5 L104 155.9 L103.6 154.5 L103.1 153.2 L99.7 149.3 L91.2 143.9 L88.8 144.5 L88.3 141.2 L87 141.1 L86.6 140.8 L85.7 139 L81.2 137.8 L78.7 140.6 L76.5 136.7 L75.6 134.5 L75.4 132.1 L76.3 120.4 L77.2 117.6 L81 114.2 L81.5 113.1 L81.6 112 L80.2 107 L78 106 L77.7 105.5 L78.1 104.6 L76.5 103.2 L74.5 103.3 L73.9 102.9 L71.7 96.3 L71.5 96.1 L70.6 95.6 L66.8 96.7 L60.9 96 L60.2 95.9 L56.3 96.9 L54 98.5 L53 98.2 L52.2 97.5 L51.4 94.5 L48.8 95.3 L44.8 92.8 L42.3 92.3 L38.6 89 L37.1 88.3 L33.5 88.1 L28.9 82.2 L28 82.3 L25.1 84.7 L24.9 82.5 L25.9 81.7 L24.7 77.2 L22 78.6 L24.4 74.2 L23.5 67.7 L22.6 66.7 L20.5 57.2 L18.1 53.7 L18 52.1 L17.6 50.9 L17.4 33.2 L22.3 32.4 L23.7 27.5 L27.2 23.7 L30.5 22.8 L35.5 19.1 L36.8 18.4 L40 18.3 L54.6 11.6 L58.9 13.3 L69.5 12.9 L71.8 13.4 L75.1 15.9 L84.3 11.9 L85.5 12.5 L86.3 14.3 L87.6 17.4 L89.2 18.7 L91 18.2 L93.2 15.3 L97.3 14.4 L105.5 17.1 L107.7 15.9 L108.8 15.6 L111.3 15.7 L112.3 15.5 L112.9 17.1 L118.2 16.9 L127.8 21.6 L134.2 19 L135.3 19.5 L137.6 21.1 L138.8 21.4 L140 20.9 L147 14.1 L148.3 13.5 L151.6 12.1 L153 12.4 L153.9 10 L154.7 10.2 L155.3 11.3 L157.6 18.9 L161.1 25.3 L162.4 26.2 L171 27.7 L182.2 28.9 L183.4 32.2 L200.7 47.1 L204.3 53.8 L206.5 55.5 L211.5 57.8 L213.5 58.4 L215.5 58.6 Z"/>
  </g>
</svg>
