<svg xmlns="http://www.w3.org/2000/svg" viewBox="0 0 240 180">
  <g fill="#17324a" stroke="#fffaf3" stroke-width="3.2" stroke-linejoin="round" stroke-linecap="round">
  <path d="M121.2 21.9 L118.7 34.2 L120.1 34.3 L119.6 35 L118.3 37.6 L119.8 38.4 L120.7 40.2 L121.6 44.8 L121.2 47.2 L127.5 60.7 L129 57.7 L131.4 61.6 L136 72.8 L138.2 75 L143 77.1 L145.1 78.5 L147.3 84.2 L151.8 83 L160.6 89.9 L163 90.6 L169.8 90.6 L174.1 91.9 L174.7 91.9 L175.4 92.7 L174.2 99.7 L174.5 103.1 L173.1 104.3 L173 106.2 L175 110.9 L173.8 110.4 L173.1 110.8 L172.7 111.8 L173.6 112.9 L173.9 113.4 L163.6 120.2 L161.4 123.2 L163.4 125.4 L163.5 126.9 L154.1 142.7 L152.9 158.7 L153.3 165.3 L153.3 166.9 L150.5 166.6 L146.7 164.6 L140 159.5 L139.8 159.3 L135.9 157.8 L131.9 157.3 L123.8 158.2 L124.8 160.2 L120.8 160.6 L119.8 161 L118.7 164.9 L117 165.6 L115.7 167.7 L99.2 170 L97.2 163.8 L94.6 161.1 L85.6 158.9 L82.1 157.2 L79.7 154.9 L75.2 149 L78.6 147.4 L81.8 143.9 L83.1 140.5 L80.8 139.2 L82.3 137.6 L83.5 135.5 L85.3 130.4 L88.6 125.9 L87.8 122.8 L86.8 121.9 L83.9 121.6 L83 120.9 L82.5 119.3 L84.6 113.5 L83.6 110.5 L81 110.6 L77.3 108.8 L76.8 104.2 L73.5 97.7 L72.6 96.3 L67.9 94.2 L66.4 91.7 L65.5 89 L65.3 86.4 L65.9 84.3 L67.6 83.2 L66.3 81.9 L67 78.7 L70.7 79.1 L69.3 77.1 L66.2 74.7 L64.6 73.9 L71.4 59.8 L72.5 58.3 L76.8 56 L78.3 53.1 L77.8 51.8 L76.8 50.6 L76.9 47.6 L81.7 44.1 L81.9 37.8 L85.6 33.4 L86.7 27 L89.1 24.9 L94.3 22.4 L96.4 20.2 L99.3 12 L102.3 11.7 L104.5 10 L106.7 14.7 L110.1 15.8 L113.3 15.3 L116.5 13.4 L118.4 15.2 L119.1 21 L121.2 21.9 Z"/>
  </g>
</svg>
