<svg xmlns="http://www.w3.org/2000/svg" viewBox="0 0 240 180">
  <g fill="#17324a" stroke="#fffaf3" stroke-width="3.2" stroke-linejoin="round" stroke-linecap="round">
  <path d="M127.6 68.6 L126.9 70.3 L125.2 69.8 L125.2 69.7 L126.9 69.8 L127.6 68.6 Z"/>
  <path d="M119.6 16.3 L119.1 17.6 L119.6 16.3 Z"/>
  <path d="M118.4 168.2 L118.8 169 L118.4 168.2 Z"/>
  <path d="M123.6 105.7 L123.8 106 L123.9 106.2 L123.9 106.3 L123.9 106.5 L123.8 106.8 L123.8 106.8 L123.6 105.9 L123.6 105.7 Z"/>
  <path d="M120.8 13.6 L120.8 13.6 L120.7 13.9 L120.7 14.1 L120.6 14.3 L120.5 14.1 L120.5 13.9 L120.6 13.7 L120.7 13.6 L120.8 13.6 Z"/>
  <path d="M121.4 167.9 L121.4 168.3 L121.3 168.2 L121.2 168 L121.3 167.9 L121.5 167.7 L121.5 167.8 L121.5 167.8 L121.4 167.9 L121.4 167.9 Z"/>
  <path d="M128 112.5 L128.4 112.5 L128.4 112.5 L128.4 112.5 L128.3 112.5 L128 112.7 L127.9 112.8 L127.9 112.7 L127.9 112.6 L128 112.5 Z"/>
  <path d="M129.3 44.4 L129.4 44.6 L129.4 44.7 L129.4 44.9 L129.4 45.1 L129.4 45.1 L129.3 44.5 L129.3 44.4 Z"/>
  <path d="M121.3 168.7 L121 169.1 L121 168.8 L121.1 168.7 L121.2 168.6 L121.3 168.7 Z"/>
  <path d="M115.5 64.6 L115.5 64.9 L115.3 64.9 L115.3 64.9 L115.2 64.7 L115.5 64.6 Z"/>
  <path d="M125.3 161.7 L125.5 161.9 L125.5 162 L125.5 162.1 L125.4 162 L125.3 161.9 L125.3 161.8 L125.3 161.7 Z"/>
  <path d="M120.4 12.5 L120.4 12.9 L120.4 12.9 L120.3 12.9 L120.3 12.9 L120.3 12.9 L120.3 12.9 L120.3 12.9 L120.3 12.7 L120.3 12.6 L120.4 12.5 L120.4 12.5 Z"/>
  <path d="M128.6 47.2 L128.3 47.4 L128.2 47.4 L128.1 47.3 L128.1 47.3 L128.2 47.3 L128.3 47.2 L128.4 47.2 L128.6 47.2 Z"/>
  <path d="M120.1 15.4 L120.4 15.4 L120.3 15.5 L120.1 15.6 L120.1 15.5 L120.1 15.4 Z"/>
  <path d="M127.7 116.1 L127.6 116.5 L127.6 116.7 L127.5 116.9 L127.5 116.9 L127.7 116.3 L127.7 116.1 Z"/>
  <path d="M118.5 17.9 L118.5 18 L118.5 18 L118.4 18.1 L118.3 18.1 L118.3 18.1 L118.4 17.9 L118.4 17.9 L118.5 17.9 Z"/>
  <path d="M120.6 169.6 L120.5 169.7 L120.5 169.8 L120.4 169.9 L120.3 169.9 L120.3 169.8 L120.4 169.7 L120.6 169.6 Z"/>
  <path d="M127 118 L126.9 118.1 L126.6 118.3 L126.6 118.3 L126.6 118.3 L126.6 118.2 L126.6 118.2 L126.6 118.2 L126.6 118.2 L126.7 118.1 L126.8 118 L127 118 L127 118 Z"/>
  <path d="M118.3 151.2 L118.4 151.2 L118.5 151.3 L118.5 151.3 L118.5 151.5 L118.5 151.5 L118.4 151.4 L118.4 151.3 L118.4 151.3 L118.4 151.3 L118.4 151.2 L118.3 151.2 Z"/>
  <path d="M115.9 55.2 L115.9 55.2 L115.8 55.5 L115.7 55.5 L115.8 55.3 L115.8 55.2 L115.9 55.2 L115.9 55.2 Z"/>
  <path d="M114.9 82.8 L114.6 83 L114.6 83 L114.6 82.9 L114.7 82.8 L114.8 82.8 L114.9 82.8 Z"/>
  <path d="M124.4 33.1 L124.5 33.3 L124.3 33.3 L124.3 33.2 L124.4 33.1 Z"/>
  <path d="M124.6 118.7 L124.6 118.7 L124.6 118.8 L124.6 118.9 L124.6 118.9 L124.6 118.9 L124.5 118.9 L124.5 118.9 L124.5 118.9 L124.5 118.8 L124.5 118.8 L124.6 118.8 L124.6 118.7 Z"/>
  <path d="M110.1 79.2 L110.1 79.2 L110.1 79.3 L110.1 79.3 L110.2 79.4 L110.2 79.4 L110.1 79.5 L110.1 79.4 L110 79.4 L110 79.3 L110 79.3 L110.1 79.2 Z"/>
  <path d="M125.6 35.7 L125.6 35.7 L125.3 35.9 L125.3 35.9 L125.4 35.8 L125.5 35.7 L125.5 35.7 L125.6 35.7 Z"/>
  <path d="M123.9 119 L123.9 119 L124.1 119.1 L124 119.2 L123.9 119.2 L123.9 119.2 L123.9 119.1 L123.9 119 Z"/>
  <path d="M124.2 36.7 L124.2 36.7 L124.2 36.8 L124.3 36.8 L124.3 36.8 L124.3 36.8 L124.2 36.9 L124.1 36.8 L124.1 36.8 L124.2 36.8 L124.2 36.7 Z"/>
  <path d="M125.7 118.3 L125.9 118.3 L125.7 118.4 L125.7 118.4 L125.7 118.3 L125.7 118.3 Z"/>
  <path d="M121.3 27.5 L121.3 27.6 L121.4 27.7 L121.4 27.7 L121.3 27.8 L121.2 27.7 L121.2 27.7 L121.3 27.6 L121.3 27.5 Z"/>
  <path d="M113.8 100.4 L113.8 100.7 L113.8 100.7 L113.7 100.6 L113.6 100.6 L113.7 100.5 L113.8 100.4 Z"/>
  <path d="M115 33.1 L114.9 33.4 L114.8 33.2 L114.9 33.2 L115 33.1 Z"/>
  <path d="M123 45.5 L123 45.5 L123 45.5 L123.1 45.5 L123.1 45.5 L123.1 45.5 L123.2 45.5 L123.1 45.5 L122.9 45.6 L122.9 45.6 L122.9 45.5 L122.9 45.5 L123 45.5 L123 45.5 Z"/>
  <path d="M120.4 25.7 L120.4 25.7 L120.4 25.8 L120.5 25.8 L120.5 25.8 L120.5 25.8 L120.5 25.9 L120.4 25.9 L120.4 25.9 L120.4 25.9 L120.4 25.8 L120.4 25.7 Z"/>
  <path d="M126.8 71.5 L126.8 71.7 L126.8 71.7 L126.7 71.6 L126.7 71.6 L126.7 71.5 L126.7 71.5 L126.8 71.5 Z"/>
  <path d="M120.7 150.9 L120.8 151 L120.8 151 L120.7 151.1 L120.7 151.1 L120.7 151 L120.7 150.9 Z"/>
  <path d="M114.6 10 L114.6 10 L114.6 10.2 L114.5 10.1 L114.5 10 L114.5 10 L114.6 10 Z"/>
  <path d="M122.9 114.9 L122.9 114.9 L123 115 L123 115 L122.9 115.1 L122.8 115 L122.9 115 L122.9 114.9 L122.9 114.9 Z"/>
  <path d="M116.8 99.5 L117 99.4 L117 99.4 L116.9 99.5 L116.9 99.6 L116.8 99.5 L116.8 99.5 Z"/>
  <path d="M124.4 37.9 L124.4 37.9 L124.2 38.3 L124.2 38.3 L124.2 38.3 L124.2 38.3 L124.2 38.3 L124.2 38.2 L124.4 37.9 Z"/>
  <path d="M124.2 150 L124.2 150 L124 150.1 L124 150 L124 149.9 L124.1 150 L124.2 150 Z"/>
  <path d="M116 11.3 L116 11.3 L116 11.6 L115.9 11.5 L115.9 11.4 L115.9 11.4 L116 11.3 Z"/>
  <path d="M114.9 108 L114.9 108.2 L114.8 108.1 L114.8 108.1 L114.8 108 L114.9 108 Z"/>
  <path d="M115.6 35.3 L115.6 35.3 L115.7 35.5 L115.6 35.5 L115.6 35.4 L115.6 35.3 Z"/>
  <path d="M126.9 147.9 L126.9 147.9 L126.8 148 L126.8 148 L126.8 147.9 L126.8 147.9 L126.8 147.9 L126.8 147.9 L126.9 147.9 Z"/>
  <path d="M125.6 53.6 L125.3 53.7 L125.4 53.6 L125.4 53.5 L125.5 53.6 L125.6 53.6 Z"/>
  <path d="M118.7 110.6 L118.8 110.7 L118.9 110.8 L118.7 110.8 L118.7 110.7 L118.7 110.7 L118.7 110.6 Z"/>
  <path d="M119.7 169.9 L119.9 170 L119.8 170 L119.7 170 L119.7 169.9 Z"/>
  <path d="M115.9 36.3 L115.9 36.3 L115.9 36.5 L115.9 36.5 L115.8 36.4 L115.8 36.4 L115.8 36.4 L115.8 36.3 L115.9 36.3 Z"/>
  <path d="M117 89 L117 89 L117.1 89 L117.1 89 L117.1 89.1 L117 89.1 L117 89.1 L117 89.1 L117 89 L117 89 L117 89 Z"/>
  <path d="M115.9 91.9 L115.9 91.9 L115.9 91.9 L116 92 L116 92 L115.9 92 L115.9 92 L115.9 92 L115.9 91.9 L115.9 91.9 Z"/>
  <path d="M116.5 38.4 L116.5 38.4 L116.4 38.5 L116.4 38.5 L116.4 38.5 L116.3 38.4 L116.4 38.4 L116.4 38.4 L116.4 38.4 L116.4 38.4 L116.5 38.4 Z"/>
  <path d="M128.4 94.9 L128.4 94.9 L128.2 95.2 L128.2 95 L128.3 95 L128.4 95 L128.4 94.9 Z"/>
  <path d="M114.3 100.7 L114.4 100.7 L114.4 100.7 L114.5 100.7 L114.4 100.8 L114.3 100.8 L114.3 100.8 L114.3 100.7 L114.3 100.7 Z"/>
  <path d="M117.8 18.7 L117.6 18.9 L117.7 18.8 L117.7 18.7 L117.7 18.7 L117.8 18.7 Z"/>
  <path d="M124.6 98.6 L124.4 98.8 L124.4 98.6 L124.5 98.6 L124.5 98.6 L124.6 98.6 Z"/>
  <path d="M117.2 89.9 L117.3 90 L117.3 90 L117.3 90 L117.3 90 L117.3 90.1 L117.2 90.1 L117.2 90 L117.2 90 L117.2 89.9 Z"/>
  <path d="M115.4 79.1 L115.4 79.1 L115.5 79.1 L115.5 79.2 L115.4 79.2 L115.3 79.2 L115.3 79.1 L115.4 79.1 L115.4 79.1 Z"/>
  <path d="M129.5 66 L129.5 66 L129.5 66 L129.5 66.1 L129.5 66.1 L129.5 66.1 L129.4 66.1 L129.4 66.1 L129.4 66.1 L129.3 66 L129.4 66 L129.4 66 L129.5 66 Z"/>
  <path d="M115.2 81.4 L115.2 81.5 L115.2 81.5 L115.2 81.5 L115.3 81.5 L115.2 81.6 L115.1 81.5 L115.1 81.5 L115.2 81.5 L115.2 81.4 Z"/>
  <path d="M125.2 34.3 L125.2 34.3 L125.2 34.3 L125.2 34.3 L125.2 34.4 L125.2 34.4 L125.1 34.5 L125.1 34.4 L125.1 34.4 L125.1 34.3 L125.2 34.3 Z"/>
  <path d="M113 87.7 L113 87.8 L113 87.8 L113 87.8 L113 87.8 L113 87.9 L112.9 87.9 L112.9 87.9 L112.9 87.8 L112.9 87.8 L113 87.7 Z"/>
  <path d="M114.4 92.4 L114.4 92.5 L114.4 92.5 L114.4 92.5 L114.4 92.5 L114.4 92.6 L114.3 92.6 L114.3 92.5 L114.3 92.5 L114.4 92.4 Z"/>
  <path d="M115.2 76.9 L115.3 77 L115.3 77 L115.3 77 L115.3 77.1 L115.2 77.1 L115.2 77.1 L115.2 77 L115.2 77 L115.2 76.9 Z"/>
  <path d="M110.3 73.5 L110.3 73.6 L110.3 73.6 L110.3 73.6 L110.3 73.6 L110.4 73.6 L110.4 73.6 L110.3 73.7 L110.2 73.6 L110.2 73.6 L110.2 73.6 L110.2 73.6 L110.2 73.6 L110.3 73.5 Z"/>
  <path d="M121.5 116.9 L121.4 117 L121.4 116.9 L121.4 116.9 L121.5 116.9 L121.5 116.9 L121.5 116.9 Z"/>
  <path d="M115.3 78.3 L115.3 78.3 L115.3 78.3 L115.3 78.4 L115.3 78.4 L115.3 78.4 L115.2 78.4 L115.2 78.4 L115.2 78.4 L115.2 78.3 L115.3 78.3 Z"/>
  <path d="M112.9 83.7 L112.9 83.7 L112.9 83.7 L113 83.7 L113 83.8 L113 83.8 L112.9 83.8 L112.8 83.8 L112.8 83.8 L112.9 83.7 L112.9 83.7 L112.9 83.7 Z"/>
  <path d="M112.1 83.5 L112.1 83.5 L112.2 83.6 L112.2 83.6 L112.2 83.6 L112.2 83.6 L112.2 83.7 L112.1 83.7 L112.1 83.6 L112.1 83.6 L112.1 83.6 L112.1 83.5 Z"/>
  <path d="M123.6 98.7 L123.6 98.8 L123.6 98.8 L123.6 98.8 L123.6 98.9 L123.6 98.9 L123.5 98.8 L123.5 98.7 L123.6 98.7 L123.6 98.7 Z"/>
  <path d="M116.5 95.1 L116.7 95.2 L116.6 95.3 L116.6 95.3 L116.6 95.3 L116.6 95.2 L116.6 95.2 L116.5 95.1 Z"/>
  <path d="M122.8 104.3 L122.8 104.6 L122.8 104.6 L122.8 104.5 L122.8 104.5 L122.8 104.5 L122.8 104.5 L122.8 104.4 L122.8 104.3 Z"/>
  <path d="M121.9 28.6 L121.9 28.6 L121.9 28.8 L121.8 28.7 L121.8 28.7 L121.9 28.6 L121.9 28.6 Z"/>
  <path d="M117.4 50.3 L117.4 50.3 L117.4 50.4 L117.4 50.4 L117.4 50.4 L117.4 50.4 L117.3 50.4 L117.3 50.4 L117.4 50.3 L117.4 50.3 Z"/>
  <path d="M117.1 150.3 L117.1 150.3 L117.2 150.5 L117.2 150.5 L117.1 150.5 L117.1 150.5 L117.1 150.4 L117.1 150.4 L117.1 150.4 L117.1 150.4 L117.1 150.3 Z"/>
  <path d="M114.6 32.9 L114.6 32.9 L114.6 32.9 L114.6 32.9 L114.6 33 L114.6 32.9 L114.5 32.9 L114.5 32.8 L114.5 32.8 L114.6 32.8 L114.6 32.9 Z"/>
  <path d="M116.5 43.5 L116.5 43.5 L116.5 43.5 L116.4 43.6 L116.4 43.6 L116.4 43.6 L116.4 43.5 L116.4 43.5 L116.4 43.5 L116.5 43.5 Z"/>
  <path d="M115.6 14.8 L115.6 14.8 L115.6 14.8 L115.6 14.9 L115.5 14.9 L115.5 14.8 L115.5 14.8 L115.5 14.8 L115.6 14.7 L115.6 14.8 L115.6 14.8 Z"/>
  <path d="M117.3 19.7 L117.2 19.7 L117.2 19.8 L117.2 19.8 L117.2 19.8 L117.2 19.7 L117.2 19.6 L117.2 19.6 L117.3 19.7 L117.3 19.7 Z"/>
  <path d="M119.3 15.1 L119.3 15.2 L119.3 15.2 L119.3 15.2 L119.2 15.2 L119.2 15.1 L119.3 15.1 L119.3 15.1 L119.3 15.1 Z"/>
  <path d="M115.2 145.6 L115.2 145.8 L115.1 145.7 L115.1 145.7 L115.2 145.6 Z"/>
  <path d="M116.3 15.2 L116.3 15.2 L116.2 15.2 L116.2 15.2 L116.2 15.3 L116.2 15.2 L116.2 15.2 L116.2 15.1 L116.2 15.1 L116.2 15.2 L116.3 15.2 Z"/>
  <path d="M114.4 23.4 L114.4 23.5 L114.5 23.5 L114.5 23.5 L114.5 23.5 L114.5 23.5 L114.5 23.5 L114.4 23.5 L114.4 23.5 L114.3 23.5 L114.4 23.5 L114.4 23.4 Z"/>
  <path d="M117.1 16.8 L117.1 16.8 L117.1 16.9 L117.1 16.9 L117.1 16.9 L117.1 17 L117.1 17 L117.1 17 L117 16.9 L117 16.9 L117.1 16.9 L117.1 16.8 Z"/>
  <path d="M118.4 14.9 L118.4 14.9 L118.3 15 L118.3 15 L118.3 15 L118.3 15 L118.3 15 L118.3 14.9 L118.3 14.9 L118.4 14.9 L118.4 14.9 L118.4 14.9 Z"/>
  <path d="M114.2 23.2 L114.2 23.2 L114.2 23.2 L114.3 23.3 L114.3 23.3 L114.3 23.3 L114.2 23.3 L114.2 23.3 L114.1 23.3 L114.1 23.3 L114.2 23.2 L114.2 23.2 Z"/>
  <path d="M114.7 16.8 L114.7 16.8 L114.6 16.8 L114.6 16.9 L114.6 16.8 L114.6 16.8 L114.6 16.7 L114.6 16.7 L114.7 16.7 L114.7 16.8 Z"/>
  <path d="M116.8 24.9 L116.8 24.9 L116.9 24.9 L116.9 25 L116.9 25 L116.8 25 L116.8 25 L116.8 24.9 L116.8 24.9 Z"/>
  <path d="M115.9 14.9 L115.9 15 L115.9 15 L115.9 15 L115.9 15.1 L115.8 15.1 L115.8 15.1 L115.8 15 L115.8 15 L115.8 14.9 L115.9 14.9 Z"/>
  <path d="M118.6 14 L118.5 14.1 L118.6 14.1 L118.6 14.2 L118.6 14.2 L118.5 14.2 L118.5 14.1 L118.5 14.1 L118.5 14.1 L118.6 14 Z"/>
  <path d="M115.6 21 L115.6 21 L115.5 21 L115.5 21.1 L115.5 21 L115.5 21 L115.5 20.9 L115.5 20.9 L115.6 21 L115.6 21 Z"/>
  <path d="M115.3 25.3 L115.3 25.3 L115.4 25.3 L115.4 25.3 L115.4 25.3 L115.4 25.3 L115.4 25.4 L115.4 25.4 L115.3 25.4 L115.3 25.4 L115.3 25.3 L115.3 25.3 Z"/>
  <path d="M114.8 20.8 L114.8 20.9 L114.9 20.9 L114.9 20.9 L114.9 21 L114.8 21 L114.8 20.9 L114.8 20.9 L114.8 20.8 Z"/>
  <path d="M116 149.6 L116.1 149.6 L116.1 149.6 L116.1 149.6 L116.1 149.6 L116.1 149.7 L116.1 149.7 L116 149.6 L116 149.6 L116 149.6 Z"/>
  <path d="M126.5 145.4 L126.5 145.4 L126.5 145.6 L126.4 145.5 L126.4 145.5 L126.5 145.5 L126.5 145.4 Z"/>
  <path d="M117 20.5 L117 20.5 L117 20.5 L117 20.6 L117 20.6 L117 20.6 L117 20.6 L116.9 20.6 L116.9 20.6 L116.9 20.5 L117 20.5 L117 20.5 Z"/>
  <path d="M114 42.9 L114 42.9 L113.9 43 L113.9 43 L113.9 43 L113.9 42.9 L113.9 42.9 L113.9 42.9 L114 42.9 Z"/>
  <path d="M116.7 42.9 L116.7 42.9 L116.7 43 L116.6 43 L116.6 43 L116.6 43 L116.6 43 L116.6 42.9 L116.6 42.9 L116.6 42.9 L116.7 42.9 Z"/>
  <path d="M116.8 40.3 L116.8 40.3 L116.7 40.4 L116.7 40.4 L116.7 40.4 L116.7 40.5 L116.7 40.5 L116.6 40.4 L116.7 40.3 L116.7 40.3 L116.8 40.3 Z"/>
  <path d="M116.7 39.1 L116.6 39.2 L116.6 39.2 L116.6 39.2 L116.6 39.2 L116.5 39.2 L116.6 39.1 L116.6 39.1 L116.7 39.1 Z"/>
  <path d="M115.2 43.4 L115.2 43.4 L115.2 43.5 L115.2 43.5 L115.1 43.5 L115.1 43.5 L115.1 43.5 L115.1 43.4 L115.2 43.4 L115.2 43.4 Z"/>
  <path d="M115.2 68.1 L115.5 68.2 L115.5 68.2 L115.4 68.2 L115.4 68.2 L115.4 68.2 L115.2 68.1 Z"/>
  <path d="M123.8 96.1 L123.8 96.2 L123.8 96.2 L123.8 96.2 L123.8 96.3 L123.8 96.3 L123.7 96.2 L123.7 96.2 L123.7 96.2 L123.8 96.1 Z"/>
  <path d="M124.1 63.8 L124.1 64 L124 64 L124 64 L124 64 L124.1 63.9 L124.1 63.8 Z"/>
  <path d="M124.7 60.5 L124.7 60.5 L124.7 60.6 L124.7 60.6 L124.7 60.7 L124.6 60.7 L124.6 60.6 L124.6 60.6 L124.7 60.6 L124.7 60.5 Z"/>
  <path d="M128.9 66.1 L128.9 66.1 L128.9 66.2 L128.9 66.2 L128.9 66.3 L128.9 66.3 L128.8 66.2 L128.9 66.2 L128.9 66.2 L128.9 66.1 Z"/>
  <path d="M126.4 58.7 L126.4 58.8 L126.5 58.8 L126.4 58.9 L126.4 58.9 L126.4 58.9 L126.4 58.8 L126.4 58.8 L126.4 58.8 L126.4 58.7 Z"/>
  <path d="M127.7 60.8 L127.7 60.8 L127.7 60.9 L127.7 60.9 L127.7 61 L127.7 61 L127.7 61 L127.7 60.9 L127.7 60.9 L127.7 60.9 L127.7 60.8 Z"/>
  <path d="M110 24 L110 24 L110 24 L110 24.1 L109.9 24.1 L109.9 24.1 L109.9 24 L110 24 L110 24 L110 24 Z"/>
  <path d="M124.3 142.6 L124.3 142.7 L124.3 142.7 L124.3 142.8 L124.3 142.8 L124.3 142.8 L124.2 142.7 L124.3 142.7 L124.3 142.7 L124.3 142.6 Z"/>
  <path d="M130.1 65.5 L130.1 65.6 L130.1 65.6 L130.1 65.6 L130.1 65.7 L130 65.6 L130 65.6 L130.1 65.5 L130.1 65.5 Z"/>
  <path d="M118.5 110.9 L118.5 110.9 L118.5 110.9 L118.5 111 L118.5 111 L118.4 111 L118.4 110.9 L118.4 110.9 L118.5 110.9 L118.5 110.9 Z"/>
  <path d="M124.5 45.6 L124.5 45.6 L124.6 45.6 L124.6 45.7 L124.6 45.7 L124.6 45.7 L124.5 45.7 L124.5 45.7 L124.5 45.6 L124.5 45.6 Z"/>
  <path d="M124 140.2 L124 140.2 L124 140.3 L124 140.3 L124 140.3 L124 140.3 L123.9 140.2 L124 140.2 L124 140.2 L124 140.2 L124 140.2 L124 140.2 Z"/>
  <path d="M118.9 169.3 L119 169.5 L118.9 169.5 L118.9 169.5 L118.9 169.4 L118.9 169.3 Z"/>
  <path d="M123.6 138.4 L123.6 138.4 L123.6 138.5 L123.6 138.5 L123.6 138.5 L123.6 138.5 L123.6 138.5 L123.6 138.5 L123.6 138.6 L123.6 138.6 L123.6 138.5 L123.6 138.5 L123.6 138.4 L123.6 138.4 Z"/>
  <path d="M113.7 94.8 L113.7 94.8 L113.7 95 L113.6 95 L113.6 95 L113.7 94.8 Z"/>
  <path d="M125.4 76.7 L125.3 76.8 L125.3 76.8 L125.2 76.8 L125.2 76.8 L125.3 76.7 L125.3 76.7 L125.3 76.7 L125.4 76.7 Z"/>
  <path d="M120.2 25.3 L120.2 25.3 L120.1 25.3 L120.1 25.3 L120.1 25.3 L120.1 25.3 L120.1 25.3 L120.2 25.3 L120.2 25.3 Z"/>
  <path d="M127.8 113 L127.7 113.2 L127.7 113.2 L127.7 113.2 L127.7 113.1 L127.7 113.1 L127.8 113 Z"/>
  <path d="M115.5 147.5 L115.5 147.6 L115.6 147.7 L115.6 147.7 L115.5 147.7 L115.5 147.6 L115.5 147.6 L115.5 147.5 Z"/>
  <path d="M127.7 115.2 L127.7 115.4 L127.7 115.4 L127.6 115.4 L127.6 115.3 L127.7 115.2 Z"/>
  <path d="M115.8 68.1 L115.8 68.1 L115.8 68.2 L115.8 68.2 L115.9 68.2 L115.9 68.2 L115.8 68.2 L115.8 68.2 L115.8 68.2 L115.8 68.1 Z"/>
  <path d="M127.4 117.4 L127.4 117.4 L127.3 117.6 L127.3 117.6 L127.3 117.5 L127.3 117.5 L127.3 117.5 L127.3 117.4 L127.4 117.4 Z"/>
  <path d="M126.2 74.8 L126.2 74.8 L126 74.9 L126 75 L126 74.9 L126.1 74.9 L126.2 74.8 Z"/>
  <path d="M121.9 29.2 L121.9 29.2 L121.9 29.3 L121.9 29.3 L121.9 29.4 L121.8 29.4 L121.8 29.4 L121.8 29.3 L121.8 29.3 L121.9 29.3 L121.9 29.2 Z"/>
  </g>
</svg>
