<svg xmlns="http://www.w3.org/2000/svg" viewBox="0 0 240 180">
  <g fill="#17324a" stroke="#fffaf3" stroke-width="3.2" stroke-linejoin="round" stroke-linecap="round">
  <path d="M201.5 118.2 L208.7 129.9 L210.5 144.1 L208 153.3 L201.5 149.7 L194.2 157.9 L191.8 162.8 L191.8 170 L184.3 166.9 L182.2 165.7 L165.9 164 L143.2 156.9 L122.9 145.7 L114.2 131.8 L112.7 130.1 L106 126.4 L104.5 123.7 L104.5 105.6 L102.5 85 L99.8 75.8 L94.8 69.7 L100.8 64.4 L106.8 60.7 L113.4 58.5 L120.9 57.8 L120.9 62.1 L116.6 62.9 L113.8 64.3 L107.7 69.7 L145.1 74.1 L152.9 77.2 L168.8 90.8 L182.5 95.8 L184.9 100.3 L185.5 106.1 L185.4 111.9 L188 112.4 L201.5 118.2 Z"/>
  <path d="M63.9 10 L76.2 14.5 L91.4 24.3 L100.6 34 L94.8 38.2 L86.5 38.6 L73.8 44.4 L65.5 46.2 L56.8 45.5 L47.1 42.9 L37.8 38.9 L30.1 33.9 L31.5 27.6 L29.8 21.2 L29.5 16.3 L35.1 14.4 L63.9 10 Z"/>
  </g>
</svg>
