<svg xmlns="http://www.w3.org/2000/svg" viewBox="0 0 240 180">
  <g fill="#17324a" stroke="#fffaf3" stroke-width="3.2" stroke-linejoin="round" stroke-linecap="round">
  <path d="M163 129.6 L160 130.2 L157.8 129.2 L157.4 128.9 L160.4 130.1 L163 129.6 Z"/>
  <path d="M134.7 150.4 L137 147.1 L134.7 150.4 Z"/>
  <path d="M168.7 131.8 L165.9 130.6 L168.7 131.8 Z"/>
  <path d="M121.6 126.4 L122.7 126.4 L122.5 126.7 L122.1 126.6 L121.4 126.5 L120.6 126.3 L120.3 126.2 L120.4 126 L120.6 126.2 L120.9 126.3 L121.3 126.4 L121.6 126.4 Z"/>
  <path d="M92.5 64.8 L92.3 65.1 L92 65.2 L91.7 65.2 L91.4 65 L92 65 L92.5 64.8 Z"/>
  <path d="M118.8 124.9 L118.6 124.7 L118.4 124.5 L118.4 124.2 L118.5 123.9 L118.6 124.1 L118.7 124.7 L118.8 124.9 Z"/>
  <path d="M120.5 170 L121.2 169.7 L121.4 169.6 L121.8 169.1 L121.6 169.5 L121.3 169.8 L121 170 L120.5 170 Z"/>
  <path d="M173 146.4 L172.7 146.4 L172.3 146.4 L172 146.4 L171.8 146.2 L171.8 146.2 L171.9 146.2 L172 146.3 L172.5 146.3 L173 146.4 Z"/>
  <path d="M168.2 145.6 L168.3 145.7 L168.4 145.8 L168.5 145.9 L168.6 146 L168.5 146 L168.3 146 L168.2 145.9 L168.2 145.8 L168.2 145.6 Z"/>
  <path d="M169.3 130.4 L169.3 130.4 L169.4 130.4 L169.4 130.3 L169.4 130.3 L169.3 130.5 L169.2 130.7 L169 130.9 L168.9 131 L169 130.9 L169.3 130.4 Z"/>
  <path d="M171.1 129.7 L171.3 129.6 L171.3 129.5 L171.3 129.4 L171.2 129.3 L171.4 129.4 L171.4 129.7 L171.1 129.9 L170.9 129.9 L170.9 129.8 L171 129.8 L171.1 129.7 Z"/>
  <path d="M124.9 122.2 L124.4 121.8 L124.9 122.2 Z"/>
  <path d="M111.3 153.7 L111.6 153.1 L111.3 153.7 Z"/>
  <path d="M154.5 101.1 L154.4 101.2 L154.3 101.2 L154.3 101.2 L154.3 101.2 L154.3 101.2 L154.3 101.2 L154.3 101.1 L154.4 101 L154.5 101 L154.5 101.1 Z"/>
  <path d="M105.5 103.8 L105.5 103.7 L105.4 103.7 L105.5 103.6 L105.6 103.5 L105.6 103.6 L105.6 103.7 L105.5 103.8 Z"/>
  <path d="M125.6 10 L125.6 10 L125.5 10.1 L125.4 10.3 L125.2 10.4 L125.4 10.2 L125.6 10 Z"/>
  <path d="M144.9 92.3 L144.9 92 L145 92 L145 92.1 L144.9 92.3 Z"/>
  <path d="M67 56.5 L67 56.3 L67 56.2 L67.1 56.3 L67 56.5 Z"/>
  <path d="M154.9 79.1 L154.9 78.9 L154.9 78.9 L154.9 79.1 L154.9 79.1 Z"/>
  <path d="M71 57.5 L71.1 57.5 L71.1 57.5 L71.2 57.6 L71.2 57.7 L71 57.5 Z"/>
  <path d="M100.3 110.3 L100.4 110.5 L100.3 110.4 L100.3 110.3 Z"/>
  <path d="M127.2 153 L127.2 152.9 L127.3 152.9 L127.2 153 Z"/>
  </g>
</svg>
