<svg xmlns="http://www.w3.org/2000/svg" viewBox="0 0 240 180">
  <g fill="#17324a" stroke="#fffaf3" stroke-width="3.2" stroke-linejoin="round" stroke-linecap="round">
  <path d="M147 10 L192.9 39.2 L171.9 39.2 L183.4 147.1 L186.6 149.7 L184.8 160.2 L139.1 160.3 L139 157.7 L137.8 159.1 L138.2 161 L130.5 162 L127.5 161 L122.7 161.1 L120.4 165.3 L114.5 158.9 L113.1 158.4 L110.4 160.6 L109.2 165.5 L109.7 167.9 L106.7 170 L103 168.6 L101.8 166.4 L96.9 163.4 L97.7 163 L96.2 160.3 L94.6 160.3 L94.2 158.9 L92.8 158.7 L91.9 154.8 L90.4 152.6 L89.7 152.7 L89.8 151.9 L87.6 152.5 L87.1 151.4 L85.6 152.3 L84.1 150.9 L84.1 149.6 L78.9 145.4 L70.7 145.3 L70.7 146.3 L66.1 146.5 L64 147.7 L56.9 147.1 L54.4 151.6 L53.5 156.3 L53.6 149.6 L59 134.2 L59.5 126.6 L57.5 115.8 L53.5 110.8 L55.1 110.7 L56.6 108.8 L55.3 109.7 L55.7 108.7 L55.6 108.7 L54.7 110.4 L54.3 109.8 L57.1 105.6 L57 104.1 L56.2 104.1 L57.4 102.5 L56.8 101.1 L57.5 99.9 L54.4 94.6 L55.1 94.3 L53.6 93.5 L53.5 95.7 L51.9 94.2 L49 88.1 L47.8 89.7 L47.3 93.1 L48.4 86 L95.4 85.9 L93.8 66.9 L95.4 64.4 L100.1 61.2 L107.3 58.8 L107.3 26.5 L146.7 26.5 L147 10 Z"/>
  </g>
</svg>
