<svg xmlns="http://www.w3.org/2000/svg" viewBox="0 0 240 180">
  <g fill="#17324a" stroke="#fffaf3" stroke-width="3.2" stroke-linejoin="round" stroke-linecap="round">
  <path d="M188.1 75.9 L188.3 77.1 L187.1 77.1 L186.7 75.9 L188.1 75.9 Z"/>
  <path d="M229.8 90.1 L229.8 90.7 L228.8 90.4 L229.8 90.1 Z"/>
  <path d="M11.1 52.6 L10 54 L11.1 52.6 Z"/>
  <path d="M129.1 72 L129.6 72.4 L129.1 72 Z"/>
  <path d="M131.6 71.3 L131.7 71.3 L131.8 71.3 L131.9 71.3 L132 71.3 L131.9 71.4 L131.8 71.5 L131.6 71.6 L131.5 71.6 L131.5 71.5 L131.5 71.4 L131.5 71.3 L131.6 71.3 L131.6 71.3 L131.6 71.3 Z"/>
  <path d="M147.4 90.5 L147.4 90.4 L147.6 90.3 L147.7 90.3 L147.8 90.3 L147.8 90.4 L147.6 90.4 L147.5 90.5 L147.4 90.5 Z"/>
  <path d="M112.2 61.5 L112.2 61.3 L112.2 61.2 L112.3 61.1 L112.4 61.1 L112.4 61.2 L112.3 61.3 L112.2 61.4 L112.2 61.5 Z"/>
  <path d="M131.5 72.6 L131.4 72.2 L131.4 72.1 L131.5 72.2 L131.5 72.3 L131.5 72.4 L131.5 72.5 L131.5 72.6 Z"/>
  <path d="M157.3 103.8 L157.3 103.9 L157.1 104 L157.1 103.8 L157.3 103.8 Z"/>
  <path d="M158.1 104.1 L158.1 104 L158.2 103.9 L158.2 104 L158.1 104.1 Z"/>
  <path d="M157.3 128.7 L157.3 128.7 L157.3 128.8 L157.2 128.8 L157.2 128.7 L157.2 128.7 L157.2 128.7 L157.3 128.7 Z"/>
  <path d="M31.6 50.9 L31.6 50.8 L31.7 50.8 L31.7 50.9 L31.7 50.9 L31.6 51 L31.6 50.9 Z"/>
  <path d="M157.5 129.1 L157.5 129.1 L157.5 129.1 L157.5 129.2 L157.4 129.2 L157.4 129.1 L157.4 129.1 L157.5 129.1 Z"/>
  <path d="M109.1 78.1 L109.1 78 L109.1 77.9 L109.1 77.9 L109.2 77.9 L109.2 77.9 L109.2 78 L109.1 78 L109.1 78.1 Z"/>
  <path d="M156.6 128.8 L156.7 128.7 L156.8 128.7 L156.7 128.8 L156.6 128.8 L156.6 128.8 Z"/>
  <path d="M185 77.9 L185 77.8 L185 77.8 L185.1 77.8 L185.1 77.8 L185.1 77.8 L185 77.9 Z"/>
  </g>
</svg>
