<svg xmlns="http://www.w3.org/2000/svg" viewBox="0 0 240 180">
  <g fill="#17324a" stroke="#fffaf3" stroke-width="3.2" stroke-linejoin="round" stroke-linecap="round">
  <path d="M56.6 22 L58.8 18.2 L60.8 20.3 L62.6 20.2 L62.3 16.3 L63.8 16 L64.3 15 L68.3 17.1 L71.6 16.7 L71.7 14.6 L77.9 16.6 L82.7 12.6 L84.9 13.9 L88.6 10.7 L92.2 10.1 L92.3 11.5 L93 11.8 L97.5 11.8 L98.7 12.4 L101.1 14 L103.8 17.8 L109.2 19.1 L109.8 19.7 L110 20.7 L109.3 22.8 L109.8 23.2 L112.9 22 L114.3 24.7 L117.1 23.2 L118.8 23 L119.4 23.1 L119.6 25.6 L118.1 27.1 L117.9 27.8 L117.9 28.6 L118.3 29 L119.1 28.9 L121.3 26.7 L121.9 27.1 L122.2 27.8 L122.2 28.6 L121.6 29.2 L123.8 32.3 L125.2 27.8 L126 27.5 L134.3 29.1 L135.3 29.8 L135.6 30.2 L136.5 34.4 L139.5 38.2 L141.9 39.6 L143.2 39.4 L144.8 37.3 L145.9 36.8 L146.5 36.8 L147.9 38.1 L148.8 41.5 L151.1 42.6 L149 46.8 L151.2 48.6 L150.8 49.3 L149.7 50.7 L149.1 56.2 L146.8 60.4 L148.2 64.8 L148.5 65.4 L149.1 65.9 L151 65 L153.4 68.6 L155.1 69.3 L156.8 73.6 L158.5 73.7 L159.9 70.7 L162.7 71.5 L163.5 74.8 L163.1 75.8 L162.2 76.2 L162.2 81.4 L159.8 82.6 L161.3 85.4 L162.5 83.8 L164.3 85.4 L162.7 91.5 L167.7 93.7 L169.8 96.1 L173 96.3 L174.7 98.8 L176.1 98.7 L177 103.2 L176.2 108.1 L176.9 110.9 L176.4 112 L175.6 112.2 L175 112.3 L175.1 113.4 L177.6 115.5 L178.5 115.1 L179.2 117.1 L180.8 118.4 L181.5 119.2 L183.4 119.2 L182.5 120.8 L181.6 121.7 L175.2 121.9 L172.5 123.6 L171.5 120.4 L168.4 116.6 L168.3 118.1 L167.9 118.9 L167.2 119.1 L166.2 119.2 L165.9 121.7 L165.4 122.2 L164.8 122.4 L164.2 122.3 L163.6 122 L162.1 119.7 L159.9 119 L160.1 116.3 L159.9 116 L159.1 115.9 L156.1 119.5 L153.6 116.6 L152.8 120.5 L149.8 122.6 L149.2 122.1 L149.2 121.5 L150.1 119.4 L150 114.9 L149.8 113.8 L149.2 113.1 L140.6 117.5 L139.9 118.6 L139.7 120.1 L139.9 122.1 L140.6 124.6 L140.2 127.8 L143.1 131.9 L140.4 136.8 L141 141.5 L133.2 144 L133.1 150.1 L130.6 151.5 L130.6 153.3 L129.7 153.9 L127.3 154.1 L127 156.1 L123.8 159 L125.9 163.8 L124.9 164.2 L124.7 164.4 L124.8 166.9 L124.6 167.5 L123.8 167.9 L116.2 166.8 L116.2 166.8 L114.3 168.3 L113.7 170 L111.6 164.8 L110.7 164.1 L108.7 163 L110.4 161.4 L112.5 161 L112.1 154.1 L110.6 150.8 L111 145.8 L109.5 140.2 L111.7 131.8 L110.4 129.1 L112.9 126.3 L113.3 123 L115.4 118.9 L114.4 114.9 L115.3 107.9 L110.9 97.4 L109.5 90.1 L107.5 86.9 L104.3 86.2 L100.8 82.6 L101.1 82.2 L101.1 81.8 L99.5 81 L96.8 74 L93.4 72.4 L91 68.8 L91.2 64.3 L87.5 62.6 L85.9 58 L81.3 53.4 L80.5 52 L80.2 50.8 L81 50.6 L80.8 48.8 L78.3 45.6 L79.5 44.8 L78 43.8 L78 41.6 L76.2 39.9 L76.8 38.7 L76.6 38.5 L75.8 37.9 L76.5 36.6 L74.8 35 L73.8 35.4 L73.7 35.3 L74.3 33.9 L71.9 31.6 L72.1 29.2 L69.2 28.1 L70.3 26.9 L68.1 24.9 L67.1 26 L65.2 23.1 L63.3 22 L61.8 22.3 L61.1 22.2 L59.1 21.2 L58.3 21.2 L56.6 22 Z"/>
  </g>
</svg>
