<svg xmlns="http://www.w3.org/2000/svg" viewBox="0 0 240 180">
  <g fill="#17324a" stroke="#fffaf3" stroke-width="3.2" stroke-linejoin="round" stroke-linecap="round">
  <path d="M28.8 62.3 L30.6 64.2 L31.6 64.8 L32.8 64.7 L34.8 62.3 L37.8 65.4 L39.5 64.8 L43.2 58.8 L42.6 49.6 L43.6 44.5 L44.4 42.2 L45.9 40.3 L63.1 34 L70.6 28.3 L75.8 31.4 L81.5 38.7 L82.2 38.8 L85.5 39.5 L86.4 39.3 L86.5 38.6 L86 33.3 L90.7 26.2 L93.1 25.3 L95.8 26.3 L96.6 26.3 L95.9 23.7 L97.1 23 L99.6 24.2 L100 23.8 L100.7 22.9 L102.1 23.9 L107.2 23 L116.1 24.2 L127.1 16.9 L132.4 16.4 L135.1 14.1 L135.9 13.7 L136.9 13.9 L141.1 16.1 L146.3 17.3 L149 16.8 L159.8 12.3 L161.9 10.1 L162.6 10 L163.3 13.1 L164.4 14.4 L165.7 15.4 L167.1 15.9 L168.6 16 L176.4 26.4 L179.4 28.6 L181.6 33.7 L183.3 35.4 L190.1 40.3 L197 43.1 L198 44.3 L202.9 44.4 L204.3 46.7 L206.5 46.3 L207.4 46.9 L207.8 47.4 L210.8 62.4 L212.4 63.6 L215.9 73.2 L219.4 74.1 L220.8 76.3 L220.9 78.8 L220 81.2 L217.5 86.1 L215.5 87.1 L215.1 88.3 L214.9 89.7 L214.8 91.3 L214.9 92.7 L216.1 95.1 L215.9 106.5 L216.6 108.7 L215.2 110.9 L215.5 117.4 L213.6 118.8 L206.5 118.3 L204.2 118.7 L202.9 118.9 L201.4 120.2 L200.6 121 L198.7 136.7 L197.8 138.8 L196.9 139.5 L192.2 135.2 L191 135.5 L190.6 138.1 L189.3 139.9 L186.4 141.6 L174.7 142.1 L170.4 140.2 L166.3 141.1 L165.3 138.9 L157.7 137.2 L155.9 137.3 L154.1 138.2 L151.3 140.8 L149.6 141.4 L145.3 138.2 L143.8 139.6 L138.7 141.1 L134.3 143.9 L133.2 148.5 L128.2 154.8 L124.5 157.9 L124 161.1 L123 162.2 L122.4 162.3 L120.8 162.7 L116.7 161.7 L114.5 162.8 L113.9 165.1 L111.9 165.3 L108.6 168.2 L106.4 167.8 L102.9 164.6 L102.6 164.6 L96.6 163.7 L94.7 163.8 L92.8 164.6 L90 167.5 L88.7 168.2 L86.1 168.8 L77.2 167.8 L71.6 169.5 L60.1 170 L60.1 167.2 L59.4 165.2 L58.1 163.9 L54.2 162.8 L50 162.1 L45.8 164.8 L44.4 165.3 L42.4 164.9 L39.4 160.9 L35.6 146.2 L29.6 144.3 L28.7 138.6 L27.4 136.2 L24.5 132 L23.5 129.4 L22.2 123.7 L22.1 118.3 L23.2 118.6 L24.3 117.9 L25.3 116.6 L26.7 112 L25.2 109.4 L22.8 108.3 L22.1 104.9 L19.7 102.2 L19.1 96.3 L22.9 95.5 L24.1 95 L26.2 92.6 L24.2 84.5 L23.5 76.9 L23.8 75.8 L24.4 74.4 L27.5 70.7 L26.8 63.5 L28.8 62.3 Z"/>
  </g>
</svg>
