<svg xmlns="http://www.w3.org/2000/svg" viewBox="0 0 240 180">
  <g fill="#17324a" stroke="#fffaf3" stroke-width="3.2" stroke-linejoin="round" stroke-linecap="round">
  <path d="M173.2 21.7 L173.5 25.7 L171.6 32.6 L169.5 33 L168.1 29.8 L168.6 28.9 L169.6 29 L169 27.7 L170.7 25 L172.8 24.5 L172.4 21.4 L173.2 21.7 Z"/>
  <path d="M167.5 34.9 L167.3 36.1 L164.8 37.3 L163.9 36.7 L164 35.7 L165.6 36.4 L166.6 35.4 L166.9 35.2 L166.8 34.2 L167.5 34.9 Z"/>
  <path d="M161.5 41.8 L161.8 43.4 L160.4 44.6 L161.5 41.8 Z"/>
  <path d="M167.7 32.8 L168.2 33 L169 33.3 L169.4 33.8 L169.3 34.4 L167.9 33.3 L167.6 33.4 L167 33.9 L167.7 32.8 Z"/>
  <path d="M64.7 166.9 L65.3 166.6 L66 166.5 L66.3 166.9 L65.9 167.4 L65.3 167.7 L64.6 167.8 L64.4 167.5 L64.7 166.9 Z"/>
  <path d="M158.1 47.7 L157.6 47.2 L157.4 46.6 L157.4 46.1 L158.1 46.1 L158.5 46.4 L158.6 46.9 L158.5 47.4 L158.1 47.7 Z"/>
  <path d="M175.1 10 L175.5 10 L175.6 10.4 L175.3 11.2 L174.8 11.4 L174.6 11.1 L174.6 10.7 L175.1 10 Z"/>
  <path d="M84.8 169.1 L85.3 169.2 L85.5 169.6 L84.9 170 L84.4 169.9 L84.3 169.5 L84.6 169.2 L84.8 169.1 Z"/>
  <path d="M98.1 97.2 L97.9 96.7 L98.1 96.6 L98.3 96.8 L98.1 97.2 Z"/>
  </g>
</svg>
