<svg xmlns="http://www.w3.org/2000/svg" viewBox="0 0 240 180">
  <g fill="#17324a" stroke="#fffaf3" stroke-width="3.2" stroke-linejoin="round" stroke-linecap="round">
  <path d="M27.9 46.2 L34.2 51.6 L35.6 52.3 L36.5 51.7 L35.2 55 L36.3 56.9 L34.6 57.9 L36.2 60.2 L37.6 61 L37.8 61 L38.8 59.8 L39.8 61.1 L40.2 59.9 L41 60.7 L41.9 59.7 L43 60.5 L42.7 62.5 L39.6 61.8 L39.9 63.8 L39.7 63.7 L39.1 63.6 L40.4 65 L40.2 67.5 L39.6 67.2 L40.3 67.8 L44 68.4 L45.5 70.6 L51.4 70.5 L52.6 69.1 L57.1 70.6 L57.8 68.1 L55.2 66.7 L51.8 63.1 L54.1 63.1 L54.5 62.7 L53.3 62.1 L52.7 61.7 L53 61.2 L53.7 61.2 L56.3 63.6 L55.2 63.8 L56 65.3 L59.8 66.8 L66.6 75.1 L75.3 76.2 L83.7 75.4 L93.3 72.1 L96.9 68.1 L102.4 65 L120.3 59.6 L124.8 54.3 L125.8 53.9 L126 53.9 L126.1 56.1 L127.1 56.6 L128 54.5 L128.7 55 L128.9 52.7 L130.8 53.2 L131.5 54.4 L131.8 54.8 L131.8 52.2 L135.6 49.3 L135.8 48.3 L136.1 47.4 L136.8 47.1 L137.1 46.9 L135.9 46.7 L137.9 45 L140.8 44.2 L142 46.5 L144.1 46.5 L144.1 46.2 L144.3 45.5 L154.2 47.6 L162.5 46.4 L163 46.7 L163 47.1 L159.3 47.9 L159.2 50.7 L163.2 50.8 L166.4 52.1 L171.5 50.8 L175.6 52.2 L177.8 51.5 L182.4 52.7 L188.4 55.9 L197.4 59.1 L204.1 66 L203.3 63.5 L204 63.8 L208.2 69 L208.3 69.4 L207.9 70.1 L208.7 70.9 L209.2 72.1 L212.4 74.9 L213.2 75.2 L212.4 74.1 L212.6 73.9 L213 74.2 L215.2 77.1 L215.4 76.4 L215.8 76.5 L216.2 79.2 L217.4 80 L218.3 80.5 L221.4 80.1 L222.1 80.7 L219.9 82 L220.1 83.4 L218.2 85.9 L217.8 87 L217.8 87.9 L220.3 88.5 L222.1 94.8 L224.3 96.3 L227.5 102 L228.3 105 L228.3 105.9 L230 108.1 L224.9 109.5 L222 113.8 L223.4 116.8 L214.4 123.6 L213.6 123.7 L213.2 123.2 L210.7 118.2 L208.8 116.6 L208.4 116.4 L207.6 116.9 L207.3 118.3 L207.5 119.9 L208.8 123.5 L208.4 124.5 L207.9 125.2 L205.5 125.5 L204.2 129.7 L202.6 134.6 L202.6 134.6 L201.8 134.4 L198.2 130.6 L198.2 128.7 L194.2 125.8 L192.9 123.6 L192.7 123.6 L192.5 124.2 L192.2 121.8 L191.4 122.6 L191.3 120.6 L187.8 117.4 L188.4 115.7 L184 108.9 L182.5 103.6 L183.5 101.9 L184 103.1 L184.5 103.4 L186.6 103.5 L188 102.7 L189.3 101.3 L189.9 100 L189.8 99.2 L187.3 96.2 L189.1 95.9 L189.1 94.6 L191.3 95.4 L193.4 90.5 L194.2 92.3 L196.8 93.6 L198.2 96.5 L201.1 97.7 L201.9 97.5 L200.1 96.2 L202 96.5 L203 96.9 L207 101.4 L208.6 100.8 L207.5 100.9 L202.7 96.3 L197.9 94.8 L196.2 90.6 L196.8 90 L195.2 88.4 L195.5 86.4 L193.7 84.6 L194.8 86.6 L195.2 90.3 L192.9 88.2 L191.7 90.4 L189.8 91.3 L189.6 90 L191.2 89.7 L190.4 85.3 L190.2 89.4 L189.1 88.7 L189.8 87.4 L189.7 87.1 L189.1 86.9 L188.3 88.9 L187.1 87.4 L185 89.7 L183.5 85.1 L185.3 90.9 L184.2 93.1 L183.2 92.3 L182.4 91.2 L181.9 91 L181.7 88.7 L181.2 89.7 L181 89.4 L180.6 88.9 L180.7 86.6 L178.9 84 L180.7 84 L179.9 81.8 L175.6 80 L175.8 76.5 L175.6 78.4 L175 78.3 L174.4 79 L173.3 77.5 L172.2 77.5 L171.5 77.1 L168.9 73.2 L169 74.7 L168.4 75 L167.8 75.1 L166.1 72.1 L158.1 68.2 L158.4 65.6 L157.4 64.9 L162.2 62.5 L160.3 63.6 L159.4 63.1 L156.9 64.9 L158.1 66.7 L157.1 68.2 L154.9 67.2 L154.8 67.6 L154.2 67.8 L145.4 67.5 L142 69.3 L141.5 70.3 L142.1 71.4 L142.3 71.9 L140.2 69.5 L139.8 72.5 L138.9 72.1 L137.2 72.4 L136.9 73.4 L135.1 72.9 L135.4 73.7 L133.6 74.4 L133.4 79.7 L130.5 81.7 L131 82.1 L132.3 82.4 L135.4 81.3 L132.5 83.9 L129.1 84.9 L125.2 89 L119.3 92.6 L116.7 93.9 L115.6 94.4 L111.6 94.9 L109.6 94 L106.5 97.4 L106 102.6 L107 104.4 L111 106.2 L112.8 110.2 L116.4 113 L118.7 115.1 L122.1 119.5 L123.8 122.7 L123.7 126 L119 127.5 L112.6 127.5 L114.4 127.5 L111.7 128.4 L110.7 129.1 L111.1 131.5 L109.3 132.1 L107.7 134.2 L91.9 135.8 L89.3 133.8 L90.7 129.9 L90.6 129.3 L89.6 128.7 L89.9 126.4 L87.9 124.3 L88.7 122.5 L85.1 118.5 L86.5 117.6 L85 116.5 L85.7 115.3 L83.5 114.1 L84.4 112.8 L85.9 112.5 L84.9 112.5 L84.6 111.5 L84.7 109.1 L83.9 110.6 L83.3 111.1 L82.9 110.4 L82.7 110.4 L83.4 111.7 L79.5 110.9 L78.5 109.6 L80.1 111.6 L80.5 113.7 L78.5 116.1 L78.5 115 L78 115 L77.5 115 L78.5 116.4 L77.5 116.4 L77.8 116.8 L78 117.1 L79.5 117.1 L79.4 119.4 L78.5 120.5 L76.3 119.1 L70.9 118.2 L69.9 116.9 L67.1 116.7 L68.4 115.2 L67 114.8 L66.6 114.9 L66.5 115.6 L65.7 115 L65.2 114.8 L64.7 113.1 L65.5 111.2 L64.2 111.2 L64.3 110.1 L64 109.9 L63.4 109.9 L63.8 108.4 L64.5 108.6 L63.9 106.3 L63 107.8 L60.9 103.7 L60.6 105 L60.2 104.6 L59.6 102.9 L61.4 103.2 L58.8 98.5 L58.8 99.8 L57.5 101.1 L51.5 98.8 L51.9 97 L50.1 98.5 L49.6 98.2 L48.8 97.5 L45 97 L43.5 99.8 L44 97.7 L42.3 98.2 L41.2 97.5 L41.5 93.2 L41.8 93 L42.5 92.8 L40.9 92.9 L40.3 94.2 L40.3 94.4 L39.6 94.3 L39 94.1 L38.7 93.6 L38.9 92.8 L36.3 93.1 L36.5 94.1 L34.4 94.9 L33.7 94.7 L33.2 94.3 L33.1 93.8 L33.8 93.6 L33.2 92.3 L31.8 95.3 L24.7 93.6 L19.1 94.6 L16.6 97.5 L17.6 103.4 L16.6 104.9 L15.8 104.5 L16 103.6 L16.2 101.9 L14.3 97.6 L14.1 96.4 L11.9 95.6 L10 93.4 L17.7 88.2 L17.9 83.1 L14.9 77.2 L16.6 75.8 L16.5 74.4 L22.5 71 L22.3 70.6 L21.4 69 L15.7 65.3 L15.4 65.3 L14.3 65.8 L14.2 50.8 L17.7 49.4 L16.5 46.9 L17.7 45.3 L18.4 45.2 L20.5 46.1 L22.8 47.4 L24 49.2 L25.7 49.7 L26.9 47.3 L28.3 47.7 L27.9 46.2 Z"/>
  <path d="M61.9 128.5 L62.3 128.8 L63.5 128.7 L63.7 128.9 L64.7 130.9 L62.4 131.4 L58.8 130.4 L55.2 127.3 L54 125 L53.7 124 L55 123.9 L55.9 121.4 L58.6 120.2 L58.3 119.2 L59.1 119.2 L60.3 123.1 L61.6 123.6 L59.8 126.4 L61.1 128.6 L61.9 128.5 Z"/>
  <path d="M165.4 88.5 L165.4 88 L165.5 87.9 L166.5 88.6 L167.6 92.8 L166.7 94.6 L165.1 94.1 L164.4 95.1 L165 97.5 L162.5 94.2 L163.1 92.7 L162.3 89 L164.8 88 L165.4 88.5 Z"/>
  </g>
</svg>
