<svg xmlns="http://www.w3.org/2000/svg" viewBox="0 0 240 180">
  <g fill="#17324a" stroke="#fffaf3" stroke-width="3.2" stroke-linejoin="round" stroke-linecap="round">
  <path d="M156.7 51 L158.2 62.9 L158.2 73.4 L153.5 104.5 L154.6 122.3 L149.8 142 L148.7 144.8 L141 147.7 L139.2 151.6 L135.6 167 L133.2 169.3 L132 170 L130 170 L122.9 160.2 L93.6 148.8 L83.5 136.1 L81.9 133.1 L84.6 126.8 L85.1 122.7 L84.6 114.8 L81.9 107.6 L81.8 103.5 L89.2 82.8 L98.6 69.2 L102.1 60.2 L111.6 45.7 L119.4 40 L120.3 37.5 L121.8 30.4 L123.4 27.6 L133 13.9 L138.5 10 L146 12.5 L144.3 19.4 L146.9 23 L151.2 25.5 L154.3 29 L155.4 34 L156.7 51 Z"/>
  </g>
</svg>
