<svg xmlns="http://www.w3.org/2000/svg" viewBox="0 0 240 180">
  <g fill="#17324a" stroke="#fffaf3" stroke-width="3.2" stroke-linejoin="round" stroke-linecap="round">
  <path d="M93.2 133.4 L99.4 140 L100.4 142.6 L100.8 145.2 L100.7 146.7 L100.4 148.4 L92.5 159.6 L90.5 160.4 L91.1 162.1 L88.6 162.9 L87.2 164.5 L87 164.8 L83.8 164.9 L83.4 164.8 L82.3 168.3 L81.3 169.6 L80.1 168.1 L79.4 169.8 L78.4 170 L77.4 169.1 L76.8 167.4 L77.5 164.8 L76.1 162.9 L72.7 152 L72.2 151.1 L73.1 146.7 L75.7 142.4 L79 139.1 L79.8 138.7 L83.3 137.5 L86.3 135 L89.4 133.1 L93.2 133.4 Z"/>
  <path d="M167.8 12.4 L164.5 15 L167.7 16.6 L166.8 16.9 L165.4 17.2 L164.7 22.1 L164.2 23.1 L163.5 23.5 L162.3 23.7 L161.9 26.1 L161.2 24.7 L160.6 25 L160 25.4 L159.1 23.9 L155.4 22.8 L155.1 19.9 L155.1 18.1 L158.4 16.7 L159.1 12.2 L160.4 10.7 L162.1 10 L163.8 10.4 L166.5 10.6 L167.5 11.1 L167.8 12.4 Z"/>
  </g>
</svg>
