<svg xmlns="http://www.w3.org/2000/svg" viewBox="0 0 240 180">
  <g fill="#17324a" stroke="#fffaf3" stroke-width="3.2" stroke-linejoin="round" stroke-linecap="round">
  <path d="M210.7 43.6 L209.9 43.1 L212 41.6 L211.9 42.8 L213.4 44 L213.6 46.7 L210.7 43.6 Z"/>
  <path d="M16.3 146.8 L16.7 147.1 L16.9 147.3 L15.4 148.3 L13.8 148.3 L12 148.8 L10.6 148.9 L10 147.4 L12.5 148.3 L15.7 147.4 L15.2 146.4 L16.3 146.8 Z"/>
  <path d="M217.6 36.3 L216.8 36.1 L217.1 35.4 L219.1 36.3 L218.5 36.9 L217.6 36.3 Z"/>
  <path d="M11.7 146.7 L14.8 146.4 L11.7 146.7 Z"/>
  <path d="M207.6 40 L207.2 40.1 L206.9 39.8 L206.7 39.2 L206.8 38.8 L207.2 38.9 L207.6 39.2 L207.8 39.6 L207.6 40 Z"/>
  <path d="M229.1 99.2 L229.4 98.1 L229.6 97.6 L230 97.4 L229.9 97.9 L229.7 98.4 L229.1 99.2 Z"/>
  <path d="M220.1 36.5 L220.3 36.6 L220.5 36.9 L220.6 37.1 L220.5 37.1 L220.3 37.3 L220.3 37.5 L220.1 37.4 L219.9 37.2 L219.9 37 L220 36.7 L220.1 36.5 Z"/>
  <path d="M16.6 154.8 L16.6 155 L16.4 155.3 L16.2 155.5 L15.9 155.4 L15.9 155.2 L16.1 155 L16.4 154.8 L16.6 154.8 Z"/>
  <path d="M217.4 35.2 L217.5 35.1 L217.7 35.1 L218 35.2 L218.1 35.2 L218.1 35.3 L217.9 35.3 L217.9 35.4 L217.9 35.5 L217.6 35.4 L217.4 35.2 Z"/>
  <path d="M220.9 36 L221 36 L221.2 36.3 L221.2 36.4 L221.1 36.5 L221 36.4 L220.8 36.2 L220.9 36 Z"/>
  <path d="M212.8 42.3 L212.8 42.2 L212.9 42.2 L213 42.2 L213.1 42.2 L213.1 42.2 L213.1 42.3 L213 42.4 L212.9 42.5 L212.8 42.5 L212.7 42.6 L212.7 42.5 L212.8 42.4 L212.7 42.3 L212.8 42.3 Z"/>
  <path d="M222.4 41.8 L222.5 41.8 L222.6 41.9 L222.6 42 L222.5 42.1 L222.4 42.1 L222.3 41.9 L222.3 41.8 L222.3 41.8 L222.4 41.8 Z"/>
  <path d="M216.3 24.5 L216.4 24.9 L216.3 24.9 L216.1 24.7 L216.3 24.5 Z"/>
  <path d="M212.8 42.9 L212.9 42.9 L213 43 L212.9 43.1 L212.9 43.1 L212.8 43.1 L212.7 43 L212.6 43 L212.6 42.9 L212.7 42.8 L212.8 42.9 L212.8 42.9 L212.8 42.9 Z"/>
  <path d="M38.4 154.6 L38.4 154.3 L38.5 154.2 L38.6 154.3 L38.4 154.6 Z"/>
  <path d="M222 36.4 L222.1 36.5 L222.1 36.6 L222 36.7 L222 36.7 L221.9 36.5 L222 36.4 Z"/>
  <path d="M210.6 43.7 L210.7 43.8 L210.7 43.8 L210.8 43.9 L210.8 43.9 L210.7 44 L210.7 44 L210.6 43.9 L210.6 43.8 L210.6 43.8 L210.6 43.8 L210.6 43.7 L210.6 43.7 Z"/>
  <path d="M165.5 60.3 L165.7 60.5 L165.8 60.6 L165.8 60.7 L165.7 60.6 L165.6 60.5 L165.5 60.3 Z"/>
  <path d="M216.5 33.7 L216.5 33.7 L216.6 33.7 L216.6 33.8 L216.4 33.7 L216.3 33.7 L216.3 33.7 L216.5 33.7 Z"/>
  <path d="M220.8 35.3 L220.9 35.3 L220.9 35.4 L221 35.6 L220.9 35.6 L220.8 35.4 L220.8 35.3 Z"/>
  <path d="M209.8 43.5 L209.9 43.6 L210 43.6 L210.1 43.7 L210 43.7 L210 43.7 L209.9 43.7 L209.8 43.6 L209.8 43.6 L209.8 43.5 Z"/>
  </g>
</svg>
