<svg xmlns="http://www.w3.org/2000/svg" viewBox="0 0 240 180">
  <g fill="#17324a" stroke="#fffaf3" stroke-width="3.2" stroke-linejoin="round" stroke-linecap="round">
  <path d="M230 66.8 L229.3 71.5 L226.5 72.7 L225.1 77.6 L223.4 79.4 L223.3 83.1 L221.9 85.3 L221.1 89.7 L218.5 91.4 L214.5 96.2 L214.3 105.9 L213.6 106.8 L212.9 107.3 L206.4 107.7 L201 109.9 L199.8 110 L198.6 109.6 L194.5 104.4 L193.4 100.7 L190.7 100.3 L189.5 97.9 L186.9 96.7 L183 97.5 L180.6 100.1 L179 99.2 L177.7 99.5 L174.7 100.9 L171.9 99.4 L168.4 99.2 L162.8 96.2 L151.6 98.3 L150.5 98.8 L150.5 101.5 L148.1 104.4 L144.4 113.2 L143.3 114.3 L142.4 114.8 L140.7 113.7 L138.5 115.3 L137.1 115.1 L136 117.7 L129.1 121.9 L128.2 122.3 L127.4 122 L126 120.6 L125 120.3 L123.6 120.8 L123.2 120.8 L122.5 117.8 L121.6 117.7 L119.8 118 L117.3 116.3 L113.8 117.2 L113.1 117.6 L111.9 123 L109.8 124.5 L104.6 124.4 L102.3 125.9 L101.9 126 L93.1 125.7 L87 127.2 L85 130.3 L83.3 131.2 L83.6 137.1 L84.7 138.2 L86.2 139.3 L84.3 139.9 L81.4 142.5 L76 141.7 L63.8 143.9 L59 143.4 L50.1 144 L47.9 144.2 L44.7 143.3 L39.9 139.5 L38.1 139.5 L29.1 129.6 L23.1 128.4 L21.7 129.2 L18.7 127.5 L18.3 126 L19.1 123.8 L15.3 120.1 L14.3 113.8 L12.8 112.5 L12.2 109.7 L10 108.2 L10.8 102.7 L14 98 L14 93.1 L17 85.9 L20.4 80.8 L22.5 79.2 L24.2 78.9 L26.1 79.4 L30.5 81.6 L33.5 80.2 L36.7 82 L44.1 79.1 L46.7 75.7 L50 74.9 L51.3 70.4 L55.1 69.9 L56.4 69.3 L57.6 68.3 L58.4 66.9 L58.6 65.6 L58.7 61.1 L60.8 55.9 L69.5 51 L69.6 48.2 L70.7 48.5 L74.5 45.3 L75.3 42.9 L78.9 42 L82.9 42.9 L84.5 41.5 L85.2 41.2 L86.8 41.2 L90.6 41.5 L91.8 42.2 L91.8 48.3 L95.9 47.3 L97.8 48.2 L98.7 48 L99.9 47.5 L102.9 40.8 L106.4 40.1 L110.4 35.8 L112.8 38.1 L114.8 44.5 L117.8 45.2 L117.5 47.5 L120.6 48.4 L123 48 L123.4 53.9 L124.5 55.2 L122.2 59 L122.7 59.7 L123.6 60 L125.4 60.2 L126.3 59.9 L128.3 58 L129.5 57.9 L133.8 60.9 L137.1 53 L137.2 53.1 L138.1 53.2 L139.9 51.5 L142.9 51.2 L144.2 48.1 L148.2 48.6 L148.2 47.6 L148.8 47.5 L152.1 49.1 L152.9 49.3 L155.3 47.6 L158.5 47.6 L162 51.7 L167.4 54.1 L171.2 50.4 L173.3 50.1 L173.6 49.6 L173.2 48.7 L172.3 48.2 L171.8 47.7 L172.6 46.8 L173.2 46.5 L174.8 46.2 L178 47.6 L180.6 44.7 L187.1 47.1 L194.5 46.3 L197.2 47.5 L199.8 50.6 L202.2 49 L207.8 53 L209.6 58.7 L210.7 59.5 L216.8 61 L217.5 62.8 L222.3 63.6 L224.2 65.6 L230 66.8 Z"/>
  </g>
</svg>
