<svg xmlns="http://www.w3.org/2000/svg" viewBox="0 0 240 180">
  <g fill="#17324a" stroke="#fffaf3" stroke-width="3.2" stroke-linejoin="round" stroke-linecap="round">
  <path d="M169.8 132.4 L170.1 129 L170.9 131.5 L170.6 131.9 L169.8 132.4 Z"/>
  <path d="M148.3 87.5 L147.6 86.3 L147.5 85.9 L148.5 86.8 L148.6 86.8 L148.7 87.2 L148.7 87.6 L148.6 87.8 L148.3 87.5 Z"/>
  <path d="M135.4 112.3 L135.1 112.2 L135.2 111.7 L135.6 111 L135.9 110.4 L135.4 112.3 Z"/>
  <path d="M40.3 10.7 L39.9 10.1 L40.1 10 L40.5 10.4 L40.9 11.2 L40.3 10.7 Z"/>
  <path d="M91.5 29 L91.3 28.7 L91.3 28.5 L91.2 28.4 L91.7 28.5 L92.1 28.7 L92 28.9 L91.5 29 Z"/>
  <path d="M200.1 169.1 L200.1 169.9 L200.1 170 L200 169.1 L199.8 168.6 L199.9 168.6 L200.1 169.1 Z"/>
  <path d="M198.5 166.7 L198.7 166.8 L198.9 167.4 L198.9 167.5 L198.6 167 L198.5 166.7 L198.5 166.7 Z"/>
  <path d="M47.9 36.7 L48.1 36.1 L48.3 36.1 L48.2 36.4 L47.9 36.7 Z"/>
  <path d="M83.4 75 L83.4 74.9 L83.3 74.7 L83.3 74.6 L83.4 74.9 L83.4 75 L83.4 75.1 L83.4 75 Z"/>
  </g>
</svg>
