<svg xmlns="http://www.w3.org/2000/svg" viewBox="0 0 240 180">
  <g fill="#17324a" stroke="#fffaf3" stroke-width="3.2" stroke-linejoin="round" stroke-linecap="round">
  <path d="M69.4 13.1 L71.3 15.8 L79.3 16.4 L80.2 16.2 L81 15.6 L82.5 11.7 L83.3 10.8 L84 10.3 L90.8 10.2 L96 14.5 L96.3 16.2 L97.9 16.7 L103.5 22.8 L107.8 25.9 L113.5 33 L113.9 33.9 L114.1 34.9 L113.3 37.5 L113.5 42.3 L117.8 42.1 L120.3 39.9 L121.2 37.8 L123.4 37.6 L123.9 34.6 L124.5 34.5 L125.1 34.7 L131.7 41.5 L132.1 43.8 L134.7 47.7 L139 50.4 L140.6 48.5 L145.6 53.6 L152.4 54.7 L155.4 58.2 L156.3 61.7 L161.5 66.6 L165.1 69.5 L166.7 68.4 L167.2 68.5 L167.7 68.7 L171.7 71.1 L173 73.1 L175.8 74.2 L179 84.1 L181.2 87.2 L185.3 91 L191.2 93.3 L193.7 96.1 L188.5 101.6 L187.7 104.4 L182.6 108.5 L181.9 110.9 L181.9 113.3 L182.5 118.2 L181.9 123.6 L181.8 126.6 L182.6 127.9 L184.1 127.8 L185.4 129.6 L186.3 129.6 L183.7 132.6 L182.1 139.6 L177.1 144.6 L175.2 149.1 L175.6 150.3 L175.6 150.9 L169.9 154 L165.7 158.1 L165.3 158.5 L165.1 160 L162.6 160.5 L161.9 160.6 L162.7 159.7 L162.5 157.4 L160 156.5 L160.3 156.7 L161.4 157.2 L159.6 158.8 L161.4 160.4 L161.1 160.9 L160.6 161.3 L142.6 170 L142.5 168.9 L139.8 167.2 L134.2 167.5 L131 164.4 L122.3 163.2 L116.8 164.4 L109.5 168.9 L107.8 166.9 L105.2 167.8 L104.3 167.1 L102.6 166.1 L102.2 165.7 L102.1 165.2 L103.8 164.2 L103.4 163.7 L100.4 162.8 L98.3 163.2 L89.6 160.1 L81.9 152.9 L76 152.2 L71.2 152.9 L70.4 152.1 L69.7 152 L65 153.6 L62.5 153.5 L61.2 151.7 L61.3 150.4 L56.3 144.4 L53 143.3 L49.7 137.6 L47.7 136.2 L46.4 131 L46.3 123.3 L48 120 L47 117.4 L48.8 115.3 L48.3 110.3 L48.7 109.2 L49.9 108.8 L54.6 108.4 L55.7 107.4 L56.1 106.8 L57.1 102.4 L54.8 98.8 L52.9 87.1 L55.8 81.7 L53.3 77.5 L54.4 73 L53 68.3 L57.1 65.8 L58.8 60.7 L59 59.3 L58.8 57.8 L56.4 55.2 L58.7 52.7 L61.1 47.5 L61.1 46.7 L60.9 45.2 L62.5 41.6 L61.1 37.3 L63.8 36.6 L63.9 36.1 L64.1 35.3 L63.5 30.2 L61.5 24.9 L61.9 23.7 L62.6 22.7 L68.1 17.6 L68.7 16.6 L68.9 15.3 L68.5 13.9 L68.3 13.2 L69.4 13.1 Z"/>
  </g>
</svg>
