<svg xmlns="http://www.w3.org/2000/svg" viewBox="0 0 240 180">
  <g fill="#17324a" stroke="#fffaf3" stroke-width="3.2" stroke-linejoin="round" stroke-linecap="round">
  <path d="M97.2 65 L95.8 66.3 L92.2 66.1 L90.3 67.7 L89 67 L89 65.6 L86 61.6 L86.7 57.9 L84 49.3 L84.7 45.2 L85.9 44.9 L87.5 48.2 L87.9 48.4 L88.8 49.1 L90 56.5 L92.5 56.5 L93.5 55.1 L93.4 52 L96 51.5 L95.1 53.6 L96.1 56.2 L97.3 55.9 L98.2 62.4 L99.5 64.2 L97.2 65 Z"/>
  <path d="M111.5 84.7 L112.2 85.5 L110.7 87.4 L107.5 86.3 L105.3 88.3 L104 88 L102.3 83.1 L102.2 79.6 L101.1 77.9 L99.2 79.1 L97.3 77.2 L98.1 73 L99 72.4 L101.4 73.3 L102.7 77.3 L104 78.3 L104.2 77.6 L104.6 79 L110.7 82.8 L110.7 85.6 L111.5 84.7 Z"/>
  <path d="M144 140.7 L142.7 142.1 L136.6 139.4 L137 134.3 L137.7 133.9 L138.5 133.6 L139.4 133.6 L140.1 134 L140.5 136 L142.6 137 L142.3 137 L141 137.4 L143.7 139.5 L143.9 140 L144 140.7 Z"/>
  <path d="M127.2 113 L128 112.8 L127.2 115.1 L125.9 115.9 L122.1 115.3 L122.3 114.5 L120.8 115.1 L122.1 113.9 L120.6 113 L119.3 114.1 L118.8 113.6 L122.4 109.4 L122.7 110 L124.9 109.5 L127.2 113 Z"/>
  <path d="M119.4 83.1 L116 82.6 L113.7 80.5 L116.6 79.6 L119.2 77.1 L120.4 80.4 L122.6 82.1 L122.4 82.4 L121.7 83 L119.4 83.1 Z"/>
  <path d="M146.1 153.1 L147.6 153.8 L146.2 156.7 L142.8 155 L141.4 152.8 L142 149.7 L144.4 149.4 L144.5 152.2 L146.1 153.1 Z"/>
  <path d="M119.5 64.6 L121.3 73.4 L121.2 74.2 L121 74.8 L120.4 75.1 L119.9 75.2 L118.1 68.7 L118.8 63.4 L119.5 64.6 Z"/>
  <path d="M119.6 93.4 L118.1 91.1 L118.6 88.1 L119.6 88.2 L120.8 90.7 L121.7 90.4 L123.4 92.4 L125.8 93.1 L125.6 94.2 L122.6 92.8 L119.6 93.4 Z"/>
  <path d="M114.2 61.8 L112.1 63.9 L108.6 63.1 L108.8 62.7 L111.4 60.2 L113.2 59.6 L115 59.3 L115.6 59.3 L114.2 61.8 Z"/>
  <path d="M105.2 33.9 L107.1 35 L106.9 36.2 L106.9 36.4 L105.7 37.9 L102.9 37.7 L103 35 L105.2 33.9 Z"/>
  <path d="M103.9 29 L102.5 25.9 L104.6 24.3 L106.8 27.6 L104.6 28.3 L104.5 29.5 L104.1 29.6 L103.9 29 Z"/>
  <path d="M117.6 52.6 L117.5 51.5 L118.4 51.7 L119.6 57.5 L119.3 61.9 L118.3 61.9 L117.6 52.6 Z"/>
  <path d="M98.6 69.8 L96.1 68.7 L95.7 68.1 L95.8 67.5 L96.2 67.1 L96.9 66.9 L98.4 67.1 L99.2 67.4 L98.6 69.8 Z"/>
  <path d="M154.8 167.5 L156 168.6 L155.8 169.2 L155.7 169.5 L154.6 170 L152.6 169 L153 167.6 L154.8 167.5 Z"/>
  <path d="M97.6 65.1 L98 64.9 L98.3 64.9 L98.4 66.6 L96.5 66.2 L97.6 65.1 Z"/>
  <path d="M85.1 12 L84.8 12.7 L84.2 12.3 L84 10 L85 10.5 L85.1 12 Z"/>
  <path d="M101.2 19.9 L102.1 20.7 L100.9 20.8 L100.5 19.8 L100.8 19.5 L101.3 19.3 L101.2 19.9 Z"/>
  <path d="M109.2 22.4 L109.4 23.4 L107.7 24 L109.2 22.4 Z"/>
  <path d="M127.5 96.3 L127.1 96.3 L126.9 96.2 L126.8 96 L126.9 95.7 L126.9 95.2 L127.3 94.9 L127.9 94.9 L128.3 95.3 L127.7 96.2 L127.5 96.3 Z"/>
  <path d="M85.1 13.8 L85.5 13.5 L85.9 13.3 L86.6 14.1 L85.1 13.8 Z"/>
  <path d="M123.9 99.1 L122.4 99.6 L123.8 98.5 L124.1 98.5 L124.6 98.6 L124.4 98.8 L123.9 99.1 Z"/>
  <path d="M120.1 86 L120.3 85.1 L120.5 85 L121.1 84.9 L120.9 85.2 L120.9 86 L120.7 86.3 L120.4 86.6 L120 86.6 L119.9 86.4 L120.1 86 Z"/>
  <path d="M122.6 87.3 L122.3 87.3 L122.1 87 L121.8 86.4 L122.4 86.3 L122.7 86.3 L123 86.4 L123.2 86.8 L123.2 87.1 L123 87.3 L122.6 87.3 Z"/>
  <path d="M122.4 107.5 L122.5 106.9 L122.7 106.8 L123 107 L123.3 107.5 L123.5 108.3 L123.1 108.4 L122.7 108.1 L122.4 107.5 Z"/>
  <path d="M119.9 110.5 L120 109.8 L120.6 109.2 L121.4 108.9 L121.8 109.3 L121.6 109.4 L121.1 109.7 L120.8 109.8 L120.3 110.1 L120.1 110.3 L119.9 110.5 Z"/>
  </g>
</svg>
