<svg xmlns="http://www.w3.org/2000/svg" viewBox="0 0 512 512">
  <defs>
    <linearGradient id="bg" x1="0" x2="1" y1="0" y2="1">
      <stop offset="0%" stop-color="#17324a"/>
      <stop offset="100%" stop-color="#2f6f90"/>
    </linearGradient>
    <linearGradient id="accent" x1="0" x2="1" y1="0" y2="1">
      <stop offset="0%" stop-color="#ffb166"/>
      <stop offset="100%" stop-color="#ff7d2f"/>
    </linearGradient>
  </defs>
  <rect width="512" height="512" rx="112" fill="url(#bg)"/>
  <circle cx="256" cy="256" r="150" fill="none" stroke="#fffaf3" stroke-width="24" opacity="0.96"/>
  <path d="M119 256h274M256 106c48 40 76 92 76 150s-28 110-76 150c-48-40-76-92-76-150s28-110 76-150Z" fill="none" stroke="#fffaf3" stroke-width="18" stroke-linecap="round" stroke-linejoin="round" opacity="0.9"/>
  <path d="M185 162c24-12 46-18 71-18 66 0 121 42 143 101-24 12-46 18-71 18-66 0-121-42-143-101Z" fill="url(#accent)"/>
  <path d="M129 352c39-24 87-38 140-38 44 0 85 10 120 28" fill="none" stroke="#ffb166" stroke-width="20" stroke-linecap="round"/>
</svg>
