<svg xmlns="http://www.w3.org/2000/svg" viewBox="0 0 240 180">
  <g fill="#17324a" stroke="#fffaf3" stroke-width="3.2" stroke-linejoin="round" stroke-linecap="round">
  <path d="M220.1 35.6 L219.8 36.7 L217.9 36.1 L215.6 37.7 L214.1 37.7 L212.7 39.2 L208.9 37.8 L191.2 39.1 L185.5 41 L185.5 42 L179.7 45.1 L179.6 46.7 L177.1 45.6 L176.5 47.8 L171.6 51.3 L170.8 53 L173.6 54.7 L175.9 58.8 L175.4 60.1 L176.9 61.2 L177.5 63.6 L176.1 65.9 L177.7 67.8 L175.8 69.9 L175.1 72.2 L172.6 73.4 L169.5 76.9 L169.3 78.9 L167.7 79.4 L170.2 82.9 L169.3 87.8 L166.7 88.6 L166.6 88.9 L166.4 89.4 L161.4 89.8 L152.1 88.2 L151.5 90.1 L153.1 93.1 L155.5 93.8 L156.3 95.2 L156.1 97.8 L158.1 100.8 L153.9 104.1 L147.1 105.1 L146.1 106.2 L146 106.5 L146.3 108.4 L144.6 110.4 L145.4 112.5 L142.5 115.8 L143.5 125.1 L140.2 129.3 L136.3 131 L134.6 128.1 L132.7 127.3 L130.7 127.8 L132.6 128.3 L131.8 128.8 L126.6 127.1 L124 130.4 L122.2 130.6 L120.1 132.4 L118.2 132.3 L118.6 134.1 L121.2 134.6 L121.2 135.4 L121.1 135.7 L115.3 137.9 L110.3 137.4 L110.2 136.1 L110 136 L109.1 136.1 L105.5 138.1 L103.4 142 L100.7 143 L99.2 148.6 L100 151.1 L99.8 154.9 L98.5 158.2 L100.3 160 L98.2 162.1 L81.2 167.3 L73.1 166.8 L69.1 168 L67.4 170 L59.8 168 L43.9 169.6 L20 161.7 L34 144.3 L34.3 141.3 L32.3 135 L19.7 132.9 L19 123.5 L19.8 119.6 L15.9 105.4 L15.9 104 L16 103.7 L19.8 99 L19.8 97.8 L21.1 97.3 L17.2 96.5 L16.1 96 L15.1 95.1 L14.9 86.3 L17.1 83.4 L20.7 83.2 L17.9 79.7 L21.5 77.5 L23.2 74.4 L24.4 69.4 L23.8 66.6 L25 65.9 L26.2 60.3 L27.4 60.1 L31.1 63.6 L37 63.4 L40.3 66 L41.1 68.7 L43.2 66.2 L44.7 67.2 L47.2 66.7 L52.7 63.5 L52.6 60.2 L54.6 59 L53.1 57.6 L53 56.1 L57.8 55.8 L59.7 54.4 L64.5 53 L66.8 53.6 L66.9 51.7 L67.9 51 L68.4 50.7 L70 50.9 L70.5 49.8 L73.1 48.8 L74.8 46.1 L74.9 41.9 L77.5 37 L77.5 33.9 L81.6 31.8 L88.6 31.4 L89.8 29.9 L90.3 27 L91.8 25.8 L100 30.2 L110 29.2 L113.7 32.7 L117.3 31 L118.1 32.1 L120.8 31.9 L121.2 34 L124.8 37.3 L127.3 35.6 L128.6 35.8 L128.7 34.1 L133.7 32.3 L134.3 31 L136.5 31.5 L136.4 30.3 L136.7 30.2 L137.1 30.2 L137.8 31.1 L137.5 30 L138.9 30.3 L142.7 34.1 L143.7 33.9 L145.6 32 L144.6 28.6 L146.6 25.8 L152.6 25.1 L153.9 26.3 L156.1 26.4 L157.9 23.7 L156.3 19.3 L157.6 19.4 L160.5 16.4 L163.7 11 L167.4 10.7 L167.6 10 L173.6 13.9 L172.1 19.6 L173.3 20.2 L176.2 19.3 L176.7 19.6 L177.1 20.1 L176.1 22.5 L174.7 35 L176.4 40 L177.9 41.5 L180.6 41.2 L188.2 35.9 L192.6 35.4 L194.5 32.1 L202.3 27.7 L208.6 28.4 L208.4 30 L206.3 31.3 L207.8 32.1 L214.9 30 L216.8 28.4 L221.8 29 L225.2 31.9 L224.1 32.2 L223.8 32.2 L222.7 30.7 L217.6 33 L220.1 35.6 Z"/>
  </g>
</svg>
