<svg xmlns="http://www.w3.org/2000/svg" viewBox="0 0 240 180">
  <g fill="#17324a" stroke="#fffaf3" stroke-width="3.2" stroke-linejoin="round" stroke-linecap="round">
  <path d="M136.5 51.4 L135.5 52.1 L135.8 55.7 L133.8 58.8 L135.2 66.7 L131.6 68.6 L131.9 71.6 L133.4 74.6 L135.4 76.4 L134.2 79.5 L133.6 79.8 L133.1 79.6 L133.8 85.2 L136.4 89.9 L136.9 92.8 L139.5 93.4 L139.9 93.7 L140.4 94.6 L143 102.8 L143.4 103.1 L144.4 103.4 L147.3 101.8 L152 103.3 L152.4 108.2 L152.2 109.4 L151.5 110.2 L154.9 114.9 L155.1 117.8 L154.3 121.7 L152.1 123.5 L151.2 125.7 L150.2 126.4 L147.4 125.7 L144.6 128.4 L144.6 131.5 L141.8 136 L139.7 145.8 L136.9 147.2 L131.1 147.4 L130.4 147.7 L129.8 148.4 L128.9 151.1 L125.7 151.4 L125.9 151.9 L126.5 155.1 L129.7 160.4 L129.4 161.5 L128.7 162.2 L125 161.1 L124.8 163.5 L125.7 165.7 L123.7 168.6 L122.3 168.4 L121.2 170 L115.8 167 L114.5 166.6 L113.4 167.4 L113.9 164.1 L113.3 163.8 L113.1 163.6 L114.5 159 L114.2 157.9 L110.1 155.7 L111.5 153.9 L108.4 148.4 L106.1 148 L104.9 146.6 L104.7 147.4 L103.2 144.9 L92.9 139.4 L89.1 135.1 L87.7 130.9 L85.5 128.5 L85.5 128.1 L86.5 127.5 L87.2 127.5 L87.8 127.9 L90.8 133.3 L92.9 132.3 L93.1 127.5 L93 126.7 L92 126.1 L90.6 124.7 L89.5 123.1 L89.3 122 L91.2 123.9 L92.1 121.4 L91.6 120.4 L90.5 119.8 L89.5 120.1 L89.3 121.6 L86.1 116.1 L88.3 113.1 L88.6 108.2 L90.2 107.2 L89.6 106 L90.5 104.7 L89.1 102.6 L91.5 100.5 L91.5 104.5 L94.8 101.9 L93.7 97.6 L93.6 99 L93.1 100.2 L92 101.8 L92 101.5 L91.8 101.2 L93 99.1 L91.5 96.6 L92.1 92.1 L91.5 90.5 L94.5 84.1 L93.4 81.5 L90.6 80.6 L90.5 79.6 L90.5 77.4 L89.6 75.8 L90.1 76.5 L91 76.5 L91.7 75.7 L91.5 74.4 L92.5 73.8 L93.4 73 L94.2 71.9 L94.5 70.5 L91.5 66.7 L95 67.2 L96.1 66.8 L96.5 66.7 L97.3 64.9 L98.4 65.6 L98.1 64.2 L97.9 63.9 L96.2 62.7 L97 61.3 L96.7 56.9 L97.4 57.1 L97.8 56.4 L97.9 55.3 L97.5 54.3 L91.2 51.7 L88.5 52.5 L87.7 46.8 L88.7 45.4 L87.9 43.2 L88.8 39.2 L84.8 35.1 L89.9 27.4 L90.6 24.9 L97.4 16.5 L98.7 12.6 L101.8 10 L103.7 13 L103.2 16.9 L103.9 18.6 L105.2 19.6 L107 19.9 L110.1 17.9 L112.1 17.9 L113.1 17.6 L114.5 15.8 L115.4 15.1 L119.9 18.5 L122 22.4 L121.5 23.8 L123.3 27.8 L127.1 27.9 L133.1 32.5 L135.8 38.2 L137.8 46.8 L136.3 50 L136.5 51.4 Z"/>
  </g>
</svg>
