<svg xmlns="http://www.w3.org/2000/svg" viewBox="0 0 240 180">
  <g fill="#17324a" stroke="#fffaf3" stroke-width="3.2" stroke-linejoin="round" stroke-linecap="round">
  <path d="M69.6 116.8 L39.5 96.6 L39.5 84.2 L47.8 78 L62.3 76.1 L62.6 76.9 L63.3 77.1 L64 76.9 L66.8 72.8 L73.1 68.2 L78.8 66.4 L79.5 64.2 L78 62.2 L77.2 62.3 L77.5 60.8 L78.6 60.4 L78.7 58.1 L85.1 56.8 L84.7 54.3 L97.8 54.2 L97 53.6 L97.5 51.8 L99.1 50.6 L96.1 48.4 L95 46.7 L95.6 45.8 L94.1 44.1 L94.6 41.3 L93.6 39.8 L94.2 36.5 L93.1 34 L93.9 33.1 L92.6 32.1 L93.4 30.8 L89.9 27.7 L93.6 27.3 L97 25.4 L99.1 22.5 L100.8 21.7 L102.3 22.1 L103.5 20.6 L106.5 21.5 L109.9 17.8 L117.7 14.8 L127.5 14.4 L130.1 12.5 L132 13.1 L137 11.6 L144.4 11.7 L148.5 14 L151.9 12.3 L155.5 11.7 L157.2 10 L161 11.8 L163 11.6 L163.8 10.8 L163.4 10 L168 10.9 L167.8 11.8 L168.8 12.2 L171.4 11.2 L174.2 11.4 L174.6 12.3 L172.8 12.7 L172.9 13.8 L170.9 15 L172.4 16 L171.4 21.2 L172.2 23.7 L171.8 25.6 L172.9 26.4 L171.4 31.6 L165.8 36.5 L165.5 38.6 L167.4 44.1 L170.1 45.2 L171.8 47.6 L172.1 50.3 L177.7 54.3 L181.4 70.6 L179.6 71.6 L182.5 76.1 L183.2 78.2 L183.8 80.3 L183.4 87.9 L184.6 91.9 L183 96.6 L184.3 102.2 L184 103.3 L183.9 103.5 L181.1 104.9 L180.3 106.5 L185.2 113.9 L185.4 118.1 L187 120.4 L188.3 121.5 L190.6 120.7 L197.2 123 L200.5 129.9 L165.5 153.2 L152.4 165.8 L133.1 170 L131.4 168.6 L132.6 166.4 L132.1 162.5 L125.9 160.5 L124.3 158.5 L121.9 158.9 L119.3 155.7 L116.1 154.3 L116.1 151.2 L69.6 116.8 Z"/>
  </g>
</svg>
