<svg xmlns="http://www.w3.org/2000/svg" viewBox="0 0 240 180">
  <g fill="#17324a" stroke="#fffaf3" stroke-width="3.2" stroke-linejoin="round" stroke-linecap="round">
  <path d="M184.8 116.3 L179.7 122.3 L173.7 125.1 L167.3 125.2 L160.9 122.8 L159.5 120.6 L158 120 L156.4 120.8 L154.5 123.1 L148.7 142.6 L131.6 149.9 L97.9 154.3 L89.2 166 L83.1 169.4 L78.7 170 L46.3 165.7 L40.2 161.1 L40.2 152 L24.8 127.9 L33.9 123.7 L36.9 123 L47.5 115.3 L45.6 103.9 L36.2 95.5 L24.2 97.1 L26 88.8 L34.8 73.5 L34.9 70.7 L30.4 67.7 L31.1 60.8 L34 53.5 L36.4 49.1 L48.2 44.3 L56.5 15.7 L73.3 16.6 L89 10.6 L97.2 10 L126.2 29.9 L132 32.6 L192.8 38.6 L188.1 53.4 L196.7 58.8 L209.2 62.7 L213.7 69.2 L215.8 72.3 L202.4 73.6 L192.6 83.1 L186.7 98.2 L184.8 116.3 Z"/>
  </g>
</svg>
