<svg xmlns="http://www.w3.org/2000/svg" viewBox="0 0 240 180">
  <g fill="#17324a" stroke="#fffaf3" stroke-width="3.2" stroke-linejoin="round" stroke-linecap="round">
  <path d="M189.8 86 L190.9 92.2 L189.7 94.8 L189.7 101.6 L190.6 103.8 L188.7 108.5 L190.2 111 L167 111 L167 148.1 L168.9 153.2 L171 154.1 L176.1 160 L178.7 161.3 L180.9 164.2 L182.4 164.3 L183.1 165.4 L160.1 169.8 L157.5 168.8 L153.5 170 L148 167.9 L141.4 168.3 L131.4 167.3 L130.4 166.8 L129.9 166.7 L126.4 162.5 L74.9 162.9 L69.6 159.3 L69.2 158 L65.5 157.3 L58.7 160.7 L54.9 160.5 L53.1 159.5 L49.4 160.9 L50.1 151.8 L49.1 144.5 L52.2 141.4 L52.8 137 L53.9 136.2 L53.4 135.8 L55.3 131.5 L56.1 127 L55.9 123.8 L56.8 121.4 L58 120.6 L58.1 115.8 L63 110.8 L62.9 108.8 L65.5 106.4 L68.2 105.9 L71 102.2 L72.8 96.8 L73.4 88.9 L73.2 86.5 L72 84.6 L72.5 83.7 L69.7 80.6 L65.8 72.2 L65.6 68.6 L63.6 65.2 L64.6 62.8 L63.8 65 L66.2 61.4 L65.9 62 L68 61.2 L68 56.4 L61.9 43.7 L61.7 39.5 L58.5 36.3 L55.5 30 L60.7 29.5 L65.6 27.2 L104.1 27.5 L106.5 31.1 L106.1 33.6 L106.9 37 L109.4 40.8 L109 43 L111.7 45.6 L113.2 49.3 L116.6 53.5 L120 52.9 L122.3 53.6 L122.7 52.5 L127 52.3 L127.1 51.5 L129.7 51.5 L130.1 52.4 L136.8 52.4 L136.7 47.6 L138.6 46.2 L138.7 40.6 L147.6 40.6 L147.9 39.6 L151.2 39.6 L150.2 44 L164.7 43.9 L165.6 46.3 L164.4 52.5 L166.5 57.2 L164.8 69 L165.8 71.8 L168.9 74.8 L170.8 80 L170.9 84.7 L169.1 85.8 L169.9 90.4 L173 88 L178.9 88.7 L183.5 87.1 L188.3 87.9 L189.8 86 Z"/>
  <path d="M64.5 12.9 L61.4 14.1 L59.9 16.3 L57.2 17.8 L58.2 18.7 L58 25.7 L54.5 26.1 L54 25.1 L53.8 24.4 L54.8 22.6 L52.4 17.7 L53.3 18.1 L53.7 17.2 L52.2 17.4 L54.3 14.4 L55.7 14.6 L56.6 12.5 L59.3 12 L60.9 10 L62 10.1 L64.5 12.9 Z"/>
  </g>
</svg>
