<svg xmlns="http://www.w3.org/2000/svg" viewBox="0 0 240 180">
  <g fill="#17324a" stroke="#fffaf3" stroke-width="3.2" stroke-linejoin="round" stroke-linecap="round">
  <path d="M98.8 157 L99.7 154.6 L98.9 152.5 L99 150.6 L102.4 148.8 L100.9 148.3 L96.6 145.9 L98.9 143.7 L102.5 142.1 L107.3 140.7 L105.6 137.8 L106 135.3 L107.8 133 L110.8 131.1 L117.4 131.9 L120 135.8 L121.6 140.3 L125.1 142.9 L125.3 141 L125.8 139.7 L127.8 137 L128.9 138.9 L130.6 139.9 L132.6 140.3 L134.9 140 L133.9 141.1 L133.4 141.9 L132.5 142.5 L130.6 142.9 L131.5 146 L133.7 147.5 L140.7 145.9 L143.4 150.5 L137.8 150.5 L142.5 155.2 L142 157.7 L139.7 161.5 L137.3 161.6 L134.7 160.3 L131.3 159.3 L129.7 160.1 L129.6 162.1 L130.6 167.4 L129 170 L125.7 168.4 L122.3 165.3 L120.8 163.7 L112.4 166.6 L108 166.6 L105.3 166 L98.7 162 L97.4 160 L98.8 157 Z"/>
  <path d="M108 39.1 L105.3 40.6 L104.2 37.5 L103.8 28.6 L100.8 17.9 L100.9 13.7 L101.7 14.4 L103.6 19.4 L106.9 23.4 L108 25.7 L107.1 33.3 L109.5 34.7 L110.6 30.6 L110.9 25.1 L109.6 20.2 L105.9 18.1 L104.4 15.8 L105.4 11.6 L108.2 10 L112.4 15.3 L111 16.1 L109.5 16.8 L112.3 17.8 L116.6 16.3 L119.3 16.8 L122.6 19.3 L125.5 22.8 L127.8 26.5 L129.3 30.1 L130.8 36.6 L131 40.2 L130.6 43.6 L129.2 47.6 L122.1 49.5 L120.8 45.6 L117.1 42.8 L108 39.1 Z"/>
  </g>
</svg>
