<svg xmlns="http://www.w3.org/2000/svg" viewBox="0 0 240 180">
  <g fill="#17324a" stroke="#fffaf3" stroke-width="3.2" stroke-linejoin="round" stroke-linecap="round">
  <path d="M106.5 15 L108.2 12.1 L109.9 11.4 L110.1 10 L112 11.6 L116.2 11.9 L117.3 15.2 L118.8 11 L123.1 11 L126.1 15.8 L129.8 19.7 L133.5 20.7 L138.1 24.4 L142.1 26.3 L142.8 28.2 L140.6 31.1 L140.5 33.4 L138.9 36.6 L141.2 36.3 L147.2 37.9 L148.2 36.5 L149.8 37.1 L150.8 35.1 L153.3 33.4 L154 28.2 L154.6 28.8 L156.3 28.2 L157.5 31.7 L156.9 35.8 L153.2 37.6 L152.4 39.2 L149.6 41 L149.9 41.8 L149.1 41.6 L141.6 52 L141.9 53.9 L140.4 58.5 L140.6 64.2 L139.5 64.4 L139.7 69.6 L139 70.1 L140 71.9 L144.2 75 L143.5 78.3 L145.1 80.2 L145.9 79.9 L146.2 81.1 L146.2 82.7 L142.8 88.6 L139.9 90.4 L134.4 92 L127.3 92.8 L124.7 91.8 L124.9 94.1 L126 94.5 L125 94.3 L125.9 94.9 L125.7 96.7 L124.9 96.7 L124.2 99.1 L125.4 100.7 L123.4 102.6 L119.4 103.2 L115.1 101.6 L115.6 101.1 L114.3 101.6 L114.8 107.7 L116.7 108.4 L116.3 109.3 L116.9 109.4 L118.4 109 L117.4 108.3 L119.6 107.7 L120 110.8 L118.2 111.5 L117.1 109.7 L114.9 110.4 L114.8 111 L117.4 112 L114.7 113.4 L113.5 115.2 L114 118.6 L112.2 120.2 L112.6 121.7 L110.3 121.6 L107.5 122.9 L104.9 126.8 L105.7 129.2 L107.9 131.2 L112 132.3 L111.6 134.8 L109.6 135.4 L111.1 134.9 L111.9 135.8 L105.1 141.1 L104.1 142.7 L105 142.3 L103.9 145.7 L102.2 146.3 L100.9 144.4 L101.3 145.4 L99.7 145.7 L101.4 145.6 L102.2 146.4 L99.9 147.6 L98.2 150.7 L99.1 150.4 L99.9 153.2 L97.4 153.5 L100 153.6 L101.8 157.2 L96.1 155.4 L88.5 155.2 L86.7 153.2 L87.3 148.8 L84.1 149.4 L82.5 145.3 L84.4 143.6 L84.3 141.2 L86.2 139.9 L86.2 138.3 L87.3 137.8 L86.4 135.8 L87 133.4 L88.9 132.3 L88.6 130.4 L89.6 129.8 L88.7 127.1 L89.9 126.3 L89.3 124.4 L91 122.9 L88.1 120.5 L91.1 120.7 L91.7 119.6 L91.5 118.9 L88.9 118.7 L89.7 116.5 L88.6 113.9 L89.4 112.9 L87.9 112.2 L87.9 108.5 L89.4 107.7 L88.6 101 L89.6 99.2 L89.5 95.6 L90.3 95.7 L90.6 92.5 L92.8 90.9 L91.5 86.6 L91.4 82.4 L92 80.7 L94.4 78.9 L93.8 74.8 L95.7 70.1 L96.6 69.9 L96.8 65.9 L95.5 64.7 L95.9 63.3 L94.7 60.5 L95 58.8 L93.7 57 L93.9 55.1 L94.9 54.5 L95.3 51.3 L96.6 50.3 L95.8 46 L96.7 45.2 L97.3 41.8 L99.1 39.5 L100.4 35.7 L102.3 35 L101.2 32.5 L101.9 31.1 L101.2 27.6 L102.1 26.1 L101.3 24.3 L102.7 22.4 L105.9 20.8 L107.2 16 L107.2 15.8 L106.5 15 Z"/>
  <path d="M101.1 168.7 L101.1 158.4 L102.6 160.6 L102 160.3 L101.4 161.3 L103.1 161.8 L105.1 164.5 L109.2 167.2 L114.3 168.1 L113.5 169.4 L109.4 170 L101.1 168.7 Z"/>
  </g>
</svg>
