<svg xmlns="http://www.w3.org/2000/svg" viewBox="0 0 240 180">
  <g fill="#17324a" stroke="#fffaf3" stroke-width="3.2" stroke-linejoin="round" stroke-linecap="round">
  <path d="M119.1 10 L121 13.9 L120.5 15.3 L120.8 16.1 L125.8 16.8 L128.4 18.8 L129.1 19.7 L129.2 20.8 L127.4 22 L122.4 21.8 L121.9 24 L122.6 25.1 L123.6 25.8 L124.6 25.9 L124.9 25.1 L125.1 23.9 L130.2 28.2 L135.9 29.6 L140.2 28 L140.6 32.4 L143.2 33.8 L145.4 36.5 L146.2 37.3 L149.2 38.2 L149.3 39.7 L148.4 42.4 L147.1 43.9 L143.2 45.8 L141.1 46.7 L139.1 48.3 L137.9 50.6 L138.6 54.9 L141.5 57.7 L142 60.6 L142.5 61.1 L143.5 61.8 L143.9 62.5 L145.6 66 L148.6 68.8 L160.3 75.4 L160.3 75.5 L162.5 77.9 L165.7 77.5 L168.4 80.3 L167.6 85.7 L164.9 89.6 L163.8 93.9 L163.1 94.4 L159.6 94.8 L151.3 93.4 L148.1 95.5 L148.2 96.1 L148.3 97 L156.5 99 L160.2 105.7 L162.5 108 L168.4 110.3 L169.8 111.7 L171.7 115.7 L176.1 118 L178.8 121.9 L179.9 122.3 L181.6 121.9 L185.1 120.1 L186.8 120.2 L189.5 123 L194.5 123 L195.3 123.6 L195.9 124.4 L196.1 125.5 L194.3 127.4 L194.3 130.3 L189.9 131.3 L188.3 132.3 L187.7 134 L188.4 136 L194.5 139.7 L195.6 142.6 L199.9 146.8 L195.4 148.9 L192.3 147.3 L190.6 147 L189.4 148.1 L189.5 150.2 L193.6 153.4 L194.3 155.6 L193.4 164.2 L193.6 165 L195.4 168.8 L188 166 L184.2 166.7 L179.7 169.5 L176.3 170 L173.4 164.3 L170.8 156.8 L167.4 151 L166.9 149.3 L167.2 147.6 L168.8 144.6 L157.3 136.7 L159.5 131.5 L159.2 125.7 L158.8 124.8 L157.6 124 L154.8 123.5 L148.6 125.1 L141 128.8 L137.9 126.3 L135.5 126.1 L134.8 125.8 L132.1 121.5 L130.8 121.9 L129.3 123.3 L127.5 123.7 L126.5 123.1 L126.7 117 L122.4 111.1 L120.7 110.2 L115.3 113.2 L107.6 114.7 L103.5 108.7 L101.2 107.9 L99.4 105.8 L98.7 106.2 L98.4 104.5 L94.9 99.5 L85 92.8 L83.2 92.2 L81.4 92.2 L75.4 93.6 L73.8 92.7 L70.2 94.5 L64.1 93.5 L51.7 87.8 L51 85.9 L54.5 83.9 L52.1 80.1 L53 79.3 L52.9 79.2 L52.2 77.5 L48.1 72.3 L49.7 67.4 L46.3 63.6 L48.1 61.5 L49.2 60.8 L50.4 60.6 L50 59.7 L51 60.2 L51 58.6 L51.7 57.2 L53.8 54.7 L53.4 53.2 L54.9 50.4 L54.7 45.9 L51.4 38.9 L50.2 33.5 L48.6 31.6 L46.6 29.9 L41.4 27.6 L40.3 22.1 L46.7 21 L54.9 22.1 L56.2 22 L61.7 18.7 L66.3 18.6 L71.7 17 L73.8 17.6 L74.9 17.4 L77.7 14 L82.9 16.6 L86 15.1 L91.5 17.3 L94.6 15.5 L96.4 17.5 L99.5 14.4 L100.5 14.6 L102.6 15.4 L110 15.6 L111.3 15.4 L111.8 14.7 L109.4 13 L109 12.1 L110 11.1 L114.8 11.9 L116.8 11.8 L119.1 10 Z M118 23.7 L117.2 24.3 L117 25.2 L117.4 26.2 L118 27 L119.8 27.6 L120.5 26.1 L120 24.2 L118 23.7 Z M129.6 31.3 L130.1 30.5 L128.7 29.3 L128.5 29.3 L128.3 29.3 L128.1 29.4 L128 29.6 L128.4 31.1 L129.6 31.3 Z"/>
  </g>
</svg>
