<svg xmlns="http://www.w3.org/2000/svg" viewBox="0 0 240 180">
  <g fill="#17324a" stroke="#fffaf3" stroke-width="3.2" stroke-linejoin="round" stroke-linecap="round">
  <path d="M224.1 51 L224.4 53 L224.3 53.5 L221.8 57.3 L221.2 61.2 L222.6 62 L223.3 64.4 L224.4 65.2 L225.2 70 L228 72.7 L227.7 75.4 L230 76.7 L228.2 78.2 L227.7 82 L225.8 82.8 L227.3 84.9 L226.9 85.4 L226.9 86.2 L227.9 89.4 L222.9 90.5 L221.8 90.3 L221.4 89.2 L219.9 90.8 L218.3 90.5 L217.9 90.4 L216.8 88.5 L214.5 87.6 L213.3 87.4 L212.2 87.9 L211.7 89.5 L209.5 90.2 L208.6 91.4 L215.1 93.1 L215.6 95.5 L216.8 96.7 L215.2 98.6 L215.4 100.3 L215 100.7 L213.9 101.5 L210.8 102.9 L210.4 102.4 L210 102.1 L209.7 102.2 L209.4 102.7 L209.1 105 L210.5 107.9 L209 109.3 L208.8 111.7 L209.6 112.2 L209.4 113.5 L211.6 113.9 L210 116.2 L211.1 117.6 L209.1 118.7 L210.9 119.8 L204.8 119.6 L200.1 125.4 L196.3 127.1 L196 130.8 L197.4 133.9 L196.5 132.9 L191.8 131.6 L189.1 132.5 L186.8 132.1 L186.4 131.9 L185.8 133.7 L183.8 133.8 L182.8 135.7 L182.2 136.1 L181.4 136.3 L179.2 134.9 L169.8 134.8 L168.2 135.3 L167.1 136.9 L166.5 136.1 L166.1 136 L163.7 136.8 L161.9 140.9 L156.2 144 L154.8 146.4 L153.7 144.7 L151.8 144.7 L150.6 143.7 L143.5 143.7 L140.6 141.8 L138.7 142 L136 140.7 L135.2 140.5 L129.7 140.4 L124.3 138.5 L117 138.9 L116.4 138.7 L114.6 137.5 L112.2 137 L105.5 136.5 L102.8 135 L97.3 134.7 L93.2 133 L91.4 129.8 L89.4 129 L89.2 125.4 L85.2 123.7 L84.7 120 L87.4 117.5 L86.7 116.1 L79.9 118.1 L73.9 121 L73.3 120.8 L72.4 120.1 L67.5 120.2 L66.3 119.4 L64.5 121 L61.7 120.3 L59.7 120.6 L57.7 121.3 L57.2 121.6 L55.3 123.5 L54.2 127.7 L52.6 129.6 L48.9 129.9 L44.7 128.9 L45.4 127.5 L45.1 127.1 L42.9 125.7 L37.8 126.3 L36.9 125.6 L37 122.5 L34.7 119.9 L32.9 121.3 L32.4 122.3 L32.3 123.1 L30.6 123 L29.6 125.5 L27 126.3 L20.2 122.9 L19.7 119.1 L14.3 117.3 L11.7 117.3 L12.5 116.3 L12.7 115.2 L10.9 112.6 L11.2 111.3 L10 108.5 L13.7 102.2 L13.7 100.4 L12.9 99.6 L11.8 99.1 L10.8 96.8 L14.5 97.4 L17.5 94.5 L18.4 96.5 L22.3 96.6 L23.3 99.1 L24.5 98.8 L25.9 100.9 L26.1 101.4 L26 101.9 L25.3 102.4 L26.2 104.4 L29.8 103.8 L29.3 107 L28.3 108.1 L32.6 106.8 L36.2 102.8 L36.6 101.9 L36.8 100.9 L35.9 98.6 L36.2 95 L37 94.9 L36.9 96.3 L37.7 96.9 L39 97.1 L39.3 97 L40.6 95.6 L45.5 97.7 L48.6 97 L48.9 97.2 L49.5 97.7 L48.6 99 L50.1 99.7 L51.5 101.2 L52.1 103 L55.1 103.1 L58.2 101.4 L59.5 102.9 L61.5 101.1 L63.7 100.7 L63.2 99.6 L64.6 98.1 L68.6 97.7 L70.6 94.5 L76.3 95.1 L77.2 94.1 L79.7 93.6 L86.3 93.9 L86.5 93.8 L87.5 92.1 L86.6 89.5 L88.4 88.4 L88.4 90.7 L93.7 90.1 L95.8 92.8 L100.3 90.8 L103.5 91.2 L103.2 91.9 L105 93.5 L104.2 93.9 L103.8 94.9 L104 96 L108.4 99.5 L110.4 99.8 L110.6 99.6 L111.4 98.6 L112.4 91.5 L110.9 89.2 L107.2 88.7 L110.1 83.4 L103.4 74.1 L102.8 72 L106.8 68.2 L114.3 64.4 L118.3 63.7 L119.2 63.2 L122 60.8 L123.5 52.3 L124.4 52 L125.4 51.8 L131 54.5 L133.5 50.7 L133.9 47.1 L132.9 46.2 L133 45.8 L133.9 44.1 L138.7 46.6 L140.2 48.6 L139.6 50.3 L141.3 51.5 L148.6 53 L150.9 51.8 L152.4 49.3 L153.1 50.1 L154.2 50.7 L156.3 50.3 L158.7 52.2 L159.5 48.1 L160 47.2 L161.6 45.9 L162.3 43.6 L166.3 44.2 L167 35.3 L168.1 33.6 L169.8 34.2 L172 34.3 L172.1 36.7 L172.7 36.7 L174.9 36.2 L176 34.6 L188.3 40.3 L191.6 39.5 L199.3 45.1 L207.2 45.7 L209.9 42.5 L214.9 43.3 L216.3 45.4 L219.9 46.5 L222.1 46.1 L224.1 51 Z"/>
  </g>
</svg>
