<svg xmlns="http://www.w3.org/2000/svg" viewBox="0 0 240 180">
  <g fill="#17324a" stroke="#fffaf3" stroke-width="3.2" stroke-linejoin="round" stroke-linecap="round">
  <path d="M112 111.6 L111.2 111.2 L110.4 110.9 L103.3 111.6 L93.6 114.8 L88.1 114.8 L80.3 118.5 L77.4 122.9 L71.1 123.3 L70.8 122.3 L62.2 122.8 L60.3 123.8 L60.2 125.1 L58.9 125.8 L57.1 125.4 L55.2 127.6 L52.8 128.2 L53.3 128.6 L47.5 128.3 L44.8 127.2 L42.7 125 L41.1 125 L40.5 120.9 L41.9 121.5 L43.6 119.8 L43.7 112.4 L40.8 106.3 L39.9 99.4 L36.9 94.6 L36.3 90.7 L32.6 85.1 L33.1 85.5 L33.2 84.3 L33.6 86.2 L33.5 84.4 L34.3 87.1 L34.6 86.5 L34.8 87.5 L35.7 86.9 L33.7 83 L34.1 82 L35.2 83.8 L35 85.3 L35.7 84.1 L36.1 86 L37.2 86 L37.4 83.7 L33.6 76.9 L35.3 71.5 L34.7 67.7 L36 64.7 L37 64 L36.7 67.2 L37.8 67.3 L39.2 64 L42.5 62.6 L48.3 57.8 L48.6 58.7 L52.2 58.5 L54.2 56.9 L57 56.6 L58.1 55.1 L63.2 54.8 L67.3 52.7 L70 47.7 L72.3 46.1 L71.5 45.4 L71.9 41.1 L73.4 40.5 L73.2 39.6 L74.3 39.6 L74.1 38.6 L75.1 37.6 L74.9 38.6 L77.6 43.5 L77.6 40.8 L79.1 41.7 L78.5 40.6 L79.2 39.7 L78.4 40.1 L77.3 39 L77.7 38.4 L76.9 38.2 L78.2 37.9 L77.5 36.7 L78.5 36.6 L78.8 37.9 L79.4 37.7 L79 36.8 L80.3 37.7 L83.3 37.7 L81.2 37.4 L81.3 36 L82 36.4 L82.6 34.9 L81.5 35.8 L81 33.5 L82.3 33.3 L82.3 32.2 L84.5 33.5 L84.2 32.3 L83.2 32.4 L84 31.7 L83 31.7 L83.7 30.8 L85.6 31.7 L84.3 29.7 L85.2 28.5 L85.6 29.2 L86.3 28.7 L86.3 27.2 L86.9 27.4 L86.5 29.2 L86.8 28 L87.7 29.2 L88.7 27 L87.9 26.2 L88.4 25.5 L89.1 27.2 L90.3 25.7 L90.7 27.2 L91.8 24.8 L92.8 25.9 L94.2 25.8 L97.7 29.5 L96.8 33.3 L97.2 31.8 L97.9 32.9 L97.5 31.2 L98.1 30.5 L98.6 31.2 L99 29.7 L101.4 30.4 L101.9 32.1 L102 30.1 L104.2 31.9 L103.8 30.1 L105.3 29.5 L104.3 30.1 L103.6 29 L104.4 28.7 L103.4 28.8 L102.6 27.7 L103.1 26.3 L104.1 26.2 L104.8 23.4 L106.8 22.9 L105.9 20.9 L107.2 19.4 L108.3 19.8 L107.8 18.3 L109.2 19.5 L108.9 18.3 L109.9 18.2 L109.7 17.1 L110.8 17.5 L110.9 16.6 L111.6 17.8 L114.2 17.9 L115.1 17.1 L115.7 18.2 L115.9 17.1 L117.3 17 L116.1 13.8 L114.4 14.1 L113 13 L113.9 12.1 L114.7 13.5 L114.6 12.2 L115.2 12.8 L115.5 12.1 L116.9 14 L117.9 13.1 L119.1 15 L120.6 15.7 L122.3 15 L121.9 15.7 L123.2 15.8 L123.5 16.8 L126 16.1 L127.8 17.8 L130.9 15.2 L129.7 17.2 L130.1 17.9 L131.5 16.7 L131.4 18.6 L132.5 18.4 L132.8 17.4 L132 17.2 L133.7 15.8 L134.1 17.7 L134.6 17.2 L135.5 18.1 L133.9 20.4 L133.3 20.1 L134.1 21.2 L133.4 21.1 L133.3 22.4 L132.6 22.7 L132.6 21.5 L132.2 22.4 L131.8 21.8 L130.9 22.5 L130.8 24.8 L131.6 24.5 L130.9 27 L128.5 29.6 L129 30.7 L134.3 35.5 L135.5 35.1 L138.8 37 L140.7 39.2 L144.3 40.1 L145.4 42.3 L148.5 44.1 L150.9 43.7 L152.2 42.8 L153.8 39.1 L155.7 31.4 L154.9 25.4 L155.9 22.4 L155.4 21.1 L156.4 19.6 L156.9 20.8 L157.2 19.8 L156.1 18.6 L155.4 18.9 L156.4 16.4 L157.3 16.7 L157.8 11.3 L159.6 10 L159.3 11.3 L160.5 11.6 L160.9 15.6 L162.6 16.2 L161.8 18 L163.4 19.3 L163 20.6 L163.8 20.4 L163.8 24.9 L164.7 27.7 L165.6 28.6 L168 26.9 L168.7 28.8 L171.6 30.7 L171.9 38.1 L173.5 40.6 L174.3 40 L173.9 40.9 L175.1 43.6 L174.5 46.7 L175.9 48.1 L175.7 49.9 L178.2 51.8 L178.9 51.2 L179.4 52.4 L180.6 52.4 L180.5 51.8 L181.7 54.4 L182.3 53.8 L184.8 56.2 L185.5 55.5 L186.6 56.5 L187.1 57.8 L186.1 57.3 L185.9 58 L189.6 62.8 L190.3 67.3 L191 66.8 L191.9 68.1 L191.4 66.3 L192 65.6 L194.4 67.9 L194 67 L194.7 66.7 L195.3 72.3 L198.4 75.1 L199.4 74.7 L200.9 77.5 L202.4 78.5 L202.8 80.4 L204.3 80.9 L204.8 84.2 L205 83.5 L205.6 84 L205 85.7 L205.6 89.6 L204.9 90.2 L206.6 93 L207.4 97.6 L204.6 107.3 L205 109 L202.7 113.7 L202.7 115.6 L199.5 117.8 L197.9 120.9 L197 121 L197.3 123 L195.2 125.9 L195.4 128.4 L194.7 128.2 L195.1 128.8 L193.8 129.5 L192.1 133.2 L191.2 138.2 L192 139.1 L191.7 140.2 L190.5 140.3 L189.5 141.6 L182 142.5 L178.1 145.9 L175.5 146 L175.7 147 L176.5 146.5 L176.2 148.2 L175.2 146.8 L174.1 147 L173.5 145.7 L171.7 145.2 L172.5 144.5 L172.1 143.7 L169.9 145.1 L168.8 144.3 L170.1 144.3 L170.7 143.4 L170 142 L167.4 143.2 L168.9 143.3 L168.6 144 L163.9 146.8 L159.4 144.4 L156 143.9 L154.6 144.6 L153.8 143.4 L150.3 142.3 L147.5 138.8 L147.4 134.7 L143.9 130.8 L147.1 134 L144.4 131 L144.9 130.5 L145.7 131.4 L145.7 129.8 L140.4 131.1 L141.8 129.7 L142.3 126.9 L140.2 123.8 L138.8 128.7 L135 129.5 L135.6 127.6 L137.4 127.8 L137.5 123.9 L139.6 121.3 L139.1 119.5 L140.1 118.7 L138.9 116 L138.9 118.3 L137.5 119 L136.7 121.3 L135.3 121.6 L132.8 123.6 L131.7 125.8 L131 125.7 L130.4 127.2 L131.3 126.8 L131.1 128.1 L127.4 126.1 L127.9 125.3 L129.1 126.2 L128.1 123.2 L126.3 121.4 L125.7 119.2 L124.1 119.3 L122.9 118 L122.9 116.9 L123.6 117.4 L123.9 116.8 L123.3 115.7 L122 116.1 L122.4 115.3 L121 113.9 L119.4 114.5 L117.3 113.2 L114.8 113.6 L112 111.6 Z"/>
  <path d="M183.1 168 L181.5 167.2 L181.7 166.6 L182.6 167.1 L182.4 166.4 L181 166.1 L180.6 167.1 L180 165.8 L179.9 168.2 L178.6 167.6 L179.2 168.4 L178.5 169.9 L176.9 169.2 L174.6 169.6 L174.2 168.7 L175.5 168.5 L173.7 168.3 L171.3 165 L171 163 L172.1 164.5 L172.5 163.7 L171.1 163 L169.1 159.3 L168.8 155.5 L177 158.1 L183 155.9 L184 156.4 L184.7 163 L183.9 161.7 L182.9 163.7 L182.4 166.3 L183.1 166.4 L183.1 168 Z"/>
  </g>
</svg>
