<svg xmlns="http://www.w3.org/2000/svg" viewBox="0 0 240 180">
  <g fill="#17324a" stroke="#fffaf3" stroke-width="3.2" stroke-linejoin="round" stroke-linecap="round">
  <path d="M29.8 37.4 L33.1 34.7 L38.4 30.4 L45.9 31.1 L46.4 31.6 L47.6 32.7 L55.7 35.4 L53.7 37.2 L58.4 41.2 L63.6 43 L65.3 43.2 L69.4 41.6 L72 41.6 L77 45.9 L82 48.7 L82.9 46.8 L85.7 46.4 L86.2 45.8 L86.4 45.5 L88.7 37.7 L85.3 33.7 L75.6 28.1 L73.5 22.6 L72.3 23.6 L71.4 22.8 L70.9 20.8 L70.9 18.4 L71.3 16.9 L76.1 15.7 L79.7 10 L83.7 10.7 L84.5 14.7 L90.6 11.8 L91.5 15.2 L93.8 17.3 L94.4 17.7 L96.2 18.1 L100.6 25.3 L103.4 24.7 L104 24.8 L104.6 25.5 L108 31.7 L108.1 32.8 L108 35.2 L108.4 36.3 L109 36.9 L112.8 38.9 L116.4 39.2 L117.1 39.5 L118.1 40.8 L118.8 41.3 L122.1 40.3 L123.9 41.3 L125 41.8 L128.6 41.7 L130.1 41.2 L130.9 40.7 L130.8 37.8 L132.6 34.8 L134.6 34.2 L135.8 30.9 L136.5 29.6 L137.6 28.9 L141.6 28.2 L148.3 23.3 L149 22 L150.5 18.1 L154.8 12.1 L157.5 14.1 L166.2 26.8 L171 31.8 L174.3 38.2 L176.4 48.1 L178.1 50.9 L182.9 56.8 L188.4 60.4 L187.4 64 L188.4 66.6 L194.9 69.9 L196.6 70.1 L198.1 70.6 L206.3 69.7 L208.3 72.4 L209.1 72.8 L212.2 73.4 L216.8 78.8 L218.1 86.4 L217.4 85.1 L216.7 83.9 L213.4 81.1 L208.6 80.1 L204 81.6 L200.8 79.6 L200.1 80 L198.9 81 L199.2 82.1 L198.2 83.1 L189.7 86.6 L186.8 89.4 L186.9 92.1 L185 92.9 L184.7 93.6 L186.5 97 L184.4 99.4 L185.1 102.3 L183.4 106.4 L184.4 109.8 L181.3 112.6 L179.5 118.3 L179.6 119.6 L179.9 120.4 L183.9 124.5 L183.8 127.4 L182.4 126.2 L183.8 129 L180.3 126.4 L179.1 126.8 L178.2 128 L177.8 129.5 L177.9 134.5 L176.7 140.7 L172.3 143.9 L171.5 141.9 L173.9 140.9 L174.7 138.4 L174.3 137.5 L173.6 137.2 L172 137.1 L171 133.8 L168.4 133.8 L167.3 136.5 L167.9 140.8 L167.8 141.9 L166.8 145.2 L164.9 148.4 L163.7 148.1 L164.8 153.3 L165 160.4 L165.2 168.1 L161.8 167.6 L158.5 169.8 L157.6 170 L156 169.9 L150.2 162.5 L149.1 159.7 L145.4 160.5 L142.6 157.7 L142.4 155 L141.9 154.6 L137.3 152.2 L135 150.4 L134.3 149.1 L134.3 147.2 L136.6 144.6 L143.1 143.4 L144.9 142 L145.3 140.1 L145.1 139.6 L144.1 137.3 L139.6 133.9 L138.7 132.7 L138.2 131.5 L138.3 129.9 L138.9 128.6 L140 127.6 L146.4 124.9 L145.7 123.2 L144.7 121.9 L133.6 110 L128.4 111.1 L118.5 118.7 L113.8 120.4 L109.8 124.9 L103.2 128.1 L100.1 133.7 L98 134.9 L94.9 134.6 L90.7 140.4 L87.5 142.5 L85.6 145.9 L82.6 147.6 L81.2 143.9 L81.9 138.5 L81.4 137 L78.5 134.7 L78.5 133.3 L79.3 132.5 L80.5 132.7 L82.6 133.8 L85.6 131.9 L82.8 129.5 L82 127.4 L77.8 124.9 L77.3 123.5 L77.7 122.3 L78.8 121.6 L81.8 120.9 L83 116.8 L81.4 115.7 L79.2 116 L78.5 115.8 L76.7 113.9 L71.1 115.1 L69.3 112.4 L66.2 110.8 L64.9 108 L63.9 107.1 L59.8 105.4 L58.2 103.8 L55.7 99.2 L49.9 97.8 L49.9 97.2 L49.8 96.8 L52 95.3 L57.8 96.3 L60.2 96 L60.7 95.6 L63.4 90 L64 86.5 L62.5 84.6 L59.8 84.5 L48.1 76.3 L45.2 70.6 L43.2 68.6 L42.7 65.6 L43.6 64 L45 62.9 L46.4 62.3 L49.1 61 L50.6 57 L48.5 56.4 L44.2 52.5 L44.6 51 L44.3 49.9 L40.6 50.9 L39.1 50.3 L37.4 50.1 L33.9 47.1 L33.8 47.9 L33.6 48.5 L32.9 48.4 L32.1 47.9 L31.7 47.1 L32.1 45.7 L35.5 45.8 L36.7 44.9 L36.7 44.2 L36.2 43.6 L34.4 42.1 L30.9 41.7 L30.7 41.1 L31.1 40.2 L29.8 37.4 Z M47.6 68.9 L48.8 68 L49.3 66.8 L48.4 66.3 L46.2 67.2 L46.4 68.6 L47.6 68.9 Z"/>
  <path d="M69.4 148.5 L54.8 144.3 L48.4 143.7 L45 142 L44.9 139.8 L43.5 138.9 L40.6 133 L35 132.5 L32.8 126.2 L28.2 122.3 L25.7 114.5 L25.2 113.6 L23 113.1 L21.8 110.1 L27.1 109.1 L30.9 107 L35 111.7 L34.9 115.9 L35.6 116.3 L36.8 116 L37.8 115.1 L38.8 114.8 L40.6 117.8 L41.1 118 L42.8 118.2 L44.9 119.9 L54.5 116.2 L57.2 117.1 L57.8 121.7 L56.2 125.3 L64.2 130.8 L63.1 132.9 L62.9 134.1 L63.2 135.3 L69.4 148.5 Z"/>
  </g>
</svg>
