<svg xmlns="http://www.w3.org/2000/svg" viewBox="0 0 240 180">
  <g fill="#17324a" stroke="#fffaf3" stroke-width="3.2" stroke-linejoin="round" stroke-linecap="round">
  <path d="M63.4 70.4 L64.4 69 L64.9 70.4 L63.9 72.1 L65.9 71.3 L66.2 73.1 L66.4 71.6 L67.1 72 L65.6 68.2 L65.6 70 L64.6 68.7 L67.8 63.4 L67.4 62.5 L68.2 61.3 L66.8 56.4 L67.1 55.8 L69.4 57 L70.9 56.4 L72.6 57.6 L72.3 60.9 L73.6 61.9 L75.1 65.6 L76.1 67.2 L78.4 69.3 L78.6 75.3 L75.3 76.8 L75.1 77.9 L72.6 78.8 L71.3 80.6 L70 77.8 L69.5 77.5 L68.7 77.1 L68.6 76.4 L68.7 74.5 L66.5 75.5 L61.5 71.9 L61.2 71.3 L63.4 70.4 Z"/>
  <path d="M177.8 166 L177.3 164.6 L179.1 164.7 L181 162.7 L183.3 162.4 L184.1 161.5 L185.2 163.3 L185.8 163.6 L187.3 164.1 L189.6 163.2 L192.3 158.9 L192.7 158.6 L193.3 158.8 L192.7 163.5 L189.9 168.1 L181.6 169.7 L178.6 169.1 L177.7 170 L176.5 167 L177.8 166 Z"/>
  <path d="M83.5 89.7 L83.7 91.5 L82.4 92.4 L83 93.5 L82.5 94.8 L80.1 94.2 L80.1 95.3 L77.4 94.6 L78.2 94.2 L78.1 93.8 L78.6 93.8 L79.9 94.2 L82.3 91.9 L78.8 93.6 L78.2 92.8 L77.7 92.6 L80.2 91 L76.9 91.7 L75.4 86.2 L74.9 85.9 L73.4 85.3 L75.9 82.4 L79.9 79.8 L81 81.3 L77.9 83.3 L79.2 84.9 L78.2 86.9 L78.7 87.1 L79.1 86.7 L81.5 82.1 L82.8 84.1 L83.5 88.4 L81.7 90.4 L83.5 89.7 Z"/>
  <path d="M76.6 10.6 L73 10.8 L77.5 10 L82.8 10.8 L88.8 16.2 L89.4 16.3 L90.2 16.4 L88.9 16.8 L89.2 17.5 L89.7 18.1 L94.9 20.6 L95.9 26.4 L94.2 26.5 L92.3 28.2 L91.7 36.9 L90.8 37.7 L88.6 34.9 L86.9 34.5 L86.4 33.9 L90.9 30.8 L90 29 L90.7 27.8 L90.2 26.4 L91 25.2 L90.7 22.8 L92.4 19.7 L88.3 18.6 L87.3 16.1 L85.9 16.2 L83.3 11.7 L76.6 10.6 Z"/>
  <path d="M57.6 20.4 L56 21.5 L53.3 21.2 L47.7 16 L52.4 19.3 L54.6 19.5 L58 16.5 L56.4 15.7 L57.6 13.1 L59.3 15.3 L65 16.5 L65.3 16 L65.8 15.7 L66.6 16.1 L67.1 16.2 L72.7 15.3 L74 14 L74.4 17.1 L74.2 17.5 L73.7 17.7 L72.6 17.1 L64.9 18.2 L57.6 20.4 Z"/>
  <path d="M116.7 56.9 L117.9 58.2 L116.8 62.3 L116.7 70.7 L115.9 70.4 L114.9 67.8 L112.4 66.2 L115.4 66.3 L116.2 65.3 L116.3 64.1 L115.6 64.9 L115.5 64.6 L115.5 63.9 L116.9 61.1 L116.6 57.8 L111.6 52.7 L110.7 52.4 L108.7 51.9 L107.7 51.4 L106.2 50 L101.5 49.9 L102.7 46.3 L104.2 46.5 L103.9 48.3 L104.2 47.8 L108.5 51.4 L112.5 52.6 L116.7 56.9 Z"/>
  <path d="M169.3 123.6 L169.2 123.4 L168.8 122.9 L169.6 123.1 L169.8 123.2 L170.8 122.5 L170.3 121.9 L172.9 121.7 L172.2 123.2 L171.7 122.5 L173.3 126.7 L172.5 128.3 L168.9 132.3 L166.3 133.2 L162.5 136.5 L162.6 135.1 L164.8 134.3 L164.8 133 L166.6 132.3 L167.2 130.7 L172.1 127.7 L172.4 126.8 L172 125.8 L168.5 124.5 L169.3 123.6 Z"/>
  <path d="M148.3 115 L149 116.8 L148.5 118.1 L145.5 112.5 L145.2 112.4 L142.4 111.8 L139.3 109.9 L140 109 L140.8 110.5 L143.3 111.4 L141.5 109.1 L142.2 107 L141.7 105 L139.4 102.6 L138.2 99 L137.3 99.1 L137.3 97.3 L136.4 97.9 L136.9 96.2 L140 100.3 L143.5 110.7 L147.1 112.7 L148.7 114.5 L148.3 115 Z"/>
  <path d="M137.3 82.1 L137.5 82.5 L137.9 84 L132.5 84.1 L134.8 82.2 L135.1 81.5 L135 80.6 L133.2 79.7 L130.6 74.2 L130 73.9 L129.2 73.8 L129.1 72.2 L126.5 70.3 L127.1 69.3 L129.7 70.7 L129.9 72.4 L130 72.9 L132 76.1 L137.3 82.1 Z"/>
  <path d="M190.2 131.4 L189.7 131.3 L189.5 131.1 L190.3 128.9 L198.1 130.9 L199.7 132.3 L198.9 133.4 L196.5 131.5 L193.8 131.2 L191.8 132 L190.2 131.4 Z"/>
  <path d="M162.3 121.6 L160.7 119.2 L161.7 118.6 L165.6 121.4 L168.8 121.9 L167 123.6 L166.7 122.8 L163.2 121.9 L162.3 122.6 L162.3 121.6 Z"/>
  <path d="M84.6 61.5 L82.6 60.8 L84 59.6 L88 59.1 L89.9 59.7 L84.6 61.5 Z"/>
  <path d="M125.5 100.2 L128.9 102.4 L128.5 102.8 L127.9 102.7 L126.9 102.1 L125.6 102 L121.9 98.8 L120.9 98.5 L119.7 98.6 L120.5 98.1 L119.8 96.7 L120.9 96.2 L122.8 97.3 L125.5 100.2 Z"/>
  <path d="M157.8 87.3 L157.3 88.9 L155.7 89.1 L155.7 88.9 L156.4 85.2 L158.1 84.1 L158.9 85.7 L157.8 87.3 Z"/>
  <path d="M193.6 155.7 L192.3 156.4 L191.7 154.2 L193.8 152.7 L195.7 154.2 L193.6 155.7 Z"/>
  <path d="M147.4 95.7 L150.3 95.9 L148.9 97.2 L146.3 97 L146.3 96.4 L146.4 96 L146.8 95.8 L147.4 95.7 Z"/>
  <path d="M74.9 82.9 L72.9 83.8 L72.6 82.7 L76.9 81.1 L75.5 81.6 L74.9 82.9 Z"/>
  <path d="M162.3 123.2 L162.2 124 L161.5 125.1 L160.6 126.1 L159.9 126.7 L160.1 125.5 L160.8 124.8 L161.7 124.1 L162.3 123.2 Z"/>
  <path d="M177.4 112.1 L175.2 112.5 L174.2 112.5 L173.7 111.7 L175.5 111.9 L176.9 111.8 L177.4 111.9 L177.4 112.1 Z"/>
  <path d="M112.7 88.6 L112.3 88.2 L111.9 87.3 L111.5 86.6 L111.2 85.9 L110.9 85.4 L110.9 85.1 L110.9 84.8 L111.5 85.2 L112.9 88.4 L112.7 88.6 Z"/>
  <path d="M129 102.3 L129.9 102.3 L130.9 102.6 L131.8 103.1 L132.2 103.7 L131.3 103.4 L130.3 103.2 L129.4 102.9 L129 102.3 Z"/>
  <path d="M77.6 79.2 L76.7 79.2 L78.3 78.1 L79.7 78.5 L77.6 79.2 Z"/>
  <path d="M73.9 80.9 L73.5 81.8 L71.6 81.3 L73.9 80.9 Z"/>
  <path d="M41.6 40.7 L41.7 41.8 L41.2 41 L40.5 42.1 L41.4 42.7 L40.4 42.7 L41.6 40.7 Z"/>
  <path d="M76.4 42.5 L76.1 42.4 L75.8 42.1 L75.4 41.4 L74.9 40.8 L74.7 40.5 L74.9 40.3 L75.2 40.3 L75.4 40.6 L76.3 42.2 L76.4 42.5 Z"/>
  <path d="M109.4 82.2 L107.4 80 L109.4 82.2 Z"/>
  <path d="M75.5 18.7 L75.2 19.7 L74.6 18.7 L75.5 18.7 Z"/>
  <path d="M83.2 26.5 L83.1 26.7 L82.4 27.5 L82.5 27 L82.4 26.6 L82.2 26.2 L82.2 25.7 L82.4 25.8 L83.1 26.4 L83.2 26.5 Z"/>
  <path d="M182.2 125.4 L182 125.5 L181 125.2 L180.5 125 L180 124.9 L180 124.8 L180.4 124.7 L180.8 124.7 L181.4 124.8 L181.9 125.1 L182.2 125.4 Z"/>
  <path d="M90.4 22 L90.1 23 L89.5 22.3 L90.4 22 Z"/>
  <path d="M75.2 78.7 L75.9 78.6 L76.1 78.6 L76 78.8 L75.7 79.2 L75.2 79.4 L74.8 79.2 L74.8 78.8 L75.2 78.7 Z"/>
  </g>
</svg>
