<svg xmlns="http://www.w3.org/2000/svg" viewBox="0 0 240 180">
  <g fill="#17324a" stroke="#fffaf3" stroke-width="3.2" stroke-linejoin="round" stroke-linecap="round">
  <path d="M175.9 136.3 L176.2 149.4 L177.3 155.2 L175.7 156.2 L174.6 153.1 L171.2 152.7 L169.6 150.3 L167.4 151.6 L166 154.7 L166 158.6 L168.1 161.2 L168 164.5 L169.6 170 L166.2 162.7 L162.8 158.7 L162.7 154.8 L160.5 151.4 L160.4 150.9 L160.3 150.4 L162 149.5 L161.3 147.6 L162.3 143.7 L161.1 145.2 L161.1 143.7 L161 143.7 L160.8 144.2 L160.3 143.4 L161.3 141.3 L159 141.4 L160.3 138.9 L159.4 139.4 L158.1 131.6 L157.5 132.5 L156.8 130.1 L157.5 129 L156.8 127.4 L158.4 126.6 L158.7 126.1 L159.2 124.2 L156.3 127.5 L157.2 129 L156.8 129.3 L156.2 129.2 L153.5 121.2 L148.1 115 L148.8 111.1 L147 115.2 L145.3 114.6 L145.6 115.5 L145.2 115.6 L143.9 115.6 L144.9 116.1 L144.1 116.9 L141.2 116 L141.6 116.7 L140.8 117.1 L143.2 118.3 L141.7 120.9 L138.8 120.9 L137.1 117.1 L137.6 119.7 L135.2 119.8 L131.5 115.6 L129.6 110.1 L127.3 106.5 L128.3 101.2 L128.2 99.8 L126.9 99.2 L126.7 96.3 L126.9 95.7 L127.5 95.3 L128.9 95.3 L129.5 95 L129.5 94 L128.6 93.4 L129 94.7 L126.7 95.1 L127 92 L125.4 93.2 L123.6 92.7 L126.1 93.9 L125.5 98.1 L117.9 96.1 L122.4 99.7 L125.9 100.5 L126.9 102.2 L126 106.3 L125.6 105.5 L122.9 107 L125.2 111.3 L123.6 111.7 L121.9 114.1 L122.3 114.5 L122.2 114.8 L121 115 L123.7 115.7 L124.4 118.1 L122.7 122.3 L123.2 120.4 L124.3 119.8 L124.8 119.9 L125.7 120.4 L126.8 123 L127 127.1 L126.2 129.2 L125.6 130.2 L124.2 130.9 L122.9 133.5 L121.9 133.4 L121.5 127.9 L122 130.9 L119.4 136.1 L118.8 139.2 L115.8 141 L114 140.3 L114.9 137.6 L113.4 139.7 L112.3 139.4 L112.5 138.7 L112.6 137.2 L115.8 132.6 L117.1 132.4 L117.6 130.3 L117.2 131.5 L116.9 132.1 L115.4 132.7 L112.7 136.1 L112.4 136 L111.6 135.7 L113.7 131.2 L113 131.5 L111.3 134.5 L111.4 135.7 L111.3 136.1 L110.9 136.4 L110.5 136.2 L108.6 128.5 L112 122.4 L109.7 125.1 L109.3 124.9 L108.6 124.3 L107.7 128.4 L108.6 132.7 L108.5 133.2 L108.3 133.6 L106.7 133.8 L107.9 134.8 L108.9 138.4 L106.9 140.2 L104.9 140.4 L103.3 139.8 L102.9 137.7 L102.2 139.2 L104.3 141.6 L104 142.1 L103.5 142.5 L101.7 142.2 L101.4 143.8 L100.9 143.5 L100.2 142.4 L100 140.2 L100.9 138.9 L101.9 132.6 L100.9 130.2 L102.4 126.6 L100.5 130.1 L101.3 132.6 L100.1 136.1 L100.2 133.3 L98.7 127.7 L98.5 129.5 L98.7 132.9 L99.1 132 L99.7 133.5 L99 135.1 L99.8 136.7 L98.4 139.5 L98.4 141.7 L96.9 143.4 L96.7 143.4 L96 142.7 L96.5 138.4 L95.6 136.5 L95.8 138.4 L94.3 140.9 L93.9 140.5 L93.6 143.9 L93.7 144.2 L94.2 144.5 L92.1 145.1 L91.5 140.8 L90.7 141.5 L89.4 140.7 L88.3 133.9 L88.6 130.4 L87.1 127.9 L86.1 121.4 L85.8 121.1 L85 120.8 L85.6 120.4 L85.7 119.8 L84.5 115.6 L85.5 113 L82.8 109.2 L83.1 106.5 L85.8 103 L79.3 101.7 L79 101.1 L79 100.5 L81.1 95.2 L79.8 95.8 L75.4 91.2 L76.3 85.3 L78.2 84.9 L79.7 83.4 L80 80.3 L78.8 79.4 L78.8 77.1 L80.6 75.3 L80.3 73.5 L78.4 72.1 L77.2 73.4 L73.8 72.8 L64.7 67.7 L64 65 L62.5 63.8 L63.3 60.8 L65.4 58.4 L64.8 56.4 L67 55.6 L68 57.4 L70 57.5 L72.5 52.8 L72.9 49 L81.5 49.8 L82.4 48.8 L84.9 49.6 L85.1 47.9 L86.5 46.4 L82.9 45.1 L81.2 40.5 L80.4 40.2 L78.5 41.6 L75.1 40.5 L72.5 38 L72.4 36.4 L68.4 32.7 L65.1 33.1 L64.1 31.5 L63.8 29.5 L65.9 25.6 L66 23.1 L70.1 21.1 L70.3 19.3 L72.5 17.2 L74.3 17.4 L73.4 14.6 L70.7 13.8 L70.3 14.8 L70 14.7 L69.8 14.3 L71.5 10 L71.8 11.8 L78.3 15.7 L79.7 18 L78 19.4 L78.4 19.8 L80.6 19 L82.5 20.8 L83.7 19.4 L86.2 20.9 L87.3 20.6 L87.8 20.2 L87.7 19.7 L84.1 16.5 L85.4 15 L87.9 16.6 L89.4 18.1 L88.5 18.4 L89.8 23 L95.2 27 L96.6 26.5 L100.3 28 L102 25 L100.9 24.6 L101.9 23.7 L100.8 23.1 L102.1 22.5 L102.1 21 L102.6 20.8 L103.1 20.9 L103.2 22.6 L104.7 23 L105.6 26.1 L107.5 27.5 L106.5 28.3 L107.6 28.8 L106.3 32 L107.6 36.9 L106.6 44 L107.2 46.4 L109.4 46.1 L120.8 50.1 L130.1 49.5 L132.2 50.3 L142.5 48.7 L143.7 49.3 L147.4 50.4 L150.7 49.8 L152.5 50.8 L155.2 49.5 L162.4 49.2 L169.1 52.1 L173.6 56.1 L173.4 57.8 L172.5 58.1 L171 58.6 L168.8 57.1 L167.1 57.1 L167.4 59.8 L165.6 66.1 L164.3 67.3 L164.2 70.3 L163.7 71 L163.1 71.2 L162.4 71.3 L160.3 71.1 L160.8 72.7 L159 72.1 L158.5 77 L158.1 77.2 L157.6 77.1 L156.7 75.3 L156.5 75.3 L154.9 75 L154.9 76.9 L154.6 77.3 L154.1 77.4 L152.3 75.5 L151.1 78.7 L145.7 78.6 L145.1 81.5 L143.1 81.9 L142.9 82.3 L142 83.8 L141.5 88 L139.9 88.9 L141 90.3 L140.1 90.7 L140 91.4 L140.1 91.9 L143.8 98.9 L143.2 99.6 L144.4 105.8 L145 106.6 L145.9 106.8 L145.5 102.4 L146.4 101.4 L148.2 103.5 L149.7 108.6 L151.2 110 L154.2 108.6 L156.4 106.1 L155.1 101.1 L157 97.6 L160 95.1 L159.6 88.9 L162 91.1 L165.3 88.6 L166.4 90.9 L166.7 90.5 L167.1 89.3 L167.5 89 L168 89.3 L167.8 92 L170.2 98.9 L170.3 109.6 L173.9 116.8 L175.9 131.1 L174.9 132.2 L175.9 136.3 Z"/>
  <path d="M131.4 122.2 L132.5 123.2 L133 123.9 L132.5 126.5 L132.5 130.9 L132.3 131.6 L131 133.6 L127.8 135.9 L128.7 132.9 L127.3 135 L126.9 135.1 L126.8 134.5 L128.9 125.4 L127.8 120.8 L125.6 119.3 L126.1 115.1 L127.9 114.3 L131.4 122.2 Z"/>
  </g>
</svg>
