<svg xmlns="http://www.w3.org/2000/svg" viewBox="0 0 240 180">
  <g fill="#17324a" stroke="#fffaf3" stroke-width="3.2" stroke-linejoin="round" stroke-linecap="round">
  <path d="M180.3 110.4 L178.7 129.2 L165 143.3 L154.4 150.7 L148.2 155.1 L136.8 166.6 L126 167.7 L122.4 170 L117.1 161 L107.3 155.4 L95.4 152.5 L88.3 152 L84.1 151.7 L77 146.7 L70.8 134.7 L64 110.4 L59.7 37 L60.7 28.5 L64.5 21.4 L72 13.6 L81.6 10 L91.4 15.3 L98.7 26.4 L115.1 62 L122.1 71.7 L131.9 79.3 L145.9 90 L153.9 94.6 L164.3 98 L174.1 102.5 L180.3 110.4 Z"/>
  </g>
</svg>
