<svg xmlns="http://www.w3.org/2000/svg" viewBox="0 0 240 180">
  <g fill="#17324a" stroke="#fffaf3" stroke-width="3.2" stroke-linejoin="round" stroke-linecap="round">
  <path d="M36.5 160.8 L35.1 156.2 L35.6 153.3 L36.8 152.1 L36.3 150.2 L37.9 145.3 L37.1 142.4 L34.7 141.1 L34.3 139.2 L32.4 139.2 L32.5 138.6 L28.5 137.3 L28.1 135.7 L32.4 128.6 L41.6 123.4 L42.4 122.4 L42.6 121 L42.4 112.2 L41.4 110.4 L42.1 107.7 L39.9 103.8 L36.2 92.8 L34.2 82.1 L37.2 83.4 L42.6 81.8 L45 82.4 L47.4 81.5 L49.1 83.6 L51.4 83.8 L56.9 80.3 L57.7 81.3 L59.6 80.9 L59.2 77 L59.9 75.7 L64.7 75.8 L65.6 75.3 L66.4 74.4 L67.3 71.8 L70.5 72.1 L72.2 70.4 L74 72.6 L73 72.9 L73.3 75.4 L77.6 75.4 L78.6 72.4 L76.8 69.7 L74.2 70.3 L73.8 70.1 L73.5 69.7 L75.2 66.4 L75.5 63.6 L77.6 61.6 L77.2 55.2 L78.4 53.7 L78.4 51.8 L80.1 49.6 L85.3 48.6 L87.7 43.1 L91.7 42.9 L93.8 43.8 L94.2 43.7 L94.9 41 L98 38.7 L97.8 38.2 L97.4 37.8 L91.3 37 L94.3 28.4 L94.5 25.2 L98.4 24.7 L101.5 20.7 L104.8 20.5 L106.9 22 L108.6 20.6 L109.1 21.1 L109.7 21.5 L113.3 21.8 L114.3 17.6 L116.2 16.4 L119.7 11.5 L122.4 10.3 L123.2 10 L124 10.5 L127.1 13.7 L128.6 12.2 L132.9 12.2 L134.7 16.4 L135.2 16.8 L136.7 17.2 L140.9 14.3 L148 16.8 L148.9 18.1 L147.7 19 L147.1 22.7 L149.6 25.5 L153.5 22.6 L155.9 22.5 L157.8 20.2 L161.6 20.9 L163.5 19.7 L168.6 21.8 L168.6 22.8 L170.8 24 L171.1 26 L173 26.4 L173.9 28.3 L176.7 28.1 L177.3 35 L174.9 38.3 L178.1 42.3 L179 46.9 L177.2 46.8 L177.3 49.1 L175.3 49.9 L174.4 54.6 L178.5 57.2 L178.8 57.7 L178.8 58.3 L179.3 58.2 L180.9 58.4 L181.3 59.3 L182.1 59.9 L180.1 64.1 L182.9 65.6 L185.1 72.7 L188.1 75 L188.6 75.4 L192.8 76.9 L193.7 78.5 L194.7 78.4 L195 81.3 L193.2 86.8 L194 86.8 L195.7 87.4 L199.7 86.3 L207 89.6 L207.5 90.9 L207.3 91.1 L205.9 91.8 L206 93.7 L209.3 96.9 L210.3 96.6 L210.5 97.7 L211.6 97.6 L211.9 101.7 L206.9 102.9 L206.3 106 L200.4 110 L194.2 109 L193.4 106.6 L190.7 105.8 L186.1 106.7 L185.7 110 L183.6 112.2 L189.6 119.5 L189.8 120.2 L189.8 121.6 L189.4 122.2 L188.1 122.9 L190.9 127.3 L189.6 127.6 L189.4 128.5 L190.6 133 L189.8 135 L192.3 137 L192 138.6 L193.3 139.8 L193.6 141.9 L186.2 141.3 L183.3 143.9 L180.7 142.5 L177.3 143.2 L177.7 145.3 L176.7 145.3 L174.8 148.4 L173.9 148.5 L169.5 158 L169.7 159.4 L170.8 160 L170.4 160.7 L171.5 162.5 L170.8 163.4 L172 165.5 L170.2 169.9 L166.4 167.7 L165.8 164.6 L162.5 161.9 L157.4 162.5 L156.3 163.7 L152.6 161.7 L150.1 163.4 L149.3 165.1 L148.9 165.1 L148.1 164.8 L146.5 165.8 L143.2 157.6 L141.6 157.1 L140 159.1 L136.5 160.3 L135.1 164.6 L134.7 163.3 L133.6 163.4 L133.4 163 L133.2 162.6 L132.7 159.6 L132.2 159.4 L130.5 159 L127.5 160.5 L125.1 156.5 L122.5 159.5 L120.6 159.5 L120.2 159.4 L117.9 157.7 L117.1 160.8 L115.6 162.6 L114.6 161.6 L115.2 158.5 L111.7 157.4 L107 158.5 L107.2 156.5 L105.5 156.1 L104.8 153 L99.1 153.3 L95.4 151.6 L91.2 151.5 L90.5 150 L86 149.8 L83.6 148.2 L82.2 148.3 L78.1 147.5 L70.1 147.7 L66.9 146.8 L66 146.8 L58 149 L51.6 149 L48.8 154.3 L46.6 155.9 L43.8 158.6 L39.3 156.7 L38.8 156.7 L37 157.2 L36.3 158 L36.5 160.8 Z"/>
  </g>
</svg>
