<svg xmlns="http://www.w3.org/2000/svg" viewBox="0 0 240 180">
  <g fill="#17324a" stroke="#fffaf3" stroke-width="3.2" stroke-linejoin="round" stroke-linecap="round">
  <path d="M22 42.7 L52.7 23.3 L64.1 19.7 L64.3 26.6 L65 28.6 L67.8 30.6 L69.4 30.8 L71.8 30.5 L72.5 27.2 L77.3 26.5 L78.6 26.7 L84.9 28.7 L85.8 29.3 L86.1 32.1 L86.8 33 L87.5 33.3 L93.5 33.2 L105.8 25.9 L107.8 23.2 L108.5 20.3 L112.6 26 L112.3 28.3 L114 26 L112.3 25.3 L111.9 25 L111.6 21.7 L111.2 21 L110.5 20.1 L114.8 21.5 L117.2 21.7 L118.1 21.2 L118.4 19.8 L116.5 16.9 L117 14.9 L116.4 14.3 L123.3 11.5 L123.9 11.6 L124.3 12.3 L123.7 15.4 L124.7 16.1 L129.3 16.2 L134.4 10.8 L136.1 10 L138.6 11 L139.1 11.6 L139.2 12.9 L139 16.6 L136.8 15.6 L136.3 15.7 L136 16.6 L143.5 18.3 L144.6 18 L145.9 16.8 L148.7 11.8 L151.1 12.7 L152.1 14.6 L151.5 19.7 L153.3 21.6 L154.3 24.6 L158.1 25 L159 26.1 L159 29 L167.9 29 L172.1 26.6 L173.2 26.8 L174.4 27.5 L175.3 28.7 L175.7 30.3 L175.8 32.1 L176.1 32.3 L177 33.1 L179.9 33.9 L181.6 35.4 L185.2 35 L187.8 37.5 L189.4 37.1 L190.2 37.2 L190.7 38.2 L190.8 38.6 L190.1 39.3 L189.9 40.2 L191.1 41.4 L189 42 L188.7 44.8 L187.3 45 L187.1 45.8 L186.9 46.9 L187.6 47.8 L186.8 49.7 L184.8 52.9 L186.9 52.9 L184.8 56.7 L179.7 61.5 L179.8 63.2 L180.7 64.5 L181.5 65.1 L183.7 66 L183.6 67 L183.1 68.8 L184 69.3 L184.6 69.4 L185.1 69.3 L186.3 67.8 L188.4 69.5 L198.7 69.7 L199.5 73 L203.1 72.6 L204 73.6 L207.1 78.3 L206.5 78.7 L207 79.9 L208.1 80.4 L211.6 80.5 L210.8 82.7 L207.1 86.2 L208 87.2 L207.6 87.9 L207.6 88.2 L208 88.4 L208.6 88.4 L208.2 89.1 L209.5 90.8 L212 90.1 L216.1 91.2 L215.5 91.7 L215.4 92.4 L216.8 95 L216.1 100.2 L218 104.4 L213.5 105.3 L213 106 L212.6 106.7 L212.5 107.5 L212.8 108.3 L206.9 111.8 L206.4 112.5 L207.3 115.1 L205.1 116.7 L204.9 120 L203.2 116.9 L200.9 117.8 L199.7 117.4 L198.8 115.6 L198.1 116.3 L197 116.4 L195.9 119.4 L192.4 121.9 L192 124.2 L190.7 125.8 L190.6 128.2 L188.9 129.4 L189.4 131.4 L186.9 133.9 L184.6 138.3 L184.4 139.1 L186.6 141 L185.3 140.8 L185.1 145.6 L187.7 147.8 L189 151.9 L191.3 152.5 L190.9 155.7 L193.1 158.1 L190.3 163 L191.1 163.5 L190.7 164.7 L189.5 166 L188.3 166.6 L187.7 166.5 L186.6 165.7 L184.2 167.1 L180.9 166.1 L178.7 168.5 L175.9 167.7 L172.4 170 L171.3 169.7 L171 166 L168.5 161.4 L165.4 159.6 L163.2 160.6 L163 158.4 L163.4 158.1 L163.7 157.8 L161.3 154.3 L156.7 154.6 L152.2 149.4 L150.4 148.9 L149.4 148.3 L147.5 146.4 L146.6 145.9 L140.8 146.7 L139.7 141.4 L141 136.6 L140.2 135.1 L137.8 134.1 L137.1 133 L137.3 131.7 L139.3 126.8 L139.3 124.5 L140.2 122.4 L140.5 122.3 L141.1 122.9 L141.6 118.5 L141.1 117.8 L139.5 118.2 L138.9 117.9 L138.7 116.7 L137.3 117.4 L131.9 122.9 L131.4 128.3 L130.1 130.9 L119.3 135.1 L119 134.9 L111.3 132.8 L108.2 133.3 L107.4 133.4 L106.8 133.2 L103.9 131.6 L104.2 127.6 L107.9 124.8 L106.4 119.5 L103.6 119.4 L105.2 112.6 L107.4 110.3 L107.6 109.5 L107.3 109 L105.5 107.8 L104.5 109.5 L103.6 109.1 L102.2 106.1 L97.4 102.1 L91.9 103.6 L89.1 102 L87 101.8 L84.7 101.9 L81.8 105.8 L80 104.1 L79.1 94 L78.3 92.5 L77.3 91.5 L71.7 90.7 L71.1 90.2 L71.6 89.4 L71.7 88.7 L71.3 88.3 L70.6 88.1 L64.7 90.5 L60.1 87.5 L58 77.2 L58.7 75.9 L58.2 74 L56 72.5 L52.9 67.3 L51.6 66.9 L47.6 68.2 L44.9 69 L40.6 73.9 L35.5 71.8 L30.7 65 L27 64.4 L25.3 62 L25.8 60.3 L24.8 56.8 L26.6 54.4 L26.4 52.8 L25.6 51.6 L23.8 49.6 L22 42.7 Z"/>
  </g>
</svg>
