<svg xmlns="http://www.w3.org/2000/svg" viewBox="0 0 240 180">
  <g fill="#17324a" stroke="#fffaf3" stroke-width="3.2" stroke-linejoin="round" stroke-linecap="round">
  <path d="M153.1 28.2 L152.6 28.8 L150.8 31.8 L149.9 35.3 L150.2 36 L154.8 42.5 L156.3 43.3 L157.2 48.6 L156.5 51.2 L158.9 53.9 L159.3 56.5 L157.6 61.5 L154.5 60.8 L152.5 64.7 L154.9 67.9 L153.5 70.2 L153 73.4 L151 76 L146.2 77.2 L146.4 81.1 L144.2 81.5 L144.1 82.8 L141.3 86.1 L141.8 90.5 L139.8 95.5 L139.2 95.9 L137.5 96.4 L132 96.5 L131.6 102.8 L130.8 103.5 L131.4 110.9 L130.2 115 L131.1 118.9 L129.5 126.7 L130.9 128.8 L130.8 134.5 L132.6 137.3 L132.5 138.8 L131.3 139.1 L131.8 145.5 L131.8 145.8 L131.1 147.2 L132.3 148.6 L130.6 150.2 L130.8 154.8 L132.1 156 L132.2 156.3 L132.3 157.5 L131 158.9 L130.3 166 L109.4 168.4 L102.7 170 L102.5 169.5 L103 169.2 L106.3 168.4 L106.8 168.4 L106.3 166.5 L105.8 164.5 L101.3 158 L102.2 156.2 L101.9 152.7 L100.4 149.9 L102.4 149.9 L102.8 149.7 L102.8 116.8 L102.2 114.2 L103.3 111 L102.3 108.6 L102.1 95.9 L97.7 90.6 L96.3 85.2 L95.8 85.4 L95.4 85.1 L95.3 72.2 L80.9 62.6 L81.3 54.1 L83.4 51.5 L84.3 46.4 L85.9 46.9 L85.6 45.1 L86.4 44.1 L89.8 45.5 L88.4 42.5 L90.9 41.9 L90.2 39.8 L90.8 38.8 L93.7 39.8 L93.8 38 L95.3 38.7 L95.5 36.7 L97 35.9 L96.8 35.3 L96.8 35.1 L98.1 33.9 L101.4 34.5 L102.2 36.1 L109 34.6 L112 35.5 L119.4 29.3 L122.3 23 L122.1 21.7 L124.1 20.4 L121.9 16.7 L121.6 15.3 L121.6 14.7 L121.8 14.2 L122.4 13.9 L129.6 12.7 L130.3 11.3 L133.9 10 L144.4 19.8 L145.7 22.9 L150.6 24.5 L153.1 28.2 Z"/>
  </g>
</svg>
