<svg xmlns="http://www.w3.org/2000/svg" viewBox="0 0 240 180">
  <g fill="#17324a" stroke="#fffaf3" stroke-width="3.2" stroke-linejoin="round" stroke-linecap="round">
  <path d="M124.3 49.7 L130.9 50.2 L136.9 48.4 L144.8 51.6 L148.9 51.8 L152.8 52.7 L156.1 55.5 L157.1 56.4 L159.3 57.5 L162.1 57.8 L164.7 57.2 L171.4 49.9 L176.3 49.7 L177.7 48.3 L179 50.9 L181 52.8 L186.1 55.5 L196.6 57.7 L200.5 59.5 L201.4 61.2 L199.8 66 L195.6 66.1 L195.8 68.3 L198.3 69.1 L200.3 71.1 L200.3 73.8 L199.7 76 L196.7 80.3 L196.2 83.2 L197.7 88.6 L201.7 93.6 L206.3 95 L217.7 95 L221.8 94.3 L222.6 94.1 L225.7 95.9 L229.7 106.5 L230 107.4 L226.6 111.5 L226 114.2 L223.9 117.3 L223.4 121.3 L224.2 123.7 L227.4 127 L228.6 129.3 L228.6 129.3 L229.7 133.6 L229.4 134.7 L229 137.2 L226.5 139.7 L222.6 140.3 L221.4 139.7 L219.3 137.9 L218.2 137.4 L217.2 137.7 L217.3 138.7 L217.3 139.8 L215.9 140.4 L216.7 141.4 L216.8 142.7 L216.2 143.5 L215.2 143.4 L214 140.1 L212.7 139.4 L204.7 143.5 L201.5 143.9 L200.5 143.8 L197.6 142.9 L192.8 143.9 L189.8 138.9 L188.9 138.6 L186.2 138.4 L185.3 138.6 L184.1 139.4 L182.2 143.3 L178.1 145.6 L171.7 143.5 L162.7 143.4 L159.5 144.9 L159.2 145 L155 145.3 L140.2 146.2 L131.7 145.2 L124.3 141.3 L118.2 136.9 L116 136.6 L111.8 139.5 L107 139.9 L104.8 141.4 L103.2 145.8 L101.5 147.3 L87.4 149.9 L82.4 148.8 L81 151.4 L76.1 150.9 L72.6 149.3 L67.6 150.2 L66.8 149.6 L67.9 147.5 L67.7 146.2 L66.1 144.9 L63.5 143.9 L60.8 143.4 L56.7 143.9 L50.1 139.7 L45.6 140.5 L41.6 142.8 L34 142.1 L31.7 137.7 L30.6 136.5 L29.1 135.4 L27.5 134.7 L24.7 135.4 L23.9 135.3 L23.2 134.9 L21.6 130.3 L20.2 130.5 L19 131.6 L18 133 L17.3 123.4 L16.4 121.7 L10 117.8 L10.5 115.7 L11.6 113.2 L13 111.2 L14.7 110 L20.1 107.8 L20.6 105.6 L22.1 104.5 L24.5 104.7 L25.8 105.9 L27.5 104.5 L24.5 97 L24.9 95.2 L25.5 93.6 L26.6 92.6 L26.3 89.8 L31 84 L31.9 83.5 L33.7 82.7 L35.8 83.5 L40.7 75 L41.9 72 L42.4 69.3 L49.7 64.8 L57.7 51.6 L61.4 49 L64.5 45.1 L77.2 41.5 L78.4 39.4 L78.8 38.2 L84.2 33.2 L87.7 31.8 L90.1 32.3 L97.8 29.6 L101.3 30.3 L103.2 31.3 L108 28.6 L110.3 30.3 L110.3 33 L112.3 35.8 L114.8 36.2 L116.4 33 L118.5 33 L120.5 34.2 L123.1 34.2 L126.3 36.6 L129.1 36.9 L131.7 37.9 L132.3 40.3 L130.4 41 L129.1 43.4 L126.9 43.7 L125 45.9 L124.3 49.7 Z"/>
  </g>
</svg>
