<svg xmlns="http://www.w3.org/2000/svg" viewBox="0 0 240 180">
  <g fill="#17324a" stroke="#fffaf3" stroke-width="3.2" stroke-linejoin="round" stroke-linecap="round">
  <path d="M50.9 104.7 L50.8 103.1 L49.1 102.1 L49.6 100.9 L51.9 99.7 L54.7 95.3 L56.8 94.2 L56.5 92 L58.8 90.5 L57.1 89 L54.7 88.9 L51.9 82 L53.5 78.6 L55.1 77.4 L52.4 74.2 L52.5 72.2 L53.8 71.4 L54.1 69.2 L54.9 69.3 L55 68.3 L57 66.9 L56.7 65.3 L58.4 64.6 L55.7 58.3 L57.2 56.3 L57.1 48.6 L59.6 46.7 L59.2 45.8 L60.5 44.1 L50.1 25.4 L59.1 25.9 L59.5 27.7 L59.7 27.7 L61.3 27.3 L65.1 25.7 L68 21.9 L71.7 22.4 L73.1 20.1 L76.3 17.7 L79.4 17 L84.4 12.7 L94 11.3 L94.2 10.6 L96.6 11.9 L98.5 10 L99.9 12 L100 16.3 L98.1 19.5 L98.6 23.6 L99.9 25.6 L98.8 29.3 L99.6 31.7 L101.4 33.4 L101.1 35 L102 34.3 L102.6 35.1 L103.2 37.9 L105.6 38.4 L106.5 39.9 L106.9 39.3 L107.2 40.3 L109.3 41 L109.3 42.7 L111.6 44.1 L115.9 44.7 L117.1 43.6 L117.3 43.6 L118.9 43.8 L122.9 46.6 L125.7 46 L126.7 48.3 L128.8 50.1 L130.2 49.8 L133.7 51.9 L136.9 52 L137 53.4 L140.1 56.7 L148.1 56.5 L149.3 55.8 L149.6 56.7 L155.9 59.8 L156.9 62 L155.9 63.7 L156 65.7 L158 69.9 L158.3 75.4 L154.7 75.6 L158.6 80.2 L159.6 89.7 L178.4 90.5 L180.6 89.9 L180.7 92.2 L179.1 94.8 L180 101.5 L184.9 104.8 L187 105.1 L187.8 108.9 L190.9 113.6 L189.7 113.8 L187.3 121.3 L188 123.4 L187.3 123.4 L187.1 123.5 L183.2 131.7 L186.3 134.7 L183.5 136.7 L183.3 136.7 L182.8 136.9 L182.8 132.9 L172 126.3 L161.4 126.4 L141.1 130.6 L138.7 136.5 L135.1 141.6 L135 147.8 L130.6 162 L128.7 159.1 L119.1 159.1 L118 159.8 L115.6 159.2 L112 165.7 L111.2 169.7 L108 161.6 L103.1 160.3 L94.3 160.4 L90.6 157.1 L88.9 156.6 L88.1 160.1 L83.4 161.6 L82.6 164.3 L79.7 165.5 L79.7 167.1 L77.8 169.1 L71.1 169.9 L69.7 168.7 L70.1 165.8 L69 160.6 L67.4 158.8 L66.1 150.5 L63.6 146.5 L62 146 L61.8 145.5 L61.8 143.9 L62.9 142.5 L59.5 139.7 L60.6 138.9 L59.3 136.2 L61.6 135.6 L62.2 134.1 L60.3 131.5 L63.3 128.1 L57 122.2 L57.4 121.1 L55.1 112.4 L55.9 111.2 L53.3 110.4 L50.9 104.7 Z"/>
  </g>
</svg>
