<svg xmlns="http://www.w3.org/2000/svg" viewBox="0 0 240 180">
  <g fill="#17324a" stroke="#fffaf3" stroke-width="3.2" stroke-linejoin="round" stroke-linecap="round">
  <path d="M119.4 150.5 L119.4 150.5 L115.3 148 L117.9 148.7 L117.3 148.1 L116.3 147.5 L118.6 147 L119.8 146.1 L118.3 141.4 L117.1 139.8 L116.6 139.3 L110.8 135.4 L110.5 135.2 L108.7 131.4 L104 126.3 L103.1 123.4 L103.9 118.4 L103.2 116.9 L101.9 116 L97.8 115.4 L95.4 114 L94.4 113.1 L79.6 98.8 L78.2 94.8 L70.7 85.8 L69.9 85.3 L68.1 84.6 L67 82.1 L65 82 L63.3 80.6 L58.6 73.2 L57.8 70.7 L57.4 68.8 L58.1 64.3 L55.3 63.2 L56.2 61 L54.4 54.8 L53.9 54.2 L53 54 L51.5 54.7 L50.6 54.6 L49.7 53.7 L51.4 50.8 L50.7 48.7 L48.2 47.9 L44.8 42.9 L41.3 44.5 L38 40.3 L37.5 39.2 L37.5 38.3 L39.9 35.8 L38.1 31 L39.7 27.1 L39.2 25.3 L39.2 24.2 L40.2 21.7 L40.2 16.8 L42.1 14.3 L50.4 14.1 L50.5 15.9 L52.3 16.7 L54.6 21.1 L58.5 24.9 L62.9 26.6 L63.9 26.4 L65.9 19.8 L67.9 18.9 L68.5 18 L69.9 15 L71.9 13.7 L83.8 16.1 L84.6 14 L88.6 10 L89.5 12.9 L90.4 12.8 L90.3 12.4 L90.1 12 L91.7 13.1 L92.1 12.4 L92.1 14 L93.3 13.2 L94.1 14.9 L95.9 16.3 L97 16.8 L99.7 18 L100.1 17.7 L102.2 17.6 L102.3 17.3 L103.1 15.6 L107.9 18.5 L110.5 17.2 L110.7 18.8 L112.8 18.4 L112.4 19.6 L112.2 20 L116 19.6 L119.3 17 L120.7 17.1 L127.1 22.9 L130.3 21.9 L134.2 17.9 L137.9 20.4 L140.6 21 L141.5 20.8 L142.2 20.3 L142.6 18.2 L143.1 17.7 L144.1 17.5 L147.7 19.5 L150.7 19.7 L155.9 23.4 L156.9 23.5 L157.3 21.1 L159.8 20.8 L161.5 23 L162.7 21.6 L165.3 25.8 L167.7 27 L168 28.8 L167 29.5 L166.7 30.1 L167.2 31.8 L171.7 34.9 L179.2 34.1 L184.3 31 L184.9 32.1 L189.5 31.8 L191.9 33.3 L192.3 34.7 L189.8 43.4 L184.3 51.6 L183.7 54.2 L183.3 54.5 L181.8 55 L182.3 60.1 L180.9 62.9 L183 68.2 L186.9 69.5 L189.3 69.3 L190.1 69.9 L190.8 71 L191.7 74.2 L195.1 77 L196 76.4 L196.4 76.9 L196.5 78 L200.5 82.1 L202.2 82.2 L202.5 83.3 L202.2 84.3 L198.7 86.8 L191.8 87 L188.5 84.6 L186.6 85.3 L186 87.9 L186.5 88.2 L188 89.3 L189.3 91 L191.5 94.7 L195.9 99.4 L196.7 101.3 L197.7 104.6 L197.8 106.1 L196.7 107.2 L196.5 107.9 L197.1 111 L194.6 110.6 L194.1 111.9 L193.7 112.4 L191 108.4 L189.1 109.6 L187 109.6 L185.5 112.8 L181.5 112.7 L178.7 114.4 L176.4 112 L175.4 112.1 L172.6 114.3 L172.3 114.8 L172.4 115.3 L174.3 116.9 L174.1 118.1 L175 117.8 L175.3 118 L176.8 120 L178 123.5 L179.3 126 L177.4 126.6 L176 128.4 L173.1 123.8 L168.8 124.1 L169.3 125.1 L162.2 130.4 L163.2 130.9 L161.3 133.5 L160.7 135 L160.3 136.8 L161.1 142.9 L159.4 142.7 L156.9 142.7 L154.5 143.3 L153.2 144.5 L152.4 146.8 L152.4 147.8 L154.1 152.2 L152.9 154.9 L157.3 163.6 L156.8 166.5 L154.6 168.2 L154.9 169.7 L150.4 169.6 L148.4 167.5 L143.5 166 L136.1 160.9 L133.9 159.4 L132.9 158.5 L131.1 156.4 L128.1 154.9 L126.1 149.4 L124.1 149.8 L122.4 149 L121.4 148.8 L119.4 150.5 Z"/>
  </g>
</svg>
