<svg xmlns="http://www.w3.org/2000/svg" viewBox="0 0 240 180">
  <g fill="#17324a" stroke="#fffaf3" stroke-width="3.2" stroke-linejoin="round" stroke-linecap="round">
  <path d="M129.7 10.2 L129 11.7 L129.6 13.9 L131.8 16.3 L133.7 20.8 L137.8 24.9 L138.7 28.1 L140.7 30 L140.9 33.2 L144.2 40.8 L146.6 41.5 L147 43 L153.3 47.7 L161.2 50.6 L161.4 50.9 L162.3 53.1 L162.6 55.1 L162.3 57.7 L169.3 57.9 L168.8 67.8 L172.5 72.2 L173.9 76.1 L181.7 78.1 L184.2 77.9 L191.1 80.5 L191.1 84.5 L194.4 85.4 L196.1 87.4 L191.1 88 L189 92.1 L184.3 94 L179.1 94.7 L175 98.8 L174.8 100.1 L173.2 101 L173.1 102.6 L170.5 103.8 L170.2 105.5 L167.8 105.5 L166.9 108 L163.8 109.1 L163.6 108.5 L161.3 110.8 L160 110.9 L159.1 113.2 L158 113 L157.7 113.7 L157.4 114.3 L155.3 123.9 L150.3 127.3 L148.3 130.3 L146.2 130.2 L139.6 132.4 L139.7 134.8 L135 147.7 L132.9 149.3 L131.7 149.8 L128.3 150.2 L125.7 149.8 L122.7 151.3 L119.4 151.1 L116.6 149.8 L114.7 150 L112.2 147.8 L108 147.8 L100.4 141.7 L93.5 142 L90.4 145.2 L88.3 154.3 L85.6 158 L84 158 L80.8 160.4 L77.7 165.2 L73.2 166.2 L72.9 168.5 L71.3 169.5 L67.4 168.8 L62.5 169.5 L59 168.4 L55.5 170 L54.2 167.6 L54.3 161.8 L57.9 156.6 L56.7 151.4 L54.6 147.9 L54.9 145 L53 143.5 L50.2 137.4 L43.9 132.4 L43.9 84.1 L60 84.1 L60.2 83.5 L60.1 19.4 L68.2 19.1 L97.7 13.8 L99.4 17.2 L101.1 18 L102.9 22.2 L107.8 17.4 L112.2 14.3 L114.2 14.2 L115.1 13 L115.7 13 L116.1 13.1 L117.4 14.9 L117.6 14.8 L118.4 14.8 L121.1 11.9 L124.7 10.1 L125.6 10.8 L129.7 10.2 Z"/>
  </g>
</svg>
