<svg xmlns="http://www.w3.org/2000/svg" viewBox="0 0 240 180">
  <g fill="#17324a" stroke="#fffaf3" stroke-width="3.2" stroke-linejoin="round" stroke-linecap="round">
  <path d="M107.3 155.4 L114.1 147.9 L114.9 148.1 L114.7 147.3 L118.4 144.5 L122.3 143 L123 139.3 L122 136.7 L119.2 136.5 L120.6 130.2 L119.1 129.2 L116 129.9 L115.2 124.5 L114.2 123 L112 122.1 L110.3 123 L105.8 122.2 L106.4 117.5 L105.1 114.3 L106.3 113.6 L105.2 112.5 L107.8 106.3 L106.5 103.5 L104.1 102.3 L104.4 98.4 L97.1 98.3 L96.8 95.1 L95.4 93.5 L96.2 93.5 L96.7 93.5 L95.9 88.2 L93.6 86.8 L90.5 87.2 L89.4 85.5 L86.7 85 L85.5 83.5 L80.7 82.9 L77.8 80.8 L76.3 77.9 L76.3 71.3 L75.6 72 L71.4 72.2 L63.5 77.2 L61 76.5 L55.5 76.8 L55.9 70.3 L52.9 72.6 L49.3 72.6 L48.8 70.7 L45.2 70.2 L46.2 68.5 L42 62.5 L43.2 61.6 L43 59.9 L45.6 58 L45.1 56.5 L46.6 52.5 L50.4 50.1 L54.2 49.6 L54.9 48.6 L58.2 49.1 L60.4 36.5 L59.5 33.7 L57.7 32.3 L57.8 29.2 L61.4 29 L60.8 27.3 L58.6 27.3 L58.6 24.6 L65.3 24.5 L65.2 23.3 L66.2 24.5 L68.2 22.8 L69.5 24.6 L69.6 26.8 L73.2 28.6 L75.6 27.6 L75.9 28.9 L77.3 27 L80.2 25.4 L80.5 26 L81.7 23.7 L84.4 22.3 L84.4 21.7 L81.6 21.4 L81.1 16.9 L78.7 14 L81.3 14.7 L81.7 15.7 L84.3 15.3 L86.3 17 L86.9 15 L91.6 14.2 L95.1 11.8 L94.8 10.3 L96.7 10 L97.8 10.7 L97.1 13 L99 13.6 L99.6 15.4 L98.3 16.9 L97.8 19.9 L98.7 24 L102.2 26.7 L103.6 26.4 L104.4 25 L105.6 25.4 L107.5 24.6 L108.3 23.5 L113.6 24.1 L114 23.1 L113.1 22.2 L113.7 21.2 L114.8 21.8 L117.8 20.9 L120.3 22.8 L122.4 21.9 L125.8 22.7 L131.2 14.2 L131.8 15.5 L131.6 13.4 L132.8 14.9 L132.8 16.6 L133.2 15.6 L134.4 23.2 L137.7 24.5 L138 26.2 L136.9 26.7 L138 26.8 L134.4 30.9 L132.2 31.9 L129.9 37 L126.8 38.2 L128.5 37.8 L128.6 38.6 L134.2 35.3 L133.7 36.2 L134.9 38.6 L134.2 39.7 L135.1 39 L135.9 40.1 L137.7 39.1 L138.3 40.2 L138.1 39.4 L139.1 39.9 L139.8 38.9 L139 42.6 L141.6 38.2 L141.4 39.2 L142.9 37.3 L143.8 38.4 L143.5 36.9 L144.5 36.5 L145.3 34.3 L145.6 34.8 L146.2 33.9 L146.5 34.7 L147.2 34 L147.9 34.9 L147.6 34 L148.3 34 L149.2 35.2 L149.6 34.5 L149.6 35.3 L150.2 34.5 L150.4 35.5 L151 34.9 L150.4 35.8 L151.8 35.2 L151.5 35.9 L152.4 36.1 L152.6 35.3 L152.4 36.5 L153.5 35.9 L153.7 36.7 L154 36 L153.9 36.9 L154.5 36.3 L154.7 37.2 L155.8 36.9 L155.6 37.9 L156.2 37 L156.1 38.8 L157.9 37.4 L158.1 39 L159.3 39.1 L159.4 40 L158.1 41 L158.8 41.6 L159.5 40.4 L159.9 41.4 L158.7 42.3 L158.3 45.2 L159.9 42 L161.1 41.4 L160 43 L160.6 43.4 L161.7 42 L163.5 42.1 L163.5 41.2 L172.3 44 L172.2 43.4 L176.9 43.2 L183.4 46.8 L188.5 51.7 L190.9 52.6 L195 52.6 L196.3 54.5 L198 61 L197.8 64.7 L195.6 69.8 L194.4 71.3 L193.3 71 L194 71.5 L191.6 74.7 L188.7 77.2 L188.1 76.8 L188.6 77.5 L187.3 78.2 L187.8 78.6 L186.6 81 L183.8 84.8 L183.1 85 L182.5 83.2 L182 84.3 L181.6 83.7 L182.3 84.5 L181 86.6 L181.3 88.4 L180.7 88 L181 89.7 L181.6 89 L181 92.4 L181.8 96.7 L180.4 101.9 L180.7 104.2 L178.6 106.6 L178.1 112 L173.4 118.9 L173.4 121.8 L170.3 123.2 L169.3 124.3 L169.3 125.9 L165 125.8 L165.2 124.6 L164.3 124.9 L164.6 125.9 L163.2 126.2 L159.9 125.6 L158.5 126.7 L159.4 127.2 L157.2 127.6 L155.6 129.4 L151.6 129.7 L151.9 130.2 L145.4 134.2 L145.8 134.8 L144.6 136 L144.9 135.2 L143.7 135.1 L143.6 136.1 L142.5 135.6 L144 136.5 L142.4 137.7 L143.3 137.8 L143.2 139 L142.3 138.5 L143.6 143 L142.9 147.5 L142.4 148.5 L142 147.8 L142.5 148.6 L138.3 152.4 L134 159.7 L129.3 163.5 L129.2 162.1 L130.2 162.3 L132.6 160.7 L132.9 159 L133.7 159.3 L133.6 158.3 L134.8 157.6 L134.6 156.1 L135.3 156.5 L135.1 155.4 L133.8 156.4 L132.4 154.7 L132.2 155.6 L133.2 156.1 L132.5 157.9 L132 157.3 L131.8 159.1 L129.7 160.1 L128.6 162.2 L129.2 163.5 L127.1 167.4 L124.1 170 L123.4 169.6 L123.5 167.5 L125.1 165.8 L122.5 163 L116.7 159.8 L115.3 158.1 L113.6 159.1 L113.7 158 L110.4 155.1 L108.7 155.9 L107.3 155.4 Z"/>
  <path d="M143.6 34 L143 36 L141.8 36.3 L142.2 37.4 L141.5 36.9 L142.1 37.6 L140.7 37.3 L140.6 38.3 L139.4 37.7 L139.3 38.7 L138.5 38.1 L138.2 39.1 L137.4 38.4 L136.8 38.9 L136.4 37.7 L135.9 39.1 L134.3 37.5 L134.3 36.1 L135.6 35.9 L134.3 35.6 L134.6 33.9 L135.3 34.4 L134.7 33.1 L136.1 32 L143.9 32.7 L143.6 34 Z"/>
  </g>
</svg>
