<svg xmlns="http://www.w3.org/2000/svg" viewBox="0 0 240 180">
  <g fill="#17324a" stroke="#fffaf3" stroke-width="3.2" stroke-linejoin="round" stroke-linecap="round">
  <path d="M150.2 138.8 L148.8 139 L145.9 137 L140.6 139.1 L140.2 141.3 L142.7 143.8 L143.1 146.5 L144.2 147.6 L143.6 150.1 L144.7 152.3 L142.5 156 L134.3 158.4 L131.8 156.6 L127.6 158.7 L122.7 157.8 L121.1 159.5 L111.7 161.4 L106.9 156.8 L99.3 153.8 L96.4 154.2 L96.1 156.3 L95.4 156.3 L92.8 153.4 L88.6 151.9 L86.1 146.1 L83.6 147.7 L78.6 148.3 L77 146 L75.1 146.7 L74.2 148.5 L70.9 147.3 L69.8 147.8 L69.4 151.4 L69 151.3 L68.2 150.7 L66.4 152 L64.8 150.8 L64.5 150.7 L60.3 152.4 L59.5 153.8 L56.7 153.7 L54.6 155.2 L53.4 155.1 L51.1 153.9 L47.6 153.8 L44.5 155.3 L42.5 153.9 L38.5 157.8 L37.1 158 L30.1 156.9 L30.9 156.2 L31.4 152.3 L30.7 143.6 L33 139.8 L33.4 138.7 L33.3 137.5 L31.1 136.1 L28.8 131.2 L27.5 124.4 L26 124.1 L25.3 123 L23.1 123 L16.5 118.9 L10 110.1 L12.8 109.5 L14.4 106.3 L15.8 105.7 L16.1 104.9 L16.6 103.2 L15.9 100.2 L12.8 97.7 L13.4 92.5 L14.3 90.7 L14.8 90.3 L12.8 86.3 L15.3 83.7 L17.7 82.8 L18.6 82.6 L21.3 83.4 L22.4 83.1 L23.4 82.6 L24.9 78.6 L29 75.5 L31.5 72.1 L32.1 70.5 L32.5 68.9 L32.4 68.3 L32.4 67.7 L28.9 66.2 L26.2 61.5 L23.2 58.6 L21.2 58.2 L20.3 56.8 L18.8 56.7 L16.1 54.5 L14.3 46.2 L11.8 43.8 L11.5 40.9 L10.6 39.9 L10.2 38.6 L11.9 29.7 L15.6 28.4 L16.6 26.6 L18.7 26.3 L19.1 21.3 L20.7 19.1 L22.2 18.4 L29.7 23.5 L34.1 24.9 L34.4 26.4 L33.8 27.9 L29.7 29.2 L29 29.6 L28.6 30.7 L27.8 34.3 L27.8 35.4 L30.2 37.3 L34.9 36.9 L37.7 36.7 L44.5 34.8 L50.1 35.1 L53.9 37.2 L59.1 36.9 L61.1 38.1 L73.4 41.1 L73.8 41.2 L80 40.9 L80.8 40.9 L84.6 38.8 L94.6 41.9 L102.1 41.4 L112.2 43.5 L117.5 46.1 L122.9 45.2 L126.9 42.9 L130.8 42.2 L136.2 35.6 L143.8 28.8 L150.2 26.7 L165 24.2 L166.2 23.8 L169.6 21.9 L173.7 21.5 L174.6 20.9 L177.2 22.5 L182.5 23.5 L182.9 25.1 L187.1 28.7 L196.7 28.2 L199 31.8 L205.7 29.7 L208.1 36.6 L209.3 37.5 L216.6 40.8 L224.1 42 L229.1 41.8 L229 42.4 L228.9 48.2 L230 51.5 L228.5 55.5 L225.6 58.2 L225.4 58.8 L225.4 59.7 L222.6 57.4 L221.7 57 L220.1 56.7 L214.3 57.7 L213 58.5 L212 59.8 L209.4 66.1 L205.4 67.6 L206.9 69.2 L204.7 75.8 L205.4 80 L205 91.1 L199.4 90.9 L198.8 92.8 L199.1 93.2 L199.6 93.5 L195.7 95 L196.5 98.4 L195.9 98.1 L192.6 98 L191.6 98.6 L190.5 102 L189.9 101.7 L189.6 102.1 L190 104.6 L190.2 103 L191.3 104.2 L191.7 104.3 L192.8 103.1 L195.8 103.1 L196.6 105.1 L197.1 105.2 L197.9 104.6 L198.9 105.2 L198.2 105.9 L198.7 108.4 L201.1 108.9 L200.2 112.7 L205.4 119.4 L208.3 121.6 L209.4 126.4 L202.2 125.3 L201.9 127.8 L197.8 126.6 L195.1 127.3 L193 128.7 L193.4 129.6 L192.8 129.8 L188.4 126.4 L183.2 120.7 L182 120.4 L181.2 120.5 L179.7 122.4 L175.3 121.1 L171.5 125.3 L167.3 126.7 L165.9 125.9 L164.4 127.1 L159.2 127.1 L157.7 128.6 L158.2 129.5 L157 133.5 L155.3 134 L151.7 133.9 L150.2 135.2 L149.7 136.3 L149.6 137.4 L149.8 138.3 L150.2 138.8 Z"/>
  </g>
</svg>
