<svg xmlns="http://www.w3.org/2000/svg" viewBox="0 0 240 180">
  <g fill="#17324a" stroke="#fffaf3" stroke-width="3.2" stroke-linejoin="round" stroke-linecap="round">
  <path d="M228.8 99.5 L225.9 106.1 L218.3 112.8 L213.7 112.2 L207.1 113.8 L206.2 112 L202.6 111.4 L201.3 112.7 L201.2 113 L201.5 113.6 L199.6 115 L200.1 116.2 L198.9 116.6 L198.1 115.8 L197.9 117.8 L194.8 116.7 L194.1 117.8 L194.9 120.1 L193.8 119.7 L192.3 120.8 L193.8 123.9 L190 122.5 L189.2 123.6 L189.5 125.5 L181.6 125.1 L179.9 125.4 L176.5 126.6 L176.5 124.7 L154.8 120.2 L154.3 121.9 L152.9 122.9 L151.4 121.9 L150.2 124.2 L146.8 125.3 L145.6 127.4 L144.3 126.1 L144.5 125.2 L140.3 124.6 L138.3 125.7 L137.7 124.7 L125.8 124.9 L120.1 124 L119.1 124.8 L114.8 124.9 L85.1 124.8 L85.5 127.4 L84.3 128.6 L82.4 135.1 L84.4 139.8 L87 141 L85.5 142 L84.9 143.8 L87.3 145.6 L86.1 148.1 L87.9 157.9 L86.2 160.8 L87.7 162.7 L87 164.8 L89.1 167.3 L87.1 170 L86.4 169.9 L85.8 169.5 L83.1 165.8 L80.9 161.1 L78 160.4 L76.8 157.7 L75.1 157.2 L74.7 155.3 L72.3 157.4 L71.9 155.7 L63.9 155.2 L62.4 154.3 L59.4 154.8 L58.5 155.7 L55.6 156 L51.6 158.6 L49 158 L48.5 158.4 L47.7 159.5 L45.3 160.4 L44.8 163 L44.4 163.7 L44.2 163.9 L43.1 163.5 L42.9 164.6 L41.8 162.8 L39.3 162.6 L38.9 160 L37.9 161.4 L36.5 160.6 L34.4 161.8 L32.8 159.8 L31.2 159.8 L30.8 159 L31.8 158.9 L31.1 157.3 L26.5 155.7 L26.5 155.4 L26.9 154.2 L26.1 152.7 L26.7 152.7 L26.8 152.3 L25.2 150.2 L23.7 149.8 L23.9 149.6 L24.6 149.3 L23.1 147.9 L23.3 146.5 L22.4 147 L22.3 144.6 L17.9 143.8 L15 144.6 L11.2 140.9 L13.7 129.1 L12.8 126.2 L12.4 125.5 L11.8 125.6 L11.7 122.7 L16.5 121.3 L18.4 117.7 L18.4 117.2 L18.2 114.3 L19.6 112.9 L19.2 108.6 L17.1 107.4 L17.7 103.4 L14.3 101.5 L18 101.2 L23.1 97.2 L32.2 96.4 L37.7 92.4 L37 91.1 L39.4 89.1 L39.5 89 L39.7 87.6 L41.9 88 L41.7 86.8 L40.7 84.4 L42.5 81.7 L39.8 78.5 L39.6 78 L39.8 76.5 L43 75.8 L44.9 76.6 L46.7 75.8 L47.2 73.9 L47.3 73.6 L46.8 69.9 L43.4 65.2 L44.1 63.8 L46.6 63.6 L46.1 62.1 L49.1 60.1 L50.2 57.7 L53.4 55.9 L53.7 54.4 L55.3 56.1 L53.5 57.4 L58.6 58.7 L65.6 63.6 L68.2 63.8 L68.3 61 L73.7 60.3 L72.8 53.3 L73.4 50 L73.3 49.3 L72.7 48.9 L73.2 48.3 L74 48.6 L75.2 49.5 L77.1 49.5 L78.7 51.4 L83.5 50.2 L82.7 47.5 L82.6 46 L84.2 40.4 L91 34.6 L95.4 32.5 L97.5 32.9 L103.9 36 L107.1 35.3 L108.2 27.1 L116.4 26.4 L125.9 20.3 L134.4 17.4 L143.3 10 L149.3 10 L150.2 10 L151.4 12.2 L156.5 10.4 L169.1 14.8 L168.1 17.3 L168.9 19 L169.1 19.8 L167.3 25 L167.4 26.4 L173.7 33.3 L172.4 36.8 L173.5 38.4 L173.2 39.3 L176.8 44.6 L179.6 46.9 L179.4 49.1 L184 49.3 L184.9 50.9 L187.7 51.2 L189.2 52.1 L190.3 53.3 L191.9 56.1 L197.9 58.8 L195.7 58.3 L195 59.7 L190.1 58.1 L190.1 67.6 L193.7 68.6 L206 78.9 L213.7 79.6 L217 76.4 L221 76.8 L223.5 79.9 L224.8 84.7 L219.9 85.9 L219.5 86.2 L219.5 87 L228.8 99.5 Z"/>
  </g>
</svg>
