<svg xmlns="http://www.w3.org/2000/svg" viewBox="0 0 240 180">
  <g fill="#17324a" stroke="#fffaf3" stroke-width="3.2" stroke-linejoin="round" stroke-linecap="round">
  <path d="M167.6 17.2 L165.2 20.3 L164.2 21.9 L160.5 31.8 L157.4 35.4 L157.1 37.2 L157.9 38 L165.3 35.7 L159.9 42.5 L159.7 43.6 L159.7 45.5 L158.1 47.7 L157.2 49.4 L157.4 50.6 L159.2 53 L160.3 54.1 L161.7 54.5 L161.3 55.3 L162.7 57.4 L166.5 54.1 L173.2 57.7 L173.8 59.7 L177.2 59.4 L180.7 61.1 L187.7 60 L184.2 65.1 L187.1 69 L186.7 70.8 L188.3 73.5 L185.8 82 L184 83.2 L181.9 83.4 L180 82.4 L179.7 83.3 L179.3 84 L174 86.3 L172.6 87.6 L171.2 89.2 L171.7 89.5 L174 90.7 L173.9 92.7 L166.9 97.8 L166.4 98 L164.4 98.5 L164.1 99.5 L161.3 99.6 L158.6 102.5 L157.8 107.6 L154.7 112.4 L154.2 113.7 L154.8 120 L151.5 118.9 L149.7 120.1 L146.8 125 L142.9 129 L142.1 130.5 L140.8 135.9 L137.7 142.1 L135.5 144.8 L130.4 149 L126.8 155.8 L119.3 161.3 L115.3 163.1 L114.7 163.3 L111.9 162.6 L110.7 163.4 L106.9 170 L99.9 168.8 L82.6 169 L80.2 151.1 L79.8 149.7 L77.8 142.6 L68.6 128.3 L68 119.5 L69.3 105.2 L68 86.4 L68.1 84.2 L68.4 83.2 L70.1 81.7 L70.5 81.3 L69.2 80.3 L68.7 78.9 L68.5 73.9 L70.6 69.8 L70.5 69.3 L70 65.1 L69.4 64 L68.3 63.2 L64.3 62 L62.9 57.9 L59.3 56.1 L56.3 48.8 L52.3 47.8 L51.7 46.6 L51.9 45 L52.4 43.7 L53.3 42.9 L54.8 42.7 L53.8 40.9 L55.1 33.5 L56.8 31.9 L61.1 31.6 L73.1 35 L74.5 35.8 L75.4 36.4 L75.6 38.7 L77.6 41.2 L76.2 44 L77.8 48.8 L84.1 47.1 L90 48.8 L98.5 45.9 L105.9 47.2 L107.7 43.8 L112.1 44.4 L113.6 44.1 L115 43.3 L119.1 37.3 L119.8 27.2 L121.4 21.6 L120.9 15.9 L121.6 11 L124.9 13 L127.6 13.4 L132 17.8 L133.6 18.9 L135.3 19.5 L136.9 19.5 L138.2 18.6 L142 12.7 L146 14.1 L147.2 14 L148.7 13.8 L154.6 10 L157.6 10.7 L158.7 12.7 L162.7 16 L165.2 17.1 L167.6 17.2 Z"/>
  </g>
</svg>
