<svg xmlns="http://www.w3.org/2000/svg" viewBox="0 0 240 180">
  <g fill="#17324a" stroke="#fffaf3" stroke-width="3.2" stroke-linejoin="round" stroke-linecap="round">
  <path d="M213.2 10 L213.6 11 L211.6 18.6 L210.3 20.5 L208.3 20.5 L207 23.5 L207.5 26.1 L205.9 31.8 L207.1 36.2 L209.9 36.9 L210.4 44.4 L212.9 47.8 L215.9 53.6 L216.2 55 L216.4 58.7 L216.3 59.8 L211 72.8 L211.8 77.9 L213.7 81.1 L214.9 89.5 L214.5 93.3 L212.9 98.1 L209.4 101.4 L208.5 101.5 L205.9 98.6 L204.3 98.8 L202.5 99.3 L201.9 99.5 L199.8 100.6 L192.5 107.9 L185.9 108.4 L183.3 112 L176.2 111.9 L175 112.7 L173.9 111.8 L172.1 112 L173.8 116 L172.3 119.8 L173.3 123.5 L171.1 122.5 L167.8 123 L165.9 121.2 L158.4 119.5 L155.4 124.2 L154.4 124.2 L152.6 123.5 L150.7 124.9 L150.3 125.5 L150.2 126.3 L152.5 127.8 L153.2 132.2 L152.1 137.4 L153.7 138.2 L154.9 140.6 L156.9 141.1 L161 146.1 L161.4 145.3 L161.9 145 L163.6 146.2 L164.2 148.3 L164.6 149.1 L162.6 149.4 L162.2 151 L164.3 156.9 L158.5 154.9 L155.3 152.1 L154.1 154.6 L153.4 154.6 L152.7 154.2 L148.8 147.6 L138.6 150.4 L136.3 149.6 L133 154.2 L130.6 152.5 L124.9 151.4 L124.2 150.2 L121.8 152.5 L123.8 158.9 L118.9 162 L116.1 165.7 L114.8 166.2 L113.1 166.3 L105.6 165.8 L102.1 170 L98.2 167.3 L95.8 167.6 L95.5 167 L95.4 165.3 L94.1 164.2 L92.5 165 L87.6 164.8 L83 163.6 L80.4 160.9 L80.1 159.4 L80 163 L79.7 163.6 L78.9 164.8 L76.5 165.5 L74.1 164.5 L75.8 166.5 L71.3 166.8 L70.8 164.9 L69.3 164.8 L66.8 162.5 L69.2 158.4 L73.6 157.9 L73.2 155.6 L74.9 154 L74.9 153.6 L74.9 152.1 L72.6 147.1 L73.1 145.8 L70.6 144.8 L68 142.1 L66.9 142 L66.6 143 L65.6 142.5 L64.9 144.8 L65.6 144.5 L65.7 144.9 L63.7 149.8 L63.7 152.2 L61.4 153 L58.7 150.7 L57.2 151.6 L56.5 152.2 L56.7 152.8 L55.2 153.3 L53.2 152.6 L53.7 152 L52 150.7 L52.7 149.3 L52.1 145.2 L52.8 142.6 L52 140.3 L50.7 139.6 L52.4 137 L54.1 136.9 L54.1 136.3 L53.7 135.4 L53.7 134.9 L52.2 134.9 L50.9 131.5 L51.7 132.1 L53.3 131 L54.9 132.3 L53.7 129.2 L52.7 130.8 L50.9 129.4 L50.7 126.1 L49.9 125.6 L49.7 128 L47.7 128.5 L46.9 127.4 L47.7 126.9 L48.7 127.7 L47.9 126.4 L47.9 124.9 L48.3 124.5 L50.1 124.9 L48.2 123.1 L47.4 124.4 L48.1 122 L51.7 121.1 L49.4 120.8 L47.9 121.6 L44.7 117.2 L47.4 121.6 L46.9 126.9 L45.4 124.1 L46 123.3 L45.8 121.1 L45.4 119.6 L44.4 118.1 L42.8 115.9 L37.3 104.2 L38.2 98.1 L39.9 94.6 L33.6 88.1 L29.9 86.2 L29.5 84.1 L30.6 81.5 L29.1 75.9 L30 73.7 L26.1 68.5 L24.1 63.4 L23.6 53.4 L24.2 52.5 L30.8 52.4 L33.9 51 L32.6 50.2 L31.8 49.4 L31.9 48.6 L37.6 45.2 L40.3 38.7 L43.8 35.5 L46.2 28.8 L52.9 24.6 L61.8 23.1 L63.9 21.9 L64.9 22.4 L68.6 20.5 L70.3 21.2 L71.8 19.7 L73 20.3 L73.1 21.9 L80.8 23.6 L82.1 22.7 L84 22.6 L85 23.4 L89 22.1 L90.1 22.6 L91.4 21.2 L92.3 22.2 L94 21.3 L101.5 23 L102.9 22.3 L104.7 22.8 L107.2 20.7 L109.3 21 L110.2 20.1 L110.9 21.1 L113.7 19.9 L120.4 22.1 L120.5 25.1 L123.1 28.3 L125.1 27.7 L126.2 25.8 L127 24 L128.1 23.4 L128.6 26.2 L133.7 32.2 L136.8 32.3 L140.8 30.2 L143.9 32.4 L148.5 33 L150 35.9 L154.1 39.2 L160.3 39.4 L160.9 38.7 L160.8 37 L163 35 L163.2 34.3 L163.1 33.6 L158.3 27.9 L156.9 22.6 L159.8 23.3 L160.1 22.4 L164.1 22.5 L166.2 18 L169 19.7 L173.1 18.9 L174 17.7 L173.7 16.7 L175.5 16.7 L175 15.2 L176.5 14.3 L177.6 17.2 L183.7 20.4 L186.7 24.3 L188.2 24.8 L190.4 23.7 L191.8 24.3 L195.2 20 L197.1 21.3 L197.9 21.1 L199 20.3 L200.8 17.8 L202.2 17.7 L204.7 14 L209.3 16 L210.7 12.7 L213.2 10 Z"/>
  </g>
</svg>
