<svg xmlns="http://www.w3.org/2000/svg" viewBox="0 0 240 180">
  <g fill="#17324a" stroke="#fffaf3" stroke-width="3.2" stroke-linejoin="round" stroke-linecap="round">
  <path d="M105.6 162.8 L86.9 162.8 L84.8 161.7 L84.8 157.3 L86.7 150.5 L86.3 147.4 L82.3 143.6 L84.8 142.4 L82.1 142.8 L81 140 L82.6 140.6 L81.7 140.1 L82 138.9 L83.7 139.7 L82.8 138.4 L84 137.8 L82 137.7 L83.9 135.3 L81.4 137 L80 135.6 L80.8 137.3 L79.5 136.7 L80 138.3 L78.4 138.4 L78.2 138.3 L77.7 138.1 L77.9 136.7 L76.3 137.7 L76.3 137 L73 135.7 L73.3 134.1 L71.9 130.7 L72.5 129.4 L72.2 129.8 L72 129.9 L71.3 128.2 L71.6 129.5 L70.6 128.7 L70.1 129.4 L68.6 126.8 L69.5 130 L66.6 129.8 L67.9 124.8 L70.6 120.9 L72.1 114.8 L70.9 113.3 L71.2 111.5 L73.2 110.6 L78.1 104.8 L83 101.7 L84.3 98 L85.2 98.3 L89.3 95 L90.6 97 L94.2 96.9 L95.3 93.3 L95.6 93.6 L95.6 94.3 L98.8 95.9 L99.9 98.2 L101.2 98.4 L101.7 98.8 L102.5 102.9 L104.8 103.1 L106.3 102.8 L107 101.1 L108.6 100.1 L108.7 97.2 L113.3 94 L111.4 91.5 L115.3 87.1 L115.3 85.1 L117.8 81.5 L118.2 75.7 L120.7 74.2 L120.2 72.6 L122.8 72.7 L126.1 70.1 L127.5 63.7 L126.8 62.1 L128.5 60.6 L131.7 59.6 L132.6 56.1 L132.1 52.5 L135 51 L136.4 44.4 L139.4 38.9 L142.6 35.3 L145.4 35.7 L151.4 31.6 L151.5 30.3 L150.3 29.2 L152.1 22.6 L149.6 20.4 L145.4 20 L143.7 10 L148.6 10 L150.5 14.4 L154.4 16.5 L155.3 23 L157.1 23.7 L157.8 25.4 L157.3 26.9 L158.3 28.2 L157.6 29.6 L158.6 31.7 L157 36.6 L158.5 45.6 L163.3 51.3 L166.2 53.3 L165.9 53.3 L162.8 54.1 L158.9 53.3 L153.6 54.2 L145.3 53.4 L142.1 58 L147.7 64.8 L157.7 72.4 L159.3 74.4 L162.8 83.4 L164.5 84.1 L162.7 89.7 L159.8 91.7 L153.7 104.4 L148.2 108.7 L149.3 110.3 L150.9 110.2 L151.4 111 L151.4 116.4 L150 119.1 L151.9 120.5 L152.8 128.4 L156.7 131.5 L158 135.5 L159.4 136.4 L157.1 136.8 L157.9 138.8 L167.6 149.6 L169.7 150 L171.9 153.1 L171.9 158.2 L173.5 162 L172 162.5 L171.5 164.8 L172.8 169.1 L171.6 170 L170.8 168.4 L166.5 166.1 L163.4 165.5 L161.4 166.3 L159.7 164.6 L157.8 165.5 L156.4 164.7 L155.2 165.1 L154.7 163.5 L153.4 164.2 L150.6 162.2 L148.9 163.3 L133 162.9 L132.5 161.4 L131.2 161.2 L125.5 161.8 L110.3 160.6 L106 161 L105.6 162.8 Z"/>
  </g>
</svg>
