<svg xmlns="http://www.w3.org/2000/svg" viewBox="0 0 240 180">
  <g fill="#17324a" stroke="#fffaf3" stroke-width="3.2" stroke-linejoin="round" stroke-linecap="round">
  <path d="M123 140.3 L123 141.7 L73 141.7 L72.9 139 L72.3 140.2 L71.2 139.2 L71.8 139.7 L72.2 139.1 L71.5 138.8 L71.7 137.2 L70.8 138.8 L69.9 137.7 L70.7 135.9 L69.4 136.6 L69.9 134.2 L69.3 136.2 L68.5 136 L68.8 135.1 L67.7 136 L67.9 135.3 L67.3 135.4 L68.5 134.9 L68.4 133.6 L68.4 134.8 L67.4 135.2 L66.9 133.7 L65.9 134.7 L64.6 133.3 L65.8 132.7 L64.6 132.7 L65.1 131.6 L66.7 131.4 L65.2 131.4 L65.4 130.6 L64.8 132.2 L64.4 131.4 L65.7 128.9 L66.6 130.2 L66.5 128.7 L65.6 128.4 L66.1 127.1 L64.5 129.3 L64.4 127.9 L63.5 129 L64.2 126.6 L63.4 126.9 L62.5 124.1 L64.4 125.2 L62.7 123.8 L63.1 122.3 L61.9 124.8 L60.4 122.6 L61.6 121.5 L60.4 121.8 L59.8 121.1 L60 120 L60.7 121.2 L60 119.7 L60.8 120 L60.3 119.1 L61.3 118.6 L60.6 118.4 L61.6 116.7 L60.9 116.1 L60.4 118.5 L60.6 114.5 L57.4 112.4 L54.6 105.4 L51.8 102.1 L51.7 100.9 L50.9 100 L49.4 100.7 L48.9 102.4 L47.2 103.5 L47.1 102.3 L44.2 99 L44.4 97.9 L42.8 98.5 L40.9 98 L40.9 62 L44.3 62.5 L45.2 63.6 L51.4 65.8 L49.9 64.7 L50.8 64.4 L50 63.5 L50.9 64.1 L50.2 63.3 L52.6 62.8 L52.6 61.7 L53.9 62.3 L53 63.9 L55.5 61.9 L58.1 60.8 L58.5 61.3 L59 60.2 L60.7 60.4 L61.2 59.6 L61.5 60.6 L59 62.3 L57.1 62.4 L55.5 64.6 L54.9 64.3 L54.4 65.3 L55.4 65.7 L54.6 65.1 L56.2 65.2 L55.5 64.2 L57.2 62.8 L58 63.2 L58.4 62.5 L58.2 63.3 L58.7 62.1 L59 64 L59.9 61.8 L62.6 60.7 L62.5 61.9 L63.6 60.1 L65.1 59.8 L63.8 59.1 L64.2 58.3 L67.3 62.5 L68.8 63.3 L69.4 62.9 L68.5 62.9 L69.4 62.6 L68.9 61.8 L69.9 61.7 L69.2 61.2 L70.2 60.7 L69.2 60.6 L70.6 60 L70.5 61.7 L71.3 61.7 L70.6 63.1 L72.5 62.9 L73.1 61.3 L74.9 61.3 L83.6 64.9 L87.5 65 L89.4 66.8 L87 67.6 L86.5 68.8 L87.5 69.2 L93 69.6 L96.3 68.3 L97.2 69.6 L98.1 69.4 L98.5 70.8 L98.9 69.8 L99.1 70.9 L100 71.1 L100.2 72 L99 72.1 L101.3 74.7 L100.3 73.1 L100.6 71.9 L100.7 72.8 L101.6 72.9 L100 69.6 L100.2 67.9 L102.8 67.8 L104.2 65.9 L102.6 66.3 L102.6 67.2 L100.3 67 L100.7 67.7 L98.5 67.3 L99.4 66 L103.1 64.7 L106.2 68.2 L108.2 67.7 L110.3 69.5 L113 68.9 L116.2 69.5 L117.2 69.2 L116.9 68 L118.9 69.9 L119.6 69.6 L119.3 68.7 L118.4 68.3 L117.7 69 L116.6 66.9 L118.3 66.9 L117.9 66.2 L120.3 67.6 L120.7 67.1 L120 68.3 L121.6 67.2 L120.6 70.4 L121.3 70.4 L121.3 71.4 L122.2 70.7 L121.7 71.6 L122.7 72.1 L120.6 72 L122.1 73.5 L121.3 72.4 L122.8 72.5 L122.4 68.1 L123.6 68.2 L126.1 65.9 L125.5 66 L125.4 64.2 L124.9 65.4 L124.1 65.6 L123.9 64.7 L125 63.9 L124.6 63.2 L125.9 62.8 L125.4 63.8 L126.2 63.1 L121.5 61.5 L120.5 60.2 L121 58.4 L121.8 58.6 L120.3 57.4 L120.5 55.7 L122.3 55.6 L122.6 54.8 L121.6 54.4 L123.9 53.5 L122.8 53.1 L124.2 53 L124.3 54.2 L125.6 53.9 L126.9 55.4 L126.7 57.3 L129.5 60 L127.9 59.7 L127.6 60.3 L128.7 60.6 L127 61.9 L131.6 62.7 L130.7 63.5 L129.6 63.1 L131.4 64.9 L131.3 67.1 L132 67.3 L133.6 63.4 L135.7 65.2 L136.1 67.3 L135 67.2 L135.1 68.6 L136.6 71.8 L138.4 70.9 L139.9 65.5 L141.5 65.5 L140.9 64.6 L142 64.4 L140.4 63.7 L140.1 61.2 L146 62 L144.2 62.4 L147.7 63.7 L146.4 65 L147.6 65 L147.8 65.9 L145.3 66.6 L147.9 70.4 L147.4 72.2 L143.7 74.7 L143.1 72.7 L142.4 73.3 L142.3 72.3 L141.2 72 L141.8 72.3 L140.7 72.7 L141.8 72.4 L143.5 75.3 L142 74.5 L142.2 75.4 L140.8 75.1 L140.4 73.9 L138 74 L139.6 75.4 L136.9 78.7 L132.8 76.3 L129.6 76.2 L132.7 77.1 L133.9 78.7 L137.7 79.4 L135.6 83.3 L134.2 83.9 L133.5 83.2 L133.9 84 L133.1 84 L132.2 83.1 L131.8 85.3 L127.9 84.6 L125.4 83 L125.7 84.3 L127.8 84.5 L128.4 84.9 L127.8 85.6 L129.2 85 L131 86.3 L131.1 87.4 L129.7 88.5 L127.8 88.3 L128.8 89 L127.5 89.1 L127.1 90.1 L127.8 90.9 L126.4 90.1 L127.2 90.8 L125.7 91.7 L126.4 92.4 L125.1 93.5 L125.1 95 L123.6 97.3 L123.2 102.9 L124.2 104.2 L124.7 103.8 L124.4 106.1 L124.7 103.9 L126.5 104 L127.9 109.5 L127 111.1 L131.1 109.9 L134.3 111.4 L136.4 114.7 L140.9 117.1 L140.4 118.5 L140.9 117.4 L145.9 117.9 L146 126.4 L147.4 128.9 L146.7 129.4 L147.4 129.2 L149 131.1 L149.3 132.6 L148.3 133.8 L149.9 132.8 L151.3 135 L150.6 132.4 L151.3 131.4 L152.1 133.3 L151.8 130.9 L152.9 129.1 L151.9 126.2 L151.8 121.7 L150.5 119.8 L154 117.5 L156.3 113.5 L155.6 107.7 L152.6 104.6 L154 100.4 L154.9 100.9 L155.1 99.1 L154.3 99 L154.5 96 L153.3 96.2 L154.6 93.3 L153.6 92.5 L153.4 90.3 L154.7 89.2 L158 90.5 L157.4 90.9 L158.4 90.3 L159.8 91.1 L159.5 90.5 L161.5 89.7 L163.3 91.1 L163 92.2 L164 92 L163.8 93.2 L165 92.8 L165.1 94.8 L167.7 95 L168.1 96.1 L168.8 95 L169.1 95.7 L168.3 97.2 L168.6 99 L166.1 99 L168.4 99.3 L168.4 101.9 L169.3 101.8 L168.8 103.8 L168.2 102.9 L168.3 103.8 L167.5 104 L168.3 104.7 L169.2 103.5 L170.9 103.9 L170.9 106.5 L169.1 107.8 L170.9 106.7 L171.5 104.7 L171.3 106.7 L172 105.1 L172.1 107.2 L174.3 103.7 L175.2 104.5 L175 105.7 L175.1 103.4 L176.3 102.9 L175.6 102.5 L175.9 101.6 L176.3 102 L175.9 101.2 L176.9 101.6 L176 100 L176.9 100.1 L177.2 97.8 L178 98.2 L177.2 99.3 L178.4 99.1 L178.5 101.1 L179.2 101 L178.6 101.6 L179.8 102 L178.6 103 L180 102.7 L180.8 104.3 L179.4 105.8 L181.3 105.1 L180.6 106.1 L181.2 106.2 L179.9 107 L181.5 106.3 L181.1 107.2 L182 107 L182.5 108.4 L181.3 108.9 L183.4 110.4 L182.4 111.6 L182.9 112.3 L181.2 111.6 L182.8 112.4 L182 113 L183 113.6 L182.1 113.5 L183.4 113.8 L184.1 115.7 L184.8 115.4 L184.6 116.4 L185.3 115.5 L184.6 118.6 L186.3 117.3 L185.9 118.1 L186.9 118 L185.9 119.5 L187.4 117.6 L186.9 118.6 L187.6 117.9 L187.6 119 L190.6 120.1 L186.6 122.2 L188.8 121.5 L185.6 123.2 L185.6 124.2 L184.2 123.5 L185.8 124.3 L185.1 124.8 L185.7 125.2 L187.9 122.6 L189.8 122.1 L188.8 121.6 L190.4 121.6 L191.1 123 L190.5 124.6 L192.1 123.2 L191.7 123.7 L193.4 125 L192.7 126.1 L193.4 126.9 L192.7 127 L193.5 127.6 L192.1 127.8 L193.5 128.2 L192.7 128.5 L193.6 129.7 L191.3 132.3 L188.3 132.9 L185.7 137 L182.8 137.5 L181 136.6 L174.3 136.8 L172.7 140.4 L170.8 141.5 L170.7 140.9 L168.5 145 L166 143.8 L168.4 145.1 L167.5 147.6 L161 155.1 L160.1 155 L160.9 155.8 L158.4 157.8 L155.8 162.4 L151.7 162.9 L151.9 165.5 L145.7 170 L144.4 168.7 L146.2 163 L145.5 155.8 L143.6 154.2 L143.9 153.2 L142.9 152.9 L142.7 151.2 L141.9 151.5 L141.3 149.7 L135.1 144.4 L133.4 145.6 L130.7 144.7 L129.3 145.4 L126.9 143.2 L125.4 143.6 L124 142.8 L123 140.3 Z"/>
  <path d="M162.7 73.2 L164 71.2 L162.6 67.4 L160.9 66.8 L160.8 65.5 L161 66.3 L160.1 66.3 L159.8 65.1 L159 65.2 L159.4 64.2 L156.1 65.7 L156.1 64.4 L158 63.6 L156.1 62.4 L156.9 61.9 L155.1 62 L155.8 61.7 L154.9 61.3 L155.5 60.9 L154.3 61.6 L154.1 59.7 L152.9 59.8 L151.7 58.8 L152.4 58.5 L151.9 58 L150.8 59.1 L152 59.4 L152.2 61.1 L146.9 60.1 L148.6 61.7 L144.7 59.4 L147 60.8 L146.2 61.5 L141.5 60.2 L139.7 60.7 L138.3 59.7 L138.7 58.6 L136.2 59.7 L134.4 58.8 L133 56.4 L137.5 56.7 L136 55.7 L132.2 55.2 L132 53.1 L132.9 52.3 L132.3 51.3 L134 47.9 L138.1 45.8 L141.4 46.2 L138 50 L138.9 51.1 L138.6 52.9 L141.4 55.7 L138.2 56.9 L141.1 56 L141.6 56.9 L141.8 54.2 L139.2 52.9 L140.2 51.9 L142.6 52.8 L141.2 51.8 L142.1 51.4 L140.1 51 L139.9 49.4 L143 50 L140.4 48.5 L143.6 49.1 L140.9 47.8 L142.3 48.2 L141.7 47.5 L142.6 47.2 L143.6 47.9 L142.9 47 L146.4 46.2 L147.5 46.4 L149.6 49.9 L147.6 52 L149.2 51 L148.3 53.3 L149.6 51.8 L150.7 52.4 L149.8 51.7 L150.6 51 L150.5 52.1 L152 51.8 L151.4 53 L152.7 53.4 L152.2 52.2 L154.1 53.9 L152.2 51.6 L155.4 52.4 L152.7 50.9 L155.6 50 L159.1 51.8 L157.1 52.6 L156.5 53.5 L158.6 52.6 L157.1 54.1 L158.9 52.4 L160.6 52.9 L158.3 54.1 L159.1 54.1 L158.3 54.8 L159.7 54.2 L158.7 55 L159.5 55.1 L158.9 56.1 L159.9 54.2 L160.6 53.9 L160.5 54.7 L161.5 53.8 L160.2 55.2 L160.8 55.1 L160.4 56 L161.6 54.6 L161 56.6 L161.8 55.4 L162.5 55.7 L161.9 56.8 L163.3 54.2 L166 55.7 L163 57.4 L164.1 57.4 L163.4 58.3 L166.9 56.5 L166.6 57.7 L164.4 59 L164.8 59.5 L165.9 58.6 L165.2 60.5 L166.2 58.2 L168.1 57.2 L167.1 58.8 L168.7 57.6 L170.9 58.4 L167.1 61.2 L170.3 59.8 L168 62.1 L171.5 59.4 L173.1 61.7 L167.9 62.5 L170.5 62.2 L174 63.6 L169.7 63.1 L171.4 63.6 L169.8 63.6 L170.6 63.8 L169.7 64.6 L171.3 63.9 L172.1 64.4 L170.5 64.6 L171.9 65.4 L169.1 65.2 L171.5 65.7 L169.9 66 L171.7 66.2 L171.6 66.8 L171.8 66.2 L172.2 66.9 L173.9 66.7 L171.8 67.3 L173.3 67.1 L172.3 67.8 L173.4 67.2 L173.8 68.4 L174.5 67.8 L173.8 68.8 L174.4 69.2 L175.2 67.7 L175.1 69.8 L175.4 68.5 L176.1 68.3 L176.3 69.9 L176.1 68.7 L177.3 68.3 L176.5 69.7 L178 69.2 L177.5 69.6 L178.2 69.4 L178.6 70.2 L177.9 70.4 L178.9 71 L177.3 70.8 L178.3 71.1 L177.2 71.4 L178.8 71.2 L177.4 72.2 L179.7 71.3 L179.1 72.4 L180.3 70.9 L180.1 72.3 L179 72.9 L179.7 72.6 L179.8 73.3 L180.7 72.3 L180.7 73.6 L180.9 72.4 L181.7 73.3 L182.2 72 L183.6 73.5 L181.9 73.6 L183.2 74.7 L180.7 74.8 L182.4 76 L180.4 75.6 L181.8 76.8 L180.7 76.4 L181.1 77.7 L179.6 76.3 L179.5 80.3 L179.1 79.2 L178.2 79.6 L178.3 78.3 L177.7 79.6 L177.1 78.6 L178 78.1 L176.6 78.3 L177.4 77.4 L176.4 77.5 L177.3 77.1 L176 77.1 L178.1 74.7 L175.3 76.3 L176.1 74.6 L174.8 75.5 L173.2 73.6 L173.2 74.2 L172 73.8 L173.1 74.4 L172.8 75 L171.6 74.1 L173 76.4 L171.7 76.4 L170.7 74.9 L170 75.3 L171.5 75.8 L170.9 75.9 L171.9 76.8 L171.5 78.1 L172.8 77.4 L173.2 78.5 L172.6 78.7 L173.4 79 L173.1 79.7 L173.8 79.2 L173.8 80.8 L174.1 79.8 L174.8 81.2 L175.7 80.6 L175.6 81.9 L176.8 81.9 L175.7 82.6 L177.6 83.8 L176.9 84.5 L177.8 85.1 L177.7 86.7 L176.4 84.5 L177.6 88 L176.4 87.6 L177 89.1 L175.6 87.4 L175.5 88.1 L174.7 87.1 L174.4 87.7 L174 86.2 L174.1 87.7 L171.7 84.7 L172 86.2 L170.2 84.6 L171.1 86.9 L175.2 90.7 L174.6 92.1 L170.5 90.6 L168.8 89.2 L169 88.5 L167.5 88.6 L165.9 87.7 L166.4 87 L165.8 87.6 L164.9 87 L164.1 85.9 L165.8 85.3 L164.6 84.5 L163.8 85 L164 84 L163.2 84.4 L163.2 83.5 L161.9 82.8 L162.1 81.2 L160.9 81.4 L160.6 82.5 L160.7 80.9 L160.1 81.6 L159.8 80.3 L159 80.7 L160 81.6 L159.6 82.3 L157.6 81.4 L157.7 82.4 L156 83.1 L153.6 82.2 L153.1 81.1 L154.9 79.2 L154.7 78.1 L157.6 79 L158.3 81 L158.7 79.5 L157.3 78.7 L161.7 78.2 L160 75.4 L162.7 73.2 Z"/>
  <path d="M183.9 13 L178 15.4 L171.2 16 L169.2 15.4 L170.5 16.2 L174 16.2 L167.9 17.8 L177.7 16 L177.5 16.7 L172.2 18.4 L168.6 20.7 L166.5 19.8 L167.7 21.3 L163.6 21.2 L164.6 21.6 L163.7 21.8 L166.9 21.5 L165.4 22.3 L166 22.8 L163.3 23.3 L160.4 22.4 L159.3 22.6 L162 22.9 L161.8 24 L159 23.9 L159 24.5 L155.1 23.8 L157.4 24.6 L153.5 24.5 L160 25 L159.3 25.2 L160 25.7 L157.1 25.1 L152 25.6 L154.1 25.8 L153.2 26.8 L154.2 26 L157.7 26 L156.4 26.5 L159.4 26.5 L159.7 27.5 L156 27.7 L159 28.5 L155.6 28.9 L157.9 29.2 L157.4 29.9 L153.3 29.7 L154.2 31.3 L152.4 32.4 L148.9 32.4 L146.6 30.9 L148 32.2 L146.1 32.4 L146.8 33 L151.1 32.7 L151.9 33.2 L151.2 33.9 L152.4 34.3 L153.8 33.7 L154.1 34.9 L153 35.7 L152.3 35.2 L151.3 36.3 L148.2 37 L148.5 35.7 L146.6 35.6 L146.9 34.8 L145.3 34.3 L146.2 35.8 L144.5 35.7 L144 34.5 L144.3 35.9 L142.5 34.9 L142.6 35.7 L141.1 35.2 L142.2 36.3 L138.7 36 L138.3 35 L138.8 35.5 L138.1 36.1 L136.6 35.1 L136.8 36.1 L135 36 L134.9 34.3 L134.7 35.9 L134.6 35.2 L134.2 35.9 L132.8 35.3 L133 34.2 L134.8 33.2 L138.3 32.9 L136.3 32.2 L135.4 30.3 L139 30.5 L139.7 32 L143.9 32.3 L143.2 31.8 L145.9 29.5 L144 31.3 L141.5 31.6 L142.1 30.7 L141.2 31.3 L140.5 30.8 L141.2 30.4 L140.4 30.3 L142.4 30.1 L139.9 29.9 L142.9 29.1 L141.2 29 L141.8 27.4 L140.2 29.4 L138.8 29.4 L139.6 28.3 L136.6 29.2 L137.4 29 L136.6 28.1 L138.2 26.6 L141.1 26.2 L145.9 27.6 L145.4 27 L146.1 26.9 L144.2 26.5 L147 26.5 L147.4 25.7 L145.5 26.3 L141.5 25.7 L144.1 25.7 L142.3 25.1 L141.1 23.5 L138.5 23 L138.8 22.1 L140.7 22.3 L138.4 21.9 L138.4 20.8 L143.3 21.1 L147.1 23.6 L149 23.7 L150.5 23.2 L147.3 23.1 L147.5 22.2 L144.4 20.7 L153.5 19.9 L150.1 19.6 L156.4 18.6 L152 18.6 L155.7 16.4 L152 17.8 L151.5 17.6 L151 17.4 L151.6 18.3 L148.5 19.5 L144.4 19.9 L146.9 18.8 L144.1 18.8 L143.1 20 L139.1 20 L138.6 19.8 L138 19.7 L140 18.2 L145.8 17.5 L139.7 18 L136.7 19.6 L133.2 18.4 L138.5 18.1 L141.6 17 L132.3 18.1 L131.7 17.4 L134.1 17.2 L132.3 16.8 L137.1 16.2 L131.2 16.7 L131.3 16.6 L130.6 16.4 L132.9 15.7 L129.6 16.1 L128.7 15.7 L129.1 15.3 L133.4 15 L135.6 13.9 L141.5 14.8 L137.8 13.5 L141.7 12.4 L144.5 14 L146.7 14.2 L144.8 13.2 L151.4 15 L145.2 12.8 L147.4 12.4 L145.8 11.8 L149 12.2 L147.3 11.1 L152.7 11.7 L149.4 11 L151.3 10.5 L155.2 11 L157.4 12 L156.8 12.6 L158.3 11.9 L154.7 10.5 L157 10.2 L163.3 11.6 L161.4 10.7 L163.9 10 L166.5 10.9 L165.3 10.4 L166.5 10 L174.6 10.7 L170.4 11.9 L177.5 10.8 L179.7 11.1 L179 11.5 L180.6 12 L179.8 12.6 L183.9 13 Z"/>
  <path d="M112.7 61.4 L111.9 61.9 L111.7 61 L111.3 62 L110.3 60.9 L109.5 61.5 L109.8 62.4 L108.1 61.8 L108.9 62.5 L108.5 64 L110.2 62.5 L110.8 62.8 L110.3 63.6 L111.2 63.9 L109 65.3 L105.1 64.9 L105.4 64.1 L102.8 63.8 L102.5 62.6 L101.2 64.4 L98.3 65.5 L90.5 66.6 L90 63.7 L84.7 62.9 L83.1 60.6 L88.3 59.4 L91.8 59.9 L93.7 59.3 L89.3 57.9 L82.8 58.3 L81.4 56.7 L87.4 54.7 L81.7 55.3 L82.6 54.2 L80.4 54.5 L80.1 53.3 L81.9 52 L81.2 50.9 L83.2 49.4 L88.2 47.6 L89.3 48.4 L89.3 49.8 L88.3 50.7 L89.8 50.6 L91.3 49 L94.2 50.1 L93.2 52.1 L94 51.1 L94.6 51.8 L95.1 50.7 L96.7 51.3 L95.9 50.3 L96.8 50.1 L95.1 49 L97 49.3 L98.9 50.7 L99.5 54 L100.4 54.4 L101.3 53.3 L99.5 48.4 L100.2 48.3 L99.8 47.7 L101.6 48.4 L102 47.8 L104.8 50 L106.6 55 L106 56.4 L107.9 58.3 L109.1 58.7 L108.8 58 L111.5 60.2 L112.5 59.9 L112.7 61.4 Z"/>
  <path d="M173 156.5 L171.9 154.5 L171.9 149.1 L171.1 148 L169.9 148.7 L169.3 147.6 L166.4 156.2 L165.6 156 L165.3 157.1 L159.5 157.1 L161.7 155.5 L162.3 153.1 L164 151.2 L167 149.4 L170.8 143.4 L174.7 140.9 L177.1 140.9 L178.3 142.1 L177.7 142.2 L178.1 144 L176.2 145.6 L175.3 144.7 L173.6 145.6 L174.5 145.3 L175.7 147 L177.3 146.3 L176.2 149.1 L177.3 149.1 L177.4 152 L179.1 152.8 L178.5 153.2 L179.1 153.9 L181.1 154.2 L180.9 154.8 L182.5 153.7 L183.6 155.2 L183.2 155.8 L184.1 156.1 L180 158.6 L179.3 158.2 L179.4 159.3 L178.9 158.3 L178.6 159.2 L178.1 158.8 L178.3 159.8 L176.1 163 L174.9 162 L175.4 158.7 L174.8 159.3 L177.8 155.8 L178.4 157.2 L179.8 155.7 L177 155.9 L178.2 154.2 L177.3 152.9 L177.3 154.8 L175.3 156.3 L175.1 155.3 L174.4 156.8 L173 156.5 Z"/>
  <path d="M86.9 47.1 L80 50.5 L79.7 51.6 L78.1 51.9 L77.4 54.9 L75.4 55 L73.6 56.4 L69.6 53 L68 53.1 L71.8 46.1 L70 43.8 L75.7 43 L79.4 44.3 L78.9 45.1 L80.1 44.4 L80 45.2 L80.8 44.3 L82.6 44.2 L86.9 47.1 Z"/>
  <path d="M120.3 21.9 L124.3 22.1 L123.6 21.7 L124.9 21.3 L120.2 20.7 L122.5 20.7 L121.3 20.2 L122.1 19.7 L125.4 20 L122.3 18.8 L123.4 17.9 L126.5 17.8 L124.3 17.2 L126.4 16.7 L128.9 17.5 L131 19.9 L133.9 20.2 L133.5 20.9 L134.9 21.7 L135.5 21.6 L134.7 20.4 L136.3 20.4 L136.5 21.3 L135.6 21.5 L137.5 22.2 L136.7 22.7 L137.6 22.4 L136.8 23.9 L138.9 23.4 L139.3 24.2 L139.9 23.5 L141.3 24.8 L137.6 25.6 L136.4 27.3 L136.2 25.5 L135.5 25.9 L135.1 27.2 L135.9 27.6 L134.3 27.4 L134.3 29.1 L132.3 27.4 L133 29.2 L131.9 28.5 L130.8 28.5 L131.6 29.2 L128.4 28.9 L126.9 27.8 L129.3 27.6 L126.3 27.5 L125.4 26.7 L126.7 26.7 L124.5 25.9 L131.5 24.9 L127.4 24.9 L130.2 24.4 L126.7 24 L125.2 24.9 L124.2 24.2 L122.8 24.8 L121.9 23.8 L124.5 22.9 L121.7 23.4 L120.3 21.9 Z"/>
  <path d="M150.9 41.4 L150.2 42.1 L149.3 41.7 L149.6 43 L147 43.4 L144.8 43.1 L143.8 41.7 L143.8 43 L141.8 43.3 L141.2 42.5 L140.9 43.3 L140.2 42.5 L140 43.3 L134.8 43.3 L134.8 41.7 L133.2 43.1 L130.4 42.5 L130.8 41.8 L129.5 42.7 L127.7 40.5 L128.4 38 L126.6 36 L122.5 36.5 L123.6 36.2 L121.5 35.8 L122.2 35.1 L119.7 34.6 L120.9 34.5 L120 33.7 L121.9 33.3 L125.6 33.9 L126.5 34.6 L125.9 36 L126.7 35 L130.4 34.9 L131.3 35.7 L129.6 35.7 L133.6 36.6 L129.3 36.4 L131.8 37.2 L130.2 37.3 L130.2 38.1 L132.3 37.4 L132.6 38.3 L133.7 38.3 L132.6 39.1 L134.1 39.7 L134.4 38.7 L138.6 39.9 L142.9 38.1 L148.1 38.3 L147.8 38.8 L151 39.8 L149.3 41.2 L150.9 41.4 Z"/>
  <path d="M104.6 38.7 L103.6 41.1 L100.9 41.6 L100.4 40.9 L99.2 41.7 L98.3 41.1 L91 43.7 L88.5 42.4 L94.8 40.4 L89.5 41.1 L89.6 40 L90.5 39.7 L89.1 39.5 L88.9 40.5 L88.1 40.3 L88.5 41.1 L87.4 41.5 L87 40.6 L86.2 41.4 L85.2 40.5 L82.7 40.4 L83.5 39.5 L87.4 38.7 L83.4 39 L87.7 38 L84.4 37.9 L85.4 36.7 L88 36.9 L85.8 36.4 L87.6 35.5 L89 35.7 L89.2 36.7 L92.1 36.8 L93.3 37.7 L92.4 38.2 L93.8 38.1 L94.1 39.3 L98.4 39.5 L98.4 38.6 L96.3 37.9 L97.6 37 L95.7 35.8 L98.6 34.1 L98.9 35.9 L99.8 36.4 L99.1 37.3 L100.6 37.4 L99.9 38.3 L101.4 37.8 L102 38.8 L102 37.6 L103 37.2 L104.6 38.7 Z"/>
  <path d="M199 147.4 L198.3 150.7 L197.3 150.9 L197.4 148.6 L196.2 150.1 L196.9 147.8 L196.4 146 L195.9 147.7 L193.6 150 L193.2 149.1 L195.3 146.8 L194 146.6 L193.8 147.9 L193.5 147.2 L192.8 147.6 L193.7 146.8 L193.4 145.7 L191.6 147.4 L189 146.5 L187.1 147.1 L186.9 145.9 L188.9 143.6 L187.2 143.5 L188.1 142.5 L188.2 143.4 L188.8 141.1 L189.6 141.8 L189 140.1 L190 139.9 L189.5 139 L190.5 135.1 L193.2 131.6 L194 132.3 L192.8 132.5 L193.5 133.7 L191.5 139.6 L192.8 137.2 L192.7 138.1 L194 137.9 L192.8 140 L194.1 139.7 L194.3 140.5 L194.6 139.6 L194.1 141.5 L195.6 139.6 L195.7 140.7 L196.5 139.8 L197.6 140.7 L196.2 142.6 L197.3 142.9 L196.3 144.2 L198.2 142.8 L198.4 143.5 L197.3 144.9 L196.7 144.6 L197.3 145.4 L196.8 146.6 L197.4 147.3 L198.6 144.9 L197.9 147.3 L198.2 147.8 L198.8 146.3 L199 147.4 Z"/>
  <path d="M120.9 51.1 L119.9 51.7 L120.4 53.6 L118.4 54.4 L117.4 54.2 L117.3 53.3 L117.8 54.8 L116.5 55.7 L109.4 49.7 L110.2 48.7 L112.6 50.3 L113.7 49.9 L113.5 48.9 L114.2 49.5 L113.2 48.4 L114.7 48.2 L111.4 47.2 L112.7 46.7 L113.5 47.5 L112.3 46.3 L112.7 45.8 L114.3 46.2 L114.6 45.6 L113.8 45.5 L114.6 45.4 L115.8 46.4 L118.4 45.5 L119.8 46.3 L118.5 47 L119.4 47.7 L118.1 48 L117.1 49.6 L118.5 48.9 L119.4 50.6 L120.5 50 L120.9 51.1 Z"/>
  <path d="M149.7 84.7 L148.1 85.9 L145.6 85 L145.9 84.2 L144.6 84 L144.4 83.1 L140.6 87.2 L139.9 84.7 L137.3 85.5 L137.6 84.2 L139 83.5 L139.4 77 L140.3 76.4 L141.3 79.1 L141.9 78 L146.3 81.1 L147.2 82.9 L146.5 83.8 L148.5 83.3 L149.7 84.7 Z"/>
  </g>
</svg>
