<svg xmlns="http://www.w3.org/2000/svg" viewBox="0 0 240 180">
  <g fill="#17324a" stroke="#fffaf3" stroke-width="3.2" stroke-linejoin="round" stroke-linecap="round">
  <path d="M155.8 155.3 L156.7 156.2 L156.4 157.2 L155.9 157.8 L154.4 159 L154.9 159.4 L154.3 160.5 L153.9 161.5 L153.4 162.3 L152.5 162.7 L145 162.4 L143.4 161.8 L141.7 161.2 L139.2 159 L138.2 157.8 L138.2 155.7 L135.5 154.3 L134.2 151.2 L135.5 148.4 L135.5 147.5 L134.6 145.2 L135.3 145 L135.6 144.6 L136.8 141.3 L136.6 140.2 L136.1 138.9 L135.4 137.8 L134.6 137.4 L135.1 137.2 L136.4 136.5 L135.5 136.1 L135 136 L136.8 134.6 L137.7 136 L138.9 135.3 L139.9 135.9 L140.3 137.1 L139.5 137.9 L140.3 139.1 L141.3 139.8 L143.5 141 L143 141.5 L144.1 141.8 L144.6 142.2 L145.6 143.8 L147.6 146 L152.3 148.4 L155.8 155.3 Z"/>
  <path d="M53.6 20.8 L53 21.5 L49.1 23.3 L44.5 28 L37.4 28.7 L36.6 28.1 L36.4 27.3 L36.4 22.8 L33.4 19.5 L36.2 16.1 L38.6 16 L43.6 12.5 L50 10 L54 10.9 L54.9 13.5 L58.4 16 L55.6 19.9 L53.6 20.8 Z"/>
  <path d="M205.6 82.4 L206.6 83.9 L205.7 85.8 L197.6 91 L193.9 91.2 L193.3 91.1 L187.9 88 L187.9 84.1 L190.7 81.6 L190 75.8 L190.6 73.7 L194.6 76.2 L196.1 76.4 L198.4 74.5 L202.2 75.5 L202.9 75.8 L205.6 78.7 L205.8 79.9 L205.6 82.4 Z"/>
  <path d="M101.8 162.4 L101.6 166 L99.4 168.1 L96.7 169.2 L94.2 168.9 L92 167.7 L88.3 164.6 L87.4 163.3 L87 161.9 L89.4 157.5 L91 156.4 L94.9 154.3 L96.1 154 L97.4 153.9 L98.8 154.2 L99.7 155 L100.3 156 L101.8 162.4 Z"/>
  <path d="M116.5 49 L118.8 50.1 L118.8 52.4 L118 52.6 L113.5 52.6 L108.5 50.4 L105.9 49.8 L103.4 50.7 L102.5 51.9 L100.6 55.2 L100 57.7 L97 50.8 L94.6 49.9 L93.6 48.7 L93.2 47.3 L93.7 45.7 L97.6 44.4 L102 47.1 L102.7 47.1 L106.3 46.6 L116.5 49 Z"/>
  <path d="M176.9 136 L178 145.4 L176.9 147.1 L173.4 149 L168.9 146.1 L169 142 L169.9 141.4 L170.3 140.6 L170.1 139.8 L169 139.7 L171.7 136 L171.2 135.5 L172.1 135.2 L172.9 134.6 L173 134.9 L172.9 135.5 L173.8 134.6 L174.7 136 L176.2 135.6 L176.9 136 Z"/>
  <path d="M61.7 30.2 L64.5 33.2 L64.7 34.1 L64.6 34.8 L63.6 35.6 L57.4 37.5 L56.9 37.4 L52.8 35.9 L51.4 34.4 L50.5 34.8 L52.5 31.4 L56.2 30.7 L55.8 29.7 L57.6 28.8 L58 28.3 L58.4 28.3 L58.8 29.2 L61.2 28.6 L61.7 30.2 Z"/>
  <path d="M189.7 50.3 L188.9 45.3 L187.9 43.2 L186.6 43.9 L186.3 43 L187 39.3 L186.3 39.1 L185.8 38.5 L185.7 37.6 L185.7 35.5 L187.1 34.4 L190.1 32.5 L191.9 34.6 L190.9 36.3 L191.5 36.8 L191.3 40.8 L192.8 43.7 L191.5 47.6 L191.9 49 L189.7 50.3 Z"/>
  <path d="M75.6 163.5 L76.9 167.4 L76.7 168.5 L74.7 170 L72.6 167.7 L72.1 168.1 L72.1 165.8 L73 165.8 L72.7 164.5 L75.6 163.5 Z"/>
  <path d="M71.1 36.4 L72.7 37 L73.6 37.9 L74.2 39.4 L75.4 39.7 L76.2 39.2 L76.9 39.5 L76.8 40.3 L73.3 40.9 L70.2 38.2 L70.2 37.2 L71.1 36.4 Z"/>
  <path d="M82.8 48.3 L84.3 48.6 L83.9 49.5 L83 49.4 L82.2 49.2 L82 48.5 L82.8 48.3 Z"/>
  </g>
</svg>
