<svg xmlns="http://www.w3.org/2000/svg" viewBox="0 0 240 180">
  <g fill="#17324a" stroke="#fffaf3" stroke-width="3.2" stroke-linejoin="round" stroke-linecap="round">
  <path d="M75.1 113.7 L72.9 110.6 L70.7 107.5 L69.2 100.1 L71.2 99 L72.9 94.3 L78.1 87 L88.7 75.4 L91.2 45.4 L93.5 41.1 L89.5 36.7 L89.9 34.7 L85.9 29.5 L84.1 14.4 L93.7 10 L170.8 49.5 L170.8 87.3 L162.5 87.4 L160.4 89.1 L161.1 90.8 L160.5 93.3 L158 95.9 L158.2 97.6 L155.2 99.1 L156.9 103.1 L153.7 104.9 L152.4 106.7 L154.2 111.2 L151.3 113.5 L149.8 116.6 L151 118.1 L153.6 117.1 L156 118.4 L155.3 120 L156.1 124.2 L157.6 123.8 L156.9 128.2 L159.1 130.5 L160.4 130.4 L160.6 133.7 L160 135.3 L156 134.5 L149.1 138.1 L149 141.6 L147 142.5 L145.6 144.8 L144.6 144.7 L140.3 150.4 L138.8 151.5 L137.6 151.3 L136.6 153.2 L133.4 153 L131.3 154.1 L122.7 154.8 L121.5 156.1 L123.9 157.8 L118.8 164.1 L109.6 164.7 L101.7 169.1 L99.7 167.8 L99.1 165.9 L97.6 166.7 L97.4 167.8 L93.1 169.7 L88.8 169.3 L89.6 166.6 L88.4 166.2 L85.8 159.6 L77.9 152.9 L74 148.2 L76.4 144.7 L82 145.3 L90.7 144.6 L85.4 139.1 L84.4 133.7 L85.5 129.2 L85.2 126.7 L84.6 123.7 L83.1 122.8 L82.4 118.1 L79.8 116.8 L78.7 113.8 L78.5 113.7 L75.1 113.7 Z"/>
  </g>
</svg>
