<svg xmlns="http://www.w3.org/2000/svg" viewBox="0 0 240 180">
  <g fill="#17324a" stroke="#fffaf3" stroke-width="3.2" stroke-linejoin="round" stroke-linecap="round">
  <path d="M126.2 10 L127.7 12.2 L128 16.1 L129.8 18 L128.9 19.2 L129.5 20.2 L128.6 20.9 L128.7 22.2 L130.7 26 L131.7 32.3 L134 32.3 L134.6 33 L134.6 33.1 L133.5 37.2 L129.6 39.7 L130.1 41.9 L129.3 43.2 L129.9 46 L129.3 47.7 L130.3 49.5 L128.5 50.3 L127.4 53.6 L125.7 55.6 L124.4 59.4 L125.1 63.2 L124 63.8 L123.7 66.7 L122.7 67.6 L124.6 74.4 L124.2 75.7 L125.3 76.5 L125.2 80 L124.4 80.2 L122.6 84.3 L123.3 87.7 L120.7 90.3 L120.6 94.6 L121.8 98.3 L119.8 99.7 L119.6 102.4 L118.8 102.4 L119 105.5 L118 107.2 L118.7 113 L117.4 113.7 L117.4 116.9 L118.7 117.5 L118 118.6 L119 120.6 L118.3 122.5 L120.8 123.3 L120.2 124.3 L117.6 124.1 L120.2 126.2 L118.6 127.5 L119.2 129.2 L118.1 130 L118.9 132.2 L118 132.7 L118.3 134.4 L116.6 135.4 L116 137.3 L116.9 139.1 L115.9 139.6 L115.9 141 L112.5 144.1 L113.9 149.2 L116.8 148.8 L116.3 152.6 L118.1 154.4 L124.7 154.5 L129.8 155.9 L127.2 155.3 L125.7 156.7 L121.7 157.4 L121.3 161.8 L120.1 162.3 L116.3 160.3 L118.4 159.6 L117.8 161 L118.5 160.8 L120.7 157.8 L119.9 157.5 L117.8 159.2 L116.1 158.9 L117.2 159.3 L115.7 160 L116.6 160.9 L113.5 159.3 L115.4 159.9 L114.6 157.9 L119.3 156.8 L116.4 157.2 L116.5 156.5 L115 156.5 L114.5 157.4 L115.6 157.2 L113.9 159.1 L113 158.7 L113.8 158.2 L112.6 157.8 L114.8 156.5 L113.8 156.2 L113.6 157.3 L113.1 156.7 L112.1 157.4 L112.8 156.4 L112.1 154.5 L113.4 155.4 L114.5 154.7 L114.2 155.4 L115 155.5 L115.2 154.2 L116.1 155.4 L114.7 156.3 L116.2 156.3 L115.6 154.3 L116.3 153.6 L113.6 152.2 L116 153.5 L113.5 152.8 L114.5 153.6 L113.9 154 L114.8 153.8 L113.7 154.8 L113.2 153 L113.3 155.1 L112.3 153.8 L113.2 154.5 L112.9 153.1 L111.5 152.9 L111.5 151.8 L112.5 152.8 L112.2 150.8 L110.8 151.1 L110.9 150.1 L110.3 150.4 L112.9 148.8 L112 148.4 L112.4 147.8 L110.9 149.5 L110.1 148.1 L111.5 148.4 L111.1 147.6 L108.8 146.9 L110 146.4 L111.6 147.3 L109.9 146 L111.5 146.4 L111.5 145.5 L110 145.5 L110.9 145 L110 144.7 L111 144.1 L112.2 145 L110.7 143.7 L110.9 143 L111.7 143.3 L111 142.2 L111.7 142 L110.9 141.9 L110.4 144.1 L109.7 143.5 L109.6 141.1 L110.9 140.8 L109.8 140.2 L111.2 140.2 L111.5 139.4 L109 137.7 L110.4 138.7 L110.1 137.6 L111.9 137.8 L112.7 138.7 L113.6 138.1 L112.3 137.3 L113.7 137.6 L112.1 136.8 L112.1 135.7 L111.8 136.9 L108.7 136.6 L109.3 135.8 L110.4 136.7 L111 136.1 L109.4 135.5 L110 134.4 L111.2 134.6 L110.7 132.8 L107.7 132.5 L108 131.1 L105.8 132.2 L106.6 132.9 L105.9 133.3 L105.4 131.9 L108.5 130.2 L109 128.5 L109.6 129.4 L109.9 128.4 L111.2 129.8 L109.5 130.1 L111.7 130.7 L111.5 129.9 L111.2 131.7 L112 131.5 L113.3 129.5 L112.2 130.7 L112.4 128.9 L113.9 127.9 L112.5 128.4 L112.7 127.1 L113.6 126.4 L115.1 126.9 L113 126.3 L113.1 125.2 L115.8 123.1 L115.9 122.4 L115.4 123 L113.5 121.5 L114.4 120 L115.1 120.2 L114.1 118.6 L115.4 117.1 L114.9 115 L116 114.8 L115 113.7 L115.9 113.3 L116.4 114.5 L116.3 112.5 L114.9 112.2 L116.8 111.1 L116.8 109.9 L116.4 111.2 L114.6 110.4 L114.1 111.5 L112.8 111.8 L111.9 111.5 L112.8 110.5 L111.8 110.7 L111.3 108.6 L112.1 104 L113.2 103.8 L113.8 101.4 L112.2 93 L112.4 92.3 L113.8 92.3 L113.8 90.6 L114.1 89.9 L114.6 90.3 L119.1 77.4 L118.7 75.2 L119.8 72.2 L118.8 64.8 L120.3 61.9 L119.5 57.7 L122.5 47 L122.1 44.6 L123.1 42.9 L122.6 39.4 L123.3 35.6 L122.5 34.5 L123.6 32.7 L124.4 26.5 L123.3 13.4 L125 12.8 L125.1 10.8 L126.2 10 Z"/>
  <path d="M129.1 166.2 L127.5 166.8 L124.7 165.6 L124.3 166.4 L123.5 166.3 L123.8 165.7 L121.8 166.3 L122.9 165.4 L121.1 166.1 L121.4 165.4 L118 165.6 L117.8 164.7 L120.9 165 L121.9 164.1 L122.5 164.2 L122 165.3 L122.6 164.4 L124.1 165.1 L121.5 163.3 L124.1 164.6 L124.5 163.9 L125.2 165.1 L125.1 164 L126.3 164.2 L127.2 164.7 L126.7 165.7 L128 164.8 L124.1 162.6 L124.1 161.7 L126.9 160.7 L126.8 160.1 L123 160.1 L123.1 158.7 L124.3 158.4 L123.1 157.6 L124.9 158 L126.6 156.3 L127.5 157.3 L129.2 157.1 L129.1 166.2 Z"/>
  <path d="M110 117.9 L110.9 111.8 L112.6 111.7 L113.2 113.9 L111.7 114.8 L112.9 116.1 L112.1 116.2 L112.8 117.3 L111.9 117.2 L111.8 118.5 L110 117.9 Z"/>
  <path d="M107.1 145.1 L106.2 143.2 L107.2 144 L106.7 142.9 L108.1 143.4 L108.4 141.7 L107.6 141 L108.8 140.5 L109 141.3 L109.3 140.6 L109.6 145.8 L108.1 145.9 L108.7 145.4 L108.1 144.4 L108.8 144.5 L108.1 144.2 L109 143.3 L107.7 144 L107.7 145.6 L107.1 145.1 Z"/>
  <path d="M131.3 169.6 L129.3 168.7 L128.3 169.1 L128.6 167.8 L126.5 167.7 L127.4 169.2 L125.3 168.3 L126.3 167.7 L124.5 167.6 L129.8 166.7 L130.2 167.3 L129.4 167.6 L127.7 167.3 L130.3 167.9 L128.8 168.1 L131.3 169.6 Z"/>
  <path d="M116.1 163.1 L114.4 163.1 L115.2 163.1 L115.2 162 L113.5 162.7 L113.7 161.6 L112.4 161.2 L114.7 161.4 L113.1 160.7 L114.3 160.2 L114.9 161.5 L115 160.5 L115.5 161.4 L116.3 161 L117.4 162 L116.1 163.1 Z"/>
  <path d="M131.7 168 L130.1 166.7 L134.5 167.3 L133.8 168.3 L131.7 168 Z"/>
  <path d="M113.2 123.4 L114.2 122.5 L115.4 123.1 L113.6 124.9 L113.2 123.4 Z"/>
  <path d="M123.1 161.2 L123.5 162.8 L122.3 162.6 L122.6 163.7 L121.6 162.2 L123.1 161.2 Z"/>
  <path d="M113.8 160 L110 159 L108.6 157.6 L113.8 160 Z"/>
  </g>
</svg>
