<svg xmlns="http://www.w3.org/2000/svg" viewBox="0 0 240 180">
  <g fill="#17324a" stroke="#fffaf3" stroke-width="3.2" stroke-linejoin="round" stroke-linecap="round">
  <path d="M29.1 101 L28.4 97.9 L29.4 97 L26.8 95.4 L26 91.7 L21.9 91.3 L20.6 89.9 L19.2 90.3 L17.9 86.4 L12.7 84.3 L15.6 83.2 L14.6 82.3 L14.5 78.7 L12.6 77.6 L10.7 77.9 L10.1 74.1 L11.2 73.5 L11.3 71.5 L14.5 70.2 L14.4 69.4 L15.8 69.7 L17 68.9 L17.5 70.4 L19.8 70.1 L21.7 67.2 L26.1 67.1 L28.2 64.8 L33.7 62.7 L33.5 59.9 L35 58.9 L34.3 58.2 L35.9 57.7 L34.2 53.4 L34.8 50.7 L32.4 50 L39 47.9 L39.9 48.8 L42.1 48.9 L42.5 47.6 L41.3 46.9 L43.8 39.7 L49.9 40.7 L50 41.4 L52.8 40.4 L53.4 39.7 L53.1 35.5 L53.6 34.6 L53.7 34.4 L56.6 33.9 L57.8 31.2 L61.1 31 L60.8 32.3 L62 33 L61.8 33.8 L65.5 36.2 L67.3 36 L70.2 37.7 L72.6 41.8 L72.6 44.9 L71.3 47.3 L72.1 48.7 L81 49.5 L85.9 52.4 L88.3 52.6 L88.1 53.9 L88.9 54.1 L91.8 59.6 L110.4 60.4 L112 61.9 L118.2 63.9 L121.1 63.4 L121.1 64.3 L122.8 64.6 L129.3 61.5 L139.1 60.8 L142.4 59.4 L144.8 56.7 L147.9 55.3 L145.9 52.4 L147.9 49.1 L154 50.6 L157.2 47.8 L161.3 47.5 L163.3 46.1 L164.5 43.7 L167.3 43.5 L167.5 42.5 L172.7 41.6 L176.4 42.1 L175.9 40 L171.4 36.2 L169 36.1 L167.4 37.7 L165.6 36.7 L162.2 37.6 L160.7 35.6 L161.8 35.1 L161.7 33.9 L164.9 28.1 L169.1 29.5 L174.5 26.8 L174.6 25.8 L173.8 25.6 L174.3 24.6 L177.2 19.9 L179.7 17.9 L179.5 16 L177.2 15.8 L177 15 L180 12.7 L188.7 11.4 L197.1 13.7 L197.2 14.5 L198.8 15 L198.4 15.8 L200 17.1 L199.6 17.6 L200.4 17.7 L200 18.4 L201.4 21.7 L202 21.5 L203.2 25.8 L204.2 26.4 L203.9 28.1 L205 29.1 L208.1 29 L209.6 30.2 L210.9 29.8 L213.7 32.3 L215.3 32.3 L214.7 33.4 L215.8 34.9 L215.2 35.8 L216.5 37.6 L221.9 37.5 L223.9 35.7 L228.5 34.5 L229.8 35 L229.2 36.1 L230 37.4 L227.9 39.1 L226.9 43.9 L224.1 47.5 L224.1 48.9 L223.3 49.4 L219.4 48 L217.9 49.7 L216.2 50.2 L217.4 53.7 L217.4 56.8 L216.8 58.8 L214.3 59.5 L214.9 60.3 L212.5 58.3 L211.8 60.8 L210.5 60.8 L208.9 62.7 L205.7 62.9 L206.7 64.5 L206.2 65.6 L201 63.9 L198.5 67.7 L194.5 69.5 L192.3 72 L188.5 72.5 L185.1 74.5 L183.6 76.4 L182.8 76.1 L183 76.7 L181.2 77.3 L180.9 76.3 L182.9 75.7 L182.6 74.9 L183.9 74.3 L181.3 73.7 L182.4 73.4 L182.2 72.5 L185.1 69.6 L183.6 67.2 L183.1 67.9 L180.4 68 L178.5 70.8 L174.5 72.9 L173.1 75.5 L168.7 75.6 L168 77.8 L169.9 79.9 L173.1 80.1 L174.2 81.8 L173.1 82.6 L173.8 84.2 L175.9 84.4 L177.6 81.9 L179.4 81.3 L182.5 83.1 L184.3 82.5 L186.5 83.1 L185.5 84.8 L186 85.4 L183.8 85 L182.7 86.1 L179.6 86.7 L180.3 87.4 L179.4 87.5 L179.4 88.8 L178 89.2 L178 88.2 L177.2 88.4 L178 89.5 L174 93.6 L174 95.1 L177.8 96.9 L180.1 102.6 L179.9 104.1 L183.8 108.3 L180.4 108 L179.2 106.8 L177.5 107.5 L175.5 105.6 L177.3 107.6 L179.6 107.3 L179.5 108 L183.9 111.7 L180.5 113.5 L179.9 114.7 L178.4 114.3 L177.4 115.2 L179.1 114.4 L179.7 115.8 L179.6 115 L181.6 114.5 L184.6 116.6 L182.1 118.1 L182.2 118.8 L184 117.9 L183.9 119.6 L183.3 118.8 L183.1 119.7 L182.5 119.1 L181.9 119.8 L182.9 120.4 L182.2 120.8 L182.7 121.7 L181 121.2 L182.8 123.5 L181.6 124.3 L181.1 123.2 L180.3 125 L178.9 124.4 L180 125.4 L178.7 128.5 L177.6 128 L178.4 128.7 L177 129.8 L177.4 130.9 L176.3 131.5 L177.2 130.3 L176.5 130.9 L176.3 130 L175.9 130.7 L175.3 130.3 L176.2 131.6 L175.3 131.9 L176.7 132.2 L174.9 133.9 L173.6 133.2 L174.5 134.1 L175.8 133.8 L174.9 135.2 L175.6 136.7 L174.4 135.5 L173.6 136.4 L174.5 137.2 L172.8 137.2 L173.3 138.5 L171.7 138.8 L172.4 139.2 L171.9 140.3 L171.2 139.6 L170.5 140.3 L170.3 139.6 L169.8 140.7 L168.9 140.6 L170.1 141.5 L168.8 143.1 L168.5 142.4 L168.2 143.8 L167.6 142.9 L167 144.4 L165.8 144.2 L165.3 145.6 L164.4 145.2 L165.4 146.1 L164.3 146.1 L164.3 147.4 L161.9 148.2 L160.3 147.4 L161 148.6 L159.7 148.1 L160 147.5 L158.9 148.5 L158.4 148.1 L158.6 149.1 L158.1 147.9 L157.1 148.6 L157.4 149.4 L156.7 148.8 L154.9 149.5 L153.6 147.2 L154.7 146.6 L153.1 146.7 L153.4 147.5 L152.5 147.6 L153.8 149 L153.4 150.9 L152.3 149 L153.1 150.8 L152.2 151.4 L152 150.6 L151.4 152.2 L151 151.7 L150.1 152.6 L149.5 151.3 L149.3 152.8 L147.7 151.9 L148.1 152.6 L146.9 152.5 L146.8 153.6 L144.6 153.6 L142.6 155.1 L142.2 154.1 L141.4 156.3 L142.8 158.5 L142 159.3 L140.6 159.4 L141 158.6 L140 157.6 L139.7 155.4 L140.7 153.8 L139.6 153.7 L139.4 152.6 L139.3 153.8 L137.9 154.2 L135.8 151.8 L135.4 153.5 L134.9 152.8 L133.6 154.1 L133 153.1 L131.3 153.3 L130.1 151.8 L128.9 151.7 L128.4 149.6 L129.4 148 L125.9 147.5 L124.1 145.5 L122.2 146.7 L121.8 148 L119.6 148 L119.2 149.3 L118.1 148 L117.5 149 L116.9 148 L115.9 149.6 L113.8 148.1 L113 149.7 L111 149.4 L110.4 150.5 L111.3 155.4 L109.3 155 L109 152.6 L105.5 154.1 L104.7 151.4 L101.9 151 L103.3 147.3 L100.8 146.3 L100.1 142.8 L100.9 142 L98.1 142.2 L96.4 143.4 L96 142.9 L96.8 141.9 L96 140.6 L97 137.2 L100.2 134.5 L100.2 126.8 L99.2 126.3 L98.8 127 L98.2 124.3 L96.6 122.7 L95.3 124 L91.6 123.1 L92.7 121.8 L92.2 120.5 L91.3 120.7 L91.8 119.2 L89.8 118.9 L88 120.3 L85.5 119.1 L83.1 121.9 L80.9 122.2 L80.5 123.4 L77.3 125.9 L75.7 126.1 L73.6 124.5 L72.6 125.1 L70.7 124.6 L71.1 123.9 L69.8 123.3 L68.7 123.5 L65.4 126.8 L65.3 128 L64.6 127.7 L64.9 125.6 L64 124.5 L59.5 125.8 L57.2 124.5 L55.7 125.2 L55.1 124.2 L54.5 125.4 L53.5 123.4 L51.3 123.6 L51.6 122.3 L49 121.7 L47.7 119.3 L45.7 119.7 L44.4 117.7 L40.8 115.8 L40.4 114.5 L38 114.4 L37 116 L36.5 114.9 L33.7 113.6 L33.6 112.5 L30.9 111.5 L29.9 109.7 L28.5 110.3 L28.5 107.2 L27.2 104.7 L28.4 104.3 L29.4 105.6 L31.6 103.9 L30.6 102.8 L31.1 101.6 L29.1 101 Z"/>
  <path d="M144.5 161.8 L142.6 164.1 L142.4 166.4 L140 167.5 L139.9 168.4 L136.2 167.1 L136 163.5 L138.4 161.7 L138.2 160.9 L141.5 160.1 L143.1 160.8 L143.3 159.7 L144.5 161.8 Z"/>
  </g>
</svg>
