<svg xmlns="http://www.w3.org/2000/svg" viewBox="0 0 240 180">
  <g fill="#17324a" stroke="#fffaf3" stroke-width="3.2" stroke-linejoin="round" stroke-linecap="round">
  <path d="M63.8 115.7 L63.6 114.6 L62 113.6 L63.7 112 L66.3 112.4 L66.5 111 L65.9 110 L65.4 110.4 L65 108.4 L66.7 105.5 L68.4 104.1 L69.3 105.1 L69.4 103.9 L70.3 105.5 L70.8 104 L73.9 104.7 L73.5 102.9 L74.7 102.7 L75.2 101.9 L74.5 101.5 L75.4 101.4 L74.4 100.9 L76.7 98.6 L76.1 98.3 L77 97.2 L78.2 97.6 L78.1 95.8 L78.8 96.2 L78.2 95.4 L80.2 94.2 L79.4 93.4 L80.1 93.7 L79.6 93.4 L81 91.9 L78.9 92.6 L78.3 91.7 L79.5 90.5 L78.2 90.6 L78 91.8 L77.1 90.8 L77.2 89.4 L79 88.6 L77.6 87.8 L78.2 83.9 L78.8 84.4 L78 83.3 L77.7 77.7 L76 76.8 L79 74.4 L76.7 70.3 L76.7 69.1 L77.3 69.7 L77.7 69.1 L78 66.5 L77.4 65.3 L76.2 65.6 L75.6 64 L74.6 63.8 L74.7 61.8 L72.7 60.1 L74.3 57.3 L74 55.6 L75.8 57.3 L77.8 55.9 L78.2 53.9 L79.7 53.4 L76.6 48.3 L77.1 46.8 L77.8 46.3 L80.8 50.2 L81.7 50.2 L81.8 51.6 L82.9 51.5 L82.2 53.5 L83.7 53.5 L83.5 49 L81.8 47.6 L87.8 43.8 L89.9 40 L91.4 39 L94.5 38.9 L94.9 37.3 L93.7 36.5 L95.3 31.3 L93.8 32 L95.5 30.6 L94.9 29.8 L95.7 29.5 L95.4 28.1 L98 26.9 L97.8 26 L101.9 23 L107.1 24.1 L105.1 24.3 L105.4 25.5 L104.2 25.3 L104.2 26.2 L104.6 25.7 L105.1 26.4 L105.3 25.6 L106.2 26.5 L108.5 20.8 L116.8 21.2 L121.8 17.4 L126.5 15.6 L127.7 12 L129.3 12 L129.3 12.2 L128.9 12.6 L129.7 12.9 L130.3 12 L129.4 11.8 L131.7 10.5 L132 11 L132.6 10.4 L131.5 10.5 L132 10 L136.3 11.3 L137.4 14.2 L134.7 16.3 L129.1 17.8 L126.6 22.5 L124.3 22.9 L122.5 25.4 L120.3 29.5 L119.7 35.2 L115.8 41.6 L119.4 40.4 L119.9 42.2 L121.6 42.2 L122.6 46.6 L125.2 49.2 L125.9 51.8 L124.4 53.3 L124.5 57.7 L127.1 58.7 L129.1 62.3 L132.8 61.9 L137 62.7 L141.4 61.4 L145.1 63 L146.9 62.6 L153.5 70.8 L155.4 71.2 L157 69.9 L161.2 70.7 L167.5 69.9 L169 68.9 L172.5 70.1 L172.8 72.2 L170.7 74.4 L170.6 77 L168.9 78.3 L168.5 86.1 L170.7 93.2 L172.1 93.8 L173.9 97 L168.6 102.7 L171 102.6 L175 106.5 L174.7 107.5 L177.9 116.3 L178 117.7 L176 118.2 L175.7 113 L172.8 108.9 L168.3 112.7 L167.3 112.7 L165.4 110.1 L164.6 111.9 L165.7 112.9 L152.5 112.4 L149.5 113.1 L149.6 119.3 L154.5 119.2 L156.3 121.1 L156.4 123.2 L154.9 123.5 L152.9 122.4 L147.6 123.8 L147.5 131 L151.8 134.4 L151.7 136.4 L153.9 140.8 L148.6 169.9 L145.2 166.1 L143.5 166.6 L141.2 165.6 L147.5 155.8 L147.3 154.6 L146.7 155 L142.8 152.5 L142 152.9 L139.5 150.6 L134.6 152.2 L134.3 151 L133.9 151.6 L131.5 149.8 L127.5 152.5 L125.3 152.9 L122.9 151.8 L122.4 152.6 L120.1 152.7 L117.6 150.6 L118.4 149.3 L117.7 146.6 L114.4 145.5 L114.8 143.6 L113.5 141.5 L111.3 141 L109.2 138.9 L107.4 138.7 L106 134.6 L102.4 132.4 L102.3 131.2 L101.5 131.6 L99 129.8 L97.7 130.4 L93 128.7 L90.3 125.9 L88.1 125 L86.9 125.6 L86.8 127.1 L85.4 127.4 L77.5 125.7 L76.8 123.2 L75.1 122.6 L74.6 121.3 L73.2 121.7 L70.6 120.6 L63.8 115.7 Z"/>
  </g>
</svg>
