<svg xmlns="http://www.w3.org/2000/svg" viewBox="0 0 240 180">
  <g fill="#17324a" stroke="#fffaf3" stroke-width="3.2" stroke-linejoin="round" stroke-linecap="round">
  <path d="M57.8 82.3 L62.8 90.4 L62.7 91.8 L59.9 98.2 L58.8 99 L57.3 99.4 L55.2 99.7 L53.4 99.5 L52.6 98.4 L51.6 96.4 L43 88.4 L32.5 86.7 L30.8 85.7 L27.8 83.3 L25.2 77.4 L21.3 73.6 L19.6 71.1 L18.9 67.2 L19.3 65.7 L20.3 63.8 L23.7 58.9 L23.1 53.7 L25.2 26 L24.9 24.1 L24.1 22.5 L28.6 12.9 L40.8 10 L43.6 11.1 L45.5 13.6 L46.8 16.1 L47.5 19 L44.1 48.3 L45.5 54.6 L52.3 64.5 L54.8 70.9 L54.8 77.4 L57.8 82.3 Z"/>
  <path d="M221.1 146.8 L221 166 L220.2 168.8 L218.4 170 L214.2 166.5 L212.5 162.1 L201.2 154.2 L199.9 152.2 L199 149.8 L196.7 148.6 L190.6 147.4 L181 142.5 L179.8 141.4 L173.6 137.8 L171.5 135.5 L174 135.4 L189.4 139.8 L192.6 137.6 L197.2 138.6 L201.3 134.9 L203.6 129 L203.1 123.7 L211.6 120.4 L214.2 123.7 L220.7 144.6 L221.1 146.8 Z"/>
  <path d="M107.3 158.7 L108.6 159.2 L116.8 164.6 L118.5 167.3 L118 168.6 L115.7 168.9 L112 168.9 L101.6 166.8 L90.8 166.5 L88.4 165.6 L87.4 160.3 L83.6 157.6 L83.1 155.5 L82.9 149.8 L83.8 147.5 L86.3 148.4 L88.5 149.6 L95 150.8 L97.9 151.7 L105.9 157 L107.3 158.7 Z"/>
  </g>
</svg>
