<svg xmlns="http://www.w3.org/2000/svg" viewBox="0 0 240 180">
  <g fill="#17324a" stroke="#fffaf3" stroke-width="3.2" stroke-linejoin="round" stroke-linecap="round">
  <path d="M188.7 14.2 L188.5 20.6 L186.9 21.8 L184.4 28.2 L181.5 32.1 L178.6 38.4 L178.6 49.2 L176.6 56.1 L174.8 59.3 L176.2 71.1 L176.1 71.4 L174.5 73.6 L172 81.6 L172.6 87.6 L164.4 96.7 L159.4 98 L155.8 101.2 L150 112.6 L144.1 118 L144.7 126.3 L143.8 130.8 L144.7 138.7 L139 149.8 L132 152.4 L130.5 155.3 L126 157.5 L119.3 166 L116.2 167.8 L113.4 166.7 L111.2 167.6 L111.4 163.7 L110.3 161.6 L112.5 159.2 L110.7 156.4 L104.3 158.9 L102.9 160.4 L101.5 160.3 L100.4 159.1 L98.7 159.6 L98.6 163.9 L96.2 165.7 L94.4 165.5 L92.8 167.5 L92 165.7 L88.9 163.9 L87.6 161.9 L86.9 163 L83.2 158.9 L81.2 158.5 L78.7 161.6 L74.3 162.4 L73.1 165.6 L71.6 166 L70.8 165.3 L69.6 168 L67.6 169.8 L67.4 170 L63.9 165.7 L64.5 165.1 L64 164.5 L63.2 163.8 L63.7 161.9 L56.3 155.4 L55.5 153.4 L51 150.2 L52.8 145.8 L57.8 142.3 L58.7 142.4 L59.4 143 L60.8 145.3 L61.1 145.7 L64.3 146 L65.4 145.2 L64 143.4 L66.2 138.5 L61.5 136.1 L61.6 134.3 L63.2 133.1 L60.6 129.9 L58.5 130.1 L60.4 126.2 L59.3 120.7 L62.8 122.3 L66.1 120.7 L68.4 122.3 L75.7 120.7 L76.4 116.4 L75.7 116.1 L75.3 115.5 L75.1 114.7 L75 112.8 L76.2 113.3 L76.8 112.1 L78.8 111.4 L82 113.2 L83.9 118.2 L84.1 118.2 L84.6 118 L85.8 119.9 L85 121.5 L86 120.8 L94 122.7 L96.6 120.5 L99.3 116.4 L102.2 121.2 L101.1 123.2 L105.6 123.8 L106.5 121.8 L108.2 121.2 L106.6 118.8 L108.2 117.1 L108.5 114 L111.2 112.9 L112.1 108.9 L110.6 107.5 L112.4 106.4 L111.9 105.5 L112.8 103.8 L111.7 102.4 L112.4 100.3 L111.1 96.5 L112.9 89 L110.5 86.4 L106.8 86.3 L105.7 83.1 L102.5 82.3 L101.7 82.8 L100.8 81.7 L100.8 81.2 L102.5 79 L101.5 74.4 L102.9 71.6 L105 70 L105.3 68.1 L108.2 68 L109.9 66.6 L112.5 61.2 L109.1 57.3 L108.5 53.6 L106.6 52.5 L99.9 51.7 L99.4 52.8 L97.3 53.1 L95.5 54.5 L92.1 54.3 L90.2 55.6 L88.3 54.9 L90.2 53.5 L90 51.8 L87.9 48.8 L89.1 44.5 L88.5 43.2 L90.7 40.5 L91 38.4 L109.8 38.2 L111.9 38.9 L114.2 37.5 L115.7 38.9 L117.6 39.2 L117.9 40.1 L119.6 39.2 L120.3 41.2 L121.9 40.7 L123.6 41.7 L126.1 40.6 L128.4 42.8 L131.1 41.8 L135.3 42.6 L138.5 45.1 L141 45.6 L141.8 47.6 L143.5 46.2 L141.8 41.8 L142.1 38.6 L144.4 37.2 L149.3 26 L149.1 20.1 L151.5 13.8 L152.3 13.3 L153.1 13 L155.8 13.4 L156.2 12.7 L158.3 13.2 L162.2 12.4 L167.3 10 L169.6 11.4 L173.7 11.8 L174.3 13.1 L179.4 12.9 L180.2 14.2 L181.8 12.4 L184.2 12.5 L185.9 11.4 L187.7 14 L187.9 14.2 L188.7 14.2 Z"/>
  </g>
</svg>
