<svg xmlns="http://www.w3.org/2000/svg" viewBox="0 0 240 180">
  <g fill="#17324a" stroke="#fffaf3" stroke-width="3.2" stroke-linejoin="round" stroke-linecap="round">
  <path d="M147.7 23.8 L150.3 24.3 L153.5 30.3 L153.4 31.9 L152.6 31 L151.3 27.8 L152.2 31.8 L152.1 33.4 L150.7 34.6 L153.1 33.3 L153.1 34.6 L153.7 32.3 L156.2 38.9 L159.2 46 L162.7 52 L172.2 64.5 L178.1 70.9 L179.3 70.2 L179.7 70.5 L181 70.7 L181.9 73.5 L188.4 82.1 L190.6 84.1 L191.9 83.7 L192.9 87.5 L201.4 89.9 L204.1 94.2 L202.2 93.7 L201.3 96.8 L200.6 96.9 L199.7 96.8 L193.7 92.1 L190.8 91 L189.9 91.1 L188.3 93.1 L190 96.5 L185.2 98.4 L185.3 118.4 L186.8 117.7 L187.3 117.7 L188.2 119.1 L194.8 122.7 L196.1 124.8 L196.3 125.3 L194.1 127.4 L188.9 129.5 L188.4 129.9 L188.5 131.7 L186.2 133.6 L186.1 134.4 L186.3 135.1 L189.2 138.7 L189.8 140 L190.2 141.5 L189.9 148.3 L179.7 155.2 L182.3 158.2 L185.1 159.2 L185.4 160.8 L188 166.6 L187.7 168.9 L187.4 170 L186.7 169.5 L187.3 166.5 L183.9 160.6 L174.8 153.1 L177.7 149.2 L175.5 145.8 L177.2 144.1 L174.1 143.3 L173.5 140.7 L174.7 142.7 L176.2 142.1 L176.2 141.7 L173.8 139.6 L170.4 140.3 L170 139.6 L169.4 138.9 L166.5 138 L165.9 135.4 L163.3 134.5 L161.4 135.7 L158.4 135.8 L158.2 136.8 L158.8 136.5 L162.2 142.1 L165.5 143.1 L167.4 144.8 L168.1 144.4 L167.7 146.9 L168.4 147.9 L168.7 149.7 L168.6 151.5 L168.1 152.8 L163.4 151.4 L162.6 150.7 L164 151 L162.2 150 L162.2 150.7 L159.4 149.4 L154.5 149.7 L145.7 141.9 L145.6 140.3 L147.1 138 L147.4 137.6 L149.2 137.3 L151 134.8 L150.4 134 L153.7 132 L152.1 131.6 L150.4 132.4 L153.4 129.1 L151.7 126.9 L153.7 127.5 L151 125.8 L152.4 123.1 L151 119.6 L150.8 119.1 L146.2 114.1 L144.2 113.7 L144.3 112.4 L143.2 111.3 L141.7 110.6 L140.6 110.3 L136.7 106.5 L123.8 101.3 L124.3 100.4 L123.6 99.1 L122.3 97.9 L121.1 97.5 L122.4 98.5 L121.2 98.3 L109.9 94.9 L106.1 95.1 L105.1 93.5 L104.4 93.4 L104.7 94.1 L103.9 93.4 L102 92.2 L99.7 88.5 L98.9 88.6 L98.9 86.5 L101.3 82.5 L98 77.6 L97.4 77.1 L96.6 76.8 L96.7 76 L97.4 74.9 L96.2 73.9 L95.9 73.4 L96.2 72.6 L94.8 72.2 L90.4 72.6 L93.5 71.6 L88 70.2 L82.3 65.1 L79.2 64 L79.5 63.5 L79.6 63.1 L78.5 62.3 L73.4 62.4 L72.6 61.8 L71.3 60.5 L71.3 60.2 L71.6 59.3 L70.7 58.2 L68.6 56.7 L70.7 60 L71.7 64.7 L71 65.1 L71.1 65.8 L71.7 66.5 L73.2 67 L73.8 67.6 L74.4 68.9 L75.3 68.8 L73.7 69.2 L74.7 70 L75.8 71 L82.2 73.7 L85 73.7 L87.4 75.4 L86.4 76.7 L87 77.5 L87.7 78.2 L86.3 79.2 L89.7 79.6 L85.7 83 L85 84.7 L83.4 83.9 L82.6 83.9 L83.1 86.1 L79.9 87.8 L77.1 93.4 L68.1 80.6 L66.5 79.7 L61.1 77.8 L59.6 78.5 L56.9 77.1 L50 76 L49.4 73.2 L44.3 66.9 L41 59.3 L40.4 56.4 L41 55.7 L41.3 55.2 L39.5 53.1 L41.7 50.2 L42.6 50.5 L44.4 48.4 L42.8 45 L44.1 43.6 L44.5 43.6 L45.2 44.2 L48.2 43.3 L49.3 41.1 L51.6 39.7 L50.6 38.5 L48.2 40.2 L49.5 38.8 L48.8 38.8 L50.2 35 L49.9 31.7 L49.2 30.8 L47.5 30.1 L45.9 29.8 L45.1 30.3 L44.8 30.3 L43.5 29.2 L43.1 28.8 L43.4 28.1 L35.9 25.7 L40.4 24.3 L39.3 23.3 L41.8 23.1 L42.4 23.3 L43.4 25.3 L44.1 23.7 L47.7 24.2 L48.3 21.4 L45.9 19.4 L47.3 18.4 L47.7 18.7 L48.2 19.1 L49.2 19.1 L49.8 18.6 L48.1 16.5 L51.6 10.7 L53.3 10 L57.7 12.9 L86.4 23.5 L87.5 23.6 L88.7 23.2 L99 17 L99.9 17.4 L101.8 18.8 L108.1 20.6 L110.9 23 L115 20.8 L117.2 24.6 L122.3 27.6 L122.5 28.8 L121.4 29.7 L123.1 31.6 L125.8 31.2 L128.9 32.5 L132.2 31.2 L136.8 35 L139.6 34.6 L139.8 34.5 L140.8 33.3 L149.4 30.3 L149.1 26 L147.7 23.8 Z"/>
  </g>
</svg>
