<svg xmlns="http://www.w3.org/2000/svg" viewBox="0 0 240 180">
  <g fill="#17324a" stroke="#fffaf3" stroke-width="3.2" stroke-linejoin="round" stroke-linecap="round">
  <path d="M121.7 11.8 L123.4 13 L124.1 12.5 L125.7 13.2 L128.3 16.4 L128.5 16.4 L128.7 15.8 L130.6 16.4 L132 19.9 L136.2 24.9 L138.3 26.4 L140.5 26.5 L140.8 26.7 L142.7 30.7 L143.8 31.3 L143.1 31.8 L144.4 31.8 L144.6 32.9 L145.2 32.9 L145.8 32.6 L146.1 32.7 L146.3 33.4 L149.2 33 L150.4 33.2 L151.4 33.7 L152.7 35 L153.2 37.2 L157.4 38.4 L158.8 40 L159.7 39.2 L164.9 40 L168.5 39.5 L173.9 41.2 L178.6 38.3 L180.8 34.8 L184.1 35.7 L185 34.5 L187.6 33.9 L186.8 35.2 L187.8 36.3 L186.3 36.7 L186.1 38.3 L189.5 44 L187.9 45.9 L187.7 47.7 L188.7 49 L190.8 47.9 L193.3 50.1 L192.5 50.9 L190.8 50.6 L190.6 50.6 L190.2 51.6 L190.3 52.3 L191.2 53.8 L189.7 55.5 L192.6 56.8 L193.2 58.4 L197.5 60.5 L198.4 60.8 L200.8 61 L201.3 61.3 L201.6 62.1 L201.1 63.4 L196.6 63.6 L193.7 62.3 L194.1 64.3 L193.6 64.4 L192 64.2 L191.6 64.6 L191.6 65 L192.6 66.6 L192.8 70.8 L194 71.7 L192.2 73.6 L190.1 73.2 L190.2 74 L190.8 75.1 L187.3 75.3 L184.4 73.3 L184.7 70.1 L183.1 69.3 L181.6 66.6 L180.6 67.5 L179.8 66.1 L177.5 66.4 L177.7 67.8 L177 67.8 L173.6 65.3 L171.6 65.2 L169.3 63.8 L167 66.1 L162.8 64.1 L160.3 66.8 L158.2 67.4 L154 63.6 L150.9 65.3 L148.4 65.5 L148.5 65.2 L148.8 64.4 L147.4 64.7 L147.3 63.6 L145.6 64.5 L142.5 62.6 L142 63.7 L141.9 63.9 L140.5 64 L140.2 64.2 L136.6 62.2 L136.1 61 L135.3 61.5 L135.3 60.5 L133.6 60.8 L133 58.9 L129.9 62.9 L122.1 61.3 L118.2 65.4 L116.2 69.9 L113.3 68.7 L110.8 66.2 L108 61.6 L102.6 61.7 L102 62.3 L101.7 62.6 L100.9 70.9 L100 72.7 L101.2 75.9 L99.6 77.5 L99.6 78.2 L99.9 78.9 L102.1 81.7 L104.4 80.6 L106.6 83.9 L108.4 84.8 L108.6 85.3 L108.7 85.8 L107.6 87.7 L110.7 88.5 L111.9 93.1 L111.3 94 L113.1 95.1 L112.6 97.7 L112.9 98.9 L113.4 100.6 L116.5 105.5 L118.9 106.5 L119.6 108.1 L120.8 108.6 L121.3 108.9 L126.2 114.8 L127.1 117.5 L137.4 127.5 L142.5 129.4 L143.1 135.6 L147.3 141.5 L152.4 145.6 L153.4 148.7 L152.6 149.3 L149.3 149 L148.1 146.9 L148.3 146.5 L148.9 146.2 L147.1 146.7 L147.3 146.6 L147.8 146.2 L146.8 144.9 L146.3 145.4 L145.3 144.5 L143.8 142.5 L138.4 139.3 L131.8 131.7 L124.7 130 L121.9 127.6 L118.3 127.6 L120.1 126.2 L110.7 127.1 L112.2 128.4 L110.5 128.4 L110.6 128.8 L106.3 127.9 L107.1 126.3 L105.4 125.8 L105.2 123 L106.5 122.6 L105.3 122.3 L104.8 122.3 L106.1 122.2 L106.1 120.7 L105.5 121.2 L101.7 118.2 L101.1 118 L99.3 117.8 L96.9 115.4 L98.6 115.7 L92.7 111.7 L83.8 101.1 L84.2 100.4 L84 99.5 L83.4 98.8 L82.8 98.4 L83.2 98 L83.7 97.7 L84.7 99 L85.3 97 L88 98.9 L88.2 97.1 L87 95.8 L91.5 98.3 L94.4 98.1 L94 97.9 L92.2 97.6 L88.3 94.9 L80 86.6 L76.6 80.6 L76.5 76 L77.6 71.5 L75.7 66.3 L70.3 62.3 L67.9 58.5 L66.9 57.8 L67.4 58.4 L67.5 58.5 L66.9 58.9 L63.3 56.8 L60.8 56.6 L58.6 64.1 L57.9 65 L57.1 64.7 L57.6 65.3 L57.5 65.8 L56.1 67.6 L56.7 70.1 L54.1 71.9 L54.5 70.4 L53.3 68.4 L54.3 70.6 L53.1 71.6 L52.7 73.8 L51.4 73.8 L52 74.5 L51.4 76.6 L52.2 77.2 L49.1 76.4 L49.5 78.7 L49.3 77.2 L46.3 74.8 L47.8 74.3 L46.5 74 L46.9 73.2 L46.5 72.8 L45.9 71.3 L41.7 67.1 L41.5 65.4 L42.2 64.9 L44.6 64.7 L41 64.3 L40.4 59.7 L41.2 58.9 L40.4 58.1 L41.4 57.5 L39.5 56.5 L38.5 50.1 L41.8 52 L45.5 52 L49.1 53.5 L51.7 51.5 L51.4 50 L54.7 51.6 L58.2 50.7 L62.5 51.4 L65.1 49.6 L65.9 46.8 L68.2 44.1 L68.8 46.5 L70.7 48.1 L70.6 49.2 L71.2 49.7 L73.8 50.8 L74.2 51.9 L75.3 52.1 L76.5 51.7 L77.7 50 L81.4 51.3 L81.6 51.6 L83.6 53.3 L88.8 52.4 L89.8 51.3 L88.4 50.3 L88 49.7 L87.2 46.6 L90.1 45.1 L88.9 43.4 L87.6 43.6 L86.8 41.9 L91.7 39.9 L92.3 38.3 L97.1 38.2 L98.5 37.3 L98 35.5 L99.1 29.8 L96.1 26.8 L97.5 23.1 L100.5 23 L102.4 21.3 L108 19.6 L109.1 18.3 L109 16.6 L111.4 15.9 L112.7 16.9 L115.1 16.7 L113.9 12.1 L116.9 10 L121.7 11.8 Z"/>
  <path d="M174.8 164.5 L174.8 167 L176.4 170 L169.3 164.5 L168.7 162.1 L164.8 160.9 L163.9 158.9 L163.5 159.3 L162.8 159 L161.6 157.9 L160 157 L159.4 156.3 L159.7 155.5 L157.4 154.7 L156.6 155.3 L155 154.1 L155.9 156.3 L155.2 155.1 L147.2 152.3 L147.3 151.3 L142.6 148.8 L136.3 147.6 L135.1 145.4 L137.1 146.5 L139.5 146.2 L141.7 146.5 L145.9 148.3 L147.9 150.5 L149.6 150.4 L155.6 153.6 L154.6 151.8 L153.8 152.1 L153.1 151.6 L154.5 150.5 L157.5 150.9 L158.8 154.5 L168.9 161.8 L174.8 164.5 Z"/>
  <path d="M66.4 83 L66.9 84.1 L66.3 84.7 L64 83.2 L60.3 73.5 L60.5 72.1 L62.9 73.4 L62.9 71.5 L63.3 71.9 L63.5 71.6 L59.9 65.5 L60.8 63.2 L61.3 63.1 L62 63.4 L62.9 68.4 L65.2 71 L64.7 77.7 L65.2 81.2 L66.4 83 Z"/>
  <path d="M72.2 72.1 L69.5 70.8 L69.3 68.2 L69.2 69 L68.5 69 L66.3 68.7 L63.9 66.5 L65.3 64.9 L66.4 64.9 L66.8 64.7 L67.3 60.3 L67.7 60.2 L68.6 60.7 L69.4 63.1 L68.7 63.5 L70.5 63.7 L70.5 66.5 L72.6 67.1 L72.6 68.2 L74.3 69.7 L74.7 70.8 L73.2 70.8 L73.1 71.9 L72.7 72.1 L72.2 72.1 Z"/>
  <path d="M121.3 136.4 L119.1 135.1 L118.6 134.5 L119.2 134.8 L120 133.7 L119.6 133 L119.2 132.1 L126.4 132.8 L132.1 135.3 L129.9 137 L124.8 137.2 L123 136.9 L121.3 136.4 Z"/>
  <path d="M76.4 87 L72.6 81.4 L75.5 85.4 L76.6 86.2 L76.5 85.1 L77.1 85 L80.9 88.2 L81.9 89.9 L81.3 89.8 L79.1 87.9 L77.3 87.5 L78.9 88.4 L81.1 91.6 L82.5 92.6 L80.9 90.2 L82.1 90.8 L86.5 95.1 L84.4 94.4 L85.9 96.5 L83.4 95.8 L83.4 96 L84.6 96.8 L83.4 96.6 L82.3 94.2 L83 93.7 L81.2 93.4 L77 89.6 L77.5 89.1 L76.4 87 Z"/>
  <path d="M126.6 142.5 L117.7 139.8 L121.2 138.9 L123.6 140.1 L121.8 138.5 L125.7 139 L127.5 141 L140.4 142.5 L133.5 142.5 L126.6 142.5 Z"/>
  <path d="M138.7 148.6 L140.4 150.7 L134.3 150.2 L132.3 151 L131 151.2 L125.5 150.2 L127 148.6 L124.9 148.1 L127.3 147.8 L130.2 148.9 L136 148.1 L138.1 148.8 L138.7 148.6 Z"/>
  </g>
</svg>
