<svg xmlns="http://www.w3.org/2000/svg" viewBox="0 0 240 180">
  <g fill="#17324a" stroke="#fffaf3" stroke-width="3.2" stroke-linejoin="round" stroke-linecap="round">
  <path d="M210.4 125.5 L210.4 123.9 L209.6 123.9 L209.6 123.8 L210.5 121.9 L206.6 125.7 L201.8 125.9 L197.2 124.1 L187 123.4 L181.4 124.5 L174.4 124.6 L172.5 125.6 L165.6 125.3 L164 126.3 L157.3 127 L156.7 126 L159.8 121.3 L161.1 121.2 L169.4 115.2 L170 113.1 L169.4 112 L166.8 110.9 L167.7 109.3 L166.4 109.2 L164.7 107.5 L161.8 108.4 L153.8 107.2 L152.5 108 L150 107.7 L141.4 100.5 L140.4 96.3 L141.1 95.2 L140.4 95 L140.3 94.9 L138.6 90 L136.2 89 L137.3 88.7 L136.2 87.5 L126.8 89.4 L121.8 88.4 L120.5 87.2 L120 87.8 L117.7 86.2 L114.4 85.8 L114.2 86.2 L114 86.6 L112.8 86.1 L112.8 84.8 L110.6 84.8 L110.6 85.6 L109.3 83.5 L105.2 82 L101.5 78.3 L102.8 77.7 L100.8 75.3 L99.7 75.9 L101.1 78.6 L90.1 78.2 L88.2 77.4 L86.7 73.4 L86 73.7 L86.2 78.2 L85.5 76.2 L83.5 77.6 L81.5 75.4 L73.6 75.4 L72.4 73.8 L66.7 70.8 L67.3 70.1 L73.2 70.1 L77.1 68.8 L77.2 67 L72.5 64.6 L68 65.2 L54.5 64.1 L53.7 65.9 L48.5 68.8 L46.3 72.1 L44.4 72 L42 75 L39.1 75.4 L37.9 74.1 L36 75.8 L30.8 75.8 L29.3 78.2 L30.1 78.7 L29.2 81 L24.6 81.4 L19.8 84.5 L19 84.6 L18.7 84.2 L19.5 82.5 L19.7 81.6 L19.2 81 L15.9 81.4 L12.2 83.4 L10.2 82.9 L10.1 81.7 L11.8 81.8 L12.1 80.8 L12.6 81.5 L19 78.4 L23.4 79.1 L23.7 77.8 L23 78.7 L22.5 76.7 L20.2 75 L21.4 71.7 L23 69.2 L24.9 68.2 L25 66.8 L26.4 67.1 L27.7 64.9 L28.9 64.7 L27.9 64.2 L28.3 63.8 L29.6 64.5 L31.9 63.1 L36.4 62.1 L38.8 60.3 L41.7 60.3 L45.1 57.6 L46 57.9 L46.2 59.2 L46.7 57.8 L48.4 57.2 L50.4 58.2 L51.3 56.9 L58.3 56.5 L61.7 54.4 L65.5 53.4 L78.5 54.2 L79.4 54.8 L79.1 56.5 L79.8 56.6 L80.7 55.4 L87.3 53 L84.5 54.8 L87.3 56.9 L89.4 55.2 L90.6 55.3 L91.2 56.4 L97.2 55.7 L98.5 54.2 L98 55.7 L99.3 57.5 L101.9 58.7 L105.7 59.6 L107.3 58.5 L109.2 59.1 L109.7 59.1 L109.7 58.5 L112.4 60.9 L114.9 59.9 L113.6 60.4 L113.4 61.2 L113.6 61.6 L116.8 63.2 L117.8 62.9 L118.3 65.1 L120.5 67.7 L124.7 70.8 L135.4 71 L136.4 72.6 L136.6 72.4 L136.9 71.7 L136.3 71 L136.9 71 L141.5 73.8 L143.6 74.1 L145.2 75.9 L150 77.6 L153.6 82.4 L154.2 80.2 L155.3 80.2 L154.3 81.2 L155.9 82.3 L156.4 83.8 L161 84.9 L162.4 84.4 L162.7 84.6 L163.1 85.1 L162.4 85.3 L162.9 87 L164.4 87.5 L164.8 87 L162.6 83.8 L161.4 83.8 L159.2 82 L160.4 81.1 L163.5 84.1 L169 86.8 L168.5 89.2 L164.4 87.8 L166.5 89 L166.4 91 L168.4 90.9 L169.9 88.1 L172.8 91.4 L175.5 92.7 L173.8 93.8 L173.7 94.1 L174 94.7 L175.2 94.5 L175.6 92.8 L178.7 93.7 L178.9 94.5 L177.1 94.6 L178.7 95.9 L179.1 95.9 L179.6 96 L178.7 94.9 L180.9 95.1 L180.9 96 L180.6 96.2 L179.6 96.3 L180.9 97.3 L182.7 96.4 L181.5 96.1 L181.3 95.2 L181.7 95.1 L184.1 95.2 L189.2 97.7 L189.6 99.4 L190.5 98.9 L191.9 99.8 L193.6 98.8 L194.6 99.4 L195.7 98.4 L198 98.8 L200.6 101.1 L199.2 103.6 L197.6 103 L197.2 103.8 L197.5 104.2 L197.7 104.5 L199.6 104.1 L201.2 105.3 L196.7 105 L196.4 106.9 L197.6 108 L199.5 106.2 L201.2 108.3 L203.2 108.1 L202.7 107.5 L202.9 107.2 L203.4 107 L206 108.7 L207.2 108.6 L205.6 107.8 L205.9 107.6 L206.4 107.4 L210.2 108.7 L212.8 108 L217.7 109.9 L217.8 110.9 L224.7 117 L228.4 116.4 L230 118.8 L227.3 121.7 L216.2 122.4 L212.8 124.9 L210.4 125.5 Z"/>
  <path d="M58.4 87.5 L59 88.4 L57.9 89.5 L51.6 91.8 L48.2 91.2 L45.8 87.8 L48.3 89.4 L50.9 88.4 L47.9 83.9 L50.5 81.1 L49.9 80.6 L56 82.1 L55.9 83.4 L57.6 84.5 L57.5 86.8 L58.4 87.5 Z"/>
  <path d="M158.8 78.3 L158.8 80.7 L157.5 80.6 L157.4 81.5 L155 79.9 L155.1 78.8 L153.3 79.2 L152.4 77.3 L158.8 78.3 Z"/>
  <path d="M142.7 69.4 L140.3 69.5 L138 67.9 L137.6 68.2 L137.2 68.4 L137.2 67.7 L143.8 67.4 L145.6 69.9 L142.6 70.4 L142.7 69.4 Z"/>
  </g>
</svg>
