<svg xmlns="http://www.w3.org/2000/svg" viewBox="0 0 240 180">
  <g fill="#17324a" stroke="#fffaf3" stroke-width="3.2" stroke-linejoin="round" stroke-linecap="round">
  <path d="M99 36.6 L104.6 36.6 L105 31.5 L103.9 29.8 L105.3 28.4 L108.6 30.4 L109.8 28.9 L110.7 30.6 L112.5 30.6 L113.4 31 L113.9 31.8 L113.5 34.5 L114.5 36.8 L116.2 37.9 L116.7 40.8 L119.5 39.5 L127.4 43 L130.1 42.4 L130.9 42.4 L132.7 45.8 L136.3 45.2 L137.5 47.1 L137.1 49.4 L138.5 49.2 L140.5 47.3 L143.4 48.4 L144.8 46.6 L148.5 47.4 L151.2 50.3 L151.5 51.3 L150.5 51.7 L150.4 53.6 L149.1 55 L147 55 L144.5 57.1 L144.2 59.4 L145.2 59.6 L146.2 61.5 L148.9 61.2 L149.7 63.8 L151.2 64.3 L151.9 64.8 L155.1 69.4 L156.1 72.7 L159.2 75.2 L160.5 75.1 L164.3 70.5 L168.8 69.1 L168.9 68.2 L170.7 68.9 L169.8 65.5 L167.8 63.8 L165.8 59.3 L165.8 58.6 L166.7 58 L174.5 60.9 L176.3 60.8 L177.1 62.9 L181.2 64.1 L180.6 64.3 L181.3 66.8 L182.8 66.1 L184.2 67.8 L185.5 66.5 L190.7 66.7 L192.5 64.1 L192.7 64 L193.3 64.2 L194.5 68.9 L192.2 71.1 L189.4 71.6 L189.2 72.1 L189.2 72.5 L190.8 74.5 L194 75.1 L193.6 75.8 L195 78.6 L195.4 79.1 L197.5 81.2 L203.8 79.7 L202.8 77.5 L205.7 79 L205.5 79.9 L205.9 80.4 L210.7 82.3 L212.3 84.5 L214.8 83.3 L216 83.7 L218.4 85.1 L220.9 84.5 L221.2 86.8 L222.1 87.3 L221.2 88.4 L221.2 89.7 L222.9 94.3 L226.4 96.6 L228.4 96.6 L229.9 104.6 L228.5 104.6 L227.9 104.8 L226.6 106.1 L223.4 105.2 L220.2 106 L219.5 108.1 L218.4 108.6 L217 110.4 L216.3 110.8 L215.4 110.6 L215.3 113 L208 117.2 L207.2 118.5 L206.6 120.1 L205.2 127.9 L204.3 128.8 L203.2 129.3 L200 129.7 L198.8 133.6 L196.1 134.3 L193.9 137.2 L187.6 139.7 L185 138.2 L182.4 139.4 L178.7 137.4 L177.1 137 L175.7 137.3 L173.9 138.6 L171 143.1 L168.4 150.2 L166.1 144.4 L163.7 144.9 L159.6 143.7 L158.6 141.5 L154.6 140.1 L152.4 140.2 L149.8 143.9 L140.5 143.2 L131.8 136.7 L127.3 137.4 L114.1 130.9 L112.9 132.8 L110.4 133.4 L109.8 133.4 L109.6 130.6 L107.1 130.4 L105.3 129.8 L104.6 129.9 L104.4 130 L104 131.7 L103.2 142.2 L98.6 141.5 L97.8 144.2 L96.1 145.7 L95.5 146.8 L94.6 151.6 L91.9 149.4 L90 150 L87.5 148.3 L85.8 151.1 L82.9 152.6 L73.9 150.4 L72.8 148.4 L73.6 147 L72 145.1 L66 141.4 L64.4 138.2 L63.6 137 L60.8 135.6 L59.9 133 L56.8 131.8 L55.8 133.4 L55 133 L54 132.3 L53 131.4 L52.6 130.6 L52.5 129.2 L52.2 128.3 L49.4 125.2 L45.9 124.3 L40.1 115.4 L37.6 113.5 L32.8 113.5 L32.3 113 L31.3 110.6 L28.5 108.6 L27.8 104.6 L26.2 103.6 L25.3 100.3 L23.9 99 L23.7 96.5 L21.6 95.4 L20 92.8 L22.3 91 L22.6 88.4 L23.2 88.6 L24.6 84.7 L22.6 83.3 L22.2 80.8 L15.6 77.6 L15.1 75.8 L13.6 74.7 L12.9 70.1 L10.1 67.6 L11.1 65.9 L10 64 L10.8 64 L12.4 64.2 L13.3 66.3 L15.3 66.9 L15 68 L17.3 71.8 L18.7 66.4 L24.1 60.3 L30 60 L31.5 58.1 L34.1 57.5 L38.5 59.5 L40 58 L40.6 54.8 L45.3 54.8 L47.6 50.5 L49.3 51.2 L52.1 48.2 L54.6 49.8 L57.1 46.5 L57.2 45.8 L56.8 45 L58.2 44.2 L67.2 43.4 L68.8 42.4 L69.1 40.5 L71.3 39.4 L73.7 39.4 L78.8 37.1 L80.2 35.5 L81.3 35.3 L83.9 35.5 L84.8 34.7 L85 33.4 L82.1 31.8 L82.5 31 L80.4 30.3 L82 27.6 L83 27.4 L84.2 27.8 L85.2 28.8 L87.6 28.5 L88 28.3 L88.3 27.6 L91.3 30.7 L90.5 33.9 L93.1 33.5 L92.4 36.9 L95.4 38.7 L97.8 38.9 L99 36.6 Z"/>
  </g>
</svg>
