<svg xmlns="http://www.w3.org/2000/svg" viewBox="0 0 240 180">
  <g fill="#17324a" stroke="#fffaf3" stroke-width="3.2" stroke-linejoin="round" stroke-linecap="round">
  <path d="M177.9 119.8 L173.3 127 L149.9 163.8 L148.6 163.3 L147.7 164.1 L146.8 165.2 L136.5 164 L135.1 162.7 L132.8 157.8 L122.8 155.6 L122.1 155.7 L118.8 155.9 L110.8 158.4 L105 162.3 L103.1 163.2 L98.4 162.3 L88.1 165.1 L86.4 165.1 L81.9 164 L77.1 164.6 L74.7 165.3 L72 168.1 L69.5 168.8 L64.5 169 L63.1 170 L61.2 168.4 L50.8 166.3 L48.6 165.5 L48 164.6 L47.5 164 L49.1 161.5 L49.7 157.6 L49.9 140.3 L48.8 130.5 L46.5 120.2 L46.5 115.3 L49.1 107.1 L50.3 100.3 L51.7 97.4 L53 96.5 L56.4 95 L57.3 93.9 L57.8 92.6 L63 89.2 L66.3 84.4 L73.6 74 L77.2 67.4 L78.2 66.3 L80.2 65.3 L80.9 64.2 L82.3 60.9 L94 44.8 L96.7 38.9 L102 31.8 L106.5 26.9 L108.1 26.6 L110.5 27.2 L114.5 29 L128.3 41.3 L129.5 39.6 L129.9 39.5 L132.7 38.7 L133.9 37 L134.6 36.2 L137.2 35.7 L138.3 35.1 L138.9 32.7 L138 29.8 L137.7 27.2 L141.6 23.5 L143.6 18.7 L145.1 17.4 L147.9 18.2 L167 10 L182.8 30.3 L184.2 30.7 L185.7 29.7 L185.7 32.9 L185.8 34.4 L188.4 39.2 L189 46.1 L189.6 47.3 L192.9 51.9 L193.1 53.5 L193.1 68.4 L191.8 71 L189.9 73.3 L182 76.6 L174.8 77.5 L172 79.5 L165.2 87.7 L162.7 89 L161.5 91.4 L160.3 91.8 L155.5 92 L151.6 94.1 L149.2 93.2 L147.5 93.4 L139.3 96.4 L137 97.8 L135 100 L128.8 111.3 L128.2 112.1 L123.9 113.4 L118.7 113 L116.9 111.2 L115 111.3 L113.9 112 L113.9 112.6 L115.1 112.4 L116 118.4 L121.7 121.6 L125.4 119.8 L128.6 120.1 L129.1 118.9 L127.2 117.3 L127.9 115.8 L129.7 114.6 L133.7 113 L139.7 112.3 L141.6 111.8 L143.9 110.1 L144.9 110.8 L145.7 111.2 L163.9 110.6 L165.8 111.8 L167.5 111.4 L170 108.6 L172.8 116.3 L177.9 119.8 Z"/>
  </g>
</svg>
