<svg xmlns="http://www.w3.org/2000/svg" viewBox="0 0 240 180">
  <g fill="#17324a" stroke="#fffaf3" stroke-width="3.2" stroke-linejoin="round" stroke-linecap="round">
  <path d="M25.1 30.7 L26.2 31 L27.3 31.5 L27.1 30.3 L26.1 26.8 L24.5 26.7 L24.3 26 L26.1 23.8 L31 21.2 L30.8 19.2 L41.8 18.3 L43.3 18.9 L49 21.8 L50.7 22.2 L52.3 21.5 L53.5 22.4 L54.3 22.8 L57 22.9 L57.7 22.7 L58.9 20.7 L59.4 21.3 L60.1 22.9 L61.3 21.5 L60.5 20.7 L64 20.7 L66.4 17.7 L70.3 16.4 L71.3 16.6 L72.2 17.2 L72.7 18 L72.4 19 L73.5 19.4 L73.5 18.1 L79.7 18.1 L80.5 18.6 L83.1 21.7 L83.3 22.3 L83 22.9 L85.2 22.9 L92.8 27.2 L95.5 27.6 L99.1 27.6 L101.9 25.9 L104.2 26.6 L107.8 30.5 L110 32.8 L113.3 34.4 L123.2 36.3 L127.6 32.7 L133.3 32.7 L136.9 36.9 L136.8 38.5 L135.8 42 L137 42.5 L137.5 43.6 L138 48.7 L144 56.6 L146 57.5 L147.3 57.3 L154.6 55.8 L158.3 54 L161 54.9 L163.7 54.5 L164.3 55.4 L164.7 55.3 L165.3 54.9 L168.8 56.3 L169.8 57 L170.5 55.7 L171.6 54.7 L174.3 53.2 L176.1 52.6 L176.5 53.4 L176 54.9 L175.1 56.6 L176.3 57.1 L177.7 57.1 L179 56.7 L180.1 56.2 L180.4 57.6 L177.8 61.9 L174.7 64 L170 63.1 L164.9 63.5 L163.7 63.2 L161.5 62.1 L153.8 61.1 L153 61.3 L152 67.8 L153.5 69.7 L159.4 69.1 L162.2 70.2 L163.7 70 L161.6 68.7 L164.8 68.5 L165.7 68.7 L166.8 69.5 L167.6 71.4 L168.6 72.2 L179.5 74.9 L180.5 74.8 L181.6 74.2 L181.2 73.7 L180.5 73.2 L180.5 72.6 L181.5 72.3 L182.5 73.2 L183.7 75.2 L186.6 77 L191.3 73.5 L193.5 73.6 L194.7 73.8 L198.5 76.1 L205.4 77.8 L212.4 84.3 L214.9 87.4 L228.4 97.2 L230 99.8 L229.7 102.2 L223.3 111.6 L222.4 116.1 L218.8 116.7 L214.4 114.6 L213.5 115.2 L213.6 116.2 L213.9 117.4 L211 125.1 L210.3 125.4 L205.2 125.8 L204.2 125.4 L204.1 123.1 L202.6 120 L200.6 117.1 L198.9 115 L197 113.7 L194.5 112.7 L192 112.3 L189.1 113.5 L184.8 113.7 L178.8 112.1 L177.1 110.6 L175.8 110.2 L172.2 111 L171 110.2 L169.8 111.4 L158.5 112.9 L153 109.8 L152.6 112.4 L152.1 112.6 L151.2 112.6 L148.6 110 L148.2 109.9 L139 108.9 L136.1 109.2 L129.1 112.7 L127.8 113.9 L126.8 115.5 L126.4 117.4 L126.1 117.9 L119.8 124.1 L106.4 123.7 L105.1 124.1 L102.6 125.5 L101.2 125.8 L97.1 125.8 L96.1 125.4 L96 124.9 L97.1 123 L94.4 120.4 L95.7 118.9 L95.5 114.3 L94.2 112.7 L93.4 112.1 L88 111.5 L87.6 114.5 L85.8 116.2 L85.3 116.6 L82.2 116.3 L79.3 117.2 L74.4 122.2 L73 122.3 L72.4 122.1 L70.1 119.7 L65.3 119.5 L64.3 123.4 L66.7 129.7 L58.1 144.3 L55.7 145.9 L54.3 148.4 L53.5 147.9 L53.3 149.2 L51.9 150.3 L48.5 159 L47.9 160.1 L45.4 163.6 L38.6 154.1 L36.6 153.4 L31.8 154 L29.8 153.5 L32.6 150.2 L30.6 144.8 L30.6 144 L31 141.6 L27.3 137.5 L24 136.2 L24.7 134.3 L24.9 133.2 L24.1 126 L28 118.9 L21 114.9 L19.1 112.6 L16.7 112 L15.8 111.5 L16.3 108.1 L10 100.9 L11 100.1 L13.2 99.6 L17.7 100.5 L20.1 99.7 L22.9 95.8 L25.9 93.8 L27.3 90.4 L26.1 82.4 L22.8 78.3 L18.8 78.9 L18.6 77.8 L23.5 75.8 L30.8 68.1 L31.6 67 L31.9 65.9 L32.2 62.2 L31.4 61.8 L27.5 59.9 L23.9 54.9 L26.5 53.1 L28.3 49.4 L28.3 46.6 L27.6 41.6 L25.9 37.7 L25.1 30.7 Z"/>
  </g>
</svg>
