<svg xmlns="http://www.w3.org/2000/svg" viewBox="0 0 240 180">
  <g fill="#17324a" stroke="#fffaf3" stroke-width="3.2" stroke-linejoin="round" stroke-linecap="round">
  <path d="M122.2 170 L118.2 168.9 L117.5 165.9 L118.7 156.9 L118.5 146.1 L118.7 144.5 L116.7 140.3 L112.2 135 L111.4 130.6 L110.7 121.4 L109.1 114.7 L104.1 103.8 L101.4 91.1 L93.2 83 L89.6 72.6 L87.5 69.6 L85.6 68.4 L83.2 66.5 L82.4 62 L82.1 53 L77.2 46.3 L77.2 42.9 L79 40.5 L84.9 36.3 L86.8 32.5 L77.2 30.2 L80.2 25.9 L84.3 10 L91.4 10.3 L95.7 10.5 L99.7 12 L104.1 15.3 L109.8 23.8 L114.5 26.8 L119.8 24 L124.2 23.2 L141.9 30.2 L142.6 32.7 L144.8 38.4 L156.4 56.7 L159.8 69.7 L160.4 83.3 L157.9 93.7 L162.8 96.2 L160.5 109.7 L161.1 121.5 L161.2 124.5 L160.1 139.1 L152.8 152.1 L150.2 154.1 L148.5 154.5 L138.2 154.6 L136.2 156.4 L134.4 161.2 L129.4 163.4 L126.6 168.8 L122.2 170 Z"/>
  </g>
</svg>
