<svg xmlns="http://www.w3.org/2000/svg" viewBox="0 0 240 180">
  <g fill="#17324a" stroke="#fffaf3" stroke-width="3.2" stroke-linejoin="round" stroke-linecap="round">
  <path d="M93.6 26.1 L93.7 21.3 L92.8 19.1 L94.4 18.5 L97.3 14.1 L100.4 12 L103.1 12.1 L106.7 14.2 L110.1 18.2 L112.6 17.8 L115.4 19.2 L119.9 19.2 L124.7 20.6 L126.5 20.1 L127.2 17.7 L129.8 14.7 L134.1 16.7 L135.6 15.4 L141.3 13.8 L142.5 12.1 L145.3 13.9 L150.2 12.9 L150.7 10.5 L152.1 10 L155.3 11.7 L157.3 11 L160.3 12.8 L163.4 12.9 L165.2 11.5 L167.2 12.1 L170.8 14.9 L171.1 16.6 L173.1 17 L173.4 18.1 L176 19.3 L179.3 17 L183.4 18.8 L185.4 16 L186.7 16.2 L188.2 17 L188.2 18.6 L191.6 22.1 L194.4 22.8 L194.7 25.1 L196.3 24.4 L197.7 26 L196.3 29.5 L197.2 31.4 L195.9 34.7 L197.3 35.9 L198.2 35.2 L198.7 36.1 L199.9 36.1 L200.7 37.8 L193.7 45.4 L192.2 45.7 L191.2 48 L189.3 49 L189.3 51.8 L187.4 55 L186.1 64.1 L186.4 67.5 L183.6 69.6 L182.5 71.6 L182.4 74.7 L180.3 76 L180.6 78.3 L183.5 81.5 L183.3 88.8 L185 93.9 L184.2 97.5 L186.7 104.1 L185.5 106.7 L185.9 109 L187.7 112.2 L191.9 115.6 L196.3 125.3 L180.5 127.7 L180.6 130.1 L176 134.4 L177.4 135.3 L178.9 138.9 L177.8 142.5 L178.9 146.3 L177.7 147.7 L176 153.5 L177.2 156.4 L179.4 157.5 L181.9 160.9 L185.7 161.5 L185.4 159.8 L188.3 158.9 L188.1 170 L186.7 169.7 L187.1 168.4 L186.3 168 L183.1 169.8 L181.4 169.5 L178.7 164.8 L177.6 165.1 L176.6 162 L171.8 159.8 L169.9 160.1 L168.1 156.9 L166.5 156 L166.1 154 L164.7 154.2 L164.1 156.8 L162 157.8 L155.9 156.8 L152.8 155.3 L151.7 155.7 L150.4 154.5 L150.2 150.8 L143.1 153.1 L141.7 152.6 L142.3 150.1 L140.2 149.5 L140.1 148.4 L139.1 148 L137.7 149.4 L134.8 148.8 L130.8 150 L126.7 149.4 L124.2 151.2 L123.6 147.9 L124.9 147.1 L124.8 143.7 L123.5 140 L121.1 137.7 L120.4 135.7 L121.7 127.5 L120.1 123.8 L121 119.2 L120.3 117.5 L109.6 117.6 L110.4 114.4 L107.9 114.4 L107.7 115.2 L101.2 115.2 L101.1 119.2 L99.7 120 L99.7 123.6 L92.5 123.1 L89.3 123.8 L89.1 124.6 L87.4 124 L84.9 124.5 L79.3 116.9 L79.6 115.3 L77.8 112.7 L77.5 108.2 L76.1 105.8 L44.7 105.1 L43.5 106.5 L41.1 107.1 L39.5 105.2 L39.2 104.6 L39.6 104.4 L41.7 104.3 L41.9 99.2 L41.1 98.7 L46.6 94.6 L49.2 97.2 L51.7 95.8 L52 93.4 L53.9 93.9 L57.7 92 L58.3 93.2 L57.3 94.4 L57.8 97.2 L60.1 97.3 L67.5 90 L70.6 88.9 L73.2 84 L73.1 74 L75.7 71.7 L78.3 66.5 L82.9 63.9 L86.1 60.2 L86.2 55.7 L87.8 52.6 L87.1 47 L88.9 42.5 L88.9 37.3 L93.5 29.1 L93.6 26.1 Z"/>
  </g>
</svg>
