<svg xmlns="http://www.w3.org/2000/svg" viewBox="0 0 240 180">
  <g fill="#17324a" stroke="#fffaf3" stroke-width="3.2" stroke-linejoin="round" stroke-linecap="round">
  <path d="M102.4 10 L106.5 14.2 L108 14.2 L108.8 15.9 L111.1 16.1 L114.3 19.4 L120 22.7 L125 23.9 L126.2 25.4 L130.3 24.7 L131.8 27.8 L133.4 28.9 L134.3 29.3 L136.2 29.4 L137 34.8 L137.3 35.5 L137.9 36 L142.7 37.3 L145.7 36.9 L151.1 39.7 L154.4 39.8 L154.3 38.8 L154.6 38.7 L158.9 40.2 L162.5 39.3 L162.3 35.6 L165.1 34.1 L169.2 35.8 L169.6 36.9 L171.3 36.6 L173.8 40.5 L177.8 43.5 L181.9 43.6 L185.9 46.6 L190.4 48.3 L186.8 49.7 L182 48.2 L181.6 48.4 L181.5 48.8 L182 50.1 L185.4 51.8 L187.3 56.6 L190.9 59.1 L191.1 61.1 L190.2 61.9 L190 64.1 L191.8 69.7 L188.8 69.8 L187.3 68.3 L183.2 83.8 L168.9 99.6 L155.6 109.5 L126.3 119.8 L118.1 129.1 L118.9 131.9 L117.4 132.7 L116.6 130.2 L114.3 129.7 L113.1 136.7 L112.4 137.2 L112.6 139.7 L111.3 140.7 L110.6 143.6 L109 144.4 L108.7 147.4 L106 153 L107.2 155.7 L106.3 158.6 L100.7 162.1 L100.2 162.8 L99.9 163.4 L100.4 166.3 L98.7 166.6 L96.6 170 L95.6 169.2 L90.6 168.8 L87 165 L85.1 160.2 L85.6 158.1 L81.8 155.8 L77.5 156.8 L75.7 154.8 L73.1 154.2 L69.9 151.9 L68.3 152.3 L67.4 154.1 L63.9 156.7 L61.1 155.1 L64.8 149.8 L61.7 150.2 L60.6 147 L61.4 144.9 L62.8 144.4 L65.3 145.3 L69.3 142.2 L67.7 138.7 L68 135.7 L66.8 130.7 L64.9 129.2 L65.7 128 L65.6 129.4 L66.3 128 L66.9 128.7 L70 128.2 L71.9 125.1 L72.4 127 L74.2 125.4 L80.1 110 L79.7 107.4 L78.6 107.2 L77.3 104.6 L76.6 99.2 L76.8 97.9 L79.2 95.4 L76 98.1 L76.8 102.6 L76.4 107.5 L76.1 108.5 L73.8 110.3 L71.8 109.6 L73.3 107.2 L75.1 107.3 L75.1 107 L74.9 106.7 L74.8 107.3 L74.5 107.2 L73.9 106.6 L72.5 107 L73.1 104.2 L74.6 102.9 L72.8 103.5 L69.8 109 L67.6 110.9 L66.4 110.5 L67 113.4 L61.8 110.6 L59.1 107.5 L57.1 105.6 L50.7 103.2 L48.2 99.4 L50.3 100.6 L50.9 100.6 L51.8 100.3 L54.9 97.8 L55.1 96.3 L54.5 90.2 L52.1 85 L52.2 84.7 L53.1 84.1 L53 83.6 L53 82.8 L54.2 82.3 L54.9 79 L54.2 77.9 L52.7 76.2 L50.8 71.5 L52.8 69.2 L58.1 69 L59.8 67.7 L62.2 60.6 L64 61.9 L64.6 62 L65.9 62 L63.6 61.1 L61 55.1 L65.3 49.9 L67.6 49.1 L72.1 43.4 L72.2 37.7 L72.5 36.7 L73.2 37.5 L73.6 36.5 L72.2 33.7 L72.9 32.2 L72.5 30.1 L70.7 28.4 L70.7 27.3 L70.9 26.2 L71.5 25.3 L72.2 24.8 L76.8 23.8 L81.9 20.7 L81.5 22.7 L82.9 24.6 L82.1 23.1 L82.5 21.1 L82.9 20.9 L84 21.2 L87.4 18.8 L94.1 18.3 L96.7 15.4 L98.9 17.6 L99.9 14.7 L100.6 14.9 L101.4 13.6 L101.8 13.5 L102.8 13.9 L101.1 12.9 L102.4 10 Z"/>
  </g>
</svg>
