<svg xmlns="http://www.w3.org/2000/svg" viewBox="0 0 240 180">
  <g fill="#17324a" stroke="#fffaf3" stroke-width="3.2" stroke-linejoin="round" stroke-linecap="round">
  <path d="M172.8 22.4 L175.1 30.5 L178.3 37.4 L180.5 45.9 L178.3 48.8 L176.6 58.4 L173.4 65.3 L173.8 71 L170.5 74 L171.2 75 L168.5 73.9 L163.9 70.2 L160.9 65.6 L156.1 61.3 L155.1 53.9 L150.9 50 L149.9 47.1 L148.4 46.4 L148.1 42 L146.8 40.3 L146.4 37.2 L146.3 38.4 L144.7 38.8 L145.4 39.6 L142.8 44.2 L146.6 48.2 L147.6 52.2 L147.1 54.4 L150 58.2 L150.6 60.6 L150.7 61 L152.7 62.5 L156.2 68.1 L160.8 72.3 L161.4 74 L159.6 73.6 L161.4 76.4 L161.2 76.3 L160.8 75.8 L159.9 76.4 L162 78.9 L162.8 81.4 L165 83.1 L165 85.1 L167.3 88.8 L166.5 92.8 L167.6 93.5 L172.4 103.6 L175.5 108.2 L183.4 124.6 L184.3 128.5 L187.6 131.7 L189.5 135 L193.9 138.4 L189.8 137.2 L189.3 138.1 L189.4 145.4 L192.4 154.5 L193 155.3 L193.4 155.5 L193.3 154.6 L195.2 157.7 L200.3 159.4 L203.4 164 L210.2 168.8 L210 170 L129.5 170 L130.3 167 L129.3 166.1 L126.7 170 L34.1 170 L34.1 51 L29.8 34.4 L33 29.2 L34.3 24.4 L32.6 20.2 L32.3 14.6 L34.7 12.7 L35.3 11.3 L35.7 10.7 L36.6 10 L37.2 12.1 L38.8 12.5 L48.7 10.7 L68.8 14.6 L70.5 17.2 L73.7 17.9 L76.5 16.9 L77.6 19.2 L84.7 19.4 L93.9 23.7 L96.3 23.6 L96.7 23.6 L98.7 22.6 L100.9 21.6 L109.3 15.3 L110.8 16.4 L110.7 17.3 L112.5 16.9 L112.5 16.3 L110.9 16.3 L112.9 15.1 L113.4 12.6 L114.2 13.5 L113.6 12.4 L115.5 13.3 L122.7 11.2 L116.5 13.9 L119.1 14.4 L119.9 13.5 L122.8 13.6 L123.5 12.3 L124.8 12.7 L124.7 11.9 L122.7 11.2 L124.5 10.8 L131.3 13.5 L137 12.2 L138 14 L140.8 16 L137.8 14.3 L136.1 12.1 L135.5 12.6 L136 13.8 L135.2 13.5 L136 14 L135.3 14.1 L135.7 15 L134.8 14.9 L134.4 16.2 L136.1 17.2 L136.4 16.7 L136.7 17.8 L138.4 17.3 L138.1 18.8 L138.6 18.5 L138.5 19.5 L139.4 20 L139.3 19.3 L142 18.6 L142 16.5 L140.9 16 L142.7 16.4 L146.7 19.9 L151.5 18.3 L147.7 20 L148.8 20.2 L151.5 19 L152.5 20 L153.6 18.6 L151.9 19.1 L154.2 17.6 L154.6 20.1 L157.1 19.6 L156.7 19.1 L158.6 18.3 L162.2 18.9 L170.3 15.7 L172.8 22.4 Z M188.5 153.7 L185.3 156.9 L187.3 155 L189.3 153 L191.3 151 L188.5 153.7 Z M178.9 161.6 L179.6 159.9 L180.1 158.6 L178.9 161.6 Z M174.8 165.6 L177.5 165 L173.6 165.8 L169.6 166.7 L172.1 166.2 L174.8 165.6 Z"/>
  </g>
</svg>
