<svg xmlns="http://www.w3.org/2000/svg" viewBox="0 0 240 180">
  <g fill="#17324a" stroke="#fffaf3" stroke-width="3.2" stroke-linejoin="round" stroke-linecap="round">
  <path d="M11.5 96.6 L10 90.5 L10.7 86 L11.4 84.7 L12.5 83.6 L15 82.2 L16.2 81.3 L19.7 76.1 L28.5 70 L30.4 68 L31.4 67.4 L35.4 65.8 L36.8 65.8 L38.5 66.2 L40.8 68 L42.2 68.6 L43.5 67.9 L43 64.3 L46.9 57.4 L48.8 55.4 L51.1 53.7 L53.5 52.6 L63.3 50.2 L63.9 49.6 L60.7 42.9 L57.7 41.9 L57.1 40.6 L59.2 38.2 L57.8 35.1 L58.4 33.6 L59.7 32.7 L61.1 32.8 L62.1 33.8 L62.3 35.6 L63.6 34.7 L65.8 31.9 L66.4 31.7 L67.4 31.2 L70.9 32.4 L72.4 32.1 L74.5 29.9 L75.4 29.6 L75.5 31.4 L76 30.6 L76.1 30.4 L78.7 32.4 L91.1 35.5 L93.5 37.1 L97.7 38.4 L100.6 34.3 L101.4 34.1 L101.9 34.2 L103.3 36.2 L103.1 39 L108.7 41 L110.1 45.9 L112.4 47.6 L113.2 48.6 L114.8 53.4 L115.6 54 L120.3 52.6 L122.5 54.1 L124.5 56.5 L125.8 59.3 L126.4 62 L128 61.7 L132 62 L134.9 60.9 L135.5 62 L134.8 66.5 L138.6 67.8 L139.3 68.4 L139.8 69 L139.9 70.5 L145.1 70 L152 72.3 L156.1 72.6 L156.9 72.9 L157.8 73.7 L157.1 74.3 L157.2 74.5 L157.7 75.6 L157.1 79.2 L158.4 84.1 L157.6 85.4 L160.1 85.3 L167.1 82.7 L170.1 83.4 L170.6 81.6 L173.2 82.2 L173.8 81 L176.9 80.2 L178.9 77.7 L181.4 77.2 L181.8 75.9 L181.7 75.7 L180.8 74.9 L180.6 72.4 L191.5 72.2 L193.9 72.4 L195 73.2 L196.3 76.7 L200.8 81.6 L201.6 84 L205.7 81.9 L207.1 81.5 L209.8 82.7 L212.1 81.3 L215.6 81.7 L218.2 79.4 L219.6 79.3 L222.1 83.6 L230 88.8 L229.2 90.1 L227.3 94.4 L226.9 95.9 L227.5 97.5 L225.3 100.5 L224.8 107.4 L222.7 112.7 L222.1 115.3 L223.1 117.4 L227.3 117.7 L228 118.5 L228.5 119.6 L228.6 120.8 L228.4 122.1 L226.8 123.9 L219.6 127.2 L217.7 123.9 L215.1 128.4 L214.5 131 L222 136.7 L222.1 137.3 L222.1 138.4 L221.4 140.4 L219.6 141.8 L212.8 145.3 L210.9 146.7 L210.6 148.2 L212.7 149.7 L209.5 150.4 L196.9 149.6 L194 149 L184 150.3 L175.5 149 L173.3 149.7 L172.1 149.3 L170.8 149 L170.8 148.4 L172.9 148.3 L173 146.8 L171.9 145 L170.3 143.9 L172.1 147.1 L168.8 147 L167.2 147.1 L165.8 147.7 L169.6 147.7 L169.6 148.4 L167.4 149.3 L165.1 149.2 L163.3 148.1 L162.7 145.8 L163.6 146.2 L164 146.4 L165.2 145.1 L165.2 144.6 L160.8 140.7 L161.5 145.1 L154.6 142.5 L153.1 139.8 L152.4 139.4 L151.3 139.3 L148.3 138.7 L137 140 L137.6 140.5 L138.3 140.9 L142.1 141.3 L149.5 140.5 L150.3 140.7 L154 144.6 L148.3 143.2 L148.3 143.9 L155.8 145.4 L159.7 146.7 L161.5 148.4 L160.8 149.5 L154.8 146.7 L131.3 142.3 L128.4 141 L105.8 130.4 L95 123.7 L88.8 121 L76.6 118.8 L63.6 118.9 L49.7 115.1 L46.6 115.7 L38 115.9 L36.6 114.9 L35.7 111.4 L35.3 109.3 L34.2 108.3 L11.5 96.6 Z"/>
  </g>
</svg>
