<svg xmlns="http://www.w3.org/2000/svg" viewBox="0 0 240 180">
  <g fill="#17324a" stroke="#fffaf3" stroke-width="3.2" stroke-linejoin="round" stroke-linecap="round">
  <path d="M115.5 90.4 L116.9 95.6 L118.2 96.7 L119.6 97.7 L126.3 100.3 L201 100.3 L201.8 165.8 L128.4 165.6 L126.8 165.8 L125.7 165.9 L125.2 169.2 L124.5 169.8 L123.6 170 L122.6 169.8 L121.7 169.4 L118.3 166.4 L117.5 166.1 L115.8 165.9 L115.5 162.5 L117.9 161.4 L113 159.8 L110.7 160.3 L110.1 160.2 L110.9 158.3 L106.7 162.3 L104.8 162.8 L103.4 163.4 L102.9 162.7 L102.1 160 L100.1 158.3 L92.9 159.5 L90.1 155.6 L92.1 153.7 L93 150.8 L93.5 149.8 L95.8 147.8 L96.8 142.5 L98.3 141.8 L100.5 139.8 L105.2 132.7 L107.6 134 L112.4 132.1 L111.3 132.1 L109 133.7 L108 133.4 L105.6 131.1 L104.7 129.6 L105.3 128 L111 122.4 L116.1 113.2 L113.6 104.8 L114.8 95.6 L113.7 92.1 L114.4 91.2 L115.5 90.4 Z"/>
  <path d="M66.3 11.2 L67.8 13.1 L68.3 14 L68.3 17.3 L62.8 24.6 L60.3 30.1 L60.2 30.2 L58.6 31.2 L58 35.6 L53 42.3 L48.2 40 L45.9 40.4 L39.8 38.1 L38.2 34.3 L39.3 29.7 L40.1 28.3 L41.1 27.4 L47 27.4 L46.7 24.6 L49.4 22.2 L49.8 17 L50.5 15 L52 12.6 L53.9 10.6 L56.2 10 L56.1 10.2 L55.9 10.8 L57.6 11.2 L66.3 11.2 Z"/>
  </g>
</svg>
