<svg xmlns="http://www.w3.org/2000/svg" viewBox="0 0 240 180">
  <g fill="#17324a" stroke="#fffaf3" stroke-width="3.2" stroke-linejoin="round" stroke-linecap="round">
  <path d="M95.7 138.2 L98.8 127.9 L100.5 125.8 L101.1 124.6 L101.2 113.5 L104 110.2 L104.5 108.7 L104.1 107.2 L103.4 106.1 L100.4 103.8 L99 103.2 L97.6 103 L96.4 103.6 L96 104.2 L93.5 110.8 L90.5 111 L88.9 113.4 L84.4 108.3 L80 106.9 L79.3 105.9 L76.1 106.6 L73.9 100.5 L73.9 94.6 L73.4 93.8 L71.3 93.8 L69.9 90.7 L68.3 92.6 L67.8 92.1 L68.4 89.3 L67.7 83.1 L69.4 82.3 L68.9 79.8 L69.3 79.7 L70.7 80.4 L74.6 79.5 L78.2 80.9 L77.6 77.7 L78.1 77.2 L80.7 78.2 L77.6 76.2 L76.7 77.2 L76 76.4 L75.3 76.3 L73.9 76.8 L71.3 76.6 L69 78 L65.3 78.6 L66.6 76.2 L68.6 75 L66.5 72 L65 67.7 L65.8 66.7 L70.7 66.1 L72.2 64.4 L71.4 60.8 L70.6 60 L69.8 59.5 L71.7 62.2 L70.5 62.6 L69.6 64.9 L66.4 63.5 L65.5 62.7 L64.6 61.3 L65.5 61.3 L65.3 60.1 L65.5 59.3 L67.1 57.4 L67.4 57.1 L67.8 57.3 L68.4 58.1 L68.4 54.7 L67.3 51.4 L66.7 48.9 L68.6 47.7 L70.2 48.1 L73.4 45.8 L75.7 47.7 L75.5 45.4 L75.9 44.5 L76.6 44.1 L79.7 44.1 L81.2 44.5 L86.4 43.5 L87.8 45 L88.5 43.4 L88.2 42.2 L85.8 37.9 L86.3 37.2 L86.7 36.7 L87.2 36.6 L87.8 36.7 L88.8 37.4 L90.8 39.5 L91.8 39.9 L92.7 39.4 L90.7 36.3 L95.7 35.1 L96.6 31.7 L98.9 31.2 L99.7 31.3 L102.3 33.5 L104 32.2 L107.3 34 L107.9 33.7 L107.8 33.1 L106.6 31.7 L107.5 31.8 L107.9 31.6 L108.4 30 L110.8 33.3 L111.8 33.1 L113.3 30.5 L111.8 25.8 L112.9 25.1 L114.2 26.1 L116.5 29 L117.4 29.2 L120.1 28.5 L123.1 29.9 L123.9 27.1 L133.8 30.4 L134.1 28 L138.5 27.4 L136.9 25.1 L136.5 18.5 L141.2 24.4 L142 25 L143.1 25.4 L144.1 25.2 L144.6 23.9 L142.9 19.4 L143.7 18.4 L144.8 18.7 L146.7 20.7 L147.2 23.7 L147.6 24.4 L148.3 24.8 L150 23.1 L149.8 22.6 L150.2 21 L152.4 23.5 L153.1 23.3 L153.5 21 L153.9 20.8 L154.4 20.9 L157.4 24.1 L164 24 L171.5 27.1 L174.5 25.8 L176 25.9 L177.3 26.3 L182.9 31.3 L186.8 33.1 L203.1 33 L219.2 35.9 L220.6 35.4 L221.9 34.5 L223 33.3 L224.2 31 L227.2 33.8 L230 38.1 L229.8 39.3 L229 38.8 L227.5 40 L224.7 40.3 L223.6 40.8 L226.1 41.8 L226.9 41.8 L226.2 42.7 L222.1 42.6 L220.2 43.7 L219.5 44.7 L218.1 52.3 L213.6 63.5 L205.5 71.3 L204.4 75 L203.1 79.3 L208.1 103.2 L206 108.2 L205.6 111.6 L206.1 114.7 L210.7 123.6 L210.8 129.1 L211.4 129.4 L212.1 130 L212.3 131.6 L211.9 134.8 L212.2 135.2 L215.7 136.7 L216.3 137.3 L216.6 138.7 L213.2 141.1 L207.1 142.2 L207.4 142.4 L208.1 143.1 L206.3 144.5 L206.5 148.4 L202.2 151.1 L202.2 155.5 L200.3 157.1 L201.1 160.8 L200 161.6 L194.7 159.5 L191.9 159.4 L188.3 155.4 L184.5 154.2 L181.8 157.9 L181.2 158.1 L178.5 157.9 L177.4 158.3 L176.3 159 L174.4 161.5 L173.1 160.8 L171.6 161.6 L169.2 158.5 L164.6 156.1 L159 147.7 L155.2 144.4 L154.8 139.9 L154.4 139.7 L147.1 139 L145 134.5 L140.5 135.3 L138.4 131.9 L135.5 130.5 L133.4 127.9 L130.9 127.1 L129.4 124.5 L128.8 124.4 L128.4 124.9 L128.3 126 L129.3 127.8 L129.5 128.9 L128.8 129.8 L127.7 130.4 L127.2 130.4 L126.7 130 L125.5 125.5 L124.6 124.9 L122.9 125 L117.9 129 L115.3 129.4 L113.3 131 L110.4 129.9 L108.8 132.9 L103.5 133.1 L101.7 134.8 L100.3 135.5 L98.1 138.8 L97.2 138.8 L95.7 138.2 Z"/>
  <path d="M58.4 95.9 L61.5 98 L62 99.1 L61.7 100 L59.5 98.5 L58.7 99.1 L60.1 100.4 L58.6 100.2 L55.8 97.7 L54.7 100.5 L53.3 100.9 L53.4 103.2 L52.6 103.8 L51.9 104.7 L51.2 105.3 L49.6 104.1 L48.9 104.1 L48.6 104.7 L49.4 105.5 L47.1 108.7 L43.9 111.3 L40.8 111.5 L40.4 112.3 L42 113.3 L40.8 114.4 L39 114.7 L38.5 113.2 L38 112.8 L37.3 112.6 L35.4 113.8 L34.3 112.5 L33.3 114.6 L32.3 113.1 L26 116.6 L25.2 117.8 L24.7 123.2 L22.7 127.7 L22.7 128.3 L22.8 129.8 L22.4 130.5 L17.5 135.1 L16.4 135.1 L14.5 130.5 L15.4 130.6 L15.7 130.5 L18.8 123.9 L20.9 124.1 L22.8 119.6 L18.3 117.7 L15.6 113.2 L13.3 113.1 L12.2 112.8 L11.2 111.8 L10.4 109.3 L10.8 109 L12.6 109.6 L11.4 106.7 L12.2 106.4 L13.9 108.2 L14.7 105.9 L15.5 105.6 L16.2 105.9 L13.9 100.7 L10 95.5 L11.8 96.3 L12.4 96.3 L13.3 95 L14.6 95 L15.7 95.4 L18.9 101.4 L19.7 96.3 L21.8 94.8 L22.5 93.2 L23.2 93.1 L23.7 95.5 L24.2 95.9 L25.3 96.1 L25.8 91.6 L27 90.6 L31.8 90 L34.9 87.6 L36 87.3 L38.2 90.4 L39.4 89.5 L41.3 90.4 L43.9 88 L45.1 88.7 L47 88.2 L47.7 88.4 L53.6 91.5 L55.6 94.8 L57 95.5 L58.4 95.9 Z"/>
  <path d="M25.9 69.9 L23.7 70.5 L22.6 70.4 L18 67.9 L17.4 67.2 L17.7 66.1 L31.8 64.9 L31.2 64.5 L31.1 64 L32.7 64.2 L32.7 61.9 L35.2 60.4 L36.1 57.2 L38.9 57.3 L39.9 57.7 L40.5 58.4 L39.7 60.2 L40.1 61.3 L40.7 62.2 L41.3 62.6 L44.8 62.4 L48.1 64 L48.7 67.2 L51 70.2 L51.8 73.6 L51.6 74.3 L51.1 74.3 L48.9 73.1 L48.4 74 L46.3 74.1 L45.8 74.9 L46.5 76.9 L45.1 77.8 L42.8 76.8 L44.2 74.3 L43.6 74.3 L42.7 74.7 L41.9 75.3 L41.3 75.8 L38.5 82.7 L37 83.5 L35 83.8 L33.2 83.3 L31.8 81.8 L33 80.4 L31.4 77.1 L30.7 72.8 L29 70.8 L28.1 70.2 L27.1 69.8 L25.9 69.9 Z"/>
  <path d="M63.6 90.9 L64.2 92 L64.3 92.5 L63 94 L60.1 93.1 L58.2 93.8 L55.1 90.9 L53.3 90.2 L52.5 89.3 L52.6 87.9 L54.6 87.7 L55.8 84.5 L56.5 84.2 L57.3 84.2 L60.4 85.1 L61.9 86 L63.6 90.9 Z"/>
  </g>
</svg>
