<svg xmlns="http://www.w3.org/2000/svg" viewBox="0 0 240 180">
  <g fill="#17324a" stroke="#fffaf3" stroke-width="3.2" stroke-linejoin="round" stroke-linecap="round">
  <path d="M165.2 32.5 L167.6 34.7 L170.2 36.2 L176.2 37.7 L175 40.9 L177.2 51.8 L173.4 65.5 L174.6 75.9 L175.2 78.7 L179.5 87.4 L180.4 95.7 L180.1 121.8 L178.7 121.1 L176.4 118.9 L175 118.6 L168.9 118.6 L169.1 121.6 L164.6 148.2 L165 163.8 L166.9 170 L126.9 169.5 L120.8 168.2 L93.4 158.8 L92.1 157.9 L90.7 156.5 L86.4 150 L77.1 141.5 L75 138 L75.2 127 L70.4 120.9 L68.8 116.3 L68.4 114.9 L64.4 118.2 L62.9 118.5 L61.3 118.6 L60.7 116.3 L59.8 109.3 L59.7 95.3 L59.6 84.6 L61.5 77 L69.9 66.3 L76.5 57.9 L82.6 46.9 L90.1 27.6 L98.1 20.4 L107.2 12.2 L109.8 10.9 L112.9 10 L115.6 10 L117.9 10.8 L154.8 34.9 L157.4 35.7 L160 35.1 L165.2 32.5 Z"/>
  </g>
</svg>
