<svg xmlns="http://www.w3.org/2000/svg" viewBox="0 0 240 180">
  <g fill="#17324a" stroke="#fffaf3" stroke-width="3.2" stroke-linejoin="round" stroke-linecap="round">
  <path d="M31.7 85.6 L31.7 84.6 L32.1 82.5 L35.1 75.6 L34.6 70.1 L36.5 67.1 L38.7 65.7 L41.1 68.5 L42.3 67.9 L43.8 65.9 L43.3 64.6 L44.2 61.9 L44.3 61.5 L43.7 60.6 L45.6 56.2 L45.3 53 L48.9 49.8 L53.9 41 L59.9 40.4 L59.8 37.1 L61.5 31.2 L63.5 28.2 L63.7 27.8 L65.5 18.6 L68.6 17.6 L72.2 18.6 L74.1 16.1 L76.1 15.9 L79.7 20.8 L84.3 10 L85.9 12.2 L89 12.8 L91.8 16.5 L97.7 15.4 L99.7 13.2 L101.6 14.2 L102.4 16.1 L106.7 14.3 L112.1 16.4 L114.8 15.8 L124.8 20.8 L129.7 27.6 L136.9 32.7 L140.1 37.9 L143.4 39.9 L146.1 43.7 L140 52.6 L138.2 53.8 L137.4 56.6 L137.7 64.4 L140 65.1 L149.2 62.8 L151.8 64.2 L153.6 64.1 L149.8 69.2 L152.4 75.1 L155.6 79.1 L157.5 80.1 L157.9 82.3 L158.1 82.9 L160.2 86 L163.2 87.3 L168.2 91.9 L209.4 106 L223.2 106 L200.9 127.7 L181.4 149 L168 148.4 L161.9 149.9 L155.1 153.6 L152.3 157.5 L142.3 159 L138.6 162.4 L136.7 161.7 L129.3 162.5 L123.8 157.7 L111.2 163.5 L110.1 166.1 L106.5 170 L103.9 168.7 L98.1 168.5 L92.8 166.5 L91.2 167.3 L87.2 167.1 L72.3 156.5 L69.9 155.7 L58.8 155.5 L57.5 154.6 L57.2 153 L55.3 151 L55 150.4 L55.6 143.3 L51 141.7 L48.7 142.8 L48.1 140.6 L45.9 139.1 L44.3 136 L43.9 132.9 L40.4 124.2 L38 123.3 L37.7 121.4 L36.8 120.8 L34.8 120.3 L33.2 117.5 L31.2 116.4 L30.8 114.1 L26.7 110.6 L17.7 108.7 L16.8 107.1 L19.6 103.7 L19.2 100.9 L20.2 99.6 L25.2 99.4 L27.4 100.8 L32 98.2 L31.7 85.6 Z"/>
  </g>
</svg>
