<svg xmlns="http://www.w3.org/2000/svg" viewBox="0 0 240 180">
  <g fill="#17324a" stroke="#fffaf3" stroke-width="3.2" stroke-linejoin="round" stroke-linecap="round">
  <path d="M229.2 91.4 L228.3 91.3 L229.2 91.4 Z"/>
  <path d="M230 90.2 L229.2 90.8 L230 90.2 Z"/>
  <path d="M229 92 L229 92 L229.1 92 L229.1 92 L229.1 92 L229.1 92 L229.1 92 L229.1 92 L229.1 92 L229.1 92 L229 92 L229 92 L229 92 L229 92 L229 92 L229 92.1 L229 92.1 L229 92 L229 92 L229 92.1 L229 92 L229 92 L229 92 L229 92 L229 92 L229 92 L229 92 L229 92 L229 92 L229 92 L229 92 L228.9 92 L228.9 92 L228.9 92.1 L228.9 92.1 L228.9 92.1 L228.9 92.1 L228.9 92.1 L228.9 92.1 L228.9 92.1 L228.9 92.1 L228.9 92.1 L228.9 92.1 L228.9 92.1 L228.9 92.1 L228.9 92.1 L228.9 92.1 L228.9 92.1 L228.9 92.1 L228.9 92.1 L228.9 92.1 L228.9 92.1 L228.9 92.1 L228.9 92.1 L228.9 92.1 L228.9 92.1 L228.9 92.1 L228.9 92.1 L228.8 92.1 L228.8 92.1 L228.8 92.1 L228.8 92.1 L228.8 92.1 L228.8 92.1 L228.8 92.1 L228.8 92.1 L228.8 92.1 L228.8 92.1 L228.8 92.1 L228.8 92.1 L228.8 92.1 L228.7 92.1 L228.8 92.1 L228.8 92.1 L228.8 92.1 L228.8 92.1 L228.8 92.1 L228.8 92.1 L228.8 92.1 L228.8 92.1 L228.9 92.1 L228.9 92.1 L228.9 92.1 L228.9 92.1 L228.9 92 L228.9 92 L228.9 92.1 L228.9 92 L228.9 92 L228.9 92 L228.9 92 L228.9 92 L228.9 92 L229 92 L229 92 L229 92 L229 92 L229 92 L229 92 L229 92 L229 92 L229 92 L229 92 L229 92 L229 92 L229 92 L229 92 L229 92 Z"/>
  <path d="M10 90.7 L10 90.6 L10 90.6 L10.1 90.6 L10.1 90.6 L10.1 90.5 L10.1 90.5 L10.1 90.6 L10.1 90.6 L10.1 90.6 L10.1 90.6 L10.1 90.6 L10.1 90.6 L10.1 90.6 L10.1 90.6 L10.1 90.6 L10.1 90.6 L10.1 90.7 L10.1 90.7 L10.1 90.7 L10.1 90.7 L10.1 90.7 L10 90.7 L10 90.7 L10 90.7 Z"/>
  <path d="M229.6 91.4 L229.6 91.4 L229.6 91.4 L229.6 91.5 L229.6 91.5 L229.6 91.4 L229.6 91.4 L229.6 91.4 L229.6 91.4 L229.6 91.4 L229.6 91.4 L229.5 91.4 L229.6 91.4 L229.5 91.4 L229.5 91.4 L229.5 91.4 L229.5 91.4 L229.5 91.4 L229.5 91.4 L229.5 91.4 L229.5 91.4 L229.5 91.4 L229.5 91.4 L229.6 91.3 L229.6 91.3 L229.6 91.3 L229.6 91.3 L229.6 91.4 L229.6 91.4 L229.6 91.4 Z"/>
  <path d="M230 90.6 L230 90.7 L230 90.7 L230 90.7 L230 90.7 L230 90.7 L230 90.8 L230 90.8 L230 90.8 L229.9 90.8 L229.9 90.7 L229.9 90.7 L229.9 90.7 L229.9 90.7 L229.9 90.7 L230 90.7 L230 90.7 L230 90.7 L230 90.6 L230 90.6 L230 90.6 Z"/>
  <path d="M229.7 90.9 L229.7 91 L229.7 91 L229.7 91 L229.6 91 L229.6 91 L229.6 91 L229.6 91 L229.6 91 L229.6 90.9 L229.6 90.9 L229.6 90.9 L229.6 90.9 L229.6 90.9 L229.6 90.9 L229.7 90.9 L229.7 90.9 L229.7 90.9 L229.7 90.9 L229.7 90.9 Z"/>
  <path d="M229.3 91.2 L229.3 91.1 L229.3 91.1 L229.3 91.2 L229.3 91.2 L229.3 91.2 L229.3 91.2 L229.3 91.2 L229.3 91.2 L229.3 91.2 L229.3 91.2 L229.3 91.2 L229.3 91.2 L229.2 91.2 L229.2 91.2 L229.2 91.2 L229.2 91.2 L229.2 91.2 L229.3 91.2 Z"/>
  <path d="M11 91.3 L11.1 91.3 L11.1 91.3 L11.1 91.3 L11.1 91.3 L11.1 91.4 L11.1 91.4 L11 91.4 L11 91.4 L11 91.4 L11 91.3 L11 91.3 L11 91.3 Z"/>
  <path d="M228.3 90.8 L228.3 90.8 L228.3 90.8 L228.3 90.8 L228.3 90.8 L228.3 90.8 L228.3 90.8 L228.3 90.8 L228.3 90.8 L228.3 90.8 L228.3 90.8 L228.3 90.8 L228.3 90.8 L228.3 90.8 L228.3 90.8 L228.3 90.8 L228.3 90.9 L228.3 90.9 L228.3 90.9 L228.3 90.9 L228.3 90.9 L228.3 90.9 L228.3 90.8 L228.3 90.8 L228.3 90.8 L228.3 90.8 L228.3 90.8 L228.3 90.8 L228.3 90.8 L228.3 90.8 L228.3 90.8 L228.3 90.8 L228.3 90.8 L228.3 90.8 L228.3 90.8 L228.3 90.8 L228.3 90.8 Z"/>
  <path d="M10.6 90.9 L10.7 90.9 L10.7 90.9 L10.7 90.9 L10.7 90.9 L10.7 90.9 L10.6 90.9 L10.6 90.9 L10.6 90.9 L10.6 91 L10.6 90.9 L10.6 90.9 L10.6 90.9 L10.6 90.9 L10.6 90.9 L10.6 90.9 L10.6 90.9 L10.6 90.9 L10.6 90.9 L10.6 90.9 L10.6 90.9 L10.6 90.9 L10.6 90.9 L10.6 90.9 L10.6 90.9 L10.6 90.9 L10.6 90.8 L10.6 90.9 L10.6 90.9 L10.6 90.9 L10.6 90.9 Z"/>
  <path d="M10 90.5 L10 90.4 L10 90.4 L10 90.4 L10 90.4 L10 90.4 L10.1 90.4 L10.1 90.4 L10.1 90.4 L10.1 90.4 L10.1 90.4 L10.1 90.4 L10.1 90.4 L10.1 90.4 L10.1 90.4 L10.1 90.4 L10 90.4 L10 90.4 L10 90.4 L10 90.4 L10 90.4 L10 90.4 L10 90.4 L10 90.4 L10 90.4 L10 90.5 Z"/>
  <path d="M230 91.7 L230 91.7 L230 91.7 L230 91.8 L230 91.8 L229.9 91.8 L229.9 91.8 L229.9 91.8 L229.9 91.8 L229.9 91.8 L230 91.8 L229.9 91.8 L229.9 91.8 L229.9 91.8 L229.9 91.8 L229.9 91.8 L229.9 91.8 L229.9 91.8 L229.9 91.8 L229.9 91.8 L229.9 91.8 L229.9 91.7 L230 91.7 L230 91.7 Z"/>
  <path d="M228.5 90.5 L228.5 90.5 L228.5 90.6 L228.5 90.6 L228.5 90.6 L228.5 90.6 L228.5 90.6 L228.5 90.6 L228.5 90.6 L228.5 90.6 L228.5 90.6 L228.5 90.6 L228.4 90.6 L228.4 90.6 L228.4 90.6 L228.4 90.6 L228.4 90.7 L228.4 90.6 L228.4 90.6 L228.4 90.6 L228.4 90.6 L228.4 90.6 L228.4 90.6 L228.5 90.6 L228.5 90.6 L228.5 90.6 L228.5 90.6 L228.5 90.5 Z"/>
  <path d="M10.8 91.5 L10.8 91.5 L10.8 91.5 L10.8 91.5 L10.8 91.5 L10.7 91.5 L10.7 91.5 L10.7 91.5 L10.7 91.5 L10.7 91.5 L10.7 91.5 L10.7 91.5 L10.7 91.5 L10.8 91.5 L10.8 91.5 Z"/>
  <path d="M228.2 87.9 L228.2 87.9 L228.2 87.9 L228.2 87.9 L228.2 87.9 L228.2 87.9 L228.2 87.9 L228.2 87.9 L228.2 87.9 L228.2 87.9 L228.2 87.9 L228.2 87.9 L228.2 87.9 L228.2 87.9 L228.2 87.9 L228.2 87.9 L228.2 87.9 Z"/>
  <path d="M229.1 91.9 L229.1 91.9 L229.1 92 L229.1 92 L229.1 92 L229.1 92 L229.1 92 L229.1 92 L229.1 92 L229.1 92 L229.1 92 L229.1 91.9 L229.1 91.9 L229.1 91.9 L229.1 91.9 L229.1 91.9 L229.1 91.9 Z"/>
  </g>
</svg>
