<svg xmlns="http://www.w3.org/2000/svg" viewBox="0 0 240 180">
  <g fill="#17324a" stroke="#fffaf3" stroke-width="3.2" stroke-linejoin="round" stroke-linecap="round">
  <path d="M138.9 26.3 L135.3 28.3 L137.9 29.3 L135.5 34.1 L136.9 39.2 L141.4 41.2 L143.5 45.1 L143.9 45.6 L145.8 47.2 L145.2 50 L139.5 59.4 L145.1 71.8 L146.3 76.3 L146.4 78.9 L143.8 79.3 L144.7 80.3 L143 85.4 L144.7 85.9 L144.8 87.4 L143.3 88.1 L143.4 90.6 L143.8 91.6 L144.3 92.3 L146.6 92.7 L147 94.7 L145.5 95.7 L146.1 98.8 L149.5 101.3 L149.4 104.4 L147.1 107.9 L145.6 108.7 L148.8 112.9 L153.9 117.2 L156.1 121.8 L154 128 L151.9 131.2 L150 132.9 L140.5 147.6 L131.3 158.4 L130.8 158.1 L130.6 159.5 L129.3 159 L129.3 159.9 L127.5 159.1 L127.4 157.9 L125.7 160.1 L124.5 159.5 L124 160.5 L123 160.3 L122.5 159.5 L123.2 157.8 L124.3 158.1 L123.7 156.9 L121.7 161.2 L121 160 L121.2 160.8 L120.3 160.9 L118.8 159.5 L120.1 161.8 L119.6 162.4 L118.3 160.8 L118.9 163.2 L117.7 162.1 L118.4 162.9 L117.6 163.2 L117.2 161.4 L116.1 163.2 L114.8 162.8 L113 164.8 L112.8 163.7 L112.4 164.8 L111.7 164 L110.6 165.5 L109.8 164.6 L110.1 166.1 L109.1 167.2 L109.2 166.3 L108.2 167.1 L108.1 165.9 L104.8 167.7 L102.4 167.7 L102.9 166 L101.2 169.5 L98.8 170 L101.2 168.3 L101.8 166.6 L100.3 168.3 L101.3 166.4 L99.6 166.3 L99.9 165.2 L99.4 165.6 L98.7 164.7 L100.1 161.5 L96.4 163.9 L97.2 162.7 L95.9 163.2 L97.1 160.8 L94.9 161.1 L92.3 158.8 L91.5 159.6 L91.9 157.3 L90 159.4 L90.2 158.2 L89.2 158.2 L88.7 156.5 L89.5 155.7 L88.5 154.2 L89.2 153 L88.3 150.5 L89.5 150.5 L89.2 149.2 L90 148.3 L89.3 145.2 L90.1 145 L89.1 143.9 L90 144.1 L90.3 143.9 L89.5 142.6 L91.1 143.3 L89.1 137.3 L87.9 136.1 L88.9 132.5 L88.6 130.3 L88.1 129.5 L87.8 130.7 L87.2 129.6 L87.1 123.7 L88 122.3 L88.8 122.4 L89.6 119.2 L90.9 119.9 L89.6 117 L91.3 117.2 L92.3 116.2 L92.9 118.1 L93.1 116.6 L94.3 116.6 L95.4 115.3 L94.2 113.1 L95.6 113.8 L94.7 112.3 L95.8 113 L96.8 109.3 L97.8 110.6 L98.4 110.3 L98.9 107.9 L99.6 108.4 L100.1 106.9 L102.2 106.1 L102.2 103.8 L103.7 104.1 L103.3 103 L105.2 100.5 L105.8 100.9 L106.1 98.8 L108.4 96.4 L109.7 92.2 L110.6 92.4 L113.2 90.4 L114.2 91.9 L115.2 91.7 L114 89.6 L115.7 89.8 L115.2 87.7 L114.2 87.2 L115.1 81.6 L113.3 79.5 L110.6 79.2 L109.8 77.2 L110.9 74.9 L109.6 76.7 L108.8 77.1 L107.7 76.3 L107.5 77 L105.6 71.2 L104.3 70.3 L103.8 66.7 L105.4 64.7 L105.4 61.8 L106.2 60.9 L103.3 55.2 L104.6 53.2 L104.6 51.4 L102.4 50.4 L103.2 48.8 L102.7 44.5 L103.8 42.9 L101.6 40.1 L100.6 40.4 L100.5 38.7 L98.3 36.2 L93.4 34.9 L85.7 28.4 L85.8 27.1 L83.9 26.2 L84.5 25.2 L84.7 25.1 L87 26.1 L87 23 L88.4 22.2 L90.6 22.5 L95.4 29.5 L95.8 31.3 L99.7 31.6 L100.9 32.7 L104.4 31.2 L105.7 29.6 L110.5 32 L112.1 33.7 L113.6 32.3 L114.1 29.7 L117.1 28.6 L118.1 26.7 L117.6 23.4 L119.2 16.2 L120.8 15.5 L122.9 12.3 L126.6 12.7 L130 10.2 L131.7 10 L135.2 14.3 L140.1 16.4 L140.5 17.6 L141.4 19.5 L138.2 23.6 L138 25.3 L138.1 25.5 L138.9 26.3 Z"/>
  </g>
</svg>
