<svg xmlns="http://www.w3.org/2000/svg" viewBox="0 0 240 180">
  <g fill="#17324a" stroke="#fffaf3" stroke-width="3.2" stroke-linejoin="round" stroke-linecap="round">
  <path d="M121.5 10 L122.6 12.4 L122.3 14 L124.5 16 L125.7 16.4 L128.2 15 L129.8 16.8 L130.2 19.4 L133.7 19.9 L134.9 23 L135.6 22.2 L138.4 22.2 L140.5 23.5 L139.8 25.8 L140.8 26.9 L139.9 28.3 L143.7 29 L145.2 28.2 L145.7 28.2 L146.1 26.5 L147.3 25.4 L147.6 25.2 L148.3 25.6 L147.3 28.3 L148.2 29.3 L148 31.3 L149.4 31.2 L152.7 33 L154.9 36.1 L158.4 35.3 L160.7 37.1 L163.3 36.1 L165.7 36.7 L166.8 37.2 L167 37.4 L169.4 41.8 L171.7 41 L173 42.6 L173.4 42 L175.7 42.6 L177.2 41.6 L179.9 43.8 L183.1 43.8 L186.2 45 L184.9 47.6 L181.7 50.7 L181.1 55.2 L179.1 58.9 L179.6 61.3 L178.3 65.6 L179.2 67.7 L176.8 70.2 L175.1 70.4 L174.6 69.2 L172.2 69.2 L171 71.4 L172.4 71.3 L172.6 71.2 L172.9 71.9 L168.7 76.9 L166.2 78.2 L166.1 81.1 L162.6 83.9 L161.8 86.1 L162.7 87.6 L162.2 89.7 L160.6 90.4 L160.7 91.6 L162.7 91.3 L164.3 89.8 L163.6 88.3 L166.6 86.3 L170.1 86.9 L169.7 88 L170.6 89.3 L169.9 91.5 L170.9 91.7 L170.8 92.9 L171.6 92.9 L172.8 95 L170.1 96.8 L170.2 98.4 L172.1 99.6 L172.3 101.8 L174.3 103.6 L173.2 106.7 L168 108.5 L169.4 110 L169.6 111.7 L172.6 113 L173.1 115.4 L172.1 115.4 L170.6 117.9 L171.6 119.5 L171 120.7 L172.3 122.7 L176.3 124.6 L180 123.8 L180.4 125.5 L178.1 128.5 L178 130.5 L174.2 132.3 L174.1 134 L172.2 134.1 L171.3 136.1 L169.6 136.2 L167.9 138.4 L169.1 138.7 L168.7 140 L165.9 140.6 L165.4 141.6 L163.3 141.3 L162.9 142.6 L160.5 140.9 L159.8 141.1 L160.6 141.8 L159.5 142.4 L157.4 140.1 L153.7 139.6 L153.1 137.3 L150.1 137.6 L150 136.4 L152.3 135.2 L150.1 133.9 L150.5 135.7 L148.2 136.2 L148.1 137.5 L146.3 133.6 L147.7 137.4 L145.1 137.2 L144.2 135.6 L140.4 135.5 L139.6 134 L137.8 134.2 L132.8 138.5 L130.6 138.8 L128.3 141.4 L127.4 144 L127.5 149.9 L129 152.5 L126.2 151.8 L123.5 152.9 L123.1 154 L121.3 154.2 L118.7 152.5 L115.7 153.9 L114.8 152.4 L112.3 151.4 L112.4 149.5 L110.2 148.9 L109.1 149.8 L108.1 147.9 L105.9 147.9 L105.2 146.9 L101.9 145.8 L100.3 145.8 L100.1 148.3 L96.6 147.8 L96 148.6 L94.7 147.6 L92.4 148.3 L89.1 145.7 L86.2 146.8 L84.2 144 L79.7 143 L77.9 142 L78.2 141.3 L77.3 142.6 L76.2 142.4 L76.8 139.1 L75.3 138.4 L74.2 139 L74 138.2 L72.9 138.3 L72.4 136.8 L73.9 136.5 L76 133.6 L78.5 117.5 L79.3 115.7 L80.9 115.6 L79.5 113.8 L78.5 116.3 L79.8 102.1 L80.8 100.8 L84.1 104.8 L86.6 111.8 L86 109.8 L87.2 110.2 L85.3 108.6 L83.8 102.3 L78.6 98.5 L78.8 97.4 L78.8 97.1 L79.6 96.9 L81.6 98.4 L79.7 95.9 L80.6 95.3 L80.2 93.4 L80.9 93.1 L79 90.9 L80.2 88.7 L78.7 89.1 L76.3 88.1 L75.7 86.8 L72.4 85 L72.5 85.7 L71.1 82.3 L68.6 80 L70.2 76.7 L67.3 74.9 L68.2 74.5 L68.2 72.8 L69.9 72.3 L73.2 73.8 L69.9 72 L66.9 73.2 L63.9 72.3 L65.1 72.2 L63.7 71 L65.6 70.3 L64.4 69.2 L65.9 68.9 L63 68.8 L63.5 68.2 L60.7 69.1 L59.7 68.1 L61.6 68.2 L62 66.7 L62 67.4 L61.1 66.7 L59.6 67.5 L58.9 66.3 L59.4 68 L57.3 67.4 L57.2 69.4 L56.4 66.5 L57.3 65.2 L56.5 65 L56.1 66.5 L54.6 65.8 L55.4 65.9 L54.6 65.6 L55.4 64.3 L53.6 65.7 L52.6 64.4 L49 64.1 L47.7 62.5 L47.2 63.3 L45.8 62.1 L45.2 63.9 L43 64 L42.3 61.2 L39 60.1 L44 59 L43 57 L41.7 56.8 L40.9 57.9 L41 56.5 L40.8 56.5 L40.1 56.4 L40.9 55.2 L42.7 56.1 L45.1 55.8 L43.6 55.5 L44.2 54.8 L42.1 55.3 L44 53.7 L38.7 55.2 L38.3 53.6 L39.1 51.5 L40.7 51.5 L40.9 50.5 L43.4 49.6 L43.8 50.3 L45.1 50.1 L47.6 48.8 L47.8 50 L48.1 49.7 L48.3 49.6 L49 50.5 L49.4 48.7 L52 49.6 L52.8 47 L54.2 47.5 L56 46.5 L56.1 47.7 L57.7 46.6 L57.2 48.3 L58.5 47.2 L58.3 48 L59.4 48.2 L62.3 52.4 L66.4 49.3 L66.3 50.5 L67.2 50.1 L67.6 51.2 L69.5 50.1 L70.3 52.4 L70.6 51.4 L69.7 50.2 L70.3 49.4 L71.8 49.1 L71.6 50.3 L71.9 50.5 L72.4 50.7 L77.4 50.2 L75.1 48.5 L74.6 46.8 L75.6 43.8 L74.6 43.7 L74.5 40.8 L75.2 40.6 L74.3 40.7 L73.5 38.5 L72.2 38.2 L71.4 35.7 L71.9 34.2 L70.8 32.4 L74.5 33.7 L76.8 32.6 L78.4 32.9 L78.8 34.1 L77.9 35.2 L80 38.7 L80.6 37.8 L82.1 37.9 L90.3 39.7 L98 36.7 L98.2 36.5 L98.4 36.2 L97.6 36.7 L96.7 36.8 L93.7 35.9 L94.9 32.8 L99.6 30.2 L106.2 28.5 L108.7 26.7 L110.1 24.4 L111.9 24.7 L110.4 23.3 L111.2 21.8 L111.2 21.7 L110.5 21.2 L111.2 18.9 L110.8 13.6 L114.7 11.5 L121.5 10 Z M115.4 152.3 L115.4 152.3 L115.5 152.3 L115.6 152.3 L115.5 152 L115.3 151.7 L115.2 151.6 L115.1 151.6 L115 151.9 L115 152.1 L115.1 152.3 L115.4 152.3 Z"/>
  <path d="M190.3 156.1 L191.7 155.1 L190.2 153.2 L191.4 152.5 L192 150 L192.7 150.4 L195.9 148.7 L196.6 147.5 L198.6 148.5 L199.2 143 L200.1 142.8 L201.7 157.2 L199.9 160.2 L199.9 164.4 L198.6 165.7 L199.3 166.5 L197.7 168.6 L197.9 169.8 L196.4 169.4 L196.2 168.1 L192.9 166.8 L193 165.5 L194.4 164.6 L191.4 163.7 L193.1 161.1 L190.9 161.2 L190.6 160.1 L192.4 158.6 L190.6 157.4 L190.3 156.1 Z"/>
  </g>
</svg>
