<svg xmlns="http://www.w3.org/2000/svg" viewBox="0 0 240 180">
  <g fill="#17324a" stroke="#fffaf3" stroke-width="3.2" stroke-linejoin="round" stroke-linecap="round">
  <path d="M15.6 118.4 L13.1 116.5 L13.4 115.9 L14 114.8 L13.8 113.6 L12.4 109.9 L12.4 104.5 L12 103.5 L10.7 102.1 L10.4 101.1 L11 99.9 L10.7 99.5 L10 97.8 L10.7 97 L11.4 94.7 L14.9 92.8 L19.2 87.5 L21 86 L23 88.1 L24.3 87.4 L25.6 87.3 L26.7 87.8 L27.5 88.6 L27.9 89.9 L25 91.1 L26.1 92.2 L27.1 94.3 L27.6 96.6 L27.5 97.8 L30.2 101 L30.7 101.4 L34.4 101.6 L35.5 101.9 L40 104 L40 107.6 L41.4 106.4 L42.1 106.4 L43 107.1 L40.3 103.2 L38.5 102.5 L42.5 101.9 L43.2 103.4 L51.8 98.8 L53.8 99.5 L54 104 L55.3 104.4 L57.1 103.8 L59.6 102.5 L59.6 101.9 L58.8 102 L56.1 103.8 L55.2 99.7 L54 98.2 L54.8 95.2 L58.8 91 L71 92.2 L77.9 91.3 L80 90.1 L87.8 90.4 L94.8 87.5 L97.3 89.1 L98.3 89.1 L99.1 89 L103.1 85 L107.1 86.6 L110.7 86.4 L113.1 89.1 L115.6 89.9 L118.8 90.1 L121.4 89 L122.2 86 L119.4 89.1 L113.3 87.7 L109.7 84.9 L107.8 85.5 L103.1 83.6 L101.6 84 L99.1 86.5 L94.6 85.5 L87.4 88.3 L64 90.2 L58.9 89.4 L50.7 96 L50.1 96.2 L49.5 95.8 L49.5 92.7 L48.3 93.8 L48.1 94.4 L48.5 95.3 L47.8 95.7 L47.5 95.8 L48.5 96.7 L47.1 97.5 L40.5 97.8 L34.9 96.4 L32.5 96.3 L34 93 L32.6 89.3 L30 86.8 L30 85.2 L30.6 82.1 L29.6 79.2 L105.8 79.4 L107 79 L107.4 74.5 L109.5 70 L111.8 67.6 L114.9 65.3 L118.3 64 L121.4 64.5 L124.2 67.5 L136.5 61.6 L138.1 61.7 L142.5 63.4 L149.8 63.7 L152.5 64.6 L156 68 L156.7 69.4 L158.1 74.2 L162.6 77 L171 73.4 L174 73.6 L177.1 75.1 L178.5 76.2 L179.5 77.5 L182.4 84 L190 89.1 L191.4 89.3 L192.6 89 L202.4 84.3 L217.6 79.7 L224 82.6 L225.2 85.3 L228.2 87.4 L230 91 L229.7 94.8 L227.6 98 L224 99.6 L208.2 102 L202 106 L189.8 105.5 L187.9 105 L185.2 103.6 L182.4 100.8 L178.1 100.2 L173.5 96.7 L171.1 97.3 L168.4 97.6 L165.7 97.3 L163.3 96.3 L159 91.9 L152.6 89.3 L149.8 89.1 L147.4 88.5 L142.5 86 L133.6 78.9 L132 79.6 L127.8 84.6 L127.5 89.2 L127 91.3 L125.5 93.3 L123.4 94.7 L121.1 95.6 L118.7 96 L116 96 L108 94.3 L105.7 94.2 L100.1 96.5 L98.9 96.6 L94 96.1 L83.9 98.2 L82.8 111.5 L21.4 110.9 L18.9 111.5 L15.9 115.8 L15.7 116.6 L15.6 118.4 Z"/>
  </g>
</svg>
