<svg xmlns="http://www.w3.org/2000/svg" viewBox="0 0 240 180">
  <g fill="#17324a" stroke="#fffaf3" stroke-width="3.2" stroke-linejoin="round" stroke-linecap="round">
  <path d="M61.3 85.7 L59.7 75.3 L57.2 70.9 L50.6 68.2 L48.2 68.5 L44 59.8 L41.1 60.2 L38.5 56.6 L36.1 55.7 L32.9 55.2 L29.5 55.5 L27.2 53.6 L26.2 53.5 L23.5 52.2 L22.3 52.1 L21.4 53.2 L17.6 45.3 L10 42.2 L12.8 35 L13.6 34.5 L15.8 33.9 L18.1 33.9 L26.2 36.8 L27.5 37 L31.8 35.5 L39.2 39.2 L43.6 42.8 L44.6 43 L48.1 42.6 L52.4 44.6 L54.7 44.2 L55.7 44.6 L56.8 46.5 L62.2 49.9 L72.4 50.2 L77.5 51.4 L82.1 49.4 L87.7 48.9 L87.9 49 L89.9 49.2 L95.6 53.2 L98.1 52 L103.3 51.9 L108.8 55 L108.5 57.1 L113.9 62 L125.8 65.6 L130.6 69.2 L135.1 70.6 L135.5 71.9 L132.6 74.7 L132.5 76 L133.5 77.2 L137.9 78.1 L139.7 79.3 L143.4 76.5 L148.1 75.8 L150.6 72.6 L153.5 72.5 L158.3 70.5 L159.9 70.4 L161.3 70.5 L163.9 71.7 L165.8 73.7 L166.6 76.3 L167 76.7 L169 71.2 L169.8 70.1 L171.2 70.4 L174.8 72.9 L175.4 73.2 L179.5 73 L186.1 80.7 L192 79.7 L194.8 80.2 L197.3 81.2 L198.7 82.8 L198.7 82.9 L198.6 83.9 L194.8 93.8 L195.1 94.8 L201 98.6 L203.3 99.2 L205.1 102.5 L209.1 102.8 L210.5 104.4 L214.3 103.9 L216.9 106.5 L220.5 107.5 L221.3 108.6 L218 114.1 L213.4 115.3 L213.5 121 L214.4 121.8 L215.5 120.8 L217.5 126.2 L226.6 131.6 L230 136.1 L228.3 138.9 L227.4 143.3 L224.3 144.2 L222.8 146.1 L220.7 144 L218.8 143.4 L218.1 143 L214.7 139.4 L214.1 139.2 L211.7 139.2 L207.8 140.8 L206.2 140.6 L201.3 138.8 L196.9 135 L198.8 133.2 L191.2 130.6 L190.1 129.6 L189.7 129 L187.4 129.3 L183.7 128 L173.4 136.2 L168.5 136 L167.9 136.6 L169.8 138.4 L169.4 138.8 L161.7 138.2 L159.7 140.2 L158.6 138.9 L156.5 140.1 L152.9 138.6 L151 139.6 L147.5 137.9 L145.7 140.2 L137.1 141 L133.6 143.3 L126 142.6 L124.3 143.4 L123.9 143.5 L123.2 141.2 L122.3 140.3 L121.4 139.8 L116.4 140.4 L114.5 137.3 L112.2 137.1 L114.9 134.8 L108.9 131.1 L104.5 125.9 L104.1 126.2 L103.3 127.1 L101.2 125.7 L102.4 124.4 L102.9 122.7 L102.3 122.4 L95.2 122.4 L93.6 126.2 L90.8 129 L81.2 125.9 L76.7 126.6 L74.3 125.7 L69.9 129.4 L66.4 127.6 L66.3 126.4 L64.2 126.9 L63.8 126.8 L60.3 125.3 L62.5 121.4 L63.4 120 L65.4 118.7 L68.6 112.1 L68.2 104.1 L65 98.7 L62.8 88.3 L61.3 85.7 Z"/>
  </g>
</svg>
