<svg xmlns="http://www.w3.org/2000/svg" viewBox="0 0 240 180">
  <g fill="#17324a" stroke="#fffaf3" stroke-width="3.2" stroke-linejoin="round" stroke-linecap="round">
  <path d="M164.5 138.7 L164.3 141.9 L163.2 143.8 L159.7 142.7 L159.1 146.8 L151.9 150.6 L150.3 152.3 L153.6 157.9 L152.3 160.5 L154 160.7 L154.7 161.9 L153.8 165.9 L150.8 164.1 L151.3 162.9 L150.6 161.7 L147.1 162.5 L145.9 161.1 L143.7 161.5 L143.7 160.3 L142.9 160.9 L142.9 163 L135.6 163.3 L134.7 164.9 L132.8 165.1 L132.5 166.4 L130.5 167.4 L130 166.7 L127.1 167.5 L125.5 165.5 L125.7 164.6 L124.1 164.9 L122.2 163.9 L120.6 164.5 L120.1 163.5 L119.9 167.4 L118.3 169.3 L116.3 170 L117 167.9 L115.3 168.2 L115.3 166.7 L113.5 164.3 L112.1 164.5 L111.2 163.4 L109.1 164.7 L103.5 161.6 L99.8 162 L98.4 160.6 L97.4 161.1 L97.3 159.8 L96.4 159.1 L96 159.8 L95.6 158.9 L93.1 161 L93.9 162.3 L95.9 161.9 L95.5 163.3 L94.8 162.6 L92.6 163.5 L91 162.6 L89.1 163.8 L85.5 163.2 L83.8 164.3 L82.8 163.8 L83.4 163.2 L83.1 163.2 L82.5 163.4 L81.5 160.7 L82.9 155.3 L82.7 151.2 L84.7 147.3 L85.4 141.8 L89.1 137.8 L90.6 134.6 L87 133 L83.1 133 L80.2 130.2 L78.4 131.6 L75.9 130.8 L75.3 131.5 L74.9 130 L73.6 129.4 L72.6 129.4 L72.4 130.7 L71.1 130.5 L68.1 124.6 L66.1 124.2 L66.2 121.9 L68.1 119.1 L68.2 117.1 L65.6 116.3 L62.9 111.8 L63.5 108.3 L66.5 105.9 L66 102.7 L63.8 102 L64.9 99.9 L64 99.9 L63.7 99.8 L62.7 97.9 L61.7 98 L61.2 96.2 L62.4 93.8 L61.6 92.4 L59.9 92.6 L59.6 91 L60.8 91.2 L63.5 88.7 L63.7 88.1 L62.4 88.3 L62.3 87.9 L62.3 87.4 L64.3 83.9 L64.1 81.2 L63.6 80.6 L62.7 79.4 L62.9 78.3 L60.8 76.5 L60.6 74.9 L63.6 74.2 L63.3 73.1 L66.1 74.6 L66.6 73.8 L71.4 72.8 L72.3 71.5 L70.5 69.6 L75.1 66.1 L75.4 63.2 L75.2 62.7 L74.4 61.4 L71.3 61.4 L70.4 59.5 L70.7 59.5 L71.4 59.2 L71.3 57.6 L75 57.8 L75.6 53.6 L77.2 50.7 L77.3 44.8 L78.1 43.2 L79.6 43.6 L75.7 42.9 L75.3 42.6 L75.1 42.1 L75.4 39.2 L76.6 38.7 L75.9 37.6 L77.7 36 L88.3 35.1 L90.1 38.3 L88.7 39.4 L88.9 40.1 L90.8 41.4 L92.1 40 L92.1 39.3 L91.8 38.8 L91.2 39 L91 38.9 L91.5 37.1 L95.2 38.5 L94.4 39.7 L94.6 42.4 L94.5 40 L95.4 38.5 L94.3 35.3 L95.7 31.7 L96.5 31.2 L99.2 32.5 L103.9 31.7 L105.1 32.2 L108.5 37.4 L112 38.5 L108.3 36.6 L106.3 32.5 L100 30.3 L98.9 28.2 L101 28.4 L101.3 26.9 L100.5 25.8 L99.2 26.4 L98.6 25.2 L99 23.6 L100.6 22.3 L96.8 23.3 L95.8 21.9 L97.1 21.5 L96.3 20.6 L99.9 20.1 L101.2 18.4 L97 13.6 L96.6 10.2 L99.8 10.2 L103.9 11.3 L104.3 12.2 L107 12 L108.7 10.8 L108.8 11.6 L111.9 13.1 L113.6 12.6 L114.5 14.3 L113.3 14.9 L114.8 15 L114.7 16.9 L113.8 18.4 L112.1 19 L112.7 19.3 L115.9 18.6 L116.1 18.7 L116.9 19.3 L116.1 22.2 L118.3 19.7 L123.9 22.5 L126.6 21 L129.2 20.9 L128.3 21.5 L128.3 25.1 L124.2 27.9 L126.1 29.8 L129.8 28.6 L130.6 30.1 L131.8 29.8 L133.4 31 L134.2 28.2 L135 28.2 L136.5 25.7 L141.7 24.9 L142.1 26.9 L142 25.1 L145.1 22.6 L147.6 18.8 L152.7 19.9 L146.3 20.9 L145.4 23.3 L146.6 23.6 L146 23.3 L146.8 22.1 L149.7 20.3 L149.6 21.2 L149.8 20.6 L151.8 21.5 L154.2 19.9 L155.2 23.1 L157.5 24.1 L158 25.5 L159 25.3 L160.1 27.1 L160 26.4 L163.1 25.3 L164.4 26.8 L163.6 28.2 L165.7 30.2 L164.5 32.1 L167.3 34.1 L170.4 34.2 L169.7 35.1 L170.4 35.3 L172.7 44.7 L171.4 48.9 L168.8 50.8 L168.5 53.1 L175.4 58.8 L174.1 62.9 L174.6 64.8 L176.3 66 L175.9 68.4 L176.1 68.7 L176.9 69.3 L174.6 75 L176.7 78.6 L176.2 80.7 L179.5 82.7 L180.4 86.9 L179.5 90.5 L177.1 95.8 L175 95.1 L175.2 93.5 L174.1 93.7 L174.5 92.4 L173.2 91.1 L170.7 91.1 L170 92.2 L171.9 93.5 L171.8 94 L171.5 94.4 L166.6 95.9 L164.5 97.7 L160.5 98.3 L159.9 100.1 L158.6 99.6 L157.5 100.9 L156.8 100.6 L155.8 102.4 L154 102.4 L153.1 104.3 L151.3 103.5 L147.3 104.7 L145.1 107.2 L144.5 109.4 L143.8 107.5 L141.6 106.2 L143.8 111.9 L146.5 113.2 L147.5 114.8 L145.6 118.2 L147.1 119.7 L149 124.8 L150.8 126.8 L153.7 127.6 L156.1 131.3 L157.7 131.8 L160.1 135.1 L160.5 134.4 L161.7 134.9 L164.5 138.7 Z"/>
  </g>
</svg>
