<svg xmlns="http://www.w3.org/2000/svg" viewBox="0 0 240 180">
  <g fill="#17324a" stroke="#fffaf3" stroke-width="3.2" stroke-linejoin="round" stroke-linecap="round">
  <path d="M141.5 10.7 L142.6 11.8 L144.8 11.6 L145.6 11.9 L146 12.5 L144.8 18.7 L143.5 20.1 L143.4 23.2 L146.1 24.3 L149.9 29.1 L152.3 28.8 L153.2 31.6 L155.4 31.9 L154.4 33.5 L154.4 34.3 L154.3 36.1 L155.4 37.7 L154.2 38.2 L154.7 40.5 L153.5 44.9 L154.2 46.9 L154.1 47.3 L153.9 47.7 L152.4 46.8 L152 47.5 L152 48.2 L152.4 48.7 L154.9 49.2 L151.3 49.5 L151.3 50.8 L153 51.2 L151.2 52.1 L151.2 53.1 L152.2 53.4 L153.8 51.9 L155.7 51.6 L156.2 51.7 L157.5 52.2 L157.5 53.2 L158.7 53.9 L158 59.2 L156.2 63.2 L158 67.2 L157.3 69 L155.9 69.1 L155.6 69.9 L154.6 69.5 L155.5 72.3 L160.8 76.6 L163.2 81.3 L159.7 83.7 L160.7 96.2 L160 96.1 L159.6 98.1 L158.1 99.1 L157.8 101.1 L157.9 102.3 L158.3 103.4 L159.1 104.1 L159.5 104.2 L160 104.1 L160.9 103.7 L161.5 106.1 L160.3 109.7 L160.3 112.9 L157.8 114.3 L159.1 115.8 L158.3 117.6 L161 120.4 L161.2 123 L163.5 124.3 L163.1 125.8 L164 127.6 L167.4 130.3 L168 130.5 L169.8 130.5 L170.5 132.5 L170.9 133 L172.2 134.4 L172.5 134.5 L174.6 134.8 L174.9 135.2 L174.8 136.1 L171.4 138.7 L169.1 143.8 L151.6 144.6 L143.7 149.1 L136.7 151 L133.1 154.3 L129.9 155 L125.9 158.1 L120.8 158.1 L114.7 161.1 L105.7 162.9 L102.5 166.5 L98.4 167.9 L96.7 169.6 L93.9 170 L90.2 166.6 L90 166.5 L87.5 165.5 L68.6 161.2 L71.2 160.6 L72.6 161.4 L74 160.1 L77 159.7 L77.4 159.4 L77.6 159 L76.8 154.8 L78.3 154.2 L76.7 148.3 L76.4 148.1 L74.6 147.6 L72.9 148.3 L72.5 145.8 L70.9 145.9 L71.1 143.1 L71 142.2 L68.2 133.1 L67.1 132 L65.1 123.2 L66.4 120.7 L65.6 118.4 L72.3 108.3 L71.8 106.9 L73 99.3 L75.5 93.2 L76.5 92.5 L76.8 90.2 L81.2 87.8 L81 85 L83.8 83.5 L81 65.8 L80 63.5 L77.2 62.5 L77.6 60.3 L80 57.1 L78.6 56.1 L79.6 55 L79.6 52.1 L77.5 49.8 L78 47.7 L76.6 45.9 L78.2 43.4 L76.6 34.7 L77.7 32.8 L75.5 30.4 L77.3 28.5 L75.1 27.4 L73.3 23.2 L74.9 17.4 L76 16.4 L75.6 14.1 L102.3 14.2 L107.1 13.4 L122.8 14 L123.4 14.9 L125.2 13.9 L129 14.5 L128.7 15.2 L129.9 16.3 L131 14.5 L134 13.6 L135.1 11.5 L136.5 12.4 L137.7 11.5 L138.1 10 L141.5 10.7 Z"/>
  </g>
</svg>
