<svg xmlns="http://www.w3.org/2000/svg" viewBox="0 0 240 180">
  <g fill="#17324a" stroke="#fffaf3" stroke-width="3.2" stroke-linejoin="round" stroke-linecap="round">
  <path d="M65.4 31.1 L71.5 30.9 L73.9 29.7 L76.7 30.7 L78.6 29.3 L80.1 29.4 L82.7 25.3 L85.3 24 L86.3 24.8 L88.2 23.8 L90.1 24.7 L94.9 24.8 L96.5 23.4 L97.4 24.3 L98.8 19.8 L105.7 20.2 L107.8 18.3 L114.1 18.9 L119.3 16.7 L121.9 17 L122.1 15.3 L124.4 15.6 L125.5 14.4 L126.5 15.5 L130.6 14.4 L131.9 17.3 L135.5 19.4 L136 18.4 L137.5 18.2 L144.9 22 L149.8 20.2 L152.4 20.6 L154.6 19.6 L155.9 20.5 L160.3 19.2 L161.3 17.5 L161.1 15.5 L158.9 11.8 L160 10.5 L162.2 10 L166.8 11.8 L166.7 12.1 L166.6 12.4 L168.6 13.7 L169 13.2 L169.7 19.2 L163.9 21.8 L164 25.9 L164.9 26.9 L164.5 28.7 L162.2 30 L159.5 33.8 L158.1 32.2 L158.8 31.5 L150.1 30.8 L145.1 28.7 L143 29 L142.1 28.5 L142.8 27.7 L142.4 27.5 L142.2 27.4 L140.7 27.4 L140.4 27.5 L139.4 29 L136 31 L132.8 30.9 L131.7 28.7 L128.9 28.9 L127 30.4 L127.5 31.6 L125.1 32.9 L123.3 34 L118.6 32.7 L116.3 33.4 L115.7 35.3 L119.7 38.4 L118 39.2 L118.8 41.4 L121.3 42 L121.4 40.5 L122.8 42.5 L125.5 43.6 L128.5 47.5 L126.8 48.1 L124.3 44.6 L120.1 42.5 L116.3 42.7 L115.6 43.8 L116 45.1 L121.1 48.3 L121.1 52.2 L118 50.9 L115.3 46 L110.9 44.5 L109.1 45.7 L109.5 47.5 L112 50.1 L116.6 52.7 L109.5 52 L109.9 51 L108.5 48.6 L108.3 45.5 L100.8 42 L99.5 39.3 L102.4 38.3 L101.2 35.9 L100.7 35.9 L100.1 36.1 L99.9 37.4 L98.7 37.5 L98 39 L96.8 38.7 L96.4 40 L95.1 40.1 L96.6 42.4 L94.6 47.2 L94.9 49.8 L97.5 52 L97.7 53.5 L100.1 56 L101.4 60.5 L104.6 62.7 L109.2 70.3 L106.6 72.1 L103.8 72.2 L104.3 71.1 L104.9 70.8 L104.9 71.1 L104.7 72.1 L106.8 70.3 L105 67.3 L101.7 66 L101.8 67.4 L99.9 67.8 L99.6 69.3 L100.1 70.8 L101 70.3 L102.8 72.9 L102.2 74.3 L104.2 73.7 L102.7 75.5 L99 77.4 L95.9 76.5 L94.1 77.2 L94.1 77.9 L95 77.7 L95.1 78.5 L97.4 78 L98.7 79.7 L103.6 80.5 L104.8 83 L106.2 82.7 L106.3 81.9 L108.5 82.7 L109 83.8 L108.1 84.9 L109.9 85.4 L109 86.2 L113.3 86.2 L115.2 89.6 L120.3 91.2 L122.7 94.1 L121 95.1 L121.8 97.8 L121.4 99.8 L122.1 100.2 L122 100.3 L121.4 100.5 L122.5 101.2 L122.8 102.7 L121.8 106.2 L120.3 105.6 L118.8 102.5 L116.9 102.3 L115.7 99.4 L114.4 99.6 L113 98.5 L113.4 96.9 L111.1 97.5 L110.4 98.6 L108.9 98.5 L107 98.6 L104.6 100.1 L103.1 99.8 L102.7 100.8 L106.2 102.5 L105.1 103.7 L106.1 104.6 L105.9 107.1 L109 108.9 L109.5 108.6 L109.4 108 L108.6 107 L110.2 106.5 L110.1 109.4 L112.5 111.2 L107.9 112 L107.1 112.4 L107.9 113.3 L105.7 114.4 L104.1 112.3 L105.4 111.8 L105.3 110.9 L103.7 110.7 L103.9 110.5 L103.7 110 L102.9 110.7 L101.4 108.8 L100.1 109.4 L98.7 107.5 L97.8 108.2 L98.4 112.1 L101.1 116.9 L101 118.6 L102.5 119.5 L103 122.9 L104.9 126.6 L103.3 128.1 L103.5 129.7 L105.7 132.2 L105.3 133 L106.4 134.8 L104.6 134.5 L103.5 132.5 L102.7 132.7 L102.3 132.7 L100.7 129.6 L99.4 129.2 L98.9 126.3 L97 125.9 L95.9 126.1 L95 126.6 L94.1 128.9 L94.6 129.7 L93.9 129.3 L94.1 130.6 L93.3 130.7 L93.5 135.8 L93.1 134.3 L90.9 132.9 L91.6 128.4 L91 128.5 L88.5 123.9 L87 123.4 L87.2 121 L86 120.7 L85.3 120.6 L83.4 121.6 L83 124.7 L83.9 126.3 L82.3 127.9 L81.2 126 L79 125.7 L79 122.5 L78.2 122.4 L76.5 118.7 L76.9 116.3 L78.1 115.3 L78.6 114.8 L78.6 112.6 L76.5 108.7 L73.4 106.1 L72.3 105.8 L71.8 106.5 L71.3 103 L68.1 101.7 L68 100.9 L68.5 99.3 L69.8 99.3 L72 97.5 L71.3 97.6 L72.9 94.9 L72.9 92.8 L73.5 93.6 L73.4 93 L77.5 94.4 L81.7 90 L84.8 90.7 L88.4 93.6 L96.9 96.4 L100.7 99.5 L102.4 98.5 L100.1 97.2 L100.5 96.8 L101.8 96 L106 96.1 L106.8 95.6 L106.1 94.6 L106.9 94.3 L105.2 94 L105.6 93.6 L105.1 93.1 L104.1 93.7 L101.9 92.7 L101.6 92.8 L101.4 93.1 L102.3 93.5 L101.1 93.5 L100.9 92.3 L99.3 92.7 L98.5 92.2 L99.1 91.4 L97.2 90.6 L96.3 88.9 L95 91.2 L91.8 87.4 L91.5 90 L89.1 89.5 L87.9 90.4 L83.6 88.3 L83.1 88.5 L82.4 89.1 L81.3 88.7 L80.1 90.3 L78.1 89.6 L75.5 91.1 L73.9 90.2 L75 90.7 L75 89.6 L73.8 89.5 L71.7 86.4 L72.2 88.7 L68.9 90.9 L67.6 89.9 L68.6 88.6 L67.6 88.4 L67.6 87.7 L68.2 88 L67.8 85.5 L66.6 86 L65.8 82.4 L64.4 81.9 L63.7 79.3 L61.8 80.1 L61 79 L62.4 77.6 L61.5 76.7 L61.8 75.5 L62.7 76.4 L63.4 75.5 L63.6 76.3 L64.6 75.6 L66.5 76.1 L67.6 77.7 L67.9 76.6 L69.4 77.2 L68.6 76.2 L69 74.6 L68.5 74 L67.6 73.1 L67.1 74.3 L64.2 72.7 L63.2 73.7 L62.4 71.9 L61.3 74.2 L62.9 75.5 L61.8 75 L61.1 75.7 L60.3 72.8 L56.4 69.3 L56.5 67.9 L53.6 67.4 L52 65.2 L51.6 64.2 L52.5 63.7 L51.6 62.9 L52.5 62.6 L50.1 62.1 L51 59.9 L47.6 58.3 L51 59.6 L52.1 59 L53.1 57.7 L52.6 55.8 L54.5 56.1 L54.8 55.8 L54.9 55.3 L53.1 51.4 L54.5 51.2 L55.2 49.7 L59.5 48.9 L61.8 41.2 L63.1 40 L64.9 40 L66.4 38 L66.7 35.6 L65 33.1 L65.4 31.1 Z"/>
  <path d="M163.9 161 L162.9 162.3 L163.9 163.8 L162.5 167.5 L160.5 168.4 L157.6 167.5 L140 170 L134.8 170 L134.6 166.3 L131.6 165.9 L128.6 163.9 L122.1 163.9 L121 162.9 L118 162.5 L115.4 163.1 L113.6 162.8 L112.4 161.5 L113.5 154.9 L113.9 154.2 L114 154 L114.2 156.1 L115.8 156.6 L116.5 152.3 L117.9 155.8 L121.7 156.2 L123 155.4 L122.7 154.6 L123.4 154.3 L124.2 154.4 L124.6 156.4 L122.6 156.7 L124.7 157.8 L125.9 157.2 L126.1 159.7 L127.5 160.2 L134.1 158.4 L139.1 158.4 L140.6 158.9 L141.1 160.3 L146.6 160.3 L148 161.5 L151.8 160.2 L153.7 160.5 L152.8 164.3 L153 165.3 L154.3 165.7 L159.2 162.9 L160.9 163.8 L163.9 161 Z"/>
  <path d="M132 94.3 L131.7 98.3 L130 98.9 L129.1 97.5 L128.1 98.7 L126.9 96.3 L125 95.9 L125.1 93.8 L124.4 92.7 L123.6 92.9 L124.2 91.7 L123.2 92 L123.5 90.7 L121.7 90.2 L122.5 89.8 L122 88.6 L114.8 88.5 L113.8 87.4 L114.5 86.2 L113.9 84.6 L112.1 84 L111 82.1 L106.6 78.5 L102.3 77.1 L102.5 78.2 L99.8 78.7 L99.8 78 L103.5 76.3 L105.2 74.4 L108.5 73.6 L110.7 75.6 L111.3 77.9 L113.8 79.9 L116.1 80.1 L118.6 82 L124.1 82.7 L123.6 84 L125.2 85.3 L125.5 85.7 L124.6 88.4 L125.9 92.7 L127.6 94.3 L132 94.3 Z"/>
  <path d="M169.3 73.4 L169 74.3 L168 74.1 L167.3 72 L167 71.9 L166.4 71.9 L168.1 74.3 L167.6 75 L165.5 75.3 L160.9 74 L159.7 72.6 L162.2 71.4 L163.2 69.9 L161.5 69.8 L158.8 72.4 L155 70.3 L155.1 69.2 L156.5 67.6 L158.6 67.9 L161 66.9 L161 65.6 L164.4 65.6 L164.7 65.6 L165.7 66.8 L165.6 67 L165 67.9 L168 70.6 L169.3 73.4 Z"/>
  <path d="M199.3 134.8 L197.9 139.4 L196 142.2 L196.5 143.6 L194.7 143.5 L191.7 147 L190.8 147.5 L190 147 L190.4 143 L189 141.2 L190.6 140.3 L193 136.9 L198.8 134.2 L199.3 134.8 Z"/>
  <path d="M161 85.3 L160.3 86.6 L161 90.9 L160.6 91 L160.1 91.3 L160.1 92.8 L157.8 94.2 L155.6 92.2 L157.4 90.9 L157.8 88.8 L155 85.2 L155.3 84.4 L158 83.8 L161 85.3 Z"/>
  <path d="M61.1 96.5 L58.9 95.2 L58.3 95.3 L58 95.9 L57.7 95.6 L57 95.4 L55.8 91.5 L55.4 93.9 L54.6 94.4 L54.5 94 L54 93.7 L55 89.5 L56.4 90.7 L57.4 90.1 L57.5 86.9 L59.2 89.9 L58.6 90.9 L59.4 92.1 L60.2 91.4 L62.3 94.9 L62.2 96.5 L61.1 96.5 Z"/>
  <path d="M49.3 64.4 L49.6 66 L45.4 63.9 L44.5 61.1 L40.7 57 L41.5 55.9 L44.9 55.2 L46.7 56 L46.6 56.7 L46.4 57.1 L44.7 58 L44.8 59.2 L45.8 59.8 L46.3 59.9 L46.4 63.4 L49.3 64.4 Z"/>
  <path d="M147.9 50.2 L147.9 51.3 L146 53.3 L146.1 56.1 L144 54.4 L144.8 53.7 L144.2 53 L142.9 54.7 L143.6 55.7 L142.3 55.4 L142.7 54.4 L140.5 54.9 L140.9 52.9 L140.2 51.2 L143.8 50.9 L144.9 52.2 L147.9 50.2 Z"/>
  <path d="M177.3 104.4 L177.6 104.9 L173.9 106.4 L172.7 106.3 L172.5 106.3 L171.1 104.7 L169.1 105.6 L168.7 104.1 L170.1 102.9 L172.2 102.4 L172.9 102.4 L175.8 103.9 L175.4 103 L177.7 103.3 L177.3 104.4 Z"/>
  <path d="M149.3 116.9 L150.5 118.1 L150.3 121.1 L147.9 123.4 L145.9 119.5 L149.3 116.9 Z"/>
  <path d="M64.2 102.9 L66 105.1 L64.1 104.3 L62.6 106.2 L59 102.2 L59 101.2 L60.7 99.8 L61.5 101.4 L64.2 102.9 Z"/>
  <path d="M135.7 33.8 L135.6 36.7 L133.1 37.7 L130.7 36.1 L131 34.2 L131.7 33.3 L133.1 32.2 L135.7 33.8 Z"/>
  <path d="M139.5 103.4 L138.9 105.4 L134.3 100.7 L134.1 98.6 L135.2 98.1 L135.6 98 L136.8 100 L137.3 100.2 L138.8 100.2 L138.9 103.3 L139.5 103.4 Z"/>
  </g>
</svg>
