<svg xmlns="http://www.w3.org/2000/svg" viewBox="0 0 240 180">
  <g fill="#17324a" stroke="#fffaf3" stroke-width="3.2" stroke-linejoin="round" stroke-linecap="round">
  <path d="M152.9 143.2 L151.5 142.8 L151.5 142 L151.1 142.2 L150.3 143.1 L147.5 143 L146.6 144.2 L146.1 144.5 L146 143.8 L145.6 143.4 L145 143.3 L144.5 143.7 L144.8 145.6 L143.9 146.6 L145.6 147.8 L146.7 150.4 L140.5 152.8 L139.7 153.7 L138.1 156.5 L138.3 158 L135.5 157.1 L135 157.2 L133.3 157.8 L127.9 161.9 L124.8 165.6 L125.1 170 L106.9 162.9 L104.8 162.5 L102.1 162.3 L89.5 162.9 L84.9 162.3 L79.2 161.2 L70.3 157.2 L67.1 155.4 L62.4 152.4 L44.1 138.1 L44.9 138 L45.6 137.1 L47.4 132.7 L46.2 126.8 L47.6 124.2 L47.5 121.8 L47.6 120.5 L49.9 119.2 L50.6 117.4 L45.4 109.7 L63.2 78.7 L110.5 78.4 L112.3 77.3 L111.5 76.6 L112.7 74.7 L111.3 73 L112.4 71.9 L111.5 71 L112.7 70.8 L112.4 69.7 L113.2 69.9 L112 69.1 L113.6 68.2 L113 66.8 L114.5 66.7 L113.9 64.7 L110.9 64.3 L110 62.8 L109.6 62.7 L108.7 63.1 L108.5 62.8 L108.3 61.9 L104.9 62.2 L105.7 61.3 L104.4 60.4 L104.9 57.9 L103.7 58.1 L103.6 55.6 L101.1 51.9 L98.6 50.3 L98.8 49.9 L98.8 49.6 L94.2 48.4 L93.1 47.3 L92.3 46.9 L92.9 46.2 L92.8 45.9 L92.3 45.8 L91.6 45.8 L91.4 46.9 L89 45.6 L86.5 41.2 L84.7 40.9 L82.5 37.5 L82.1 37.3 L81.3 37.1 L80.6 34.9 L77.4 34.5 L77.1 33.6 L74.4 32.6 L74.6 32 L74.9 32 L91.4 32.1 L91.8 10.2 L160.5 10.1 L160.9 40.5 L157.6 85.3 L165 85 L168.3 85.9 L169.7 85.3 L170.3 85.5 L171.5 86.6 L172.8 86.3 L174.5 86.7 L180.6 90.8 L180.1 92.5 L180.2 92.8 L181.2 92.8 L181.4 91.2 L182.3 91.1 L183.5 89 L183.2 86.9 L185.8 87.1 L180.8 83 L181.4 82.3 L195.9 91.9 L195.1 93.3 L192.3 93.9 L189.2 97.9 L167.5 114.8 L160.4 117.9 L160 118.7 L159.4 120.5 L160.1 121.2 L160.1 122.2 L157.7 126.2 L161.1 131.7 L160.5 136.7 L157.2 137 L153.1 140.9 L152.9 143.2 Z"/>
  </g>
</svg>
