<svg xmlns="http://www.w3.org/2000/svg" viewBox="0 0 240 180">
  <g fill="#17324a" stroke="#fffaf3" stroke-width="3.2" stroke-linejoin="round" stroke-linecap="round">
  <path d="M64.5 116 L63.9 114.8 L66.2 112.2 L68.7 111.8 L65.7 111.5 L66.5 109.4 L65.1 112.4 L64.4 112.1 L64.1 111.9 L63.8 108.1 L64 107.6 L64.5 108 L64.5 106.8 L63.1 107.3 L62.4 109.2 L61.8 108.9 L61.5 108.8 L60.8 106.4 L61.8 104.4 L59.8 105 L58.9 104.7 L58.4 104.1 L59.2 100.6 L57.5 102.6 L56.3 100.6 L52.3 102.3 L55.2 98.3 L55.4 95.8 L57.1 94.2 L56.5 94.5 L56.1 94.6 L54.4 92.6 L54.2 95.2 L53.3 95.6 L52.2 95.5 L51.7 94.8 L51.6 93.8 L53.5 89.6 L51.7 92 L49 92.1 L46 89 L42.8 87.3 L42.7 86.5 L43.1 85.7 L43.9 85.3 L44.6 85.8 L42.5 84.6 L44.5 82.2 L41.9 84 L41.6 86.3 L40.1 86.4 L39.3 84.8 L40.9 83.3 L40.5 82.8 L38.1 84.9 L37.3 82.6 L36.7 83.3 L33.6 81.2 L31.5 81.7 L31.3 78.8 L28.7 75.6 L29.1 73.2 L25.6 74 L25.8 71.4 L27.3 70.4 L26.6 70.4 L26.4 70 L26.4 69.5 L26.8 67.8 L28.1 66.7 L30.1 62 L24.3 69.2 L25 67.8 L23.8 67.6 L24.1 66.4 L25.7 64.4 L22.6 67.6 L21.6 65.6 L22.8 64.6 L23.2 62.6 L21.2 64 L21.6 61.8 L21.1 61.7 L20.9 61.4 L25.4 57.8 L24.8 57 L22.7 59.4 L21.4 59.4 L21.2 58.4 L21 58.7 L20.2 59.8 L18.1 58 L18.3 60 L16.9 59.4 L18.3 61 L16.3 62.5 L16.9 65.6 L14.8 64.9 L13.4 63 L24 44.3 L29.5 43.9 L32 42.5 L34.7 41 L36.1 39.3 L44 40.2 L47.7 39.1 L48.2 37.1 L49.8 38.8 L52.2 38.1 L52.4 29.6 L45.2 25.2 L45.4 24 L48.5 21.9 L49.1 21.6 L49.8 21.4 L50.3 21.5 L50 22.2 L51.9 22.2 L52.7 21.8 L53.2 21.1 L54.2 16.3 L52.1 12.6 L52 11.9 L52.3 10 L71 11.1 L71.5 12.6 L70.8 14.6 L71.7 15.9 L73.7 16 L74.7 14 L75.7 14 L79.7 17 L83.3 17.2 L84.9 19.1 L88.5 18.4 L91.6 20.7 L99.7 17.7 L101.4 18.3 L102 18.4 L104.1 17.4 L108.9 18.5 L115.9 17.1 L119.5 17.9 L117.8 18.7 L117.9 21.2 L116.1 24.1 L121.6 29.3 L125.2 29.2 L129.2 23.7 L132.1 23.2 L136.3 26.8 L136.2 29 L139 32.8 L140.2 32.8 L140.6 32.6 L143.3 29.8 L143.1 29.1 L144.6 28.1 L144.7 26.2 L145.2 26 L146.6 26.1 L148.1 24.6 L149.3 24.8 L151.8 23.3 L163.1 28.1 L167.4 28.9 L168.8 25.7 L169.2 25.3 L170.1 24.7 L175.6 22.2 L176.1 22.1 L177.8 22.5 L178.5 21.8 L179.3 19.2 L176.3 16.4 L178.8 15.1 L180.5 15.2 L187.4 17.8 L189.2 19.5 L188.3 23.1 L190.9 25.3 L190.4 28.3 L193.4 29.3 L194 31.8 L194 32.2 L192.6 39.6 L196 39.9 L198 44.3 L199.6 45.1 L200.4 45.1 L201.1 44.5 L201.8 46.5 L206.1 48.1 L204.7 48.9 L206.3 49.5 L206.1 50.2 L205.8 50.6 L203 50.5 L200.3 54.7 L199.2 54.9 L196.8 59.5 L196.9 59.9 L197.3 60.2 L200.8 59.7 L202.4 57.3 L206.3 57.2 L206.9 57.6 L207.5 58.1 L208.2 62.5 L207.1 65.7 L207.8 66 L208 66.6 L208.4 72.3 L208.7 73.1 L209.6 74.3 L210.3 75.7 L213 75.5 L213.6 77.5 L216.5 78.1 L217.7 79.8 L217.9 80.5 L218 81.2 L216.5 84.8 L213.2 86.9 L212.7 87.7 L212.4 88.4 L212.9 89.2 L212.5 89.5 L211.9 89.7 L213.4 92.5 L212.4 101.7 L214.9 105.6 L220.8 105.2 L218.9 111.8 L221.3 112.3 L224.2 115 L219.3 116.8 L217.8 122.7 L218.1 123.6 L222.6 124.5 L225.6 128.1 L226.6 135.4 L224.9 135.6 L224.1 135.5 L222 132.4 L220.8 134.1 L219.4 133.7 L218.2 131.9 L211.2 132 L209.8 133.1 L210.2 135.3 L209.3 139.2 L211.7 140.8 L214.5 141.6 L216.8 141 L216.3 143.4 L218 145.9 L214.9 145.5 L213.2 149.8 L214.1 152.4 L211.2 158.7 L210.3 159.7 L205 157.7 L204.3 158 L203 159.3 L200.6 157.4 L200.5 156.6 L200.6 155.5 L197.2 155.3 L196 157.4 L195.7 161.2 L192 165.4 L192.3 167.6 L190.3 168.3 L189.8 167.4 L189.4 167.2 L184.6 170 L184.8 169 L184.7 168.6 L182.2 166.8 L181.9 165 L181.4 164.4 L179.6 164.6 L178.1 163.2 L176.5 164.5 L176.1 164.2 L175.6 163.2 L174.1 164.6 L178 157.4 L177.4 156.7 L178 153.9 L175.3 149.1 L176 145.6 L175.8 145.3 L175.5 144.9 L174.5 145.5 L175 144.4 L174.3 141.6 L172.9 141 L173.5 138.5 L172.7 137.2 L173.8 136.3 L170.9 134.4 L168.7 134.9 L169.5 132.8 L168 132.2 L167.4 133.7 L165.9 129.9 L165 131.6 L161 132.1 L157.7 134.1 L157.2 131.7 L156.8 131.5 L155.2 131.1 L152.7 132.4 L148.7 131.9 L143.5 137.3 L140.5 136.6 L138.9 138.5 L138.3 138 L141.3 130.8 L145.6 126.7 L142.2 122.6 L142.4 115.6 L138 114.7 L137.8 113.7 L138.1 112.4 L139.8 110.4 L140 108.2 L137.4 105.9 L135.5 105.7 L135.8 105.5 L136.1 105.3 L134 100.6 L129.4 94.2 L128.2 93.1 L126.1 91.7 L124.9 88.5 L104.5 88.2 L104.4 90 L104.2 90.3 L98.8 91.5 L97.9 91.7 L94.7 90.1 L88.4 91.5 L87.1 92.5 L86.9 95.8 L85.2 97.2 L84.5 99.7 L82.7 101.4 L81.8 104.9 L80.1 106 L80 107 L77.9 109 L74.4 109.2 L74 110.1 L73.8 111 L74.4 112 L69.9 115.9 L67.2 115 L64.5 116 Z"/>
  </g>
</svg>
