<svg xmlns="http://www.w3.org/2000/svg" viewBox="0 0 240 180">
  <g fill="#17324a" stroke="#fffaf3" stroke-width="3.2" stroke-linejoin="round" stroke-linecap="round">
  <path d="M225.2 26.3 L224.6 31.1 L224.7 32.7 L230 42 L228.3 46.9 L227.5 54.1 L226.3 56 L224.3 56.8 L219.4 56.8 L220.3 55.2 L219.1 54.8 L217.1 55.3 L209.7 59.6 L208.1 61.4 L207.6 64.5 L211.5 65.5 L217 68.9 L219.5 72.4 L224.7 74.2 L225.5 75.4 L224.7 82.8 L225.8 91.4 L225.8 92.7 L225.4 95.9 L225 96.9 L223.9 97.7 L222.2 98.4 L220.3 98.8 L218.9 98.6 L218.6 97 L217.5 96.7 L216.9 96.3 L216.7 94.9 L216.1 94.4 L215 94.4 L214.9 97.3 L214.7 98 L213.8 99.4 L212.6 100.1 L211.1 100.1 L209.6 99.4 L204.6 102.2 L197.2 102.1 L194.1 100.4 L184.9 99.9 L181.3 104.1 L174.7 107.8 L168.3 111.3 L165.3 111.8 L159.4 111.1 L156.4 111.5 L154.7 112.4 L153.4 113.8 L146.3 124.3 L145.2 127.1 L143.8 132.9 L136.9 146.2 L132.4 151.3 L129.7 153.2 L127.8 154.2 L127 154 L127.2 153.1 L130.5 149.2 L128 151.3 L125.8 150.7 L125.6 150 L126.8 144.6 L129.2 140.5 L130.9 140.2 L130.9 138.7 L133.9 138.4 L132.4 136.7 L133.4 135.7 L134 134.3 L133.9 133 L132.9 132.2 L132.2 134.1 L131.2 135.5 L129.7 136.4 L128 136.7 L128.4 137.9 L128.1 138.6 L127.4 138.8 L126.6 138.2 L126 139.7 L125.8 139.5 L125 139.2 L125 140.6 L124.6 141.3 L122 143.6 L121 145.6 L119.1 148.2 L118.3 148.9 L117.4 149.2 L116.5 148.8 L115.4 147.9 L114.6 146.8 L114.5 146 L118.6 142.9 L119.1 139.7 L118.4 133.5 L119.1 131.7 L117.5 132 L117.1 133.1 L117.8 136.9 L117.7 138.6 L117.2 139.9 L108.3 138.3 L107.2 136.1 L104.6 135 L104.6 128.9 L103.4 127.9 L103.9 124.9 L104.3 124.2 L106.1 121.8 L106.9 121.1 L110.3 121.9 L112.8 120.2 L114.7 117.1 L110.8 120.4 L109.3 121.1 L108.2 120.5 L108 119.6 L108.4 117.4 L110.2 115 L109.8 114.6 L108.6 114.9 L106.4 119.2 L103.4 120.6 L101.7 123.4 L98.5 124.4 L97.9 124.2 L97.6 122.6 L101.5 115.1 L100.2 115.1 L99.8 114.6 L99.8 113.7 L100 112.6 L100.6 113 L101.2 113 L101.8 112.7 L102.5 112.1 L102.5 112.6 L102.9 113.6 L103.3 112.7 L103.8 111.9 L105.4 112.6 L104.4 110.1 L108.9 110.2 L108.9 107.6 L111.8 108.3 L111.8 109.6 L113.2 109.1 L111.3 106.1 L109.8 106.1 L112.8 104.6 L113.3 105.5 L114.2 106.5 L115.4 107.1 L116.7 106.6 L115.9 106.5 L115.8 104.6 L114.1 104.1 L113.8 103.1 L116.7 104.1 L117.7 103.5 L117.2 105.6 L119 106.8 L119.5 106.7 L120.2 105.6 L118.7 103.3 L120.6 101.5 L123.3 102.8 L123.6 105.1 L125 104.6 L124.6 103.5 L125.6 103.6 L126.4 104 L127 104.7 L127.5 105.6 L124.7 106.1 L123.6 106.1 L125 107.1 L124.7 108.3 L125.1 108.9 L125.7 108.8 L126.4 106.9 L132.3 106.2 L133.4 104.1 L128.2 105.1 L128 104.3 L128.1 104 L129.5 103.5 L129.5 101.5 L128.7 101.4 L128 101.7 L127.6 102.5 L127.5 103.5 L125 102.1 L126.6 100 L126.6 99.5 L126 98.5 L125.6 98.5 L124.6 101 L121.6 100.5 L124.3 98.4 L124.6 97 L124 97.6 L123.3 98 L121.6 97.5 L119.8 100.4 L119.1 100 L118.7 99 L117.6 100.6 L117 100.2 L117.4 99 L119.1 98 L118.5 97.6 L118.2 97 L118.3 96.3 L118.7 95.5 L120.6 96 L120.3 95 L119.7 94.3 L118.2 93.5 L117.7 93.5 L116.7 98 L116 98.4 L115.4 99.3 L114.7 99.5 L114.3 99.3 L114.5 98.6 L115.2 97.5 L114.4 97.1 L114.2 96.2 L114.7 94 L113.3 96.8 L110.8 97 L113.8 99.8 L113.5 100.8 L112.9 101 L112.2 100.7 L111.8 100 L110.8 102.5 L110.3 99.7 L109.8 98.7 L109.5 98.8 L108.9 99 L108.6 102 L109 102.8 L109.8 103.5 L109.3 104.6 L105.9 100.5 L105.6 101.8 L107.3 105.6 L107 105.4 L105.9 105.1 L105.6 106 L104.9 106.1 L103.9 104.1 L102.5 108.1 L100.3 104.5 L102.6 101.1 L103.2 99.7 L103.4 98 L101 100.3 L99.8 100.9 L98.5 100 L99 97 L98 97 L97.5 97.3 L95.4 99.3 L94.4 95.2 L96.8 90.8 L100.9 87.1 L102.5 84 L103.9 85 L105.4 84 L111.5 85 L120.4 85 L124.2 83 L127.5 80 L129.2 80 L129.4 81.1 L127.7 85.1 L129 90 L133.8 91.5 L134.5 92.8 L135.2 93.6 L136.9 94 L138.6 93.7 L139.3 92.5 L137.4 93.1 L134.2 89.5 L132.1 89.2 L131.4 89 L129.2 86.8 L128.9 85.8 L129.6 84.9 L130.5 84.1 L132.3 79.2 L134.4 78.7 L133.4 77.2 L127.2 76.8 L123.2 78.9 L121.2 81.2 L120.2 82 L118.5 82.2 L111.5 80.5 L108.2 78.3 L106.6 77.9 L105 78 L101.2 80 L98.3 80.2 L94.1 83.4 L92 86.5 L91.4 87 L85.2 90 L80.6 90.8 L74.4 94 L75.9 88.1 L77.2 85.6 L81.3 86 L78.3 84 L76.9 84 L75.8 84.9 L73 92.1 L72.2 92.5 L70.8 92.1 L70.6 91.2 L71 88.5 L69.8 89.1 L69 93 L65.2 95 L64.4 92.6 L67.1 84.4 L69.6 82.2 L70 80.4 L71.9 77.6 L75 75.8 L76.6 75.4 L77.9 75.4 L78.9 77.2 L82.3 78 L83.3 75 L82.8 74.4 L80.7 76 L79.3 76 L77.9 74.4 L73.9 74.6 L72 73.4 L71.5 74.7 L70.2 75.4 L68.5 75.8 L67.1 76 L67.1 77.4 L66.5 77.1 L66.1 76.8 L66.2 79 L65.6 80 L64.5 81 L63.6 81.4 L58.2 81.5 L53.3 84 L50.9 82 L49.1 82.4 L46.8 81.9 L44.8 81.1 L44 80.2 L42.5 77 L39.1 76 L38.4 75.3 L38 74.4 L36.6 68.2 L38.6 63.9 L39.3 63 L42 61.4 L42 62.3 L42.3 62.9 L42.9 63.1 L43.5 62.4 L43.6 61.8 L42.9 60.7 L43 59.9 L43.8 58.7 L51.6 54.3 L54.8 50.8 L57.7 49.9 L55.8 49.8 L51.1 53.6 L47.4 54.4 L45.9 54.9 L40.3 59.9 L39 59.3 L39.5 54.9 L37.1 61.2 L34.2 61.4 L34 61.1 L33.1 60.4 L33 61.4 L30.5 61.9 L29.4 63 L26.3 61.2 L23.6 56.8 L23.1 56.6 L21.6 55.3 L18.9 55.3 L14 50.8 L10.5 51.9 L10 51.2 L11.6 50.1 L14.3 49.5 L24 50.1 L25.3 50.1 L29.1 49.1 L32.7 49.1 L46.3 42.3 L49.2 43.1 L55.7 41.6 L64.2 43.6 L85.4 43.4 L103.5 34.9 L103.7 34.8 L116 27 L117.9 26.1 L120 25.8 L225.2 26.3 Z"/>
  <path d="M58.7 140.2 L57.7 140.2 L58.2 145.2 L56.8 146.2 L52.8 146.7 L52.8 144.2 L52.3 144.2 L51.4 145.8 L51.8 146.7 L50.4 145.8 L48.7 146 L44.5 141.2 L47.8 138.9 L48.9 139.2 L47.9 139.6 L47.4 139.7 L47.9 140.8 L50.1 139.2 L50.6 136.7 L52.3 135.2 L52.7 135.6 L53.8 136.2 L54 134.4 L55.1 133.6 L58.2 135.3 L57.4 138 L57.7 138.7 L58.7 140.2 Z"/>
  <path d="M60.7 111.3 L62.1 107.2 L65.7 104.4 L66.6 104.6 L66.7 105.7 L67.2 106.5 L67.8 106.5 L68.1 105.6 L69 106.5 L68.7 108.5 L69.6 109.1 L68.7 110.6 L68.4 112.4 L68.8 114.2 L69.6 115.6 L64.7 117.6 L64.1 116.1 L63.1 117.1 L62.2 116.1 L59.7 118.1 L56.2 114.6 L60.7 111.3 Z"/>
  <path d="M50.4 85 L56.5 84.9 L59.6 83 L62.6 83 L63.1 83.6 L63.3 83.9 L59.3 93.5 L56.2 93.5 L55.3 93 L53.6 90.3 L51.1 89.7 L50.4 85 Z"/>
  <path d="M42.5 112.6 L39.7 113.7 L38.1 112.1 L37.9 112.1 L34.2 112.1 L32.2 113.1 L32.7 110.6 L32 110.2 L31.7 110.1 L34.3 108.7 L37.3 108.7 L40 108.3 L42 106.1 L44.5 106.1 L44.7 108.4 L42.5 112.6 Z"/>
  <path d="M86.7 126.7 L86.7 131.7 L84.2 130.1 L84.8 131.2 L84.2 132.2 L83.9 132.7 L81.8 132.7 L81.8 136.7 L81.3 135.7 L78.5 136.2 L78 135.2 L77.9 134.2 L79.5 132.6 L78.4 132.2 L78.4 131.7 L79.9 130.1 L79.9 128.7 L81.1 128.7 L81.3 128.4 L82.1 127 L83.8 126.5 L85.6 126.5 L86.7 126.7 Z"/>
  <path d="M49.8 132.7 L45.1 133.1 L42 132 L42 131.1 L44.4 127.3 L47.4 126.1 L48.1 127 L51.2 127.7 L51.4 130.1 L50.5 130.5 L49.8 131 L49.5 131.6 L49.8 132.7 Z"/>
  <path d="M66.1 134.2 L67.5 135.3 L68.6 136.7 L71 143.5 L70.7 144.4 L69.8 144.9 L63.8 145.3 L63.8 143.8 L67.6 142.2 L67.2 141.4 L66.4 141.1 L65.7 141.5 L65.6 142.7 L65.1 142.3 L64.6 141.7 L65.2 140.6 L65.6 139.8 L65.2 136.1 L65.3 135.2 L66.1 134.2 Z"/>
  </g>
</svg>
