<svg xmlns="http://www.w3.org/2000/svg" viewBox="0 0 240 180">
  <g fill="#17324a" stroke="#fffaf3" stroke-width="3.2" stroke-linejoin="round" stroke-linecap="round">
  <path d="M173.1 153.6 L172.1 154 L171.5 154.4 L169.7 153.7 L166.1 155.1 L161.7 154.1 L159.7 151.9 L158.6 152.3 L156.8 153.4 L155 152.8 L152.6 154.5 L149.8 158.6 L145.5 158.5 L142.4 160 L140.6 159.8 L139.7 162.8 L138.8 163 L137.8 163 L136.3 161.7 L134.7 161.9 L133.4 161 L132 163.4 L129.2 164.5 L129.9 166.8 L129.8 167.2 L129.1 168.2 L125.2 167.9 L122.7 170 L120.9 169.3 L119.9 167.5 L113.1 165.6 L111.4 162.6 L109.7 162 L106.8 158.4 L104.4 158.1 L104 157.6 L103.9 157.4 L104.7 155.8 L102.3 155.3 L102.6 146.6 L98.9 144.1 L99.1 142.4 L97.1 137.3 L97.7 129.7 L100.9 122.9 L100 118 L103.7 115.8 L107.3 110.2 L105.8 109.6 L104.3 107.2 L104.7 106 L102.7 104.5 L103.8 100.6 L101.2 98.8 L93.6 97.5 L96.4 93.2 L97.5 86 L94.2 81.9 L93.2 82.3 L92.4 81.4 L89.9 83 L88 82.7 L87.4 83.4 L81.1 82.8 L66.9 66.7 L69.6 63.2 L72.8 61.5 L73 59.8 L72 58.3 L72.4 55.8 L70.9 53.8 L72.4 50.2 L76.9 49.6 L77.4 47.8 L81.9 48.9 L83.2 47.3 L88.9 45.1 L90.7 42.3 L89.3 40.2 L86.8 39.7 L85.2 41.1 L83.7 39.9 L83.5 39.7 L83.2 39 L83.1 38.4 L84.1 36.8 L81.3 32.4 L84.1 30.1 L85.4 26.4 L89 25.9 L93.8 21.8 L96.4 21.2 L98 17.8 L100.8 16.8 L100.2 14.5 L97.9 11.9 L96.6 10 L100.6 14.1 L106.9 17.1 L109.3 19.3 L108.8 18.5 L108.1 17.7 L102.2 14.4 L102.3 13.2 L116.4 21.8 L124.4 31 L124.3 30.1 L126 31.1 L130.1 36.3 L129.8 43.6 L128 45.8 L127.1 54.5 L125.6 57.4 L127.5 56.5 L127.8 52.6 L128.1 51.7 L130.3 47.7 L130.9 46.9 L131.7 46.3 L132.6 46.1 L133.6 46.2 L136.6 47.9 L140.2 48.3 L149 56.2 L150.5 59.8 L151 58.4 L152.3 58.3 L157.9 62.9 L159 68.1 L158 70.8 L158.4 73.4 L154.7 80.3 L155.7 80.5 L155.9 82.3 L156.9 81.5 L157.8 83.5 L155.5 83.8 L155 85.7 L155.7 86.8 L147.1 87.1 L145.2 88.8 L143.5 88.9 L141.9 91.6 L143.7 95.2 L141.3 100 L141.3 102.4 L138.8 105.6 L139.6 109.2 L143 113 L144 116.2 L148 119.4 L147.8 122.2 L151.6 123.3 L152.7 122.2 L155.3 122.1 L155.8 127.5 L156.8 127.4 L157.5 129.9 L156.9 131.3 L158 131.8 L157.2 132.6 L157.5 133.7 L157.6 134 L159.2 134.4 L158.8 135.2 L159 135.6 L160 135.5 L161.9 141.2 L163 141.1 L163.4 143.8 L168.3 151.7 L168.9 151.9 L171 152 L173.1 153.6 Z"/>
  </g>
</svg>
