<svg xmlns="http://www.w3.org/2000/svg" viewBox="0 0 240 180">
  <g fill="#17324a" stroke="#fffaf3" stroke-width="3.2" stroke-linejoin="round" stroke-linecap="round">
  <path d="M215.8 39.4 L216.8 48 L218.9 52.8 L219.7 58.9 L219.7 62.3 L217.5 66.9 L214.4 69.1 L214.7 70.6 L216 72.5 L216.3 72.8 L218.7 75.3 L223.5 77.6 L224.4 78 L224.1 82.7 L223.7 84 L222.8 85.4 L220.3 87.2 L219.2 88.2 L217 91.2 L213.8 94.8 L207.8 97.2 L208.1 98.6 L212.9 97.8 L217.5 103.6 L218.5 112.7 L216.7 116.9 L213 119.4 L209.6 124.1 L206.7 125.1 L201.2 124.1 L198.5 124.6 L197.3 125.6 L205 134.4 L205.2 135.6 L204 137.2 L204.4 138.6 L205.5 139.2 L208.4 140 L210.7 142.8 L219.3 147.7 L214.5 156.4 L215.5 165.3 L215.2 166.6 L214.4 169 L205.8 159.4 L192.7 153.6 L189.9 153.6 L184 154.6 L176.4 154.5 L165.7 154.7 L160 155.7 L158.5 154.9 L157.6 154.6 L157.2 154.9 L157.7 157.9 L157 158.6 L153 157.7 L144.4 158.5 L142.7 158.4 L143.2 159.9 L141.1 159.4 L139.1 160.7 L135 160.3 L133.1 161 L131.1 159.9 L128.5 158.9 L115.5 157.3 L113.4 155.9 L112.7 155.7 L103 154.1 L98.6 154.6 L97.9 154.4 L98.3 153.4 L102 152.5 L97.1 152 L91.1 152 L86.1 154.1 L84.4 152 L83.4 152.5 L82.9 154.1 L82.3 155.2 L79.3 154.8 L79 153.8 L79.3 152.5 L76.3 155.7 L77.3 152 L75.3 154.1 L73.8 153.7 L73.8 154.7 L70.6 157.2 L65.4 159.7 L64.1 161 L62.8 163.1 L65.9 166.4 L66.5 169.8 L65.6 170 L60.7 170 L58.8 169 L58.5 167.8 L53.8 161 L50.8 158.1 L43.7 152.8 L39.3 151.4 L37.6 149 L31.8 147.7 L30.3 148.4 L28.8 149.3 L27.2 149.8 L25.8 149.6 L18.7 145.2 L17.5 141.1 L15.6 138.7 L18.1 135 L17.9 134.7 L17.6 133.9 L18.9 133 L19.8 129.4 L20.9 128.6 L21.1 128.2 L20.2 124.9 L26.5 121.4 L30.3 121.5 L30.6 120.9 L31 120.3 L31.8 120.1 L32.7 120 L36.8 120.3 L39.7 120.9 L49.3 125.2 L53.5 125.4 L54.4 126.8 L62.9 128.2 L65.8 130.2 L67.6 129.6 L69.9 130.2 L72.6 127.8 L78.2 126.6 L79.1 126.5 L81.7 127.1 L81.8 128.4 L80.3 129.4 L75.4 128.9 L73.9 129.1 L72.3 129.6 L75.2 130.9 L75.6 132.6 L76.9 133.1 L79.2 132.8 L80.4 133.4 L83 131.8 L86.1 131.4 L97.7 132.3 L103.7 134.5 L109.6 134.3 L112.5 134.5 L117.5 136.7 L125.8 135.5 L132.1 137.1 L131.7 138.4 L133.1 138.1 L135.1 137.4 L142.7 138.7 L145.5 138.1 L147.5 136.4 L151.9 129.1 L154.3 128.5 L166.5 129.6 L167.5 128.6 L170.8 131.3 L172 130.9 L173.8 119 L173.1 118.6 L169.8 116.9 L166.2 116.4 L162 112.4 L160.2 112.6 L157.7 111.1 L151.7 102 L146 98.7 L138.4 90.4 L138 88.4 L145.5 86.4 L146.2 85.3 L145.7 83.8 L141.3 80.9 L139.6 77.7 L139.1 76.5 L141.7 72.3 L145.7 71.7 L144.6 69.6 L141.5 68.4 L141.2 66.9 L141.3 65.3 L141.7 64.3 L143.4 65.5 L144.2 65.3 L145 64.8 L144.4 61.4 L148.2 62.7 L146.7 59.9 L146 59.5 L142.2 59.3 L138.3 55.3 L127.1 49.9 L124.5 47.7 L115.8 45.7 L113.8 46.8 L108.5 44.1 L107 45.6 L103.9 46 L94.7 45.2 L91.2 42.4 L90.4 38.3 L93 34.1 L93.4 33.2 L94.1 33.2 L97.9 31.4 L97.9 30.8 L93.9 30.8 L95.1 29.9 L99.4 29.8 L108.4 25.7 L111 23.8 L112.5 21.8 L113.3 22.9 L114.2 23.1 L120.3 23.9 L125.3 23.4 L126.3 23.8 L127.1 24.5 L127.6 23.3 L129 22.5 L130.7 22.4 L132.1 22.9 L134.1 22.1 L136.4 21.5 L138.8 21.2 L141.1 21.3 L148.6 23.1 L156.3 26.3 L156.6 26.6 L158.1 28.5 L160.1 29.8 L162.1 30.6 L163.2 29.8 L169.8 31.7 L170.2 32.9 L173.8 36.2 L172.3 36.2 L173.2 38.4 L173.5 38.8 L174.8 39.1 L175.1 39 L174.8 38.3 L175.8 37.2 L174.8 37.2 L174.8 35.1 L177.9 35.9 L180.5 33.5 L182 33.5 L182.9 34.3 L182.3 36.2 L183.6 36.9 L184.8 37 L187.7 36.5 L189.9 38.1 L193.7 38.5 L196.6 40.4 L200.3 37.7 L207.9 39 L208.4 39.4 L208 40.4 L207.3 40.8 L206.5 41 L204.4 40.9 L205.2 42.4 L208.9 42 L210.2 43.1 L211.1 43.6 L211.7 41.7 L210 41.3 L209.5 40.8 L209.9 38.9 L215.8 39.4 Z"/>
  <path d="M105.7 103.9 L103 101.1 L102.7 100.3 L103 99.4 L106.7 96.9 L108.3 96.7 L110 96.9 L136 107.9 L138.1 110.5 L138.7 112.2 L138.9 114.2 L138.7 116.2 L137.9 117.7 L137.1 118 L134.7 115.4 L122 113.1 L115.5 108.9 L109 107.2 L107.2 106 L105.7 103.9 Z"/>
  <path d="M135.6 10.1 L137.8 10 L139.2 10.2 L152 16.3 L151.2 18.1 L136.1 14.3 L133.6 14.9 L132.1 14.6 L130.3 14 L128.6 13.2 L127.6 12.2 L135.6 10.1 Z"/>
  </g>
</svg>
