<svg xmlns="http://www.w3.org/2000/svg" viewBox="0 0 240 180">
  <g fill="#17324a" stroke="#fffaf3" stroke-width="3.2" stroke-linejoin="round" stroke-linecap="round">
  <path d="M10.1 93.3 L10.3 91.1 L14.4 87.4 L17.2 87.3 L17.7 82.5 L14.6 77.5 L16.9 73.8 L16.9 72.8 L16.2 72.2 L16.7 70.5 L17.2 69.8 L23.8 66.9 L44.1 51.1 L47 47.4 L49.6 46.9 L49.9 45.7 L53 47.1 L56.9 43.9 L56.7 43.3 L57 43.2 L58.4 43.4 L60.5 42.2 L60.7 41.7 L60.8 41.3 L59.9 40.4 L67.7 38.4 L71.3 39.6 L72.6 37.9 L71.9 38.8 L71.6 39.4 L76.5 43.4 L81.2 41 L96.4 44.3 L101.5 42.6 L104 43.3 L110.9 42.7 L112.1 42.7 L116.2 43.8 L121.4 40.1 L128.9 39.2 L131.1 37.9 L131.8 37 L132.1 36.2 L131.6 35.4 L128.4 34.4 L139.2 36.4 L139.8 37.9 L140.9 37.4 L142.5 38.9 L144.1 39.6 L146.8 40.3 L155 39.8 L161.3 36.1 L164 36 L175.9 40.4 L175.3 43.1 L176 43.8 L176.7 43.9 L177.6 43.6 L177.7 42.8 L177.8 42.5 L179 43.4 L183.3 43 L178.9 42 L176.7 40.5 L188.9 42.4 L203 54.3 L208.6 57 L208.8 57.4 L208.9 57.7 L208.6 57.8 L208.1 57.9 L202.6 55.5 L201.2 53.1 L199.2 52.4 L197.4 53.4 L197.1 53.2 L196.2 52.9 L196.9 52 L195.7 51.9 L196.2 54.4 L195.1 52.3 L194.7 51.9 L191.8 51.9 L192.8 54.4 L194.8 52.6 L196.1 55.6 L195.3 55.9 L194.9 56.3 L195.2 57.2 L195.8 58.2 L198.1 59.5 L198.4 59.2 L198.1 58.1 L199.3 60.7 L200 60.9 L201.7 60.6 L200.8 61.1 L201.5 62.6 L203.4 63.1 L205.6 62.1 L203.1 60.2 L199.3 58.9 L198.5 57.7 L198.1 57.4 L199.5 56.6 L205.9 60.3 L206.2 60.7 L206.5 61.1 L205.8 61.9 L207.3 61.6 L207.8 64.6 L212.2 62.7 L212.6 61.2 L216 61.6 L215.8 64.3 L213.7 63.4 L212.6 64.9 L212.9 65.6 L213.6 64.4 L213.6 65.3 L213.9 65.9 L214.3 66.2 L215 65.9 L217.6 64.1 L216.3 61.4 L213.1 60.9 L213.1 60.1 L209 58.3 L209.2 57.6 L209.8 57.4 L222 63.6 L224.6 69.5 L225.6 70.4 L230 72.1 L225.2 72.6 L224.8 72.5 L224.5 72.3 L224.5 72.1 L225 71.9 L222.3 72.1 L220.8 70.9 L218.4 72.6 L216.6 71.6 L216 73.9 L215.8 73.8 L215.3 73.6 L213.3 75.3 L212.9 76.6 L210.2 76.1 L209.5 76.4 L209.4 76.8 L209.7 77.9 L208.3 77.4 L208.3 78 L207.6 78.2 L205.6 78.4 L206.3 79.2 L203.9 80.1 L202 79.2 L202 80.6 L198.5 80.8 L195.4 79.5 L195.9 81.6 L193.4 82.4 L190.1 80.8 L189.9 83.8 L187.4 83.9 L186.5 82.4 L184.9 84.8 L182.3 85.9 L180.5 85.4 L180.6 84.6 L180.7 84.4 L174.6 83.9 L171.4 78.5 L166.8 79 L162.1 84.3 L162.3 84.6 L163.3 85.4 L162.5 86.1 L162.3 86.4 L163.2 86.4 L163.2 86.5 L163 87 L161.7 88.3 L161 88.6 L160.4 88.2 L159.8 87.5 L159.2 87.4 L158.9 87.9 L158.7 88.9 L158.7 90.7 L156.8 93.6 L158.4 95.3 L158.4 96.1 L158 96.7 L152.7 98.2 L150.5 100.2 L148.8 103.6 L146 105 L145.4 106.6 L143.1 107.2 L139.8 109.7 L138.3 109.7 L137.6 112.5 L138.5 113.4 L137.8 114.9 L134.9 114 L133.6 111.9 L131.2 111.7 L127.7 108.6 L128 106.5 L125.3 106.9 L124.8 107.1 L118.7 114.1 L117.2 117.1 L114 117.6 L112.9 116.7 L111.4 117.2 L110.8 117.1 L109.6 116.4 L101.8 117.6 L101.4 121.1 L103.2 128.9 L102.6 131 L103.9 134 L102.3 135.4 L99.3 134.2 L96.6 136.2 L95.7 138.2 L96.1 141.8 L92.2 145.7 L91.8 145.6 L91 145.1 L90.4 145.1 L82.3 145.6 L83.9 143.8 L81.7 143.4 L81 141.7 L82.7 141.3 L78.6 140.9 L77.4 136.7 L75.3 134.5 L77.9 131.8 L80.1 131.4 L79.3 129.9 L77.6 129.6 L76.2 131.9 L74.1 132 L74.3 131.4 L72.3 130.9 L71.8 131.4 L71.6 131.4 L71.7 131 L72.1 130.1 L71.4 127.9 L70.1 128.8 L70.5 129.9 L69.9 130.8 L69 131.6 L68 131.8 L67.3 131.7 L64.6 130.1 L67.4 128.8 L68 128.1 L67.8 126.7 L65.5 125.5 L68.6 115.2 L65.5 113.2 L64.6 111.5 L63 112.5 L59.7 112.4 L59.2 112.5 L57.6 113.3 L54.6 108.8 L49.8 108.7 L49.8 110.7 L48.1 111.9 L40.6 113.9 L40.3 109.1 L33.7 108.1 L31.8 106.6 L31.8 104.4 L28.5 104.8 L27 101.7 L24 101.5 L21.7 96.7 L19.5 95.9 L19 94 L17.4 95.7 L10.1 93.3 Z"/>
  </g>
</svg>
