<svg xmlns="http://www.w3.org/2000/svg" viewBox="0 0 240 180">
  <g fill="#17324a" stroke="#fffaf3" stroke-width="3.2" stroke-linejoin="round" stroke-linecap="round">
  <path d="M230 52.3 L229.5 52.9 L228.7 54.4 L226.3 55.7 L225.9 57.9 L222.2 60.6 L221 61.1 L219.8 61.3 L218.7 61.1 L216.3 59.9 L215.3 60.1 L214.7 62 L214.4 62.3 L210.4 62.9 L208.3 65.3 L206.8 69.4 L201.8 72.7 L201.2 73.9 L201.6 78.6 L197.1 83.2 L195.7 89.2 L193.9 92.4 L189.6 96.3 L190.9 97.7 L189.9 100.5 L188.4 101.7 L188.2 101.8 L188 104.7 L185.4 106.7 L184.4 109.4 L185.4 111.5 L182 115.2 L178.9 116.3 L178.7 117.2 L178.6 119 L177.1 121.4 L178.2 125.2 L175.5 126.1 L173.8 131.6 L172.3 131.9 L170.8 133.8 L163.3 132.1 L160.5 134 L160.8 135.9 L159.7 136.1 L158.2 138.5 L155.7 138.8 L151.9 136.8 L151.1 138.1 L145.9 138.2 L144.6 139.9 L142.8 138.4 L141.2 138.6 L139.9 137.7 L137.8 138.3 L136.5 137.5 L134.4 137.3 L129.9 138.9 L126 136.8 L122.1 137.3 L120.1 138.7 L120.4 139.9 L119 141.4 L116.5 143.5 L113.9 144 L112.8 146 L111.9 146.2 L109 145.9 L107.1 144.2 L105.8 146.8 L103.7 147.4 L103.7 148.8 L100.6 148.4 L98.7 149.6 L97.9 149.2 L97 150.7 L93.1 149.5 L90.4 153.8 L89 155.1 L88.2 155.4 L87.4 155 L84.9 157.4 L83.7 156.6 L82.1 157.2 L78.7 155.3 L74.4 156 L68.2 155 L67.2 156 L65.6 153.9 L61.7 152.7 L60.9 152.7 L60.1 149.8 L58.6 148.1 L50.6 147.2 L50.3 145.8 L50 146.4 L48.8 145.8 L49.7 145.2 L48.3 144.5 L46.1 139.5 L42.7 139 L38.6 135.1 L35.8 131.2 L34.1 126.9 L31.9 126.2 L31.7 126.9 L31.4 126.9 L28.3 123 L26.5 122.1 L25.7 122.7 L23.7 121.2 L23.2 119.1 L19 114.7 L20.3 113.2 L17.1 109.6 L16.7 108.3 L16.6 108.1 L17.5 105.1 L15.8 103.9 L10 104 L14.2 100.2 L15.9 97.2 L22.7 97.5 L20.7 96.3 L23.1 94.8 L21.7 93.5 L23.5 90.8 L21 90.5 L21.3 89 L20.3 88.5 L20.6 85.8 L22.3 84.2 L20.7 80.9 L21 78.5 L21.4 77.9 L21.8 77.8 L22.2 78.1 L22.6 78.7 L26.1 77.1 L27.3 76.2 L27.7 75.8 L27.6 73.9 L29.3 71.7 L28 70.4 L27.4 67.7 L20.2 65.9 L21.2 64.5 L23.9 63.5 L24.2 62 L25.4 61.4 L26.7 61.6 L29.3 62.6 L30.6 64.7 L31 64.9 L32.8 65.2 L34.5 63.4 L35 64.7 L36.2 64.9 L41.8 63.6 L41 62.5 L41.2 58.7 L39.5 56.2 L41.6 55.4 L42.2 51.1 L44.2 49.5 L45.4 48.7 L50.3 49.8 L58 57.8 L59 57.6 L61.3 59.8 L66.2 61.6 L79.5 61.5 L89.7 59.6 L94.3 60.3 L98.3 57.7 L97 56.8 L96.1 55.9 L95.9 51.1 L99 47.8 L104.1 46.6 L111.8 46.8 L113.8 45.5 L118.1 45.6 L119.9 44.4 L120.9 40 L121.5 39.7 L124.5 38.9 L126.5 40.3 L128 40 L128.8 40.2 L129.4 42.6 L129.7 42.6 L130.9 42.2 L133.6 43.8 L134.4 43.5 L139.8 40.3 L141 37.9 L142.2 38.1 L144.1 36.8 L145.5 37.7 L146.3 37.3 L147.2 36.4 L150.3 29.2 L152.3 26.9 L152.3 24.6 L162.6 22.6 L167.4 25 L172.7 26.4 L175.2 25.2 L176.2 25 L177.6 25.7 L179.5 23.6 L182.9 22.9 L185 23.9 L186 25.9 L188.3 26.2 L191.1 32 L193.7 33.8 L199.2 31.9 L204.1 31.8 L208.1 29.8 L209.2 29.9 L210.4 30.5 L209.9 31.9 L209.9 32.7 L210.8 32.6 L211 32.7 L211.5 35.7 L213.1 38.1 L217.2 38.1 L221.2 45.1 L225.7 44.2 L227.5 45.4 L229.3 47.5 L228.5 50.7 L228.8 51.3 L230 52.3 Z"/>
  </g>
</svg>
