<svg xmlns="http://www.w3.org/2000/svg" viewBox="0 0 240 180">
  <g fill="#17324a" stroke="#fffaf3" stroke-width="3.2" stroke-linejoin="round" stroke-linecap="round">
  <path d="M208.9 23.2 L200.3 27.9 L199.9 28.7 L201.5 30.9 L201.4 31.4 L201.1 32.2 L200.9 32.6 L199 34.3 L196.9 35 L196.6 36.1 L198.7 36.7 L198.6 39 L203.1 39.6 L204.7 38.1 L205.8 38 L207.8 41.4 L208.1 43.5 L207.1 46.6 L204.1 49.4 L202.3 52.6 L204.4 50.9 L203.3 53.8 L212.9 50.9 L213.5 51.6 L212.2 54.4 L214.6 56.7 L213.5 57.1 L213 57.5 L208.9 64.8 L213.7 57.7 L216.3 58.7 L215.2 57.1 L219.5 59.7 L222.7 59.3 L222.7 61.3 L223.8 61.6 L224.3 63.9 L225.3 62.5 L225.8 62.1 L227.9 64.2 L226.7 70.6 L223.4 71.3 L223.9 71.7 L225.4 72.2 L225.5 73 L220 75.1 L226.3 74 L228.7 76.1 L227 78.1 L219.4 79 L227.5 79 L227.2 80.9 L225.1 81.6 L225.1 82 L226.7 81.6 L226.4 82.9 L227.5 83.5 L229.7 80.3 L230 84.6 L227.9 86.8 L228.4 88.1 L227.1 89.1 L225.7 88.7 L224.4 88.9 L223.5 87 L219.4 84.5 L220.2 85.8 L219.5 86.6 L215.4 86.8 L215.4 87.1 L221.7 87.7 L222.7 89.5 L223.7 90.3 L225.7 91.3 L226.1 92 L225.3 92.6 L224.3 92.5 L222.6 91.6 L219 91.6 L224.3 94.2 L224.7 95.3 L223.4 96.5 L221.4 95.6 L220.8 96.2 L223.3 97.9 L219.8 97.7 L219.1 98.7 L220.4 100.7 L214.7 102.6 L213.3 101.8 L211.7 98.3 L211.4 98.1 L209.8 97.7 L211 98.3 L210.8 99.7 L212.4 100.7 L214.6 104.8 L211.3 103.7 L210.3 104.5 L212 106.3 L211.3 107.4 L208.7 107.4 L208.4 107.7 L209.5 109.4 L209.9 109.7 L210.3 109.7 L213.2 107 L210.8 110.3 L209.3 116.3 L205.2 117.4 L208.8 115.8 L208.3 115.5 L206 115.1 L204.3 118 L201.2 120.3 L202.6 122.3 L202.2 122.3 L201.6 123.1 L201.2 123.3 L200.2 123.2 L198 121.3 L195.6 122.9 L196 121.6 L196 121.3 L195.4 121.5 L195.1 121.5 L194.4 119.8 L194.6 121.6 L194.3 121.4 L193.7 121.2 L192.9 118.1 L190.7 116.8 L192.2 117.6 L192.9 119.7 L192.2 119.7 L192.2 122.6 L191.7 122.9 L190.6 122.6 L191.4 123.3 L190.9 123.7 L186.8 125.2 L186.5 124.5 L185.9 125.3 L184.2 126.8 L185.8 126.2 L186.2 126.5 L185.5 127.1 L180.4 128.7 L179.7 129.4 L180.6 129.4 L180.6 129.7 L177.2 132.9 L177 132.5 L176.8 132.4 L176.7 133.6 L174.1 134.7 L173.5 136.8 L170.9 140 L170.2 140.4 L171 139.1 L168 141.7 L165.4 142.5 L165 142.4 L164.6 142 L165.3 142.6 L164.4 144.9 L162.5 141.9 L162 144.7 L161.7 141.8 L161.8 145 L161 145.5 L161.5 140.4 L160.9 139.3 L161 141.7 L159.7 142.6 L160.2 145.1 L156.2 145 L156.2 144.2 L149.1 147.3 L149.3 145.5 L148.5 147.5 L145.9 149.4 L146.1 148.4 L146.6 147.8 L147.3 147.5 L147.8 147.5 L146 145.8 L146 147.1 L144 147.1 L144.4 147.5 L144.4 147.8 L143.1 147.9 L142 150.7 L141 150.8 L141.3 151.7 L144.4 151 L143.6 152.8 L143 153.3 L142.6 152.7 L141 153.3 L141.4 154.3 L142.9 154.2 L143.2 153.9 L141.1 158 L136.5 160.4 L135.8 159.4 L138 157.5 L135.8 157.8 L134.5 156.9 L134 156.8 L135.1 160.7 L136.7 160.8 L125.8 164 L114.4 161.9 L106.2 158.1 L105.8 156.8 L103 156.8 L103.1 157 L105.1 157.5 L99.8 157.1 L99.5 156.5 L99.1 157.2 L97.5 157.2 L96.8 157 L93.7 154.2 L94.7 153.9 L93.7 153.6 L93.8 152.9 L93.9 152.7 L93.5 153.2 L93.2 153.4 L92.8 153.3 L92.4 152.9 L92.4 152.7 L93.1 152.9 L91 149.4 L90.5 149.4 L90.5 149.7 L91.8 152.3 L89.5 149.1 L89.4 147.8 L89.9 147.1 L90.6 146.7 L91.9 146.5 L94.3 148.1 L91.7 145.5 L92.3 143.2 L89.4 146.8 L89 149 L85.1 146.2 L88.4 146.5 L88.1 145.5 L86.7 145.9 L86.2 145.8 L86.8 142 L86.1 141.7 L86.6 142.9 L86.2 143.6 L85.5 144.7 L83.9 144.9 L84.1 145.6 L84.2 145.8 L77.2 141.4 L76.7 138.7 L79.7 138.1 L76.9 137.4 L74.6 139.1 L76.4 141 L74.1 140.7 L73.2 142.6 L67.4 143.5 L64.7 141.6 L59.3 143.3 L53.9 142 L52.8 143.3 L52.2 142.6 L50.2 143.9 L46.8 144.4 L46.1 140.7 L47 138.1 L47.8 138.1 L48 137.9 L46.8 137.7 L45.9 135.8 L46.6 131.5 L48.5 132.6 L50.3 136.5 L52.2 136.6 L52.7 136.5 L53.7 134.7 L55.6 133.9 L56.7 134.6 L59.8 133.1 L61.4 132 L59.7 131 L59.9 130.2 L60.4 129.9 L61 129.8 L61.6 130.6 L62.3 129.7 L59.7 128.1 L60.3 127.6 L63.3 128.2 L64.6 129.1 L64.2 127.4 L66.1 127.5 L66.6 126.5 L65.9 126.9 L65.5 127 L66.4 125.5 L64.4 125.5 L64.5 124.7 L64.3 124.3 L62.1 124.5 L65.5 119.3 L67.6 119.1 L66.8 118.7 L68.5 117.7 L71.3 118.5 L71.8 118.4 L72.1 117.8 L72.3 117.4 L71.4 118 L70.9 117.7 L71.6 116.8 L68 116.6 L66.3 117 L61.4 121.5 L60.4 121.4 L58.6 120.7 L60.9 118.1 L63.4 117.1 L60.4 117.5 L60.1 117.3 L59.7 116.5 L61.1 111.8 L65.1 110 L64.2 109.1 L66.8 106.7 L69 108.6 L70.7 108.7 L68.2 107.1 L69 106.8 L69 106.5 L67 106.5 L68.5 105 L70.4 104.8 L68.8 104.5 L68.3 104.5 L67.1 105.7 L66.6 105.8 L67.4 104.2 L63.5 109.1 L63 108.8 L62.4 109 L60.4 110.8 L59.9 108.8 L58.8 113.3 L57.3 113.9 L56.2 112 L55.5 112.6 L55.8 108.4 L53.9 109.4 L53.7 106.5 L51.8 104.2 L53.4 105.3 L54 102.9 L56.9 100.7 L52.6 103.7 L52.2 103.2 L54.3 100 L51.9 99.4 L52.5 96.8 L51.8 97.7 L50 97.4 L48.8 98.4 L49.3 99.1 L47.5 99.4 L47.2 97.7 L45.1 97.7 L46.5 99.1 L44.6 98.1 L36.9 97.7 L35.8 96.4 L34.7 96.3 L32.8 96.8 L31.6 98.2 L29.3 97.4 L29.6 96.9 L28.9 97.3 L28.3 98.1 L28.2 99.1 L27.8 100.2 L24.1 101.3 L21.8 99.7 L19.7 93.2 L20.1 93.6 L20.5 93.5 L23.8 91.7 L28 93.2 L30.5 91 L31.3 90.7 L33.1 91 L32.8 90 L33.7 89.9 L33.9 90.2 L33.8 91 L34.6 90.6 L34.8 92.1 L35.1 91.6 L35.5 91.9 L36 88.4 L36.5 87.6 L37.3 87.5 L39 87.7 L37.5 90.6 L38.6 92.3 L38.5 90.5 L40.3 87.8 L41.8 89.1 L45 87.1 L43.2 86.8 L46.3 84.8 L46.8 86.1 L45.7 87.1 L46.9 86.8 L47 87.7 L47.2 88.1 L49.1 89.4 L48.1 87.7 L49.8 86 L51.4 86.1 L53.1 85.7 L55.7 86.2 L57.5 87.1 L58.2 86.5 L64.1 86.8 L64.6 86.3 L64.6 85.7 L63.9 84.5 L65.9 80.9 L65.9 79.3 L65.3 78.6 L60 83 L54.3 81.9 L52.8 80.7 L52.6 80.6 L50.4 81.2 L49.9 80.9 L49.5 80.5 L51.5 79.7 L49.6 79.7 L52.1 75.8 L52.4 75.7 L53.1 75.8 L54.4 74.1 L56.6 73.5 L60.8 69.7 L61.9 70.3 L61.7 69.6 L61.6 69.3 L66.7 67.1 L61.1 67.7 L61.5 67 L61.9 66.4 L60.8 64.5 L59.4 65.6 L58.4 63.5 L56.7 68.1 L55.9 68.1 L55.6 68 L52.9 65.3 L53.3 64.5 L53.7 64.2 L57.6 62.7 L58.5 60.3 L55.8 63.1 L55.1 63.4 L53.7 63.5 L54.8 61.9 L53.2 63.1 L52.3 62.6 L52.5 63.7 L52.2 64.1 L51.1 64.5 L49.7 58.6 L49.4 62.8 L49.1 63.2 L48.9 63.2 L48 61.8 L47.5 63.6 L46.4 60.7 L46.6 59.9 L47 59 L45.5 58.8 L46 64.8 L45 64.5 L44.8 63.3 L42.9 62.9 L44.8 60.6 L43.6 59.3 L43.5 60.4 L43.1 61.3 L42.6 61.7 L42.2 61.4 L41.6 59.7 L41 62.5 L39.8 62.8 L39.2 63.1 L38.1 62.5 L37.5 61.9 L37.6 61.3 L37.6 61 L37 61.3 L37.1 64.2 L36.1 65.5 L32.6 64.2 L30.9 65.9 L28.2 66.5 L27.6 66.1 L26.5 68.4 L22.8 69.4 L21.9 69.3 L21.1 68.7 L21 66.1 L20.6 66.2 L20.4 66.8 L19.9 66.1 L16.8 64.8 L11.2 65.4 L10.4 65.3 L10 64.5 L13.3 61.6 L13.5 59.3 L14.7 58.4 L18.1 59.9 L22.9 63.8 L23.5 63.8 L24.6 63.2 L22.9 62.9 L19 57.7 L24.6 59.7 L19.2 55.2 L18.1 51.3 L18.9 50.5 L19.8 50.6 L28.2 55.2 L29.4 56.7 L29.5 59.5 L30 59.2 L30.8 58 L30.9 58.3 L31.2 58.7 L33 58.4 L32.5 57.4 L35 56.4 L32.6 56.6 L31.6 56.3 L29.9 54.4 L30.1 54.1 L31.4 53.6 L35.8 53.6 L35.7 52.6 L36.6 51.9 L36.9 51.6 L34.3 52.8 L26.2 52 L23.4 47.2 L23.5 45.8 L24.3 44.8 L24.7 44.8 L28.7 47.1 L29.1 47.1 L30.4 46.8 L36.5 48.7 L28.7 45.5 L24.5 40.8 L24.5 39.3 L24.6 38.6 L24.9 38 L25.7 37.7 L26.8 37.9 L30.4 40.1 L31.4 40.3 L32.1 39.9 L33.2 41.9 L32.3 39.6 L30 38.7 L27.3 35.8 L31 35.3 L32.8 36.7 L31.1 34.8 L29.2 34.8 L28.7 34.5 L31.5 31.7 L37.3 34.1 L38.6 37.7 L40.1 36.2 L41.2 39.7 L39.5 42.9 L42.3 39.1 L42.7 41 L43.9 40.3 L41.8 43.8 L42.6 43.8 L43 43.6 L44.2 41.1 L44.3 45.5 L45.4 39 L47.2 38.8 L49.1 42.4 L47.7 49.2 L49.9 42.5 L51.5 44.1 L51.5 45.6 L52.2 44.8 L51.3 48.7 L51.3 49 L52 48.6 L53.4 45.1 L51 39.9 L51.7 37.7 L53 36.7 L50.9 37.7 L43.4 33.8 L42 32.4 L41.1 30.3 L42.1 29.7 L45 28.9 L48.3 29.6 L49.6 30.9 L49.5 29.6 L53.3 28.4 L50.6 28.8 L49.8 28.4 L49.4 28 L51.3 26.8 L51.3 26.4 L50.8 26.2 L48.8 27.6 L47.6 27.7 L46.6 27.5 L47.3 24.5 L47.6 24.2 L48.5 23.8 L45 26.3 L44.2 26.4 L44 26.1 L44.7 24.5 L44.7 24.1 L44 24.4 L41.9 27.1 L38.7 26.3 L37.9 25.9 L37.2 24.1 L39.8 24.3 L40.2 22.9 L38 20.9 L40.5 21.6 L40.1 20.6 L42.2 20.2 L43.2 21.4 L43.4 21 L43.3 20.5 L41.7 19.3 L43.7 19.3 L46.8 21.6 L49.2 19.4 L52.1 21.2 L51.4 19.3 L52 19.4 L53.7 22.8 L56.6 25.4 L56.3 28.7 L57.2 28 L58.1 28.7 L58.8 27.7 L59 28 L58.9 28.7 L61 28.4 L62.2 30 L62 30.3 L60.8 31.3 L61.9 30.9 L65.6 32.6 L66.1 37.4 L67.8 38 L67.2 40.3 L68.2 39.5 L67.8 37.4 L69.6 36.7 L70.4 37.9 L69.4 39.1 L69.5 39.5 L69.9 40.1 L70.4 40.5 L72.6 39.9 L74 40.9 L74.2 41.9 L68.5 43.2 L68.8 43.8 L69.4 43.8 L70.5 43.2 L72.4 42.9 L73 43.2 L71.9 44.5 L74 43.9 L74.5 44.3 L74.8 45.3 L74.9 46.1 L74.7 46.7 L74.1 47.1 L75 47.7 L75 48.1 L74 50.3 L73.7 50.9 L73.1 51.5 L71.1 52.2 L73.9 53.5 L72.3 55.5 L71.7 55.9 L69 55.8 L66.9 52.2 L65.1 52.2 L67.2 54.1 L66.8 55.8 L68 57.9 L72.3 58.4 L70.9 61.9 L74.2 60.1 L74.6 62.1 L74.2 63.8 L71.1 67.4 L74.3 65.8 L76.3 67.8 L76.7 73.8 L78.8 80.6 L78.6 67.4 L78.8 66.8 L79.5 67.1 L81.3 71.8 L82 72 L82.3 72.2 L80.8 65.3 L82.2 60.1 L87 55.7 L88.1 56.8 L87.6 62.3 L87.8 62.7 L88.3 62.6 L88.4 60.6 L89 63.2 L90.8 65.2 L92 62.6 L89.9 61.3 L92.3 60.3 L92.8 63.5 L93 60.3 L94.1 57.4 L95.1 57.1 L94.7 57 L94.4 56.4 L95.1 52.1 L93.7 49.7 L94.1 47.5 L91.5 39.9 L92.4 37 L98.7 35.1 L102.9 45.8 L106.3 47.4 L107.9 53 L108.9 53.3 L109.3 53.9 L109.4 52.9 L109.6 52.5 L110.2 52.6 L111.5 53.2 L111.3 54.1 L112.5 50.2 L111.5 45.1 L110.2 43.2 L112.2 41 L111.4 38.7 L113.2 37.2 L115.9 36.7 L116.8 37.4 L117.3 37.5 L117.6 36.4 L119.3 38 L118.3 36.1 L119.1 33.6 L119.7 33 L121.5 32.3 L122.4 34 L123 31.9 L123.3 31.6 L123.9 31.7 L124.9 32.2 L124.3 34.6 L126.6 33.3 L128 35.1 L127.8 35.9 L127.2 37.1 L128.5 36.4 L129.5 37.4 L130.1 39.9 L129.6 42.5 L133.6 43.8 L135.1 47.2 L135.9 47.4 L136.8 53.9 L138.5 55.8 L139.1 58 L139.2 55.7 L138.2 54 L139.1 50.1 L138.4 46.1 L135.8 44.2 L134 38.6 L133.8 36.4 L133.9 34.2 L134.4 32.9 L134.7 32.7 L138.7 33.5 L139.3 34.3 L141.2 33.8 L142.1 34.1 L142.6 35.8 L144 36 L146.1 38.5 L149.3 45.5 L148.8 42.5 L150.4 41.9 L148.6 42 L148.1 41.6 L151.3 41.5 L152.1 43.2 L153.3 36.7 L154.9 35.5 L155 33.4 L157.4 30.9 L160.5 32 L161.8 36.1 L162.6 34.9 L165.1 34.3 L165.9 34.5 L164.6 35.1 L164.9 35.3 L165.2 36 L166.3 34.5 L168.3 36.7 L166.5 33.5 L169.6 31.9 L167.8 33.5 L169.5 32.8 L169.9 32.9 L171.7 34.5 L170.5 32.4 L171.9 28.5 L169.8 23.2 L170.1 21.3 L168.8 18.7 L169 18 L169.4 17.4 L170.2 18.4 L170.5 17.2 L171.7 16.8 L172 18.7 L171.9 17.7 L173 17 L174 18.7 L176.9 16.1 L179.8 16 L181.4 17.6 L182.4 18 L181.4 19.6 L181.5 21.4 L183.6 21.3 L183.5 22.2 L185.4 22.2 L186.3 23.1 L186.6 25.1 L184.7 27.7 L186.4 28.8 L186.2 30.3 L189.6 30.6 L192.6 34.3 L193.6 29 L198 28.2 L201.1 23.5 L208.9 23.2 Z"/>
  </g>
</svg>
