<svg xmlns="http://www.w3.org/2000/svg" viewBox="0 0 240 180">
  <g fill="#17324a" stroke="#fffaf3" stroke-width="3.2" stroke-linejoin="round" stroke-linecap="round">
  <path d="M93.2 10 L94.5 10 L95.7 14.9 L99.4 16.7 L99.5 17.5 L98.2 18.3 L98.6 21.7 L102.1 23.1 L101.5 24.6 L103 25.9 L102.1 27.3 L101.4 26.9 L99.4 28.4 L98.2 26.7 L96.3 27.2 L96.7 29.1 L98.3 30.6 L98.3 34.5 L99.2 34.7 L100.1 33.5 L101.8 36.1 L104.3 36.5 L106.3 37.8 L106.1 38.8 L110.5 40.7 L107 43.6 L105.3 48.9 L111.4 51.6 L112.1 53 L115.1 54.6 L116.1 54.2 L118.3 55.7 L119.6 55.5 L120 56.7 L126 57.6 L127.4 56.6 L129.9 57.7 L130.2 59.4 L133.7 61.1 L135.5 60.4 L136.6 62.1 L139.1 61.8 L141.5 63 L143.2 62 L144.6 63.4 L147.6 62.7 L148.5 63.3 L149.3 61.3 L148.3 59 L149 54.2 L151.7 53.1 L153.1 54.6 L152.4 56.4 L153.3 57.7 L152.4 58.7 L154.5 60.7 L155.7 60.4 L157.2 61.3 L161 60.2 L162.5 60.9 L169.5 60.7 L170.5 60.2 L170 58.9 L170.6 57.8 L170.2 57 L170 56.8 L168.2 56.8 L167.7 54.6 L169.8 55.3 L173.8 54.3 L173.9 52.8 L176.7 51.8 L177.9 49.8 L180.6 49.8 L184.1 46.1 L188.4 47.7 L190.4 45.9 L192.2 45.7 L193.8 46.4 L192.8 48.2 L194.3 47.9 L195 49.3 L193.4 51.3 L197.6 51.5 L199 52.5 L199.2 53.8 L196.5 56 L197.8 59.1 L195 57.5 L192.2 58.2 L187 61.8 L187.2 65.1 L184.2 68.9 L183.9 69.8 L183.9 70.1 L184.8 71.1 L181.7 77.9 L177.2 76.7 L177.6 82.2 L176.3 82.7 L176.5 87.2 L174.9 89 L173.8 87.8 L173.2 88.9 L171.5 78.8 L169.7 78.7 L169 82.4 L168 83.2 L166.8 81.4 L166.5 82.5 L165.4 79.2 L166.6 76.6 L168.7 75.7 L169.4 76.2 L169.5 75.2 L170.7 74.7 L171.3 71.9 L172.7 71.6 L170.5 70.2 L161.2 70.4 L158.3 69.6 L158.4 65.8 L157.4 64.1 L156.7 65.7 L155.6 65.4 L153.5 62.8 L154.1 64 L152 63.9 L152 63 L150.3 62 L151.1 63.4 L149.3 64.6 L148.9 66.4 L153.8 69.6 L153.4 70.3 L150.8 70.1 L150.5 71.6 L149.1 71.7 L148.5 73.3 L152.5 75.6 L151.4 79.2 L152.6 80.1 L152.2 81.4 L153.6 81.7 L153 83.1 L154.3 87.9 L154.2 89.1 L153.3 88.9 L154.3 91 L153.1 90.1 L152.3 91.2 L152.6 88 L151.9 89.1 L152 87.6 L151.6 91.2 L151.1 91.5 L151.1 89 L150.7 91.1 L149.8 89.9 L149.9 91.4 L149.5 87.8 L147.9 86.3 L149.4 88.1 L147.9 90.1 L144.2 91.3 L142.6 92.7 L142.4 96 L143.2 96.5 L139.9 100.4 L138.4 99.6 L139.6 100.6 L139.1 100.9 L138.2 101.3 L134.8 102.4 L135.3 101.1 L133.7 101.6 L132.8 103.5 L133.5 102.4 L134.3 102.2 L134 102.9 L135.3 102.2 L130.7 105.4 L127.4 110.4 L117.5 117.7 L117.6 120.4 L114.6 121.9 L111.9 121.8 L110.6 125.1 L109.9 123.6 L109.5 125.4 L108.7 124.3 L106.6 125.5 L105.5 128.4 L106.2 132.1 L105.3 134.2 L106.8 138.7 L105.9 137 L105.4 137.8 L107 139.4 L106.1 144 L103.9 148.4 L104.1 150.7 L103.3 151.2 L104.2 150.9 L104.3 157.1 L101.3 157.2 L99.2 161.8 L102.1 163.7 L99.4 163 L96.5 164 L95.2 165.3 L94.6 168.3 L91.6 170 L88.6 168.1 L86.4 165.2 L87 164.5 L86.2 164.8 L84.7 159.4 L85.2 160.5 L85.4 159.8 L85.3 161.6 L86.1 161.5 L84.7 157.4 L82 150.8 L79.7 147.7 L80.1 147.2 L79 147 L77 142.2 L77.7 142 L77 142.1 L76.6 137.5 L74.9 132.7 L73.1 130.8 L73.8 130.3 L72.1 129.1 L71.4 127.2 L72.4 127.4 L71.1 126.3 L71.7 125.7 L71 125.9 L69.6 123.4 L68.2 114.5 L66.8 110.8 L67.6 110.8 L66.4 108.3 L67.5 106.2 L67 105.3 L65.9 106.6 L65.9 104.5 L67.4 105 L66 104.2 L66.5 103.1 L65.8 103.3 L65.3 101.3 L66.9 95.9 L66.2 93.9 L65.1 94.1 L65.7 93.4 L64.8 92.3 L67.9 90.2 L64.6 90.7 L65.7 88.8 L64.7 89.3 L64.5 88.6 L64.9 87.6 L66.7 87.2 L62.5 87.1 L63.4 87.4 L63.4 88.4 L61.7 90 L63.4 90.9 L62.3 93.4 L55.2 96.3 L51.2 93.7 L45.2 87.1 L45.9 85.9 L46.6 87.2 L51.9 85.5 L53.7 82.4 L53 83.3 L51.6 82.9 L49.4 84.4 L48.1 84.2 L43.8 82.2 L42.4 80.4 L42.3 79.3 L44.5 77.8 L41.8 79.5 L40.8 79.3 L41.6 79 L40.9 78.5 L41.5 77.4 L44 77.3 L44.1 75.1 L51 76.1 L53.2 74.7 L54.3 75.7 L56.8 74.7 L54.4 67.3 L52.3 67.2 L51.3 65.8 L51.8 62.3 L48 60.9 L48.4 58.8 L52.8 53.6 L53.8 53.6 L55.4 55.5 L61.1 54 L63.3 49.7 L66.8 47.6 L69.2 42.4 L72.3 41 L71.7 40 L76.1 35.7 L75.3 35.3 L75.6 31.3 L79.9 29 L78.3 27.7 L76.3 27.6 L76.3 25.5 L74.4 25.9 L74.3 24.6 L72.7 23.7 L73.4 21.7 L72.4 20.1 L74 18.8 L72.1 18.6 L72.6 17.6 L71.4 16.7 L72.1 15 L74.5 14.2 L82.3 15.8 L83.7 14.7 L86.9 14.4 L93.2 10 Z"/>
  </g>
</svg>
