<svg xmlns="http://www.w3.org/2000/svg" viewBox="0 0 240 180">
  <g fill="#17324a" stroke="#fffaf3" stroke-width="3.2" stroke-linejoin="round" stroke-linecap="round">
  <path d="M117.5 57.3 L116.7 57.6 L118.7 59.6 L117 59.1 L117.2 60 L114.9 60 L116.9 60.8 L116 61.7 L117.8 62.5 L117.4 63.3 L118.3 63.4 L117.8 63.8 L120 66.1 L118.3 67.5 L124.4 72.7 L121.4 73.5 L119.1 71.9 L119.8 73.4 L118.3 73.8 L117 76.8 L116.9 79.9 L117.8 79.3 L117.1 80.7 L117.8 81.1 L116.1 81.2 L114.6 83.3 L113.5 82.3 L113.7 83.8 L111 85.9 L112.2 86.5 L111.3 87.8 L112.9 88 L112.5 89.6 L111.4 89.5 L111.4 91.7 L110.6 90.9 L111.3 92.4 L109.8 94.7 L103.5 97.5 L103 93.4 L102.6 94.2 L101.6 93.7 L102.1 92.8 L98.6 94 L98.5 92.6 L97 92.5 L97.2 92.9 L97.2 93.1 L95.7 91.4 L95.7 92.5 L93.8 93.8 L91.7 93.3 L90.1 94.5 L89.6 90.5 L88.7 91.8 L85.5 92.2 L84.8 91.7 L85.6 91.2 L84.3 92.1 L83.8 91.1 L82.4 91.8 L81.9 89.9 L82.5 89.4 L80.7 86.1 L81.3 83.5 L80 81.5 L79.6 82.1 L77.6 81.4 L77.6 80.5 L78.8 80.8 L76.9 79.7 L76.6 78.4 L77.4 78.5 L77.1 77.2 L77.8 77.3 L75.9 75.7 L76 71.7 L77.6 70.6 L76.3 71.3 L78 68 L79.4 67.3 L78.9 68.5 L79.6 69.8 L83.6 73.2 L86.9 72.2 L89.9 72.5 L92.9 69.8 L95.5 69.8 L95.3 70.5 L98.4 71.4 L99.8 70.4 L102.9 70.5 L104.4 68.2 L104.1 66.5 L106.2 65.3 L105.5 63.7 L107.4 62.7 L108.1 60.8 L107.7 58.6 L109.2 56.2 L110 56.8 L115.9 56.4 L117.5 57.3 Z"/>
  <path d="M37.6 68.5 L36.9 66.7 L38.1 66.3 L39.9 69.1 L43.4 70.8 L44.7 73.5 L47.8 74.6 L45.5 76.5 L44.8 76.1 L45.3 76.5 L49.2 74.7 L51.1 76 L51.4 77.3 L48.8 78.6 L49.8 78.3 L49.2 79.1 L50.4 79.4 L49.3 79.5 L49.2 80.8 L51.5 82.5 L54.1 82.3 L54.6 86.5 L56.5 87.3 L54.9 90.7 L56.5 88.3 L60.1 88.9 L61 91.3 L62.1 91.7 L62.3 93 L61 95 L61.7 95.9 L60.6 105.7 L58.5 103.5 L57.9 105.2 L55 103.8 L55.7 105.4 L55 105.8 L51 101.2 L44.1 96.4 L43.8 94.9 L40.9 93 L37.5 88.6 L37.2 86.4 L31.9 77.5 L28.9 76.1 L27.2 68.9 L22.2 66.4 L21.6 63.5 L18.1 59.6 L16.2 59.2 L11.1 54.2 L10 51.9 L10 50.6 L11.1 50.1 L15.5 52.2 L21.2 52.1 L23 53.7 L23.4 55.4 L24.8 56 L24.3 57.6 L31.9 62 L33 63.1 L33.1 64.8 L33.3 64.2 L33.7 65.2 L34.1 64.3 L37.6 68.5 Z"/>
  <path d="M230 89.8 L230 107.8 L229.4 109.1 L230 121.1 L225.2 116.7 L226 115.3 L225.2 116.3 L222.6 116.8 L221.5 115.6 L220.1 117.2 L219.7 116.4 L220.9 113.7 L218.9 112 L221.6 111.7 L219.4 111.6 L218.4 110.6 L221.4 110.8 L218.9 109.5 L219.7 109.6 L217.9 108.1 L217 105.9 L217.6 105.4 L216.4 105.1 L217.4 104.6 L216 104.9 L216 103.3 L211.4 100.8 L210.1 101.1 L205.8 99 L202.4 98.8 L199.6 97.2 L199.8 96.3 L200.9 96.2 L199 96.7 L198.1 95.9 L198 96.7 L197.1 95.3 L196.3 95.9 L194.7 94.1 L195.1 92.6 L196.1 92.4 L195.8 91.4 L194.7 93.8 L194.1 93.6 L193.8 96 L191.2 97 L190.4 95 L191.3 94.5 L190.8 93.1 L190 93.3 L188.4 91.5 L186.7 91.4 L186.7 90.7 L188.4 90.2 L190.4 90.9 L192.3 89 L193.2 89.1 L193.5 90.2 L193.8 89.3 L193.8 90 L194.7 89.5 L194.9 90.4 L195.1 89.4 L195.6 90.1 L195.2 89.1 L196.5 88.8 L195.8 88.6 L196.2 87.9 L195.5 88.3 L196.2 87.5 L188.2 88.2 L186.7 86.8 L186.8 84.7 L181.8 84.1 L183 83.1 L183.2 81.3 L186.2 80.7 L188.8 79 L193.5 80.8 L196.4 80.8 L197.8 83.7 L196.9 85.3 L197.2 88.4 L198.7 91.1 L198.7 89.7 L199.5 89.3 L199.8 91.6 L200.6 91.3 L200.4 92.4 L201.7 93.5 L203.8 93.4 L208 88 L211.7 87.5 L211.4 86 L214.9 84.4 L224.2 88.7 L226.1 88.5 L228.8 89.3 L228.7 90 L230 89.8 Z"/>
  <path d="M128.5 81.5 L128.3 78.1 L127.4 77.3 L128.4 77.8 L128.2 76.1 L129.4 73.8 L130.5 72.5 L131.9 73.6 L133.2 70.9 L136.2 71.1 L136.6 72.2 L141 72.4 L142.8 73.4 L144.5 72.6 L148.2 73.3 L151.3 71.6 L151 70.8 L153.1 69 L154.1 69.3 L154.4 70.2 L150.7 75.2 L146.6 76 L144.8 75.8 L144 74.8 L137.8 75.3 L136.5 74.7 L134.5 75.4 L131.5 74.8 L129.8 76.4 L129.5 80.3 L131.6 82 L132.4 84 L134.5 84.1 L136.8 81.2 L139.3 81.8 L139.7 81 L143.3 81 L142.3 80.4 L143.9 80 L145.8 81 L145.1 82.4 L144.1 81.3 L142.8 81.7 L140.6 84.5 L137.9 85.5 L137.2 86.6 L135.4 86.1 L141.1 92.5 L139.8 94.6 L142 96 L142 97.2 L142.9 96.8 L143.1 98.5 L139.9 98.8 L139 99.6 L139.4 100.5 L137.4 100.6 L136.3 99.8 L136.9 96.8 L133.4 94.2 L134.3 92.8 L134.2 90.3 L132.8 89.9 L130.2 91.6 L131.2 93 L131.4 99.7 L130.5 102.1 L131.4 104.4 L130.7 103.8 L127.9 104.8 L126.4 104.1 L127.5 96.5 L126.8 94.1 L124 94.5 L123.3 92.5 L123.3 90.2 L125.1 89.1 L125 87.9 L126.1 86.8 L125.9 83.3 L127.6 80.6 L128.5 81.5 Z"/>
  <path d="M80.7 115 L75.7 113.9 L73.7 114.9 L70.9 114.6 L68.8 113.4 L63.8 112.8 L64.4 110.8 L58.1 109.9 L58.9 109.4 L59.5 110.1 L60.2 108.5 L60.9 108.7 L62.2 105.6 L65.5 106.7 L66.7 106.6 L66.8 105.8 L68.3 106 L72 107.8 L73.3 107.4 L74.4 109.9 L76 110.3 L83 110.9 L85.6 108.1 L86.6 109.5 L93.6 110.4 L93.6 111.9 L94.7 112.3 L94.4 113.6 L96.9 114.8 L100.6 113.9 L102.2 114.6 L102.1 118 L103.4 119.4 L96.5 117.1 L94 118 L86.7 117.2 L80.7 115 Z"/>
  <path d="M166 78.3 L166.3 75.8 L164.7 71.5 L166.1 68.1 L167.9 66.7 L166.9 68.1 L167.7 71.1 L165.8 72.8 L167 73.4 L168.6 70.6 L171.1 69.8 L171 72.2 L168.7 73.7 L170.8 74.6 L172 76.3 L167.2 75.2 L167.5 78.6 L169.8 81.7 L167.9 80.8 L166 78.3 Z"/>
  <path d="M181.4 94.5 L181.1 95.9 L176.9 93.4 L174.9 93.2 L174.8 94 L172.3 93.5 L171.9 92.7 L170 94 L168.5 92.1 L167.3 94.4 L166.9 92.6 L168.4 91.1 L172.7 90.8 L173.3 91.6 L175.1 90.7 L179.1 91.7 L181.4 94.5 Z"/>
  <path d="M125.4 118.8 L123.1 119.3 L124.1 119.9 L121.8 120 L121.6 118.6 L120.3 120 L115.4 121.1 L113.5 120.4 L114 118.3 L115.7 117.5 L117.8 117.9 L118.6 119.3 L120.9 119 L118.2 117 L119.1 116.2 L121 117.6 L122.7 117.2 L122.7 118.4 L124.1 117.2 L124.6 118.9 L125.4 118.8 Z"/>
  <path d="M143.7 117.2 L142.7 118.8 L137.8 120.1 L128.3 119.6 L128.6 117.8 L131.2 116.9 L136.4 118.7 L139 117.9 L140 118.9 L143 117.2 L143.3 116.7 L142.4 116.9 L142.9 116.1 L143.7 117.2 Z"/>
  <path d="M150.6 121.5 L152.8 120.4 L152.9 121 L153.9 120.7 L154 121.5 L153 121.6 L153.1 123.8 L150.2 126.3 L145.9 127.2 L147.3 125.8 L146.4 125.7 L146.9 123.6 L148.3 122.3 L149.9 123 L150.6 121.5 Z"/>
  <path d="M220.2 113.6 L220.9 113.8 L220 116.2 L217.5 117.8 L214 117.9 L215.8 113.9 L219.1 112.7 L220.2 113.6 Z"/>
  <path d="M65.6 89.6 L64.8 91.3 L65.5 92.1 L64.5 92.3 L61.8 90.9 L60.8 87.6 L58.5 87.6 L57.8 86.6 L59.8 84.7 L61 86 L60.5 84.7 L61.5 84.5 L63.4 89 L65.6 89.6 Z"/>
  <path d="M133 125.2 L133.2 125.9 L131.3 126.9 L124.1 123.2 L129 122 L133 125.2 Z"/>
  <path d="M164 94 L164 94.7 L163.9 94.9 L161.4 95.9 L159 94.8 L158 93 L158.5 92.3 L162.1 92.1 L164 94 Z"/>
  <path d="M108.1 117.2 L108.5 117.9 L105.7 119.9 L105.9 119 L103.1 117.6 L102.5 116.3 L106.3 116.1 L108.1 117.2 Z"/>
  <path d="M113 117.1 L113.5 117.8 L112.7 120.1 L109.1 119.6 L110.4 119.4 L110.1 118 L111.3 117 L113 117.1 Z"/>
  <path d="M72.9 91 L71.8 92.9 L70.9 92 L69.6 92.9 L69.9 89.7 L71.8 89.8 L72.9 91 Z"/>
  <path d="M100.6 110.6 L98.1 112.2 L94.1 111.4 L94.9 110.5 L100.6 110.6 Z"/>
  <path d="M144.3 102.5 L142.7 104.7 L141.5 103.8 L142.7 102.5 L143.7 98.4 L144.7 100.5 L143.8 100.2 L143.4 102.3 L144.3 102.5 Z"/>
  <path d="M23.1 72.5 L22.9 74.3 L22 74.6 L19 70.5 L20.7 70 L23.1 72.5 Z"/>
  <path d="M200.1 107 L199.4 108 L197.8 106.8 L198.3 105.2 L197.4 104.8 L198.9 103.4 L200.1 104.6 L200 106 L199.4 105.9 L200.1 107 Z"/>
  <path d="M29.6 85.2 L28.8 86 L27.4 85.1 L26.3 83.1 L26.7 81.9 L28 81.9 L29.6 85.2 Z"/>
  <path d="M185.4 112.1 L185.1 114 L183.6 115.9 L182.6 115.8 L183.2 113.3 L184.6 111.7 L185.4 112.1 Z"/>
  <path d="M183.5 78.5 L183.3 79.2 L181.9 79.1 L180.3 77.7 L181.8 79 L180.8 79.5 L180.6 78.7 L179.9 79.4 L179.7 78.5 L178.3 78.3 L181.2 77.3 L183.5 78.5 Z"/>
  <path d="M142.6 101 L141.7 103.4 L140.1 103.2 L140.7 100.1 L142.2 99.5 L142.6 101 Z"/>
  <path d="M154.7 85.9 L151.1 87 L150 86.4 L150.9 85.1 L154.7 85.9 Z"/>
  <path d="M162 114.5 L160.3 115.7 L156.9 115.9 L157.8 114.2 L161.1 113.7 L162 114.5 Z"/>
  <path d="M207.9 82.6 L205.6 83.1 L205 81.4 L203.1 80.3 L205.5 80.7 L207.9 82.6 Z"/>
  <path d="M168.3 85 L168.1 85.6 L164.6 85.2 L165.8 83.7 L168.3 85 Z"/>
  <path d="M198.8 109 L198 110.3 L196.8 110.2 L197.5 108.6 L197 107 L198.8 109 Z"/>
  <path d="M210.2 85.8 L207.2 86.5 L203.3 85.1 L210.2 85.8 Z"/>
  <path d="M146 83.4 L146.2 84.2 L145 84.1 L144.8 85.2 L144.1 84.9 L144.4 83.6 L143.1 85 L143 85 L142.7 84.3 L143.1 83 L144.5 82.8 L144.7 84 L146 83.4 Z"/>
  <path d="M170.9 65.4 L170.4 67.2 L168.9 67.7 L168.6 66.3 L169.7 64.9 L170.9 65.4 Z"/>
  <path d="M153.9 116.9 L153.8 117.5 L150 117.9 L151 117 L150.3 117.1 L150.6 116.5 L153.9 116.9 Z"/>
  <path d="M111.4 95.2 L110.4 96.9 L110 94.9 L111.2 92.8 L111.4 95.2 Z"/>
  <path d="M179.1 86.4 L177.9 87.3 L175.9 86.4 L178.8 85.4 L179.1 86.4 Z"/>
  <path d="M167.1 81 L165 81.3 L164.4 79 L165.6 78.9 L165.7 80.4 L167.1 81 Z"/>
  <path d="M16.2 65.7 L15.4 66 L12.4 63.7 L13.4 63.3 L16.2 65.7 Z"/>
  <path d="M73.4 58.7 L72.4 59.8 L72.1 59.3 L72.9 59.3 L71.5 57.9 L72.6 56.9 L73.4 58.7 Z"/>
  <path d="M182.3 82.1 L181.4 83.8 L180.4 82 L182.3 82.1 Z"/>
  <path d="M47.7 73.5 L44.9 73.4 L44.9 72 L47.7 73.5 Z"/>
  <path d="M41.4 67.4 L41.4 68.7 L40.2 69 L39.8 67.6 L41.4 67.4 Z"/>
  <path d="M148.1 116.9 L146.3 118.6 L144.7 118.3 L145.9 117.6 L145.5 117.1 L146.5 117.6 L146.6 116.9 L148.1 116.9 Z"/>
  <path d="M145.5 128.3 L142.8 129.9 L142.7 129.2 L145.5 127.5 L145.5 128.3 Z"/>
  <path d="M159.6 86.1 L154.8 86.3 L159.6 86.1 Z"/>
  <path d="M55.4 72.1 L55.2 73.3 L54.5 72.2 L53.4 72.2 L55.1 71.4 L55.4 72.1 Z"/>
  <path d="M45 71.4 L44.3 72.7 L43.7 70.5 L45 71.4 Z"/>
  </g>
</svg>
