<svg xmlns="http://www.w3.org/2000/svg" viewBox="0 0 240 180">
  <g fill="#17324a" stroke="#fffaf3" stroke-width="3.2" stroke-linejoin="round" stroke-linecap="round">
  <path d="M38.7 11.4 L41.8 16.1 L43.3 16.2 L44.6 18.5 L50.9 19.9 L54.7 19.6 L59.7 15 L66.3 11 L67.9 10.8 L71.1 14.3 L68.9 15.5 L70.5 17.2 L70.6 18.5 L68.5 19 L67.9 20 L70.8 22.7 L71.8 22.5 L73.6 25 L76 24.5 L76.6 30.3 L77.7 32.8 L81.2 34.8 L88.1 35.9 L90.7 39.8 L95.6 42.7 L103.9 44.7 L123.1 40.7 L119.5 41.6 L123.2 42.1 L122.3 36.4 L124.8 36.6 L125 36.6 L129.1 35.4 L130.3 34.4 L130.6 32.1 L133.4 29.8 L138.7 28 L144.2 28.4 L144.2 27.3 L145.4 26.5 L151 27.2 L152.2 26.2 L153.8 29.6 L161.4 31.6 L161.7 32.8 L163.1 33.3 L167.1 32.6 L172 34.5 L173.2 37.9 L178.3 39.9 L181.3 44.1 L188.8 44.1 L189.4 49.7 L188.5 51.3 L189.5 52 L190 55.9 L188.3 58.9 L188.7 60.8 L187.9 63.9 L186.9 65.7 L184.6 67.2 L186.3 69.3 L184 69.4 L182.6 71.7 L182.8 76.7 L186.6 78.1 L183.3 83 L185.8 91.8 L185.7 100 L193.6 101.3 L194.9 105.2 L194.7 107.1 L185.9 117.8 L190.4 123.1 L193 129.5 L195.5 132.1 L200.1 133.6 L201.8 135.5 L203.3 135.2 L203.5 135.3 L204 143.5 L203.3 146 L204.7 146.6 L207.4 146.1 L208.6 147.6 L207.8 148.1 L208.1 150.3 L207 153 L200.4 153.6 L199.2 154.2 L198.7 156 L197.6 155.7 L195 157.3 L194.3 161.5 L193.4 162.3 L193 167.5 L191.8 169.4 L191.1 170 L184 167.7 L183.2 165.8 L181.8 166.4 L182.4 167.5 L180.8 166.5 L180.1 167.2 L177.3 167.1 L173.1 165.6 L170 166.4 L167.2 164.5 L163.4 164 L161 164.7 L159.4 163.1 L157.7 163.7 L157.3 162.5 L153.6 162.2 L152.1 158.9 L152.6 158 L151.3 155.3 L151.4 153 L149.9 149.4 L150.4 148.9 L148 147.2 L142.6 147.1 L140.9 148.6 L138.3 148.9 L137.3 151 L134.4 151.3 L130.4 154.4 L126.6 153.2 L125.9 152 L120.4 152.1 L118 149.2 L114.1 147.8 L110.2 145.1 L110.8 144 L108.9 142 L104.8 139.8 L101.8 139.9 L99.2 138.8 L96.8 133.7 L96.1 130 L93.7 127.9 L94.9 126.6 L94 125.6 L92.2 125.6 L92.2 122 L87.6 116.9 L86.9 114 L82 116 L81.5 114.5 L79.4 114.6 L79.1 113.3 L78.6 113.8 L76.4 112.1 L79.1 112.4 L79.1 110.8 L77.5 110.6 L76.7 110.8 L77.5 111.6 L75.9 112.4 L76.4 115.8 L73.9 115.7 L73.8 116.7 L72.1 116.3 L71.7 114 L68.1 111.2 L68.1 105.5 L68 105.5 L65 105.5 L65 102.8 L65 101 L66.5 96.6 L63.3 92.9 L62.6 90.2 L61.2 89.2 L59.6 89.4 L54 84.8 L50.5 84.1 L50.8 83.1 L49.9 82.5 L51.2 81.7 L51 80.8 L49.3 78.2 L48.3 78.3 L48.6 76.8 L47.2 77.3 L44.9 73.4 L43.9 73.1 L45.4 71.3 L45.6 69.6 L44.3 67.9 L45 66.3 L46.9 66.8 L46.5 64 L48.1 63.1 L48.8 60.9 L51 60.7 L51.2 59.5 L49.3 56.5 L49.6 54.6 L52.6 53.2 L50.3 52.6 L47.3 53.1 L45.4 51.1 L43.4 51.1 L42.5 46.4 L41.1 46.4 L40.3 45.2 L40.8 43.5 L38.8 42.2 L39.4 40 L38.2 39.2 L38.6 37 L36.4 35.3 L36.7 32.4 L33.1 30.4 L35.5 25.6 L33.9 25.1 L33.8 20.1 L32.6 18.8 L33 16.8 L31.4 14.3 L34.8 13.9 L35.4 10.9 L35.5 10.8 L36.4 10.1 L38.7 11.4 Z"/>
  </g>
</svg>
