<svg xmlns="http://www.w3.org/2000/svg" viewBox="0 0 240 180">
  <g fill="#17324a" stroke="#fffaf3" stroke-width="3.2" stroke-linejoin="round" stroke-linecap="round">
  <path d="M137.7 14.5 L137.6 15.6 L139.7 16.9 L138.7 21.2 L141.4 22.2 L142.2 23.6 L141.3 26.2 L142.8 28.5 L145.3 28.7 L147.1 34.8 L146.6 36.6 L150.2 36.6 L153.5 40.1 L158.8 39.2 L160.2 40.4 L162.8 40.3 L161.4 42 L157.6 42.7 L157 46.2 L159.5 49.6 L160 53.6 L157.7 54.6 L156.2 54 L155.3 55.1 L155.2 57.5 L153.6 57.5 L153.5 58.8 L152.2 59.4 L151.6 61.1 L152.8 64.4 L149.5 63.6 L149.6 65.5 L148.2 66.4 L148.7 68 L148.9 68.4 L150.4 69 L150.2 72.3 L147.6 75.5 L149.3 76.1 L153.3 83 L155.7 82.1 L156.4 83.6 L155.2 84.7 L157.1 84.7 L160.1 89.2 L160.3 91 L158 92.4 L159.5 93 L159.1 95.1 L160.1 95.2 L162 95 L163.7 95.5 L165.3 96.3 L174.6 104 L176.1 104.7 L177.9 104.1 L180.4 106 L180 107 L181.8 109.1 L181.6 110.6 L183 111.4 L187.2 117.6 L187.1 118.1 L184.6 124.9 L184.6 128.2 L184.5 132.8 L189.8 132.8 L190 132.9 L190 143 L191.7 143.3 L191.9 143.4 L193 145.7 L194.7 145.9 L196.4 148.1 L195.9 149.3 L197.1 152.1 L198.8 153 L196.4 153.2 L191.7 151.1 L189.3 151.9 L188.7 149.9 L188.9 152.1 L185.5 150.3 L184.5 150.1 L180.4 150.1 L179.4 150.2 L176.8 151.3 L169 166 L166.6 168.8 L166.1 169.4 L163.3 170 L136.6 167.4 L94.4 131.2 L67.8 115 L47.2 111.2 L49.6 108.8 L48.6 106.7 L45.6 107.5 L45.4 107.4 L44.5 104.3 L45.8 103.9 L41.2 87.1 L72.1 68.6 L76 67.5 L76.5 67.2 L80.2 60.2 L80.1 52.2 L81.1 46.8 L82.9 43.1 L82.8 40.5 L82.8 39.8 L80.9 35.6 L81.5 29.6 L83.3 26.5 L90.6 24.6 L99.2 16 L98.9 15.1 L102.3 14.3 L104.8 10.3 L108.2 11.1 L111.1 10.1 L117 12.5 L122.3 13.4 L125.2 11.2 L126.8 11.2 L129 12.3 L129.4 14 L128.3 15.5 L130 17.8 L134.7 14 L137.7 14.5 Z"/>
  </g>
</svg>
