<svg xmlns="http://www.w3.org/2000/svg" viewBox="0 0 240 180">
  <g fill="#17324a" stroke="#fffaf3" stroke-width="3.2" stroke-linejoin="round" stroke-linecap="round">
  <path d="M143.9 22.9 L141 24.2 L140.8 24.5 L140.1 25.5 L138.9 31.2 L136.6 34.6 L136.8 36.2 L134.2 36 L132.1 37.6 L129.4 36.6 L128.6 37.4 L127.4 38 L129.4 40.7 L132.7 40.9 L132.8 41.7 L132.8 41.8 L128.4 44.7 L127.5 44.6 L125.7 44.2 L124 46.5 L121.5 47.5 L126.9 54.1 L128.6 54.6 L129.2 57.7 L132.9 58.2 L135.2 60.6 L137.8 61.2 L138.3 61.1 L139.3 60.3 L142 61.7 L141.8 60.2 L142 60 L142.8 59.6 L143.1 61.2 L143.7 58.5 L146.2 57.2 L146 56.5 L146.4 56.1 L144.8 54.4 L145.2 52.7 L149.5 49.5 L152.8 52.4 L153.4 54.4 L153.2 54.8 L152.8 55 L155 58 L155.6 58.5 L156.1 58.8 L157.6 58.4 L158.6 59.5 L157.8 63.5 L158.2 63.8 L158.8 64.6 L162.5 63.5 L165 63.7 L165.7 61.8 L167.2 62 L171.5 65.7 L170.2 67.3 L165.4 65.6 L164.9 69.7 L165.1 70.4 L165.6 71.1 L166.4 71.5 L168.2 71.8 L168.5 80.2 L172.1 83.8 L171.1 87.9 L169.4 88.2 L170.9 88.9 L171 90.7 L172.9 91.2 L172.6 92 L170.3 91.2 L168.9 92.4 L168.8 92.8 L171.8 95.3 L171.7 98.2 L173.4 102.4 L172.9 106.5 L174.3 108.6 L171.2 113.8 L168.9 120.5 L169 125.3 L166 129.8 L165.2 133.5 L162.8 132.9 L162.9 132.1 L162.1 132.7 L164.2 135.8 L164.5 135.4 L165.1 134.4 L165.1 134.6 L164.7 135.5 L165.2 136.4 L166.4 137.7 L165.7 139.5 L165 140.3 L164.8 140.2 L164.4 140 L164.9 138.9 L163.9 139.6 L162.7 139.1 L160.1 140.3 L156.8 138.7 L155.1 139 L154.6 138.9 L155.6 136.9 L154 137.7 L154.3 139.9 L151.5 142.4 L152.2 140.5 L150 135.8 L151 140.2 L149.5 141.9 L147.3 142.2 L147.5 141.7 L148.2 140.8 L147 140.5 L147.3 141.3 L146.3 141.1 L145.4 142.1 L139.4 142.4 L136.2 144.1 L135.4 143.4 L134.7 144.9 L136.7 145.1 L135.6 147.9 L133.2 148.3 L132.4 149.7 L129.8 149.4 L129.3 148.3 L128.9 150.4 L127.6 151.1 L128.3 151.8 L128.6 151.9 L125.5 153.4 L125.2 154.6 L119.7 155.5 L120.1 154.1 L121.5 153.3 L120.8 153 L121.2 151.8 L118.6 151.4 L115.3 152.2 L117.7 153.1 L117.3 154.4 L118.2 154.3 L118.5 154.4 L118.5 157 L115.2 160 L114 159.1 L114 160.6 L113.8 159.7 L113.3 159.4 L112.2 159.4 L113.7 160 L112.7 161.5 L112.8 163.3 L111.8 161.9 L107.4 161.9 L109 162.5 L108.9 164.7 L105 163.9 L103.1 166.4 L101.7 165.2 L99.7 165.8 L98.6 165.2 L98.7 166.3 L96.8 166.8 L96.1 168.3 L95.1 168.3 L94.9 167.5 L93.1 168.9 L92.3 168.9 L93.1 167.8 L92.4 168 L93.8 166.4 L91.8 167.8 L91.8 165.9 L90.8 165.4 L86.7 168 L85.6 167 L84.5 168.9 L81.7 170 L81.3 168.3 L88.3 163.3 L81 165.8 L87.1 161.5 L90.4 160.3 L90.8 158.9 L88.8 158.6 L88 157.2 L88.3 158.9 L86.3 160.3 L80.4 161.5 L76.6 163.9 L73.4 164.1 L75.9 162.5 L74.9 161.3 L77.2 160.6 L78.4 159.4 L78.4 159.1 L77.4 159.1 L77.8 158.4 L78.5 157.8 L80.5 157.7 L80.8 157.3 L80.8 156.6 L82.5 156.9 L81.8 156.1 L83.7 154.1 L87.5 152.5 L80.3 155.5 L80.2 154.7 L74 158 L74.2 157.5 L71.9 156.3 L72.8 156 L73 155.1 L72.6 154 L71.6 153.5 L69.1 156.1 L69.1 153.8 L67.9 153.7 L67.7 152.2 L71.2 151.2 L69.9 149.4 L70.9 148 L76.5 145.8 L77.5 145.2 L78 143.8 L79.1 144.9 L79 144.6 L79.5 142.2 L82.8 142.4 L82.3 141.9 L83.2 141.3 L78.4 141.6 L78.4 143.1 L77.4 141.9 L72.8 143.1 L70.6 142 L69.9 142.2 L69.9 142.4 L70.7 143 L68.4 142.4 L68.7 143 L66.7 143.5 L65.7 141.3 L66.1 140.2 L67.4 139.4 L68.3 140.4 L68.4 138.2 L73.2 135.8 L73.3 138 L74.9 137.7 L75.6 137.3 L76.2 136.6 L76.4 135.7 L75.9 134.9 L76.7 134.9 L77 135.1 L77.1 137.2 L78.6 137.8 L79.4 138 L80.4 138 L81.5 137 L81.9 137.7 L83.7 137.4 L80.3 136.2 L80.2 135.8 L80.2 135.5 L81.3 135.8 L80.7 135.5 L81.5 134.9 L81.2 134.2 L81.3 132.3 L78.5 130.8 L84.5 127.9 L86.2 128.3 L85 127.4 L85.8 124.3 L94.9 124.1 L100.2 121.8 L101.4 122.3 L102.5 121 L106.7 120.5 L107.5 120.2 L102.7 119.5 L102.2 117.1 L102.9 116 L100.9 117.2 L98 122.2 L94.6 123.5 L93.4 123.2 L94.8 121.5 L91 122.6 L88.8 121.6 L88.3 120.4 L87.5 120.5 L88.1 121.5 L84.7 122.9 L84.2 124 L78.8 124.9 L81.6 123.3 L86.9 117.5 L89.4 116.9 L89.6 114.9 L92.9 109.6 L89.9 109.3 L94.9 100.9 L97.7 102.4 L99.7 102.1 L98.4 100.4 L99.8 100.1 L101.4 101 L100.4 99.8 L101.8 99.7 L103 101 L102.6 99.6 L104.1 97.9 L100.4 97.9 L102.4 97.3 L101.7 96.8 L102.9 96.3 L102.9 96 L101 95.7 L89.1 97.6 L87.8 96.3 L88.3 95.6 L88.1 95.1 L86.7 97.3 L86.6 93.8 L87.9 93.2 L87.9 93 L87 92.1 L87.2 91.8 L88.1 91.2 L86.5 91.5 L86.2 93.5 L85.7 90.9 L83.9 93.7 L82 94.6 L79.7 93.7 L80 92.3 L82.5 90.9 L82.5 90.7 L81.7 90.7 L82.2 89.9 L80.7 90.9 L80.3 90.8 L80.2 90.4 L81 89.3 L79.5 89.6 L79.2 91.1 L78.2 91.5 L75.8 90.1 L73 90.1 L73.9 88.8 L75.7 88.9 L75.2 87.3 L77 87.3 L74.7 86.8 L73.6 84.8 L72.4 84.8 L72.9 84.3 L74.7 84.6 L74.5 83.7 L75.6 83.7 L77.2 84.8 L78 84 L76.5 83.1 L76.2 82.6 L80.5 81.8 L84.6 82.6 L79.5 80.7 L79.5 75.9 L87.8 74.6 L86.5 73.7 L88 71.8 L87.8 71.7 L87.3 71.5 L87.8 70.4 L83.2 70.4 L80.8 71.7 L79.5 72 L78.7 71.2 L79.3 68.2 L81.6 68.4 L82.5 69.7 L82.5 68.4 L81.4 68.1 L79.7 64.7 L81.3 61.7 L80.2 61.7 L79.3 63.5 L78.6 63.6 L78 63.1 L77.5 62 L79.5 61.5 L77.9 59 L78.8 58.7 L77.6 57.6 L77 57.4 L76.9 58.6 L76.5 58.8 L76 58.7 L76.4 59.5 L75.2 59.8 L75.7 62.4 L74.5 62.4 L74.2 62 L74.2 61.2 L75.9 57.3 L74.5 56.7 L77.4 53.9 L78 55 L80.2 55.6 L79.6 56.6 L79.1 57.1 L78.5 57 L77.9 56.4 L77.7 57.2 L79.5 58 L80.7 55.3 L83 55.9 L82.2 54.8 L83.2 54.8 L82.7 54.5 L81.4 54.2 L81.2 53.8 L81 53.2 L81.1 52.9 L82.5 52.6 L84.4 53.4 L95 53.9 L95.5 55.1 L96.4 55.1 L96.3 57.1 L98.1 60.4 L98.2 57.9 L100.3 54.5 L103 54.5 L105 55.6 L109.3 55.3 L111.8 58.2 L113.3 57.9 L110.7 55.9 L111.3 54.8 L114.3 55.1 L111.9 53.9 L111.8 53.5 L112 53.1 L112.3 53.2 L112.8 53.7 L113.3 53.4 L113.1 53 L109.7 52.6 L109.6 51.7 L114.1 49 L114.4 47 L115 48.1 L120.6 45.9 L119.1 45 L120.5 43.9 L121.5 41.1 L122.4 41.7 L122.7 40.4 L122.8 40 L118.6 41.7 L118.4 40.3 L114.7 43.4 L116.4 41.7 L115.6 40.3 L114.5 41.8 L113.7 40.6 L112.1 41.6 L109.4 41.1 L106.5 39.5 L106.4 38.2 L110.3 35.1 L114.7 35.6 L112.5 34.5 L112.9 34.3 L114 34.2 L115.8 35.3 L112.2 33.1 L113.8 31.7 L117.8 32.5 L116.5 31.5 L116.5 30.9 L116.8 30.5 L117.8 30.7 L118.1 30.6 L117.8 30.3 L117.6 29.6 L115.8 30.3 L115.2 29.7 L114.8 28.9 L114.5 28.1 L114.8 27.9 L116.8 27.8 L114.7 25.6 L115.7 25.6 L117.3 23.1 L118 24.3 L118 21.4 L119 19.2 L122.3 19.2 L121.9 20.6 L126.3 16.7 L126.9 17.2 L125.6 18.6 L127.9 18 L128.2 19.3 L129.1 18.9 L128.3 19.7 L129 20.1 L129.7 19 L128.9 17 L130.6 15.3 L130.2 17.9 L132.5 18.9 L132.9 21.7 L133.7 20 L132.9 16.8 L132.7 18.6 L130.7 17.3 L131.5 15.3 L134.3 14.6 L135 17.7 L137.2 21 L134.4 23.6 L136.3 23.9 L133.9 27.4 L138.9 23.4 L138.7 19.9 L136.6 16.9 L137.2 13.9 L138.3 14.2 L138.6 13.3 L140.1 14 L141 13.1 L141.5 12.9 L142.1 14.2 L143.7 14.2 L142.1 13 L141.4 12.1 L140.6 10 L144.9 11.7 L146.8 14.1 L151.4 16 L151.3 16.8 L146 19.6 L143.9 22.9 Z"/>
  </g>
</svg>
