<svg xmlns="http://www.w3.org/2000/svg" viewBox="0 0 240 180">
  <g fill="#17324a" stroke="#fffaf3" stroke-width="3.2" stroke-linejoin="round" stroke-linecap="round">
  <path d="M91.4 99.7 L95 96.5 L94.8 93.7 L95.6 92.3 L102.2 86.3 L100.9 85.5 L99.5 84.5 L107.6 69.4 L112 56 L115.8 34.2 L116.1 33.4 L116.6 33.1 L118.6 33.7 L119.8 32.4 L120 32.1 L121.1 23 L127.5 22.5 L129.2 24.3 L134.4 23 L136.8 15.1 L138.7 16.8 L142 13.4 L144.4 12.6 L146.2 10 L145.8 11.9 L144.2 13 L145.6 13.8 L144.4 15.5 L146.6 18.9 L145.9 22 L147.2 22.6 L147.1 23.1 L147.6 27 L147.8 27.5 L148.6 28.9 L146.7 33.6 L145 35.7 L144 37.1 L137.2 41.1 L137.8 44.6 L136.9 46 L137.8 47.1 L136.6 50.7 L137.2 51.7 L131.8 50.5 L131.3 47.3 L130.3 46.6 L129.2 46.5 L127 46.6 L124.3 45.3 L119.2 49.7 L118.4 53.4 L117.6 53.7 L117.9 57.5 L117.6 58 L116.3 59.2 L117.9 66.6 L117.2 68.8 L119 71.2 L118.8 73.1 L118.7 73.3 L116.8 74.3 L120.3 73.4 L121.5 74.7 L124.1 75.3 L124 74.6 L125.2 74.7 L124.8 72.5 L125 72.3 L125.4 72.4 L125.5 73.6 L126.9 74.6 L126.8 77.7 L126.1 79.3 L122 78.4 L116.1 83.3 L115.1 88.1 L113.5 90.7 L113 92.1 L113.4 93.5 L114.2 94.1 L115.1 94.2 L123.4 93.5 L131.2 88.4 L133.6 88.2 L133.6 88.2 L133.6 90.6 L131.4 97.8 L132.9 104.1 L130.7 110.5 L128.9 112.8 L128.7 115.5 L124.8 123.9 L122.5 131.6 L123.3 134.4 L122 139.2 L122.7 144.1 L122.1 145.5 L120.6 147.8 L119.5 154.8 L115.7 168.1 L114.5 170 L113.7 170 L113.4 169.4 L112.6 167.7 L111.5 159.7 L110.1 155.9 L108.6 151.6 L108.4 148.9 L103.7 135.1 L101.1 132.4 L101.5 129.5 L99.5 122.6 L91.4 99.7 Z"/>
  </g>
</svg>
