<svg xmlns="http://www.w3.org/2000/svg" viewBox="0 0 240 180">
  <g fill="#17324a" stroke="#fffaf3" stroke-width="3.2" stroke-linejoin="round" stroke-linecap="round">
  <path d="M56.7 27.8 L58.6 28.5 L62.7 26.9 L66 28 L69.2 24.7 L68.8 22.6 L72.5 19.7 L72.9 23 L74.8 24.8 L77.2 25.3 L76.7 26.9 L77.9 27.5 L78.2 29.3 L79.4 29.4 L80.1 28.2 L79.1 27.2 L79.3 26.2 L81.9 23.1 L82.6 19 L84.3 19 L84.4 20.9 L85.7 22.2 L89.6 20.9 L91.6 23.3 L92.6 22.6 L91.8 21.6 L92.4 20.5 L91.2 20 L91.1 18.5 L93 17 L94.1 18.2 L96 18.2 L95 16.3 L95.9 13.4 L98.3 13.4 L99 14.6 L102 14.9 L103.1 12.8 L105 11.6 L110.6 11.8 L115.7 10 L115.1 12.7 L116.6 13.3 L116.7 14.6 L118.2 16.1 L133 18.7 L132.8 19.7 L129.2 22.2 L129.7 23.5 L132.3 23.9 L130.3 26.5 L131.9 26.9 L131.7 29.6 L133.9 30.6 L135.2 32.5 L133.2 32.9 L134.3 32.6 L131.3 29.8 L131.4 30.7 L129.6 31.6 L129.9 30.9 L126.4 30.1 L126 32.1 L118.4 35.3 L120.2 33.5 L118.1 33.7 L118.4 34.3 L117.1 34.5 L115.4 37.2 L116.2 38.9 L117.1 38.4 L117.8 41.8 L117.8 41 L119.7 42.4 L118.7 44.7 L118.3 43.5 L118.4 45 L116.6 44.6 L117.8 53.5 L121.5 57.5 L132.1 64.1 L137.2 78.7 L144.5 85.3 L144.9 86.7 L149.5 89.1 L160.9 89.2 L161.5 91.2 L158.4 93.5 L158.5 96 L171.4 102.1 L176.2 106 L182.2 108.7 L182.6 110.1 L186.4 113.5 L188.1 116.9 L186 121.8 L182.1 118.8 L182.3 117.2 L180.6 114.3 L176.4 114 L173.1 112.5 L173.3 111.4 L174.4 111 L171.3 110.7 L170.4 111.1 L169.7 111.9 L166.2 117.4 L166.5 119.2 L164.9 122.1 L165.5 123.9 L168.2 124.6 L172.5 127.8 L172.1 132.6 L173.1 133.6 L171.9 135.6 L170.2 134.9 L166 137.1 L165.4 138.3 L165.8 142.8 L161.2 147.2 L160.2 150.3 L156.6 150.5 L155.1 149.2 L155.1 146 L157.2 144.8 L158.4 141.4 L157.4 139.4 L161 138.2 L161.8 135.6 L160.2 132.9 L159.8 129.3 L159.7 128.7 L157.8 125.4 L156.7 120.4 L155 117.5 L152.6 118.8 L150.9 118.2 L149.2 116 L146.9 115 L147.9 112.6 L145.4 108.4 L140.4 109.9 L141.9 107.5 L139.8 105.8 L138.8 106.4 L137.4 105.9 L137 106.6 L136.7 104.5 L133.3 99.5 L131.1 100.2 L128.3 98.8 L125.5 99.9 L124.2 97.5 L120.9 96.5 L116.3 92.1 L113.8 88.1 L111.6 87.5 L109.7 83.7 L106.4 81.7 L103.4 82 L104.3 80 L102 77 L99.1 75.7 L99.5 73.9 L96.5 73.6 L96.8 68.9 L94.5 65.4 L93.8 60.3 L91.8 56.9 L89 55.7 L88.8 56.7 L82 51.9 L81.7 52.6 L76.3 50.7 L73.2 52.7 L68.7 58.9 L62.2 60.5 L62 59.8 L61.9 59.4 L64.4 56.3 L64 54.6 L60.3 55.4 L56.1 53.4 L54.6 49.1 L56 46.8 L57.1 46.8 L56.6 44.7 L53.6 43.4 L51.9 40.4 L53.4 39.6 L54.7 40 L57.7 38 L58.3 35.7 L56.3 34.1 L56.1 32.2 L54 30.3 L54.2 29.3 L56.7 27.8 Z M118.5 59 L119.1 57.6 L118.1 58.1 L118.5 59 Z M118.8 89.5 L118.8 89.5 L118.8 89.5 L118.8 89.5 L118.8 89.5 L118.8 89.5 L118.8 89.5 Z"/>
  <path d="M153.9 144.7 L155.3 145.3 L150.3 153 L148.9 157.4 L149.1 159.8 L150.6 160.5 L150.1 162 L151.7 164.5 L149.7 165.9 L148.9 170 L142 167.9 L139.6 164 L137.5 162.9 L135.2 163.2 L127 157.2 L125.2 157.1 L124.4 156 L121.1 156 L118.5 152.5 L119.2 149 L121.7 147.7 L122 146.4 L124.4 148.9 L125.8 148 L126 146.6 L128.7 146 L129.5 147.8 L130.9 147.7 L134.1 149.8 L136.7 148.6 L142.3 148.7 L146.7 146.5 L148.9 147.4 L150.6 145.3 L151.2 146.2 L153.9 144.7 Z"/>
  <path d="M88.4 110.1 L88.6 111.5 L86.5 114.7 L87.7 117.6 L86.6 129.5 L85.7 131.9 L84.4 132.1 L82.7 130.6 L81.2 131.2 L79.5 130 L80.2 130.5 L79.6 134.1 L77.7 135.9 L76.1 135.1 L75.2 136.1 L74.3 133.2 L72.2 130.6 L73 122.3 L74.4 123.3 L73.8 123.1 L73.7 123 L74.3 120.9 L73.6 120 L72.9 120.9 L72.4 120 L72.2 118.2 L73.5 116.9 L72.1 111.1 L71.5 109.8 L70.1 109.8 L70.1 109.2 L69.8 110 L69.5 109.2 L70.2 108.1 L69.4 107.5 L70.2 103.7 L71.1 105.4 L73.9 106 L77.3 104.2 L82 99.3 L82.5 100.4 L84.2 100.6 L84.4 101.9 L84.7 101.1 L85.8 101.5 L85.2 103.1 L86.9 103.3 L85.1 104.5 L86.7 104.6 L86.3 105 L87.6 105.7 L86.8 106.4 L88.4 110.1 Z"/>
  </g>
</svg>
