<svg xmlns="http://www.w3.org/2000/svg" viewBox="0 0 240 180">
  <g fill="#17324a" stroke="#fffaf3" stroke-width="3.2" stroke-linejoin="round" stroke-linecap="round">
  <path d="M59.7 24.2 L63.7 22.9 L65 19.9 L67.8 17.3 L70.4 17.8 L71.8 16.7 L73.2 19.8 L75 19.6 L75.2 21.9 L81.6 23 L83.9 24.7 L85.3 23.6 L84.3 21.9 L84.9 19.9 L85.2 19.6 L89.1 18.9 L92.3 19.5 L93 17.6 L91.8 16.4 L92.5 11.8 L96.2 14.1 L98.7 14.3 L99.1 13.9 L99.2 13.4 L98.3 12.5 L98.3 11.5 L98.5 11 L102.8 10 L102.9 11.5 L104 12.4 L102.6 15.3 L104.4 15.9 L104.6 17.7 L103.2 21.9 L106.5 23.5 L108.7 23.5 L110 21.1 L111.2 21.5 L111.5 21.3 L112.2 18.8 L119.2 16.8 L121.4 17.8 L124 20.7 L126.6 20.1 L130.6 20.6 L131 22.9 L131.9 22.5 L131.7 23.8 L133 24.8 L132.2 25.5 L134.9 27.2 L134.8 30.7 L139 32.2 L139 34.4 L140.5 34.4 L141.9 36.2 L143.8 35.1 L145.1 35.8 L145.4 34.6 L146.2 34.6 L146.4 36.9 L148.7 37 L149.6 38.7 L149.8 37.6 L151 37.8 L151.8 34.9 L155.1 32.8 L157.5 33.3 L164.9 29.8 L175.8 30.7 L176.2 32.2 L178.3 30.3 L178.7 32.1 L180.3 32.5 L181.3 34.9 L183.9 35.5 L188.4 43 L189 43.4 L189.6 43.5 L191.4 41 L191.8 43.9 L190.8 45.5 L192.1 46.9 L189.8 49.7 L189.3 51.9 L192.1 52.9 L193.2 55.4 L196 73.1 L193.4 74.2 L193.4 77.3 L188.8 80 L188.7 81.8 L188.6 82.1 L185.1 88.9 L183.9 96.6 L184.4 98 L182.7 101.5 L181 102.3 L178.1 107.2 L177.7 108.2 L177.6 109.1 L178.5 110.5 L177.2 112.6 L177.2 113 L179.1 121.9 L180.8 124.4 L183.1 132.1 L183.2 133 L182.9 135.9 L184.6 135.8 L185 138.3 L186.7 137.6 L189 138.6 L190.4 144.2 L190.3 144.6 L190.1 145 L189.8 145 L188.9 144.9 L189.5 149.5 L185 149.1 L184.2 150.7 L182.1 149.6 L180.2 150 L178.6 148.1 L180.5 145.4 L180.1 144.3 L177.2 145 L177.4 145.6 L177.5 146.1 L176.5 147.2 L177.7 147.7 L175.7 148.7 L176.8 149.8 L175.9 150.5 L166 148.9 L165.8 147.6 L164.9 148.8 L159.2 147.4 L158.8 146.9 L160.5 146.4 L161.2 147.1 L161.3 146.4 L164.4 147.4 L165.6 146.9 L164.8 144.4 L163.7 144.1 L165.2 146.7 L161.5 145.7 L161.2 144.8 L160.8 145.6 L158.6 145.7 L160.3 146.2 L159.1 146.8 L155.7 145.8 L152.5 146.4 L152 145.7 L150.1 146.7 L147.3 146.1 L147 146.3 L146.9 146.7 L147.6 147.1 L147.1 147 L145.3 146.9 L144.8 146 L145 146.9 L141.6 147.7 L141.1 147.2 L142.2 147.2 L142.1 145.7 L138.9 148.4 L139.4 149.3 L141.3 148.3 L144.7 148.7 L145.7 147.7 L148.7 148 L149.3 147.2 L154.3 146.5 L157.3 146.5 L158.1 146.7 L157.1 146.9 L158.9 147.7 L136.6 150.3 L134.4 150.1 L133.7 148.1 L131.2 149 L126 147.8 L125.6 148.6 L126.6 148.8 L125 150.3 L123.7 149.3 L124.1 150 L125.1 150.5 L126.3 150.6 L127.3 150.3 L125.6 150 L126.9 149.1 L129.3 149.4 L128.3 148.4 L131 149.4 L133.2 149 L133.9 150.3 L120.3 150.7 L119.6 151.2 L120.1 151.3 L120.3 151.4 L118.3 152 L112.8 152.8 L93.5 160.5 L86.7 162 L84.4 164.2 L78.5 166.3 L72.9 170 L70 169.2 L69.9 159 L69.2 158.2 L69.2 156.1 L70.6 155.7 L69.9 152.2 L70 151.7 L70.3 151.3 L71.5 151.3 L72.6 146.7 L73.6 146.3 L73.9 147 L74.6 145.6 L73.1 143 L73.8 140.4 L74 140.4 L74.5 140.4 L74.2 140 L74 139.5 L74.2 139.2 L74.7 139.3 L73.1 135.2 L73.2 132.3 L72.4 132 L72 133.3 L71.2 132 L70.2 132.4 L67.4 130 L66.5 131 L64.7 129.5 L64.2 126.7 L62.9 126.4 L63.2 123.5 L61.6 121.7 L58.6 120.9 L55.2 121.6 L50.7 119.4 L49.2 120 L49.4 117.5 L48 116.4 L47.1 117.7 L45.6 116.3 L44 116.1 L50.7 109.6 L52.4 103 L48.8 90.8 L48.4 90 L47.4 89.4 L48.5 88.4 L49.1 88.1 L53.7 89.8 L57 83.6 L56.2 81.3 L57.7 77.6 L60.4 78 L58.9 75.8 L59.3 73.7 L57.3 74.3 L54.9 73.5 L52.8 72.2 L53.2 67 L54.4 66 L60.2 65.9 L61.9 67.7 L63.2 67.6 L63.8 66.4 L64.3 67.1 L65.1 68.7 L67.8 69 L67 62.7 L64.3 59.6 L60.4 58.7 L60.2 58 L61.1 53.4 L65.7 51.4 L63.2 49.1 L61.2 48.7 L62.8 43 L58.1 43.5 L55.5 40 L56.4 32.1 L55.1 29.7 L56.3 27.3 L58.6 26.1 L59.7 24.2 Z"/>
  </g>
</svg>
