<svg xmlns="http://www.w3.org/2000/svg" viewBox="0 0 240 180">
  <g fill="#17324a" stroke="#fffaf3" stroke-width="3.2" stroke-linejoin="round" stroke-linecap="round">
  <path d="M97.9 101.2 L97.1 102.2 L96.7 101.3 L95.7 102.8 L95.7 101.6 L92.2 103.3 L91.9 101.9 L90.5 102.1 L88.8 106.7 L89.1 105.9 L86.7 104.4 L85.6 105 L84.3 104.5 L83.5 105.5 L82 104.4 L81.1 105.5 L81 102 L82 101.7 L81.3 101.5 L84.5 101.3 L85.7 99.4 L87.5 99 L92.7 94.2 L92.7 93 L95.7 91.7 L97.3 91.9 L96.8 92.4 L97.8 92.9 L105.4 91.1 L108 91.3 L110 90.2 L110.5 91.1 L109.7 92.1 L110.1 91.7 L110.7 92.9 L111.5 91.6 L112.8 92.7 L114 92.2 L113.9 91.3 L114.9 91.5 L115.3 90.3 L115.6 91.2 L114.8 88.6 L115.9 86.3 L119.7 82.4 L120.1 77.2 L124.1 75.9 L123.6 77.5 L120.9 79.2 L122.2 79.5 L121.8 81.5 L124 82.1 L125.1 80.5 L132.2 77 L134.2 73.3 L138 70.7 L142.2 59.5 L141.9 56.7 L140.2 56.6 L139.8 55.8 L140.9 55.6 L141.8 54 L142 52.5 L140.9 50.4 L142.1 49.1 L143.6 48.9 L144.6 47 L143.5 46.2 L144.1 45 L146.1 45.6 L146.5 48.4 L147.5 48.2 L147.7 47.1 L149.3 48.3 L150.4 45.9 L149.6 44.9 L146.9 46 L147.8 42.9 L150.3 44.3 L151.6 43.7 L151.4 49.9 L154.1 53.4 L154.9 58.6 L155.7 59.1 L154.1 62.4 L154.6 62.9 L152.8 63.8 L153 64.9 L152.4 64.6 L151.6 66.5 L152 69.7 L150.7 68.5 L149 68.9 L148.3 70.5 L148.6 79 L145.6 86 L147.7 90.7 L145.1 91.9 L144.4 95.2 L142.7 95.6 L141.3 97.4 L140.2 97 L141 96.6 L140.4 94 L142.5 92 L141.7 91.1 L140.3 91.2 L140.4 92.5 L139.4 92.9 L139.7 95.5 L138.8 94.1 L136.4 94.4 L135.7 95.7 L136.1 97.7 L134.1 99.9 L133.5 97.6 L133.7 96.4 L134.5 96.4 L133.8 95.6 L132.2 95.8 L130.8 97.4 L130.1 99.9 L124.7 99.3 L122.1 100.1 L124 98.5 L121.9 98.4 L121.7 97.2 L121.6 99.1 L120.8 98.7 L120.9 95.8 L119.5 96.7 L118.6 99.3 L121.3 101.3 L121.1 102.6 L119.8 102.1 L117.4 103.3 L116.6 104.2 L117 105 L113.5 109.5 L108.8 105.8 L109.7 103.7 L108.9 102.5 L110.6 101.3 L111.2 99.1 L108.8 99.7 L104.9 98.4 L101.3 100 L102.1 100.1 L101.3 101.1 L99.8 100.5 L97.9 101.2 Z"/>
  <path d="M180.3 27.6 L178.8 29.4 L176.1 29.7 L175.2 30.9 L173.8 30.4 L173.5 31.4 L170.7 30.7 L167.8 32 L164.2 36.4 L163.5 39.6 L154 34 L151.4 34.3 L148.5 36.5 L146.7 34.3 L144.9 34.3 L144 37.1 L147 38.1 L149.8 40.7 L148.5 41.4 L146.2 40.4 L144.5 43 L143.2 43.9 L142 43.4 L142.8 39.1 L140.3 36.7 L140.8 33.8 L143.1 32.3 L143.9 32.6 L145.3 30.8 L144 28.7 L144.9 27.7 L149.6 29.6 L151.2 28.4 L150.8 24.7 L152.8 23 L153.8 17.6 L152.3 12.6 L153 10.6 L154.8 10 L161.7 17.7 L167 21 L166.7 21.6 L169.7 21.6 L169.6 22.4 L170.2 21.5 L171.1 22.9 L173.8 23.2 L177.5 19.7 L175.7 24.3 L177.8 28.2 L176.9 28.1 L178.7 28.9 L180.3 27.6 Z"/>
  <path d="M86.1 117.4 L84 126.5 L82.2 125.8 L81.8 126.5 L82.6 127.2 L79.5 129.5 L80.4 126.7 L79 124.7 L80.1 124.9 L80.2 123.7 L79.1 124 L78.5 125.6 L79.5 127.3 L79 128.3 L76.5 127.5 L75.9 126.2 L76.6 126.4 L77.3 125.2 L76.2 123 L76.3 120.5 L78.5 118.5 L79.5 116 L78.1 116.1 L79.2 114.9 L76.7 111.5 L75.9 112.1 L76.5 113.4 L75.8 114.1 L77.1 114.1 L77.5 115.6 L76.2 116.4 L76.3 114.8 L75.5 114.8 L73.3 116.6 L74.1 115.3 L72.6 113.7 L72.9 112.3 L74 114.4 L75.1 114.3 L74.7 112.9 L72.1 111.2 L72.3 109.9 L74.1 110.8 L74.1 108.5 L75.3 109.4 L76.5 107.6 L77.7 108.1 L77 107.4 L78.1 107.1 L78.3 106 L81.8 105.1 L81.5 106.4 L82.4 107.9 L84.5 108.3 L86.2 107.6 L86.5 109.7 L85.1 110.1 L85.1 110.3 L85.1 110.8 L87.8 110.9 L87.1 112 L88.4 112.3 L87.8 113.3 L89 113.5 L86.1 117.4 Z"/>
  <path d="M106.4 106.3 L103.9 108.3 L102.9 111.1 L100 108.6 L97 110.1 L95.1 113.2 L95.3 115.4 L92.6 115.1 L93.2 113.8 L91.8 114 L91.6 112.7 L91 112.9 L91.7 112 L91.1 111.4 L92.1 111.2 L90.9 110.4 L91 109.2 L88.5 110.2 L92.9 107.2 L94.4 103.8 L95.9 105.4 L98.6 105.1 L99.4 104.2 L98.8 102.7 L99.6 103 L101.3 101.7 L106.1 102.9 L106.4 106.3 Z"/>
  <path d="M64 164.1 L62.7 166.1 L60.6 167.2 L61.2 168.1 L59.4 170 L59.9 167.1 L61.5 165.9 L60.9 165 L62.1 165.4 L63.4 163.4 L63.9 164 L64 164.1 Z"/>
  <path d="M131.5 71.3 L132.3 71.3 L131.8 72.7 L130 73.6 L130.8 72.2 L130 71.8 L130.5 70.5 L131.9 69.2 L131.5 71.3 Z"/>
  <path d="M73.1 150.4 L70.9 153.2 L69.4 152.2 L73.1 150.4 Z"/>
  <path d="M108.5 99.8 L108.2 102.6 L106.6 103.3 L106.3 102.1 L108.5 99.8 Z"/>
  <path d="M76.1 116.8 L76.4 118.6 L75 119.7 L75.1 116.9 L76.1 116.8 Z"/>
  <path d="M79.6 134.7 L78.7 135.9 L77.6 135 L78.4 133.9 L79.6 134.7 Z"/>
  <path d="M71.4 99.7 L70.7 102.4 L69.9 101.9 L70.3 100.1 L71.2 99.1 L71.4 99.7 Z"/>
  <path d="M82.1 130.8 L82.1 132.9 L80.9 134.9 L82.1 130.8 Z"/>
  <path d="M67.6 115.8 L66.9 116.6 L65.7 116.2 L66.1 114.9 L67.1 114.7 L67.6 115.8 Z"/>
  </g>
</svg>
