<svg xmlns="http://www.w3.org/2000/svg" viewBox="0 0 240 180">
  <g fill="#17324a" stroke="#fffaf3" stroke-width="3.2" stroke-linejoin="round" stroke-linecap="round">
  <path d="M70.7 36.4 L75.6 33.9 L79.9 35.2 L81.9 37.3 L83.5 37.4 L83.5 39.2 L85.5 42.7 L89.2 42.3 L96 48 L104.7 49.4 L105.9 50.3 L110.1 50.4 L174.1 10 L183.3 43.5 L180.7 44.3 L182.6 50.5 L183 50.7 L189.2 49 L191 53.1 L180.3 62.7 L114.7 82 L132.1 100.8 L148.1 119.9 L137.2 126.3 L131.4 139.2 L107.2 144.6 L99 158.3 L84.8 170 L49 163.8 L50.6 157.4 L49.2 155.9 L49.3 154.8 L52.3 145 L53.5 137.7 L54.9 135.6 L55.4 134.3 L54.7 129.6 L56 125.2 L55.2 122.5 L61 107.5 L61.2 105 L63.3 102.1 L65 96.8 L63.6 90.9 L65.5 85.4 L66.4 76.2 L68.9 71.5 L67.8 65.6 L68.5 64.9 L67.8 60.3 L69.4 53.4 L68.5 46.8 L69.6 43.4 L68.7 42.4 L69.6 41 L69 38 L70.7 36.4 Z"/>
  </g>
</svg>
