<svg xmlns="http://www.w3.org/2000/svg" viewBox="0 0 240 180">
  <g fill="#17324a" stroke="#fffaf3" stroke-width="3.2" stroke-linejoin="round" stroke-linecap="round">
  <path d="M230 81.3 L227.4 81.3 L225.8 85.9 L221.5 86.9 L220.3 90.3 L221.1 96.3 L220.2 97.7 L216 99.6 L215.7 98.3 L211.6 98.3 L206.8 96.5 L202.9 109.8 L204.7 110.9 L204.2 113.2 L202.9 112.4 L200.8 113 L199.5 111.4 L189.8 115 L190.5 115.9 L193.2 116.4 L192.5 117 L192.4 121.5 L194.8 129 L192.5 130.1 L193.5 131.3 L191.9 131.8 L191.3 133.2 L191.7 136.9 L190.3 135.1 L187.5 134.6 L186 132 L174.2 130.4 L171.2 131.3 L167.9 130.8 L167.1 131.9 L164.7 131.6 L159.2 128.2 L159.3 128.8 L158 128.6 L155.9 130.1 L155.4 135.2 L146.7 131.7 L143.5 132.3 L142.1 133.8 L142.4 134.7 L141.3 135.8 L141.8 136.4 L140.6 136.8 L140 138.2 L138.6 137.9 L136.2 140.7 L131.5 143.4 L131.5 144.8 L129 147.1 L129.3 149.5 L128.4 149.8 L125.9 148 L126.6 145.9 L125.6 144.8 L119.1 145.2 L117.9 138.4 L115.2 138.4 L115.7 130.4 L114 131.3 L112.5 127.9 L109.3 124.5 L106.9 125.9 L100.1 125.3 L93.7 126.5 L88.4 119.2 L75 109.7 L61.2 114.3 L61.2 143.8 L58.3 144.2 L55.4 138.9 L50.8 135.6 L45 137.4 L42.1 140.4 L41.9 137.6 L43.4 134 L42.8 132.3 L43.6 133.7 L43.6 132.5 L40.7 131.2 L39.4 131.7 L37.9 128.8 L35.8 129.1 L36.1 126.8 L33.6 120.9 L30.3 119.5 L30.2 117.6 L30.6 116.9 L33.7 117.2 L35.1 118.4 L37.4 118.2 L34.1 115.1 L34.1 114.4 L35.9 113.9 L36.6 111.1 L37.5 111.5 L38.4 110.5 L39.4 111.3 L46.6 111.4 L43.7 110 L45.8 105.3 L46 103.4 L45.1 102.1 L46.2 100.6 L45.5 99 L42.1 98.1 L40.7 99.1 L41.1 99.7 L40.2 99.6 L37.9 97.6 L37.5 98.2 L35.4 97.2 L33.5 97.8 L33 98.9 L33 98.3 L32.3 98.6 L32 99.5 L31.3 99 L28 101.8 L26.9 101.5 L26.7 102.2 L26.1 101.4 L26.2 102.2 L25.2 101.4 L25.6 103 L24.8 102.4 L24.8 103.5 L20.6 100.9 L21.2 100 L22.3 100.7 L23.6 100 L19.1 92.4 L15 91.4 L14.7 92.6 L13 90.2 L13.8 89.7 L13.3 87.9 L10 86.8 L11.6 82.5 L12.9 81.2 L11.6 79.3 L11.9 77.4 L12.3 75.4 L12.4 75.1 L14.6 73.4 L14.5 71.5 L16 70.3 L19.5 75.1 L20.6 75.5 L22.4 74.5 L23 73.7 L21.3 68.7 L22.7 69.2 L25.8 67.1 L25.9 65 L27.8 65.1 L30.7 63.5 L32.1 60.8 L33.1 61.3 L33.1 59.8 L36.3 60.8 L35.6 61.6 L36.4 62.2 L37.5 61.6 L38.1 62.3 L39 60.5 L41.4 59.7 L42.6 62.2 L47.1 61.9 L48.8 64.2 L50.2 64.4 L53.1 67.1 L52.6 69.1 L53.2 69.8 L54.2 69.1 L54 66.8 L53.2 66.5 L54 65.7 L59.5 69.7 L63.9 65.3 L65.1 66.2 L65.1 65.3 L67.5 65.1 L69.2 67.1 L70.6 66.7 L70.8 65 L73 65.5 L73.7 64.7 L75.3 65.7 L75.6 67.6 L80 69 L80.3 70.2 L81.6 69.7 L82.9 67.1 L84.4 68.5 L86.7 68.7 L90.2 67.7 L91.8 63.8 L90.8 62.5 L84.7 60.5 L85.3 59.4 L82.8 58.4 L88.4 55.2 L86.5 52.6 L88.1 50.1 L94.1 49.9 L94.1 48.9 L89.1 47.4 L89.4 45.9 L90.4 46.3 L91.1 45.2 L87.7 44.9 L89.3 43.4 L88.2 42.2 L89.4 42.5 L89.9 41.3 L93 42.3 L95.9 41.6 L96.5 42.8 L96.7 41.3 L99.4 41.1 L99.8 40.3 L103.8 40.2 L104.4 39.2 L109.3 38.5 L110.8 39.3 L110.8 37.6 L112.2 36.7 L113.6 37 L114.8 36.1 L115 36.8 L126.8 34.1 L127.6 33.3 L126.9 32.3 L129.1 32.2 L129.7 30.8 L131.1 31.5 L130.9 30.2 L132.3 31.1 L134.9 31 L137.8 32.7 L139.1 31.4 L140.9 31.2 L142 33.1 L142 35.3 L143.5 36.4 L142.8 37.2 L143.1 39.2 L141.9 39.3 L142.9 41 L143.7 40.2 L145.6 40.9 L146.1 39.8 L148.2 40.8 L147.7 38.7 L150.1 40.7 L149.4 41 L149.6 42.5 L151.2 42.1 L150.2 41.4 L150.6 40.7 L152.6 40.8 L153.2 41.9 L153.9 42.1 L154.8 42.3 L156.8 41.3 L156.6 42.6 L156.5 42.8 L155.3 42.8 L154 44.6 L155.1 46.4 L157.6 44.7 L159.4 45 L160.3 46.1 L160.6 44.4 L162.4 43.1 L163.8 43.3 L166 41.9 L165.6 41.3 L165.9 41 L173.8 38 L172.6 40.7 L171 40.5 L171.8 42.1 L179.1 47.6 L190.8 67.9 L190.6 67.2 L192.9 66.3 L192.8 64.4 L194.1 63.5 L196.8 64.4 L196.2 66.3 L198.1 66.3 L198.4 68.1 L203.9 68.2 L205.2 66.7 L209 66 L211.7 67.5 L213.4 71.9 L217.4 73.4 L217.2 74.7 L218.7 77.2 L220.7 77 L223.8 78.3 L226.9 75.7 L226.1 77.4 L230 81.3 Z M101.1 109.7 L103.5 108.5 L104.2 106 L103.1 103.8 L100.7 103 L98.6 104.2 L97.9 106.7 L98.8 108.7 L101.1 109.7 Z"/>
  </g>
</svg>
