<svg xmlns="http://www.w3.org/2000/svg" viewBox="0 0 240 180">
  <g fill="#17324a" stroke="#fffaf3" stroke-width="3.2" stroke-linejoin="round" stroke-linecap="round">
  <path d="M84 16.8 L84.6 15.8 L85.2 15.8 L85.3 16.8 L86.5 16.8 L87.6 16.8 L87.9 18.6 L89.6 19.7 L103.8 20.1 L123.5 33.4 L128.3 33.6 L130.2 32.7 L136.6 35 L143.5 35.3 L146.6 36.8 L150.6 32.6 L152.3 29.2 L167.4 22.3 L174 27.9 L185.9 27.4 L176.9 40.1 L170.7 46.5 L171 107.3 L179.9 118.8 L180.1 120.9 L176 125.4 L174.9 124.6 L174.4 125.7 L173.1 125.5 L171.5 126.6 L171.4 124.3 L170.4 127.1 L169 125.3 L169.8 129 L171 129.9 L170.4 131 L169 129.7 L167.6 130.5 L168.3 132.4 L165.5 134.8 L161.2 135.1 L158.6 136.9 L157.5 141.3 L158.7 142.1 L157.5 143.5 L156.8 146.8 L154.3 148.6 L154.3 147.6 L152.6 152.5 L151.2 151.7 L152.7 153.3 L152.6 153.8 L151.3 157.5 L150.9 157.9 L150.4 158 L149.7 157.3 L150.6 158.3 L149.9 159.6 L148.3 158.3 L148.7 159.3 L147.6 159.4 L147.7 160.2 L147.9 159.8 L148.5 159.8 L149.3 160.7 L144.9 169.2 L143.3 168.6 L141.5 170 L118.1 153.2 L117 151 L115.2 150.8 L114.9 149.3 L116.9 147.5 L116 143.1 L55.9 109.4 L54.3 109.4 L55.2 95.5 L54.2 91.1 L57.2 87.4 L58.4 83 L62.3 79.5 L64.3 74.7 L69.1 72.6 L68.8 70 L72 65.6 L72.5 61.5 L70.2 54.2 L71.1 52.5 L70.4 50.2 L69.4 50.1 L68.1 46 L66.3 45.6 L64.7 41.5 L63.1 40.5 L62.2 35.6 L63.1 34.8 L63.2 32.5 L61.5 31.4 L60.5 31.8 L59.9 30.5 L58.4 30.7 L59.3 29 L57.3 29 L57.1 25.5 L55.5 23.4 L62.2 16.8 L79.2 10 L79.6 10.4 L78.9 11.7 L80.6 11.7 L81.8 12.1 L81 14.1 L81.7 15.3 L82.5 16.8 L84 16.8 Z"/>
  </g>
</svg>
