<svg xmlns="http://www.w3.org/2000/svg" viewBox="0 0 240 180">
  <g fill="#17324a" stroke="#fffaf3" stroke-width="3.2" stroke-linejoin="round" stroke-linecap="round">
  <path d="M161.5 20.7 L163.9 25.9 L164.6 34.3 L165.7 37.7 L168.1 42.6 L170.8 46.3 L173.2 46.2 L174.7 50.8 L176.8 55.4 L180.5 60.8 L182.3 64.8 L181.9 66.9 L179.9 67.2 L173.8 63.5 L168.3 62.5 L163.1 63.4 L148.9 74.5 L147 77.6 L145.1 80.1 L141 82 L140.6 83.6 L139.8 85.1 L147.6 84.2 L149.5 83.4 L151.6 82.7 L152.9 83.4 L150.3 85.1 L150.3 86.4 L149.8 87.8 L151.9 89.3 L153.5 89.3 L155.2 88.7 L157.1 88 L157.7 85.6 L159 85 L160.7 85.5 L164.9 82 L168.4 86 L169.3 86.3 L171.8 87.2 L175.1 86.5 L174.6 95.9 L178.1 106.6 L180.3 120.5 L181.8 124 L186.3 130.7 L187.6 131.9 L191 133.1 L190.8 138.7 L195.4 146.8 L197.5 147.7 L201.2 148.5 L200.4 150.1 L200 151.9 L200.1 153.8 L200.6 155.5 L199.3 154.6 L198.8 154.1 L198.7 154.9 L198.8 155.5 L199.2 155.8 L200 156.3 L199.3 157.2 L198.9 157.4 L197.6 156.9 L197.5 159.1 L198.3 159.6 L199.5 158.9 L200.6 157.7 L201.5 164.9 L204.7 169.3 L136.5 170 L135.8 167.3 L130.2 162.3 L128.8 160 L127.6 157 L126.8 153.8 L126.4 148.3 L126 145.8 L121.1 132.1 L115.7 122.8 L35.3 112.5 L37.9 109.6 L51.3 94.5 L56.9 85.1 L62.6 78.8 L63.9 76.8 L66.5 69.9 L73.2 58.9 L75 55 L76 49.4 L79.2 43.3 L86.8 24 L89.9 19.7 L94.5 16.5 L108.9 10.6 L114 10 L137.1 10 L142.2 11 L161.5 20.7 Z"/>
  <path d="M197.6 49.7 L195.9 52.8 L193.2 56.3 L189.9 59.3 L186.5 61 L186 60.9 L182.7 60.5 L180.5 57.9 L177.4 50.5 L173.7 43.8 L170.2 40.4 L176.2 36.5 L176.8 33 L173.7 32.3 L173.7 32.3 L174.6 30.8 L180.3 32.4 L181 31.7 L180.5 30.1 L182.1 29.4 L183.4 28.6 L183.7 27.7 L182.3 26.7 L179.3 26.7 L178.6 23.1 L176.5 22.7 L176.9 21.9 L178 21.1 L179.3 20.6 L180.6 20.5 L181.8 20.9 L183 21.7 L196.8 41.5 L198.2 45.2 L197.6 49.7 Z"/>
  <path d="M196.3 75 L200.8 78.9 L201.7 81.6 L201.6 82.7 L194.4 78.6 L192 78.3 L190.1 78.4 L190.2 75.7 L190.2 75.7 L191.2 74.1 L192.7 73.9 L196.3 75 Z"/>
  </g>
</svg>
