<svg xmlns="http://www.w3.org/2000/svg" viewBox="0 0 240 180">
  <g fill="#17324a" stroke="#fffaf3" stroke-width="3.2" stroke-linejoin="round" stroke-linecap="round">
  <path d="M229.1 64.4 L230 67.2 L230 67.7 L229.5 68.6 L221.7 69.4 L219.8 72.7 L217.1 73 L212.7 75.5 L210.6 75.2 L192.5 85.7 L191.7 86.9 L192.1 87.9 L192.2 88.4 L186.1 95.1 L181.6 94.3 L178 96.1 L175.1 96.5 L165.2 94.8 L163 95.3 L162.3 95.6 L160.4 97.4 L160.3 100 L158 102.2 L157.5 106.3 L154.6 110.9 L151.7 113.3 L150 110.8 L148.1 112.7 L146.1 112.1 L144.3 113 L143.1 114.6 L138.7 114.8 L137.9 112.8 L138.4 110.6 L136.3 105.7 L129 110.8 L127.9 110.2 L125.9 110.8 L121.9 108.9 L120.9 111.3 L122.4 113.8 L119.3 113.7 L111.9 120 L108.5 119.7 L104.7 121.3 L101.7 127.6 L103.7 133.3 L101.6 136.6 L92.6 137.2 L91.8 138.6 L90.6 138.9 L88.6 139.6 L75.7 139 L71.6 140.3 L69.9 144 L69.4 142.6 L67.2 141.7 L66.3 139.2 L61.5 141.8 L60 141.5 L60.1 137.1 L55.6 136.8 L55.9 133.9 L54.5 132.8 L50.3 135.4 L47.3 135.4 L45.6 138.2 L43.4 137.9 L40.8 138.9 L40.2 138.8 L39.7 138.4 L39.4 136.5 L37.4 133.7 L34.9 133.1 L30.2 135.2 L29.9 135.2 L29.5 135.1 L29.4 132.6 L28.4 134.3 L26.2 133.8 L25 134.8 L18.8 133.7 L15.4 134.9 L12.5 134.4 L11.5 135.3 L11.2 134.7 L10.3 127 L11.7 122.8 L13.6 125.2 L15.5 124.6 L14.7 121.8 L15.8 119.2 L16.6 119.8 L25.5 117 L28.4 118.9 L35.9 121.6 L34.4 124.2 L34.9 125.1 L37.7 123.1 L38.7 119.7 L41.2 118.2 L44 118 L45.3 115.4 L49.4 115.5 L50.4 113.9 L55.8 117.1 L56.7 117.3 L57.2 117.2 L57.9 115.6 L59.2 118.8 L62.1 115.9 L65.7 116.1 L64.5 114.1 L68.6 110.4 L70.4 110.3 L69.5 111.2 L73.2 112.2 L73.8 110.3 L72.7 109.2 L72.3 106.5 L77.8 109 L78.6 107.2 L80.2 107.2 L80.5 105.5 L81 104.7 L88.2 100.9 L85.3 99.4 L83.9 100.1 L82.9 100.8 L82.6 99.6 L78.4 99.5 L75 96.8 L74.9 95.7 L73.2 95.4 L71.9 94 L71.1 95.4 L68.6 96 L68.5 91 L66 91.8 L64.9 90.8 L63.3 91.1 L62.8 90.8 L62.3 86.9 L60.1 83.9 L58.8 84.7 L58.8 81.5 L57.2 82.9 L58.1 84.5 L57.1 87.4 L56.5 88 L55.8 88.1 L53.7 86.8 L53.7 92.6 L53.2 93 L51.9 91.8 L50.9 93 L49.5 91 L49 93.1 L45.9 90.9 L43.7 90.9 L42 89.4 L40.8 89.7 L40.8 86.6 L39.1 83.7 L34.5 85.2 L33.1 83.3 L28.8 82.2 L28.4 81.3 L28.8 80.6 L34.5 77.1 L38.4 72.4 L41.7 71.6 L42.3 68.7 L44.9 68.3 L50.1 65.2 L50.4 64.2 L46.9 62 L46.3 61.7 L45.7 61.8 L44.8 62.5 L44.3 62.9 L42.4 61.3 L44.2 59.2 L44.9 56.8 L46.7 57 L45.4 54.5 L46.2 54.1 L47.9 53.8 L48.5 51.2 L50.6 49.5 L52.3 49.8 L53.4 48.4 L56.7 49.4 L62.3 47.3 L67.4 49.6 L71.1 49.3 L72.5 49.8 L74.8 51.4 L79.8 52.2 L83.4 55.2 L84.1 55.2 L86.7 54.8 L90.8 55.8 L91.8 58.1 L95.3 58.8 L93.4 53.8 L96.6 42.1 L103.2 39.5 L103.9 37.7 L104.5 37.2 L106 38.1 L109.1 37.8 L108.8 36 L116 39.7 L119.4 42.9 L129.2 47.1 L138 48.1 L139.7 47 L141 44.6 L150.2 45 L153.3 46 L154.7 45.1 L158.8 45.3 L164.2 43.3 L171.6 45.7 L173.4 45 L176.2 45.9 L179.3 45.4 L181.2 46.4 L183.1 45.8 L185.6 46.8 L194.9 46.2 L198.3 48 L204.8 49.4 L208.4 48.6 L209 52.1 L212 54.2 L212.9 56.3 L213.4 57 L223.2 58.2 L229.1 64.4 Z M61 122.8 L58.8 124.5 L60.5 125.1 L61 122.8 Z M48.9 121.4 L46.9 120.4 L46 118.6 L45.5 118.3 L44.9 118.7 L44.5 120.8 L46.3 122.7 L45.8 125.7 L46.6 125 L47.3 125.8 L49.5 125.4 L48.9 122.7 L50.2 121.3 L48.9 121.4 Z M35.4 125.6 L35.2 126.5 L37 128.7 L39.5 127.2 L39.5 126.7 L39.4 126.2 L35.4 125.6 Z"/>
  </g>
</svg>
