<svg xmlns="http://www.w3.org/2000/svg" viewBox="0 0 240 180">
  <g fill="#17324a" stroke="#fffaf3" stroke-width="3.2" stroke-linejoin="round" stroke-linecap="round">
  <path d="M88.8 11.8 L89.4 13.6 L93.8 17.2 L95.2 20 L97.2 21.1 L98.3 25.7 L100.4 24.7 L101 22.3 L101.7 24.8 L103.5 24.2 L104 27.1 L101.7 30 L102.9 29.5 L102.2 32.2 L100.9 33.1 L102.4 33.7 L103.5 36.6 L104.7 37.1 L106.8 40.7 L110.7 41.9 L112 41.2 L116.5 44.3 L118.3 40.8 L123.7 38.6 L127.1 39.9 L129 42.2 L133 44.5 L131.7 46.6 L130 46.6 L128.5 48.3 L132.3 48.8 L134.2 50.2 L133.8 52.6 L136.6 52.4 L138.2 53.3 L139.2 55.1 L138.9 56.7 L135.9 58.3 L135.6 58.7 L135.5 59 L136.6 59.4 L136.4 60.4 L133.9 61.9 L133 63.9 L131.1 63.9 L128.8 62.4 L127.3 63 L126.2 62 L124 63 L122.1 62.5 L123.7 66.2 L119.4 69.6 L124.7 71.8 L125.8 73.3 L130.6 75.6 L134.7 79 L141.8 80.8 L142.8 82.4 L141.8 83 L141.2 85.4 L142.6 87.9 L145 89.1 L145.5 90.7 L148.2 90.6 L152.6 99.9 L160.8 107.7 L162.6 107.2 L164.8 112.6 L167 113 L167 113.4 L167 118.4 L168.9 120.2 L169.4 122.8 L170.7 123.3 L172.5 121.2 L172.7 123.4 L174.5 125.4 L177.2 126.1 L177.6 127.6 L180.5 129.9 L183 129.8 L182.2 132.3 L178.6 133.8 L178.4 134 L177.9 135 L181.8 140.5 L183.9 140.8 L184 141.9 L185.4 142.1 L187 144.8 L185.7 148.7 L183.1 149.3 L185.1 152.1 L183.9 153.4 L184.5 155.3 L182.6 158.3 L180.3 157.3 L177.6 160.5 L177 160.8 L176.6 161 L175.7 160.3 L174.3 162.4 L172.3 162.7 L167.3 159 L166.6 157.4 L164.5 159.9 L161.6 159.3 L160.9 161.4 L157 161.8 L160.2 167.4 L158.8 170 L155.8 169.9 L153 166.8 L149.3 165.4 L146.8 166.5 L144.7 165.4 L143.1 162 L147.2 160.4 L148.8 157.9 L148.5 153.8 L150.3 149.9 L147.7 147.3 L149.8 144.7 L149.8 143.8 L148.3 143.2 L150.5 141.6 L151.2 137.1 L147.1 134.9 L146.2 132 L147.3 130.9 L141.2 129.2 L140 125.8 L135.5 121.3 L135.2 112.4 L135.3 112 L136.5 109.3 L136.6 105.5 L134.6 102.7 L130.1 100.1 L128.4 97.2 L127 96.4 L121.7 87.7 L119.9 88.6 L114.1 86.1 L109.8 85.9 L108.5 87.2 L109.6 88.5 L107.2 89.4 L105.1 94 L103.6 93.6 L101.5 94.5 L98.6 96.3 L98.8 97.4 L97.2 96.8 L97.3 94.7 L94.6 94.3 L92.1 92.9 L89.7 90.1 L88.1 89.8 L85 93.1 L82.7 92.7 L81.9 95.5 L79.2 96.3 L77.3 99.1 L77.1 98.5 L75.8 98.9 L71.5 103.8 L67 101.8 L69.1 95.8 L71.9 92.8 L71.2 89.3 L71.7 87.8 L69.5 85.9 L73.1 81.6 L72.9 77.9 L74.8 74.8 L73.1 72.8 L72 68.2 L73.5 65 L72.7 64.2 L71.2 64.7 L66.8 63.7 L64.6 66.2 L62.5 65.1 L61 66 L59.4 65.2 L58 61.3 L59.7 59.1 L61 53.6 L59.4 53 L57.4 49.3 L55.5 49.6 L54 52.1 L53.1 51.6 L53 49.8 L54.3 44.9 L56.1 42.3 L57.7 41.1 L60.8 41.5 L62.8 40.2 L60.4 39.6 L60.9 37.4 L62.3 36.9 L62.6 36.6 L63.5 34.9 L64 32.2 L66.5 31.9 L71.8 27.6 L73.3 34.3 L78.5 33.4 L79.5 34.7 L82.6 35.1 L82.4 34.2 L83.6 33.5 L81.6 31.6 L82 27.3 L83.3 26.6 L81.9 24.5 L82.3 22.7 L79.7 19.9 L78.1 14.7 L79.6 14.1 L81.6 10.1 L82.9 10.4 L84.3 12.2 L86.2 10.9 L88.8 11.8 Z"/>
  </g>
</svg>
