<svg xmlns="http://www.w3.org/2000/svg" viewBox="0 0 240 180">
  <g fill="#17324a" stroke="#fffaf3" stroke-width="3.2" stroke-linejoin="round" stroke-linecap="round">
  <path d="M59.2 166.7 L59.3 164.4 L62.7 161.7 L64.3 158.8 L63.8 158.1 L64.9 158.8 L67.3 153.4 L67.7 150.5 L66 148 L67.7 146.7 L69 144.9 L70.5 140.6 L71 135.3 L72.5 133 L73 131.8 L72.7 130.6 L77 127.3 L79.1 125.1 L83.3 112.4 L82.8 111.7 L84 110.6 L85 106.6 L86.4 105.7 L89.8 94.7 L90 90.6 L90 89.9 L89 87 L89.4 86.2 L90.3 85.9 L92.8 87 L97.2 86.2 L100.6 78.1 L102.8 77.5 L101.7 75.5 L101.7 73.1 L103 68.8 L103.4 65.7 L101.7 61 L101.7 57.7 L103.4 55.6 L103.4 52.5 L103.8 49.5 L104.8 46.9 L106.7 45.2 L108.1 46.4 L111.8 39.2 L116.3 36.7 L117.7 34.8 L116.2 32.4 L116.2 31.8 L117.7 32.2 L124.2 30.5 L130.7 24.6 L131 16.5 L130.5 14.8 L129.6 13.7 L135.1 15.8 L144.7 15.9 L146.6 15.1 L148.4 16.2 L153.4 15.9 L154.2 15.5 L154.9 14.7 L155.5 11.2 L157.2 10 L162 15.7 L163.9 16.4 L165.9 16.3 L167.9 15.7 L167.6 18.8 L167 19.3 L166.1 18.6 L164.9 18.2 L163.7 19 L163.3 23.1 L158.1 27 L158.9 28.5 L159.1 29 L167.3 28.9 L168.7 31.9 L174.8 35.9 L175.3 36.8 L174.3 42.7 L174.7 43.5 L176.4 46 L179.4 48 L177.9 51.6 L178.3 53.5 L178.8 54.9 L181.2 57.9 L178.9 60.4 L177.1 63.6 L173.4 66.7 L171.8 68.7 L170.7 72.2 L169.4 72.8 L168.3 72.9 L166.5 72.2 L165.6 72.1 L163.9 73 L155.5 82.7 L153.8 86.2 L157.4 90 L160.6 90.5 L162 91.4 L162.1 93.4 L161.2 94.7 L159.6 94.9 L156.5 94.2 L152.3 92.1 L150.9 91.9 L147.2 94.1 L145.5 94.1 L143.3 92.1 L136.2 95.4 L127.9 105.9 L127.8 109.5 L126 110.6 L125.7 112.7 L133.1 115.8 L134.5 116.9 L135.2 118 L134.9 119.8 L133.7 121.3 L132 122.4 L126.6 123.7 L125.7 125 L126.8 127 L125.5 130.1 L117.5 135.6 L113.3 141.9 L107.5 143.8 L104.4 147.1 L103.7 148.3 L102 148.5 L101.1 149 L99.8 151.9 L96.3 147.8 L95.4 147.9 L93 153.7 L92.8 158.5 L92.4 161 L89.7 166.9 L78.8 170 L77.7 169.8 L73.7 165.5 L67.5 166.2 L65.7 167.2 L59.2 166.7 Z"/>
  </g>
</svg>
