<svg xmlns="http://www.w3.org/2000/svg" viewBox="0 0 240 180">
  <g fill="#17324a" stroke="#fffaf3" stroke-width="3.2" stroke-linejoin="round" stroke-linecap="round">
  <path d="M60.1 10 L68.9 14.1 L72.9 14.5 L79.5 13.2 L81.8 14.4 L88.1 15.4 L91 17.7 L98.4 19.1 L100.6 22 L100.5 24.2 L102.1 28.2 L104.7 31 L107.7 32.3 L121.6 34.5 L130 38 L135 42.3 L139.2 44.1 L145.1 42.3 L150.2 36.3 L150.7 33 L148.2 26.6 L149.9 21.7 L155 17.3 L160.1 14.8 L163.9 14.5 L164.4 14.3 L166 12.9 L171.6 12.7 L181.7 16.3 L182.1 18.2 L181.4 19.9 L183.8 21.9 L183.8 21.7 L183.7 21.2 L187.6 21.7 L189.4 22.1 L191 22.7 L191.7 23.7 L198.7 23.4 L201.7 24.4 L203.1 27.8 L199.9 31.4 L201.4 38.4 L198.2 45.1 L201.3 56.8 L201.3 164.2 L190.8 164.2 L190.8 170 L107 123.8 L88.5 133.5 L80.8 126.9 L65 123 L60.5 113.9 L51.7 110.8 L48.6 111.8 L46.9 110.4 L46.4 108.6 L44.8 107.6 L44.7 107.3 L44.4 101.8 L37.8 92 L38.9 89.8 L42.6 88.1 L42.8 87.8 L43.4 83.9 L42.5 83.2 L41.4 78.7 L43.7 72.1 L42.1 68.1 L42 67.4 L42.5 57.4 L41.7 54.6 L40.9 51.8 L36.9 45.8 L43 43 L47 37.4 L45.4 30.5 L47.1 27.5 L49.6 26.8 L50.9 24.1 L52.4 23.8 L53.5 22.2 L60.7 18.4 L59.5 16.4 L60.1 10 Z"/>
  </g>
</svg>
