<svg xmlns="http://www.w3.org/2000/svg" viewBox="0 0 240 180">
  <g fill="#17324a" stroke="#fffaf3" stroke-width="3.2" stroke-linejoin="round" stroke-linecap="round">
  <path d="M91.1 108.8 L93.5 104.2 L92.3 101.8 L93.6 98.4 L90.8 93.7 L91.1 90.4 L88.8 86 L88.6 78.1 L87.4 75.7 L93 65.7 L93.2 59.8 L97.7 60.2 L102.3 56.6 L102.8 58.9 L103.9 58 L103.5 57.2 L105.7 56.9 L106.1 58.1 L106.7 55.2 L109.6 54.8 L111.2 55.9 L111.2 54.9 L110.5 55.4 L111.8 54.1 L113 54.1 L112.7 55.4 L114.1 57.3 L114.7 56.4 L115.6 57 L115.4 56.1 L113.7 55.4 L114.1 53.2 L121 48.1 L122.3 49.6 L121.1 52.3 L124.1 50.9 L122.1 48.1 L125.5 44.7 L125.6 44 L124.7 44 L126.6 41.8 L127.3 43.7 L126.2 45.4 L126.3 47.1 L130.4 40.7 L131.7 42.4 L132.3 41.4 L132.8 42.7 L132.8 41.5 L130.4 40.5 L129.9 41.1 L129.3 39.4 L130.3 36.7 L132 36.8 L131.7 35.1 L132.8 35.7 L132.3 37.8 L133 37.2 L133.2 35.4 L132 34.1 L132.8 33.7 L132.8 33.5 L131.2 31.6 L131.5 29.4 L132.4 28.3 L132.8 29.2 L133.4 28.4 L135.6 31.8 L136.4 31.2 L136.3 28.8 L138.5 28.5 L138 26.6 L139.2 27.6 L141.3 26.9 L143.2 20.2 L142.4 17.1 L140.7 15.8 L141.7 15.4 L143.1 16.3 L143.4 14.7 L145.9 12.4 L144.7 11.8 L145.5 11.3 L146.2 11.9 L145.7 11.2 L146.8 10 L147.8 13 L146.6 12.3 L146.3 13.3 L147.6 14.2 L147.9 13.3 L148.8 15 L149.4 14.7 L151 20.1 L152 19.4 L154.2 22.8 L154.1 24.8 L156.4 31.6 L157.1 42.9 L160.1 48.1 L160.2 51 L158.6 55.2 L156.7 57.4 L154.5 54.4 L153.6 50.7 L151.7 51 L151.4 51.3 L150.8 52.2 L151.8 56.3 L151.3 58.2 L153.1 60 L153.3 62.6 L151.7 66.4 L153 67.2 L150.3 68.2 L148.5 72.6 L149.4 77.8 L148.6 82.8 L141.4 104.3 L140.9 104 L141.3 104.8 L136.6 120.3 L131.5 133.5 L129.7 142.5 L127.9 146.6 L127.8 149.5 L125.1 154.4 L125.3 155.1 L125 157 L122.9 162.2 L122.7 161.6 L122.5 162.6 L119 164.8 L113.1 165.3 L105.6 169.5 L101.3 170 L97.5 167 L92.1 165.9 L91.5 164.8 L92.7 165.2 L88.4 162.7 L87.2 158.3 L84.6 155.2 L84.2 147.4 L85.6 145 L84.1 143.6 L83.6 140.4 L81.1 137.7 L79.6 130.6 L80.5 130.4 L80.3 126.5 L80.6 127 L81 124.9 L82.4 124 L82.8 119.7 L85.9 119.1 L87.1 114.7 L91.1 108.8 Z"/>
  </g>
</svg>
