<svg xmlns="http://www.w3.org/2000/svg" viewBox="0 0 240 180">
  <g fill="#17324a" stroke="#fffaf3" stroke-width="3.2" stroke-linejoin="round" stroke-linecap="round">
  <path d="M182.5 78.8 L183.3 78.2 L185 78.9 L187.3 77 L187.8 75.3 L185.1 74.2 L185.2 73.2 L187.8 70.5 L187.8 71.8 L188 71.2 L190.6 71.3 L191.5 69 L192.9 68.1 L194 65.4 L193.4 65 L198.1 60.6 L201.3 54.4 L202.2 56.9 L201.3 59.5 L203.6 58 L204.2 55.5 L205.6 54.7 L206.8 55.5 L207.2 58.9 L209.1 60 L210 59.1 L210.3 60.1 L212.1 60.9 L212.2 63.2 L210.7 64 L211.6 66.4 L209.2 67.8 L212.7 67.3 L215.3 65.5 L216.8 67.8 L214.3 68.6 L214.9 69.9 L217 69.8 L217.3 68.5 L219.5 68.4 L222.1 69.9 L221.8 71.7 L222.8 70.5 L226.2 73.3 L229.2 72.7 L230 73.6 L229.9 75.5 L223.4 78.4 L221.1 78.6 L219.4 77.3 L216.9 79.1 L221.1 83.5 L222.2 83.3 L222.7 84.3 L221.6 85.2 L219.4 85.1 L215.1 86.6 L211.4 84.4 L211 87.3 L210.3 87.5 L206.3 85.2 L199 85.5 L198.5 84.7 L198.3 84.7 L196.9 86 L195.9 84.9 L193.8 84.9 L192.6 86.2 L190.6 84.8 L187 90.2 L187.8 95.9 L186.8 96.7 L186.2 100.5 L184.4 101 L183.6 100.3 L181.6 102.7 L181.5 105.3 L183.2 106.5 L178.3 109.5 L178.9 113.5 L177.1 114.3 L175.8 118.7 L173.9 118 L171.5 119 L168.3 118.7 L165.1 121.2 L163.9 120.2 L157.4 119.1 L158.2 117.9 L157.6 117.3 L151.8 117.3 L148.2 118.8 L147.5 122.2 L145.4 122.5 L144.4 123.7 L142.1 123.5 L140.7 124.3 L137.2 123 L133.5 123.7 L132.3 125 L129.8 125.6 L126.4 123.9 L125.4 121.8 L124 121.4 L119.5 117 L119.4 115.1 L118 113.6 L119.3 111.4 L119.9 113.8 L122.6 115.9 L126.8 116.1 L127.2 114.6 L127.8 115.8 L129.3 115.3 L128.8 116.7 L131.8 117.5 L131.2 118.7 L133.1 117.3 L136.5 119.6 L139.3 119.8 L135.6 118.5 L135 117 L136 115.9 L138 116.6 L136 114.9 L137.3 111.5 L139.2 110.6 L137 110.7 L137.7 109.8 L137 109.4 L137.4 107.5 L140.6 108.3 L139.6 106.9 L140.9 106.7 L139.7 105.9 L140 104.3 L142.6 102.6 L158 99 L162.9 92.1 L168.8 86.1 L169.1 82.5 L171.8 83.4 L172.6 86.2 L174.2 86.3 L176.6 89.1 L177.1 88.8 L178.2 87.8 L179.1 84.7 L177.9 80.9 L180.3 79.9 L181 78.7 L182 84.8 L184.8 85.7 L182.5 78.8 Z"/>
  <path d="M32.4 63.3 L35.4 64.2 L37.5 67.7 L43.3 72.2 L48.2 80.1 L48.7 85.9 L46.9 91.9 L48.5 94.9 L48 101.3 L50.3 104.6 L52.4 105.6 L54 108.5 L57.1 115.6 L57.7 119.6 L55.8 119.6 L55.2 118.3 L56.2 117.6 L55.1 118 L54.1 116.4 L54.6 118.7 L51.2 118.6 L49.9 119.8 L49.3 119.4 L48.9 120.7 L47.2 117.6 L40.8 113.9 L39.8 114.1 L37.6 111.5 L33.3 109.6 L31.4 107.8 L30 107.8 L28.8 105.5 L23.3 102.5 L24.3 100.8 L23.3 97.5 L20.7 93.9 L17.9 91.8 L18.2 91 L16.6 90.5 L16.8 89.4 L18.5 89.1 L15.7 87.3 L15 85.6 L16 82.8 L15.3 82.5 L16.2 81.6 L15.5 81.6 L15.7 80.2 L13.6 78.7 L12.7 76.8 L13.5 75.6 L12.9 68.4 L12.5 66.1 L12.5 65.9 L10.1 61.9 L10.5 58.2 L11.8 58.3 L13 60.3 L15.6 61.1 L16.9 60.6 L18.1 63.5 L21 63.4 L20.9 67 L19.6 68.8 L21.4 70.5 L23.2 68.5 L26.4 67.3 L27.7 69 L29.2 69.3 L32.2 65.2 L32.4 63.3 Z"/>
  </g>
</svg>
