<svg xmlns="http://www.w3.org/2000/svg" viewBox="0 0 240 180">
  <g fill="#17324a" stroke="#fffaf3" stroke-width="3.2" stroke-linejoin="round" stroke-linecap="round">
  <path d="M133.7 55.2 L127.4 55.2 L126.7 55.3 L125.6 60.5 L121.5 67.2 L124.2 78.2 L125.3 91.4 L127.2 94.8 L131.7 95.3 L136.1 99.2 L151.2 118.4 L151.7 123.4 L152.5 123.6 L150.1 129.5 L151.3 134.5 L150.2 147.4 L144.7 150.1 L143.6 149.2 L141.9 149.5 L139.6 152.2 L139 156.3 L137 157.7 L140 161 L140.6 164.1 L139.8 166.1 L140.7 166.8 L140.5 169.4 L139.1 170 L135.7 169.5 L135.8 168.9 L135.1 167.9 L136.7 166.4 L136.8 163.8 L134.5 163.4 L132.5 161.9 L125.3 153.2 L122.9 152.2 L122 150.4 L122.4 147.8 L119 144.3 L119.3 142.3 L122.7 138.6 L122.5 135.9 L125.7 132.1 L125.3 127.1 L126 125.6 L124.4 117.2 L121 113.3 L116.5 114.4 L115.3 115.5 L113.2 115.2 L112.6 115.2 L110.3 116.3 L108.3 115.5 L107.2 117.7 L103 113.2 L100.1 108.5 L99.8 106.6 L97 103.8 L94.2 106.3 L93.6 104 L91.7 101.6 L89.5 100.7 L90.4 99.1 L87.5 97 L90.5 95.6 L94.1 89.1 L93.5 87.1 L94.5 83 L93 79.9 L94.9 76.4 L97 76.1 L97.7 76.8 L99.3 75 L101.3 75 L104.8 71.4 L103.4 70.6 L101.9 71.1 L101.2 70.8 L99.3 66.9 L100.5 59.3 L100.3 56 L100.2 55.7 L98.5 55 L98.8 52 L99.7 51.9 L102.1 46.8 L98.9 41 L100.6 39.6 L103.9 38.9 L107.8 34.7 L107.6 33.4 L105.4 31.1 L104.9 27.5 L100.3 24.1 L101.6 20.7 L101 19.1 L98.6 17.1 L98.1 14.8 L96.2 14.3 L95.8 15.8 L94 15.1 L94.1 12.5 L92.8 12 L92.9 10.2 L94.1 10.2 L97.7 12.7 L100.2 12.3 L103 15 L109 14.2 L112.5 16.9 L113.4 15.8 L113.2 13.5 L114.6 12 L120.7 17 L125.1 23.7 L126.1 28.8 L125.9 33.6 L127.9 38.3 L126.2 43.7 L126.6 45.5 L128.5 47.4 L129.5 50.4 L132.1 51.1 L133.7 55.2 Z"/>
  </g>
</svg>
