<svg xmlns="http://www.w3.org/2000/svg" viewBox="0 0 240 180">
  <g fill="#17324a" stroke="#fffaf3" stroke-width="3.2" stroke-linejoin="round" stroke-linecap="round">
  <path d="M35.3 120.1 L37.3 120.5 L39.8 118.8 L39.4 117.1 L40.8 111.8 L41.7 112 L42.9 110.7 L49.1 116.5 L51.1 113 L60.2 113.7 L64.5 112.9 L64.2 111.3 L65.1 110.1 L65.2 112.3 L104.7 112.2 L106.3 103.5 L103.4 100.8 L93.5 10 L111.7 10 L173 51.9 L173 55.7 L177.9 57.9 L178.2 59.4 L180.6 61.3 L183.6 60.8 L185.9 63.2 L194.1 65.7 L194.7 70.4 L193.1 73.1 L195.2 74.8 L204.6 73 L204.2 102.4 L202.9 103.7 L201 110 L197.4 112.3 L197.3 112.6 L197.2 113.8 L192.2 113.1 L192 114 L174.9 114.6 L171 117.9 L168.2 118.3 L163.5 117.7 L163.5 118.6 L158.8 116.9 L156.8 117.6 L156.7 117.5 L156.5 116.8 L153.8 116.8 L150.5 119.6 L143.8 123.1 L140.7 123.4 L140.3 126.5 L135.9 125.4 L135.4 125.5 L134.5 126 L131.8 128.4 L131.5 132.2 L129.7 132.7 L127.5 131.7 L127.9 136 L125.8 136.3 L125.8 137.4 L120.4 135 L121 134.3 L120.3 133.8 L116.5 137.9 L118 141.3 L117.3 142.3 L115.2 142.2 L116.2 144.2 L115.5 145.3 L115.9 146.2 L116 146.7 L115.2 146.4 L114.4 148.4 L112.3 149.9 L109 150.2 L105.6 151.8 L107 152.8 L107.6 156.3 L106.6 159.3 L104.7 160 L105.4 162.4 L104.6 166.8 L101.6 167.1 L99.4 169.5 L97.1 168.8 L97.8 167 L96.7 163.7 L95.2 164.1 L95 165.6 L92.7 164.5 L92.7 167.7 L89.7 167.8 L89.2 170 L85.6 168.8 L84.3 166.6 L82.5 166.8 L80.6 169.4 L79.2 169.8 L79.3 168.2 L76 165.7 L75.9 160.7 L73.9 160.2 L71.9 161.1 L75.2 156.8 L72.3 155.4 L71.8 153.8 L70.4 153.7 L70.7 149.8 L69.6 149.5 L69.1 146 L66.9 144.8 L64.7 144.9 L65.6 146.1 L65.3 147.1 L62.4 148.1 L61.4 149.7 L55.8 147.6 L53.3 148.7 L51.8 151.1 L48.8 147.6 L47.7 147.8 L46.3 149.8 L44.8 149.7 L43.1 147.9 L44.3 145.8 L43.5 144.1 L44.3 139.5 L42.8 138 L42 135.3 L40.7 134.8 L39.6 135.8 L37 131.6 L38.4 130.3 L38 126.6 L35.7 124.2 L36.3 121.5 L35.3 120.1 Z"/>
  </g>
</svg>
