<svg xmlns="http://www.w3.org/2000/svg" viewBox="0 0 240 180">
  <g fill="#17324a" stroke="#fffaf3" stroke-width="3.2" stroke-linejoin="round" stroke-linecap="round">
  <path d="M154.7 71.5 L151 83 L150.5 88.6 L149.8 88.7 L150.2 89.8 L150.5 89.1 L150.3 96.2 L149.3 98.2 L150.2 102.1 L153.4 106.3 L152.7 108.6 L152.3 107.3 L153 106.4 L150.1 102.3 L154.6 113.6 L159.7 119.7 L160.9 124.1 L164.8 128.2 L163.4 127.6 L164 128.8 L166 129.2 L164.9 128.2 L168.8 128.9 L171.7 130.4 L174.1 133.4 L178.9 132.4 L180.7 131.1 L183.6 131 L183.8 131.8 L183.8 131 L186.7 129.8 L187.1 131.1 L186.9 129.6 L191.5 128.9 L192.9 129.5 L191.5 130.2 L192.7 130.5 L192.6 129.9 L193.1 131.3 L193.4 130.6 L195.7 131 L195.5 130.4 L197.8 129.3 L197 129.5 L197.1 128.4 L196.2 128.1 L197.4 126.9 L195.5 128 L201 123.9 L201.3 121 L203.1 118.7 L202.9 114.5 L204 111 L203.2 112.4 L204.8 110 L208 108.5 L219.9 105.9 L226.3 107.3 L227.2 106.4 L225.2 106.8 L225.5 106.2 L227.8 106 L229.4 107.4 L230 109.6 L225 116.9 L224.7 120.4 L224.6 119 L223.4 121.5 L222.7 121.4 L223.2 122.6 L224.9 121.6 L225.1 122.2 L223.2 124.1 L223.2 124.8 L224.8 124.1 L222 132.9 L221.4 131 L220.3 130.6 L220.6 127.6 L219.1 128.9 L219.8 129 L218.7 130.7 L217.1 130.8 L214.6 135.4 L213.3 134.5 L212.5 136 L199.2 136.1 L199.2 138.2 L199.2 140.4 L196 140.5 L201.1 144.4 L201.8 146.5 L203.6 147.1 L203.3 149.5 L193.8 149.8 L190.4 155.9 L191.4 157.6 L190.3 161.8 L186.4 156.8 L177.9 150.2 L178.2 149.6 L174.6 147.9 L174.9 149 L177.7 150.3 L172.4 148.8 L173.2 147.6 L171.7 148.3 L171.4 146.9 L169.7 148.2 L171.4 148 L170.7 148.4 L171.9 148.7 L168.5 149 L167.1 150.5 L161.2 152.8 L158.9 153 L154.2 150.9 L150.1 150.5 L147.8 148.6 L144.6 147.9 L142.9 145.9 L136.4 144.8 L135 143.5 L126.3 140.3 L119.6 134.7 L118.1 135.2 L108.7 131.9 L105.2 127.6 L97.8 123.9 L92.7 115.5 L96.1 113.9 L95.3 112.7 L93.8 112.6 L96.1 110.3 L96.5 107.3 L94.5 105.8 L93.2 103.2 L92.6 98.7 L87.4 93.5 L83.1 87.2 L77.6 83.2 L79.7 84.4 L79.6 83 L78.7 83.4 L76 81.8 L76.2 79.5 L75.7 79.2 L75.4 80.6 L73.7 78.4 L75.1 79.4 L75.1 78.7 L76.1 79 L76 78.9 L75.3 78.2 L73.5 77.8 L73.5 77 L73.3 77.9 L73.2 78 L72.8 77 L70.5 76.2 L70.5 74.9 L69.6 74.7 L69.4 75.5 L68 74.9 L69 74.9 L70 72.8 L68.4 74.5 L67 73.7 L67.7 74.8 L65.9 74.1 L66.8 73.6 L66.1 73.1 L65.9 73.8 L65.7 71.1 L67.3 68.5 L68 69.6 L68.2 69 L67 68.6 L65.6 65.6 L63.8 65.9 L62.8 65.2 L61.8 62.5 L57.8 61.1 L58.5 61 L57.3 59.8 L57.1 56.9 L57.9 56.5 L55.4 56.2 L55.5 55.5 L55.2 56.7 L54.4 55.7 L53.6 56 L51.2 52.4 L49.2 51.8 L47.5 49.6 L48.1 49.1 L45.9 47.8 L45.4 45.1 L44.1 44.8 L44.4 43.7 L41.7 40.4 L41.7 38.2 L38.9 33.2 L39.5 30.5 L38.2 29.5 L35.4 29.2 L35.1 27.8 L32.8 26.5 L32.4 27.9 L31.1 27.7 L25.1 24.1 L27 26.6 L26.2 30.8 L27.5 32.3 L27.8 38.2 L29.9 41.5 L31.2 41.7 L35.3 45.3 L36 48.3 L37.1 48 L37.3 49.1 L38.3 48.9 L39.1 51.5 L41 52 L41.6 56.7 L44.6 59.1 L45.6 61.7 L47.5 62.6 L47 63.5 L48.2 66.2 L49.5 66.7 L48.4 65.6 L48.4 64.2 L50.3 65.8 L52.1 73 L54.2 75.1 L55 78 L56.6 80 L56.2 82.7 L57.2 85.1 L59.1 86.2 L59.1 84.6 L59.8 84.3 L61.8 86.8 L63 86.8 L63.9 89.9 L65.4 90.5 L65.3 93.8 L61.7 95.9 L59.4 90.7 L50 83.6 L49.7 82.6 L48.5 83.1 L47.1 80.2 L47.4 81.2 L46.9 80.4 L46.4 80.9 L46.4 79.1 L46.1 80.2 L45.9 79.5 L46.9 75.4 L45.7 71.3 L44.4 69.5 L39.8 66.9 L39 65 L38.2 65.3 L38.9 63.7 L37.9 65.3 L36.5 64.9 L35.5 65.7 L33.7 63.6 L29.5 62 L29 60.2 L25.1 57.4 L24.8 56.6 L29 57.2 L30.3 56.4 L31.9 58.6 L32.1 57.9 L33 58.2 L32.2 57 L32.3 57.7 L31.6 57.6 L31.4 55.8 L30.6 56.2 L31.7 54.8 L31.9 56 L32.4 55.2 L31.7 53.4 L32.3 51.7 L25.6 44.6 L20.3 41.6 L19.4 37.1 L17.8 35.9 L17.7 33.2 L15.7 32.1 L15.7 30 L12.7 25.8 L13.4 26 L13.7 25 L12 24 L10 19.6 L27.4 18.2 L26.7 19.9 L54.3 29.2 L74.5 29.2 L74.5 25.6 L87.7 25.9 L89 28 L98.3 34.8 L101.8 42.9 L109.6 47.4 L111.4 47.6 L113.3 45.7 L114.5 41.7 L116.6 41.4 L117.1 40.5 L123.8 41.4 L129.2 46.6 L132 53.3 L133.5 54.2 L136.2 58.2 L137.6 58.8 L137.9 62.9 L140.6 68 L142.7 68.3 L146.9 70.7 L150.9 71 L153 72.5 L154.7 71.5 Z"/>
  </g>
</svg>
