<svg xmlns="http://www.w3.org/2000/svg" viewBox="0 0 240 180">
  <g fill="#17324a" stroke="#fffaf3" stroke-width="3.2" stroke-linejoin="round" stroke-linecap="round">
  <path d="M208 60.3 L201.9 73.3 L201.9 76.2 L200 77.3 L200.5 79.7 L202.3 81.5 L202.7 81.7 L205 79.9 L208.9 79.8 L212.6 82.1 L215.4 78.6 L220.7 78.9 L228.6 87 L229.9 89.5 L229.8 91.8 L228.4 92.7 L224.2 92 L222.7 90.9 L221.9 91.8 L218.8 91.3 L215.6 93.4 L214 92.5 L212.8 92.9 L212.2 95.1 L208.8 94.7 L205.7 97.5 L204.3 101.6 L199.7 104.5 L193.3 104.7 L190.2 109 L186.9 111.2 L181 109.9 L178.8 107.9 L175.6 107.7 L174.1 108.9 L171.8 114.7 L175.5 120.4 L175.5 121.6 L168.9 125.4 L165 130.9 L158.8 134.1 L154 134.6 L149.8 134 L140.1 135.7 L129.4 141.1 L128.2 142.6 L127.9 142.7 L124.7 142 L124.6 141.9 L124.6 139.9 L119.1 141 L114.9 138.5 L107.8 136.7 L104.3 133.2 L94 131.8 L90.3 132.9 L74.7 130.7 L69 131.4 L68.7 129.5 L65.5 125.7 L63.2 118.8 L61.9 118.5 L62.3 115.7 L59.9 116 L59.6 116 L59 115.6 L57.8 115.2 L54.2 112 L52.3 111.9 L52 111.4 L50.9 109.8 L48.3 108.7 L40.7 108.5 L31.5 106.7 L29.9 103.6 L30.2 101.3 L32.3 98.4 L31.6 95.6 L32.6 93.3 L32.4 91.2 L28.7 85.5 L27.9 82.1 L26.3 81.3 L25.8 79.8 L24 80.4 L22.4 78.3 L19.2 78.7 L16.3 76.9 L15.1 74.6 L11.7 73.1 L12.2 71.5 L10 69.9 L10.9 68.9 L10.6 66.9 L12.8 65.9 L13 64.1 L19.7 63.6 L20.1 62.2 L21.2 62.8 L23.4 61.4 L23.2 59.3 L25.3 58.9 L25.8 57.7 L28.7 56.4 L30.2 56.4 L32.4 54.3 L35.2 54 L37.4 51.7 L40.8 51.4 L41.5 49.9 L43.6 51.8 L44.6 50.7 L45.7 50.8 L46.7 52.6 L54.5 52.9 L55.4 56.6 L57 58.4 L59.1 58.1 L63 59.7 L65.3 58.4 L66.1 59.2 L67.1 58.6 L68.9 59.7 L73.1 59.7 L74.4 61.1 L76 61.1 L77.2 59.4 L80.5 58.3 L80.9 57.9 L82 55.7 L82.2 53.4 L80.6 52.5 L80.1 50.1 L78.9 48.9 L79.6 45.6 L80.5 43.9 L81.7 43.8 L82.5 41.4 L84.9 40.4 L86.3 37.3 L93.3 41.1 L97.4 41.3 L103.1 44.1 L108.1 44.8 L108.9 45.5 L108.5 47.6 L109.6 52.9 L113.6 55.4 L115.8 55.6 L116.5 56.7 L122.1 57.1 L124 55.6 L130.3 53.8 L134.6 54.5 L136.4 55.7 L139.4 55.3 L143.3 58.6 L148.2 59.2 L148.1 61.9 L152.3 65.3 L157.4 65.2 L163.5 67 L164.9 66.2 L167.3 67.2 L171.4 64.9 L181.9 63.3 L186.4 58.6 L191.6 55.8 L194.8 56.2 L199.1 59.7 L201.3 59.8 L204.8 58.4 L208 60.3 Z"/>
  </g>
</svg>
