<svg xmlns="http://www.w3.org/2000/svg" viewBox="0 0 240 180">
  <g fill="#17324a" stroke="#fffaf3" stroke-width="3.2" stroke-linejoin="round" stroke-linecap="round">
  <path d="M57.7 116.8 L57.8 115.4 L57.5 114.3 L54.8 112.2 L54.1 111 L53.6 109.5 L53.6 103.3 L54.3 102.6 L55.1 102.3 L57.4 102.8 L57.1 100.4 L60.6 97.7 L61.4 93 L60.7 90.4 L55.7 83.5 L54.8 81.2 L54.1 79 L54.1 77.3 L56.1 74.7 L53.4 66 L54.7 62.3 L56.8 60.3 L60.7 59.4 L64.8 59.4 L67.6 59.8 L66.4 52.6 L66.3 50.1 L66.4 49.9 L66.9 47.1 L68.1 44.7 L71 40.5 L69.4 39.7 L70.4 38.2 L79.3 31.7 L81.1 31.1 L80.3 29.5 L81.5 28.9 L85.7 28.5 L87.3 29 L89.2 30.3 L89.7 31 L89.8 33.1 L92.1 36.5 L94.4 33.5 L97.5 32.6 L95.4 28.6 L93.3 22.9 L90.9 19.8 L90.5 19.4 L88.9 19.8 L89.3 17.9 L86.1 15.4 L86.1 14.6 L86.5 13.8 L91.1 10.2 L92.7 10 L95.3 13.5 L96.5 13.9 L97.9 13.8 L99.3 13.3 L101.2 11.1 L102.9 10.9 L106.2 11.4 L104.8 13.6 L104.9 16.3 L106 18.8 L107.8 20.4 L117.3 24.6 L118.5 25.4 L121.4 29.8 L125.5 34 L128.2 39 L134.1 45.1 L140.1 46.9 L142.1 46.1 L144.2 49.8 L145.4 51.4 L146.9 52.6 L148.5 53.2 L150.8 53.4 L153.1 53.2 L153.9 52.7 L155.6 51 L156.2 50.7 L157.1 51 L159.2 54.3 L163.4 57.2 L170.1 63.9 L177.5 65.7 L181.1 68.3 L185.4 70.5 L186.5 72 L186.6 74.3 L186 78 L180.3 78.9 L177.7 79.9 L177.1 80.3 L176.5 84 L174.7 86 L167.3 83.1 L163.8 85.9 L163.7 87.8 L164.5 89.3 L169.2 94.4 L168.3 96.9 L167.5 98.4 L167.3 103.2 L166.5 104.5 L164.7 103.4 L163.2 104.5 L160.7 107.9 L159 108.4 L155.6 108.3 L150.6 111.7 L148.2 111.9 L147.1 111.3 L144.8 109.5 L143.6 106.6 L143.3 105.7 L144.4 99.6 L143.8 97.1 L142.7 95.1 L141.1 94.3 L139.5 95 L135.8 99 L133.4 105.8 L130.7 108.1 L128.6 112.8 L121.2 121.3 L120.4 125.3 L113.8 135.8 L111.7 138 L111.5 139 L112.2 140.5 L118.5 146.2 L117 151.6 L117 153.4 L117.2 155.2 L118.4 157.3 L118 158.9 L116.7 159.7 L116.6 163.5 L118 166.5 L117.9 169 L118 170 L116.7 168.9 L114.2 166 L104.5 161.9 L103.8 159 L102.2 157.5 L102.3 152.1 L98.4 148.4 L97.8 147 L98.5 145.7 L96 142.8 L93.4 142.9 L90.4 138.3 L89.4 137.2 L86.6 135.1 L84.7 129.2 L83.7 128.7 L82.5 128.7 L81.5 129.1 L81 129.9 L80 128.6 L77.3 130.5 L72.9 125.4 L71.4 122.7 L71.4 122.1 L71.6 120.8 L70.4 119.6 L69 119.6 L68.6 121.5 L68.1 121.5 L65.8 121.2 L62.9 119 L63.4 118.3 L61.7 117 L61.1 116.1 L61.5 115 L62.3 114.7 L68 116.6 L68.8 116.9 L70.8 117.9 L71.9 119 L72.4 117.5 L72.3 116.3 L70.7 112.8 L70.7 111.9 L71 110.5 L68.7 113.4 L65.5 114 L58.1 113.1 L58.1 113.8 L59.4 114.7 L58.9 117.5 L60 118.3 L58.7 117.8 L57.7 116.8 Z"/>
  </g>
</svg>
