<svg xmlns="http://www.w3.org/2000/svg" viewBox="0 0 240 180">
  <g fill="#17324a" stroke="#fffaf3" stroke-width="3.2" stroke-linejoin="round" stroke-linecap="round">
  <path d="M122 101.2 L122.2 107.1 L116.2 107.5 L112.3 110.1 L110.2 109.4 L108.1 110 L103.2 108.2 L97.1 109.7 L97.6 112.5 L93.9 118.3 L90.6 119.6 L87 132.4 L80.9 137.1 L78.5 141.8 L73.4 144.3 L72.9 145 L72.5 145.7 L69.7 160.2 L65.7 165.1 L64.6 169.1 L63.7 169.7 L62.4 169.8 L52.1 169.1 L42.7 170 L43.2 165.5 L44.6 162.2 L45.6 160.6 L48 159.4 L49.7 153.6 L51 152.4 L50.4 151.5 L54.7 143.9 L54.7 142.5 L52.7 144.7 L63.2 133.8 L63.9 126.9 L66.9 120.2 L67.3 117.3 L76.1 111.2 L79.8 101.1 L82 98.2 L90.7 96.4 L96.2 93.8 L100.4 89 L104.6 86.8 L108 83.3 L113.9 74 L114.3 70.9 L111.6 68.2 L112.4 66.2 L112 59.9 L116.9 52.6 L117.7 46.9 L124.8 39.3 L134.3 35.4 L140.3 31.9 L146.4 21.5 L150.1 11.4 L155.1 10 L156.5 13.8 L158.4 15.7 L161.2 17.6 L165.2 18.6 L169.4 17.3 L170.7 17.9 L171.5 17 L174.8 18.1 L177.4 17.1 L178.6 15.3 L179.7 18.8 L180 18.9 L180.7 18.9 L179.5 17.5 L181 18.9 L185.8 19.2 L190.2 23.1 L189.2 24.7 L190.8 26 L189.8 27.1 L191.2 30.4 L190.4 34.5 L191.7 36.2 L191.1 39.7 L192.9 41.8 L192.2 43 L193.5 45.1 L197.3 47.9 L195.1 49.8 L194.6 51.5 L195.6 52.3 L183 51.8 L181.2 52.3 L179.4 52.5 L179.9 55.6 L171.9 57.2 L171.8 60 L170.4 60.6 L170.1 62.5 L171.2 62.4 L172.9 64.8 L172 67.5 L165 69.8 L157.2 75.6 L153.7 80.6 L152.8 80.9 L152 80.6 L151.6 79.6 L142.5 80.7 L141.7 81.5 L140 80.8 L138.9 80.7 L136.2 82.2 L133.3 82.2 L123.4 89.6 L123.3 101.2 L122 101.2 Z"/>
  </g>
</svg>
