<svg xmlns="http://www.w3.org/2000/svg" viewBox="0 0 240 180">
  <g fill="#17324a" stroke="#fffaf3" stroke-width="3.2" stroke-linejoin="round" stroke-linecap="round">
  <path d="M88.4 169.8 L88 161.7 L86.5 160.1 L87.3 158.2 L87.2 146.2 L86 141.4 L83 136.8 L83.1 133.9 L80.7 126.6 L91.5 115.9 L90.5 114.1 L91.9 112.2 L91.8 108.9 L93.6 108.2 L95.5 104 L96.7 103.3 L96.9 100.9 L96.1 99.6 L94.9 99.9 L94.4 97.8 L95.3 94.1 L93.6 92.8 L93.7 91.7 L95.7 91.1 L95.4 88.7 L97 86.9 L96.1 85.9 L95.9 83.3 L96.8 80 L96 78.6 L96.8 77.1 L95 73.2 L96.3 70.6 L94.1 70.9 L93.6 69.8 L90 68.4 L86.5 68.2 L84.7 66.1 L81.8 65.6 L80.5 64.2 L72.6 64 L72.5 58.8 L70.8 54 L98.5 44.6 L102.7 50.4 L103.3 49.2 L106.4 49.3 L109 48.2 L110.6 50.4 L111.1 57.1 L108 62.9 L109.6 64.6 L109.8 66.7 L114.3 71.3 L116.2 72.1 L115.8 75 L117.8 75 L117.7 70.8 L116.3 69.2 L118.7 65.2 L119.8 65.7 L122.4 64.4 L122.9 58.3 L122.3 55.9 L123.5 53.1 L122.9 50.8 L115.9 41.6 L113.8 39.7 L111.7 39.5 L110.9 37.9 L109.1 26.9 L111.5 20.8 L120 21.2 L122.7 19.2 L125.9 20.8 L126.1 22 L130.3 22.2 L132.1 20.7 L133.9 20.7 L134.9 21.8 L138 22.2 L141 20.5 L142.4 17.9 L145.2 17.9 L147.4 19.2 L151.1 16.8 L154.3 16.9 L156.9 15 L157.6 15 L159.1 14.6 L166.1 10.1 L166 11 L167.4 12.1 L165.8 12.9 L167.1 13.6 L166 14.5 L166.6 15.6 L165.9 17.2 L164.6 18.3 L165.6 18.9 L165.2 20.7 L166.3 24.9 L165.5 27.5 L166.5 28.8 L165.8 29.8 L167.3 32.5 L165.1 34.3 L165.2 34.4 L165.7 34.9 L166.8 34.3 L166.2 39.7 L167.3 45 L166.3 46.1 L166.7 47 L167.8 46.2 L168.2 47.1 L167.2 47.8 L167.1 49.8 L168.7 48.5 L169.2 51.2 L169.1 52.3 L167.7 53.3 L167.3 52.8 L168.5 54.2 L167.5 54 L167.9 54.9 L166.2 55.5 L167.6 56.2 L166.8 58.9 L161.9 63.9 L162.6 63.9 L161.3 66.2 L159.3 66.9 L160 68.2 L153.8 72.1 L153.1 73.5 L149 74 L144.4 76.6 L143.6 75.6 L143.8 76.7 L135.3 81 L133.4 83.6 L132 82.3 L133.4 84 L128.7 88.9 L128.2 91.1 L126.5 90.3 L126.8 92.2 L125.7 92.3 L125.4 91.3 L123 92.8 L116.3 100.2 L114 101.7 L111.5 99 L110.7 99.3 L111.5 99.2 L113 101.1 L112.4 101.9 L113 104.5 L111.9 104.5 L112.7 105.2 L112 108.3 L113.9 110 L114.7 109.8 L115.4 112.2 L116.1 112.1 L115.2 113.9 L115.8 115.9 L116 115.7 L116.3 114.5 L116.2 116.5 L117.6 119.1 L117.9 126.4 L118.7 127.3 L118.9 124.3 L119.7 123.5 L119.9 125.6 L120.2 124.3 L119.6 129.3 L119.9 131.4 L120.7 131.5 L119.5 134 L118.8 139.5 L118.2 138.9 L118.2 141.7 L118.7 140.5 L120 140.2 L119.7 143.2 L116.1 147.9 L98.6 154.7 L95.4 157.2 L93.8 160.4 L91.8 161.6 L92.9 161.8 L95 164.4 L96.2 162.4 L95.6 169.9 L88.4 169.8 Z M112.3 24.9 L112.2 26.2 L112.9 25.6 L112.3 24.9 Z M111 24.7 L111.5 25.7 L111 24.7 Z"/>
  </g>
</svg>
