<svg xmlns="http://www.w3.org/2000/svg" viewBox="0 0 240 180">
  <g fill="#17324a" stroke="#fffaf3" stroke-width="3.2" stroke-linejoin="round" stroke-linecap="round">
  <path d="M86.6 66.6 L87.4 65.1 L89.1 66.8 L89.9 66.5 L90.3 64.7 L91.5 64.3 L90.7 59.7 L91.5 58.8 L91.3 57.3 L92.3 57.7 L93.1 56.6 L93.6 52.2 L92.6 48.6 L93.8 49.5 L95.5 49 L99.3 50.4 L101.2 45 L104 40.3 L102.7 38.8 L102.7 38.4 L103.2 37.1 L106.4 34.2 L106.3 32.8 L107.6 31.5 L106.7 29.8 L107.4 26.5 L109.6 25.9 L115.7 21 L120.1 20.1 L121.6 21.8 L123.7 22.5 L121.5 18.1 L124.6 15.4 L125.4 15.6 L125.3 12.8 L127.1 10 L131.8 13.4 L133.2 18.6 L133.5 18.8 L133.8 18.7 L134 17.4 L136.3 18.2 L136.9 26.7 L136 29.6 L136.5 30.5 L135.2 31.1 L136.4 33.2 L134.9 33.3 L133.1 35.8 L131.9 35.2 L131.7 37.2 L130.1 38.7 L129.4 38.3 L128.3 40 L128.9 41.9 L127 42.7 L126.8 45.4 L128 45.5 L128.5 47.9 L128.4 48.1 L126.9 49.6 L127.7 50.5 L132.3 48.1 L137.9 47.9 L136.2 49.4 L136.2 50.9 L137.3 51.2 L137.8 52.5 L137.2 53.1 L138.1 54.4 L137.8 56.2 L140.7 57.3 L141.8 56.7 L143.3 58.2 L141.4 60 L141.8 62.2 L140.1 65.1 L146.6 66 L146.4 68 L148.3 69.4 L147.8 70.5 L148.4 71.3 L149.9 70.4 L152.1 71 L155.8 68.4 L156.6 69.8 L155.2 71.5 L153 72.3 L151.3 75.8 L152.4 76.1 L150 76.5 L148.8 77.6 L147.9 80.9 L146.6 79.8 L144.4 81 L142.5 80.3 L143.2 82.2 L141.6 83.1 L139.2 83 L138.1 85.8 L137.4 85.3 L132.7 86.5 L131 85.3 L130.9 86.8 L128.9 88.8 L129.3 91.3 L128 92.9 L128.8 95.9 L126.8 96.7 L125.5 96.1 L126.6 98.4 L127.9 98.4 L128.8 103.6 L134.7 109.9 L134.5 111.9 L136.2 115.7 L137.6 114.1 L138.1 114.9 L137.4 117.2 L135.2 117.7 L135.4 123.7 L133.2 124.2 L132.1 125.9 L132.7 128.3 L135.6 132.6 L139.7 136.5 L140.5 140.3 L139.7 143.7 L142.3 147.9 L142.6 151.5 L143.4 151.5 L144.1 154.2 L140.7 160.3 L137 164 L136.9 166.9 L135.2 170 L134.5 163.7 L136.6 161.9 L136.8 155.5 L138.1 155.3 L137.2 154.8 L137.4 153.9 L136.3 155.4 L135.7 154.3 L136.5 153.7 L135.3 153.7 L136.7 152.9 L135.9 151.5 L136.6 150.7 L135.2 150.7 L136.5 149.8 L135.7 148.9 L136.6 148.3 L135.9 148 L136.4 146.4 L135.5 142.4 L132.8 137.9 L132.4 134.8 L131.9 139.3 L131.7 133.8 L129.9 129.7 L131 129.8 L130.4 128.5 L129.5 129.1 L129.1 127.8 L128.6 119.5 L127.3 118 L127.8 114 L128.7 113.3 L125.7 114 L124.1 110.2 L123.9 108.8 L124.8 108.6 L123.7 108.8 L121.7 105.6 L121.9 109.4 L120 113.2 L117.6 113.8 L116.4 112.1 L116.8 111.1 L115.9 111.5 L117.1 114.6 L115.5 115.4 L114.6 114.8 L115.1 115.2 L115.1 115.5 L112.9 116.9 L112.3 116.2 L111.8 118.6 L109.8 120.5 L108.7 120.4 L109.3 116.9 L108.1 120 L107.2 118.3 L107.9 116.9 L106.9 117.5 L106.7 119.7 L105.1 119.9 L105.3 116.9 L106.3 116 L104.1 119.4 L103.1 118.8 L104.7 116.7 L102.8 118.7 L104.2 113.6 L103.5 115.7 L102.5 115.6 L101.7 117.5 L100.2 118.3 L100.4 113.5 L102 110 L101.9 108 L103.1 107 L103.1 104.2 L101.8 101 L102.3 100.5 L99.4 94.6 L100.5 94.5 L98.5 93.5 L98.8 88.9 L98.2 90.9 L97.5 90.5 L97.7 93.5 L95.5 92 L94 89.4 L94.4 88.5 L96.9 90.2 L98.1 89.1 L98.2 88.3 L96 86.8 L96.7 85.8 L95 86.1 L96.1 84.2 L94.8 84.7 L93.2 82.9 L91.1 82.8 L91.5 85.3 L89.8 82.5 L91.1 81.8 L90 82.3 L90.8 79 L88.9 82.6 L88.3 81.5 L89.6 80.9 L88.7 79.4 L88.1 79.6 L87.1 77.6 L87.9 81.4 L85 77.6 L83.4 72.3 L84.6 71 L87.1 72.6 L86.6 66.6 Z"/>
  </g>
</svg>
