<svg xmlns="http://www.w3.org/2000/svg" viewBox="0 0 240 180">
  <g fill="#17324a" stroke="#fffaf3" stroke-width="3.2" stroke-linejoin="round" stroke-linecap="round">
  <path d="M95.4 164.9 L94.9 165.4 L93.7 164.6 L86.5 157.7 L80.8 148.2 L80.1 143.4 L78.2 139.8 L79.3 138.5 L78.5 136.2 L76.8 135 L76.8 130.8 L75.2 127.3 L75.3 117.6 L70.7 106 L71.1 98.8 L70.3 96 L71 94.7 L70 90 L70.2 89 L70.6 90.5 L71.4 89.3 L71.2 84.6 L68.5 79.1 L64.3 74.4 L62.9 70 L57.5 61.9 L54.8 53.1 L53.1 51.4 L45.9 36 L40.8 30.7 L38.5 25.9 L36.9 17.9 L37.5 14 L41.4 12.5 L43.3 13.6 L47.3 13.8 L51.3 11 L54.7 10 L58.5 10.8 L59.1 12.3 L64.7 16.3 L119.6 15.8 L121.9 19.2 L124.9 21.3 L135.5 22.5 L142.7 22 L145.5 23.8 L148.4 24.4 L152.6 23.1 L155.6 24.2 L190.3 17 L194.6 17.8 L196 17.2 L200.4 18.4 L203.1 21.2 L200 21.7 L199.4 21.1 L197.1 22.1 L194.5 24.7 L192.5 23.3 L190.3 24.1 L182.8 30.3 L181.5 27.1 L178.5 23.9 L156.6 28 L150.5 28.2 L150.5 77.3 L138.3 77.3 L138.3 162.8 L133.4 164.2 L131.9 166.6 L129.5 167.1 L129.8 169 L127.7 170 L123.2 168.4 L116 169.2 L112.9 167.6 L109.4 167.4 L108.9 166.3 L106.7 166.6 L106.9 165.1 L105.7 163.5 L106.7 162.1 L106 160.3 L104.4 160.3 L104 158.5 L102.4 157.6 L100.4 158.3 L98.8 161 L99.3 162.1 L98.6 163.6 L97.7 163.3 L95.4 164.9 Z"/>
  </g>
</svg>
