<svg xmlns="http://www.w3.org/2000/svg" viewBox="0 0 240 180">
  <g fill="#17324a" stroke="#fffaf3" stroke-width="3.2" stroke-linejoin="round" stroke-linecap="round">
  <path d="M228.6 106 L229.9 106.4 L229.7 108.6 L226 117.5 L226.4 122.5 L224.6 128.7 L229.3 136.1 L230 139.7 L226.6 150.7 L225.6 151.8 L224.8 151.9 L221.9 148.9 L214.3 151.5 L209.7 150 L208.8 150.3 L208 150.7 L206.9 152.6 L204.3 150.6 L201.3 150.7 L199.5 145.3 L195 147.9 L193.6 149.7 L191.7 149.4 L190.7 150.4 L179.1 144.3 L176.4 145.2 L171.7 143 L166.7 145.7 L163.6 143.1 L163.3 138.7 L160.5 136.9 L152.5 140.5 L152.1 140.5 L149.6 139.8 L148.7 137 L144.8 137.1 L142.3 133.8 L139.4 132.1 L134.3 131.3 L135.1 126.2 L133.7 122.9 L132.9 122.3 L125.1 120.9 L120.5 116.6 L117.5 118.9 L112.8 119.1 L114 121 L113.4 121.8 L106.2 118.4 L103.3 118 L100.7 118 L99.8 118.9 L100.1 120.6 L98.5 122.2 L97.9 122.2 L97.3 122 L93.9 118.8 L83.6 117.2 L81.5 111 L74.1 111.6 L64 104.4 L62.6 104.2 L59.3 106.3 L48.6 99.3 L46.9 96.8 L44.2 97.7 L44.2 96.5 L40.2 90.2 L37.5 89.7 L36.2 89.5 L35.9 88.4 L33.1 87.8 L32.8 86.4 L30.3 85.9 L26.7 82.6 L24.4 81.8 L24.2 80.8 L22.4 81.5 L22.4 84.4 L20.2 82.4 L18.1 82.4 L15.5 79.2 L10.2 76 L10 74.7 L10 74.1 L11.9 71.7 L12.8 67.6 L15.1 67.1 L15.1 64.5 L16.2 64.7 L16.8 61.4 L15.9 60.9 L15.1 57.6 L19.6 52.4 L19.2 47.7 L22.1 46.2 L24.6 41.9 L28.5 39.8 L33.1 33.8 L34.1 34.8 L36.4 34.4 L38.9 39.7 L42.1 40 L42.4 39.5 L42.3 38.7 L43.6 37.8 L43.4 36.4 L45.7 35.4 L46.7 28.8 L50 30.1 L50.7 28.6 L52.8 27.4 L53.4 27.6 L56.7 29.1 L59 28.8 L62.4 30.2 L65.6 30.1 L65.5 33.1 L67.5 34.7 L67.3 35.3 L66.7 36.4 L67.4 38.5 L71.9 39.3 L77.9 42.6 L80 45.2 L80.4 45.5 L81.9 45.5 L81.9 47 L85.9 50.7 L87.6 49.8 L89.6 50.6 L92 53.2 L93 52 L95 51.9 L97.1 53.9 L97.4 56.4 L99.1 56.1 L99.9 56.8 L100.9 60 L103.9 62.9 L104.4 65.3 L107.6 66.2 L109.1 64 L115.5 62 L118.3 63.4 L119.7 63.1 L120.3 64.5 L121.7 65 L120.9 66.5 L122 69.2 L123.6 70.2 L122.9 72.8 L125 74.8 L127.5 75.6 L129.5 79.1 L133.7 80.2 L135.8 81.7 L135.6 83.1 L139.6 85.1 L142.4 85.1 L145.2 82.2 L148.7 83.4 L148.5 85.6 L146.4 88.3 L146.5 91.9 L146.7 92.3 L147.3 92.7 L149 92.3 L150.9 93.5 L152.8 93 L154.1 93.7 L156 92.6 L160.9 94 L163.1 91.4 L164.2 94.9 L167.7 97.3 L170.8 105.2 L173 105.1 L173.4 104.9 L174.3 104.1 L173.2 99.3 L175.6 96.9 L176.1 97 L176.4 97.6 L176 99.5 L176.9 101.6 L182.9 104.5 L185.2 103.1 L186.3 98.5 L187.9 99.2 L189.8 98.4 L191.1 99.3 L191.4 101 L192.2 101.3 L194.1 101.2 L196.1 103.4 L198.6 103.2 L202.6 107 L206.3 107.3 L208.2 106.1 L208.8 106.3 L208.4 107.7 L212.3 106.7 L213.9 107.7 L215.6 107.1 L217.3 107.7 L219.5 106.6 L221 104.5 L228.6 106 Z"/>
  </g>
</svg>
