<svg xmlns="http://www.w3.org/2000/svg" viewBox="0 0 240 180">
  <g fill="#17324a" stroke="#fffaf3" stroke-width="3.2" stroke-linejoin="round" stroke-linecap="round">
  <path d="M189.6 22.7 L188.8 28.6 L189.6 35.2 L189.5 37.3 L189.2 39.2 L184.8 47.5 L183.9 58 L183.2 59.2 L177.6 58.3 L174.2 58.3 L173 58.7 L172.3 59.2 L171.7 59.6 L171.8 61.8 L172.1 62.1 L173.2 63.1 L171.2 64.1 L170.6 64.2 L172.2 68.9 L178.9 70.7 L181.6 69.5 L183.8 73.1 L184.3 74.6 L183 79.3 L183.5 82.5 L177.6 87.4 L176.8 89.1 L176.4 89.5 L174.2 89.7 L174 89.7 L170.9 92.6 L170.7 93.2 L170.8 94.1 L174.5 96.1 L175.7 98.5 L172.3 102.1 L169.1 102.2 L165.4 103.4 L163.7 104.8 L163.1 105.1 L162.3 105.1 L160 104.4 L160.3 105.7 L160.2 106.3 L158.8 106.7 L158.7 105.8 L158.1 105.4 L156.7 105.2 L155.9 104 L155.6 104 L154.5 104.2 L150.9 102.2 L149.7 102.9 L152 105.5 L149.3 104.8 L143.8 107 L145 109.3 L144.1 112 L146.7 112.9 L147.4 116 L149.9 117.1 L149.4 120 L151.8 123.4 L153.3 125.1 L153.6 127 L153.7 128.1 L153.3 134.8 L149 140.8 L148.2 143.9 L148.5 145 L149.4 145.5 L151.2 144.2 L152 144.5 L151.7 144.7 L150.9 145.4 L151.6 146.1 L145.7 150.7 L144.1 153.3 L142 152 L141 152.6 L141.8 157.2 L143.7 156.4 L146.4 156.7 L146.3 159.3 L148.6 160.6 L148.4 163.8 L146.6 164.5 L146.2 166.9 L145.7 167.4 L145.2 167.2 L146.1 169.9 L138.8 169.7 L137.3 168.5 L135.7 169.6 L135 169.2 L135.4 167.9 L135.4 167.2 L132.7 165.1 L132.6 163.8 L136.1 160.5 L137.8 157.5 L136.2 157.5 L137.7 155.2 L137.8 152.3 L139.2 151.1 L139.2 149.4 L140.7 149 L139.9 148.1 L140.1 145.9 L139.5 145.8 L138.4 146.1 L136.5 144.3 L133.9 144.6 L130.7 142.9 L130 142.3 L129.8 142.1 L129.7 140.8 L129.5 139.7 L128.8 138.8 L127.9 138.2 L124.2 139.9 L117.9 139.9 L117.9 137.8 L117.2 136.9 L114.5 136.6 L112.5 133 L113 129.2 L111.1 127 L108.5 130.9 L107.6 131.8 L106.8 132 L101.5 130.7 L101.7 130 L102.1 130 L103.7 130.7 L103.7 127.1 L102.1 125.9 L101.5 125.8 L100.3 126.5 L97.5 130 L97.2 130.3 L96.7 130.4 L96.1 130.5 L92.7 129.8 L93.2 127.5 L91.4 127.1 L89.4 127.9 L87.5 129 L87.6 131 L88.9 133.1 L88.7 134.1 L88.1 134.4 L83.3 133.3 L82.4 130.4 L81.9 131 L81.1 131.2 L77.9 131.1 L73.8 128.4 L72.3 128.2 L70.3 131.2 L67.6 132.1 L62.6 128.3 L59.7 128.9 L57.7 128.4 L57 128 L54 123.9 L53.8 122.9 L54.2 122.4 L57.9 120 L67.7 119 L70.1 120.7 L70.4 121.5 L69.2 122.7 L72.7 123.1 L74.4 123.8 L77.7 128.8 L84.1 128.7 L84.6 127.4 L84.3 126.1 L83.6 125.1 L77.2 123.6 L76.3 123 L73.4 120.3 L75.3 119.4 L76.3 119.1 L81.4 120.3 L81.2 119.2 L80.7 118.7 L80.6 118.7 L79.2 118.7 L77.9 117.4 L78.4 115 L79 114.8 L80.3 114.7 L76.4 112.8 L75.1 108.9 L74.2 108.1 L73.2 107.3 L69.2 108.6 L68.9 107 L72.5 105.1 L75.4 105.9 L76.7 105.4 L75 103.1 L75.4 101.5 L74.4 96.9 L79 95.8 L84.2 89.5 L88.6 83 L92.3 76.3 L95.5 66.3 L98.1 49.2 L100.9 39.1 L103.1 39.4 L103.4 39.1 L103.7 39.5 L103.2 41.3 L104 42.4 L105.5 42.8 L112.9 39.9 L120.2 33.5 L120.7 32.8 L123.8 31.4 L126.3 24.1 L131.5 19.3 L145.6 13.2 L156.2 12.8 L157.6 13.6 L164.2 11.3 L172.8 10 L176.3 10.6 L177.1 10.9 L177.7 11.6 L178.9 16.4 L183.2 19.1 L185.6 18.9 L185.4 21.4 L189.6 22.7 Z"/>
  <path d="M50.3 133 L57.2 130.5 L65 134.5 L66.5 134.5 L67.8 134.9 L68.7 134.7 L72.3 133.2 L73.3 130.9 L75.4 131.6 L76.4 133.3 L79.5 134 L81.1 132.9 L81.9 133.4 L81.9 133.7 L81.6 135 L81.4 135.6 L80 137.6 L78.2 139 L73.7 141.4 L72 142.7 L71.2 142.9 L66.9 143 L65.1 139.6 L60.6 138.1 L56.3 138.5 L55.8 140.9 L51.8 140.6 L50.9 139.6 L50.4 138.1 L50.3 133 Z"/>
  </g>
</svg>
