<svg xmlns="http://www.w3.org/2000/svg" viewBox="0 0 240 180">
  <g fill="#17324a" stroke="#fffaf3" stroke-width="3.2" stroke-linejoin="round" stroke-linecap="round">
  <path d="M122.2 120.3 L122.2 123.9 L123 124.3 L121.6 124.8 L125.2 124.9 L125.4 127.5 L124.5 127.9 L124.1 126.2 L124.3 128.1 L122.8 127.8 L122.3 126.7 L119.1 127.5 L121.2 126.6 L119.1 126 L118.7 127.6 L109 132.7 L107.4 136.1 L107.6 140.8 L105.1 144.7 L104.4 147.9 L102.2 150.5 L103.5 151.4 L101.6 152.8 L103.6 151.4 L103.7 152.6 L99.5 153.9 L98.4 156.3 L95.4 158.4 L94.9 159.9 L93.1 160.2 L93.9 160.8 L87.3 162.6 L85.9 162.3 L85.5 161.1 L83.4 160.9 L83.1 161.8 L81 160.8 L81.4 161.9 L80.1 160.9 L81.2 160.3 L81 159.3 L80.4 160.1 L79.2 158.3 L76.1 159.1 L74.9 156.6 L73.7 156.1 L72.4 156 L71.1 157.5 L65.9 156.9 L65.1 156 L67.7 153.4 L64.5 155.2 L66.4 153.3 L65.2 153.3 L65.7 152.4 L63.2 154.1 L63.4 151.7 L67.1 151.4 L68.4 150.4 L66 150.6 L67.1 149.8 L66.2 149.9 L66.1 149.9 L66.1 149.1 L68.1 148.9 L68.7 147.8 L65.5 148.9 L66 146.8 L67.7 147.1 L66.5 145.6 L67.1 145.2 L68.7 146.3 L68.3 147.1 L69.1 146.5 L70.1 147.7 L68.6 145.8 L71.1 145.6 L70.5 144.9 L68.6 145.1 L68.3 143.4 L69.8 144 L68.7 143 L69 142.4 L69.3 142.2 L70 143.4 L70.7 142.9 L69.6 141.8 L71.3 142.2 L70 141.3 L71.8 139.7 L73 141.6 L72.3 139.5 L73.1 138.8 L73.5 140.2 L73.3 138.4 L74.5 138.8 L73.7 138 L75.2 136.8 L77 137.8 L76 135.6 L77.8 133.3 L78.7 133.3 L78.8 133.2 L78.5 132.5 L81 129.8 L83.6 128.8 L85.1 129.3 L90.9 124.9 L93.7 124 L97.4 120 L98.6 119.8 L99.1 118.2 L104.3 115.1 L107.9 110 L110.1 101.5 L113.8 100.3 L115.8 97.2 L116.5 95.6 L116.2 90.5 L119.9 86.9 L120.6 87.2 L121.2 85.9 L124.5 86.1 L124.3 86.2 L122.3 86 L121.4 87.6 L123.2 90.1 L124.6 89.3 L125.2 90.6 L124.5 92.2 L125.7 95.9 L130.1 92.7 L131 93.3 L131.1 92 L132.6 91.1 L132.5 91.7 L134.3 91.2 L132 92 L131.9 93.4 L133.5 92.7 L132.2 93.9 L132.8 94.3 L131.9 95.6 L135.2 94.2 L133 94.4 L133.5 93 L133.7 93.8 L134.4 93.2 L134.3 92.2 L133.5 92.3 L133.9 91.6 L134.8 92.3 L135.7 91.7 L135.9 92.9 L137 92.1 L136.4 93.6 L135.5 93.5 L136 94.4 L133.3 95.5 L137 94.7 L134.4 97.4 L136.7 101.1 L136.6 101.4 L136 102.7 L131.2 109 L131.4 109.8 L129.8 110.5 L127.2 116.4 L123.7 118.1 L122.2 120.3 Z"/>
  <path d="M161.7 74.7 L163.3 75.5 L161.2 80.6 L159.1 83 L158.5 85.6 L156.7 87.1 L152.4 95.1 L146.3 99.7 L145.6 99.7 L145.4 99.6 L145.1 97.2 L143.9 96.8 L143.7 96.7 L142.2 97.4 L142.3 94.8 L141.3 95.1 L141.6 96.2 L139.7 95.6 L142.1 93.3 L144.7 88 L145.6 83.3 L145.1 81.3 L142.4 78.1 L139.1 77.3 L136.5 74.5 L132.5 72.9 L131.7 70.3 L132.6 68.8 L133.5 68.4 L135.9 66.8 L137.8 66.7 L138.3 66.4 L139.4 65.2 L140.6 56.1 L141.9 56.7 L142.8 56 L141.4 55.8 L142.3 54.3 L141.3 54.3 L141.4 53.2 L141.6 52.6 L143.1 52.3 L143.1 51.5 L141.9 51.8 L140.7 47.4 L141.8 46 L140.4 46.4 L139.2 43.1 L140.2 43.2 L140.9 45.4 L141.5 44.4 L140.7 44.2 L142 43.3 L142.7 43.8 L142.8 43.1 L141.5 42.6 L141.8 41.6 L141.2 41.5 L138.6 42.7 L135.7 35.3 L138 38.2 L138.3 34.5 L137.1 34.8 L136.5 34.1 L138.9 32.9 L136.9 33.5 L138.2 31.8 L137.6 31.4 L137.1 32.7 L136.1 31.4 L135.8 32.1 L136.9 32.9 L135.9 33 L133.9 31.4 L133.1 28.3 L132.8 29.4 L135.9 34.2 L134.7 34.9 L128.3 24.3 L130.8 21.4 L130.1 21.7 L130 21.5 L129.9 20.9 L129.9 22 L128.4 22.3 L128 23.9 L127.2 22.7 L127.1 22.3 L127.5 21.2 L126.9 22.1 L126.4 21.5 L127 21 L125.4 20.1 L126.4 18.8 L126 16.8 L121.5 11 L121.8 10.2 L125.3 10.2 L124.9 11.5 L124.2 10.9 L123.7 11.8 L124.6 13.1 L124.9 11.9 L125.7 15.1 L126.1 15.6 L127.3 16.4 L127.1 17.6 L128.8 15 L129.3 15.9 L128.3 16.3 L129 17.4 L130.1 17.7 L130 16.6 L131.4 17 L131.7 18.7 L132.9 17.5 L133.9 19 L135.3 19.4 L134.1 20.2 L134.8 20.2 L135.4 22.1 L136.3 21.6 L135.4 20.9 L137.3 20 L137.1 21.4 L137.9 22.1 L137.1 21.6 L139.3 24.9 L139.4 25.2 L139.3 25.6 L138.4 25.5 L139.6 28 L138.6 27 L137.5 27.3 L137.3 26.3 L137.2 27.8 L138.7 27.8 L138.6 29.8 L139.8 30.4 L142.2 34.3 L141 34.3 L141.3 36 L140.7 35 L140.7 37.3 L142 37.6 L140.7 37.7 L141.6 40.1 L139.9 39.6 L140.3 41.2 L142.2 40.5 L142.3 41.8 L142.7 40.3 L143 41.5 L143.9 40.8 L144.2 42 L145.6 41.6 L146.6 44.7 L148.7 44.6 L149.1 45.5 L147.4 40.6 L148.4 39.7 L148.1 38 L146.7 36.7 L146.7 35.8 L148.3 36.2 L149.2 39.4 L151.4 39 L150 40.8 L150.5 40.1 L151.4 40.5 L152.5 48.2 L154.3 49.9 L152.6 48.7 L152.7 50.2 L154.8 51.3 L154.8 50 L159.5 53.2 L163.1 54.3 L163.2 55 L166.3 54.5 L169 50.8 L171.5 49.1 L174.4 49.3 L176.9 51 L174.8 54.8 L174.4 61.4 L172.3 63.6 L170.9 63.5 L170.4 68.2 L171.5 68.8 L170.7 70.4 L170 70 L170.3 68.4 L166 67.9 L162.7 69.6 L161.2 72.3 L161.7 74.7 Z"/>
  <path d="M79.4 167.1 L79.8 167.7 L76.6 168.9 L75.3 168.3 L74 169.2 L75 169.1 L74.5 169.8 L73 169.7 L75.8 165.6 L75.8 162.7 L77.2 162.8 L79.4 165 L77.6 165.2 L77.2 166.2 L79.7 166.2 L79.4 167.1 Z"/>
  </g>
</svg>
