<svg xmlns="http://www.w3.org/2000/svg" viewBox="0 0 240 180">
  <g fill="#17324a" stroke="#fffaf3" stroke-width="3.2" stroke-linejoin="round" stroke-linecap="round">
  <path d="M109.4 156.4 L106.4 155.2 L105.1 152.2 L101.2 147.9 L100.9 147.6 L92.7 141.4 L92.6 141.1 L92.3 140 L85.9 136.3 L85.4 135.7 L85 134.6 L80.7 131.2 L73.7 121.4 L70.7 115 L56.3 105.6 L56.2 104.7 L59 106.3 L56 102.9 L55.7 102.9 L56.1 104.3 L51.2 100 L50.5 98.6 L50 99.4 L45.1 92.7 L44.3 92.2 L43.6 92 L44.7 93.7 L39.1 90 L38.3 89.2 L37.7 88.3 L37.7 87.2 L38.4 85.9 L39.4 85 L40.5 84.4 L41.6 82.1 L41.5 82.9 L41.4 83.1 L42.7 83.3 L45.6 85.9 L45.6 87 L46.8 88.1 L48.3 88.5 L52 88.2 L48.8 87.6 L51.1 85.9 L59.4 85.4 L61.2 86 L65.3 82.1 L64.8 78.4 L65.7 76.4 L68.5 74.4 L71.5 75.6 L73.2 74.2 L73 72.3 L71.9 71.1 L72.5 69 L71.5 62.1 L70.7 61.3 L70.9 57.6 L72.3 56.8 L79 56.3 L80.2 56.9 L80.9 57.1 L82.4 56.6 L83.5 57.5 L86.9 57 L88.4 53.9 L94.6 46.8 L95.1 46.6 L97.9 46.2 L97.6 48.4 L101.2 51.5 L103.6 51.7 L105 53.9 L108 54.7 L108.5 49.5 L115.7 46.3 L116.3 44.7 L119.6 42.8 L120.9 39.8 L123.1 37.8 L128.6 36.3 L129 35.7 L129 34.8 L127.3 33.1 L129.3 30.2 L129.3 28.3 L129.5 27.3 L129.8 26.8 L130.4 26.9 L131 27.6 L131.6 28 L132.4 27.7 L133.7 26.4 L133.9 25.9 L133.9 25.8 L133 25.8 L133.2 25.5 L134 24.7 L133 24 L132.8 23.6 L133.4 23.5 L133.6 23.4 L134.2 21.2 L138.2 17.9 L142.3 17.8 L145.6 23.2 L151.8 23.7 L151.7 24 L151.6 24.7 L153.4 25.2 L156.1 24.1 L157.8 21.7 L158.6 23.2 L161.2 23.1 L161.4 20.1 L164.3 21.8 L167.4 20.9 L166.8 18.8 L170 20.1 L173.6 19.9 L173.6 18.4 L175.6 19.4 L178.1 18.4 L177.3 17.6 L179.4 17.5 L180.1 17.2 L180 16.6 L181.5 17.1 L181.2 16.1 L181.3 15.7 L182 15.3 L184.8 15.9 L185.2 14.5 L187.5 13.3 L187.2 12.8 L187.8 13 L188 13.1 L188.6 10.7 L190.4 11.8 L192.9 10 L194.4 11.3 L197.1 11 L197.4 11.8 L202.3 11.3 L200.1 12.1 L196.4 18.4 L195.1 18.9 L195.9 17.9 L195.1 17.4 L196.6 17.6 L195.4 14.3 L191.7 18.4 L192.6 18.3 L193 19.8 L194.8 21.1 L195.4 20.4 L194.1 19.7 L195.6 20.4 L196.2 19.6 L200.3 35.3 L196.1 43.8 L191.4 49.8 L186.8 69.9 L186.5 76.3 L188.7 88.9 L187.4 98.6 L187.4 100.8 L189.6 106.9 L185.5 108.3 L184.7 108.4 L184 108 L185.2 107 L184.1 104.8 L184.1 102.3 L184 101.4 L185.7 101.6 L186.6 100.4 L186.9 98.8 L187.4 93.8 L187.3 92.8 L186.6 92.2 L185.7 92 L184.7 92 L184 92.5 L183.7 93.2 L185.7 98.9 L184.6 99.6 L182.7 101.2 L179 102.6 L179 104.5 L180.8 105 L180.8 109.5 L181.4 109.9 L182.6 109.6 L182.6 112 L183.5 109.2 L184.7 109.4 L183 112.8 L182.2 117.2 L182.5 122 L182.8 122.8 L182.5 122.9 L182.2 123 L180.9 119.6 L181.8 117.3 L180 115.6 L178.9 115.8 L179 116.3 L179.5 116.7 L180 116.1 L180.3 116.1 L181.1 118.3 L180.3 120.4 L178 120.1 L179.5 121 L179.5 124.5 L176.8 127.1 L179.3 129.6 L179.6 129.6 L180.2 129.5 L180.4 127.7 L181.7 127.9 L183.5 136.4 L179.5 138.7 L178.3 142.9 L177.5 142.8 L177.3 142.8 L176.2 144.3 L175.8 144.9 L175.6 145.5 L175.6 149.2 L176.8 154.1 L177.5 156 L181.3 162.2 L182 162.1 L181.8 161.7 L182.5 162.5 L183 166.5 L173.9 170 L170.5 167.2 L168.1 168.1 L165.9 167.2 L163.9 167.5 L162.7 166.3 L163.3 164.5 L159.6 162.4 L158 159.6 L155 161.2 L152.9 159.3 L146.4 156.8 L138.9 161.3 L138.1 161.6 L137.2 161.5 L116.4 153.7 L113.1 151.6 L111.9 152.1 L109.4 156.4 Z"/>
  </g>
</svg>
