<svg xmlns="http://www.w3.org/2000/svg" viewBox="0 0 240 180">
  <g fill="#17324a" stroke="#fffaf3" stroke-width="3.2" stroke-linejoin="round" stroke-linecap="round">
  <path d="M36.6 46.4 L37.7 45.3 L36.7 42.9 L37.5 41.5 L37.3 32.7 L42 28.8 L44.7 24.7 L45.3 16.8 L46.3 16.7 L46.8 16.7 L51.5 13.1 L53.5 12.6 L56.8 11.8 L58.4 12.5 L64 12.2 L65.3 10.6 L65.8 10.4 L68.2 10 L78.4 14 L79.9 13.3 L82.2 14.2 L91.5 24.7 L94 24.6 L94.8 23.9 L95.8 22.7 L99 22.8 L106.1 18.9 L110.2 19.5 L110.7 19.7 L115.6 23.5 L118.5 24.1 L120.1 25.9 L124.5 27.2 L125.1 27.3 L135.1 28 L140.7 22.2 L143.8 20.5 L153 18.4 L165.5 18.6 L170.5 19.8 L175.7 22.7 L182.5 23.6 L184 20.6 L188 18.4 L189.1 17 L188.6 16.5 L194.5 15.7 L196.6 12.8 L201.2 12.9 L204.9 18.1 L208.7 23.4 L210.7 35.1 L216.1 35.9 L216.7 37.3 L218.7 38.5 L216.5 46.1 L217.9 47.5 L217.6 49.4 L210.4 54 L207.3 53.4 L203.6 57.7 L200.1 64.3 L198.2 72.3 L195 73.9 L194.7 76.8 L195.5 78.2 L194.4 82.2 L188.8 85 L189.5 87.2 L188.3 89.7 L187.5 95.3 L183.7 97.9 L180.8 97.8 L181.4 99.7 L178.5 101.5 L177.9 108.6 L175.1 112.6 L175.1 115 L170.4 120.2 L172.8 122.9 L167.5 126.6 L167.6 129.4 L164.4 133.6 L160.2 134 L158.9 128.9 L158.3 128.5 L156.8 128.2 L155.5 125.5 L151.8 123.6 L151.7 122.8 L151.4 122.4 L150 126.7 L145.8 126.7 L145.3 126.6 L144.2 124.4 L143.8 124.7 L139.8 128.1 L138.4 128 L136.8 132.4 L135.3 132.6 L132.4 135.6 L131 136 L125.1 143 L123 143.8 L123.2 145.4 L122.4 146.2 L123.8 148.4 L123 149.3 L122.1 155.2 L118.8 161 L118 161.1 L117.7 162.7 L115.7 162.1 L115.9 160.4 L114.9 161.3 L112 158 L114.8 163.7 L113.7 165.4 L101.7 165.8 L101.5 162.7 L100.8 165 L97.2 164.5 L97 165.2 L98 165.7 L97.2 166.1 L93.7 161.9 L95.6 165.9 L94.4 167 L93.8 166.1 L93.3 167.3 L92.6 165.2 L93.3 163.8 L91.9 162.4 L92.4 164.4 L90.9 163.4 L91.2 164.8 L92.3 164.9 L92.9 168.1 L92 168.3 L90.2 167.6 L89 160.9 L87.9 160.6 L90.4 168.5 L87.9 168.6 L88.2 164.4 L87.5 167.5 L86.8 166 L87.4 168.9 L86.2 168.9 L85.9 166.5 L85.6 166.1 L85.1 166.1 L85.6 166.5 L85.8 167.1 L85.5 169 L83.2 168.7 L80.5 169.7 L80.1 169.2 L80.5 168.5 L81.6 167.3 L80.4 167.9 L80 166.2 L79.7 169.7 L77.9 170 L77.5 167.7 L76.7 167.8 L77 169.6 L76 169.2 L75.9 167.6 L75.2 169 L72 166.5 L67.5 160.4 L66 155.8 L67.5 156.3 L67.2 155.7 L67.1 155.4 L67.5 155.4 L67.8 155.5 L67.1 154.7 L65.7 155.2 L65.2 152.2 L69.1 151.5 L68.4 149.9 L70.2 148.9 L68.1 149.6 L67.6 151 L66.6 150.6 L66.8 151.3 L62.9 149.5 L63.3 148.2 L66.1 148.5 L66.9 147.4 L68 148.1 L67 147 L65 147.8 L65.2 145.8 L64.3 147.6 L62 147.7 L61.3 144.7 L62.2 144.9 L64.4 142.7 L60.4 145.1 L55.5 138.9 L49.9 135.3 L41.1 134 L34 134.4 L33.7 134.3 L33.2 133.7 L35.7 133.7 L36.1 132.7 L40.7 131.1 L35.6 132.4 L34.6 132.2 L34.7 131.2 L33.3 132.2 L33.1 134.6 L21.9 135.1 L22.3 130.5 L23.1 129.6 L22.1 124.9 L23.1 124.1 L22.4 123 L22.5 117.6 L23.3 117.5 L23.3 117.3 L23.3 116.6 L22.2 114.8 L22.3 111.4 L21.3 109.6 L22.4 104.8 L21.8 102.3 L23 90.3 L28 89.7 L29.2 86.5 L28.9 83.7 L30.8 80.7 L32.2 80.4 L32.1 77.9 L35.2 77.2 L36.4 75.5 L37.7 72.6 L36.2 70.2 L36.2 69.9 L36.5 69.1 L37.5 67.4 L39.5 67.8 L40.5 64.6 L40.3 62.9 L38.8 61.4 L38.6 56.1 L34.4 50.6 L36.6 46.4 Z"/>
  </g>
</svg>
