<svg xmlns="http://www.w3.org/2000/svg" viewBox="0 0 240 180">
  <g fill="#17324a" stroke="#fffaf3" stroke-width="3.2" stroke-linejoin="round" stroke-linecap="round">
  <path d="M62.4 170 L61.1 168.1 L58.9 167.4 L52.7 160.5 L50.5 161.9 L46.6 162.7 L47.7 165.8 L46.8 167.3 L42.5 161.3 L45 160.1 L43.2 156.3 L41.3 156.1 L39.8 157.7 L36.2 157.3 L30.4 152.4 L28.7 151.9 L28.7 147.4 L32.4 147.7 L29.5 146.4 L27.6 144 L23.7 143 L23.7 141.8 L20.4 137.3 L21.1 135.5 L18 131.4 L18.9 125.3 L24.6 126.1 L28.2 125.6 L33.2 121.4 L54.7 120.7 L55.1 119.5 L61.2 120.5 L61.4 118.9 L61.5 118.6 L65.6 116 L68.4 107.7 L70 106.1 L70.6 69.2 L90.8 65.1 L112.5 45.8 L170.4 10 L189.9 14.6 L199.4 22.2 L209.2 17.1 L211.7 30.6 L211.8 37.2 L217.4 44.7 L216.5 46.8 L222 52.8 L219 58.9 L215.6 99.5 L201.4 115.1 L194.1 125.7 L193.7 128.8 L192 130.1 L192.2 131.4 L189.5 132.9 L191.5 142.8 L188 142.7 L186.7 144.9 L181.7 145.7 L181.2 147.3 L178 149.1 L176.9 151.5 L171.6 150.8 L167.5 148.4 L163.6 147.4 L153.4 147.3 L147.1 148.7 L146.6 149 L144.1 150.4 L139.7 155 L131.8 154.5 L131.4 154.4 L128 153.4 L120.6 148.3 L120.2 148.2 L116.9 147.7 L111 151 L110.5 151 L109.1 150.7 L107.5 152.3 L105.9 152.5 L97.1 143.3 L95.2 143.7 L87.2 140.4 L85.3 140.8 L84 142.2 L78.2 141.9 L73.4 143.2 L72.8 143.7 L70.8 145.7 L69.2 145.9 L68.7 152.4 L66.7 155.7 L65.9 156.5 L63 158.7 L62.5 167.2 L63.3 169.1 L62.4 170 Z"/>
  </g>
</svg>
