<svg xmlns="http://www.w3.org/2000/svg" viewBox="0 0 240 180">
  <g fill="#17324a" stroke="#fffaf3" stroke-width="3.2" stroke-linejoin="round" stroke-linecap="round">
  <path d="M139.5 141.5 L138.2 142.2 L137.6 142.7 L136.9 147.5 L133.7 150.6 L126.6 151.5 L125.6 150.5 L119.1 151.4 L113.4 150.9 L108.9 152.6 L102.9 160.9 L100.7 162.1 L100.4 166.3 L99 167 L94.6 163.5 L89.5 165.1 L88.8 165.7 L89.1 168.3 L88 168 L86.7 164.2 L86.1 164.7 L85.8 164.6 L84.5 162.9 L85.1 165.6 L83.8 165 L81 161.7 L80.9 160.5 L76.3 159.3 L76.2 160.5 L78 160.9 L78.3 161.1 L78.1 161.7 L79 161.7 L78.8 162.1 L78.6 162.5 L79.5 162.5 L78.3 163.3 L77 162.5 L76.8 167.3 L75.4 166.6 L74.7 167.1 L74.5 166.9 L74.7 166.4 L73.5 168.3 L71.4 168.8 L70.5 170 L70.9 167.4 L71.5 167.6 L72.8 167 L71.5 166.4 L74.6 165.7 L73.6 164.5 L74.2 163.8 L74.3 163.4 L72.3 162.9 L71.4 163.5 L72.8 165 L70.6 164.3 L71.2 165 L69.7 166 L68.1 165.6 L69.7 163.9 L68.5 162.3 L66.6 164.2 L62.9 163.1 L62.8 162.7 L62.9 162.1 L62.4 162.4 L62.1 162.5 L64 160.9 L66.6 161.2 L65 159.2 L67.2 158.8 L68.2 159.7 L68.7 157.9 L65.8 157.3 L62.9 158.4 L60 156.3 L57.9 157.3 L55.2 156.8 L55 156.5 L59.3 153.5 L60.8 154.6 L61 154.5 L62.4 153.5 L59.7 152.5 L59.9 149.9 L63 145.3 L62.2 142.5 L65.5 142.9 L65.4 140.3 L66.2 141.3 L66.7 140.2 L69.5 140.6 L73.2 139.1 L74.5 140.7 L75.1 139.9 L77.6 141.3 L72.8 137 L72.2 138.4 L69.5 138.2 L69.7 139.1 L69.3 139.2 L69 139.2 L68.1 136.5 L67.6 138.1 L66.9 138.1 L65.7 136.2 L67.1 130.7 L68.8 127.9 L70.3 127.8 L69.1 127.6 L69.2 125.7 L70.5 125.2 L70.5 123.9 L72 123.9 L71.6 122.9 L72.5 121.3 L72.8 121 L71.9 119.3 L73.1 118.7 L70.8 118.3 L70.8 117.9 L71.4 117.1 L70.4 117.3 L72.9 113.1 L69.3 114.6 L67.4 113.1 L67.8 112.5 L66.2 112.5 L66.5 113.4 L65.5 113.4 L61.7 110.4 L60.6 110.6 L56.8 106.8 L56.8 111 L54.3 112.6 L53.7 111.4 L54.5 109.4 L53.1 108.6 L52.6 105.9 L49.4 105.6 L47.1 102.9 L48.2 102.1 L49 99.5 L51.2 99.6 L49.1 99.2 L48.2 97.3 L52.4 93 L56 91 L56.7 89.2 L60.2 85.8 L60.9 86.6 L63.5 86.5 L63.2 84.3 L69.3 80.8 L72.1 81.3 L73.5 78.7 L75.1 78.5 L75.4 76.9 L78.2 77.2 L78 76.8 L77.3 76 L80 73.7 L81.6 74.2 L83.2 73.3 L84 74 L85.4 73.5 L85.6 73.3 L85.8 73 L85 72.9 L86.5 72 L88.3 68 L92 65.4 L95.5 59.8 L97.4 59.7 L96.9 57.3 L98.7 53.4 L98.4 51.9 L99.2 51 L99.6 50.3 L102.1 49.3 L101 48.2 L103.5 49.4 L106.7 46.3 L109.3 48.3 L110.1 49.9 L109.5 50.7 L110.5 51.9 L112.4 52.7 L111 53.6 L111.4 54.6 L112.4 54.8 L113.1 53.9 L114.8 54.4 L114.5 55.1 L114.9 55.3 L115.3 55.5 L120.7 55.6 L122.9 57.4 L127.7 57.4 L129 56.3 L129.9 56.2 L130.6 56.8 L131.2 56.2 L131.5 57.9 L134.5 59 L138.1 52.8 L132.3 44.4 L132 40.5 L137.2 39.3 L142.7 40.4 L147.7 38.9 L152.7 39.2 L153 38 L153.2 37.6 L158.9 33.7 L158.2 32.7 L159.3 31.4 L158.5 30.8 L159.2 30.8 L159.4 30.6 L159.6 28.9 L162.1 27.7 L161.8 26.9 L164 27.1 L166.3 29.2 L167.6 26.9 L170.1 27 L171.5 22.1 L171 21.4 L172 20 L171.4 17.9 L173.5 11.5 L174.8 11 L174.2 10.4 L175.4 10.1 L176.8 11.5 L179.7 10.9 L179.2 12.7 L182.4 13.2 L182.9 19 L186.7 22.3 L187.2 23.8 L187.6 22.3 L188.7 22.3 L189.4 25.4 L192.9 31.4 L190.6 32.4 L190.6 31.9 L190.6 31.5 L188.6 30.2 L186.2 30.6 L186.1 33 L185.3 32.6 L184.2 34.8 L183.6 33.2 L181.5 35.1 L181.6 35.5 L181.5 37.3 L180.7 38 L178.6 37.9 L177.7 40.4 L177.5 40.5 L177.2 39.9 L176.5 40.8 L177 41.4 L176.1 43.3 L174.5 43.2 L173.5 47.4 L171.8 47.5 L169.8 50.8 L169.1 56.4 L172.5 59 L170.3 66.6 L171.5 72 L170.4 75.3 L167.1 75.1 L162.1 77.9 L161 80.1 L159.4 79.1 L158 83.2 L155.8 86.1 L154.7 86.1 L153.5 86.5 L151.8 88.3 L150.9 89.1 L145.7 90.9 L145.3 91.4 L145.3 92.1 L145.6 92.3 L146.2 92.6 L146.4 94.2 L145.6 94.9 L144.6 94.7 L141.1 97.2 L139.5 97.4 L138.9 98.3 L138.7 99.4 L137.2 98 L136.5 99.4 L134.7 99.8 L131.3 98.9 L128.7 101.4 L128.3 103.5 L126.2 103.7 L126.5 104 L126.5 104.3 L124.2 104.8 L123.9 105.8 L123.5 106.1 L123.2 105.7 L122.6 105.4 L119.8 108.8 L120 110.8 L121.5 112.4 L120.6 113.7 L120.2 115 L121.2 120.8 L120.3 120.8 L120.7 119.1 L119.4 117.2 L117 118.9 L119.1 119.9 L117.3 120 L117.3 124.2 L118.7 125.3 L119.6 124.4 L120 125.6 L120.5 125.9 L125.7 126.8 L131.5 134.5 L133.3 135 L136 138.4 L137.6 137.6 L139.4 139.9 L139.5 141.5 Z"/>
  </g>
</svg>
