<svg xmlns="http://www.w3.org/2000/svg" viewBox="0 0 240 180">
  <g fill="#17324a" stroke="#fffaf3" stroke-width="3.2" stroke-linejoin="round" stroke-linecap="round">
  <path d="M133.7 35.5 L132.4 35.6 L131 35.6 L132.3 38.5 L130.3 41.5 L131.7 42.3 L130.5 43.7 L122.3 41.1 L121 41.5 L120.9 46.2 L119.6 48.4 L116.4 46.8 L113.6 49.3 L112.6 52.7 L110.2 55.1 L111.8 57.8 L111.8 58.1 L111.7 59.6 L106.5 66.5 L106.9 69 L106.8 69.1 L104.6 70.6 L103.2 70.8 L101.9 70.9 L102.4 74.4 L102.5 74.9 L101.7 80.8 L97.2 89.7 L99.7 91.4 L99.9 94.3 L99.9 94.5 L99.8 94.8 L99 96.6 L93.7 96.1 L89.5 101.7 L89.7 103.5 L88.6 105.5 L88.9 106.5 L89.8 109 L89.1 109.9 L89.1 114 L90.3 118.3 L89.8 121.4 L89.4 124.5 L93.2 129.1 L92.3 132.8 L89.9 133.3 L91.8 140.4 L91.1 144.6 L89.3 146.8 L87.8 147.1 L88.1 149 L86.9 150.3 L87.6 154.9 L86.8 158.7 L85.7 159 L84.3 155.3 L83.5 156.2 L82 155.1 L82.2 153.9 L81.2 152.6 L81.7 146.6 L80.6 147.4 L81.3 149.9 L80.7 151.5 L80.1 149.1 L79.3 148.9 L80.2 150 L80.1 151.2 L79.4 151.1 L80.8 154 L80 154.4 L79.5 157.3 L79.5 157.1 L79.3 156.3 L79.3 157.4 L77.3 158.3 L75.7 156.3 L76.5 158.3 L74.4 159.3 L75.2 159.8 L74.7 160.8 L73.3 160.8 L73.9 161.8 L72.4 162.5 L72.5 163.7 L68.3 168.7 L67.7 167.2 L67.4 168.8 L65.5 169.7 L63.7 169.2 L62.4 170 L63.2 168.7 L62.1 169.4 L62.4 168.7 L61.9 169.3 L61.4 168.7 L62.4 168.2 L61.3 167.7 L61 168.5 L61 167.6 L61.3 169.1 L60.4 169.1 L60 168.4 L61.6 166.6 L60.8 167.2 L60.8 165.9 L60.1 167 L57.9 165.8 L57 164.1 L55.3 163.2 L54.5 160.7 L54.8 157.3 L55.7 158 L55.7 159.4 L56.6 158.2 L58.4 159.7 L57.7 158.3 L60.5 157.1 L58 157.8 L57.9 157.9 L57.4 158.9 L56.5 156.9 L57.9 155.9 L57.2 155.9 L58.1 154.5 L59.6 153.8 L58 154.5 L57.8 154.4 L57.6 154 L58.4 153.7 L57.2 153.7 L57.4 153.1 L60 150.9 L58.4 151.3 L58.8 149.7 L56.8 153.4 L56.6 152.3 L56.8 152.3 L58 151.9 L56 151.3 L55.3 152.8 L56.1 152.5 L56.5 153.5 L55.2 154.2 L54.9 152.7 L54.6 154.4 L52.9 151.4 L53.8 149.8 L54.1 150.5 L54.5 148.7 L54.2 151.6 L54.9 149.5 L55.9 150.3 L56.6 149.7 L56.2 148.9 L58.7 147.5 L57 148.5 L57 147.2 L56.4 148.3 L55.3 147.3 L58.7 144.1 L57.7 144.2 L58.2 141.9 L60.5 140.5 L59.9 144.6 L60.6 140.9 L63 139.4 L61.9 139.4 L62.4 138.4 L60.6 140.3 L60.8 139.2 L58.7 140.8 L58.1 139.8 L58 142.3 L57.2 142.3 L55.9 145.7 L56.1 143 L54.8 143.6 L55.8 140.8 L54.1 144 L52.7 141.4 L53.6 139.1 L55.4 140.3 L55.9 136.8 L55.5 136.3 L54.7 137.9 L53.1 138.6 L51.6 135.8 L54.2 137.9 L53.2 136.1 L54.8 134.9 L52.6 135.7 L52 132.8 L52.3 132.5 L52.7 132.4 L54.4 133.4 L55.3 132.2 L57.9 131.9 L59.1 133.2 L60.3 131.2 L62.2 132.3 L61.8 134.1 L62.7 133.8 L63 135.1 L62.4 132.2 L64.7 132.1 L64.2 131.6 L66.1 130.5 L64.2 130.7 L65.4 127.5 L63.8 128.5 L64 131.4 L62.1 132 L62.4 131.1 L60.1 130.6 L60.8 128.5 L59.5 132 L57 131.4 L57.4 130.9 L54.2 132.4 L53 132.1 L52.2 131.4 L53.3 131.1 L51.8 130.1 L53.2 129.2 L53.7 130.3 L53.3 129.1 L54.3 128.9 L55.3 129 L52.2 129.4 L52.6 128.2 L51.7 128.3 L52.9 127.6 L56.2 127.8 L52.9 127.2 L52.7 126.6 L53.8 126.5 L52.7 126.1 L54.2 126.2 L53.7 125.5 L51.9 125.7 L51.8 124.4 L52.7 124.6 L52.4 123.9 L53.9 122.3 L55.5 122.6 L55.2 123.4 L56.8 123 L56.7 124.4 L57.1 123.2 L58.1 124 L57.5 123.2 L59.7 123.6 L61.5 122.7 L56.1 122.9 L55.8 122.5 L55.8 122.4 L57 122.2 L55.3 122.1 L54.7 121.9 L52.8 122.5 L52.7 121.5 L54.1 120.9 L52.5 119.9 L52.4 118.9 L53.4 119.1 L54.4 121.1 L55.1 120.4 L54 119.7 L54.2 118.9 L55.9 120.1 L55.5 119 L56.6 118.7 L56.4 120.9 L57 119.5 L57.5 120.4 L59.1 120.4 L56.8 118.4 L57.5 118.7 L57.1 117.8 L58.8 116.7 L60 119.9 L59.2 116.7 L60.1 116.9 L61 115.7 L62.4 117.9 L62.2 119.9 L63.4 119.9 L62.3 119.8 L62.6 117.9 L64.4 117.9 L62.5 117.5 L61.3 115.4 L58.5 115.7 L60.7 115.2 L58.6 114.8 L58.7 113.8 L60.1 113.7 L60.4 114.4 L61.2 113.2 L61.9 114.2 L61.8 113.3 L62.1 113.2 L62.9 113.3 L63.1 114.7 L63.3 113.5 L65.3 115.1 L66.5 114.2 L64.8 114.2 L65.2 113 L67.6 112.2 L68.4 112.8 L68 111.7 L64.4 112.8 L66 111.5 L62.2 112.3 L62.7 111.1 L63.6 111.3 L61.8 110.1 L62.8 109.2 L63.8 108.8 L65 110.1 L66 109.2 L66.1 110.1 L68.1 109.6 L68.5 111.3 L70.5 113.2 L68.5 109.7 L67 108.9 L68.2 107.7 L69.4 110.5 L71.3 111.2 L69.8 109.5 L71 109.4 L71.2 109.3 L70.6 108.7 L69.6 109.3 L70.1 108.8 L68.9 108.7 L68.5 107.6 L71 107.7 L70.8 106.8 L72.1 106.5 L72.6 106.4 L70.9 106.6 L70.2 105.4 L71.7 104.8 L71 104 L72.3 104.2 L73 103.3 L73.4 105.4 L75.4 104.1 L74 104.5 L73.9 103.7 L75.4 103.1 L73.7 102.8 L75.9 102.4 L75.5 101.8 L76.4 101.2 L77.9 103.5 L77.3 105 L78.2 104.6 L79.5 105.7 L78.6 103.7 L82.9 103.4 L82.1 102.7 L83 101.7 L81.6 102.3 L81.9 101.6 L85.8 99.4 L85.5 98.6 L83.9 98.7 L86 96.6 L84.7 96.4 L85.3 95.4 L81.1 99.1 L83 98.1 L83.7 98.5 L83.1 99.9 L78.1 103 L77 100.9 L78.7 99.7 L75.7 100.9 L77 99.7 L75.7 99.6 L77.5 98.5 L77 98.2 L79.2 97.6 L77.8 97.8 L78.8 97 L77.8 97.3 L78.1 95.5 L79.2 95.5 L79 94.4 L80.1 94.6 L79.5 93.8 L81.5 92.5 L80.7 91.6 L82.6 92.2 L81.6 91.3 L83.1 90.9 L83.1 89.5 L85.1 91.6 L84.5 92.9 L85.5 91.3 L86.8 91 L85.6 91.1 L85.8 90.5 L87.4 89.6 L85.9 89.7 L85.4 88.2 L87.8 87.1 L86.7 86.8 L87.2 86.1 L89.8 85.4 L88.1 85.3 L84.7 87.9 L85.6 87 L84.8 86.5 L87 85.7 L84.6 86.4 L88.5 83.8 L89.6 84.7 L93.5 80.8 L91.2 82.9 L90.5 82.8 L91.2 82.2 L90.6 81.7 L92.2 81.4 L89.9 81.8 L91.2 80.1 L92.2 80.6 L91.1 79.2 L92.3 80.1 L91.9 79.6 L91.9 79.4 L92 79.2 L92.7 79 L92.5 78.9 L91.8 79 L91.6 77.5 L91.3 78.4 L91.4 77.5 L90.7 78.1 L90.4 76.9 L91.2 75.7 L92.7 76.9 L91.5 75.5 L92.3 75 L92 73.5 L92.9 72.8 L94.7 74.2 L93.4 72.5 L94 71.4 L92.1 71.7 L96.6 69.5 L96.6 71.1 L98.1 70.7 L97.2 69.8 L99.8 68.6 L97.1 69.5 L96.8 68.9 L94 70.3 L96.6 68.7 L95.5 67.9 L94.9 68.9 L94 68.6 L94.7 66.8 L93.7 66.1 L95.7 66.9 L95.2 66.1 L97.3 66.2 L96.2 65.6 L97.6 65.1 L95.1 65.8 L95.9 64.8 L94.8 64.3 L96.7 64.7 L95 63.8 L97.5 64 L98.5 63.5 L96.8 63.8 L97.8 63.2 L96.7 62.7 L99 62.8 L96.7 61.2 L98.7 60.3 L98.8 61.2 L99.4 59.5 L99.9 60.6 L100.5 59.5 L102 60.1 L100.5 59.3 L101 58.3 L103 58.8 L102 57.8 L104.2 57.7 L104.3 59.1 L104.3 57.9 L105.4 57.9 L106.6 59.4 L106.4 57.7 L108.2 58.2 L104.6 57.3 L105.2 56.5 L102.3 57.7 L102.7 56.9 L100.8 57.3 L102.3 55.2 L103.4 55.7 L104.5 54.8 L102.9 54.2 L104.6 53.2 L105.1 53.8 L104.3 53.4 L104.6 54 L103.4 54.5 L105.2 53.9 L105 55.2 L106.5 54.4 L107.4 56.9 L108 56.6 L107.1 54.6 L109 53.5 L105.7 53.9 L105.7 53 L106.6 53.5 L106.6 52.8 L105.2 52.7 L105.9 51.5 L107.7 52 L106.4 51.2 L108.6 52 L107.9 50.6 L106.4 50.6 L106.2 49.7 L105.2 51.6 L103 52.4 L103.2 51.4 L104.9 51.2 L103.1 50.3 L104.6 50.1 L103.5 50 L104.3 49.4 L105.3 50.2 L106.8 49.1 L107.1 49.9 L108.2 48.7 L108.8 49.3 L109.9 48 L108.9 47.2 L107.1 47.2 L106.4 48.2 L105.8 47.5 L107.7 46 L108.2 46.8 L107.5 47.4 L108.6 47 L109.4 45 L110.1 46.1 L109.7 47.7 L112.1 50.6 L110.6 48.1 L112 49.3 L111.3 48.1 L112.4 48.6 L111.5 47.5 L113.1 47.2 L111 47 L111.7 45.8 L112.4 46.1 L112.6 46.1 L111.9 45.3 L110.4 45.6 L111.4 45.1 L110.1 44.6 L111.6 44.6 L113.7 46.5 L110.7 43.8 L115.5 43.6 L116.5 46.1 L117 45.2 L116.1 43.1 L119.3 43.3 L117.2 42.6 L117.6 41.8 L117.6 41.6 L115 42.8 L114.8 41.9 L112.3 42.8 L112 41.7 L112.8 41.6 L112.6 40.4 L114.6 39.5 L115.4 40.4 L116.1 39.3 L118.3 40 L116 38.9 L117.2 38.2 L118.9 39 L117.2 38 L119.1 37.2 L117 37 L118.2 34.5 L120.8 34 L119.9 33 L120.8 30.3 L121.8 30.2 L122.6 33 L122.8 31.5 L123.6 32.7 L123.6 32 L125.3 32.4 L122.4 30.5 L122.5 29.6 L124.5 29.2 L125.3 31.1 L127.2 32 L126.2 32.9 L127.9 33.1 L127.5 31.7 L125.2 30.3 L126.4 29 L125.3 29.4 L124.9 28.4 L126.5 26.4 L129.3 26.1 L128 31 L129.1 28.4 L131 28.8 L129.7 28.3 L129.5 27.2 L131.9 24.1 L132.7 25.2 L132.5 28.6 L130.2 32.7 L132.9 28.9 L134.9 29.9 L133 28.3 L133 26.6 L136 24.4 L135.1 25.5 L135.8 26.3 L136 25.4 L136.8 25.8 L137.2 23.5 L138.6 23.9 L141.4 26.9 L140.5 23.9 L141.2 24.5 L141.5 23.4 L139.9 23.3 L141.4 22.3 L139.5 23 L136.8 21.2 L138 20.4 L138.3 21.2 L138.6 19.8 L140.3 21.9 L139.9 20.6 L140 20.5 L140.9 19.8 L141.5 20.9 L142.5 20.2 L142.4 22.1 L143.8 22.2 L142.6 21.7 L143 20.6 L146 21.2 L145.3 22.3 L142.4 23.2 L146.3 21.9 L146.6 24.3 L147.8 23.8 L147.9 24.4 L149 23.4 L147.1 22.6 L148.3 22 L147.7 21.7 L148.4 21.3 L147.4 21.1 L148.9 20.8 L147.8 20.6 L149.4 20 L148.8 19.3 L151 17.5 L153.2 18.2 L151.9 17.1 L153.2 15.3 L155.2 16.2 L154.2 14.6 L152.7 14.2 L153.3 13.2 L154.7 14.2 L154.7 11.8 L155.7 12.7 L156.8 11.9 L156.2 13.1 L157.4 12.5 L157.9 14.1 L158.5 11.8 L158.8 12 L159.4 12.5 L158.9 13.5 L160.1 12.8 L161.5 13.2 L157 17.6 L157.9 17.8 L156.9 17.8 L157.1 18 L157.9 17.9 L158 19 L157 19.4 L157.7 20 L156.5 20.9 L156.3 22.5 L156.8 22.9 L157.1 21.9 L157.8 22.6 L159.4 20.1 L158.9 19.6 L165.1 12.2 L165.7 12.4 L165.5 14.8 L165.2 15.1 L163.6 15.8 L165.3 15.9 L164.5 19.3 L166.1 17.9 L167.6 18 L167 16.6 L168.5 16.6 L167.6 15.9 L167.8 14.7 L168.8 14.7 L168.8 13.7 L168.9 13.7 L170.4 13.9 L167.8 12.2 L168.9 12.3 L168.4 11.2 L170 12.1 L170.5 10 L171.7 11.1 L173.4 10.5 L173.4 11.8 L175.2 11.8 L173.5 14.2 L171.1 14.1 L171.1 14.7 L173 14.8 L170.5 16.3 L173.9 15.2 L171.5 17.8 L171.7 18.5 L171.9 17.8 L173.3 17.6 L173 18.3 L174.1 17.4 L173.1 19.2 L173.3 21.9 L172.4 22.9 L173.5 21.9 L173.5 18.9 L174.4 17.7 L175 18.3 L174.4 16.9 L176.5 13.1 L177.9 13 L178 13 L179.7 14.2 L179.2 15.8 L181.5 14.7 L181.1 16.2 L183.2 15 L184.6 16.5 L182.8 17.2 L185.4 16.9 L187 18.7 L187.7 18.2 L188.4 20.3 L185.5 20.8 L183.6 22.9 L175.4 21.8 L181.1 24.1 L179.5 25.4 L181.5 25.2 L180.1 27.9 L182.9 26.5 L182.5 27.5 L183.2 26.9 L183.7 27.6 L183.7 25.2 L184 25.2 L184.3 25.1 L184.7 27.8 L185.1 26 L187.2 26.1 L187.5 29.3 L185.5 29.4 L183.5 28.1 L183.5 30.4 L182.5 31.5 L179.5 32.2 L178.5 35.1 L177.3 35.6 L176.8 33.3 L178.8 31.3 L179.4 30.3 L178.2 27.7 L174.6 26.3 L171.6 22.8 L167.6 24.9 L164.6 24.6 L161.7 27.8 L160.5 33.3 L160.8 36 L159.8 37.5 L157.7 38.2 L157.3 40.2 L156.1 41.3 L150.6 38.1 L150 39.4 L147.2 40.6 L146.3 39.7 L143.1 39.4 L139 32.6 L137.3 32.4 L136.2 33 L136.1 35.5 L135.9 35.4 L134.4 34.6 L134.2 34.7 L133.7 35.5 Z"/>
  <path d="M112.3 39.3 L112.2 41.2 L110.1 41.5 L109.2 43.5 L108.8 42.1 L107.6 44.4 L106.1 44.1 L107.1 41.9 L104.3 45 L104.9 43.3 L106.2 42.5 L105.4 41.3 L107.6 40.6 L106.6 39.2 L108 39.6 L106.7 38.9 L107.8 36.4 L109.1 36.5 L108.3 39.1 L109.5 38.8 L108.2 41.6 L109.4 39.9 L110 40.3 L109.7 39.4 L110.6 39.1 L110 38 L111.1 37.8 L110.8 37.1 L112.4 38 L112.3 39.3 Z"/>
  <path d="M120.4 30.6 L120.4 31.7 L119.5 32 L119.8 33.7 L117.3 34 L117.4 33.4 L115.4 35.8 L115.3 34.9 L113.6 35.1 L115.7 33.5 L114.2 33.5 L115.5 32.8 L114.3 32.3 L115.4 32.1 L114.4 31.1 L116.8 31.5 L116.2 30.9 L117.1 30.9 L117.4 30.7 L115.7 29.8 L116.4 30.3 L116.4 29.4 L118.1 30.3 L117.2 28.6 L118.1 29.7 L118.2 28.6 L118.7 29.3 L119.3 28.8 L119.1 30.5 L119.7 29.5 L119.8 29.6 L120.3 29.9 L119.7 30.7 L120.4 30.6 Z"/>
  </g>
</svg>
