<svg xmlns="http://www.w3.org/2000/svg" viewBox="0 0 240 180">
  <g fill="#17324a" stroke="#fffaf3" stroke-width="3.2" stroke-linejoin="round" stroke-linecap="round">
  <path d="M127.2 33.1 L130.7 41 L135.7 47.3 L139.4 50.3 L150.2 53.8 L153.9 53.9 L156.8 55.4 L160.5 54.9 L163.5 56.7 L168.5 64.8 L170.4 66.1 L171.7 69 L175.1 72.8 L176.8 72.5 L178.6 73.9 L178.6 73.2 L179.5 73.2 L180.1 74.7 L179.8 77.4 L179.6 78.1 L172.3 91.3 L168 93.9 L162.3 101.3 L162.1 102.2 L163 102.3 L160.9 104.3 L159.9 107.9 L158.7 109 L155.3 108.4 L155.9 105.2 L154.6 104.9 L149.7 110.6 L149.1 115.2 L147.2 119.3 L148.5 124.6 L148.1 126.9 L149.5 130.8 L148.9 131.6 L139.8 132.8 L133.3 135.7 L131.1 138.5 L129.9 145.3 L126.8 148.7 L121.8 148.6 L113 150.2 L109.6 155.3 L110.7 157.3 L110 160.4 L106.5 163.9 L103.1 164.9 L100 163.5 L92.1 163.9 L90.7 165.5 L87 166.3 L85.5 167.9 L80.7 168.5 L78.2 169.3 L76.9 170 L72.5 159.7 L71.3 159.2 L59.9 131.4 L105.7 114.9 L115.8 82.4 L108.9 70.5 L109 65.2 L114.3 53 L113.1 49.8 L115.5 48.8 L118.4 49.1 L121.3 47.8 L120.3 45.6 L117.6 45.4 L118.5 42.8 L117.7 40.4 L118.6 38.6 L118.3 34.6 L121 33.2 L121.8 35 L120.8 35.2 L122.9 37.2 L127.2 33.1 Z"/>
  <path d="M122.5 15.3 L124.3 12.1 L124.6 12.9 L127.6 12.7 L126.1 12.7 L126.9 10 L128.4 10.9 L129 10.4 L127.4 11.9 L128.8 12.5 L127.9 12.7 L128.7 13.9 L127.3 13 L126.4 13.5 L126.5 14.5 L126.9 13.9 L126.9 14.6 L127.2 14.7 L128.6 14.7 L127.2 15.7 L128.3 17.2 L127.2 17.6 L125.6 22.5 L123.7 22 L124.2 16.1 L124.1 15.8 L123.8 15.1 L122.5 15.3 Z"/>
  </g>
</svg>
