<svg xmlns="http://www.w3.org/2000/svg" viewBox="0 0 240 180">
  <g fill="#17324a" stroke="#fffaf3" stroke-width="3.2" stroke-linejoin="round" stroke-linecap="round">
  <path d="M192.7 17.3 L193 19.9 L191.8 21.9 L193.8 22.9 L194.8 25 L198.6 23.9 L198.8 25.6 L200.9 26.9 L202.3 30.1 L203.7 33.3 L203.5 34.6 L202.4 35.6 L200.7 35.6 L199.5 37.7 L197.4 37.4 L193.1 38.5 L190.8 40.5 L175.2 37.4 L171.7 38.6 L169.9 41.8 L172.2 44.2 L171.1 45.2 L171.3 46.2 L175 47 L171.8 49.9 L173.8 52.6 L172.2 56.4 L175.4 58.6 L175.6 61.2 L178.3 61.5 L179.3 60.6 L178.7 63.5 L179.3 64.9 L182.8 64.9 L186.3 67.4 L185.6 68.7 L180.8 70.2 L177.9 72.6 L177.3 74 L178.6 77 L177.4 80.4 L179 81.5 L175.4 83.9 L172.7 88.3 L170.8 89.8 L171.6 92.2 L165.7 95.4 L161.2 105.9 L155.2 109.2 L153.1 114.2 L150.6 116.8 L150.1 119 L139.5 122 L138.8 121.9 L138.2 121.5 L136.4 118.2 L134.6 118.2 L131.9 120.7 L131.8 120.9 L131.1 123.2 L126.1 128.9 L125.4 133.2 L128.5 135.3 L132.5 136 L131.7 143.2 L133.6 146 L137.6 146.3 L137.6 149.6 L139.7 152.4 L141.9 158.2 L140.7 159.3 L142 161.5 L138.7 163.6 L136.7 163.1 L136.7 161.3 L136.3 161.3 L135.2 161.5 L132 162.7 L130.6 164.4 L128.5 164.4 L127.9 164.3 L126.4 163 L120.2 163.3 L119.4 162.5 L118.9 163.5 L117.9 162.4 L117.7 166.8 L113.6 166.7 L112.1 168.2 L111.8 167.5 L111.8 170 L110.9 169.7 L111.3 168.5 L110.5 167.1 L110.4 169.1 L108.7 167.4 L108.5 168.6 L106.4 168.7 L106.7 167.2 L106.4 168.1 L104.8 167.6 L105.5 167.1 L104.5 166.5 L105.4 165.5 L103.5 165.5 L102.9 164 L102.8 162.4 L103.6 162.2 L102.8 162.1 L101.8 159.6 L102.5 159.3 L101.4 158.7 L102.4 157.2 L99.5 156.2 L96.3 156.3 L97.2 152.2 L93.4 146.9 L91.4 147.4 L90.5 148.7 L93 147.7 L94.6 148.6 L94.7 149.6 L92.2 148.7 L86.2 150.2 L81.9 149.8 L81 150.8 L77.2 150.4 L76.1 150.8 L76.2 152.2 L75.5 152.4 L75 151.2 L73.4 151.6 L69.9 150.3 L70.2 148.9 L68.6 149.4 L69.6 150.2 L64.5 150 L63.4 150.9 L63.8 152 L53.7 151.2 L51.9 152.3 L52.2 153.3 L50.9 153.2 L51.3 152.1 L49.7 151.7 L48.8 152.4 L49.2 153.1 L47 153.1 L45.4 154.1 L46 152.1 L44 151.9 L44.7 145.2 L45.7 144.5 L46.3 140 L49.5 137.9 L51 138.1 L51.2 136.4 L52.6 135.6 L55.9 134.7 L60 134.9 L60.4 132.4 L61.3 131.9 L60.9 129.6 L61.9 129 L60.4 127.3 L57.4 127.9 L55.9 127.2 L56.6 125 L56.1 115.5 L55.9 115.3 L54.2 115.7 L52 113.4 L47.1 111.9 L43.7 108 L41.4 102 L36.3 96.2 L53.2 101.6 L64.4 100.5 L69.8 101.8 L71 100.5 L73.8 99.6 L79.6 100 L91.6 96.5 L93.1 95 L91.8 93.6 L92 93.1 L92.7 91.8 L92.3 87.3 L93.3 83.4 L95.2 82.8 L97 80 L99.3 78.7 L100.3 79.7 L103.7 80 L107.8 78.5 L105.6 76.4 L109.9 74.9 L111.7 72.6 L115 73.8 L115.9 73.5 L114.5 73.1 L114.7 73 L115.2 72.7 L117.2 73.2 L118.5 75.3 L121.3 74.2 L123.7 71.2 L122.9 65.5 L125 62.7 L124.4 61.3 L125.5 60.3 L125.6 58.2 L131 57 L134 54.3 L132.4 52.3 L132 49.8 L130.4 49.5 L129.3 47.5 L129.7 46.2 L136.3 47.3 L139.8 47 L141.9 45.9 L142.5 42.3 L140.8 40.2 L141.9 39.9 L142 38.5 L144.2 36.1 L146.1 35.2 L147.8 32.3 L146.7 31 L147.6 29.3 L146.1 25.3 L142.9 22.1 L147 18.7 L147.5 17.1 L149.3 17.9 L149.2 16.9 L153.3 14.8 L153.1 14.2 L157.4 12.8 L169.9 11.9 L172.6 12.9 L173.7 11.8 L176.7 10.6 L177.8 11.1 L177.8 10.4 L179.2 10 L181.2 11.8 L183.6 10.7 L186.2 11.7 L187 14 L188.4 13.4 L189.3 13.6 L190.1 14 L192.7 17.3 Z"/>
  </g>
</svg>
