<svg xmlns="http://www.w3.org/2000/svg" viewBox="0 0 240 180">
  <g fill="#17324a" stroke="#fffaf3" stroke-width="3.2" stroke-linejoin="round" stroke-linecap="round">
  <path d="M130.2 79.2 L131.4 77.8 L131.5 76 L131.3 73.9 L132.3 72.7 L130 64.5 L130.3 60.3 L127.3 52.8 L127.7 51 L131.6 47.3 L132.4 45.8 L132.7 44.3 L132.6 43.1 L131.8 42.2 L130.6 41.8 L130.9 40.2 L131.2 36.4 L131.7 34.9 L133.8 33.8 L136.2 23 L138.2 19.6 L147.1 14.2 L149.6 11.2 L151.1 10.1 L152.9 10 L159.2 13.9 L165.6 13.6 L168.7 13.9 L171.7 15.8 L173.1 25.4 L188.8 29 L189.2 29.9 L189.3 31 L188.7 31 L188.7 30.2 L187.9 30.2 L187.9 31 L189.3 37.6 L188.9 39 L188.8 41.3 L189.2 43.5 L190 44.9 L188.7 46.7 L190 46.7 L188.7 52.3 L188.3 54.3 L188.7 55.7 L188.7 56.6 L187.9 57 L187.4 57.5 L187.4 58.2 L187.9 59 L186.2 61.9 L186.2 63.3 L187.2 64.8 L185.5 66.2 L185 68.3 L185.1 73.8 L187.3 81.9 L185.1 84.9 L187.6 94.5 L186.5 96 L186.5 96.9 L188.7 103.4 L185.4 107.1 L182.9 113 L180.6 118.4 L179 127.1 L178.5 136.3 L171.4 136.9 L165.5 140.3 L154.4 149.6 L148.4 151.9 L135.7 151.8 L124.2 154 L121.5 153.5 L119.2 151.8 L118 147.8 L119.5 143.7 L124.1 136 L125.2 125.5 L128.9 119.6 L137.6 114.1 L141.1 111 L143.3 109.2 L144.4 107.3 L146.8 106.8 L149.9 108.9 L152.5 108.5 L155.9 110.2 L158.4 105.4 L157.4 102.9 L157.9 101.2 L158.4 100.5 L157.7 97.8 L158.2 97 L158.6 96.1 L157.3 95.5 L157.8 94.6 L157.5 94.3 L157.1 93.9 L156.6 93.8 L155.4 94.1 L154.3 89.7 L153.2 89.5 L152.5 90 L153.6 96.8 L150.3 96.2 L150.6 98.2 L143.1 96.4 L139.4 92.8 L138.2 92.7 L137.3 92.9 L136.3 93.5 L134.4 95.3 L129.6 95.5 L129.3 95.2 L129.4 94.8 L130.5 93.8 L131.4 92.8 L135.1 91.9 L135.6 86.2 L134.6 84.3 L133.3 84 L132.1 83.2 L132 82.5 L132.4 81.8 L131.7 81.3 L130.2 79.2 Z"/>
  <path d="M78.6 125.3 L82.6 128.3 L86.3 130.5 L67 148.2 L64.8 152.4 L65.3 160.6 L54.9 170 L53 164.3 L52.5 162.3 L50 157.6 L58.3 150.1 L60.3 146.4 L65.1 142.8 L67.1 139.1 L74.8 131.2 L78.4 125.9 L78.6 125.3 Z"/>
  </g>
</svg>
