<svg xmlns="http://www.w3.org/2000/svg" viewBox="0 0 240 180">
  <g fill="#17324a" stroke="#fffaf3" stroke-width="3.2" stroke-linejoin="round" stroke-linecap="round">
  <path d="M11.8 35.5 L16 36 L25.1 40.8 L26.9 40.8 L27.7 42.2 L39.7 46 L48.9 47.7 L56.2 53.1 L58.3 53.1 L57.7 53.3 L59.3 54.1 L60.4 53 L63.3 53.3 L64 55.7 L68.5 57.4 L68.4 58.3 L70.3 59.4 L71.1 61 L75.4 61.7 L82.1 68.3 L81.9 73.8 L81 76.3 L81.5 77.6 L83.4 78.1 L84.5 77.4 L91.7 79.4 L101.2 84.8 L104.5 84.2 L106.9 85.2 L111.6 90.4 L111.9 95.4 L107.7 96.3 L99 96.2 L98.8 98.9 L99.9 100.4 L100.6 100.1 L100.4 101.8 L101.6 103 L102.2 106.7 L106.6 108.9 L109.9 113.4 L112.3 113.6 L114.3 115.4 L116.2 115.2 L117.4 122.7 L121.1 125.2 L122.6 130.1 L125.1 130.7 L130.7 128.8 L133.1 129.4 L133.5 131.3 L132.5 131.8 L131.3 134.6 L131.9 136.3 L135.3 137.9 L143.2 138.5 L144 139.7 L139.2 141 L141 144 L146 145.2 L148.7 146.8 L151.9 146.8 L152.3 147.9 L155.9 147.1 L152.7 148.8 L148.5 148.6 L148.2 149.2 L148.4 149.7 L152.6 150.8 L153.2 152.1 L150.2 152.9 L149.4 153.9 L148.1 153.4 L146.2 154.1 L145.8 153.2 L144.8 153.6 L143.3 152.8 L143.3 152.1 L141 151.9 L144.2 150.5 L142.4 150.1 L142 151 L141.3 149.6 L139.5 148.8 L136 149.2 L134.6 148.1 L130.5 147.3 L128.3 147.9 L124.9 147.3 L125.2 146.1 L124.1 145.4 L123.4 146.6 L119.9 146.8 L116.3 144.9 L113.7 146.3 L112.8 145.1 L111.9 145.3 L112.1 144.5 L109.9 145.3 L109.7 144 L107.8 143 L104 137.1 L102 136.7 L101.1 135.4 L100.5 136.1 L99.3 133.6 L98.1 133.3 L97.9 131.1 L99.1 129.6 L97.7 130.7 L93.7 129.3 L92.9 127.6 L93.8 126.3 L93.6 126.5 L93.3 126.6 L90.2 122.7 L88.2 118.3 L86.6 117.5 L86.4 115.8 L82 114.6 L81.9 113.2 L80.9 114 L76.6 113.7 L73.1 111.7 L68.6 111.3 L68.3 108.2 L67.9 109.9 L65.4 108.1 L65.5 109.2 L64.6 109.5 L63.5 107.2 L63.5 109.7 L61.8 107.4 L63.2 111.6 L61.9 110.4 L61.2 110.8 L60.4 108.8 L60.7 110 L59.8 109.1 L59.2 109.5 L59.9 111.1 L59 111.5 L54.7 110.1 L50.7 106.3 L52.2 107.6 L55.2 114.1 L53 113.5 L54.6 114.6 L52.5 115.1 L48.4 114.4 L46.6 113 L49.3 115 L50.5 117.6 L49.9 118.1 L40.7 119.5 L36.9 118.4 L33.3 119.4 L32 117 L28.9 117.7 L31.9 117.3 L33.3 120 L37.3 119.2 L42.8 121.4 L47.1 126 L46.6 129.3 L42.1 130.5 L35.7 134.1 L30 131.5 L21.2 132.6 L17.2 131.2 L13.9 132.4 L12.3 131 L11.9 130.7 L11.9 98.4 L10 95.7 L11.9 90.2 L11.8 35.5 Z"/>
  <path d="M178.3 61 L177.5 63.4 L178.3 66 L177 69 L175.6 70.4 L171.8 70.7 L171.9 72.4 L171.9 72.8 L174.5 76 L173.7 77.3 L169.9 79.3 L168.5 78.4 L166.9 79 L164.5 78.4 L164.5 79.6 L165.5 80.3 L160.4 84.7 L158.6 85.7 L155.1 85.5 L154.6 87.1 L152.6 87.4 L149.9 89.3 L137.9 89.8 L135.7 87 L133.5 86.1 L129.4 87.6 L129.4 85.3 L126.6 85.1 L126.9 84.5 L125.4 84.2 L125.2 83.2 L119.7 82 L118.8 80.6 L118.8 80.1 L119 78.4 L120.3 77.1 L122.2 78.5 L123.5 77.7 L126.4 78.5 L128.3 77.4 L131.9 79.4 L135.9 79.2 L138.4 77.6 L138.9 78.9 L140.1 78 L141.9 78.2 L142.9 77 L141.9 75.7 L143.6 73.7 L143.3 72 L144.8 70.7 L146.1 71.6 L144.3 72.9 L144.4 74.3 L143.6 74.9 L145.5 78.6 L147.4 78.9 L150.1 77.2 L151.8 77.7 L152.4 78.8 L154.4 77.2 L156.3 77.8 L157.9 76.6 L158.9 73 L163.1 69.2 L166.6 70.1 L167.6 69.2 L167.3 64.9 L165.3 60.7 L165.6 58.6 L169.6 59.1 L170.5 60.4 L172.1 60.8 L172.4 58.8 L174.3 59 L175 58.1 L175.8 59.4 L174.8 59.1 L175 60.5 L178.3 61 Z"/>
  <path d="M229.5 94.6 L229.5 96.9 L229.2 95.9 L229.1 96 L228.7 97 L228.3 96.6 L227.8 96.7 L226.1 98.1 L220.7 95.8 L218.4 93 L219.2 92.6 L219 89.9 L215.9 88.4 L212.2 84.2 L211.6 81.7 L212.6 78.8 L211.6 76.9 L214.3 78.7 L216.9 78.6 L219 83.3 L221.3 84.6 L223.3 88.1 L225.2 87.9 L227.8 90.6 L229.5 94.6 Z"/>
  <path d="M188.8 59.9 L188.8 61.5 L187.4 63.1 L188 64.6 L185.3 68.4 L182.3 64.1 L182.4 58.6 L176.5 49.7 L169.5 46.6 L166.6 43.8 L166.4 43.6 L158.9 38.8 L154.2 37.9 L154 37.2 L156.2 36.6 L154.7 35.7 L155 34.8 L160.9 39.4 L164.1 40 L169.6 44.1 L173 44.9 L178.4 50.9 L179.4 50.7 L180.6 53.4 L183.3 54.5 L184.2 54.1 L184.9 55.8 L186 55.8 L188.8 59.9 Z"/>
  <path d="M105.8 26.5 L105.8 27.6 L104.1 27.4 L102.7 29.4 L97.2 29.3 L95.1 28.4 L95.5 29.3 L93.3 30 L92.5 28.9 L93.9 28.3 L93.4 26.6 L94.4 26.2 L101.2 26.2 L105.6 27.4 L105 26.1 L105.8 26.5 Z"/>
  <path d="M154.8 138.7 L149.5 138.4 L150.6 136.9 L149.4 134.5 L150.5 134.1 L153 135.6 L154.8 135.4 L156.7 138.5 L155.4 139.6 L155.6 138.9 L154.8 138.7 Z"/>
  <path d="M149.9 34.5 L149.8 36.3 L145.7 36.6 L142.5 33.7 L146.2 32.2 L149.9 34.5 Z"/>
  </g>
</svg>
