<svg xmlns="http://www.w3.org/2000/svg" viewBox="0 0 240 180">
  <g fill="#17324a" stroke="#fffaf3" stroke-width="3.2" stroke-linejoin="round" stroke-linecap="round">
  <path d="M45.7 66.8 L52.3 44.3 L52.4 34.4 L58.2 25.8 L61.5 16.9 L92.4 10.2 L109 10.1 L125 20.5 L125.1 27.2 L125.8 27.7 L125 28.4 L126.1 28.8 L126.3 30.7 L128.1 32.1 L128.3 37.1 L129.1 36.6 L130.4 37.8 L129 39 L130.4 39.8 L129.4 41.2 L131.2 42.6 L131 43 L130.5 43.8 L130.9 46.4 L129.6 48.3 L130.5 49.4 L128.8 52.8 L129.8 56.3 L128.1 63.2 L129 64.6 L130.7 65.1 L133.9 64.2 L134.7 65.7 L139.4 66.5 L141.8 65.9 L144 66.9 L147.3 66.9 L148.2 68 L150.5 66.5 L151.8 67.4 L154.1 64.2 L155.8 63.7 L159.5 67.6 L165.8 67.9 L167.7 70.3 L168.2 73.3 L170 75 L169.3 78.1 L169.7 81.6 L171.5 86 L171.5 92.6 L173.1 95.8 L173.4 99.5 L173.5 100 L178.1 101.2 L182 100.3 L187.4 97.1 L194.3 101.8 L192.7 103.7 L194 107.8 L192.7 110.4 L193 113 L190.6 120.2 L191.1 123 L187.8 128.7 L188.3 132.6 L187.3 133.4 L188.3 135.8 L187.8 138.7 L187 139 L187.4 143.2 L184.4 152.2 L182.7 152.1 L181.7 154.3 L178.8 156.1 L178.5 157.8 L176 157.4 L173.7 158.3 L172.8 160.6 L171.5 160.6 L170.4 161.9 L170.5 165 L167.6 167.2 L165.2 165.1 L161.1 164.4 L158.3 166.2 L156.8 169.9 L155.1 169.4 L153.6 167.5 L149.6 168.5 L146.7 166.8 L142.4 168.1 L139.7 166.6 L136.5 166.7 L127.5 163.7 L117.2 164.8 L116.6 161.3 L117 161.1 L117.9 160.9 L118.4 159.4 L118.9 159.8 L119.5 157.5 L122.3 156.3 L121.9 155 L123.1 154.8 L123.8 151.9 L124.8 152 L124.2 147.5 L124.9 144.6 L126 144 L125.2 142.9 L125.7 143.3 L126.2 142 L130.2 139.6 L129.6 138.8 L130.1 137 L131.4 136.2 L131.2 135.5 L131.1 135.1 L132.5 134.1 L131.9 133.7 L135.4 131 L135.6 128.4 L132.3 123.6 L130.2 121.8 L128.2 121.6 L124 119 L122 120 L119.9 117.5 L113.6 115.8 L104.2 110.3 L102 107.7 L92 101 L86.6 101.2 L82.3 99.8 L81.6 98.8 L75.3 97.5 L72.9 94.6 L72.7 93.1 L66 89.4 L65.7 88.2 L62.8 87 L57.9 82.2 L53.8 76 L53.9 74.6 L52.7 73.9 L52.1 71.6 L46.1 68.2 L45.7 66.8 Z"/>
  </g>
</svg>
