<svg xmlns="http://www.w3.org/2000/svg" viewBox="0 0 240 180">
  <g fill="#17324a" stroke="#fffaf3" stroke-width="3.2" stroke-linejoin="round" stroke-linecap="round">
  <path d="M167.5 162.7 L164.5 164.4 L165.1 166.9 L163.3 169.4 L159.8 170 L151.3 164.4 L151.2 162.1 L150.2 160.8 L145 158.5 L141.9 155.6 L131.3 151.7 L128.3 149.2 L119.5 144.8 L115.7 140.1 L112.1 137.8 L110.2 134 L109 133.6 L108.9 131.2 L108.1 131.3 L108.3 130.4 L109.3 130.8 L109.6 126.5 L104.6 119.1 L104.6 117.9 L101.3 115.2 L101 111.5 L97.3 108.4 L97.1 105.2 L92.6 98.1 L92.2 95.3 L89.9 90.1 L88.9 89.9 L89.4 89.5 L87.6 86.4 L87.7 85 L86.1 83.5 L85.7 81.6 L81.6 77.3 L80.3 73.2 L77.1 68.8 L70.1 64.8 L67 62 L67.7 60.3 L69.2 60.6 L69.5 59.9 L69.6 59.1 L66.6 55.3 L67.8 53.6 L65.4 50.6 L65.5 48.7 L65.9 47.1 L70 42.4 L74 39.4 L74.7 39.7 L75.5 43.7 L72.7 44.8 L72.9 46.6 L74 46.4 L72.8 48.5 L73.7 48.9 L75.4 47.2 L78.4 48.9 L79.9 48.5 L81.3 49.4 L81.6 51.6 L82.8 53 L85.3 53.3 L86.4 52.2 L86.3 51 L88.4 49.5 L88.3 47.6 L90.6 42.9 L91.1 39.5 L92.7 40.2 L92.5 39.1 L95.5 35.8 L105.7 32.2 L110.7 28.4 L115.2 23.2 L116.5 17.8 L118.1 18.1 L117.9 14.7 L114.6 10.7 L117 11.1 L118.5 10 L120.7 11.6 L121.6 11.2 L121.9 12.5 L125.1 14.5 L126.6 18.4 L128.1 18.4 L129.7 20.2 L131.9 20.7 L133.1 22.7 L132.9 24.6 L135.7 25.4 L136.4 27.9 L135.6 29.1 L137.8 30.9 L140 30.9 L140.4 30.1 L142.7 31.2 L144.6 30.8 L148.2 28.4 L150.3 30 L150.6 29.4 L151 30.5 L154.7 28.9 L157.2 30.1 L157.6 31.2 L160.1 31.5 L162.8 33.5 L156.9 42.8 L160.9 43.4 L163.3 46.3 L163.3 47.5 L162 47 L161.5 47.7 L160.3 45.9 L158.2 46.4 L157.6 45.7 L156 46.3 L154.9 48.1 L146.8 49.2 L142.6 51.6 L140.4 54 L138.1 54.6 L137.5 59.4 L135.3 62.9 L136.1 66.3 L130.8 69.9 L130.3 71.8 L131.2 73.6 L128.9 74 L128.6 75.8 L131.2 77.8 L130.6 79.3 L132.1 80.6 L132.7 82.8 L137.6 88.3 L137.6 89.6 L135.5 92 L143.2 93 L144.6 96.1 L144.3 97.2 L152 97.1 L158.7 92.2 L157.8 93.3 L158.6 94.6 L157.7 95.8 L157.7 106 L158.4 105.4 L158.6 105.3 L160.3 106.5 L163.6 105.2 L166.9 105.5 L174.6 119 L173.6 120 L173.9 120.8 L172 122.2 L172.1 128 L171 129.2 L173 133.8 L171.8 134.2 L171.8 135.6 L168.6 139.2 L168.5 140.7 L170.6 143 L168.1 146.3 L170.3 151.3 L173.3 152.4 L171.6 153.5 L171.8 155.1 L170.3 155.9 L168.4 158.9 L166.5 159.9 L166.1 160.8 L167.1 161.2 L167.5 162.7 Z"/>
  </g>
</svg>
