<svg xmlns="http://www.w3.org/2000/svg" viewBox="0 0 240 180">
  <g fill="#17324a" stroke="#fffaf3" stroke-width="3.2" stroke-linejoin="round" stroke-linecap="round">
  <path d="M125.9 12.8 L126 14.6 L124.4 16.4 L124 20.7 L125.3 25 L126.9 25.3 L127.3 27.7 L128.6 28.3 L124.8 36 L124.8 38.4 L122.4 40.8 L123.7 38 L117.6 41.9 L118.2 45.1 L115.4 48.5 L115.4 49.8 L119.3 56.1 L117.9 56.7 L118.4 59.3 L119.4 62.5 L121.5 64.6 L125.1 65.8 L124.6 64.8 L126.1 64.5 L124.3 62.7 L125.4 61.7 L125.9 63.6 L127.3 60.8 L129.9 61.3 L130.3 60.5 L134.5 63.5 L135.2 67.9 L137.5 67.1 L137.8 64.9 L136.5 64.8 L137.7 63.5 L138.8 65.8 L139.1 65.1 L141.8 66 L142.2 65.4 L144.8 67.2 L145.1 68 L140.5 67.9 L140 69.3 L143.8 73.7 L143.1 73.7 L142.8 73.8 L142.6 75.7 L144.3 74.7 L146.4 76.3 L147 75.5 L147.7 76 L146.1 81.9 L144.1 80.6 L143.1 78.4 L145.5 77.9 L145.8 77 L144.3 76.7 L142.3 78.3 L142.1 77.3 L140.9 77.7 L139.1 76 L137.5 76.3 L137.4 73.7 L135.9 71.2 L132.5 69.4 L131.3 67 L128.6 65.1 L127.2 65.3 L128.3 66.8 L128.2 68.8 L129.8 70.1 L129 69.8 L130.4 73.8 L129.2 74.4 L126.7 70 L119.3 65 L116.6 66.3 L115.9 67.1 L116.3 68.3 L114.2 69.4 L111.5 69.1 L111 67.2 L109.6 68.3 L109.5 65.7 L107.5 65.5 L107.8 66.4 L106.9 67.2 L106 62.6 L110.6 58.8 L110.3 57 L109.1 55.7 L106.8 55.4 L106.2 54 L105.6 56.2 L106.2 59.2 L104.2 59.4 L103.7 57.4 L102.2 56.1 L102.8 55 L101.8 54.3 L101.4 55.8 L100.3 55.2 L99.5 49.7 L98.1 47.9 L99 46.8 L98 42.1 L96.6 41.8 L97.1 36.9 L98.5 36.7 L98.3 38.2 L100.5 39.3 L101 40.6 L102.9 40.9 L104.1 39.2 L102.6 33.9 L104.5 29.3 L104.5 24.8 L103.3 22.8 L106.1 13.8 L106 11.7 L108.3 11 L108.8 10 L109.9 10.9 L112.2 10 L118.4 13.9 L118.5 13.3 L122.3 14.2 L124.8 11.4 L125.9 12.8 Z"/>
  <path d="M175.1 143.5 L175.6 144 L173.9 147 L172.1 147.6 L172.5 149.5 L171 147.8 L170.5 148.2 L171.5 149.8 L170.8 155.5 L169.6 152.8 L169.5 149 L168.3 148 L166.7 142.9 L164.7 144 L164.5 145.8 L162.6 147.3 L161.4 151.1 L163.8 152.9 L165.1 158.3 L161.5 163.8 L160.6 163.8 L159.1 161.2 L160.2 159.1 L159.9 157.7 L158.8 157.5 L158 160.2 L156.6 160.5 L147.8 156.2 L146.1 153.7 L146 149.6 L145.1 149 L145.8 145.7 L147.6 144.4 L148.3 142.3 L146.2 139.9 L142.1 137.5 L139.1 137.6 L139.6 139.2 L138 140.3 L139.1 142.7 L137.2 140.9 L136.1 141.4 L135.4 140.8 L136.1 139.7 L135.3 138.3 L134.1 141.5 L132.9 140.6 L131.8 141.6 L131.7 138.1 L129.6 137.9 L127.6 139.9 L127.7 141.1 L126.6 141.5 L126.8 142.7 L125.7 143.6 L124.2 147.9 L122.9 148 L121.3 146.4 L124.1 140.1 L123.9 137.4 L124.9 136.2 L125.2 135.7 L130.3 133.3 L130.6 133.9 L133.3 133.4 L134.6 129.3 L137.6 129 L139 127.6 L138.5 126.8 L139.9 127 L140.7 128.4 L141.1 127.4 L142.7 128.1 L143.9 130.5 L144.2 133.1 L141.8 135.7 L145.5 133.1 L148.2 132.8 L150.2 128.1 L153.1 129.2 L152.8 130.2 L154.2 129.4 L154.9 123.3 L158.2 125.5 L159.2 125 L159.4 122.5 L160.6 123.6 L163 123.3 L163.3 121.3 L161.6 115.5 L162.3 113.8 L163.8 114.6 L164.4 116.3 L168.2 117.9 L167.5 118.7 L168.5 118.8 L169.3 120.7 L171.1 119.9 L170.6 122.5 L172.5 125.3 L171.5 127.2 L169.8 128.1 L170.4 129.1 L171.6 128.7 L173.2 129.5 L172.4 132.7 L173.8 132.4 L173.9 134.1 L172.9 136.6 L175.2 138.6 L175.1 143.5 Z"/>
  <path d="M140.6 102 L135.8 113 L135.5 117 L137.8 119.9 L136.6 122.2 L134.4 123.1 L132.2 119.4 L129.3 118.4 L127.3 115.8 L127 113.6 L127.9 112 L130.6 111.9 L132.5 110.6 L131.8 105.7 L133.7 103.3 L134 101 L137 100 L140 100.9 L140.6 102 Z"/>
  <path d="M165.2 98.2 L165.8 99.7 L164.5 98.2 L163.1 98.9 L160.5 98.2 L159.8 98.9 L159 96.9 L157 96.6 L157.1 95 L155 94 L156.8 93 L157.5 91.1 L155.8 91 L155.1 90 L154.6 89.9 L155 89.3 L150.4 86.2 L149 81.3 L151.7 82.1 L159 81.4 L160.1 82.3 L161 83.5 L160.6 84.7 L163.2 86 L162.3 86.7 L163.1 87.5 L162.1 88.8 L162.4 92.9 L164.4 95.6 L163.4 97.5 L164.3 97.2 L165.2 98.2 Z"/>
  <path d="M135.9 94.3 L135.5 97.8 L131.8 100 L131 102.4 L129.3 103.5 L125.1 104.2 L121.9 106.6 L121.7 102.6 L123 99.8 L123.7 92.2 L123.2 91.3 L120.8 90.9 L121.4 89.4 L122.1 89 L126.8 91.3 L129.6 94 L132 92.8 L133.3 93.8 L132.8 94.8 L135.9 92.9 L135.9 94.3 Z"/>
  <path d="M95.6 105.2 L96.1 105.5 L96.3 105.6 L94.5 107.3 L91.2 108.7 L90.2 111.1 L85.3 112.5 L85.4 114.9 L84.5 114.4 L85.1 115.6 L80.5 121.4 L77.9 122 L76.6 124.8 L73.6 127.2 L71.4 127.5 L70.7 129.4 L68.9 129.7 L67.1 131.3 L67.9 128.1 L72.4 122.8 L73.7 122.6 L75.3 120.4 L76.4 120.8 L77.9 119.5 L85.2 110.3 L85.4 111.1 L86 110.8 L85.8 109.5 L88.2 108.1 L87.8 107.2 L89.3 106 L89.5 107.2 L91.1 105.8 L91.9 103.1 L90.5 101.7 L90.6 100.5 L93.3 103.1 L91.6 100 L91.8 98.8 L92.7 99.3 L92.4 97.8 L93.6 95 L94.5 96.9 L93.7 101.3 L94.9 102 L94.7 103.8 L95.6 104.1 L95.6 105.2 Z"/>
  <path d="M117 79.9 L115.5 84.8 L112.5 85.4 L108.6 79.6 L108 76 L105.4 73.7 L104.5 71.4 L103.2 71.8 L103.1 70.7 L110.7 70.2 L112.3 72.1 L113.2 71.2 L116.1 74.8 L117.3 75.1 L116.5 76.3 L117 79.9 Z"/>
  <path d="M160.2 107.9 L160 108.7 L158.6 108.5 L158.8 109.6 L156.9 107.3 L157.4 111.5 L154.5 110 L154.5 102.1 L152.7 99.9 L151.4 101.5 L150.1 100.8 L150.2 96.4 L149.2 93.4 L152.7 96.4 L155.2 94.9 L156.7 95.3 L156.7 96.8 L157.5 97.1 L157.2 102.9 L159.2 104.6 L160.2 107.9 Z"/>
  <path d="M146 101.9 L145.7 107.4 L141.5 110.9 L139.5 117.1 L137.8 118.7 L138.4 112 L143.8 102.9 L144.9 98.1 L146.4 96.8 L145.5 99.1 L146.1 99.2 L146 101.9 Z"/>
  <path d="M152 113.3 L152.4 114.8 L151.2 114.5 L148.9 116.4 L144.3 116.1 L143.2 114.6 L144.2 112.7 L146.1 112 L147.6 110 L150.1 110 L152.1 111.3 L152 113.3 Z"/>
  <path d="M146.1 90.6 L146.1 91.4 L143.8 89.2 L142.5 89.1 L142.4 88.1 L139.6 85.6 L135.8 89.2 L137.4 85.6 L136.5 85.5 L136.7 81.2 L138.1 81.7 L137.7 83 L139 82.1 L143.1 86 L143.1 85.5 L143.1 85.3 L144.1 85.7 L146.1 88.5 L145.5 88.1 L146.1 90.6 Z"/>
  <path d="M150.3 66.2 L149.3 69.9 L148.4 69.4 L147.7 70.3 L146 69.3 L147.1 63.7 L147.9 63.6 L149 65.8 L150.3 66.2 Z"/>
  <path d="M125.9 151.4 L124.6 153.5 L122.9 154 L122.4 154 L122 154 L120.2 151.5 L122.7 150.1 L125.9 151.4 Z"/>
  <path d="M103.4 87.9 L101 87.9 L100.7 88.6 L99.4 88.1 L98.4 85.9 L97.7 86.2 L98.1 84.4 L101.7 86.9 L102.1 85.6 L103.4 87.9 Z"/>
  <path d="M123.6 71.5 L122.4 74.1 L120.3 72.3 L121 69.7 L122.6 70.1 L123.6 71.5 Z"/>
  <path d="M115.3 158.7 L115.8 159.4 L114.3 160.5 L113.6 159.5 L110.2 160.2 L109.5 159.5 L111.3 157.7 L115.3 158.7 Z"/>
  <path d="M165.3 112.8 L164.8 113.2 L164 112.1 L163.9 110.7 L162.7 110.5 L163 108 L164.4 106.3 L165.3 112.8 Z"/>
  <path d="M123.8 80.4 L124.3 80.8 L122.6 87 L122.5 85.3 L121.5 84.6 L122.4 81.2 L123.8 80.4 Z"/>
  <path d="M102.3 167.4 L101.9 169.2 L100.8 168 L98.9 169.7 L97.3 169.9 L97.4 169 L101 166.8 L101.8 166.5 L102.3 167.4 Z"/>
  <path d="M122.5 52.8 L123.1 53.1 L122.1 54 L122.8 56 L121.8 57.1 L120.5 52.5 L122.5 52.8 Z"/>
  <path d="M130.7 103.1 L130.4 105.8 L128.6 106.8 L128 105.8 L128.6 104.6 L130 102.9 L130.7 103.1 Z"/>
  <path d="M152.4 93.3 L152.5 94.2 L150.9 94.4 L149.5 92 L151.3 91.8 L152.4 93.3 Z"/>
  <path d="M130.4 83.5 L129.5 85 L127.3 82.8 L129.3 82.4 L130.4 83.5 Z"/>
  <path d="M170.4 113.7 L169.1 114.6 L168.1 113.5 L169.4 111 L170.4 113.7 Z"/>
  <path d="M137.2 78 L137.9 79.8 L133.3 75.1 L134.2 74.7 L137.2 78 Z"/>
  <path d="M99.7 89.5 L100.4 89.8 L100.2 91.2 L99 92.2 L99.5 90.8 L98.5 90.7 L97.7 88.7 L98.5 88.4 L99.7 89.5 Z"/>
  <path d="M98.9 104.6 L99.2 105.5 L98.4 105.2 L98.4 106.1 L97 106.4 L96.6 105.3 L97.6 104.2 L98.9 104.6 Z"/>
  <path d="M142 121.6 L140.8 122.3 L139.4 121.2 L141.2 120 L142 121.6 Z"/>
  <path d="M65.9 134.6 L65.9 136.8 L65 137.6 L64.4 134.5 L65.9 134.6 Z"/>
  <path d="M143 83.8 L140.7 80.9 L141 80.1 L142.4 81.2 L143 83.8 Z"/>
  <path d="M154.5 121.2 L154.5 122.6 L152.8 121.4 L153.7 120.6 L154.5 121.2 Z"/>
  <path d="M166.1 147.6 L165.7 148 L164.7 146.1 L165.3 144.7 L166.1 147.6 Z"/>
  </g>
</svg>
