<svg xmlns="http://www.w3.org/2000/svg" viewBox="0 0 240 180">
  <g fill="#17324a" stroke="#fffaf3" stroke-width="3.2" stroke-linejoin="round" stroke-linecap="round">
  <path d="M114.9 155.9 L114.2 151.5 L111.4 150.5 L110.1 144.8 L109.4 145.3 L109 145.3 L107.7 144.6 L107.1 144.3 L105.8 145 L100.9 141.2 L101.4 142.4 L98.1 143.2 L96.3 139.9 L93.8 138.5 L96.6 136.5 L95.9 133.9 L94.6 135.3 L91.9 135.2 L91.1 135.9 L87.1 132.1 L82.2 130.6 L81.7 130.9 L81.7 131.3 L84.2 136.5 L83.3 136.1 L80.9 137.3 L78.2 139.9 L72.9 132.3 L71.5 132.5 L70.3 130.8 L71.9 129 L73 129 L74.3 126.9 L74.1 126.4 L72.7 124.8 L70.8 124.4 L70 125.4 L68.5 124.8 L66.7 125.9 L66.6 123.9 L64.5 124 L63.6 122.1 L61.6 122.4 L57.7 120.6 L56.4 121.3 L54.5 117.8 L54.8 116.4 L52.6 114.8 L52.2 115.6 L50.3 114.5 L49.5 115.3 L49.9 118.9 L47 119 L50.6 108.6 L49.3 102.8 L45.3 100.6 L45.7 97.1 L43.2 93.1 L46.2 85.6 L45.1 84.8 L44.9 84.4 L45.3 81.2 L43.2 79.7 L42.5 77.2 L44.2 71.9 L35.4 64.4 L35.8 61.4 L39.1 59 L39.7 55.1 L40.8 53.4 L38.4 46.4 L37.8 41.2 L38.3 39.8 L42.3 42.3 L43.4 43.9 L43.8 42.5 L42.5 41.1 L42.6 40.4 L43 39.3 L43.8 39.3 L44 37 L43.2 38.1 L43 36.9 L42.6 36.7 L40.8 36.5 L40.6 35.5 L39.4 36.3 L40.2 37.2 L38.9 38 L36.3 35.5 L36.9 34.6 L40.2 35.1 L46.5 32 L64.7 26.1 L67.4 25.8 L69.3 25.2 L69.1 25.4 L68.3 25.8 L68.6 26 L70.1 25.8 L70.7 24.7 L70.3 24.7 L69.4 25 L71.7 23.1 L71 24.1 L72.6 23.4 L72.8 23.1 L72.6 22.7 L71.8 23.1 L76.7 17.7 L83 16.4 L84.6 14.7 L89.7 12.4 L103.4 10 L106.2 10 L106.6 10.1 L113.6 14.1 L114.7 16.6 L112.7 13.7 L108.6 11.4 L107.8 12.9 L109.1 15.7 L109.4 15.6 L109.7 15.3 L110.8 21.1 L115.8 23.4 L124.1 22.6 L128 20.4 L180.2 23.6 L182.5 22 L184.7 22.5 L186 23.6 L186.1 24.9 L187.3 24.6 L192.9 28.7 L193.7 31.7 L193 33.5 L195.3 43.6 L200.4 56.2 L199.8 58.5 L200.7 60 L200.6 68.5 L191.9 73.8 L188.1 79.8 L188.9 81.4 L193.5 82.7 L193.9 84.3 L196.1 85.4 L196.7 87.9 L194.3 97 L194.8 99.9 L197.1 104 L196 106.7 L199.9 111 L201.8 116.8 L204.6 119 L201.5 120.3 L203.5 122.9 L204 125.2 L204 127.7 L202.4 129 L201.9 131.4 L197 132.1 L196.2 133.9 L187 143.6 L179.6 154.3 L179.2 155.4 L180.9 162.3 L179.9 165.4 L182.8 167.5 L182.8 170 L181.2 168.6 L175 167.3 L169.1 164.4 L167.2 160.8 L165.4 159.5 L164.3 160.3 L162 158.2 L158.7 158.6 L155.9 157.5 L154.8 158.9 L152.7 158.4 L152.4 158.5 L152.1 158.9 L152.7 160.1 L150.1 161.9 L146 158.8 L143.8 159.7 L143.4 159.6 L142 158.8 L141.8 158.9 L141.8 159.4 L140 159.1 L139.4 160.6 L136.8 161.5 L135.5 165.1 L133.6 163.7 L130.6 164.5 L131.4 162.6 L130.7 159.1 L128.3 158.8 L128.5 157.8 L127.1 157.4 L125.3 153.4 L123.5 155.4 L121.9 155.7 L120.7 158.8 L120.1 159 L119.7 159.1 L117.1 159.2 L117.1 156.3 L116.6 156 L114.9 155.9 Z"/>
  </g>
</svg>
