<svg xmlns="http://www.w3.org/2000/svg" viewBox="0 0 240 180">
  <g fill="#17324a" stroke="#fffaf3" stroke-width="3.2" stroke-linejoin="round" stroke-linecap="round">
  <path d="M137.8 113 L133.8 115.9 L133.3 118.6 L133.9 119.5 L131.8 124.8 L136.3 130.2 L137.3 132.7 L137.5 132.9 L141.6 132.5 L139.8 137.9 L137.4 137.4 L136.7 138.6 L133.8 139.3 L133 143.2 L129.7 147 L127.7 152 L129 154.3 L130.8 164.3 L128.1 164.3 L120.8 169.6 L116.7 169.2 L117 170 L116.5 169.2 L115.6 168.4 L112.2 166.9 L106 167 L102.6 165.8 L95.5 168.1 L94.1 169.3 L92.6 168.9 L97 156.6 L97.5 153 L96.7 151 L97.4 148 L98.5 147 L97 146.7 L96.9 140.9 L96.1 140.7 L95.1 140.1 L98 132.8 L97.5 127.5 L94 123.7 L97.4 125.4 L102 125.7 L98.7 124.4 L98.9 122.4 L98 121.1 L97.5 122.1 L97.1 122.3 L97.6 123.7 L93.7 123 L91.4 125 L87.1 125.7 L88.2 121.5 L86.6 118 L89.1 117.5 L90 118.2 L94 114.6 L92.3 110.3 L93.3 108.2 L93.9 107.2 L98.2 104.6 L94.1 106.4 L90.2 112.9 L89.9 116.5 L85.8 117 L85.3 117.3 L84.9 117.9 L81.3 116.9 L80.7 113.5 L82.5 109.8 L82.4 107.9 L82.2 106.7 L84.5 99.4 L82.8 96 L83.1 96 L84.2 96.3 L85.9 95.1 L86.4 94.7 L87.4 95.1 L87.1 94 L90.4 89.7 L95.7 72.8 L97.7 73 L95.1 71.6 L94.8 71.1 L94.8 70.5 L98.5 56.7 L98.7 57.5 L100 56.7 L99.8 55.8 L101.1 55.2 L100.6 54.3 L102.8 53.3 L100.3 53.3 L100.8 50.5 L98.5 56.5 L100.8 45.9 L101 41 L100.1 40.8 L98.9 38 L96.6 24.9 L99.8 23.4 L95.9 23.9 L95.5 19.7 L101.5 13.2 L108.2 11.6 L111.2 10 L111.6 12.6 L113.2 12.5 L114.2 13.5 L111 17.7 L112.2 20.6 L115.3 20.5 L118.7 17.4 L118.8 18.3 L118.9 19.2 L123.1 17.9 L125.8 18.7 L125.9 20.2 L128.2 18.9 L129.8 20.8 L131 19.6 L135.1 18.5 L135.7 15.7 L136.9 15.1 L139.1 16.6 L140 16.2 L140.5 15.8 L143.8 16.5 L144.4 16.2 L144.5 15.3 L146.8 16.9 L149.7 15.9 L150.2 16.2 L150.6 16.5 L150.6 18.6 L151.1 18.7 L151.7 18.9 L150.4 22.8 L150.9 24.8 L151.3 25.3 L151.9 25.6 L153.2 24.8 L156.6 25.6 L159.3 28.1 L156.5 33 L155.2 33.4 L152.4 36.6 L148.8 37.4 L145 43.7 L142.1 44.2 L141.7 45.2 L144.7 50.2 L144.2 53.7 L144.8 56.6 L143.9 59.2 L144.8 60.8 L143.7 63 L145.2 65.7 L143.2 68.5 L140 69.7 L139.3 71.1 L139.5 71.5 L139.7 72.6 L141.4 73.5 L143.2 76.4 L142.1 81 L140.3 82.8 L139.8 86.2 L127 86.6 L128 89.3 L130.8 92.4 L132.7 93.2 L132.5 97.1 L134.3 99.3 L134.5 101.6 L136.3 102.4 L136.3 104.1 L139.4 104.3 L140.7 105.6 L141 107.2 L138.8 110.6 L139 112.1 L137.8 113 Z"/>
  </g>
</svg>
