<svg xmlns="http://www.w3.org/2000/svg" viewBox="0 0 240 180">
  <g fill="#17324a" stroke="#fffaf3" stroke-width="3.2" stroke-linejoin="round" stroke-linecap="round">
  <path d="M86 151.3 L87.7 151.1 L90.1 149 L90.7 146.4 L89.9 136.9 L85 125.6 L86.1 119.1 L85.5 118.3 L83.1 116.8 L81.5 107.4 L82.2 105.6 L81.5 99.1 L82.2 93.6 L82.2 91.6 L80.9 84 L81.9 79.7 L82.1 77.8 L80.9 76.5 L83.3 73.3 L85.1 73 L87.2 76.9 L87.2 78.8 L89.6 79.3 L88.2 75.2 L87.8 73.5 L88.3 68.2 L87.7 66.9 L87 66.4 L85 66 L84 65.5 L85 64.3 L88.7 63.1 L89 62.6 L89.5 61 L89.9 60.7 L90.5 60.9 L92.2 62.8 L91.5 70 L92.3 71.9 L92.7 72.5 L93.3 73.1 L94.2 72.8 L95.2 66.2 L96.2 65.2 L98.8 66.2 L101.4 61.4 L98.9 62.4 L96.6 62.8 L94.6 62 L93.3 59.3 L93.2 57.9 L93.9 53.2 L95.2 51.5 L94.5 47.1 L95.8 47.4 L97.3 44.9 L97.9 45.3 L98.5 46.2 L98.8 47.3 L98.8 48.5 L100.1 47.6 L101 46.3 L101.2 44.6 L100.8 43 L100.1 43.6 L98.8 42.2 L99 40.1 L101.3 34.4 L101.7 32.4 L102 27.9 L103.8 29.3 L105.9 23.3 L107.7 20.7 L115.4 17.8 L119.3 12.1 L121 12.7 L122.8 12.1 L126.1 10 L133.3 13.9 L134.7 15.5 L134.8 22.1 L135.7 23 L137.4 23.7 L138.5 29.3 L139.9 30.6 L149.7 31.4 L153.9 34.6 L154.9 36.2 L155.6 37.9 L157.1 48.8 L157.1 50.2 L156.8 51.3 L156.1 51.8 L154.3 49.7 L152.6 52.3 L152.7 53.2 L153.5 53.9 L155.3 52.5 L156.7 54.8 L155.5 57.1 L153.7 57.8 L153.4 55.2 L152.1 55.6 L149 57.3 L153.4 60.7 L153 62.9 L151.8 63.8 L150.3 64.1 L149 64.8 L148.4 64.4 L147.8 64.2 L147.8 71.1 L146 73.9 L150.1 82 L149.7 93 L149.8 95.2 L150.3 96.3 L151.4 96.8 L156.7 97.6 L157.5 98.5 L158.3 100.5 L159.1 112.3 L158.1 122.6 L158.6 123.8 L155.3 132.6 L152.1 136.1 L151.2 138.6 L148.6 140.5 L146.2 149.5 L146.1 150 L145.6 151.1 L144.6 151.9 L144.1 153.8 L143.5 158 L137.9 162.5 L137.4 164.8 L134.2 169 L133.1 167.5 L134.7 162.5 L134 161.4 L132.4 161.2 L129.2 161.5 L129.1 159.7 L128.5 159.7 L123.4 161.6 L122.8 163.4 L116.7 168.4 L112 170 L106.9 170 L101.5 169.2 L96.9 167.3 L92.6 162.3 L86 151.3 Z"/>
  </g>
</svg>
