<svg xmlns="http://www.w3.org/2000/svg" viewBox="0 0 240 180">
  <g fill="#17324a" stroke="#fffaf3" stroke-width="3.2" stroke-linejoin="round" stroke-linecap="round">
  <path d="M71.3 23.6 L71.8 23.4 L72.2 23.2 L72.4 21.6 L74.2 22.4 L74.6 22.3 L75.6 21.6 L77.4 18.5 L84.9 22.8 L87.2 21.6 L92.3 22.2 L94 24 L97.6 23.1 L102.8 25.3 L106.9 23.4 L110 23.7 L112.5 25.3 L113.2 27.2 L116.2 28.6 L118.3 31.5 L122.5 30.4 L126.8 25.2 L148 22 L150.2 18.7 L151 14.7 L160 12.6 L163.1 13.4 L165.1 15.6 L165.8 15 L167.1 16.2 L166.4 17 L168.2 17.5 L169.4 21.6 L171.1 22.4 L170.9 24.4 L172.1 25.5 L172.1 26.9 L173.1 27.6 L172.3 28 L174 30.4 L173.7 32.1 L177.2 35.8 L178.2 38.8 L180.6 39.9 L180.5 42.7 L182 45 L184.3 46.1 L185.7 50.1 L189 53.7 L191.1 54.2 L192.4 56.2 L193.3 60.8 L196.2 67.6 L195.6 70.6 L196.2 74.4 L194.6 79.1 L193 80.9 L193.8 82.6 L192.4 87.9 L194.4 101 L191.9 102.3 L193.2 103 L193.7 103.5 L195.1 106.8 L196.7 107.5 L198.1 111.4 L203.9 113.9 L208.6 114.5 L208.9 114.3 L209.1 114 L208.1 113 L208.8 111.5 L212.1 112.9 L212.9 111.5 L221.2 107.4 L227 109 L229.2 111.8 L229.2 114.7 L228.2 115.2 L230 116.8 L228.1 126.8 L227 128.1 L218.2 129.1 L213.7 132.6 L213.1 130.7 L217 128.8 L216 126.4 L216.1 127.6 L215.1 127.8 L214.9 127.3 L214.8 126.7 L214.7 124.7 L214.9 124.1 L216 123.6 L216.3 123.2 L213.1 121.8 L210.7 124.1 L210.6 126.1 L212.6 128 L212 128.5 L212.5 130.1 L209 131.6 L208.7 133.9 L210.7 133.5 L211.2 133 L211.7 132.4 L211.3 131.7 L213.4 133.1 L212.3 134.5 L213.2 132.7 L212.6 132.4 L208.5 135.6 L208.9 134.8 L208.9 134.5 L208.1 134.7 L208.8 136 L207.9 136.3 L207.5 136.7 L208.5 137.2 L207.9 140.1 L212 134.9 L210.1 139.2 L205.2 145.1 L206.1 150 L205.1 150.5 L206.1 155.8 L203.9 164.3 L200.6 164.5 L195.6 163.6 L190.8 161.4 L190 160.7 L189 156.9 L188.4 155.9 L184 157.4 L181.9 154.7 L180.6 155.1 L176.1 155.2 L173.8 153.3 L173.1 151.6 L167.8 149.8 L167.2 150.2 L164.5 150.4 L162.3 151.8 L161.5 152.1 L147.4 155.3 L138.8 164.6 L130 167.4 L125.6 165.3 L122.6 165.1 L119.8 164.1 L114.9 164.4 L113.8 164.3 L108.3 162.3 L105.7 163.7 L100.9 163.9 L92.8 161.8 L91.4 160.9 L87.9 161.1 L85.4 159.7 L81.7 159.5 L72.3 161.2 L70.7 159.9 L70.7 159.1 L71.2 156.6 L71.5 155.9 L72 155.5 L74.7 154.6 L75.1 153.6 L74.9 152.6 L72 151.6 L67 148 L66.9 148 L66.7 145.5 L63.7 144 L62 140.4 L62.1 139 L63.6 138.6 L64.4 136.8 L67.2 137.5 L68.5 136.8 L68.7 136.2 L67.5 134.8 L64.5 133.9 L60.8 131.1 L58 133 L57.8 133.5 L55.2 138.4 L53.8 138.9 L50.7 133.6 L47.5 132.3 L42.9 132.7 L41.1 129.7 L36.8 129.2 L35.6 127.8 L35.7 127.4 L35.9 127 L40.1 125.9 L40.2 125.3 L40 124.7 L35.8 122.6 L37.4 121.2 L39.1 117.4 L37 115.5 L32.4 114 L30.9 112 L29.7 112.6 L27.2 111.1 L22.2 106.2 L23 104.5 L21.9 101.9 L22.6 97 L22.4 96.7 L22.2 96.5 L20.6 97.6 L17.7 92.5 L12.6 89.5 L10 85.1 L10.9 83.9 L14.7 83.8 L15.3 82.9 L18.3 84.4 L18.5 84.4 L19.8 84.1 L22.9 79.8 L28.4 81 L31 79.2 L31.8 75.9 L34.1 74.8 L34 74.1 L33.3 72.8 L34.6 68.5 L36.8 67.8 L39.3 65.2 L38.6 63.5 L39.6 61.2 L41.2 60.4 L41.3 58.3 L43.2 55.5 L42.3 54.5 L45.4 51.8 L47.7 45.3 L50.9 42.1 L51.1 38 L54.6 35.7 L57.2 31.1 L60.1 30.7 L61.4 28.9 L63.2 29.8 L65.7 29.5 L68.4 27.6 L68.6 26 L71.3 23.6 Z"/>
  </g>
</svg>
