<svg xmlns="http://www.w3.org/2000/svg" viewBox="0 0 240 180">
  <g fill="#17324a" stroke="#fffaf3" stroke-width="3.2" stroke-linejoin="round" stroke-linecap="round">
  <path d="M173.7 102.4 L173 101.6 L172.1 101.9 L171 100.2 L169.8 100.5 L169.3 99.8 L168.9 100.5 L167 96 L164.9 97.3 L165.1 96.5 L163.5 96.5 L163.3 95 L162.1 94.8 L157.3 96.6 L158 97.7 L156.7 99 L157.7 99.9 L157.2 100.6 L155.3 100 L154.1 100.7 L153.4 100.1 L153.3 100.8 L152.7 99.6 L151 99.3 L149.8 101.5 L148.9 101 L148.4 103.3 L150.1 105.8 L148.5 107.8 L149.3 112 L148 110.4 L144.4 109.3 L142.4 106.9 L143.6 106.2 L143.1 105.4 L144.1 104.9 L143.3 104.6 L144.3 104 L144.5 101.9 L141.8 101 L140.6 98.5 L139.4 98.9 L139.1 97.7 L140 97.2 L136.7 92.3 L137.1 89.6 L138.5 89.5 L137 88.6 L139.3 85.9 L138.3 84.9 L138.3 80.1 L137.4 79.2 L138.8 77.6 L145.1 80.1 L145.2 81.2 L143.6 82.1 L139.5 80.7 L141.3 82.2 L141.2 83.9 L143 84.8 L142.6 83.1 L144.8 83.9 L144.3 82.6 L145.7 81.5 L147 82.3 L147.1 79.6 L146.4 78.9 L148.4 79.5 L147.4 80.5 L148.3 81.2 L153.1 78.5 L152.9 79.5 L156 78.5 L156.6 79.3 L157.1 77.5 L162 79.4 L162.3 78.6 L160.8 77.8 L160.7 76 L162.5 73.7 L163.7 73.8 L164.5 74.1 L163.9 75.6 L165 79.2 L163.7 81.4 L162.1 81.2 L164.1 81.9 L165.7 80.1 L165.5 78.8 L166.7 78.5 L167.1 80 L168.3 80.3 L167.3 80 L167.5 78.6 L165.1 78.4 L165.4 76.5 L164.6 75.6 L165.9 74.7 L165.7 73.9 L166 75.7 L167.9 76.3 L166.4 75 L167.7 75.1 L167.6 74.5 L170.8 75.2 L170.2 76.1 L170.8 77.2 L171.1 75.3 L169.3 74.3 L169.2 73 L173 72.6 L172.4 73.1 L173 73.7 L172.5 73.1 L173.6 72.6 L172.4 71.7 L173.2 71.1 L177.8 69.9 L180.9 70.4 L180.4 69.5 L182.5 69.7 L181.6 69 L183.8 68 L185 68.5 L183.6 68.8 L185.7 69 L185 69.5 L187.9 69.2 L189.6 70.2 L188.7 70.3 L189.5 70.7 L189.1 71.3 L184.2 74 L187.8 72.9 L187.2 72.5 L189 72.5 L189.5 74.2 L189.7 73 L195.1 73.9 L196 72.7 L199 73.6 L198.2 74.2 L199.1 74.8 L198 74.4 L200 76.4 L201.1 75 L202.3 75.8 L205.6 75.6 L205 74.5 L206 73.8 L209.8 74.5 L208.5 75.3 L211.4 74.7 L210.9 75.3 L213.2 76.4 L217.1 76.2 L218.4 77.8 L218.2 79.1 L218.8 77.9 L220.2 77.6 L222.6 77.6 L224.3 78.8 L224.1 77.2 L230 78.5 L230 83.3 L226.6 83.7 L228.5 83.6 L229.5 86.6 L228.2 85.9 L224.1 89.5 L223.5 88.6 L221.6 89.6 L221.7 88.8 L220 89.3 L219 91.5 L219.8 92 L219.8 94 L219.2 93.7 L219.1 95.7 L217.8 96.3 L217.8 97.7 L216.8 97.7 L215.8 100.3 L215.1 95.6 L215.8 92 L216.8 91.8 L220.1 88.3 L220.3 86.6 L221.2 86.4 L219.8 86.3 L219.8 87.4 L217.9 88.7 L218 87 L215.7 87.5 L214.2 89.5 L214.7 90.4 L212.5 90.8 L213.1 90.3 L211.3 89.6 L211 90.3 L206.7 90.6 L202.6 95.5 L203.7 95.9 L203.5 96.8 L204.2 96.2 L203.9 97.1 L205.4 96.2 L206.5 98.8 L205.7 103.2 L201.4 110.2 L200.5 109.4 L199.8 110.6 L200 107.6 L201.3 107.4 L202.3 103.4 L200 104.2 L199.9 102.7 L197.9 101.6 L197.1 98 L195.6 97.1 L193.4 98 L193.8 99 L192 102 L189.7 101.1 L187.7 102.4 L186.3 102.2 L185.3 101 L183.1 101.2 L182.4 99.7 L180.4 98.8 L179.5 101.7 L176.4 100.3 L173.7 102.4 Z"/>
  <path d="M10 83.3 L10 78.6 L12.9 80.1 L13.4 81.8 L13.3 80.8 L14 80.8 L16.3 82 L15.2 82.3 L15.5 82.8 L14.4 82.5 L14.8 84.1 L14.2 84.3 L12.5 82.8 L10.9 82.8 L10.5 81.6 L10 83.3 Z"/>
  <path d="M154.8 71.7 L154.1 71.1 L156.7 70 L162.2 69.2 L155.6 71.8 L154.7 73.4 L152.8 72.7 L154.8 71.7 Z"/>
  <path d="M207.1 96.2 L208.5 103 L207.5 102.1 L207.1 104.2 L207.8 105.8 L207.2 105.3 L206.8 106.3 L207.1 96.2 Z"/>
  <path d="M151.4 75.2 L152.6 73.4 L154.5 73.4 L153.7 75 L155.2 76.5 L152.7 76.4 L153 75.6 L151.4 75.2 Z"/>
  </g>
</svg>
