<svg xmlns="http://www.w3.org/2000/svg" viewBox="0 0 240 180">
  <g fill="#17324a" stroke="#fffaf3" stroke-width="3.2" stroke-linejoin="round" stroke-linecap="round">
  <path d="M42.5 160.4 L41.1 158.9 L39.2 157.9 L36.5 157.6 L35.3 157.2 L32 155 L31.3 154.2 L31.9 147.3 L31.3 145.2 L28.5 143.2 L28.2 142.1 L28.5 140.9 L30.1 139.5 L28.3 133 L29 130.6 L30.3 129.6 L36.2 127.2 L40.5 120.3 L47.9 119.1 L51 116.6 L53.3 113.1 L54.7 108.8 L55.2 105 L55 101.8 L52.6 87.5 L52.4 84.2 L52.9 81 L62.2 64.3 L63.3 62.7 L67.7 59.1 L72.1 51.4 L80.9 50.4 L83.1 46.9 L86.2 43.7 L89.8 41.1 L93.4 39.8 L97 40 L98.9 39.9 L107.5 36.2 L111.2 37.8 L113.3 34.6 L114.1 34.1 L114.9 33.9 L116.7 34.5 L119.2 38.2 L120.7 45.7 L122.3 47.2 L124.1 47.7 L126 47.5 L135 43.1 L135.8 41.2 L137 40 L144.8 35.9 L146.5 29.8 L150.7 28.2 L154.7 24.3 L155.9 22.8 L157.5 18.8 L160.2 17.1 L162 10.7 L163.4 10.2 L168 11.1 L171.8 10 L173.2 10.4 L174.2 10.7 L172.5 13.5 L174.4 16.6 L173.6 18.2 L173.8 18.7 L174.6 19.3 L176.3 18.7 L177.4 19.5 L177.8 20.1 L178.1 22.4 L181.7 29.4 L181.8 33.5 L188.7 38 L198.2 41.5 L198.7 43.9 L198.6 46.2 L198.3 47.3 L197.8 47.8 L201.4 52.9 L202.2 56.1 L203.1 58.2 L204.5 59.3 L206.7 58.5 L207.3 60.4 L207.3 62.7 L206.1 69.8 L207.3 73.3 L206.3 75.8 L206.6 76.8 L207.3 80.4 L205.4 84.7 L206.1 86.3 L203.6 88.8 L206.3 89.2 L206.6 91.6 L205.4 96.9 L207.1 96.5 L208.7 97.3 L210.1 98.7 L211.1 100 L211.8 102.6 L208.7 112.7 L207.9 116.7 L208.3 122.9 L207.9 124.7 L207 126.4 L200.2 129.7 L193.7 126.8 L192.6 127 L191.5 127.8 L190.2 130.3 L189.2 131.1 L183.4 130.4 L181.7 131.4 L178.7 131.3 L175.7 129.9 L170.8 125.9 L169.4 123.4 L165.8 122.6 L164.3 123 L161.5 126 L160.2 126.6 L158.5 127.2 L156.7 127.5 L155.3 127.6 L150.3 125.9 L149.7 128 L145.7 133.1 L144.1 134.2 L142.1 134.2 L140 133.4 L138.1 132.2 L132.7 126.7 L129.4 126.3 L127 124.2 L126.3 123.8 L125.4 123.9 L124.5 129.8 L125.2 136.8 L123.2 143.6 L122.3 155.9 L117.3 163.3 L115.6 164.3 L113.7 164.6 L108.4 163.9 L106.2 168.1 L104.2 168.3 L102.5 168.1 L97.1 166.5 L86.7 170 L84.6 168.8 L81.3 168.2 L79.6 167.9 L71.8 170 L69.9 164.2 L71.6 160.7 L71.1 159.6 L69.1 157.7 L68.8 154.9 L67.7 154.1 L66.1 153.1 L64.2 152.7 L60.3 152.2 L51.4 149 L46.1 149.3 L44 151.3 L42.5 160.4 Z"/>
  </g>
</svg>
