<svg xmlns="http://www.w3.org/2000/svg" viewBox="0 0 240 180">
  <g fill="#17324a" stroke="#fffaf3" stroke-width="3.2" stroke-linejoin="round" stroke-linecap="round">
  <path d="M143.5 86.2 L150.1 90 L155.9 98.3 L155.9 106.7 L145.1 110.8 L139 106.6 L133.8 87.5 L124.2 81.5 L117.9 74.3 L113.4 72.7 L98.1 73.6 L91.9 72.7 L76.5 66.4 L55.7 53.5 L41.4 37.2 L45.3 20.7 L47.2 19 L48.5 18.1 L58.1 14.4 L60.2 12.9 L61.5 10 L109.8 39.1 L121.7 51.9 L130.1 72.7 L135.5 82.2 L143.5 86.2 Z"/>
  <path d="M168.3 118 L178.4 118.2 L187.1 121.2 L193.9 127.8 L197.8 138.8 L198.3 143.4 L198.6 155.2 L197.8 159.6 L195.3 165.8 L193.3 167.9 L184.5 170 L162 168.2 L155.2 149.6 L158.9 128.2 L168.3 118 Z"/>
  </g>
</svg>
