<svg xmlns="http://www.w3.org/2000/svg" viewBox="0 0 240 180">
  <g fill="#17324a" stroke="#fffaf3" stroke-width="3.2" stroke-linejoin="round" stroke-linecap="round">
  <path d="M144.4 57.2 L140.9 59.9 L136 57.6 L124 49.1 L122.5 43.2 L123 36.3 L125.7 31 L125.2 30.2 L124.2 28.2 L129.5 27.4 L131.8 22.8 L133.1 17 L135.6 12.4 L138.2 10.8 L140.5 10.1 L149 11.3 L149.8 12.7 L151 15.6 L152.9 24.6 L152.8 36.9 L150.2 49 L144.4 57.2 Z"/>
  <path d="M139.2 79.2 L136.4 81.9 L132.8 88 L129.7 90.1 L131.2 90.1 L129.7 91.6 L128.7 90.2 L127.1 89.2 L125.1 88.8 L122.9 88.9 L122.9 87.4 L125.8 88.3 L130.2 87.4 L130.3 85.8 L129 84.3 L128.4 83.3 L137.7 76.3 L139.2 79.2 Z"/>
  <path d="M114.6 140.1 L115.2 140.9 L115.6 142.7 L112.9 147 L111.8 148.2 L109.8 148.3 L108 147.6 L111.8 145.2 L111.4 143.4 L111.5 141.4 L113.3 140.2 L114.6 140.1 Z"/>
  <path d="M90.7 165.4 L93.1 166.9 L93.6 168.6 L92.4 169.5 L90.3 170 L87.9 169.8 L87.1 168.7 L87.9 165.6 L89.3 165 L90.7 165.4 Z"/>
  <path d="M139.6 113.1 L141.3 110 L142.9 110.3 L141.2 114.3 L140.4 115.5 L139.8 115.6 L139.6 113.1 Z"/>
  </g>
</svg>
