<svg xmlns="http://www.w3.org/2000/svg" viewBox="0 0 240 180">
  <g fill="#17324a" stroke="#fffaf3" stroke-width="3.2" stroke-linejoin="round" stroke-linecap="round">
  <path d="M105.1 62.2 L106.9 72.9 L108.3 74.8 L109.3 76.9 L108.5 80.7 L103.4 87.8 L103.2 97.3 L102.2 98 L98.3 98 L96.6 97.6 L89.3 92 L85.9 92.3 L77.7 95.2 L52.4 98 L47.9 93.3 L45.2 91.9 L43.9 90.8 L40.3 80.4 L34.5 77.2 L30.9 71.7 L28.8 69.1 L24.6 67.5 L22.9 66.2 L20.4 63.9 L19.3 60.4 L15.4 59.8 L13.5 57.5 L11 53.7 L10 50 L12.6 48.3 L18.2 48.3 L24.3 50.7 L29.9 50.8 L33.5 50.3 L37.4 48.2 L39.2 47.7 L42.8 47.3 L44.9 46.8 L49.3 44.5 L51.2 43.9 L64.1 43.9 L67.4 43.4 L74.3 41 L78.1 40.3 L81.7 40.3 L85.3 41 L88.8 42.6 L92.1 45.5 L101.6 56.4 L101.6 59.8 L105.1 62.2 Z"/>
  <path d="M209.3 122.3 L216.6 121.5 L224.8 125.6 L230 131.8 L228.3 137.1 L228.8 137.8 L229.5 139.5 L225.3 139.7 L213.8 138.5 L206.8 139.1 L203.6 138.8 L200.3 137.1 L197.6 138.6 L194.9 138.4 L189.7 137.1 L178.4 139.5 L176.9 139 L176 138.1 L175.6 136.7 L174.9 135.2 L164.5 131.3 L161.9 131.1 L155.4 132 L152.6 131.9 L150 131 L147.7 129.2 L144.2 123.7 L142.5 121.7 L141 122.3 L139.8 122.3 L137 118.2 L135.1 117 L131.4 116.5 L128 115 L127.6 111.4 L128.9 107.5 L130.8 104.9 L143.7 100.2 L157.6 98 L165.1 98.3 L172 99.9 L195.2 109.1 L202.3 109.9 L205.9 111.2 L208.8 113.4 L210.4 116.5 L208.4 120.4 L209.3 122.3 Z"/>
  </g>
</svg>
