<svg xmlns="http://www.w3.org/2000/svg" viewBox="0 0 240 180">
  <g fill="#17324a" stroke="#fffaf3" stroke-width="3.2" stroke-linejoin="round" stroke-linecap="round">
  <path d="M172.8 84.9 L174.4 86.7 L176.6 86.1 L177.6 87.2 L178.3 86.1 L179.2 86.6 L177.2 89.4 L179.9 89.9 L180.1 91.7 L189 103.3 L212.6 106.5 L212.8 106.5 L213.4 105.7 L217.6 113 L211.4 133.2 L183.7 143.3 L157.3 147.2 L148.3 151.9 L142.8 159.2 L141.5 162.7 L138.7 164.2 L137.5 164.1 L137.4 164.1 L134.9 160.8 L125 160.7 L119 159.2 L111.1 159.5 L108.8 160.5 L104.3 158.3 L102 160.3 L102.8 160.8 L101.6 162.7 L102.2 167 L101.3 166.9 L101 168.1 L98.5 170 L98.1 167 L96.3 164.8 L96.3 163.6 L94.5 161.8 L94.6 163.4 L94.1 159.1 L88.6 154.4 L86.5 151.2 L86 148.6 L83.9 146.4 L83.6 142.6 L82.3 141.4 L81.5 138.2 L79.8 137.1 L79.6 135.4 L78.8 135.6 L77.7 133.5 L73.5 130.3 L70.5 129.6 L65.1 121.9 L64.2 119.8 L64.9 119.1 L65 118.9 L64.5 115.4 L62.8 112.8 L63.5 112.8 L64.8 108.7 L64.1 109.1 L63.6 105 L61.6 102.7 L61.6 101.1 L58.4 94.7 L53.6 91.1 L53.7 90.4 L52.9 91 L48.9 88.8 L49.2 88 L46.3 83.9 L47.3 83.7 L47.1 80.4 L44.4 75.9 L42.1 74.3 L42.1 72 L40.4 71.1 L36 63 L27.9 51.8 L28.4 51.3 L23.7 50.4 L22.8 51.6 L22.4 50.7 L24.6 46.5 L25.9 38.1 L36.1 39.8 L40.1 36.7 L42.4 33 L49.3 31.6 L50.9 28.2 L54 26.5 L44.6 16.4 L63.1 11.3 L64.8 10 L76.6 12 L91.9 20.6 L116.2 39.7 L141.6 41.8 L143.7 46.4 L151.4 46.8 L152.4 50.6 L155 53.6 L154 54.7 L155 55 L154.5 55.8 L158.3 56.5 L159 57.5 L157.2 57.5 L158.5 57.8 L158.1 58.7 L159 58.5 L159.5 60.5 L161.4 60.1 L162.6 62.5 L166.8 65.4 L165.2 64.8 L165.6 67.2 L167.3 68.4 L166.6 71.8 L165.6 70.1 L165.2 72.2 L166.4 72.4 L167.7 75.9 L166.6 75.1 L169.7 77.9 L170.5 81.8 L172.8 84.9 Z"/>
  </g>
</svg>
