<svg xmlns="http://www.w3.org/2000/svg" viewBox="0 0 240 180">
  <g fill="#17324a" stroke="#fffaf3" stroke-width="3.2" stroke-linejoin="round" stroke-linecap="round">
  <path d="M197.4 79.9 L198.9 82.5 L200.4 82.9 L200.1 84.3 L200.9 84.8 L198.4 89.2 L198.9 93.9 L199.4 94 L202.7 95.2 L202.6 96.9 L205.2 98.5 L205.6 99.1 L206.9 102.1 L205.9 108.7 L208.1 111.5 L208.1 114.4 L207.5 116 L206.3 117.3 L203.3 119 L206.2 124.1 L210.9 128.1 L210.4 131.1 L212.8 133.5 L214.7 132.1 L215.9 129.8 L220.4 131.5 L222.4 134.9 L222 137.4 L223.3 140.6 L226.2 141.9 L225.9 142.7 L227.2 144.3 L226.6 146.2 L227.2 146.3 L227.6 146.1 L227.8 145.7 L227.9 145.1 L228.2 145.4 L228.4 145.7 L228.4 147.3 L227 147.6 L226.8 150.7 L227.7 151.8 L227.9 154.5 L225.8 156.6 L226.7 157.9 L226.6 160.7 L225.8 161.1 L225.6 161.3 L226.9 162.6 L227.4 161.8 L228 163.7 L228.2 163.2 L228.3 163 L228.8 163.6 L228.4 166.4 L223.9 165.4 L215.3 167.2 L209.5 165.9 L206.9 167.1 L203.1 166.3 L200 168.4 L194 170 L193.5 169.7 L192.5 168.1 L191.8 167.7 L190.3 167.1 L185.8 168 L183.9 165.6 L179.5 165.3 L174.5 161.6 L173.2 161.6 L172.1 164.1 L169.6 163.9 L168.5 162.3 L169.4 159.1 L169.2 158.4 L168.8 157.9 L133.2 156.5 L92.9 156.5 L85.8 160.9 L76.9 165.1 L75.7 165.4 L57.6 164.5 L50.9 168 L41.9 168.1 L40.6 168.5 L39.8 169 L37.1 165 L37.1 163.4 L37.2 163.1 L39.7 161 L40.4 161 L41.5 161.1 L45 158.1 L46.7 160.5 L47.7 159.3 L52.4 161.1 L54.6 159.3 L56.8 159.7 L57.6 159.2 L58 159 L58.7 160.1 L65.2 158.1 L67.6 160 L71.5 160.8 L75 159.6 L78.4 161.5 L82.8 158 L81.9 152.6 L83.9 152.3 L85.1 151.1 L85.8 151.8 L86.4 152 L86.9 151.6 L87 150.6 L81.4 152.2 L81.7 157.5 L77.8 160.8 L77.3 159.2 L76.2 158.7 L73.7 158.3 L72 159.4 L71.4 159.6 L70.4 158.8 L68.6 159.2 L65.9 157 L64.7 154.6 L63.8 157.2 L62.8 157.8 L60 158.8 L54.4 158.8 L52.4 160.6 L48.2 158.1 L49 156.6 L47.8 155.3 L47.5 158.3 L45.4 155.8 L43.8 157.1 L43.4 157 L43.1 156.7 L44.4 152.1 L42.5 155.4 L42.6 158.1 L38.8 160.3 L38.2 159.9 L37.9 158.9 L37.9 157.7 L38.1 156.4 L38.6 155.1 L40.8 154.3 L40.3 153.9 L39.6 153.7 L37.4 155.1 L38.3 152.2 L37.1 151.5 L38.8 148.2 L38.9 141.5 L40.5 139 L71.4 138.9 L71.9 132.5 L79.8 131.7 L82.5 130.6 L83.6 130.6 L87.4 131.4 L91 130.8 L92 130.1 L92.8 129.2 L93.6 125.1 L96 123.1 L102.6 127.8 L108.2 129.4 L110.3 131.6 L115.6 131.9 L123.1 136.1 L129 136.3 L132 134.4 L139.6 133.2 L141.4 132.4 L142.4 130.9 L142.5 129 L139.6 124.9 L136.5 123.5 L123.2 128.1 L119.5 125.6 L117 121.3 L115.5 120.6 L114 120.5 L110 122.2 L107.8 120.9 L107.1 118.5 L106.8 117.8 L105.1 116.2 L98.1 114.8 L91.4 117.6 L90.1 116.1 L88.5 115.9 L86.9 116.5 L83.9 119.4 L82.5 123.4 L45.7 123.3 L45.2 121.3 L47.5 119.6 L46.8 119.1 L47.5 117.7 L46.8 117.6 L46.4 119.4 L44.3 120.8 L42.9 119.3 L43.3 116.6 L45.1 114.1 L46.1 114.6 L46 114.4 L45.8 113.8 L47.1 113.6 L47.1 114.3 L47.4 115 L47.8 115.4 L48.3 115.3 L47.3 112.6 L48.3 108.1 L46.1 113 L43 113.8 L40.8 116.6 L39.3 114 L39.2 109.6 L41.1 108.5 L43 109.6 L44.3 108.3 L45.1 108.6 L46.3 106.8 L44.6 106.6 L47.7 103.9 L50.3 102.3 L51.2 102.9 L52.6 102.1 L48.9 101.1 L49.2 102.6 L47.4 102.7 L46.2 105.2 L42.4 108.1 L40 107.6 L42.5 104.6 L39.8 105.8 L40.2 106.3 L40.2 106.6 L38.3 109.6 L38.1 114.1 L37.2 104.3 L36.5 103 L36.2 102.6 L34.5 101.8 L33.5 98.2 L32.1 97.2 L31.7 94 L27.7 91.2 L25.3 86.3 L22.3 83 L18.5 81.3 L15.4 81.3 L14.6 81.8 L14.9 82.2 L15.4 82.3 L14.6 84.3 L11.2 80.6 L17.1 79 L18.8 77.6 L24.1 75.3 L34.5 63.2 L46.5 43.5 L49 28.9 L51.9 26.7 L53.9 17.9 L54.4 17.2 L55.1 16.6 L58.6 16.2 L60.8 15 L63.6 17.1 L69.1 16.3 L77.1 17.7 L79.3 16.2 L82.3 16.2 L84.4 14 L86.2 15.2 L96.4 14 L97.5 13.3 L96.6 11.8 L96.7 11.3 L97 10.9 L99.3 12.2 L101.7 10 L103.9 11.9 L115.1 12.3 L121.8 11.1 L124 12 L124.3 12.2 L124.3 13.8 L126.3 14 L126.7 15.2 L128.6 15.7 L136.9 22.9 L137.4 26.8 L140.5 28.4 L141.9 30.8 L145.7 28.3 L146 28.3 L146.4 28.3 L146 30.3 L147.8 31.4 L154.3 29.6 L153.7 31.8 L155.9 31.5 L160.3 37.8 L161.5 43.9 L163.4 45.8 L163.1 49 L165.2 48.8 L167.6 49.9 L168.5 53.7 L172.7 53.1 L174.3 58.4 L177.5 61.3 L175.5 61.8 L175.2 62.1 L175.4 62.6 L176.2 63.4 L176.5 63.6 L179 63.9 L179.2 66.4 L181.5 67.9 L184.8 68 L189.7 71.1 L191 75.1 L197.4 79.9 Z"/>
  </g>
</svg>
