<svg xmlns="http://www.w3.org/2000/svg" viewBox="0 0 240 180">
  <g fill="#17324a" stroke="#fffaf3" stroke-width="3.2" stroke-linejoin="round" stroke-linecap="round">
  <path d="M100.4 12.7 L103.7 18 L110 21.6 L113.7 27.8 L116 26.7 L115.3 33.1 L116.7 36.1 L115.7 38.2 L121.9 44.2 L125.5 46.1 L126.5 45.3 L129.4 48.4 L134.3 49.6 L136.8 51.8 L134.8 56.4 L132.7 57.8 L134.4 59.4 L137.9 60.7 L138.2 61.4 L138.1 62.2 L132.8 63.5 L132.6 64 L132.5 64.5 L134 66.2 L139.3 66.7 L141.6 70.4 L143 70.8 L144.5 70.8 L147.4 69.9 L151.4 71.6 L152.9 75.2 L155.3 77.9 L157 77.4 L160.3 71.4 L160.5 70.8 L164 68.5 L164.7 68.5 L165.3 68.6 L168.7 71.9 L169.7 72.4 L172 72.7 L172.4 73 L173.9 74.6 L172 76.3 L168.5 75.3 L167.6 77.5 L165.7 78 L166.8 83.1 L167.6 84.1 L168.6 85 L171.4 85.9 L171.7 89 L169.3 91.2 L168.9 95.7 L163.2 98.6 L161.8 106.1 L163.4 111 L165.4 113.1 L166.7 119.7 L172.7 123.2 L177.3 129.6 L180.2 130.8 L180.2 131.3 L180.3 131.8 L177.3 137.4 L174.2 139.7 L172.8 143.5 L171.9 143.9 L171 144.1 L168.8 143.5 L168 143.6 L164 146.5 L165.7 149.6 L164.5 151.9 L164 156.3 L167.2 160.1 L166.4 163.1 L164.8 164.2 L164.4 165.7 L163.9 166.3 L161.1 166.8 L159.4 164.5 L154.4 167.1 L152.4 167.2 L149.5 165.9 L142.2 170 L139.2 169.7 L137.5 165.7 L140.5 163.8 L140.5 161.3 L143.4 157.2 L144.7 152.3 L143.1 151.6 L140.8 152.2 L138.9 150.3 L133.5 149.3 L134.4 145.1 L130.1 143.5 L128.6 139.1 L126.8 139.2 L125.2 135.2 L123.2 135.1 L122.6 134.9 L117.8 132 L117.8 130.3 L118.2 130 L118.5 130.1 L117.8 128.9 L115.8 128.3 L111 130.9 L111.4 133.5 L112.8 134.5 L112.7 135.5 L112.1 136.8 L111.3 138 L110.7 138.6 L109.7 138.5 L106.7 141 L106.5 142.1 L107.9 143.9 L107.2 144.8 L105.8 145.4 L103.4 145.9 L103.2 142.7 L101.4 141.8 L99.9 140.6 L96.8 139.9 L91.3 134.3 L87.7 135.3 L85 132.2 L81.7 131.8 L75.1 123.3 L69.8 120.5 L69.4 119.4 L69.3 118.2 L71.6 115 L74.3 114.2 L76.2 117 L76.5 116.6 L76.8 115.7 L78.5 116 L78.1 113.9 L78.3 113.4 L79 112.6 L77.7 108 L70.9 100 L71.3 98.2 L73 97.9 L74.9 99.4 L78.9 99.3 L79.6 99.2 L80.3 99 L82.3 96.9 L82 96.1 L81.7 95.8 L81.1 96.2 L79.4 94.9 L77.8 92.1 L77.1 92.5 L75.3 91.1 L73.7 87.6 L68.8 86.4 L68.3 85.7 L67.6 84.3 L68.4 80.8 L68 77.2 L69.1 76.9 L69.3 76.7 L73.5 69.2 L75.2 62.8 L73.3 61.2 L70.1 61.4 L69.7 60.6 L64.7 63.1 L64.1 62 L64 61.1 L66.2 61.5 L68.1 59.6 L66.8 58.6 L66.6 54.2 L65.6 52.1 L68.3 51.8 L67.8 49.7 L70.8 51.1 L72.6 50.4 L75.6 50.8 L76.1 49.4 L75.8 48.6 L68.9 46.5 L67.3 45.5 L66.7 43.9 L63.6 42.6 L63.5 41.8 L65.2 40.8 L64.7 40.1 L64.3 39.7 L64.5 37.4 L64.8 37.5 L66.5 37.7 L67.3 36.9 L64.8 34.6 L62.5 35.8 L61.4 34.4 L61.7 32.5 L63.3 30.5 L59.8 24.8 L60 22.9 L61.5 22.4 L60.5 21.3 L61.4 19.9 L63.9 20.2 L63.6 19.2 L65.7 18.5 L65.7 17.3 L66.1 16.6 L66.8 16.3 L67.5 16.5 L68.6 17.7 L71.1 18 L71.9 17.8 L72.6 16.4 L75.3 15.7 L77.5 13.9 L78.8 12.7 L78.4 11.6 L80.3 10.4 L83.7 10 L87.3 11.8 L91.3 10.4 L93.2 10.6 L94.4 11.3 L96.2 10.8 L98.9 11.4 L100.4 12.7 Z"/>
  </g>
</svg>
