<svg xmlns="http://www.w3.org/2000/svg" viewBox="0 0 240 180">
  <g fill="#17324a" stroke="#fffaf3" stroke-width="3.2" stroke-linejoin="round" stroke-linecap="round">
  <path d="M197.6 88.6 L197.6 91.3 L196 97.7 L195.1 99.6 L195.7 104.3 L192.4 106.4 L184.9 107.3 L184.2 108.3 L183 110.5 L180.7 112.1 L180.5 125.8 L174.6 129.1 L166.6 138.7 L161.9 140.6 L154.2 146.7 L153.3 147.9 L150 152.2 L144.4 154.7 L141.5 158.6 L142.5 161.4 L140.5 162.3 L140.7 163.4 L140.6 164.2 L140.3 165.1 L139.8 166 L138.4 166.8 L138.1 167.7 L138.3 169 L137.9 169.2 L136.2 170 L131.3 167.6 L130.5 166.9 L131.5 166.2 L128.7 166.5 L124.8 162.3 L117.5 158.1 L83.2 145.5 L84.8 144.2 L86.7 144.1 L88.6 144.8 L90.3 145.5 L87.8 143.4 L84.1 142.7 L84 142.2 L84.4 141.2 L87.2 138.1 L91.9 137.7 L93.1 138.4 L97.3 137 L97 136.3 L99.6 135.5 L99.8 134.5 L96.1 134.3 L95.4 135.3 L89.2 137.2 L85.4 136.6 L83.9 133.8 L84.3 132 L82.6 132.3 L82.6 133 L81.3 131.8 L81.9 130.1 L83.9 127.3 L85.4 127.7 L85.1 127 L85 126.3 L85.3 125.7 L86 125.6 L85 124.8 L84.1 125.7 L82.6 128 L80 129.6 L78.3 130.2 L72.7 128.8 L69.3 126.5 L68.8 125.6 L68.6 124.6 L70.2 123.1 L69.3 123.2 L66.7 124.3 L61 119.7 L59.9 118.4 L61 118.2 L62.7 117.2 L67 118.1 L63.6 115.1 L62.4 112.2 L64.2 108.4 L62.6 108.2 L60.7 105.2 L58.8 104.1 L59.3 100.6 L53.2 102.1 L49.4 104.9 L49.4 99.5 L43.1 91.7 L44.1 89.7 L43.1 87.8 L47.9 88.4 L50.4 91.4 L54.7 94.4 L55.7 94.3 L56.1 94.2 L54.6 93 L55.1 92.1 L51.4 90.5 L51.9 89.2 L55.8 86.4 L56.5 86.7 L57.2 84.6 L62.6 85.3 L64.5 84.2 L61.4 83.5 L64.2 78.2 L61.1 82.2 L54.7 83.5 L53.8 83.2 L53.3 82.5 L56.5 79.9 L55.1 79.2 L53.6 81.7 L49.7 78.9 L49.5 79.8 L51.5 81 L50.8 81.4 L52.2 82.4 L52.3 83.6 L51.6 84.7 L50.5 85.6 L50.4 86.9 L49.9 87 L49.5 86.9 L45.4 78.8 L45.5 70.9 L46.9 69.2 L47.5 69.1 L48.3 69.9 L58.6 69.2 L51.1 68.9 L49.7 67.8 L50.5 66.1 L54 65 L48.5 65.8 L47.2 65.5 L46.2 64.8 L45.9 63.5 L45.5 64.3 L44.7 63.5 L44.1 64.3 L43 63.4 L43.2 60.9 L42.4 60 L42.4 59.6 L47.2 57.8 L51.9 59.5 L56.4 56.8 L58.7 52.8 L59.9 52.5 L59 50.7 L59.2 49.2 L60 47.6 L61.1 46.9 L62.1 47.9 L66.3 47.1 L67.1 46.4 L68.4 44.4 L69.3 43.9 L70 43.7 L70.2 41.9 L73 40.3 L76.4 31.1 L78.1 30.6 L78.3 30.1 L78.3 27.9 L82.4 23.6 L82.8 17.5 L83.1 17.1 L85 16 L96.2 13.5 L99.3 15.7 L102 16.3 L103.6 15.9 L113.3 13.8 L113.7 13.4 L113.9 10.2 L148 10.1 L151 11.2 L152.5 16.4 L156.3 18.8 L158.4 20.9 L162.3 27.8 L163.8 28.5 L164 28.9 L164.4 30.3 L166.6 32.2 L166.8 32.7 L167 34.1 L168.3 35.2 L168.2 38.1 L170.4 40.6 L169.9 40.9 L169.4 41.4 L172.8 41.8 L177.4 45.9 L176.9 50.1 L174 53.3 L173.4 55.6 L173.8 57.4 L179.8 58.1 L181.7 59.3 L180.7 64.7 L181.3 71.4 L187.4 78.8 L187 79.9 L186.3 81 L183.1 81.9 L179.7 86.1 L177.7 93 L174.3 98.9 L175.4 99.8 L175.7 98 L176.8 97 L178.2 96.5 L182.7 98 L188.5 93.4 L192.1 88.4 L192.9 88.1 L194.5 87.8 L197.6 88.6 Z"/>
  <path d="M83.9 136.3 L83.3 136.6 L83.5 139.7 L82.2 141.6 L82.6 144.8 L81.9 145.4 L81 145.5 L80.2 145.2 L79.7 144.5 L80.8 144.5 L78.1 140.9 L60.3 135.9 L62.3 135.4 L63.8 133.8 L77.3 132.5 L78.4 132.6 L79.4 133 L78.6 133.9 L79.1 134.2 L81.1 134.1 L82 134.4 L83.9 136.3 Z"/>
  </g>
</svg>
