<svg xmlns="http://www.w3.org/2000/svg" viewBox="0 0 240 180">
  <g fill="#17324a" stroke="#fffaf3" stroke-width="3.2" stroke-linejoin="round" stroke-linecap="round">
  <path d="M204.2 69 L219.2 72.4 L227.6 75.5 L230 79.3 L223 90.9 L212.7 103.3 L200.3 113.3 L186.7 117.3 L171.7 118.9 L159.9 123.5 L138.7 138 L135.2 141.3 L133.4 143.3 L130.3 144.7 L122.5 145.9 L107.7 145.6 L100.4 143.7 L97.3 140.1 L92.1 131.8 L79.5 126 L64.4 122.5 L51.4 121.1 L25.1 121.7 L14.4 119.1 L10 110.7 L12.6 101.2 L30.7 75.5 L33.3 64.1 L36.3 57.6 L43.1 50.7 L51.2 45.8 L57 44.8 L70.2 46.6 L83.8 44.8 L100.7 36.8 L109.7 34.1 L125.8 35.1 L141.4 40.2 L187 62.9 L204.2 69 Z"/>
  </g>
</svg>
