<svg xmlns="http://www.w3.org/2000/svg" viewBox="0 0 240 180">
  <g fill="#17324a" stroke="#fffaf3" stroke-width="3.2" stroke-linejoin="round" stroke-linecap="round">
  <path d="M29.4 159 L29.4 159 L28.1 158.7 L25.7 156 L26.1 153.1 L24.2 150.9 L37.1 149.6 L34.2 145.5 L37.6 145.2 L40.4 146.7 L43.7 146.4 L47 141.6 L44.4 139.8 L38.9 130.4 L34 128.2 L33.4 127.6 L30.6 125.5 L25.1 123.7 L24.6 122.7 L24 121.6 L24.2 118.1 L28 107.9 L26.8 106 L20.1 107.8 L16.7 103.9 L18.7 101.9 L18.2 100 L19.8 97.8 L21 96.9 L27.5 91.9 L29.5 88.2 L29.3 87.2 L29 86.3 L23.5 85.9 L21.4 83.8 L20.1 82.9 L18.2 82.5 L17.2 82 L15.1 81.8 L14 81.5 L15 83.2 L13.1 83.5 L10 75.2 L11.8 74.1 L14.8 68.8 L21.5 65.4 L26.4 59.9 L31.8 58.9 L33.4 52.1 L34.5 52.2 L39.1 53.3 L46.7 52.9 L53.1 55.9 L59 56 L64.7 60.1 L79.6 60.6 L82 60 L85.8 62.7 L87 62.9 L89.4 62.3 L92.1 66.3 L93.3 65.8 L95.5 60.7 L101.8 58.2 L103.9 54.8 L107.5 54.5 L109 53.8 L109.4 53.4 L112.6 45.6 L113.7 43.9 L114.6 43.5 L117 43.5 L118.5 42.5 L119.5 41.9 L120.5 42.1 L121.9 44 L124.5 40.3 L128.5 39 L138.5 40.1 L147.4 39.6 L151.3 39.4 L156.5 42.5 L158.6 42.2 L162.3 36.8 L168 35.9 L168.6 32.2 L169.7 32.8 L175.1 33.6 L181.6 31.6 L183.6 31.5 L185.5 31.8 L190.3 34.2 L193.1 34.7 L193.9 35.3 L195.2 36.9 L195.2 36.9 L195 34.6 L194.2 33 L192.8 32.1 L192 29.6 L192.7 21.1 L200.6 17.5 L203.1 18.1 L203.5 18.2 L206.5 18 L213 17.4 L215.1 19.5 L215.7 19.8 L216.7 19.9 L217 20.4 L216.9 21.3 L214.8 26.3 L217.3 31.7 L218 32.5 L219 32.3 L219 34 L222.3 35.2 L222.7 37.1 L219.7 39.7 L229 49.6 L230 53.9 L228.3 52.6 L227.6 52.2 L224.8 52.2 L222.4 50.1 L219 49.4 L218.6 50.1 L218.5 50.1 L218 49.4 L212.4 52.5 L212.2 52.7 L210.4 54.8 L211.5 63.7 L213.5 65.4 L213.3 66.9 L208.6 67.5 L204.1 64.7 L201.4 66.8 L198.1 66.4 L198.2 71 L195.4 74.4 L190.4 75.8 L185.7 78.4 L181.3 78.7 L176.5 83.2 L171.5 82.9 L170.4 82.8 L168.9 83.6 L167.9 84.8 L165.4 90.5 L165.4 93.1 L166.3 95.3 L167.7 96.8 L171.9 99.3 L172.6 100.3 L172.9 100.8 L171.3 105.2 L171.4 112 L170.2 115.7 L171.4 120.5 L167.9 122.6 L160.7 122 L158.1 123.6 L155.7 123.1 L154.9 123.5 L155 126.5 L154.2 127.1 L145.4 130.1 L142.6 131.7 L142 132.4 L141.7 134 L143.9 136.7 L144.6 137.2 L145.5 137.5 L147.3 136.3 L150.3 140.8 L144.9 142.2 L144.5 143 L144.3 143.8 L143.8 144.2 L142.9 144.6 L144.9 152.6 L145.9 154.3 L149.4 156.7 L146.9 159.7 L146.1 159.9 L143.8 159.8 L139.9 161.3 L137 162.4 L133.9 161.9 L128.8 157.5 L128.1 156.9 L124.7 156.8 L118.8 153.4 L117.5 153.4 L117.2 155.6 L115.9 157.9 L112.9 159 L110 158.4 L108.9 155.6 L101 151.5 L101.1 148.4 L96.4 144.5 L95.7 138.4 L94.9 138 L93.2 139.1 L89.2 145.2 L87.1 152.3 L80.4 157.1 L77.2 157.4 L69.6 155.2 L67.8 155.7 L64.5 157.3 L60.8 157.5 L55.3 154.1 L53.5 153.7 L52.4 153.5 L51.6 155.6 L53.1 157.4 L46.6 162.6 L42.8 162 L41.7 161.7 L40.8 160.7 L37.5 158.6 L30.6 158.9 L29.4 159 Z"/>
  </g>
</svg>
