<svg xmlns="http://www.w3.org/2000/svg" viewBox="0 0 240 180">
  <g fill="#17324a" stroke="#fffaf3" stroke-width="3.2" stroke-linejoin="round" stroke-linecap="round">
  <path d="M111.9 101.9 L108.5 103.9 L102.2 101.5 L93 101.1 L90.8 99.4 L88.4 95.6 L89 95.1 L88.7 91.4 L91.2 90.7 L94.9 94.1 L103.2 93.7 L108.1 97 L109 99.2 L111.2 99.8 L111.9 101.9 Z"/>
  <path d="M122.2 97.7 L118.7 93.1 L116 91.8 L112.7 88.6 L108.6 78 L109.9 77 L107.5 73.7 L107.2 72.9 L107.6 72.6 L109.8 73.3 L109.5 72.3 L110.7 72.4 L115.4 78.3 L114.2 79.7 L114.2 82.1 L118.2 84.7 L119.7 87.7 L119.2 88.4 L120.7 89.3 L120 89.6 L120.6 91.3 L119.8 91.3 L122.6 95.6 L122.8 97.1 L122.8 97.5 L122.2 97.7 Z"/>
  <path d="M93.4 76.2 L93.9 77.2 L92.7 76.8 L89 73.2 L75.9 67.2 L69 61.5 L69 59.8 L66.4 57.2 L72.2 58.4 L78.6 64.4 L80.9 64.5 L82.7 66 L84.7 65.9 L93.1 72.6 L91.4 73.9 L92.6 74.4 L93.4 76.2 Z"/>
  <path d="M141.6 121.1 L136.6 121.1 L130.5 119.4 L126.3 115.9 L125.3 116 L125.1 112.2 L120.7 111.4 L121 109.1 L124.9 110 L131.3 113.8 L136.6 114 L140 118.5 L139.6 120.9 L141.6 121.1 Z"/>
  <path d="M48.8 53.3 L47.2 55.2 L44.8 54.4 L44.7 53.4 L43.9 54 L40.9 53.5 L39.7 52 L38.9 52.3 L32.6 44.8 L28.3 41.7 L28.1 39.7 L29.6 39.1 L39.4 44.8 L40.9 46.5 L42.2 50.3 L46 53.1 L48.4 52.7 L48.7 52.9 L48.8 53.3 Z"/>
  <path d="M53.9 77.2 L54.1 78.2 L53.1 76.5 L49.7 74.7 L49.4 72.5 L49.8 73.8 L50.7 73.8 L49.1 71.3 L45.4 71.5 L44.3 72.8 L43 72.4 L42.9 70.6 L42.9 70.5 L44.7 69.9 L45.9 66.9 L47.4 65.7 L50.2 66.4 L50.9 70.9 L52.9 70.7 L54.7 72.8 L56 75.8 L55.6 77.6 L53.9 77.2 Z"/>
  <path d="M34.9 60.8 L32.9 64 L33.1 65.1 L32.1 65.1 L31.3 62.6 L29.3 60.8 L29 59.9 L29.1 59.1 L31.1 57.9 L33 60.2 L34.9 60.8 Z"/>
  <path d="M40.6 68.7 L39.6 68.8 L38.6 67.9 L37.9 66.8 L37.6 65.9 L38.6 63.8 L39.2 63.6 L39.9 63.4 L41.9 64.5 L42.3 65.3 L42.5 66.3 L41.8 68.9 L40.6 68.7 Z"/>
  <path d="M105.8 138.8 L106.9 139.5 L107.3 139.9 L105.4 140.9 L101.3 136.8 L99.3 137.2 L97.7 136 L96.6 136.2 L95.5 134.3 L96.2 133.5 L97.8 134.1 L105.8 138.8 Z"/>
  <path d="M58.9 76.5 L60.3 76.8 L59 78.1 L60 78.2 L60 79.2 L58.7 80.8 L57.3 81.1 L55.5 79.6 L55.8 77.2 L56.9 77.5 L56.9 76.5 L58 76 L58.3 77 L58.9 76.5 Z"/>
  <path d="M213.9 118.6 L212.2 120 L209.8 120.2 L209 121.1 L208.5 122 L208.1 120.9 L206.4 120.9 L206.4 120.1 L206.4 119.7 L207.3 118.9 L207.7 119.9 L208.8 117.8 L213.9 118.6 Z"/>
  <path d="M122.8 93.7 L122.1 92.2 L123.4 93.4 L125.7 97.4 L125.8 101.1 L124.6 99.1 L123.9 99.9 L122.8 98.3 L122.8 93.7 Z"/>
  <path d="M45.5 77.5 L44.9 78.9 L46.5 80.3 L45.9 80.4 L42.5 77.2 L45.3 74.3 L46.5 75.4 L45.5 77.5 Z"/>
  <path d="M15.9 47.2 L16.9 47.8 L16.6 48.8 L13.2 48.6 L14.3 46.2 L15.9 47.2 Z"/>
  <path d="M228.8 137 L230 138.3 L227.3 138.4 L225.8 136.5 L227.8 135.9 L228.2 136 L229 136.3 L228.8 137 Z"/>
  <path d="M98 86.8 L97.6 86.4 L98.9 85.5 L101 85.8 L101.9 86.9 L101.2 88.2 L98 86.8 Z"/>
  <path d="M31.1 67.7 L31.2 69.6 L30.5 69.9 L29.6 65.3 L30.5 65.6 L31.1 67.7 Z"/>
  <path d="M90.1 76.1 L89.8 76.8 L88 75.9 L87.2 74.7 L87.4 74.1 L87.6 73.8 L89.1 73.7 L90.1 76.1 Z"/>
  <path d="M101 88.8 L102.1 86.9 L104 88.2 L103.1 89.3 L100.5 89.4 L101 88.8 Z"/>
  <path d="M80.1 86 L80.3 86 L80.7 86.1 L80 87.4 L79.8 87.7 L78.8 88 L77.7 87 L79.1 86.2 L78.7 85.6 L80.1 86 Z"/>
  <path d="M50.4 80.5 L50.8 80.7 L51.1 81.1 L50.4 81.7 L47.3 80 L49.3 79.7 L50.4 80.5 Z"/>
  <path d="M67.1 58.7 L67.8 59.6 L65.6 58.7 L65.6 58.9 L65.8 59.3 L64.7 59.2 L63.8 58.1 L67.1 58.7 Z"/>
  <path d="M62.2 81.3 L62.7 81.5 L62.7 81.7 L61.4 82.5 L60.7 81.7 L61.8 79.4 L62.2 81.3 Z"/>
  <path d="M53.5 54.8 L53.9 56 L51.6 55.5 L51.8 55 L52.4 54.3 L53.3 54.6 L53.5 54.8 Z"/>
  <path d="M221.8 130 L221 130.6 L220.3 129.3 L221.5 128.7 L221.8 130 Z"/>
  <path d="M21.7 45.2 L22.4 45.5 L20.3 46.5 L20.9 43.2 L21.7 45.2 Z"/>
  <path d="M42.6 71.9 L40.5 69.3 L42.2 69.9 L42.6 71.9 Z"/>
  <path d="M134 102.2 L133.1 99.7 L134 99 L134 102.2 Z"/>
  <path d="M64.8 57.5 L62.9 55.9 L65.8 56.8 L65.8 57.7 L65 57.6 L64.8 57.5 Z"/>
  <path d="M11.2 53.1 L11.7 54.3 L10 54.1 L11.2 53.1 Z"/>
  <path d="M41 71.6 L41 72.5 L39 70 L40.5 70.2 L41 71.6 Z"/>
  <path d="M50.3 54.7 L50.5 55.6 L47.7 54.8 L50.3 54.7 Z"/>
  <path d="M80.7 86.8 L81.5 86.1 L81.5 87.2 L80.3 88.4 L80.7 86.8 Z"/>
  <path d="M63.2 54.8 L62.5 56 L61.5 55.3 L63.2 54.8 Z"/>
  <path d="M129.5 110.4 L129.3 109.1 L129.7 109.4 L130 110 L129.5 110.4 Z"/>
  <path d="M97.6 86.1 L97.9 84.5 L98.3 85.6 L97.6 86.1 Z"/>
  <path d="M92.8 89 L92.9 87.7 L92.8 89 Z"/>
  <path d="M35 67.3 L35 67.7 L35.2 67.6 L35.6 68.4 L35.1 68.4 L34.5 67.9 L34.6 67.3 L35 67.3 Z"/>
  <path d="M215.9 110.2 L215.7 109.3 L215.9 110.2 Z"/>
  <path d="M230 136.4 L230 136.6 L229.9 136.9 L229.6 137.1 L229.2 137.2 L229.1 137 L229.2 136.7 L229.5 136.4 L229.8 136.4 L230 136.4 Z"/>
  </g>
</svg>
