<svg xmlns="http://www.w3.org/2000/svg" viewBox="0 0 240 180">
  <g fill="#17324a" stroke="#fffaf3" stroke-width="3.2" stroke-linejoin="round" stroke-linecap="round">
  <path d="M123.2 73.7 L140.8 56.7 L152 39.7 L152 18.7 L157.8 17.5 L159.4 16.2 L167.5 14.7 L170.2 12.7 L170.9 10.9 L173.6 10 L179.4 11.8 L176.9 17.6 L177 19.4 L178.2 19.9 L177.3 21.6 L177.9 26.3 L176.1 28.2 L178.6 28.1 L178 26.7 L180.9 28 L180.4 29 L178.8 28.3 L175.1 29.4 L173.7 37.6 L174.1 39.8 L169.3 46.6 L165.4 54.8 L162.3 57.4 L162.3 59.5 L155.6 70.5 L153.5 75.4 L153.5 77.4 L151 82.1 L140.5 98.1 L127.5 112.4 L118.1 121.7 L106.1 128.3 L91.9 139.4 L73.1 159.6 L71.9 160 L71.4 161.5 L70.8 161.8 L70.6 160.6 L70.9 162.1 L69.9 164.3 L69.2 163.8 L69.3 164.9 L65.8 170 L65.8 168.8 L59.3 160.3 L59.3 116.9 L63.5 112.7 L70.3 102.6 L72 101.4 L80.9 99.9 L84.2 95.8 L94.1 92.2 L105.4 92.7 L123.2 73.7 Z"/>
  </g>
</svg>
