<svg xmlns="http://www.w3.org/2000/svg" viewBox="0 0 240 180">
  <g fill="#17324a" stroke="#fffaf3" stroke-width="3.2" stroke-linejoin="round" stroke-linecap="round">
  <path d="M227.2 149.3 L226 149.3 L224.6 149.3 L224.6 148.2 L223.9 148.2 L223.4 148.5 L223.2 149.9 L221.6 149.3 L221.5 149.3 L219.9 146.3 L220.8 144.1 L219.4 143.7 L217.6 143.7 L218.3 142.2 L217.9 141.8 L204.4 146.6 L199.2 149.3 L183 165.2 L177.1 165 L174.1 162.8 L169.7 164.9 L162.7 165.6 L159.4 167.6 L159.1 167.9 L159 169.6 L154.7 168 L154.2 166.1 L152 164 L150.3 165.9 L147.3 167 L143.1 164.8 L140.3 164.6 L136.8 166.5 L134.9 170 L133.2 166.6 L129.8 168 L129.2 163.1 L123.1 161.5 L121.8 158.8 L118.2 156.1 L118 154.6 L115.8 153.9 L115.9 150.5 L111.2 148.5 L109.6 148.6 L108.8 151.3 L105.5 154.4 L101.2 151.6 L97.6 151.7 L97 150.5 L93.4 153.8 L89.8 155.5 L88.8 154.2 L86.5 154.3 L85.1 152.5 L84.2 153 L83.5 150.6 L79.2 149.7 L78.8 146.4 L77.6 146 L76.8 144.3 L75.2 144.1 L74.8 144 L70.2 138.1 L69.1 134.7 L69.9 131.7 L69.1 131.6 L67.4 128.2 L61.8 125.9 L61.1 124.3 L56.8 123.4 L56 122.1 L54.7 122.7 L56.2 120.2 L52.2 116.9 L51.9 115.4 L53.8 112 L48.6 108.8 L47.4 105.7 L35.3 99.5 L32.3 96.5 L31.8 95 L33.9 93.6 L33 90 L29.3 88.8 L25.2 84 L19.9 83.5 L18.5 82.3 L16.6 82.8 L13.4 81.5 L13.1 79.3 L15.2 76.7 L14.5 75.8 L14.9 74.8 L13.8 74.3 L17.5 71.8 L20.7 71.2 L23.1 61.8 L25.1 59.2 L25 54.3 L25.1 54 L28.4 51.2 L30 45.6 L43.8 42.9 L45 44.1 L45.2 47.3 L47 48.2 L58.3 60.2 L66.6 57.8 L81.4 58.1 L83.2 61.9 L84.1 62.9 L91.3 63 L98.6 63 L98.7 60.4 L101.6 57.9 L110.2 55 L111.8 53.5 L112.6 52.2 L112.6 49.6 L119.9 45.7 L124.1 48.4 L128.4 51.1 L133.2 55.5 L133.5 55.7 L140.8 55 L149.9 46.7 L153.5 42 L154.7 39 L154.9 38.6 L163.8 30.8 L162.3 26.7 L162.3 19.4 L162.2 19.3 L157.4 14 L163.5 13.9 L169.5 13.9 L169.2 10 L177.9 10.1 L176.5 19.9 L175.6 21.3 L177.4 35.2 L176.7 37.1 L181.2 38.9 L190.8 47.4 L191.8 53.4 L191.7 53.6 L190.5 55.9 L190.1 59.8 L190.4 60.6 L190.5 60.6 L193.6 60.6 L194.3 75.8 L191.4 79.4 L187.6 80.6 L185 78.8 L178.4 79 L177 80.7 L177.9 82.7 L177.5 84.7 L173.9 88.8 L175 91 L178.5 91.3 L180.4 92.5 L182.5 91.9 L187.1 93.6 L192.4 98.1 L192.8 101 L195.6 102.6 L195.9 104.5 L197.6 106.2 L197.7 106.2 L200.2 106.8 L201.4 107.7 L201.6 107.9 L202 110.4 L205.1 111.4 L207.6 119.4 L209.7 122.8 L210 126.5 L212.2 130.9 L215.2 132.9 L215.9 135.8 L219 134.4 L225.1 136.6 L224.2 145.9 L224.7 146.6 L227.2 149.3 Z"/>
  </g>
</svg>
