<svg xmlns="http://www.w3.org/2000/svg" viewBox="0 0 240 180">
  <g fill="#17324a" stroke="#fffaf3" stroke-width="3.2" stroke-linejoin="round" stroke-linecap="round">
  <path d="M132.4 10 L139 24.6 L149.1 37.9 L149.3 39.8 L155.5 49.6 L156.6 54.1 L157.8 55.7 L157.4 57.4 L158.9 65.8 L157.7 69.2 L158 75.9 L156.8 77.9 L156.7 81.4 L157.9 84.5 L156.7 86.2 L158.4 87.6 L160.8 84.9 L161.6 86.9 L158.2 98.1 L158.4 101.7 L157.4 102.9 L156.5 101.1 L156.2 106.4 L154 107.5 L152.2 112.3 L150.4 112.4 L150 114.1 L149.1 113.3 L148.1 115.1 L147.5 114.6 L147.5 114.9 L147.6 115.5 L146.6 115.4 L146.6 112.8 L145.3 114.5 L145.3 113.9 L145.3 113.3 L144.8 114.5 L144.2 114.4 L142.6 114.4 L142.5 113.9 L142.3 113.6 L142.1 114.4 L141.9 114.5 L140.4 114 L140.4 112.7 L140.3 112.6 L139.9 113.4 L138.5 112.6 L138.1 110.6 L137.5 111.6 L139.1 115.2 L135.9 113.8 L133 115.4 L132.6 116.7 L134.9 115.4 L135.4 115.3 L135.4 115.9 L135.6 116.2 L135.1 117.2 L133.7 117.4 L134 120.1 L135 120.1 L134.7 120.7 L134.1 121.5 L133.6 121.6 L132.8 121.6 L133.6 120.9 L132.1 120.7 L131.8 120.6 L131.7 118.4 L131.3 118.8 L130.9 119.6 L128.8 118.8 L128.6 120.1 L125 118.9 L125.4 114.4 L123.7 115.9 L124.2 116.9 L122.6 117.5 L121.9 116.3 L121.1 118.4 L117.9 118.1 L117 117.2 L115.6 119.6 L113.7 118.8 L115.2 122.3 L118.3 121.3 L117.5 124.9 L115.5 124.8 L114.7 125.8 L115.1 128.1 L113.2 126.8 L113.8 124.3 L112.3 120.1 L111.4 121.6 L108.5 122 L110 122.7 L108.4 123.9 L109.3 124 L109.5 125.7 L111.8 128.9 L110.6 129.4 L109.5 128.7 L109.2 128.6 L108 129.3 L110.3 130.4 L107.6 132.4 L107.7 132.9 L108 133.2 L105.2 130.2 L104.1 131.2 L102.8 130.4 L104.6 127.7 L104.4 129.4 L106.1 128.6 L105.6 126.6 L105.7 126.3 L106.4 125.6 L107.3 127.1 L108.4 125.8 L107.7 124.5 L107.3 124.8 L106.8 125.1 L106.3 124.7 L105.7 123.7 L104.6 126 L103.1 126.1 L100.1 128.3 L97.4 134 L95.3 133 L95.2 129.6 L94.5 129 L93.3 133.6 L91.3 134.4 L90.3 137.5 L88.4 137.7 L88.5 136.3 L87.4 136.1 L88.3 134.1 L87.1 132.4 L87.2 131.7 L87.6 131.3 L88.3 131.2 L88.9 131.2 L88.2 130.6 L88.8 129.7 L85.3 130.6 L84.2 129.1 L83.5 129.5 L82.9 128.7 L83.5 128.1 L82.9 127.8 L82.4 127.4 L82.8 124.5 L83.6 124.3 L83.7 124.6 L84.5 125.8 L84.8 128.4 L87 129.1 L85.9 127.1 L85.2 127.6 L85 125.4 L85.6 125.3 L86.6 125.5 L86.8 126.6 L88.7 128 L88.6 127.1 L90.8 127.8 L87.6 124.9 L84.6 124.3 L86.9 123.4 L88.7 124.3 L88.9 122.9 L91.8 122.5 L89.7 122.1 L89.5 119.8 L88.2 123.3 L87.6 122.3 L85.1 123.2 L86.1 120.1 L85.4 118.3 L86.4 117.4 L84.8 117.8 L84.6 119 L83.5 118.7 L83.1 117.7 L84.3 117.7 L84.2 117 L84.9 116.4 L83.6 114.4 L82.8 115.3 L82 113.2 L82.4 112.8 L82.8 112.7 L83.3 113 L83.5 113.4 L84.1 112.2 L84.1 113.8 L85.8 115 L86.1 116.3 L86.7 113.9 L84.8 111.7 L84.6 109.8 L83.3 110 L84.9 109.4 L85.8 106 L86.9 106.7 L85.9 105.2 L87.7 101.4 L91.3 100 L92.5 101.1 L91.6 99.3 L88.2 99.8 L87 99.1 L87.1 98.3 L87.1 98 L90.2 95.8 L91.7 93.5 L94.6 94.4 L94.8 93.5 L92.7 91.8 L95.9 90.5 L90.6 90.6 L90.5 90.1 L90.5 89.4 L88.5 89.1 L88.4 88.2 L93.7 87.7 L96.7 85.5 L92.5 87.4 L90 83.5 L88.6 82.8 L87.7 83.5 L87.8 82.7 L88.6 82.2 L89.3 82 L90.3 82.3 L88.7 80.9 L89.8 78.7 L88.2 77.9 L89.7 76.6 L89.3 76.5 L88.5 76.5 L87.8 75 L90.7 73.4 L87.8 74.2 L88.2 71.8 L87.2 71.4 L86.9 69.8 L88.4 68.9 L87.5 68.2 L87.7 67.9 L88.1 67.6 L87.8 67.2 L87.3 67.1 L87.4 65.3 L86.4 66.3 L86.1 69.5 L84.7 68.8 L84.8 67.2 L85 66.7 L84.1 65.5 L83.1 66.8 L84.1 69.4 L83 70.2 L82.5 66.2 L79.9 67.4 L79.7 66.7 L81 65.9 L79.7 64.9 L79.1 66.6 L79 64.9 L79.9 63.3 L80.4 64.3 L81 64.3 L80.8 64 L80.5 63.5 L81.2 63.7 L81.5 63.7 L80.5 61.3 L80.9 60.9 L81.5 60.7 L81.4 61.4 L81.4 61.6 L82.5 61.6 L83.3 58.9 L83.7 61.3 L82.7 63.7 L84.5 64.1 L84 63.1 L83.8 62.4 L85.6 62.1 L84.9 61.5 L85.5 61.4 L85.9 60.8 L85.9 60.2 L85.8 59.7 L84.6 59.5 L84.9 58.6 L84 58.3 L84.6 57.8 L86.6 57.8 L87.3 62.5 L88.3 59.4 L89.8 60.9 L87.7 58 L89.6 58.6 L87.9 56.3 L90.9 58 L91 60.5 L92.2 58 L94.9 59.2 L95 59.8 L94.6 61.1 L95.8 60.5 L96.1 65.1 L96.6 62.9 L97 63.1 L97.5 63.1 L96.7 62.2 L96.5 61.7 L99.6 60.3 L99.8 58.7 L100.8 58.4 L100.8 58.1 L99.4 58.5 L99.1 59.9 L98.5 60.1 L97.7 60 L95.6 57.8 L97.7 57.5 L97.2 55.1 L96.2 56.8 L94 56.5 L94.2 54.4 L96.6 53.5 L96.6 52.6 L95.4 53.2 L95.1 52.4 L92.3 54.1 L92.8 53 L91.8 52.7 L93.1 51.6 L92.2 51.5 L91.8 50.3 L94.3 50.4 L94.6 51.4 L95.5 49.8 L96.7 50 L92.4 48.1 L93.1 46.6 L90.6 46.7 L90.9 46.2 L91.2 45.7 L90.1 44 L91.3 43 L90.4 43.2 L89.3 40 L88.7 35.2 L91.7 35.5 L91.7 38.1 L94 39.1 L93.5 38.6 L92.1 37.7 L92.7 33.4 L91.9 33.5 L91.7 30.9 L91.8 30.2 L94.1 29 L99 22.1 L102 20 L108.8 19 L111.1 19.7 L117.8 18.8 L118.9 19.7 L126.3 18.9 L129.6 15.9 L130.4 11.2 L131.1 10.7 L132.4 10 Z"/>
  <path d="M98.5 161.7 L96 166.7 L90.4 168.7 L83.9 168.8 L82.4 170 L80 167.9 L79.8 167 L80.2 165.8 L82.4 163 L87.5 160.5 L94.9 159.2 L98.5 161.7 Z"/>
  <path d="M141.6 120.7 L140.9 121.5 L141.4 123 L140.1 122.5 L139.5 123.6 L140.3 124.6 L137.6 125.6 L138.5 124.9 L138.1 123.7 L137.1 123.6 L138.1 121.7 L136.3 122.5 L135.5 120.4 L137.4 119.5 L139.1 120.1 L138.3 118.2 L138.6 118.2 L140.3 117.3 L140.5 115.9 L140.8 120.5 L141.6 120.7 Z"/>
  <path d="M85 131.6 L84.2 134.3 L83.3 133.8 L80.7 135.9 L79.7 135.9 L79.4 135.9 L79.6 134.9 L78.4 134.5 L81.3 130.8 L82.3 131 L81.9 129.4 L83.6 130.6 L83.7 130.6 L84.3 130.2 L84.3 130.5 L85 131.6 Z"/>
  <path d="M125.4 122.3 L125 125.8 L123.1 125.7 L122.2 123.7 L121.1 125.3 L119.6 120.7 L121.4 118.6 L122.2 119.4 L121.4 120.7 L122 121.9 L125.4 122.3 Z"/>
  </g>
</svg>
