<svg xmlns="http://www.w3.org/2000/svg" viewBox="0 0 240 180">
  <g fill="#17324a" stroke="#fffaf3" stroke-width="3.2" stroke-linejoin="round" stroke-linecap="round">
  <path d="M67.9 43.1 L72.2 46.6 L74.1 51 L75.4 52.1 L75.2 54.2 L77.5 60.5 L74.8 65 L75.8 70.1 L78.2 68.9 L80.6 69.7 L86.6 69.7 L87.7 69 L87.7 67.5 L90.9 66.6 L93.1 63.1 L96.3 61.4 L98.3 58.6 L99.7 52.2 L101.4 50.1 L106.3 49.7 L111.4 54 L114.5 54.1 L116.2 55.7 L119.8 56.6 L128.6 55.2 L130.8 52.1 L133.1 43 L139.1 41.6 L140.8 39.1 L143.9 37 L145.3 30.1 L147 27.7 L149.6 25.9 L151.8 25.6 L152.4 23.7 L153.9 23.9 L160.1 16 L167.1 14 L168.3 11.2 L175.2 10 L182.6 12.8 L188.2 12 L191.7 12.4 L193.2 13.4 L196 23.4 L195.8 26.2 L195.8 26.8 L199.5 32.9 L200.9 38.9 L201 54.4 L199.9 58.6 L194.4 55.5 L191.3 57.7 L187.8 63.8 L187.7 68.7 L188.7 68.6 L189.7 71.9 L191.7 74 L197.1 75.4 L200.7 75.4 L201 69 L211 69.5 L207.2 86.2 L205.5 88.9 L205.3 91 L202 94.1 L201.7 93.8 L201.3 93.9 L201.9 94.2 L201.6 94.6 L201.2 94.9 L198.5 95.6 L194 100.8 L190.6 106.6 L190 108 L190.7 107.8 L179 125.5 L172.4 130.4 L162.8 141.5 L146.8 153.7 L139.9 156.7 L132.2 156.4 L130.3 158.8 L131.3 160.1 L124.6 159.1 L122.7 159.6 L121.7 162.2 L108.4 159.4 L105.7 160 L105.9 161 L101.3 160 L101.8 160.6 L100.7 160.7 L98.9 159.4 L98.8 160.1 L96.5 159.6 L92 160.8 L91.8 162 L89.4 162.7 L88.4 164.3 L85.2 164 L82.1 165 L78.3 164.2 L77.1 164.7 L77.5 165.5 L73.5 165.6 L68.3 170 L66.6 169.1 L64.2 169.4 L61.5 167.2 L60.3 167.4 L60.9 165.5 L58.5 164.8 L58.6 163.4 L55.1 164.5 L55 160.9 L51.3 161 L51.4 164 L49.5 161.6 L50.1 158.7 L51.4 157.9 L50.8 155.8 L45.7 148.7 L45.9 148.1 L47.4 149.5 L46.2 147.2 L44.8 147.4 L44.2 144.8 L45.6 143.3 L47.3 144.2 L49.3 142.1 L49.9 137.7 L49.1 133.3 L38 113.6 L33 97.9 L29 91.8 L31.3 89.8 L32 90.1 L32.3 87.4 L33 87.4 L33.7 85.1 L35.5 84.4 L36.9 85.3 L37 86.7 L38.8 87 L39.4 88.7 L38.5 90 L39.6 91.5 L39.4 92.9 L41.4 92.6 L41.9 93.7 L45.4 94 L47.8 95.4 L54.2 94.6 L58.4 96.1 L60.3 95.2 L60.1 93.2 L62.3 92.8 L63.5 90.6 L67.9 89.3 L67.9 43.1 Z M167.6 95.5 L163.8 91.2 L158.5 92.9 L156.9 95.1 L154 95.5 L149.6 102.7 L145.8 104.5 L147.9 109 L149.9 111 L149.7 113.1 L150.7 113.1 L153.9 116.8 L157.6 117.5 L158.2 114.8 L159.4 113.7 L159 112.8 L161 111 L165.6 110.4 L169.5 108.1 L169.4 105.3 L170.9 104.4 L171 102.7 L172.7 100.9 L171.3 97.8 L167.6 95.5 Z"/>
  </g>
</svg>
