<svg xmlns="http://www.w3.org/2000/svg" viewBox="0 0 240 180">
  <g fill="#17324a" stroke="#fffaf3" stroke-width="3.2" stroke-linejoin="round" stroke-linecap="round">
  <path d="M137.6 18.4 L138.3 20.3 L139.8 20.2 L140.5 21.3 L141.3 20.5 L143.7 21.3 L142.4 24.6 L143.2 25.6 L144.3 25.6 L144.6 24.4 L145.6 24.1 L145.2 24.9 L147.7 26.2 L151 27.4 L153.9 27.4 L154.2 28.7 L156.9 31 L157.4 30.2 L159.2 30.6 L160.8 29.5 L162.1 30.7 L163.3 30.5 L165.2 32.8 L168.5 31.9 L170.2 33.1 L171.4 32.1 L172 32.8 L176 32.8 L176.2 29.6 L177.3 29.5 L183 31 L184.2 32.4 L187 32.3 L188.4 34.6 L188 36 L188.7 36.5 L188 36.8 L188.7 37.9 L192.8 36.5 L196.2 37.9 L197.3 39.7 L201.8 38 L205.5 40.2 L207.8 39.9 L208.3 38.5 L212.1 37.2 L216 38 L216.1 39.7 L218.1 40.2 L217.3 41.9 L215.8 41.5 L215 42.4 L216.8 48 L212.1 52.8 L202.1 57.8 L199.4 61.2 L190.1 63.5 L186.2 65 L185 65.2 L184.3 66.2 L181.9 66.3 L177.1 71.2 L176.8 71.8 L179.6 73 L179.6 73.4 L179.4 73.8 L176.1 76.5 L175.6 76.6 L175.2 76 L175.9 75.9 L176.3 76.1 L176.8 75.8 L177.4 74.9 L174.7 75.8 L171.4 82.1 L166.9 87.3 L160.9 97.5 L160.8 100.5 L162.5 106.9 L164.2 109.8 L168.3 112 L169.5 113.8 L167.1 116.1 L165.4 116.3 L164.7 117.9 L160.7 119.4 L159.4 121.5 L157.8 122.1 L157.7 122.9 L157.9 124.8 L156 125.7 L153.9 133.2 L153.4 132.7 L152.4 134.3 L153.1 135.9 L154.7 136.4 L154.4 137.2 L151.3 138.2 L148.5 137.7 L148.4 138.7 L146.5 137.7 L145 138 L142.3 140.8 L139.5 142.1 L137.3 145.3 L135.9 150.8 L132.3 155 L131.1 155 L128.6 152.9 L125.5 153.3 L123.9 155.9 L122.4 156.2 L119.9 154.7 L113.4 154.8 L112 155.8 L105.3 154.7 L96.2 155.3 L94.5 158.2 L92.6 159.6 L88.6 159.7 L84.1 161.7 L81.7 167.2 L80.3 166.4 L80 169 L77.4 170 L72.6 166.4 L70.7 166.2 L66.4 159.2 L67.6 160.4 L68.4 159.6 L66.8 157.6 L65.1 157 L64.4 154.7 L65.8 153.8 L65.9 152 L68.2 151 L65.8 151.6 L65.2 153.5 L63.4 150.4 L57.2 146.2 L56.9 145.7 L56.8 145.2 L57.8 143.5 L56.1 144.8 L56.4 146.1 L53.9 145 L49.2 145.8 L47.2 138.2 L48.5 134.6 L50.7 132.1 L51.2 129.5 L53.6 128.2 L55.1 128.6 L56.3 125 L53.9 125.5 L49.8 119.9 L51.2 116.6 L51.2 113.9 L54.6 111.5 L55.7 107.1 L54.9 106.2 L52.9 106.2 L52.9 105 L51.4 104.1 L51.6 102.9 L50.4 101.5 L50.5 98.9 L48.1 97.2 L46.7 94.5 L55.2 94.2 L57.4 87.8 L54.8 84.2 L58.8 80.6 L57.8 78.9 L58.5 77.4 L57.9 76.3 L58.4 70.3 L56.4 67.3 L56.6 66.4 L58.4 66.3 L61.1 61.9 L63.5 61.3 L66.2 59 L68 55.7 L66.3 54 L62.7 53.9 L62.2 52.2 L63 49.6 L61.7 47.6 L59.8 48.3 L58.3 47.2 L56.8 48.1 L53 47.1 L52.1 49.3 L48.5 50.8 L47.5 49.6 L46.2 50.5 L45.9 49.5 L44.1 48.9 L41.4 49.8 L41.3 49.2 L41.2 48.6 L39 50.6 L36.9 50.7 L36.1 48.8 L38.2 46 L36.5 45.4 L36.2 43.7 L29.9 45.8 L25.9 49 L25.6 44.4 L26.7 44.2 L27 42.8 L29.9 40.6 L29.7 39.7 L29.1 40.7 L26.1 41.6 L26.7 39.8 L27.5 39.9 L29.4 37.8 L26.4 38.6 L24.9 37.2 L25.9 36.6 L26.7 37.4 L26.8 35.1 L28.2 32.7 L27.4 33.7 L26.5 32.8 L26.1 34.2 L23.8 35.9 L22.9 34.1 L25.8 29.8 L22.4 31.3 L21.9 28 L20.9 27.3 L19.8 28.5 L19.4 27.9 L19.6 25.2 L22.3 23.4 L20.7 23.5 L20.6 23.1 L21.3 22.4 L25 21.5 L24.2 20.5 L26.5 19.3 L28.8 20.3 L33.6 18.4 L34.2 19.1 L34.9 18 L36.4 19.9 L37 17.7 L34.9 17 L37.1 16.2 L34.5 16.6 L34.8 14.7 L38.9 13.1 L38.8 11.7 L41.2 10.6 L42.2 11.6 L41.2 12.5 L42 12.6 L42 11.8 L44.7 10 L44.6 11.4 L45.4 10.8 L45.8 12.2 L47.6 11.3 L49.7 12.3 L51.4 14.9 L55 14.9 L54.8 16.5 L56.4 14.7 L70.2 14.6 L72.7 14.2 L72.7 13.2 L73.9 12.7 L76.4 14.8 L80.8 14.9 L80.5 15.9 L82.6 15.3 L95.2 18.4 L103.1 17.3 L105.5 16.1 L106 16.2 L106.4 16.5 L105.3 17.2 L105.8 17.6 L109.4 15.7 L111.8 16.7 L110.7 17.5 L111.3 17.8 L114.3 18 L118.4 19.7 L118.1 18.6 L119.4 17.5 L122.2 17 L123.4 18.8 L123.9 17.8 L132.2 20.4 L137.6 18.4 Z"/>
  <path d="M218.7 92.4 L220.6 93.1 L220.3 94.9 L217.1 100.6 L214.1 103 L212.5 101 L209.8 100.8 L209.1 97.7 L208.6 97.3 L208.1 97 L206.3 97.6 L205.6 98.8 L203 97 L203 95.9 L212.1 89.7 L216 88.6 L216.4 89 L214.7 89.7 L214.6 90.4 L215.2 90.5 L216.4 90.1 L215.2 91.2 L215.3 92.3 L216.7 93.1 L218.7 92.4 Z"/>
  </g>
</svg>
