<svg xmlns="http://www.w3.org/2000/svg" viewBox="0 0 240 180">
  <g fill="#17324a" stroke="#fffaf3" stroke-width="3.2" stroke-linejoin="round" stroke-linecap="round">
  <path d="M163.9 122.1 L164.3 126.7 L159.9 141.9 L156 147.9 L154.8 149.2 L141.6 158.5 L136.7 160.2 L136 159.4 L135.8 159.8 L135.8 160.5 L133.8 161.6 L120.6 165.4 L116.8 168.6 L114.4 168.6 L111.8 170 L106.7 169.3 L105.8 168.1 L101.6 168.1 L96.1 165.8 L91.7 161.5 L89.1 156 L86.3 147.5 L86.9 147.3 L86.6 145.1 L86.6 144.9 L85.7 142.8 L82.2 133.8 L81.7 130.7 L81.6 130.4 L82.2 125.4 L82.2 125.4 L80.2 118.5 L80.5 117.5 L81.6 120.9 L82.2 119.1 L80.8 117.3 L78.8 101.2 L79.4 101.2 L79.8 98.9 L75.5 80.9 L75.5 76 L78.8 70.6 L77.4 73.4 L78.8 74.3 L76.7 80.4 L77.7 82.7 L76.9 84.4 L78.2 85.4 L80.1 85.5 L81.1 84.8 L79.4 82 L80.8 79.4 L79.9 75.6 L82.4 63.7 L84.5 61.2 L85.8 54.6 L84.8 52.1 L84.4 46.5 L89.7 42.9 L92.1 36.1 L92.6 31.7 L90.5 30.4 L89.9 27.9 L95.8 24.6 L89.9 19.6 L97.3 22.1 L97.9 22.5 L98.8 23.3 L98.6 24.9 L98.6 24.9 L99.4 25.4 L101.4 24.9 L105.1 23.5 L112.7 25.7 L106.7 22.3 L102.8 22.3 L95.3 17.4 L94.8 17.4 L94.9 18.4 L95.9 19.4 L95.7 20 L95.3 20.1 L92.5 17.9 L91.6 17.6 L93.3 19.2 L92.3 19.1 L86.1 15.9 L84.1 12.5 L85 12.1 L86.6 10.6 L92.8 10.4 L93.1 12.1 L96.4 12.8 L101.5 18.2 L105.8 20.4 L97.9 13.1 L93.4 11.3 L93.3 10.6 L94.2 10.3 L94.5 10.2 L98.4 10.5 L98.7 11.9 L99.1 12.4 L104.4 18.7 L118 29.2 L120.2 31.9 L117.8 31.7 L117.9 31.8 L120 33.7 L120.8 34.2 L120.3 33.2 L121.2 32.9 L123.6 38 L121.9 37.6 L121.7 38.2 L123.2 38.8 L123.2 38.9 L123.3 39.7 L124.2 39.2 L126.7 43.3 L126.1 44 L123.3 42.3 L125.7 45.4 L124.9 46.3 L126.3 46.7 L127.5 44.8 L133 52.2 L134.5 53.1 L135 54.2 L135.5 56.3 L136.4 56 L137.8 58.3 L136.7 60 L137.5 59.7 L138.5 62.6 L137.5 62.8 L137 61.5 L136.9 64.2 L134.8 63 L133.8 64.4 L134.4 64.3 L135.3 63.6 L137 65.6 L137.9 65.9 L139.8 65.8 L140.4 65.4 L140 64.5 L141.1 64 L141.5 63.8 L143.2 65.2 L144.2 70 L142.7 68.4 L142.8 70.1 L144.6 71 L146.6 79.7 L145.8 80.7 L144.8 77.1 L144.5 79.4 L146.1 81.1 L147.2 80.2 L149.5 85 L150 84.4 L150.3 85.5 L151.1 85 L151.1 86.7 L152.5 88.3 L151.7 89.5 L152.2 90.9 L154.2 91.7 L157.2 96 L157.3 96.8 L156.4 97 L153.3 94.8 L152.8 95.3 L152.5 96.2 L155.1 96.3 L157.3 100.4 L157.5 100.1 L157.4 99.5 L159 100.7 L159.7 102.6 L159.1 105.2 L159.7 107.2 L160.6 106.8 L160.9 109.1 L161.6 106.5 L162.3 106.8 L164.1 112.5 L163.9 122.1 Z"/>
  </g>
</svg>
