<svg xmlns="http://www.w3.org/2000/svg" viewBox="0 0 240 180">
  <g fill="#17324a" stroke="#fffaf3" stroke-width="3.2" stroke-linejoin="round" stroke-linecap="round">
  <path d="M36.4 143.6 L37.5 140.1 L37 137.9 L35.4 137.9 L32.7 135.1 L33.6 130.1 L31.8 130.4 L32.1 128.9 L30.8 125.5 L31.5 123.4 L30.3 123 L28.9 122 L27.8 123.1 L25.8 123.2 L24.4 121.4 L26.5 117.4 L29.6 115 L27.4 109.8 L29 107.7 L32.8 105.5 L31.3 103.8 L30.7 100.8 L34.3 99 L34 97.2 L37.5 93 L37.1 88.7 L39 87 L49.2 86.8 L49.1 36.4 L60.5 36.4 L60.5 12.7 L132 12.7 L134.1 10 L134 12.7 L153.9 12.7 L158.2 16.1 L163.2 15.4 L164.1 12.7 L196 12.7 L196.3 17.3 L200.9 23.8 L200 24.3 L200 23 L198.7 21.8 L198.3 24 L200 30.4 L199.3 32.2 L200.1 41.4 L202.3 49.8 L203.5 51.5 L205 51.2 L206 52.5 L207.9 53 L210.1 55 L209.9 56.5 L210.5 57 L211.1 57.1 L212.2 56.3 L211.2 57.4 L213.2 57.3 L215.6 59.9 L211.4 65.5 L210.1 65.3 L209.6 66.1 L209.2 65.3 L207.3 66.6 L206.4 66.1 L203.1 68 L201.9 71.4 L197 71 L197.2 74.5 L195.9 77.3 L196.8 80.3 L193.6 86.8 L193.1 90.1 L190.8 93.8 L192 104.1 L190.4 111.9 L187.5 118.6 L187.4 122.3 L182.4 123 L178 130.8 L175.2 133.2 L175.4 136.1 L174 139.4 L173.9 139.6 L174.1 143.8 L172.9 145.6 L171.9 146.4 L169.7 144 L166.4 147.7 L166.7 153 L165.7 154.1 L164 160.9 L161.8 160.3 L162.9 156.2 L162.1 152.2 L156 146.7 L153.5 145.8 L153.4 145.7 L153.9 144.5 L153.3 140.1 L152.7 135.7 L154.2 128.3 L148.7 128.2 L148.9 130.8 L145.1 130.8 L141.4 130.8 L144.3 134.2 L144.4 134.3 L144.4 139 L144.6 139.8 L145.4 141.4 L139.6 146.9 L138.9 148.9 L138.2 150 L131.7 156.9 L126.4 157.7 L117.8 151.2 L113.3 153.7 L113.3 155.4 L112.7 156.3 L111.8 157.2 L106.1 159.3 L105.3 160 L104.5 160.7 L104.5 162.4 L95.4 162.3 L94.8 161.7 L93.7 159.2 L84.4 159.1 L79.2 160.6 L71 152.3 L70.3 149.5 L63.3 150.6 L61.6 151 L60.5 154.8 L58.4 156.5 L58.4 160.1 L57.2 161.5 L55.7 167.6 L50.6 170 L43.5 169.4 L44.4 166.5 L42.9 166 L43.2 164.5 L43.2 164.4 L45.1 163 L45.3 156 L41.3 149.2 L39.2 147.2 L38 146.3 L36.4 143.9 L36.4 143.6 Z"/>
  </g>
</svg>
