<svg xmlns="http://www.w3.org/2000/svg" viewBox="0 0 240 180">
  <g fill="#17324a" stroke="#fffaf3" stroke-width="3.2" stroke-linejoin="round" stroke-linecap="round">
  <path d="M194.4 113.5 L190.7 117.6 L190.2 118.5 L189.4 120.4 L190.3 120.3 L190.7 120.9 L190.2 123.1 L191.2 127 L190.1 130 L190.9 131 L186.5 137.7 L183.1 145.1 L181.3 146.9 L178.6 147.7 L177.6 150.3 L177.1 150.6 L170.5 151.2 L170.6 146.6 L169.1 145.8 L165.3 147 L163.8 146.5 L160.1 142.8 L159.9 142.5 L160.8 140.3 L154.6 143.5 L154 142.1 L152.7 142.2 L149.6 144.6 L146.3 144 L145.1 146.7 L144 147.1 L136 147 L134.6 147.7 L131.6 148.4 L122.1 143.3 L120.5 148.4 L119.4 150 L119.1 150.3 L117.1 150.3 L115.4 153.8 L119 155 L119.3 156.5 L119.8 157.4 L124.2 161.7 L124 168 L122.8 169.2 L120.3 170 L110.6 167.9 L107.7 166.4 L102.6 165.9 L98.9 163 L95.1 162.9 L94.1 162.5 L90.4 157.3 L89.5 153.6 L87.2 152 L87.3 150.6 L85.2 147.9 L84.7 143.9 L82.8 143.9 L81.8 138.8 L81 139.2 L80.7 139 L78.9 135.3 L79.4 134 L77.6 134.1 L77.3 133.4 L78 132 L76.2 132.3 L75.1 131.2 L74.9 130.8 L74.4 128.8 L75.8 127.4 L73.9 126.5 L74.2 124.5 L75 124.3 L73.3 121 L73.9 119.9 L71.9 119.9 L72.1 112.7 L72 112.2 L71 110.2 L69.8 111.2 L68.8 111.3 L67.8 111 L66.6 110.5 L66.6 111.2 L66.4 111.5 L64.6 112.3 L62.4 111.2 L62 112 L61.7 112.1 L57.8 110.4 L58.2 105.5 L55.8 103.9 L55.1 102.1 L51.1 100 L49.4 94.2 L43.4 87.5 L42.1 80.5 L46.4 75.6 L46.4 71.3 L50.9 61.4 L49 57.8 L48.4 57.4 L47.8 57.1 L47.5 56.5 L47.7 55.3 L50.6 51.4 L53.3 51.6 L56.6 48.5 L58 48.4 L59.5 49.1 L63.1 48.3 L64.1 49.1 L72.1 47.7 L70.7 46.5 L70.5 46.1 L71.8 42.2 L73.4 42.1 L73.7 42.5 L73.9 43.3 L75.8 41.7 L73.7 38.4 L72.6 38.5 L73.1 39.7 L72.1 40.1 L71.8 36.9 L70.2 37 L70 36.6 L70.1 36.2 L72.7 33.3 L73.4 30.2 L76.6 27.4 L78.9 14.8 L80.6 12.1 L84.5 10 L95.8 11.2 L99.1 12.7 L123.5 17.9 L124.9 19.5 L124.9 22.8 L125.5 20.3 L124.3 17.3 L124.9 16.5 L122.9 15 L124.8 12.3 L127.9 11.3 L146.4 11.9 L150.8 14.3 L154.2 14.4 L155 15 L155.3 15.6 L154.8 16.7 L154.3 17.3 L154.3 17.3 L155.4 16.9 L156 14.9 L158.9 16 L161.1 16.2 L163 15.2 L164.5 16 L163.4 14.9 L159.2 15.4 L154.4 13.6 L153.4 11.6 L157.5 10.7 L158.7 10.7 L167.9 11 L179.4 12.7 L196 16.5 L198 20.2 L196.3 23.1 L195.1 29.1 L190.2 36.3 L187.2 38.4 L185.5 40.1 L180.3 47.8 L180.2 51.2 L178.8 52.5 L179.3 58.6 L180.8 59.9 L181.3 63.9 L180.2 68.5 L182.4 76.7 L181.9 79.7 L184.7 82 L183.9 85.4 L188.2 91.8 L193.8 96.7 L195.5 101 L197.1 100.9 L197.6 101.4 L197.9 101.9 L197.3 107.9 L194.4 113.5 Z"/>
  </g>
</svg>
