<svg xmlns="http://www.w3.org/2000/svg" viewBox="0 0 240 180">
  <g fill="#17324a" stroke="#fffaf3" stroke-width="3.2" stroke-linejoin="round" stroke-linecap="round">
  <path d="M136.3 10 L144 16.4 L148.2 17.5 L149.6 18.7 L150.1 20.7 L150.9 20.4 L152.9 22.7 L151.8 24 L152.3 26.9 L151.6 28.1 L153.4 28.9 L152.4 32 L154.7 36.2 L152.7 40.4 L153.2 43.1 L154.2 43.7 L155.6 47.5 L154.3 48.3 L153.3 47.5 L151.8 47.4 L151.6 48.2 L150.3 47.5 L149.7 48.9 L147.4 46.5 L147.4 48.3 L146.4 47.1 L145.6 47.4 L145.6 48.6 L144.9 48.3 L145.9 49.3 L145.3 49 L144.8 49.9 L145.5 49.3 L146 50.8 L142.5 48.7 L144.9 50.7 L143 50.9 L144 51.7 L143.3 52.5 L140.9 52.7 L142 54.2 L140 52.8 L141.7 55.2 L141.5 56.4 L138.5 59.1 L140 59.9 L140 61.1 L138.9 60.7 L140.2 62.2 L141 62 L141.3 62.7 L140.2 62.6 L141.6 63.7 L138.7 66.3 L136.6 71.3 L135.6 70.9 L135 72.6 L134.7 71.7 L134.6 72.9 L134.4 72 L134.2 72.9 L132.2 73.5 L131.2 75.5 L129.7 74.1 L130.3 75.7 L129 75.1 L127.8 78.4 L126.8 77.3 L126 77.6 L126.9 78.2 L125.1 78.5 L125.6 79.2 L123.3 80.5 L125.1 81.1 L124.2 80.9 L124.8 81.7 L124.2 82.4 L123.3 81.9 L123.1 83.1 L122 82.9 L122.4 82.2 L121.6 82.7 L121.1 80.5 L120.3 80.6 L122 83.7 L121.3 84.4 L122.3 85.3 L122.2 85.3 L121.8 85.7 L121.6 85 L120.4 87.1 L118.9 85.9 L118.3 86.5 L118.5 88.2 L120.1 89.5 L119.3 89.7 L118.4 92.8 L119.2 96.6 L117.3 95.4 L118 96 L117.1 96.5 L117.8 96.6 L117.9 96.8 L116.8 97.1 L117 97.2 L117.6 97.3 L117.6 97.4 L117 97.4 L117.7 98.6 L117.1 99.3 L118 100.2 L117.1 100.1 L117.4 104.5 L118.4 106.6 L117.5 107.4 L118.4 108.3 L119.7 108 L120.2 109.7 L121.8 108.7 L123.2 111.7 L124.3 111.5 L125.3 112.8 L123.7 111.8 L125.1 114.7 L125.1 113.9 L125.9 114.1 L126.3 115.5 L126.4 114.2 L127.8 116.8 L127.6 117.5 L126.8 116.4 L126 118.3 L127.7 118.1 L127.8 118.7 L126.2 119.1 L123.5 121.7 L123.7 122.6 L123 121.9 L122 122.5 L123.2 123.5 L124.5 123.3 L124.6 122.2 L125.5 123.6 L123.5 123.6 L124.3 125.6 L122 126.8 L121.4 128.9 L120.1 125.3 L119.8 128.9 L119 128.5 L118.5 130.2 L116.9 130 L116.7 131.5 L112.1 131.5 L115.4 131.9 L116.2 133.2 L115.2 133.9 L113.3 133.4 L115.3 134.6 L114.5 134.8 L115.6 136.5 L115.3 137.4 L114.4 136.6 L115.3 140.3 L113.9 139 L114.2 140.3 L113.6 140.1 L114.9 141.9 L113.4 140.2 L115 142.4 L114.2 142.3 L114.5 143.3 L113.9 143.3 L114.8 144.9 L113.6 147.4 L114.3 150.1 L113.5 150 L113.7 153.2 L112.4 154.8 L110.3 161.3 L108.9 159.9 L107.6 160.7 L107.2 160.1 L104 160.4 L104.4 162 L102.9 161.8 L101.3 164.4 L102.2 167.9 L101.2 169.4 L93.8 169.5 L94.7 168.8 L94.3 167.2 L95.1 166.1 L91.7 158.8 L93.7 159.6 L92.7 157.4 L94.1 157 L94.4 155.9 L91.2 151.5 L89.6 145.2 L88.9 146.4 L88.9 142.4 L87.7 142.5 L88.2 141.4 L87.4 140.8 L88.6 134.9 L86.6 136.1 L87.5 134 L86.8 133.5 L86 135.9 L86.1 133.8 L85 134.9 L85.4 132.2 L84.4 127.8 L85.6 126.1 L86.3 128.5 L87.4 128.2 L88.3 124.3 L87.5 120.2 L88.7 119 L88.6 116.9 L90.1 116.8 L90.9 116.1 L91.7 115 L92.6 110.7 L90.7 103.9 L93.1 103.4 L94.1 99.8 L90.2 95.6 L91 88.9 L89.8 85.4 L89.8 81.4 L90.5 80.5 L89.6 78.1 L89.2 77.2 L90.4 75.2 L90.5 75 L90.5 74.7 L90.2 73.5 L93.4 68.9 L94.6 68.2 L96 67.8 L100 68.7 L101.1 66.7 L100.7 63.4 L98.2 62 L103 53.4 L103.7 48 L103.1 44 L104.5 43.8 L105.9 43.7 L108.3 42.3 L108 39.7 L113.3 33.4 L113.5 31.5 L111.8 28.9 L114.3 26.5 L114.4 26.2 L115.2 23.5 L118.3 20.9 L121.6 22.4 L123 19.8 L122.9 15.8 L123 15.8 L124.4 15.4 L124.6 15.5 L125.5 16.3 L132.9 17.9 L134.2 16.5 L132.7 15.8 L134.8 12.9 L134.7 11.5 L133.4 10.2 L134.9 10.1 L136.3 10 Z"/>
  <path d="M127.7 140.5 L126.1 143.4 L126.3 145.4 L127.1 145.9 L124.3 148.8 L124.2 150.6 L122.9 151.7 L123.6 149.6 L123.1 149.9 L122.5 147.6 L122.7 144.2 L125.8 139.9 L126.4 141 L126.6 139.9 L127.7 140.5 Z"/>
  </g>
</svg>
