<svg xmlns="http://www.w3.org/2000/svg" viewBox="0 0 240 180">
  <g fill="#17324a" stroke="#fffaf3" stroke-width="3.2" stroke-linejoin="round" stroke-linecap="round">
  <path d="M229.4 86.2 L229.1 88.5 L228.9 89.1 L228.7 89.6 L227.6 90.9 L228.2 93.9 L227.6 94.8 L226.7 95.4 L226.5 97.8 L225.2 99.9 L225.7 101.2 L226.5 102.3 L228.6 102.5 L229.6 103.3 L230 104.7 L230 106.6 L228.9 109.5 L221.6 108.5 L218.7 106.8 L218.6 103.7 L217.9 103.1 L216.6 103.1 L212 104.5 L211.5 104.7 L211.3 105.2 L210.7 107.6 L208.8 109.8 L208.6 113.3 L209.4 114.5 L208.5 116 L213.8 118.3 L214.1 119.1 L211.7 124.3 L215 129.1 L214.4 130.4 L213 131.3 L210.9 132.1 L209.3 132.1 L209.3 130.5 L208.8 129.2 L206.9 127.5 L206.2 126.5 L205.5 122.4 L204.3 121.6 L203.3 121.3 L202.3 121.3 L200.2 121.6 L197 123.3 L195.9 123.7 L193.6 122.8 L193 125.6 L192.3 126.6 L191.4 127 L185.8 126.9 L184.6 126.5 L180.2 121 L179.7 112.3 L177.2 114.5 L174.6 112 L172.3 112.3 L171.3 113.2 L170.5 114.9 L170.1 116.7 L170.6 117.6 L171.2 118.1 L171.9 124.2 L169.4 131.3 L167.3 133.2 L166.5 135.5 L166.4 135.5 L162.9 137.9 L161.4 143.4 L158.6 145 L158.4 145.8 L159.2 148.3 L157.5 150.3 L159 153 L161 153.8 L161.6 155 L158.6 160.5 L157.1 160.3 L155.5 159.5 L153.6 160.1 L154.2 156.1 L152.2 151.5 L147.2 149 L150.4 143 L149.2 141.4 L146.2 141 L145 140 L142.8 141 L140.5 139.6 L139.5 139.3 L134.6 133 L131.1 131 L130.6 129.9 L130.4 128.1 L131.5 118.4 L131.3 116.8 L130.6 115.8 L125.1 116.9 L124.1 118 L123.7 118.9 L124.2 120.2 L123.9 120.8 L123.5 121.4 L122.9 121.8 L121.5 122.5 L119.1 125.7 L118.1 126.5 L114 128.4 L113.5 129.1 L113.3 129.7 L116 133.8 L116.2 136.4 L115.1 138.7 L111 141.3 L110.2 145.8 L109 147.8 L104.1 149.6 L103.5 150.7 L103.4 152 L102.4 152.1 L101.5 153.9 L94.8 152.9 L93.1 150.6 L92.3 150.2 L87.3 148.9 L85.5 150.9 L78.6 154.3 L74.9 153.9 L68.5 156.6 L64.2 155.6 L62 153.1 L60.4 148.3 L60.1 148.1 L56.8 144.3 L53.7 144.2 L53.6 141.7 L54.6 139.8 L53.8 139 L50 138.2 L49.5 137 L52.6 128.6 L48.8 123.2 L49.1 122.3 L50.3 120.8 L50.6 118.3 L50.1 117.6 L49.4 117.2 L42.1 115.3 L38.9 115.2 L35.8 115.8 L31.6 118.7 L26.9 119.7 L22.6 125.3 L23.8 128.7 L25.7 129 L25.9 130.7 L17.5 137.9 L15.8 137.1 L13.6 137.2 L11.4 137.8 L10.2 138.5 L11.4 135.6 L10.2 132.7 L14.4 130.4 L16.6 130.2 L17.1 126.3 L18.9 122.2 L17.5 119.5 L15.1 118 L14.8 117.9 L15.4 117.4 L15.5 116.9 L15.1 114.6 L19.3 108.5 L18.1 107.1 L18 106.2 L18.6 105.3 L25.2 99.3 L33.1 93.6 L32.5 90.6 L34 86.7 L33.1 83 L33.8 80.5 L36.2 79.1 L41.4 77.5 L44.6 75 L45.8 73.4 L45.2 72.1 L45.8 71 L58.8 59.1 L58.6 57.3 L58.9 55.8 L62.7 53.1 L63.1 52.3 L61.2 50.3 L60.3 50.7 L54.5 51.3 L56 48.3 L57.3 47.6 L57.4 46.3 L60.2 44.9 L59.7 41.7 L61.4 41 L69.8 41.7 L68.9 43.8 L69.2 44.9 L72.9 46.8 L80.8 45.3 L81.9 43.4 L81.2 41.6 L83.8 42.2 L84.5 41.5 L84.6 41.4 L84.2 39.8 L85.4 39.7 L85.6 39.3 L85.6 38.6 L84.5 37.9 L87.8 35.5 L92 34.1 L93.1 34 L92.5 35.8 L90.7 36.3 L94.3 37.8 L99.3 36.4 L100 35.5 L100.9 34.1 L101.6 34.5 L104.8 34.6 L105.4 36.6 L111.8 36.6 L114 36.1 L118.2 32.8 L118.5 32.7 L121.1 32.2 L123.8 32.7 L124.7 34.3 L125.1 34.6 L127 35.1 L131.6 34.9 L131.7 34.6 L132.2 33.3 L133.7 32.4 L135.2 32.2 L137.1 34.5 L138 33.8 L138 31 L139.1 31.5 L139.3 29.8 L137.4 29.3 L132.1 30.9 L128.8 29.1 L128.8 26.7 L131.1 25 L132.3 22.1 L135.9 21.4 L136.9 19.5 L138.2 19.5 L139.1 19.9 L139.8 22.6 L141.1 20.2 L143 22.5 L144.5 22.6 L143.9 25 L144.7 27 L147.3 27 L146.9 26.6 L147.3 25.2 L148.6 25.2 L150.2 26.1 L151.5 27.3 L150.6 27.5 L150.6 28 L151.3 28.7 L153.9 30.1 L155.8 29.9 L157.6 29.4 L158.4 28.5 L159.3 28.2 L164.7 28.8 L167.4 28.8 L168.1 29.8 L169.9 29.8 L171.8 30.2 L185.2 38.4 L187 42.3 L188.8 43.1 L190.2 44.3 L190.2 47.3 L183.1 59.2 L182.3 61.6 L182.1 64 L183.5 68.8 L181.7 72 L182.8 72.3 L185.8 72.8 L191.1 72.5 L200.3 75.4 L200.9 76.6 L200.5 80.8 L201.2 81.7 L212.7 87.4 L217.1 86 L218.7 82 L221.7 82 L221.7 80.7 L222.5 79.1 L225.5 76.8 L229.6 81 L229.4 86.2 Z"/>
  </g>
</svg>
