<svg xmlns="http://www.w3.org/2000/svg" viewBox="0 0 240 180">
  <g fill="#17324a" stroke="#fffaf3" stroke-width="3.2" stroke-linejoin="round" stroke-linecap="round">
  <path d="M33.7 156.2 L37.1 149.8 L36.1 144.9 L35.1 144.5 L35.6 142 L34 139.4 L34.9 138.1 L33.9 137.4 L37.9 133.3 L38.3 131.2 L40 130.8 L41.1 129.4 L38 127.6 L38.7 125.4 L41.4 122 L43.7 120.9 L44.4 121.6 L46.6 120.9 L49.4 121.8 L49.7 121.3 L49.7 120.7 L47.1 119.1 L47.1 119 L47.6 117.9 L50.3 114.7 L52.5 114.4 L55.9 109.8 L54.9 108.4 L55.2 106.3 L53.6 104.9 L53.8 102.6 L51.1 100.2 L48.8 100.4 L48.4 99.7 L50.1 98.5 L50.2 97.1 L51.5 97.1 L51.6 96.1 L49.7 96.1 L48.2 94.2 L46.9 96.1 L39.3 95.4 L36.6 86.6 L37.5 83.5 L37.1 80.7 L39.1 77.9 L38.8 77 L37.8 75 L37.9 70.9 L35.3 68 L34 68.1 L34.2 66.9 L32.8 65.6 L34.3 64.7 L34.1 62.9 L35.9 60.4 L34.8 57.1 L36 57.2 L36.7 57 L37.7 54.9 L39.5 54.6 L40.2 56.5 L44.2 58 L45.2 53.8 L47.1 53.6 L47.8 52.3 L48.9 52.7 L49.4 52.5 L49.8 45 L51.6 45.9 L53.1 45 L57.5 45 L57.1 42.5 L55.2 41.7 L55.6 40.4 L54 37.5 L56.8 25.9 L65.3 28.2 L66.7 29.7 L66.6 31.8 L67.1 32.2 L67.7 32.5 L69 31.5 L72 31.3 L78 32.1 L81.8 29.6 L83.4 28.9 L87.7 28 L98.4 23.3 L100.1 23.5 L105.1 25 L111.5 30.1 L119.5 29.9 L123.6 31.2 L125 31.2 L130.3 30.2 L138.7 28.6 L149.9 24.1 L155.7 20.2 L163.5 17.2 L168.4 16.5 L176.4 18.3 L183.7 18 L194.6 15.4 L197.5 14.8 L202.8 10 L203.2 11.2 L204.8 11.2 L206.4 12.7 L206.6 13.1 L206.1 14.9 L207.2 18.4 L193.2 32.6 L181.2 35.8 L178.4 41 L177.3 50.4 L180.4 57.9 L180.5 64.3 L177.9 68.4 L176.1 78.4 L176.5 90.8 L170.2 103.3 L169.4 103.8 L163 105.6 L115.7 134.4 L61.5 169.9 L50.2 167.9 L45 163.3 L41.8 163.5 L40.2 159.1 L38.9 159 L38.6 157.9 L33.7 156.2 Z"/>
  </g>
</svg>
