<svg xmlns="http://www.w3.org/2000/svg" viewBox="0 0 240 180">
  <g fill="#17324a" stroke="#fffaf3" stroke-width="3.2" stroke-linejoin="round" stroke-linecap="round">
  <path d="M196.4 26 L193.3 29.7 L192.1 34.1 L192.5 40.4 L195.4 42.6 L193.6 43 L194 43.8 L194.3 44.9 L194.1 45.8 L193.1 46.3 L193.6 48.1 L191 50.4 L190 55.2 L190.7 56.3 L185.9 61.8 L183.7 66.5 L184.3 70.8 L179.8 87 L178 97.6 L177.2 102 L174.9 106.1 L174.5 111.3 L172.2 114.2 L170.2 120.1 L165.4 125.6 L164.9 128.7 L158.4 134.4 L154.9 140.6 L152 149.1 L151.9 162.8 L151.7 164.1 L151.3 165.1 L150.7 165.5 L150 166.1 L150.2 170 L147.1 167.4 L145.8 167.1 L145.7 168.2 L145.3 168.6 L144.8 168.4 L144.2 167.9 L144.1 167.5 L144.4 166.4 L143.4 164.8 L144 160.1 L140.8 151.5 L136 145.4 L130.3 142.6 L128.2 140.9 L126.2 138.1 L128.3 140.6 L128 139.4 L124.5 135.1 L124.8 132.9 L122.5 128 L122.6 125.6 L120 119.1 L121 116.7 L120 116.5 L119.3 117.9 L118.5 115.9 L116.2 116.1 L116.4 114.6 L118.2 113.6 L117.9 113.3 L116.4 113 L116.4 112.6 L117.7 112.6 L116.4 111 L117.6 109.6 L117.5 108.9 L117.2 108.4 L119.2 104.2 L118.6 103.8 L120.3 102.9 L119.1 102 L119.5 101.1 L120.1 101.1 L121 101.1 L119.5 96.9 L120.7 94.9 L119.2 95 L119.2 93.6 L120 92.7 L119.9 90 L120 88 L121.8 82 L126.5 75.1 L129 69.1 L131.7 66.3 L132.1 63.7 L135.2 60 L138 52.6 L142 48 L144 42.6 L147.5 39.4 L148.5 39.2 L149.7 39.4 L154 29 L159.7 21.2 L173.6 16.1 L175 16.2 L175.8 17.4 L176.4 17.1 L174.3 14.9 L176.1 12.2 L177.2 11.2 L178.7 10.4 L180.6 10 L182.3 10.2 L185.3 14.3 L186.8 14.1 L186.5 15.1 L187.7 16.2 L196.4 18.6 L197 22.6 L200.7 23.5 L197.3 25.2 L196.4 26 Z"/>
  <path d="M44.2 46.2 L45.5 45.9 L46.6 47 L47.4 49 L47.2 50.5 L46.6 51.2 L43.3 50.4 L40.9 52.4 L39.4 51.9 L39.4 48.3 L39.6 48.2 L40.9 47.6 L42.5 48.6 L43.7 48.5 L43.8 47.1 L44.2 46.2 Z"/>
  </g>
</svg>
