<svg xmlns="http://www.w3.org/2000/svg" viewBox="0 0 240 180">
  <g fill="#17324a" stroke="#fffaf3" stroke-width="3.2" stroke-linejoin="round" stroke-linecap="round">
  <path d="M111.7 40.2 L112.3 41.1 L111.8 41.9 L110.9 42.6 L107.2 42.9 L102.7 45.7 L102 49.7 L98.8 50.9 L98.2 52.4 L97.4 51.1 L99.4 49 L99.8 48.2 L99.5 47.6 L93.9 46 L92.2 44.3 L88.9 43.8 L84.9 41.3 L83.9 41.2 L72.8 45.1 L71.2 44.3 L69.6 47.9 L70.7 51.6 L68 52.5 L65.3 49.3 L63.4 55 L63.1 56.4 L63 57.8 L64.7 60.4 L65.1 66.3 L66.8 64.9 L68.2 66 L75.4 64 L80 65.5 L84.1 65.6 L85.9 64.2 L88.5 65 L90.4 62.5 L91 66.2 L91.5 66 L94 64.2 L98.2 63.2 L99.5 64.1 L101.6 64 L104.4 67.9 L104.8 70.5 L105.6 71 L106.4 71.1 L110.2 69.7 L112.2 70.7 L115.6 66.4 L119.9 66.3 L123 63.7 L125.8 62.8 L127.8 64.9 L126.7 67.1 L127.3 68.3 L133.7 68.7 L133.9 71.2 L132.9 73.3 L134 75 L134.5 75.2 L135.6 75.1 L142.4 71.6 L143.7 75 L146.7 76.2 L147.4 78.1 L149.9 73 L154.4 72.4 L155.3 71.5 L155.6 71.3 L157.2 71.9 L159.3 70.7 L164.5 72.1 L169 72.4 L171.1 71.5 L173 72.2 L178.3 70.8 L179.5 68.9 L186.1 68.3 L186.9 68.7 L186.9 69.4 L187.2 71.5 L186.2 77.4 L189.1 82.6 L192.4 85.8 L191.9 87.4 L189.3 87.9 L188.3 89.5 L192.1 99.9 L195.4 101.9 L198.1 102 L198.5 101.9 L198.9 101.3 L198.3 99.4 L198.5 99.2 L199.6 98.9 L200.3 97.1 L204.1 97.6 L206.1 96.9 L206.7 96.9 L216.8 102.1 L218.6 102.3 L220.7 104.3 L221 106.7 L218.9 110.5 L219 114 L219.5 118.1 L220 119.1 L222 120.3 L222.3 124.7 L223 125.3 L222.2 127.2 L224.4 129.4 L222.2 133.6 L222.1 134.2 L222.3 135.5 L230 142.7 L228.6 143.2 L228 143.5 L227.3 145.9 L224.7 146.9 L224 147 L222.4 148.8 L219.4 145.2 L215.8 142.9 L211.9 143.6 L208.2 143 L206.1 141.7 L205.8 142.7 L203.6 142.6 L202.5 144.9 L189.1 149.3 L188.3 148.4 L187.7 148.4 L186.5 148.7 L186.1 148.5 L185.9 147.7 L189.9 144.9 L190.3 141.7 L182.8 139.8 L181.5 139.8 L179.8 140.8 L177.5 140.4 L172.8 143.3 L171 145.8 L169 146 L163.2 149.2 L159.5 156.1 L155.3 156.8 L154.4 157.3 L152.4 156.9 L151.2 157.2 L148.3 158.3 L136.4 168 L135.3 168.5 L133.9 168.8 L132.6 168.8 L131.2 168.5 L128.7 166.2 L125 154.7 L125.5 149.3 L126.8 146.1 L127.8 129.7 L129.5 127.7 L129.7 124.7 L128.8 123.6 L128 123 L122.5 124.9 L120.1 123.7 L123 114.4 L123.1 113.6 L122.9 112 L116.2 106.6 L114.3 106.3 L112.1 103.9 L111.1 105.4 L106.6 104.9 L103.4 106.4 L103.8 107.5 L101.6 108.5 L101.1 111.1 L100.1 111.6 L98 116.7 L91.9 122 L92.1 123.2 L89.6 123 L89.3 123.9 L89.4 125 L92.5 129.2 L92.7 131.7 L91.9 134.4 L89.2 137.6 L85.2 137.4 L81.8 134.8 L79.2 136.2 L78.1 135.6 L75.3 136.4 L71.5 136 L70.9 136.2 L67.2 142 L68.1 148.3 L69.1 149.1 L65.7 152.8 L63.5 153.4 L59.8 150.8 L56.8 146.1 L53.5 144.9 L54.2 147.1 L52 145.3 L51.4 145.5 L51.3 145.9 L51.6 148.1 L47.3 147.1 L47.4 148.2 L46.1 149.7 L43.2 151.2 L39.8 151.7 L39.5 153.4 L36.6 153.4 L36.3 156.8 L33.7 156.5 L28.8 159.7 L25.1 154.8 L22.1 153.2 L23.4 146.2 L22.9 140.3 L23.7 138.1 L24.9 136 L29.9 129.7 L30.7 128 L31.9 124.4 L35.5 122.9 L38.2 116.9 L38.6 114.8 L38.5 113.4 L31.5 105.9 L30 101.7 L29.5 96.1 L30.6 94.8 L30.4 92.6 L32.3 92 L33.4 89.7 L31.3 85.7 L27.5 84.8 L24.1 85.9 L23.4 85.9 L19.8 85.3 L19 80.1 L10.2 77 L10 75 L11.2 74.3 L12.6 67.4 L14.3 67.1 L14.1 65.5 L14.6 64.9 L16.9 64.6 L19.5 62.7 L20.5 62.4 L38 65.8 L43 65.1 L42.7 64.4 L45.4 61.7 L46.1 54.2 L47.8 53.6 L49.3 55.3 L50.3 53.8 L49.8 49.5 L52.1 53.7 L53.3 53.2 L53.2 52.4 L50.7 49 L50.3 45.9 L50.7 46.3 L51.4 47.4 L53.3 46.2 L55.3 46.6 L56 46.5 L56.2 46 L56.3 45.5 L54.7 43.5 L48.1 44.8 L47.8 44.8 L44.8 42.9 L57.2 40.4 L62.2 42.2 L63.6 42.2 L64.6 41.8 L62.5 38 L65.2 38.2 L65.4 36.4 L62.2 28.3 L65.3 27.3 L65.3 23.5 L66.6 20.6 L68.4 19.7 L70.9 20.8 L74.8 25.4 L76.8 25.8 L79.2 23.3 L79.8 23 L85 21.4 L92.6 17.1 L94.2 15.3 L95 11.5 L96 11.2 L97.3 11.7 L104.6 19.6 L104.5 20.3 L102.4 19.3 L102.7 21 L105.2 21.5 L106.3 22.2 L106.1 23.4 L106 23.7 L98.2 30.5 L95.1 31.6 L95.2 35.6 L99.5 36.4 L101.1 40.8 L102.2 41.6 L111.7 40.2 Z"/>
  </g>
</svg>
