<svg xmlns="http://www.w3.org/2000/svg" viewBox="0 0 240 180">
  <g fill="#17324a" stroke="#fffaf3" stroke-width="3.2" stroke-linejoin="round" stroke-linecap="round">
  <path d="M90.9 135.4 L87.9 133.6 L85 133.2 L83.6 131.5 L76.4 130.3 L76.4 128.3 L72.5 128 L71 126.9 L70.7 126.5 L70.5 124.9 L67.7 123.2 L63.7 123.6 L61.9 122.6 L54.2 108.4 L52.1 101.8 L51.2 100.4 L49.1 97.9 L43.8 94.4 L40.7 88.7 L40 84.7 L42 80.3 L37.7 68.6 L38.9 61.6 L43.8 61.8 L44.5 60.4 L47.8 58.9 L52.3 51.8 L52.7 51.5 L53.4 51.7 L54.1 48.2 L57.2 46.2 L56.6 45.5 L56.9 45.2 L57.2 44.9 L59.5 44.1 L60 42.6 L59.2 40.7 L59.9 39.7 L57.3 39.7 L55.8 38.5 L54.9 39.2 L53.8 37.5 L55.4 34.8 L53.8 35.1 L55.2 32 L57.7 30.3 L60.1 30.2 L60.8 26.3 L59.5 24 L60 19.1 L58.6 16.3 L55.9 15 L54.6 12.5 L54.8 11.1 L57.2 11.3 L59.2 10 L106.9 10.2 L160.8 40.7 L161.7 44.7 L160 46 L160.2 47.6 L161.8 47.8 L162.7 49.8 L184.1 65.1 L183.4 66.5 L184.1 66.7 L184 67.9 L183.5 68.7 L183.3 68.9 L183.3 67.5 L182.5 68.5 L182.8 70.1 L182.1 70.5 L183 71.2 L181.5 73.2 L182.1 73.2 L179.2 79.3 L177.6 85.5 L178.8 87.1 L178.7 89.9 L179.6 91.2 L182.3 92.4 L185 95.5 L185 97 L187.8 97.4 L189.1 99.6 L189 101.3 L185.7 104.2 L185.4 110.8 L185.3 111 L184.6 111.8 L185.7 110.4 L187.5 111.9 L187.6 114.6 L186 118.5 L185 119 L186.1 125.1 L189.1 128.2 L187.5 127.2 L186.6 127.8 L188.2 128.4 L188.3 131.2 L189.3 130.7 L190.4 132.1 L190.5 134.6 L189.3 136 L190.5 136 L191.9 139.3 L191.2 140.4 L192.8 142 L191.1 144.9 L191.5 144.8 L192.2 144 L194.1 144.4 L195.5 147.5 L196 146.2 L197.7 146.7 L197.5 148.3 L199.1 148.6 L199.1 147.2 L200.9 149.6 L201.9 149.5 L201.9 148.6 L202.2 151.3 L201.9 151.7 L201.5 152.2 L192.1 158.3 L188 159.1 L185.1 161.4 L184.8 161.6 L179.4 161.6 L173.4 165.3 L169.9 163.2 L165.2 163.3 L164.2 163.9 L164.1 164 L163.4 167.1 L158 169.9 L153.4 169.2 L151.8 167.5 L148.6 167.7 L145.8 169.9 L139.5 169.6 L139 167.7 L133.9 165.3 L130.2 168.1 L121.2 167.7 L120.5 165.3 L118.2 164.3 L117.5 162.1 L116.1 160.9 L115.7 159 L116.9 155.2 L115.5 152.3 L114.9 145 L111.6 140 L107.1 136.4 L105.6 140 L103 138 L98.6 138.6 L96.3 136.6 L94.6 136.9 L91.7 135 L90.9 135.4 Z"/>
  </g>
</svg>
