<svg xmlns="http://www.w3.org/2000/svg" viewBox="0 0 240 180">
  <g fill="#17324a" stroke="#fffaf3" stroke-width="3.2" stroke-linejoin="round" stroke-linecap="round">
  <path d="M134.9 105 L131.6 98.8 L131.4 100.7 L128.4 99.2 L128 98.1 L129 97.2 L128.3 97.8 L128.4 96.6 L127.6 96.4 L127.6 97.7 L125.9 95 L125.5 95.1 L125.3 95.1 L125.8 96.1 L123 93.6 L119.2 94.8 L113.2 94.2 L114 90.5 L113.4 89.3 L114.7 85 L111 84.8 L110.5 83.8 L110.1 84.9 L107.1 84.8 L103.8 87.1 L105.3 89.8 L103.8 93.5 L104.4 99.3 L100.4 106.4 L99.9 109.9 L98.9 110.6 L99.1 113.4 L98.3 113.4 L96.2 117.2 L96.7 118.9 L95.3 118.9 L96.4 120.3 L95.3 121.7 L95.2 125.3 L97.1 129.4 L96.1 130.6 L98.4 131.5 L99.5 130.5 L102.7 130.4 L103.9 137.9 L105.7 140.2 L106.1 139 L107.1 141 L108.8 150.1 L110.3 152.9 L108.7 152.3 L108.3 149.1 L107 149.4 L107.2 146.7 L105.7 147.4 L106.9 151 L108.1 151.6 L108.8 153.5 L110.1 153.6 L110.4 152.8 L112.5 155.6 L114.7 156.8 L118.4 156.5 L117.8 155.7 L120.7 157 L122.8 160.6 L126 163.2 L125.9 165 L123.3 168.7 L121.7 168.5 L120.4 167 L117.3 168.3 L115.8 169.9 L114.4 168.5 L115.6 166.7 L115.6 163.3 L113 163.4 L111.9 160.7 L110.7 161.2 L108.3 160.4 L107 158.4 L106 158.4 L105.5 161.2 L105.3 160.2 L100.9 156.5 L101.6 153.8 L99.8 153.5 L100 151.1 L99.5 151.9 L99 151 L98.6 152.2 L97.5 151.6 L96.8 148.5 L95.1 146.9 L94.9 147.6 L94 147.4 L94.4 145.2 L92.8 143.8 L91.3 144.2 L90.6 141.2 L89.7 141.4 L90.1 140.3 L87.7 141 L87.6 142.8 L86.1 142 L85.5 136.5 L87.3 133.2 L86.7 133.3 L86.6 131.3 L87.8 128 L88.8 127.5 L88 127.1 L89.1 125.7 L88.5 125.2 L89.3 124.5 L88.6 124.4 L90.7 120.6 L91.1 115.6 L95.9 110.9 L100.3 103.1 L99.1 100.9 L99.4 99.7 L98.4 99.8 L98 95.2 L96 93.5 L94.6 89.8 L95.7 88.1 L94.7 81.1 L88.9 75.5 L85.7 70.9 L84.9 67.9 L85 66.4 L86.3 65.6 L87.3 66 L87.4 64.9 L89.1 65 L88.9 57.5 L90.3 56.6 L91.6 56.9 L92.7 53.9 L92 52.9 L90.1 54.9 L87.9 50 L88.7 48.8 L88.2 47.7 L80.7 39.9 L79.8 38.4 L80.6 36.6 L79.4 33.3 L77.8 33.3 L76.3 30.5 L78 31.1 L80.5 30.3 L79.6 26.4 L81.2 24.4 L80.7 21.3 L81.5 19.6 L83.3 18.6 L83.4 16.9 L85.7 18.4 L88.8 18.3 L91.7 16.9 L92.5 17.6 L93.6 17 L94.5 13.7 L97.1 14.1 L99.2 13 L98.3 10.7 L100.7 11.5 L103.6 10 L105.8 12.2 L107.8 10.6 L110 13 L108.2 17.4 L109.2 19.9 L112.1 20.4 L113.3 19 L117.4 19.6 L116.5 21.5 L118.2 25.4 L117.1 27 L117.3 29.1 L115 31.8 L116.4 32.9 L116.5 35.8 L114.7 37.6 L113.5 41 L116.2 42.2 L118.8 39.3 L122.4 37.4 L123 35.6 L124 36.1 L126.1 34.1 L129.6 36.5 L131.6 36.9 L131.5 38.1 L132.4 38.5 L134.2 36.7 L136.2 36.5 L137.4 33.8 L138.9 33.3 L138.3 32.3 L139.9 31.6 L144.8 33.3 L146.3 33 L151 40 L154.6 42.6 L154.2 52.3 L157 55 L157.6 56.9 L161.2 57.8 L160.6 58.5 L161.1 60.2 L163.6 61.4 L163.2 64.1 L161.8 65 L162.7 65.9 L161.5 67.1 L163.1 68.9 L162 70.9 L162.2 73.5 L161.2 75 L158.4 76 L157.3 77.3 L156.5 75.5 L154.6 74.9 L144.9 75.9 L142.5 74.8 L137 76.2 L134.9 77.6 L132.6 82.2 L131 83.2 L131.5 83.9 L128.7 84.3 L128.7 87.5 L130.4 90.4 L130.3 93.9 L133.3 96.5 L132.5 99.3 L134.9 105 Z"/>
  </g>
</svg>
