<svg xmlns="http://www.w3.org/2000/svg" viewBox="0 0 240 180">
  <g fill="#17324a" stroke="#fffaf3" stroke-width="3.2" stroke-linejoin="round" stroke-linecap="round">
  <path d="M69.6 99.8 L71.9 98.4 L73.3 97.1 L76.5 92.1 L76.8 91.1 L81.5 88.5 L81.7 87.3 L82.1 81.2 L84.7 77.3 L90.9 75.6 L93.4 76 L100.5 73.3 L101.9 73.1 L106.3 73.4 L107.7 73.1 L111.3 71.5 L115.4 71.7 L117.3 69.9 L118.5 70.4 L120.5 70.5 L124.1 69.9 L132 67.3 L135.1 67.1 L146.6 69.9 L158.1 68.1 L159.5 67.4 L162.4 65.3 L169.6 62.9 L170.8 63.8 L172.2 64.4 L176.3 65.2 L178.8 67.5 L190.3 62.5 L195.6 62.3 L206.8 55.5 L213.7 58.8 L215 59.1 L216.6 59.3 L222.8 57.1 L223.8 58.8 L229.5 61.3 L230 62.7 L210.4 80.3 L209.6 80.4 L204.9 81.5 L200.6 84.6 L198.7 85.6 L188.5 86.3 L181.1 89.2 L173.7 98.5 L170.8 99.3 L153.1 101.5 L138.5 110.9 L131.9 110.8 L131.2 111.2 L129.7 112.4 L124.8 113 L120.5 115.4 L114.7 115.2 L113.4 116.3 L112 117.1 L107.7 118.7 L100.4 121.4 L92.7 126.6 L89.1 130.8 L83.7 131.7 L79.1 135.3 L76.6 125.8 L72.7 122.2 L72.2 116.7 L73.3 115.3 L75.5 115 L76.9 115 L79.9 116.7 L82.2 115.1 L85.1 114.9 L84.7 112.2 L85.9 107.9 L85.9 106.4 L85.3 105.1 L84.3 104 L80.8 101.4 L78.5 104.7 L72.7 107.6 L71.5 107.7 L70.5 107.4 L68.8 104.9 L69.6 99.8 Z"/>
  <path d="M38.2 114.6 L36.7 122.6 L31.7 127 L30 131.7 L30.3 134 L29.7 134.9 L28.8 135.5 L25.2 136.3 L25 132.1 L22.1 128 L19.2 128.1 L16.1 131.3 L14 130.9 L12.2 129.3 L10 125.5 L17.8 122.9 L20.8 119.6 L22.8 118.7 L38.2 114.6 Z"/>
  <path d="M113.1 47.8 L113.9 46.7 L115.5 44.9 L117.4 43.7 L118.6 44.2 L115 54.8 L113.4 56 L109.7 54.3 L109 53.5 L108.7 52.9 L113.1 47.8 Z"/>
  </g>
</svg>
