<svg xmlns="http://www.w3.org/2000/svg" viewBox="0 0 240 180">
  <g fill="#17324a" stroke="#fffaf3" stroke-width="3.2" stroke-linejoin="round" stroke-linecap="round">
  <path d="M89.4 10 L110 14.2 L109.9 16.4 L113.9 15 L115.8 14.7 L118.9 14.6 L122.9 14.5 L121.7 20.8 L119.2 24 L118.5 33.9 L136.4 46.2 L136.8 47.3 L137.2 57.7 L136.3 61.3 L138 63.2 L139.2 68.6 L144.8 75.4 L145.1 91.9 L146.3 93.9 L144.9 97.8 L145.7 101 L145.7 141.5 L145.1 141.7 L142.7 141.7 L144.6 145.6 L144.9 149.5 L143.8 151.6 L145 154.4 L146.6 155.1 L147.4 157.6 L149.4 159.7 L150 162 L150.6 164.4 L150 164.4 L145.9 165.4 L145.3 165.7 L145.5 166.4 L145.5 166.4 L139.5 167.4 L131.9 170 L131.9 168.9 L131.6 168.4 L129 168.1 L128.5 167.9 L126.8 166.1 L126.3 165.4 L125.5 162.9 L123.1 162.9 L122.5 162.7 L118 159.2 L117 156.9 L117.5 155 L114.5 153.4 L114.3 150.1 L110.9 146.7 L111.8 144.1 L110.1 142.3 L112.8 141.5 L113.4 140.4 L113.4 136.4 L114.9 131.8 L114.9 131.1 L114.4 129 L111.8 129.2 L110.8 128.4 L110.3 127 L110.4 123.1 L112.3 122 L112.9 119 L113.8 119.2 L112.6 103.2 L116.8 100.6 L117 100.2 L116.9 99.4 L114 94.1 L108.5 90.3 L106.1 85 L106.3 84.7 L106.7 84.6 L107.1 84.8 L107.4 85.5 L107.8 84.5 L109.5 84.4 L110.5 82.1 L108.2 77 L110.5 71.9 L110.1 69.6 L111.2 68.4 L111.3 65.1 L110.7 64.6 L109.8 64.3 L109.8 62.9 L108.1 62.3 L107.5 62.2 L105.1 62.6 L104.5 64 L103 64.5 L101.7 64.1 L101.8 62.8 L104.1 61.7 L101.6 60.9 L101.8 59.6 L106.5 59.1 L106.2 58.5 L105.6 58.3 L104.3 58.7 L103.3 58.6 L102.8 57.9 L102.8 57 L103.3 56.1 L104.1 56.9 L104.6 57.2 L105.2 57.2 L105.5 56.8 L104.7 53.7 L105.3 49.1 L106.2 48 L105.6 45.2 L107.1 44.4 L105.7 42.4 L105.9 40.1 L105.8 39.1 L107.1 37.1 L104.3 36.6 L103.2 33.1 L100.3 33.5 L98.1 29.9 L95.2 27.4 L91.8 25.9 L92 22 L93.7 19.9 L95.1 12.3 L94.6 11.6 L93.6 11.2 L90.8 11.4 L89.4 10 Z"/>
  </g>
</svg>
