<svg xmlns="http://www.w3.org/2000/svg" viewBox="0 0 240 180">
  <g fill="#17324a" stroke="#fffaf3" stroke-width="3.2" stroke-linejoin="round" stroke-linecap="round">
  <path d="M120 141.3 L120.3 142.1 L118.2 144.7 L114.2 142.5 L113.7 141.7 L113.3 141.1 L114.7 139.9 L113.9 140.8 L116.5 141.3 L116.5 142.5 L120 141.3 Z"/>
  <path d="M144.8 81 L145.7 82.4 L144.7 82.4 L144 84.2 L143.6 82.5 L143.1 83.3 L142.2 82.6 L144.8 81 Z"/>
  <path d="M123.4 145.3 L123.3 149.1 L121.9 147.6 L123.4 145.3 Z"/>
  <path d="M119.9 108 L120.2 110.1 L119.3 108.9 L119.9 108 Z"/>
  <path d="M107.4 10 L107.8 10.3 L107.7 11 L107.2 11.5 L106.6 11.5 L106.2 11 L106.2 10.5 L106.7 10.2 L107.4 10 Z"/>
  <path d="M135.8 110.1 L137 109.3 L136.7 110.5 L135.8 110.1 Z"/>
  <path d="M137 108.5 L138.1 107.4 L137.7 108.9 L137 108.5 Z"/>
  <path d="M138 106.1 L138.3 106.2 L138.4 106.5 L138.2 106.6 L137.9 106.6 L137.7 106.2 L137.4 105.6 L137.3 105.2 L137.6 105.3 L137.7 105.5 L137.8 106 L138 106.1 Z"/>
  <path d="M129.2 86.9 L129 86.5 L129.1 86.2 L129.3 86 L129.7 86.1 L129.8 86.4 L129.7 86.7 L129.5 86.9 L129.2 86.9 Z"/>
  <path d="M94.4 169.6 L94.6 169.7 L94.7 169.8 L94.7 169.9 L94.5 170 L94.5 170 L94.3 169.9 L94.3 169.8 L94.3 169.7 L94.4 169.6 Z"/>
  </g>
</svg>
