<svg xmlns="http://www.w3.org/2000/svg" viewBox="0 0 240 180">
  <g fill="#17324a" stroke="#fffaf3" stroke-width="3.2" stroke-linejoin="round" stroke-linecap="round">
  <path d="M146.8 89.7 L144.6 89.2 L143.1 91.6 L142.5 95.2 L142.6 98.8 L145 106.2 L145.4 109.8 L142 112.8 L142 116.2 L144.3 126.9 L145.1 128.4 L147.3 131.6 L151.7 134.8 L148.2 138.6 L146.7 144.9 L146.7 152 L147.6 158.2 L145 157.7 L142.1 158.6 L135.1 163.5 L125.7 166 L124.1 166.1 L116.7 164.9 L114 165.2 L106.4 166.7 L96.9 165.8 L86.6 166.7 L86.5 166.6 L81.7 165.8 L72.3 168.3 L64.7 165.2 L62.2 164.9 L51.8 164.9 L48.9 165.2 L40.2 170 L38.1 170 L35.5 168.2 L36.7 166.6 L40.6 164.5 L41.1 164.1 L42.5 163.7 L46.4 162.9 L50.3 158.9 L66.7 152.6 L70.3 149.5 L70.3 149.4 L70.2 145.7 L71.8 144.9 L73.6 144.9 L79.8 146 L86.2 145.7 L87.6 145.2 L89.2 143.9 L90.6 142.2 L91.6 140.6 L91.7 136.1 L90.5 131.2 L89.5 130.3 L89.1 129.8 L90 128.5 L88.5 122.6 L91.5 111.7 L91.6 106.9 L90.3 102.4 L87.5 98.8 L88.4 98 L83.6 94.7 L81.1 93.6 L77.7 92 L75.1 91.5 L69 91.1 L68.2 90.8 L67.6 90.2 L66.9 88.8 L73.1 84.4 L88.7 82.9 L91.8 80.5 L92.4 82 L93.3 82 L93.3 81.6 L93.3 80.3 L94.9 82 L94 82.9 L95 82.7 L96.5 81.2 L98.8 81.2 L99 81.2 L103 77 L125.4 77.7 L126.5 76.9 L128.5 75.3 L153.2 71.8 L158.2 72.8 L153.1 81.8 L146.8 89.7 Z"/>
  <path d="M203.5 10 L204.4 10.9 L204.5 13.9 L204.1 17.7 L203.2 20.3 L201.8 20 L201.1 20 L200.3 21.9 L196.9 21.7 L196.7 22.2 L194.9 24.6 L189.5 28 L185.3 27.6 L178.1 31.3 L176 31.8 L172.7 34.6 L170.7 35.4 L169.8 33.4 L168 34.4 L166.4 34.1 L165.4 32.9 L165.7 31 L169.9 29.6 L170.6 28 L171.8 26.4 L185.3 16.7 L195.6 12.9 L197.1 12.6 L199 13.8 L199.9 13.7 L202.2 10.9 L203.5 10 Z"/>
  </g>
</svg>
