<svg xmlns="http://www.w3.org/2000/svg" viewBox="0 0 240 180">
  <g fill="#17324a" stroke="#fffaf3" stroke-width="3.2" stroke-linejoin="round" stroke-linecap="round">
  <path d="M157.1 103.6 L156 115.8 L158.2 119.7 L155.9 121.9 L151 124.3 L145.2 127.1 L143.4 130.1 L140.3 131.2 L140.1 133 L139.9 133.8 L138.3 135.9 L133.9 137.4 L130.9 143 L133.5 150.9 L133.7 156.2 L126.5 167.2 L120 170 L110.9 128.1 L97.7 118.3 L97.1 112.1 L93.2 105.6 L86.4 102.5 L86.1 98.4 L81.9 88.5 L82.3 83.7 L84.7 80.7 L87.2 79.7 L88.4 75.9 L93.5 73.2 L96 70.7 L95.5 69.9 L95.5 69.5 L96.6 68 L96.4 64.1 L97.4 60.4 L99.6 57.3 L97.1 55.4 L97.9 50.6 L96.1 44.1 L98.3 31 L97.8 30 L94.7 29.2 L94.7 29.2 L94.7 28.4 L99.6 25.3 L100 24.6 L100.2 23.8 L99.3 22.6 L103.6 21.4 L102.8 19.1 L107 18.2 L111 14.3 L114.2 12.5 L116.6 12.5 L123.9 10 L126.3 10.4 L126.3 11.7 L124.7 13 L125.3 14.3 L127.3 13.8 L127.5 13.3 L127.5 13 L125.6 12.6 L126.7 11.8 L131.7 12.4 L134 13.7 L131.3 14.2 L133.2 15.1 L132.2 16 L132.3 17.2 L135.4 20.5 L134.5 21.8 L133.7 21.2 L132.5 22.3 L133.6 22.6 L134 21.9 L134.4 22.8 L134.9 23.4 L135.6 23.8 L136.5 23.9 L138.6 23.3 L139.9 20.5 L142.6 20.1 L145.8 16.7 L148.6 16 L150.1 21 L148 22.5 L143.9 30.1 L139.2 31.8 L137.8 37.7 L140.3 43.5 L142.3 45.2 L144.7 45.5 L144.7 47 L148.4 48.4 L147.9 50.2 L149.2 51.3 L148.4 55.2 L150.6 57.8 L146.1 63.7 L145.2 67.3 L140.5 71.1 L140.1 73 L137.6 73.7 L137 74.1 L136 75.7 L131.3 77.9 L129 81.4 L129.8 85.6 L135.1 91.9 L138.1 93.1 L142.3 91.8 L142.8 92.6 L142.7 94.1 L141.5 95.4 L142.7 96.9 L145.9 95.6 L145.9 93.8 L147.3 93.2 L149.6 95.3 L149.5 99.5 L153.1 101.2 L150.1 100.7 L150.8 102.7 L155.4 103.6 L154.2 101.9 L157.1 103.6 Z"/>
  <path d="M147.5 88.8 L148.7 89.7 L146.8 92 L146.5 91.3 L145.5 93.3 L145 91.7 L144 91.2 L143.2 92 L142.8 91.6 L142.6 91.3 L142.7 87.8 L146.3 87.5 L146.9 88.2 L147.5 88.8 Z"/>
  </g>
</svg>
