<svg xmlns="http://www.w3.org/2000/svg" viewBox="0 0 240 180">
  <g fill="#17324a" stroke="#fffaf3" stroke-width="3.2" stroke-linejoin="round" stroke-linecap="round">
  <path d="M214 57.6 L217.3 62.8 L217.1 65.1 L215.4 67.1 L217.3 71.8 L216.6 72.7 L220.9 74.2 L224.4 73.8 L228.7 77.4 L230 79.7 L227.2 77.8 L225.9 78.9 L224.9 83.3 L220.7 83.7 L221.5 86.4 L222.7 87.2 L222.3 89.9 L223.8 91.7 L223.9 98.7 L225.9 99.4 L222.9 106 L227.5 108.7 L227.2 113 L229.9 115.1 L229.5 117.4 L227.7 116.8 L224 120 L222.7 118.5 L223.2 115.7 L221.6 114.8 L218.2 116.5 L214.4 115.9 L210.2 113.9 L208.1 114.7 L206.1 113.9 L203.5 117.4 L201.3 117.9 L201.2 115.9 L199.6 114.6 L197.2 116.9 L195.9 117.2 L191 118.4 L182 118 L170.9 123.4 L164.1 124.7 L158.7 124.1 L155.9 121.7 L153.6 121 L152.9 120.9 L143.7 125 L139.1 125.3 L138.1 123.2 L134.3 122.1 L133 127.4 L134.6 131.1 L131 131.3 L131 134.7 L129.1 135.3 L128.6 137.3 L125.8 135.8 L126.5 134.3 L124.3 130 L129.3 124.9 L129 122.5 L127 120.6 L124.7 122.8 L122.2 123.4 L121.9 124.3 L123.4 123.7 L122.7 124.1 L122.4 124.3 L123.2 124 L122.4 125.5 L120.8 125.3 L121.3 125.8 L119.2 126.4 L111.5 122.3 L106.6 125.8 L102.9 131.4 L101.8 129.9 L99.7 132.5 L99.2 131.7 L98.1 132.7 L93.5 132.5 L89.3 134.2 L84.2 131.9 L80.2 126.4 L72.2 122.4 L64.5 121.2 L63.2 122.7 L63.2 126.6 L62 128.5 L62.6 129.4 L61.2 131.5 L61 130.5 L59.2 129.9 L52.6 132.7 L52.1 131.6 L49.6 130.6 L48.9 131.1 L45.9 128.7 L46.2 126.5 L44.9 126.3 L46.1 124.9 L45.2 124 L43.9 123.4 L42.9 125.6 L41.8 124.1 L40.4 124.1 L40.2 122.3 L38.9 122.6 L38.3 121.3 L37.5 121.7 L37.7 122.7 L36.3 122.6 L36.1 121.8 L36.5 123.7 L33.5 126.1 L32.6 125.5 L34.1 124.9 L32.7 124.2 L34.4 123.8 L34.4 122.5 L32.1 123.4 L30 123.1 L29.2 124.7 L25.7 124.4 L28.9 122.4 L33.4 122.8 L33.5 120.4 L35 120.9 L35.5 119.5 L36.9 119 L27.9 119.9 L25.7 119.1 L24.4 120.1 L24.3 117.7 L25.1 117.1 L26.7 118.2 L28.1 117.6 L27.5 116.6 L28.5 116.5 L28.5 115.4 L26.8 115.7 L27.1 114.6 L26 114.7 L26.1 113.3 L25.3 114.2 L23.7 114.2 L23.8 110.5 L21.5 109.5 L24.3 108.3 L24.1 104.6 L20.7 103.4 L19.8 103.9 L18.5 101.2 L17.2 101.3 L16.6 102.9 L14.2 100.5 L13.8 101 L12.3 100.2 L13.3 98.8 L13.8 99.7 L15 99.1 L14.9 98 L15.6 97.9 L14.2 97.6 L13.7 94.7 L14.3 94.2 L17 96.6 L16.5 98.1 L17.5 99.8 L18 97.9 L18.9 99.1 L23.3 97.7 L20.6 97.9 L19.2 96.3 L20 96.8 L19.6 95.5 L18 94.6 L18 93.6 L20.2 93.4 L20.1 92.2 L22.1 91.1 L21.8 90.3 L19.1 90.1 L19.9 88 L18 85.4 L16.7 85.2 L20.5 82.1 L20.6 80.7 L12.5 82.4 L10.4 81.9 L11.4 79.6 L11.8 74.3 L13.3 74 L14.3 71.5 L18.2 68.2 L21.2 68.5 L24.7 67.3 L26.6 69.5 L30.3 69.6 L31.7 68.5 L30.6 68.4 L29.3 66.8 L30.2 66.2 L33.5 67.2 L31.9 68.3 L32 68.7 L32.4 68.8 L37.1 68.2 L45.4 68.8 L46.5 67.8 L46.3 67.5 L46.1 67.3 L42.1 66.4 L44.4 64.7 L50.6 63.3 L51.3 63.9 L55.8 63.2 L52.8 62.5 L49.2 62.9 L48.7 62 L47.7 62.1 L47.9 61.2 L44.9 59 L46.8 55.7 L58.1 57.1 L59.8 56 L65.3 57.9 L70.9 57.9 L72.8 56.4 L72.9 54.5 L81.5 50.2 L83 48.4 L95.4 43.9 L111.5 45 L115.4 42.8 L116 43.7 L117.6 43.8 L116.4 44.1 L116.2 45.5 L118.6 48.5 L121.8 49.8 L126 48.2 L125.8 49.5 L126.5 48.2 L127.3 48.7 L128.2 49.8 L128.4 50.2 L128.2 52 L131.4 55.4 L132.9 55.3 L134.1 53.6 L135.7 53.7 L138.7 55.1 L139 56.5 L144.4 58.6 L145.6 58.5 L146.6 57.1 L147.7 57.4 L149 59.5 L154.1 60.5 L166.8 57.6 L169.3 59.1 L175.3 60.4 L190.2 53.4 L191.5 51.5 L194.9 52.9 L196.5 51.6 L202.2 52.8 L204.3 50.4 L206.7 50.6 L206.6 52.1 L207.3 51.7 L211 54.7 L210 55.5 L211.5 56.6 L213.3 56.4 L214 57.6 Z"/>
  <path d="M33.2 44.6 L33.6 45.8 L32.8 45.9 L32.7 46.9 L35.1 50.8 L43.7 55.2 L45.9 55.5 L44.7 59.1 L40.4 59.7 L39.5 58 L39.4 59.4 L35 58 L32.4 59.7 L27.5 59.4 L24.7 63.7 L18.5 66.8 L13.7 71.3 L13.3 72.7 L11.6 73.6 L12.8 70.8 L12.2 69.3 L19.3 65.2 L19 64.5 L18.9 64.4 L15.5 65.3 L10.7 65.2 L10.2 64.4 L10 63.2 L13.8 59.8 L13.4 55.5 L15.9 53.9 L16.8 54.3 L17.1 53.5 L16.6 50 L13.5 48.5 L13.5 47.3 L15.8 46.8 L16.5 44.8 L20.5 44.3 L21.9 42.9 L24.5 42.8 L27.7 45.7 L29.4 44.6 L30.9 45 L30.9 44.2 L33.2 44.6 Z"/>
  </g>
</svg>
