<svg xmlns="http://www.w3.org/2000/svg" viewBox="0 0 240 180">
  <g fill="#17324a" stroke="#fffaf3" stroke-width="3.2" stroke-linejoin="round" stroke-linecap="round">
  <path d="M146.8 156.7 L146.2 150.8 L144.6 149.7 L146.1 146.6 L144.9 142 L145.1 136.4 L132.4 136.4 L127.4 128.6 L121.7 126.2 L121 126.7 L120.2 125.2 L118.7 124.9 L117.3 122.8 L116.4 118.6 L114.9 118.9 L112.8 117.3 L112.3 116.8 L108.5 115.3 L106.7 116.4 L104.3 115.2 L103.3 116.5 L101.9 116.6 L99.6 115.9 L98.6 113.5 L91.3 110.8 L86.1 109.9 L86 107.6 L83.9 103.8 L81.2 105.5 L76.5 103.8 L74.2 104.6 L71.9 104.2 L69.9 105.7 L70 107.5 L69.8 107.6 L68.5 107.9 L61.1 106.9 L56.2 107.7 L51.7 110.2 L47 114.5 L46.4 118.7 L44.3 120.4 L42.4 120.4 L37.4 122.7 L37.1 122.7 L32.9 122.3 L31.5 114.3 L31.2 108.6 L32.2 103.1 L31.5 98.8 L33.9 91 L32 88.6 L30.6 88.7 L29.9 87.1 L29.6 87.8 L29.9 84.5 L28.9 85.3 L29.1 85.5 L29.3 87.7 L28.1 84.6 L27.5 85.5 L27.4 82.3 L25 83.1 L21.3 82.3 L21.2 85.7 L20 81.3 L23 76.1 L23.6 76.2 L22.1 78.9 L25.3 78.6 L27.6 80 L27.6 78.8 L28.2 79.5 L30.1 78.8 L28.4 78 L28.9 77.5 L27 75.8 L27.1 76.5 L27.1 76.7 L25.6 75.4 L25.7 76.7 L25.2 76.4 L25.1 75.7 L25.4 74.1 L24.6 74 L27.6 70 L24.7 69.3 L23 70.6 L21.4 69.5 L17.8 69.8 L17.6 69.2 L17.4 69 L17.6 71.5 L19.5 74 L18.8 74.1 L14.7 68.3 L15.1 66.3 L14 64 L14.1 63.2 L14.6 59.8 L16.6 56.3 L16 55.2 L17.5 50.7 L17.4 47.8 L19.3 51.8 L20.6 52 L19.7 52.6 L20.5 54.1 L22.8 53.1 L22.6 53.7 L22.5 54 L22.7 54.1 L23.8 54 L24.4 52.8 L26 54.8 L28.4 51.7 L29.9 56.9 L34.4 56.3 L35.6 55.8 L35 55.2 L36.8 54.9 L37.8 54.9 L38.1 55.9 L40.4 56 L40.1 55.8 L39.8 55.7 L40.9 55 L39 54.9 L38 51.8 L39.3 50.9 L41.4 52.2 L41.5 53.3 L44.1 52.7 L46 50.2 L44.7 48.1 L46.1 48.8 L45.3 47.2 L35.3 39.8 L34.1 33.6 L32.6 31.5 L32.7 28.3 L31.4 27.1 L29.3 26.7 L23.3 28 L22.1 28 L21.2 27.5 L18.1 29.9 L15.1 36 L17.4 36.1 L15.8 41.9 L17.3 47 L16.9 48.5 L15 42 L11.9 39.1 L12.4 36.6 L10 34.6 L18.4 27.1 L25.1 24.4 L34.9 22.7 L36.1 22.9 L37.2 23.2 L48.2 30.9 L48.9 33.6 L53.2 40.1 L57.1 44.2 L63.8 43 L80.8 44.4 L83.1 42.2 L80.9 40.2 L79.9 32.2 L86.6 26.3 L93.8 25.8 L93.5 25 L95.2 22.5 L94.7 21 L96.4 19.6 L101.2 21 L101.7 21.3 L102.1 21.9 L102.1 23.6 L103.7 23.7 L100.9 19 L98 17.1 L100.1 15.8 L104.4 16.5 L105.2 13.8 L110 18.7 L113.9 19.1 L115.6 22.7 L118.2 23.9 L125 23.5 L127.5 25.6 L126.7 27.6 L127 28.6 L127.1 29.4 L125.6 30.2 L128.5 31.2 L131 33.7 L128.7 33.7 L128.3 33.9 L127.9 34.5 L129.6 37.8 L128.2 39.2 L128.6 41.7 L134.5 45.3 L140.4 44.5 L141.5 44.7 L142.2 45.5 L144.1 45 L146.9 46.4 L149.3 43.5 L152.7 44.5 L156.2 47 L156.5 47.3 L157.6 49.2 L158.6 54.7 L160.1 57.9 L161 59.5 L163.5 60.8 L165.1 69.2 L167.2 71.6 L180.9 81.3 L184.5 85.5 L190.9 90.1 L194.3 89.9 L198.9 94.4 L204.2 97 L213.9 104.5 L214.9 104.9 L216 104.8 L218.1 103.8 L226.3 108.4 L229.7 109.4 L230 110.3 L228 113.6 L227.6 118.8 L228.5 120.2 L227.3 122.6 L224.6 122.6 L216.3 117.6 L216 118.6 L214.7 119 L214.2 122.3 L212.8 124 L205.5 124.5 L204.3 124.9 L201.5 126.5 L201.1 126.8 L200.8 127.3 L200.9 131.1 L198.1 137.1 L198 141.3 L196.7 143.3 L196.4 143.7 L193.7 144.9 L193.2 146 L191.5 145.9 L190.9 146.2 L189.9 147 L189.7 149.1 L187.6 148.4 L182.3 150 L180.2 151.6 L175.2 151.9 L175.3 153.6 L176.9 155.2 L174.7 156.5 L174.8 160.3 L172.3 161.2 L169 163.9 L166.4 164.5 L164.8 163.4 L162.5 166.2 L161.7 163.1 L158.2 160.2 L151.9 160.4 L148.7 158 L148.2 156.6 L146.8 156.7 Z"/>
  </g>
</svg>
