<svg xmlns="http://www.w3.org/2000/svg" viewBox="0 0 240 180">
  <g fill="#17324a" stroke="#fffaf3" stroke-width="3.2" stroke-linejoin="round" stroke-linecap="round">
  <path d="M69.3 158.5 L65.5 158.5 L64.9 160.5 L60.7 164.4 L59.9 166.6 L53.7 170 L51.1 165.7 L49.7 166.9 L48.6 166.4 L44.2 167.6 L43.5 154.6 L45.1 152.8 L45.3 145.4 L46.3 144.4 L45.6 141 L48 128.8 L47.7 126.5 L49.3 123.7 L50.3 123.9 L51.5 118.5 L54.4 114.6 L53.8 110.6 L54.6 105.4 L60.4 103 L62.2 100 L62.7 96.6 L69.5 93.8 L75.2 86.4 L84.8 78.6 L91.7 69.5 L92 68.1 L89.2 65.7 L89.1 65.1 L89.1 63.9 L85.7 64.2 L83.2 61 L82.2 61 L80.5 63 L78.4 60 L76.4 60 L76 59.9 L76.8 55.4 L80 48.4 L80 47.3 L79.7 46.2 L77.3 43.7 L77 42.1 L79.1 36.4 L81.8 32.6 L81.2 29.7 L79.6 30.5 L82.6 25.2 L88.1 22.2 L88.8 22 L90.2 22 L98.8 25.8 L103.4 24.2 L106.1 21.3 L109.5 24.5 L110.2 27.5 L113.1 27.8 L114.3 29.3 L116.9 29.9 L117.1 27.3 L117.5 26.9 L122.6 23.7 L133.5 22.7 L140.2 19.4 L144.9 22.8 L154.1 23.2 L167.7 10 L168.6 10.4 L170.4 14 L170.1 16 L171.4 17.3 L170.8 19.6 L174.1 19.7 L172.6 21.2 L173.4 21.9 L172.8 22.3 L172.7 22.5 L175.1 22.3 L176.5 24.5 L177.8 23.6 L180.7 25.5 L180.6 29.5 L179.1 30.9 L180.6 39.2 L183.4 40.9 L184.8 46.3 L186.4 48.2 L187.6 47.6 L189.1 48.6 L191.4 55.6 L193 55.8 L194.3 59 L192.8 60.8 L192.5 61.5 L192.7 62.6 L195.6 69.5 L195.4 73 L196.7 74.7 L195.9 76 L195.9 81.5 L195.7 82.1 L190.3 89.5 L190.8 93.9 L189.9 94.3 L187.6 94.6 L184.7 96.2 L184.1 97.8 L182.1 98.1 L179.3 105.6 L176.8 107.2 L175.5 110.2 L172.6 111.6 L170.5 116.7 L170.8 118.8 L165.4 125.5 L167.1 132.9 L165.4 147.2 L165.5 151 L165.7 156.7 L77.9 156.3 L74 158.7 L69.3 158.5 Z"/>
  </g>
</svg>
