<svg xmlns="http://www.w3.org/2000/svg" viewBox="0 0 240 180">
  <g fill="#17324a" stroke="#fffaf3" stroke-width="3.2" stroke-linejoin="round" stroke-linecap="round">
  <path d="M127.5 28.7 L128.3 28.6 L128.7 28.7 L129.3 30 L133.3 29.1 L135.2 24.5 L141.5 26.1 L145 23.7 L148.5 23.9 L148.8 25.2 L152.4 24 L155.7 27.8 L156 31.5 L159.9 34.7 L159.9 35.4 L159.4 36 L155.9 36.7 L157.6 39.5 L157 41.6 L158.6 42.9 L157.1 44.5 L162.3 44.7 L163.1 46 L168 45.2 L168.8 48 L171.4 48.6 L170.5 50.1 L172.8 55.2 L171.6 56.1 L172.2 58.3 L174.5 61.1 L175.5 61.2 L177 59.8 L180.5 59.8 L182.5 62.4 L184.1 61.9 L186.8 63.8 L189.6 61.6 L196.5 59.6 L198.8 62.2 L198.7 64 L199.2 64.4 L200.3 66.2 L202.6 67.5 L203.6 69.5 L205.7 68.7 L205.8 66.5 L207.3 66.5 L208 68 L211.8 68.3 L215.1 71.2 L218.1 70.2 L219 72.3 L222.7 72.7 L223.5 74.8 L225.6 76.1 L228 74.9 L229.6 75.4 L228.5 77.1 L230 80 L229.7 81.8 L227.1 85.2 L224.2 85.8 L225.1 88.1 L228.7 88.6 L227.8 90 L225.1 90 L223.6 93.8 L226 94 L227.1 97.7 L225.8 98.9 L228 99.6 L226.1 102.4 L226.1 104 L225.1 104.4 L225.1 107.8 L213.8 107.5 L212.6 110.6 L207.5 112.2 L205.9 117.6 L207.3 118.4 L206.1 119.6 L206.3 121.3 L205.4 122.5 L204.5 121.3 L198.5 121.5 L195.5 125.4 L194.2 124.3 L189.7 126.9 L188.6 129.9 L189 128.3 L187.7 127.3 L184.1 128.3 L182.6 130.5 L181.5 129.3 L178 129.6 L172.8 133.6 L168.2 139.8 L166.8 140.3 L166.9 140.1 L167.2 139.6 L169.5 138.3 L171.3 135 L170.3 135.2 L170.5 133.6 L169.3 132.2 L169.6 134.4 L168.4 136.2 L165.7 137 L164.7 138.4 L167.1 146.7 L164.7 145.7 L164.4 143.6 L163.2 142.2 L160.5 142.5 L158.9 140.4 L155.1 139.6 L153 138.1 L150.8 137.7 L150.7 139 L149.6 138.9 L148.9 140.8 L145.2 139.3 L145.5 137.6 L144.1 139.2 L142.9 138.6 L143 139.1 L142.8 139.3 L139.6 139.2 L136.6 140.3 L133.7 139.4 L133.7 137.9 L132.2 137.9 L129 135.8 L129 136.5 L127.8 136.3 L128 135.4 L131.1 134.2 L127.4 132.4 L126.6 133.7 L124.4 130.8 L125.3 131.6 L134.8 133.1 L138.3 129.7 L134.5 131.3 L133.7 130.8 L133.5 130.5 L132.2 131.3 L130.5 129.9 L129.6 126.9 L130.5 124.8 L129.6 124 L130.1 122.9 L128.8 122.7 L129.1 121.9 L129.2 121.5 L127.3 118.4 L128.9 121.4 L128.4 123 L129.8 123.2 L129.2 124.2 L130.1 124.8 L128.8 126.8 L129.2 129.7 L124.2 130.1 L125.8 126.6 L124.6 127.9 L123.6 126.9 L124.4 128.4 L123.3 130.1 L115.8 131.3 L115.5 134.3 L114 135.3 L114.4 136 L112.2 140 L108.5 144.4 L107.7 145 L107.6 143.7 L107.1 145.2 L105.9 144.5 L105.4 145.9 L105.1 145.2 L105.2 146.8 L104.7 146.1 L103.6 146.6 L104.4 147.8 L102.8 148.9 L101.6 144.9 L101 149.9 L102.4 149.6 L101.2 151.4 L103 151.9 L102.5 156.1 L101.9 156.2 L101.5 153.5 L97.9 152 L93 155.1 L91.2 154.3 L91.1 156 L88.6 155.6 L85.6 154.2 L84 151.7 L84.9 150.6 L87.7 150.8 L88.2 149.5 L87.4 148 L90.5 144.9 L90.6 142.6 L93.3 141.7 L94 138.3 L93 136.9 L93.1 133.3 L96.1 131.7 L96.3 135.1 L97.6 133 L98.4 134 L99.4 132.7 L101.1 135 L102.5 133 L103.9 135.4 L107 134.8 L107.3 134.4 L107.6 133.9 L104.8 131.9 L105.2 126.8 L100.6 124.2 L101.2 122.1 L100.8 121.5 L100 122 L99.6 121.1 L100.5 120.7 L100.8 117.5 L99.7 116.9 L98.6 117.9 L95.4 114.1 L96.7 109.2 L96 108.6 L96.7 107.1 L95.5 105.2 L93.2 105.9 L91.4 102.6 L88.6 101.8 L87.5 103.5 L86.8 101.6 L85.5 102.2 L86 100.2 L82.7 100.3 L82.5 98.8 L76.5 95.7 L71.9 98 L69.7 97.3 L69.8 98 L68.7 98.2 L67.3 97.4 L66.8 99.2 L65.5 98.5 L64.7 99.9 L60.9 100.7 L59.3 104.8 L48.2 106.5 L46 109.4 L43.7 110 L39.4 105.7 L35.3 106.6 L32.9 105.4 L31 105.9 L30.1 104.9 L26.2 105.2 L22.3 102.8 L21.4 104.5 L19.7 104.6 L19.1 105.6 L18.2 103 L15.8 102.9 L14.2 100.1 L12.7 100.2 L11.7 97.2 L10 97.2 L10.1 94.1 L12.2 92 L12.8 89 L15.2 84.5 L19 85.9 L18.8 84.6 L16.7 83.1 L17.4 81 L16.2 76.3 L17.7 73.6 L29.1 60.6 L32.6 60.1 L32.9 58.5 L34.1 57.6 L33.8 54.4 L32.3 52.6 L34.5 51.7 L32.5 50.2 L31.3 46.6 L28.3 43.4 L29.1 41.6 L28 39.6 L28.1 37.5 L29.7 37.1 L32.6 38.2 L34.4 36.7 L35.8 35.8 L37.6 32.8 L46.7 31.5 L54.4 31.9 L67.6 35.2 L71.6 35.2 L71.7 36.8 L72.8 37 L72.5 38.1 L75.2 37.5 L77.7 38.1 L78.1 40.5 L79.5 37.7 L82.5 38.8 L84.2 37 L85.8 39.4 L87.2 38.5 L89 38.8 L89.5 41 L90.5 41.7 L91 39.6 L94.6 37.4 L95.8 37.9 L97.7 42.3 L99.5 42 L101.9 39.9 L103.9 41.1 L107.8 40.1 L109.9 41.6 L110.5 43.6 L112.7 44.7 L113.9 42.2 L112.3 37.9 L114.6 33.1 L117.5 30.7 L117.2 29.5 L119.9 29.1 L121 29.9 L122.9 28.4 L127.5 28.7 Z"/>
  </g>
</svg>
