<svg xmlns="http://www.w3.org/2000/svg" viewBox="0 0 240 180">
  <g fill="#17324a" stroke="#fffaf3" stroke-width="3.2" stroke-linejoin="round" stroke-linecap="round">
  <path d="M108.7 87.6 L168.7 87.6 L169.1 86.4 L169.9 88.5 L174.2 89.1 L174.7 90.1 L175.4 89.7 L176.8 90.8 L178 90.1 L181.4 90.9 L183.5 89.9 L190.9 94.3 L191.7 95.9 L192.7 95.6 L193 97.2 L193.8 97 L193.8 98.1 L196.2 99.7 L197 105.4 L194.8 110.3 L195.9 111.6 L203.8 107.9 L203.5 105.7 L204.5 105.1 L208.6 105.2 L212.8 100.6 L220.2 100.6 L220.5 99.7 L221.5 99.9 L225.1 92.6 L225.8 93.5 L227.1 92.9 L228.2 93.9 L228.2 98.4 L230 101.3 L227.6 102.9 L226.7 102.3 L226.6 103.2 L226 102.1 L225.1 104.2 L224.8 103.7 L224.3 104.6 L224.2 103.9 L224 104.7 L223.9 103.7 L223.9 104.8 L223 104.7 L221.5 107.8 L222.1 108.5 L221.1 109.4 L222.7 111.4 L223.4 111.2 L223.2 110.2 L223.6 111.5 L221.9 112 L221.9 111.3 L220.8 112.2 L221 111.1 L220.4 111.1 L220.2 112.5 L217.1 112.7 L215.2 114.4 L214.8 112.7 L213.8 119.1 L212.6 120.5 L212.8 119.7 L211.3 118.3 L212.5 117 L211.2 118.2 L212.5 122.2 L210.5 126.4 L211.2 123.7 L210.6 123.7 L210.7 122.2 L210.3 122.8 L209.7 122.1 L210.5 121.4 L209.6 121.3 L209.6 120.3 L210.7 118.4 L209 119.4 L209.5 122.5 L208.9 121.3 L208.9 122.1 L209.7 123.4 L207.6 122.3 L208.1 120.6 L207.6 121.6 L207.5 122.4 L209.9 123.9 L209.3 124.7 L207.9 123 L209.8 124.9 L209.4 126 L208.6 125.1 L209.7 126.8 L207.6 125.8 L208.9 126.2 L209.2 127.3 L210.4 127 L211.4 130.7 L210.5 127.7 L210.8 129.8 L209.9 129 L210.3 129.5 L208.9 130 L208.8 129 L208.8 130.3 L210.3 130.1 L210.2 131.2 L210.7 130.1 L211 130.6 L210.1 132.2 L208.1 131.6 L209.4 132.5 L208.7 133.4 L208 132.8 L208.3 133.4 L209.8 133.5 L207.5 134.8 L207.3 134.1 L206.2 136.8 L206.1 136 L206 137 L204.7 137 L201.6 141.2 L200.2 141.4 L200.7 142.1 L199.8 141.4 L200.2 142.4 L198.4 145.2 L198.9 150.4 L201.6 160.1 L200.8 165.4 L199.3 165.6 L198.8 163.4 L197.9 163 L197.8 160.4 L197.2 161 L197.4 159.5 L196.6 160 L195.7 157.8 L196.4 156.4 L195.8 156.1 L195.5 156.9 L196 153.3 L193.7 149.9 L192.5 149.3 L190 150.7 L189.6 148.6 L189.2 149.2 L187.5 148.3 L188.2 148 L186 148.5 L186.4 147.7 L184.2 148.9 L184.8 148.8 L184.3 147.3 L184 148.6 L182.3 148.2 L180.8 149.2 L179.3 148.5 L179.2 149.5 L180.7 149.1 L180.6 150.1 L181.3 149.5 L180.5 150.9 L182.1 152.3 L181.3 153.2 L181.5 152.4 L180.3 151.4 L179.5 151.1 L179.8 152.4 L179 151.8 L178.3 152.6 L175.9 150.2 L174.9 151.2 L171.6 150.7 L171.5 149.7 L171.5 150.7 L169.6 151.7 L170.2 151.1 L168.9 150.5 L169.4 151.7 L168.6 153 L166.5 154.6 L166.9 154.1 L165.5 153.8 L166 154.8 L165.2 154.6 L164.3 156.8 L163.6 156.6 L163.8 158.4 L163 158 L163.8 158.6 L163.9 163.3 L160.1 161.4 L159.3 157.6 L155.1 150.4 L153.1 150 L150.8 152.9 L148.3 150.8 L147.5 147.7 L144.2 143.9 L140.3 143.9 L140.3 145.3 L134.1 145.3 L126 141.6 L126.2 140.8 L120.9 141.4 L120.1 138.8 L117.9 136.5 L113.3 134.8 L113.3 132.9 L110.6 129.2 L110.8 127.3 L109.2 125.2 L109.5 124.2 L110.3 125.3 L109.5 123.5 L111.5 123.4 L109.5 123 L109.3 124.1 L108.1 123.6 L105.1 115.7 L105.9 112.3 L104.8 107.8 L105.7 106 L105.9 96.7 L107.8 96.8 L105.8 96.5 L105.8 95.3 L106.1 96.2 L106.5 95.2 L105.7 94.4 L106.4 94.3 L105.6 94.4 L104.4 89.6 L108.7 90.4 L109 91.3 L107.8 93 L109 91 L109.2 93 L108.7 93.6 L108.6 92.8 L108.4 94 L109.6 93 L109.9 90.9 L108.7 87.6 Z"/>
  <path d="M69 20.1 L69 50.7 L73.1 50.5 L73.1 51.6 L76.5 54.3 L76.7 55.3 L78.7 54.4 L79.1 53 L81.6 52.7 L85.6 56.9 L89 62.8 L92.9 64.6 L93 67.1 L91.9 68.5 L91.3 68.1 L91.1 68.8 L90.7 68 L91.9 67 L90.6 67.6 L91.6 67.1 L90.7 64.4 L88.2 66.1 L88.7 64.2 L89.7 64 L88.2 63.5 L86.9 61.2 L85.2 60.9 L86.3 60.3 L85.6 60.4 L85.1 59.1 L86.4 59.8 L85.2 58.5 L86.1 58.6 L84.9 58.9 L84.9 57.7 L84.1 58 L84.7 56.5 L83.9 57.5 L82.6 57 L81.3 53.4 L81.9 57.4 L81 56.6 L80.1 57 L79.7 55.5 L80.4 55.2 L79.5 54.8 L79.3 55.7 L77.6 54.7 L77.4 55.5 L78.6 55.4 L79.8 56.7 L78.4 57.5 L74.6 54.3 L71.5 53.1 L72.3 51.7 L72.7 53.1 L72.8 52.2 L73.6 52.3 L72.3 51.5 L70.6 52.6 L68 52.1 L68.2 51.2 L67.7 51.8 L62 51.6 L62.1 51 L60.4 50.7 L61.2 49.3 L59.4 50.5 L58.3 50.2 L59 49.4 L56.7 49.4 L57.9 48.9 L56.6 48.8 L57.2 47.9 L55.2 48.8 L54.7 47.9 L54 48.9 L54.3 47.5 L52.3 49.1 L53.4 49.6 L52.3 50.2 L53.9 50 L52.8 51.8 L51 52.1 L50.7 51.3 L50.5 52.6 L50 51.8 L50 52.8 L49.4 52.3 L49.1 53.2 L49 52.6 L48 53.1 L47.4 54.3 L45.3 54.2 L47.3 52.4 L45.3 52.4 L46.6 50.4 L46.4 49.3 L48.6 48.2 L51.6 48.9 L49.3 47.9 L51 46.7 L49.6 47.6 L48.2 47.2 L45.7 48.6 L44.2 50.7 L42.7 50.7 L43.6 51.9 L42.2 52.9 L41.9 52.3 L40.2 54.4 L42.4 55.4 L40.5 56.6 L40.2 57.8 L35.2 60.4 L35.2 61.5 L31.1 63.3 L30.6 63.9 L31.8 64 L31.1 64.7 L30.7 64.1 L30.6 64.9 L28.7 65.1 L28.5 66.1 L28 65.2 L24.9 66.8 L24.5 66.3 L25.2 66.2 L24.2 66 L23.4 67.7 L22.4 67.9 L21.9 67 L22.1 68.1 L20.8 67.5 L21.1 68.2 L20.3 68.5 L20.4 67.6 L23.7 65.1 L25.2 64.7 L26 65.7 L26 65.1 L27.2 65.5 L26.4 64.8 L26.9 63.8 L30.1 61.8 L30.7 62.2 L30.7 61.1 L32.2 59.8 L33.3 59.9 L32.9 57.8 L33.9 57.6 L33 57 L34.7 54.4 L31.7 56.2 L30.8 55.4 L32.1 55.2 L30.9 54.4 L30.2 56.9 L27 54.7 L23.9 56.4 L23 56.1 L24.1 55.6 L24.3 54.5 L23.2 54.1 L24 53.3 L22.4 50.8 L23.5 49.3 L21.8 50.8 L22.2 51.7 L19.8 52.3 L15.9 49.9 L17 48.6 L18.4 49.1 L18.1 49.9 L20.3 49.2 L19.1 48.9 L19.7 48.4 L16.5 48.7 L17.3 48 L16 47.7 L17.5 46.4 L16 48.2 L14.3 46.7 L14.3 46 L15.2 46.1 L14.4 45.7 L15.5 45.6 L15.2 44.9 L16.5 43.4 L17.7 43.7 L17.1 43.3 L18 42.7 L17.2 43.1 L17.1 42.3 L18.2 41.1 L20.4 41.8 L22.7 40.1 L25.4 40 L25.6 37.8 L24.4 37.1 L26 36.2 L25.1 35.5 L21.6 37.5 L20.8 36.4 L20.9 37.3 L14.2 36.7 L12.6 34.5 L14.6 34.5 L10 33.1 L18.4 30.1 L19.8 30.2 L18.6 31.4 L19.5 31.8 L25.3 31.7 L24.9 30.8 L23.5 31.2 L22.3 28.9 L24.1 30.6 L27.2 30.8 L27.2 30 L24.4 30.3 L23.6 29.8 L24.4 28.8 L19.7 28.5 L18.7 26.8 L12.8 24.4 L14 24.2 L14.2 22.6 L19.1 22.3 L23.6 17.9 L23.1 18.5 L24 18.4 L27.8 17 L27.4 17.9 L28.2 18.4 L28 17.5 L29.2 17.2 L27.4 17 L28.5 16.3 L32 16.3 L35.3 14.4 L37.4 15.3 L36 16 L36.4 16.5 L38.4 15.2 L40.2 16.5 L44.4 16.2 L44 16.9 L44.9 17.1 L43.7 17.2 L46.7 17.8 L50.9 17.3 L60.4 19.1 L64.3 18.6 L69 20.1 Z"/>
  </g>
</svg>
