<svg xmlns="http://www.w3.org/2000/svg" viewBox="0 0 240 180">
  <g fill="#17324a" stroke="#fffaf3" stroke-width="3.2" stroke-linejoin="round" stroke-linecap="round">
  <path d="M124.6 145.2 L121.9 146 L120.1 148.5 L117.1 148.4 L114.5 145.1 L113.4 145.2 L113.4 146 L110.7 146.1 L111.1 144.8 L112.6 144.3 L110.5 144.3 L110.1 142.6 L105.1 145.5 L103.6 144.3 L106 143.7 L106.2 142.5 L105.2 142.8 L105.4 143.7 L103.1 144.1 L102.5 143.4 L103.7 142.8 L103.7 141.8 L102 141.5 L104.1 139 L106.1 139.2 L112.3 134 L112.7 131.5 L113.6 131.2 L112.1 130.4 L113.3 128.4 L111.9 127.3 L112.6 125.6 L109.5 126.2 L108.9 127.6 L106.7 127.6 L111.7 121.2 L114.6 120.1 L114.2 119.4 L115.6 120.2 L118.5 119.2 L121 120.9 L120.1 118.6 L121.2 117.9 L122.7 120.1 L124.3 119.2 L122.7 119.5 L120.8 116.1 L122.6 113.4 L121.8 113.4 L121.5 113.3 L121.2 110.9 L122.9 110 L123.2 109.2 L122.4 109 L123.5 107.6 L123.5 105.8 L122.2 107.2 L121.4 106.1 L120.5 108.5 L119.7 107.9 L119.9 105.5 L119.7 106.5 L118.9 106.4 L116.3 101.8 L118.6 96 L121.5 94.9 L116.9 94.6 L116.8 96.3 L114.8 96.2 L113.1 98 L112.6 97 L112.1 97.9 L111.5 96.5 L110.9 96.9 L109.8 95.9 L110 99.3 L105.9 96.5 L105.1 97.3 L105.9 100 L103.3 96.3 L103.7 94 L104.8 95.6 L104.6 92.4 L107.9 87.5 L107.3 85.4 L105.3 83.9 L106 80.3 L109.1 80.6 L107.4 80.1 L106 78.3 L106.6 79.7 L105.9 79.7 L106.8 76.4 L105.7 77.9 L105.3 77 L105.6 79.7 L104.8 81.5 L103.6 79.4 L104 80.9 L103.1 80 L103 82.1 L102.1 81.7 L101.8 79.6 L105.3 75.4 L101.5 79.4 L100.8 79.2 L102 82.8 L100.7 84.2 L99.7 88.1 L100.2 89.1 L99.2 90 L98 89.8 L98.9 84.4 L100.8 81.8 L99.6 83.1 L99 82.6 L99.8 80.5 L98.7 80.8 L99.7 78.9 L98.6 80.4 L100.1 78.2 L100.3 76.7 L99.5 77.4 L100.5 75.6 L99.6 75.8 L99.8 74.6 L100.8 74.1 L100.1 74.1 L100.8 72.9 L102.9 72.8 L104.1 71.1 L103 72.6 L100.8 72.5 L101 71.5 L102.6 71.1 L101.1 71.4 L102 69.6 L104.7 68.8 L103.3 69.1 L102.6 68.8 L103.6 67.3 L98.9 72.1 L96.1 69.9 L97.5 70.2 L98.2 69 L100 69.1 L94.8 69.4 L94.1 68.6 L98.2 67.8 L97.4 67.1 L99 66.5 L96.8 66.1 L97.7 64.4 L100.2 64.5 L99.3 64.7 L98 63.4 L99.2 62.6 L101.3 63 L98.9 62.2 L99.7 60.6 L101.2 61.1 L100.4 60.4 L100.9 59.8 L98.4 60.1 L100.8 58.2 L98 59.3 L97.3 57.8 L97.7 55.8 L99.1 56.9 L100.3 56.5 L99 56.4 L97.8 54.9 L97.9 54.1 L98.9 54.1 L97.8 53.4 L97.8 51.8 L98.7 51.5 L99.5 53 L99.4 50.6 L100.2 51.6 L101.1 51 L102.8 51.9 L101.5 50.4 L104.1 52.1 L100.9 48.3 L102.1 48.5 L102.6 47.4 L101.5 45.6 L105.2 46.2 L103.2 44.5 L103.4 43.4 L104.5 43.8 L103.8 41.8 L104.8 40.2 L105.9 40.4 L106.1 40.5 L106.2 41.7 L106.6 40.5 L107.6 41.3 L106.7 42.9 L108.4 40.9 L109.6 41.4 L109.1 42.8 L109.9 41.7 L112.9 40.7 L118.6 40.6 L118.5 39.4 L121.6 40 L120.2 44.7 L113.2 50.5 L112.5 50.1 L113.1 51.6 L109.8 51 L113.9 52.5 L115.1 51.7 L113.3 54.1 L112.5 53.6 L109.7 55.5 L113.1 54.2 L111.1 57.1 L112.9 56.2 L112.8 56.1 L112.5 55.8 L116.7 55 L118.2 53.7 L121 54.5 L130.3 54 L131.7 55.4 L132.3 57.5 L130.4 59.8 L128.7 65.8 L126.5 68.4 L125.9 70.7 L124 72.5 L121.2 72.8 L119 74.1 L122.7 72.7 L123.4 73.1 L123.1 74.1 L125.3 75.4 L123.6 76.7 L122 76.5 L120.2 78.7 L118.5 79.2 L114.6 77.9 L116.1 79.4 L120.9 80.3 L123.2 78.6 L125 78.7 L125.3 79.5 L129.1 80.8 L131.7 84.9 L133.4 85.7 L134.3 92 L136.4 98.3 L137.3 99 L137 100.1 L142.5 102.3 L144.1 105.8 L146.6 107.8 L145.4 109.1 L148.5 115.8 L145.1 113.4 L141.1 114 L144.9 113.9 L149.2 118.2 L150.2 123.1 L147.4 126.2 L150.6 127.9 L152.1 124.9 L158.2 125.5 L161.6 128.1 L162.2 130.1 L162.4 132.3 L160.8 138.2 L158.7 140.3 L157.2 139 L158.2 140 L156.4 140.1 L158.2 140.2 L158.2 140.5 L157.5 141.3 L158.2 141.8 L156.4 142.8 L155.6 141.8 L154.5 143.4 L153.2 143.6 L155.4 143.4 L155.2 145.6 L150.6 147.6 L153.2 147.3 L152.3 148.6 L153.5 148.1 L153.8 149 L155.6 149.2 L156.7 148.8 L159.4 148.5 L159.3 151.7 L156.4 153.4 L155.6 155.6 L153.8 155.4 L149.6 158.2 L145 156.9 L140.7 157.8 L140.6 158.5 L139.4 156.8 L138.1 157.7 L137.5 156.7 L137.5 157.7 L134.8 155.6 L136.1 157.4 L134 158.6 L130.8 159 L129.9 158.3 L129.8 158.4 L129.5 158.9 L130.8 159.7 L130.4 160.5 L126.8 159.7 L126.4 161.5 L122.9 158.4 L118.6 160.1 L117.8 159.2 L117 162.7 L117.6 163.3 L116.1 166.1 L115 166.2 L113.6 164.6 L112.7 164.9 L111.5 162.5 L110.7 163.4 L111.5 164.6 L110.3 163.8 L107.3 164.2 L106.4 166 L104.6 167.2 L104.2 166.5 L104.1 168.8 L103 170 L102.1 168.2 L100.6 167.4 L99.9 168.5 L98.7 168.6 L98.8 167 L102 165.6 L104.3 162.9 L104.5 161.3 L106 161.7 L105.3 160.6 L106.4 160.5 L108.3 157.8 L108.7 154.2 L110.3 154.5 L111.4 153.3 L111.2 151.5 L115 150.7 L121.5 151.5 L121.9 148.7 L127 143 L124.6 145.2 Z"/>
  <path d="M85.5 93.5 L87.1 93.9 L87.9 91.6 L91.9 90.8 L95.7 91.8 L96.2 94.7 L98.8 97.6 L96.9 100.4 L99.8 99.3 L101 102.2 L100.3 104.4 L99.9 101.8 L98.7 100.8 L99.3 102.9 L98.6 104.2 L99.7 103.7 L100 105 L99.2 106 L97.3 106 L97.1 107.7 L95.9 108.9 L93.2 107.8 L93 108.5 L90.8 108.9 L90.7 107 L89.4 106.4 L87.5 103.3 L86 104.4 L86.3 106.1 L85 107.8 L80.3 106.3 L78 103.3 L77.6 102.6 L79.1 101.3 L81.6 100.4 L79.7 99.1 L83 98.4 L84.1 94.6 L85.5 93.5 Z"/>
  <path d="M88 53.4 L86.5 52 L88.3 51.6 L87.9 51.3 L87.9 51.2 L89 50.5 L86.7 49.7 L88.2 48.8 L87.4 49 L87.1 49 L86.7 46.9 L87.4 45.9 L88.4 46.3 L88.8 48 L88.7 46.7 L90.1 46.7 L89.2 45.3 L94.1 41.9 L94.7 44.4 L93 46 L94.9 45.7 L94.8 46.3 L92.7 46.4 L93 47.5 L90.9 48.3 L92.9 48.2 L92.7 49.5 L91.4 49.4 L92.3 49.9 L91.6 50.8 L90.5 50.6 L90.2 49.1 L91.1 48.7 L90.3 48.7 L89.6 49.5 L90.5 51.4 L89.8 51.2 L89.5 51 L89.9 52 L88 53.4 Z"/>
  <path d="M91.3 59.4 L89.5 57.7 L90.1 56.9 L91 57.9 L90.7 55.5 L93.5 57.6 L92.6 55.2 L93.5 54 L94.8 55.6 L94.8 60 L97 60.9 L99.1 60.6 L99 61.4 L96 64.1 L97.5 61.7 L96.2 61.9 L95.8 61.1 L95.5 62.6 L94.7 61.5 L93.4 62.1 L93.8 61.5 L92 59.9 L93.4 59.9 L91.6 58.3 L91.3 59.4 Z"/>
  <path d="M137.9 13.4 L136.4 21.8 L135.6 21 L136.5 16 L136 16.6 L135.3 15.8 L135.8 16.5 L134.9 17.3 L134.5 16 L133.4 16.4 L132.9 15.3 L134.7 14.9 L134.8 15 L134.8 15.5 L135.2 14.7 L135.7 15.3 L136.5 14.3 L135.4 13.8 L135 12.3 L133.6 12.5 L134.3 11.3 L135.5 12 L134.7 11.4 L136.2 10 L135.6 13.6 L136.8 12.2 L137.5 13.2 L136.9 13.5 L137.9 13.4 Z"/>
  </g>
</svg>
