<svg xmlns="http://www.w3.org/2000/svg" viewBox="0 0 240 180">
  <g fill="#17324a" stroke="#fffaf3" stroke-width="3.2" stroke-linejoin="round" stroke-linecap="round">
  <path d="M217.2 30.7 L219.8 31.8 L220.1 32.3 L221 35.4 L220.6 42.8 L221.6 45.8 L220.7 57.1 L221.6 60.8 L219.3 61.1 L218.4 64.6 L215.6 67.1 L212.6 67.9 L210.8 71.6 L210.4 72 L209.6 72.3 L206.7 71.2 L205.5 68 L203.9 66.6 L203.6 65.9 L203.7 65.3 L204.5 65.1 L206.6 66.2 L205.6 61.8 L204.5 61.1 L201.1 61.2 L196.9 65.1 L196.7 73.5 L197.7 76.3 L196.5 77.4 L195.3 81.2 L195.9 86.4 L197.4 88.1 L197.3 90.3 L195.1 95.4 L195.6 95.7 L198.2 96.3 L199 96.3 L201.3 95.4 L202.6 95.9 L205.3 102.4 L197.3 105.8 L196.5 105.7 L195.4 104.8 L190.5 105 L182.5 107.8 L182.3 108.5 L182.7 109.3 L185.6 111.9 L185.8 113.3 L185.9 116.8 L183.4 121.1 L182 126.9 L179 130.7 L176.7 139.7 L172.7 146.8 L171.4 151.3 L171.1 166.2 L168.3 169.9 L60.2 155.3 L18.8 101.4 L18.4 94.2 L19.3 92.9 L19.3 90.9 L18.6 89.2 L19.4 88.3 L19.8 89.1 L20.7 90.4 L21.2 95.6 L21.8 96 L22.4 95.3 L22.8 93.2 L24.3 95.9 L26.4 92.7 L27.3 94 L27 99 L28.5 106.1 L29.5 106.3 L31.6 106.4 L33.6 107.7 L33.7 106.7 L34.6 106.5 L37 106.7 L37.3 106.6 L39.4 107.8 L43.1 107.7 L51 105.8 L60.8 99.1 L61.1 96.9 L61.9 96.4 L65.3 99.6 L72 99.1 L76.6 99.7 L79 98.4 L81.6 100.5 L83.3 99.7 L84.2 100.1 L85 100.5 L85.7 100.3 L84.8 98.4 L85.8 98.2 L89.5 101.5 L97.6 100.6 L99 101.8 L100.7 101.6 L103.3 103.9 L106.5 103.9 L108.4 102.8 L115.9 103.1 L116.3 102.7 L118.9 101.3 L126.2 99.4 L128.9 96.7 L131.7 95.9 L134.6 93.6 L135.4 93.6 L137.1 94.3 L137.5 93.8 L139 92.6 L139.8 91.5 L141.5 88.1 L141.3 87 L141.4 86.4 L142.1 86.1 L141.5 85.4 L143.8 86.1 L142.7 84.1 L145.2 85.4 L145.1 84.2 L142.1 83.5 L138.6 81.3 L140.1 80.3 L140.6 81.3 L141.5 79.7 L143.7 83 L144.7 82.9 L144.4 82.7 L143.8 82.2 L145.7 82.4 L147.9 78.4 L147 77.3 L149.3 75.3 L148.1 71.4 L150.8 68.9 L152.8 69.4 L153.4 69 L153.6 68.4 L153.1 67.6 L165.3 60.1 L165.1 59.1 L166.5 58.9 L166.7 59 L175.1 47.7 L176.6 49.4 L176.5 50 L175.9 50.8 L177.1 50.5 L176.2 46.3 L178.5 44.8 L178.6 43.2 L180.4 42.5 L181.7 40.7 L182.4 41.3 L183.1 40.7 L185.8 33.7 L186.5 33 L187.2 32.7 L186.3 35.3 L189.6 34.9 L192 30.9 L198.8 26.7 L203.7 21.6 L202.8 23.8 L203.4 24 L204.2 20.7 L207 17.4 L207.1 16.5 L206.8 16.5 L205.7 17.8 L208.7 10.6 L212.3 10.1 L212.9 11.8 L213.1 12.8 L212.6 19.2 L211.3 21.7 L212.7 24.3 L211.4 25.8 L211.3 26.6 L211.5 28.7 L214.1 31.2 L217.2 30.7 Z M216.4 44.5 L215.3 45.3 L215.7 46.9 L215.3 47.4 L214.2 48 L214.1 49.1 L214.2 49.6 L214.7 49.8 L215.4 50 L219.9 47.4 L220.1 46.2 L216.4 44.5 Z"/>
  <path d="M106.5 98.8 L105.8 98.7 L105.3 98.5 L105.3 98.1 L105.9 97.5 L110 95.2 L111.6 95.5 L114.6 93.4 L115.2 95.2 L119.1 96.8 L119.5 98.1 L118.9 99.2 L117.6 99.6 L116.1 99.6 L114.1 97.9 L113.7 98.8 L114 99.1 L112.9 99.8 L111.5 100.1 L106.5 98.8 Z"/>
  </g>
</svg>
