<svg xmlns="http://www.w3.org/2000/svg" viewBox="0 0 240 180">
  <g fill="#17324a" stroke="#fffaf3" stroke-width="3.2" stroke-linejoin="round" stroke-linecap="round">
  <path d="M201.9 109.4 L197.6 110 L196.4 107.6 L194.4 107.2 L194.4 105.3 L195.8 104.8 L199.5 100.8 L199 100.5 L197.8 100.3 L197.7 99.5 L198.7 99.6 L195.4 95.9 L194.8 95.7 L194.3 95.8 L194 97.6 L193.3 98.4 L185.7 102.7 L183.4 100.2 L181.6 99.9 L180.8 103.2 L179.4 103.7 L180.9 107.6 L180.8 108.4 L179.5 108.3 L180.5 110.1 L177.1 109.5 L171.5 110.6 L172.8 111.5 L173 111.5 L176 110.9 L176.7 112.1 L174.5 112.8 L174.2 112.2 L174 112.1 L175.3 115.5 L173.7 113.9 L174 115.8 L173.5 116.5 L172.1 116 L171.6 119.9 L170.7 121.1 L168.4 121.5 L160.4 119.9 L157.7 121.1 L156.5 123 L155.7 126.7 L159.8 128.2 L160.1 130.7 L165.3 130.8 L166.3 133.1 L164.9 134.1 L164.7 138.4 L168.7 144.6 L167.2 148.4 L165.6 149.1 L161.9 155.6 L161.2 161.4 L159.5 160.3 L158.4 160.9 L157.7 159.8 L154.5 161.5 L151.3 158.1 L145.1 158.4 L145 151.9 L146.7 148.5 L146 147.3 L144 147 L136.8 142.9 L133.3 143.5 L124.5 136.5 L122.6 135.9 L120.9 134.9 L117.1 131 L114.7 131.4 L109.1 127.2 L106.1 123.6 L93 113.3 L91.7 106.1 L89.5 104.8 L85.6 94.2 L79.9 91.2 L78 93.7 L72.6 92 L67.7 92.7 L62.8 89.7 L62.5 87.6 L63.7 86.4 L62.2 83.5 L64.8 82.8 L62.7 80.7 L60.5 80.1 L61.5 79.1 L61.3 76.8 L62.1 76.1 L59.8 74.1 L54.2 74.4 L52.4 73.5 L50.6 70.3 L47.4 69.9 L46.5 69.1 L43.8 65.9 L42.8 68.1 L39.2 67.5 L37.5 68.6 L39.9 70.3 L42.1 74.3 L41.2 74.4 L41 74.4 L40.1 71.9 L36.1 70.7 L34.8 71.9 L34 76 L28 76.5 L22.8 81.1 L22.6 85.3 L23.5 88.9 L25.2 90.1 L23.5 91.9 L10 90.9 L10 28.1 L42.7 18.5 L74.8 38.6 L76.4 42.3 L87.5 54 L102.7 51.5 L118.3 52.9 L124.6 49.9 L129.1 55.1 L132.2 57.1 L135.8 64.3 L139.7 62.4 L138.5 79.2 L144.9 79.4 L147.8 93.7 L162 93.7 L163.2 92.9 L164.4 95.5 L165.7 95.8 L165.3 98.1 L163.9 99.6 L170 103.4 L172 102.9 L171.4 97.8 L175.3 93.7 L177.3 92.8 L177.4 89.9 L179.6 88.5 L181.9 88.3 L181.9 87 L184.7 85 L188.5 84.2 L194.2 78.2 L195.7 77.7 L197.1 79 L199.1 75.9 L200.5 76 L203.1 74.3 L205.7 75.9 L205.7 75.9 L205.5 76.5 L200.5 78.8 L200.1 80.7 L198 81.2 L195.5 84.2 L191.8 86.5 L191.6 86.9 L191.8 87.5 L192.3 87.7 L194.1 87.9 L195.5 89.4 L198.2 88.3 L199.5 90.3 L199.5 92.3 L204.1 93.6 L204.8 94.5 L205.1 93.1 L206 94.4 L206.6 93.7 L207.5 94.4 L207.8 94.2 L207.8 90.4 L209.2 91.3 L209.6 91.2 L210 90.8 L210.1 87.9 L211.1 87 L211.1 89.1 L212 88.6 L212.1 88.7 L213.3 90.5 L213.6 93 L215.7 93.7 L217.3 93.1 L217.4 96.4 L219.5 95.1 L223.2 98.4 L225.9 98.5 L226.4 99.5 L228.1 98.6 L230 99.5 L225.3 102 L225 102.5 L224.9 103.6 L223.8 103.6 L223.3 104.7 L219.8 103.1 L220.7 105.4 L220.3 106.8 L217.6 105.6 L214.7 108 L215.5 109.3 L213.2 109.2 L211.5 111 L210.5 109 L209.8 110.1 L205.7 107.9 L205 108.9 L201.9 109.4 Z M196.9 96 L197.9 97.5 L196.9 96 Z"/>
  </g>
</svg>
