<svg xmlns="http://www.w3.org/2000/svg" viewBox="0 0 240 180">
  <g fill="#17324a" stroke="#fffaf3" stroke-width="3.2" stroke-linejoin="round" stroke-linecap="round">
  <path d="M210.6 60.4 L213.3 64.8 L211.5 65.4 L210.5 67.6 L209.1 67.8 L206.1 70.4 L203.5 70.9 L202.7 73.1 L200.8 74.7 L202.6 77.4 L202.3 79.4 L202.4 79.5 L203.4 80.3 L204.4 79.4 L205.8 79.6 L206.8 80.3 L206.6 81.5 L205.7 82.9 L201 85.4 L198.3 84.6 L198.1 85.7 L195.2 86.1 L194.2 88.1 L195.2 89.6 L195.5 93.3 L191.7 96.6 L201.8 107.4 L202.5 111.1 L198.5 113.9 L197.5 116.2 L193 116.3 L193.1 117.4 L190.2 118 L189.3 120.1 L187 120.1 L185.5 121.3 L181.3 122.3 L177.5 121 L175.8 122 L175.6 123.1 L173.1 123.1 L172.5 125 L173.1 128.3 L171.1 129.7 L169.9 129.4 L164.8 124.2 L164.2 124 L163.7 124 L162.6 125.6 L160.4 124.3 L155.3 125.2 L153.5 121.9 L147.7 121.9 L146.2 119.9 L145.6 119.6 L144.9 119.6 L144.6 120.7 L147 124 L153 129.2 L152.8 135.7 L155.9 141.4 L155.2 144.8 L164.3 145.5 L164.5 147.6 L163.9 149.2 L161.9 149.5 L158.6 151.7 L155.3 152.3 L154.6 156.5 L151 160.1 L150.2 158.1 L145.8 161.7 L144.3 161.4 L140.2 163.4 L139.3 166.2 L137.6 166.4 L135.9 169.4 L134.6 170 L134 168.8 L135 167 L133.7 165.3 L131.8 165.5 L126.5 168.9 L124.4 168.7 L116.5 162.3 L112.7 151.4 L112.9 149.6 L111.5 147.6 L111.9 145.8 L106.6 141.7 L105.9 140 L104.2 139.6 L102.8 140.3 L102.8 139.4 L103 139 L110.3 132.1 L107.7 127.5 L105.8 126.9 L103.7 121.2 L103.6 117.6 L102.5 116.4 L103.6 109 L102.9 105.6 L105.6 103.1 L105.9 98.9 L108.7 96.2 L107.8 94.3 L108.3 93.1 L103.2 91.5 L101.1 92.9 L92 94 L86.5 92.8 L83.6 94.8 L82.4 93.7 L80.9 94.2 L71.5 82.4 L68.8 82.9 L63.6 80.6 L57.2 82.5 L50.9 81.3 L48 82.2 L45.6 81.8 L43.6 79.4 L42.9 76.7 L40 76.3 L39.5 75.9 L39.1 75.3 L39.5 69.9 L38.9 69 L41.1 66.7 L40.2 63 L36.4 59.1 L34.8 52.7 L32.6 52.9 L31.8 50.2 L29 51.9 L26.6 51.6 L32.1 43.1 L33.2 34.2 L38.8 24.9 L42.2 24.3 L46.1 17.4 L55 14.8 L54.3 16.1 L46.7 18.1 L46.1 18.9 L47.7 23.6 L50.9 26.4 L48.9 26.4 L51.5 30.5 L50.8 34.2 L45.9 39.2 L44 43.1 L46.4 46.8 L45.6 46.3 L46.3 47.1 L45.5 47.1 L45.8 48 L46.8 47.4 L47.9 48.2 L47 49 L47.2 48.5 L47.2 48.4 L49.4 49 L49.2 50.5 L48.2 51.1 L49.2 51 L49 52.7 L49.7 53.3 L52.4 53.6 L56.2 52.2 L58.6 49.8 L58.2 46.6 L59 44 L53 34.9 L53.1 33.5 L52 32.6 L52.2 30 L51.4 29.3 L53.5 29.1 L53.8 27.7 L52.6 27.2 L70.1 21.7 L71.1 20.1 L72.7 20.5 L71 18.7 L76.1 20.6 L76.8 19.6 L75.8 17 L70.3 18.2 L70.4 15.9 L69.1 14.7 L70.3 11.3 L73 10 L74.3 10.5 L75.5 12.5 L76.7 17.8 L78.4 20.1 L83.4 19.2 L88.9 20.3 L95.2 23.8 L96.9 27.6 L95.6 27.7 L97.5 28.2 L96.2 29 L96.8 31.3 L99 33.7 L102.6 34.2 L114.1 32 L123.7 32 L124.5 31.4 L127.7 32.5 L126.6 33.4 L129.9 36.2 L129.4 36.6 L132.2 37.4 L130.1 36.2 L141.1 39.8 L145.1 39.2 L146 37.3 L146.6 37.9 L147.1 37 L149.4 37 L150.7 36.3 L149.4 36 L150.6 35.7 L150.3 35.2 L150.9 35.8 L153.2 33.8 L158.3 34.3 L160.2 33.8 L160.6 33.6 L155.4 32.3 L152.4 33.3 L152.1 31.1 L153.7 31.9 L157 31.7 L158.4 30.6 L162.3 31.7 L167.2 30.3 L170.6 30.8 L173.7 29.9 L181.2 31 L185.5 30.2 L184 31.4 L180.1 31.6 L178.8 33.1 L170.7 33.1 L169.5 34.2 L171.6 33.1 L171.9 34.9 L169.7 34.8 L169.6 36.6 L170.6 36.3 L170.4 34.8 L173.1 35.1 L174.7 38.9 L172.2 39.9 L169.4 39.1 L170.3 39.2 L170.7 40.4 L170.8 39.3 L172.3 40.5 L172.6 39.5 L174.9 39.2 L175.1 37.3 L176.6 38.4 L179 44.5 L180.1 42.2 L179.8 41.3 L179.8 40.8 L180.1 41 L180.3 41.3 L181 44.5 L180.8 45.1 L180.4 45.5 L181.2 44.3 L180.7 41.4 L183 42.3 L180.3 41.1 L180.7 40.2 L185.7 43.3 L185.5 45.3 L186.4 43.8 L186.9 46.1 L187.1 44.7 L185.7 42.9 L189 43.5 L188 41.8 L191.3 44.1 L190.2 42.7 L191.1 43 L194.3 46.3 L196.2 46.2 L199.2 48.1 L200.1 50 L196.2 52.5 L195.8 53.7 L197.8 52 L195.7 55.1 L194.3 59.7 L188.5 59.4 L188 59.9 L188.2 60.1 L188.9 60.5 L192.2 61.4 L193.2 62.7 L194.6 61.3 L196.5 61.2 L196.1 62.6 L197.5 60.2 L201.4 59.8 L204.5 60.8 L205.8 59.4 L210.6 60.4 Z"/>
  </g>
</svg>
