<svg xmlns="http://www.w3.org/2000/svg" viewBox="0 0 240 180">
  <g fill="#17324a" stroke="#fffaf3" stroke-width="3.2" stroke-linejoin="round" stroke-linecap="round">
  <path d="M137.9 103.6 L138.3 101.7 L137.1 100.2 L138.7 99.7 L139.4 97.4 L134.1 92.1 L136.6 90.3 L137 88.8 L135.6 88.9 L133.6 86.7 L132.2 86.4 L130.9 83.9 L129.8 85.1 L129.1 84.8 L127.7 82.5 L127.6 78.9 L126.4 78.9 L125.1 75.7 L124.3 76.2 L119.2 71.5 L116.6 66.1 L115.5 66.4 L113.4 64.6 L112.6 63.1 L113.5 61.4 L112.8 60.4 L108.7 59.4 L102.9 55.2 L99.8 54 L102.3 52 L101.3 49.8 L107.7 50.6 L109.7 48.7 L109.3 47.6 L111.2 46.5 L110.8 44.5 L108.5 44.3 L108.3 42.6 L105.1 41.6 L106.8 40.8 L107.6 39.2 L102.4 36 L99.1 37.2 L98.1 39.3 L95.4 37.5 L92.1 37 L88.9 32.8 L90.7 29.4 L90.4 27.6 L89.4 28 L88.9 26.5 L88.4 28.2 L87.3 28.5 L86.7 25.8 L82.1 21.4 L81.9 20.3 L83 20.2 L85.2 16.5 L91.2 20.1 L94.3 16.2 L96.2 18.5 L97.7 16.1 L100.9 19.3 L102.2 16.2 L103.8 15.9 L104.9 17.4 L107.1 15.7 L108.4 16 L109.9 14.8 L109.6 13 L110.5 12.1 L113.8 11.2 L115 10 L117.6 13.4 L120.6 15 L123.5 14.2 L125 15.6 L127.3 14.8 L130.4 16.3 L129.1 18.6 L128.1 18.3 L127.6 19.9 L128.8 21.6 L129 25.2 L129.8 24.7 L132.6 25.6 L132.4 26.7 L135.4 27.8 L136.1 29.1 L140.6 28.5 L142.8 30.3 L142.2 30.8 L141.8 29.8 L140.3 30 L140.7 30.6 L138.7 32.4 L136.8 32 L136.4 35.3 L134.6 36.3 L133.2 36 L134.1 35.1 L132.8 35.2 L132.5 36.1 L131 35.7 L131.9 36.5 L131.1 36.8 L130.2 36 L130.6 35.4 L128.8 35.4 L130 36.2 L129.4 36.8 L130.5 39.1 L129 38.8 L129.4 39.3 L128.2 39.2 L128.6 40 L127.5 40.5 L128.2 40.5 L127.5 41.7 L128.3 41.5 L128.3 43.4 L127.3 43.1 L127.9 44 L126.2 44 L124 46.5 L123.2 46.8 L123.2 46 L121.7 47.2 L120 50.7 L120.1 54.3 L118.1 57.4 L119.5 60.8 L119.9 59.9 L123.1 65.2 L124.9 65.7 L125.7 67.4 L126.6 66.7 L127.6 68.6 L126.7 69.3 L127.3 71.1 L125.1 70.5 L127.4 71.4 L130.1 75.2 L133.7 77.9 L134.6 79.6 L134 80.3 L134.8 79.8 L139.1 83.3 L137.1 82.6 L139.8 84 L141.3 86.5 L143.4 85.9 L143.5 87.1 L145 87.3 L144.4 88 L145.3 88.7 L145 89.6 L145.6 89.5 L145.2 88.2 L146.4 88 L145.8 89.7 L150 94.8 L149.4 95.5 L150.2 95.1 L150.9 96.9 L151.5 95.8 L152.8 97.7 L151.9 98.8 L154.2 103.5 L153.9 105.2 L156.5 112.6 L156.4 113.4 L156.5 113.9 L155.9 112.4 L155.6 113.3 L156.4 116.3 L155.5 115.3 L156.8 117.3 L155.9 116.8 L155.7 117.8 L156.5 118.2 L156.5 120.6 L158.2 123.2 L157.1 124 L158.2 125.7 L157.9 126.8 L157.5 125.4 L156.9 125.7 L157.1 124.3 L155.4 125.9 L156.9 128.6 L156.4 129.1 L154.9 128 L156.4 134.3 L155.6 134.2 L155.1 131.5 L155.5 133.1 L154.6 134.3 L155.4 134.3 L155.8 135.7 L154.7 137.5 L153.5 136.8 L153.4 140 L151.4 140.2 L150.5 141.7 L148.4 142 L146 144.6 L144 144.6 L142.9 146.9 L141.7 146.7 L135.3 150.4 L134.3 149.3 L132.4 149.3 L132.4 146.9 L132.2 149.4 L131.3 147.4 L129.9 147.2 L129.8 148.7 L128.2 149.8 L129.8 149.4 L130.3 151.4 L126.5 151.1 L130.4 152.7 L128.9 154.8 L125.2 151.7 L126.9 154.1 L129.4 155.6 L129.1 156.2 L128.2 156.4 L123.3 152 L128.1 157.3 L127.8 159 L126.1 159.4 L120.2 154.4 L122.9 157.2 L124.3 159.8 L124.1 161.3 L117.3 163.9 L112.8 169.3 L112.1 169.5 L110.2 170 L108.8 169.5 L111.3 168.5 L110.2 168.4 L110.9 167.4 L109.4 167.3 L110.2 157.3 L110.4 156.7 L110.6 156.1 L112.5 155.1 L112.9 156 L112.8 154.8 L109.4 152 L107.7 152.9 L106.9 150.1 L106 150 L107.4 148.7 L110.5 148.5 L112.4 146.8 L111.9 144.8 L112.5 144.3 L115 145.4 L116 144.1 L119.6 143.5 L120.7 145.4 L121.4 144.8 L124 146.2 L123.7 142.9 L123 143.1 L120.5 140.5 L120.1 136.9 L121.6 136.6 L122.3 135.4 L126.6 136.5 L126.2 133.2 L129.2 133.3 L134.9 129.5 L136.8 130.1 L137.9 129.2 L138.4 126.3 L137.3 121.8 L138.8 116.7 L135.8 110 L137.9 103.6 Z"/>
  </g>
</svg>
