<svg xmlns="http://www.w3.org/2000/svg" viewBox="0 0 240 180">
  <g fill="#17324a" stroke="#fffaf3" stroke-width="3.2" stroke-linejoin="round" stroke-linecap="round">
  <path d="M182.8 25.9 L196.5 58.4 L197.9 59 L203.3 71 L194.2 74.1 L189 77.7 L186 83.6 L187.3 86.2 L187.4 90.6 L181.6 92.5 L180.7 93.8 L180 93.4 L177 94.9 L177.2 95.9 L174.5 96.3 L171.8 97.9 L156.5 101.5 L149.6 105.4 L145.2 105.5 L134.7 109.1 L131.2 111.7 L129.5 111.6 L127.9 115.3 L122.3 120.7 L119.8 120.7 L118 121.8 L115.6 121.2 L112.9 122.2 L112 121 L109.7 120.5 L103.3 123.7 L98.3 128.2 L94 129.5 L89.3 130.5 L87.7 131.6 L85.4 132.5 L76.8 132.4 L66.3 134.2 L61.5 139.4 L56.3 141.4 L55.2 145.3 L53.7 144.9 L54.7 144.5 L54.5 143.4 L51.9 144.3 L51.7 145.1 L52.6 145.1 L51.9 145.9 L50.6 145.1 L49.1 145.7 L48.4 144.5 L46.2 144.3 L43.3 147 L34.9 148.4 L28.4 145.4 L25.8 146.8 L25.9 143.6 L21.4 135.3 L22.4 126.9 L19 120 L16.4 111.7 L17.6 113.1 L17.7 111.3 L15 104.6 L16.2 106 L16 103.4 L14.7 99.8 L11.9 98.3 L10.5 98.8 L10 97.7 L11.3 97.7 L11.9 95.4 L11.6 96.4 L13.4 98.4 L13.5 95.1 L11.5 89 L14.1 85.3 L13.3 76.2 L17.9 73 L18.8 70.4 L20.5 70.5 L21.1 68 L19.2 65.5 L19.4 62.5 L20.1 60.1 L21.8 59.3 L20.2 57.9 L22.8 55.3 L26.2 54.2 L30.7 57.4 L33.7 57.4 L33.8 58.3 L35.7 57.1 L37.6 57.4 L38.4 56.4 L47.6 55.8 L57.1 55.9 L62 58.1 L78.5 59.8 L81.5 59.4 L85.6 58.8 L90.6 65.1 L93.9 65.1 L98.9 62.3 L101.8 55.2 L112.4 42.1 L128.5 33.9 L182.8 25.9 Z"/>
  <path d="M228.7 149.5 L230 149.3 L228.2 150.6 L224.6 151.6 L222.9 153 L215.1 154.1 L212.1 153.5 L207.3 149.6 L208.7 149.2 L208.9 147.3 L210.8 146.2 L213.7 146.4 L217.2 148.4 L217.6 147.9 L217.7 147.5 L220.2 147.5 L222.2 146.4 L228.7 149.5 Z"/>
  </g>
</svg>
