<svg xmlns="http://www.w3.org/2000/svg" viewBox="0 0 240 180">
  <g fill="#17324a" stroke="#fffaf3" stroke-width="3.2" stroke-linejoin="round" stroke-linecap="round">
  <path d="M200.4 29.7 L200.6 31 L201.5 31.2 L201.4 33.2 L202.9 33.8 L203.2 32.6 L203.5 32.8 L204.4 32.8 L205 34.8 L207 36.5 L207.3 37.2 L207.4 37.6 L206.4 40.3 L209.8 42.7 L210.4 45.8 L212.3 48.5 L208.7 52.3 L205.3 53.6 L207.8 58.1 L205.3 62.2 L205 64.7 L206.4 65.3 L206.6 68 L205.6 73.9 L207.1 77 L209.9 77.4 L207.2 80.3 L205.8 80.2 L204.4 81.7 L203.7 81.1 L202 81.6 L200.7 83.9 L201.8 86.5 L201.5 91.4 L198.7 96.4 L196.3 97.5 L198 98.3 L198.6 99.2 L198.7 99.4 L197.9 100.5 L201.2 103 L201.6 104.9 L203.7 102.9 L204.8 104.3 L157.7 120 L160.8 130.5 L151.7 130.2 L147.8 130.9 L137.4 135.9 L136.3 137.3 L136.3 142.8 L135.5 144.4 L119.8 152 L116.1 158.6 L109.4 165.1 L108.8 167 L102.2 170 L94.7 167 L90 168.9 L86.1 165.8 L83.6 166.6 L80.7 166.3 L77.3 164 L76 162.1 L70.4 160.7 L68.5 161.3 L63.1 160.4 L49.9 163.1 L48.9 161.5 L46.8 161.4 L43.8 157.4 L40.3 155.6 L33.5 147.5 L31.8 147.3 L29.7 145.2 L29.7 142.6 L29.5 142.5 L28.9 142.4 L27.8 139.2 L27.7 87.9 L59.6 87.9 L57.5 84.5 L60.1 78.2 L58.9 74.1 L59.5 68.8 L58.9 65.8 L60.6 61.9 L59.1 53.4 L61.1 53.8 L61.6 56.2 L65.5 57.1 L65.9 59.7 L64.1 61.6 L66.7 63 L68.5 62.7 L70.9 60.7 L80.3 58.6 L79.8 61.9 L80.8 65.9 L82.7 66.8 L83.2 68 L85.2 67.3 L87.1 68.5 L88.8 68.3 L90.9 70.1 L97.7 70.2 L102.5 71.9 L106.1 70.2 L107.3 65.1 L109.8 64.7 L110.6 68.6 L113.6 70.4 L115.2 74.6 L117 76.4 L120.5 75.9 L122.1 77.6 L127.8 78.8 L128.1 79 L129.4 80.1 L130.8 82.5 L130.2 83.6 L131.3 86 L132.5 85.3 L133.3 85.4 L133.9 86.1 L137 90.5 L138.4 94.3 L140.4 94.1 L141.4 94.9 L147.6 91.5 L149.1 92.4 L148.2 94.7 L150.6 95.3 L151.1 74.2 L146 75.6 L145.6 77.2 L146.8 78 L146.4 79 L142.5 77.6 L139 77.8 L134.6 71.5 L130.7 69.6 L128.3 63.9 L129.7 61.1 L131.6 52.4 L133.8 49.7 L132.7 47.7 L132.6 43.7 L131.7 42.8 L133.8 35.9 L130.9 29.2 L128.3 27.5 L132.2 24.6 L134.8 22 L136.8 19.3 L137.4 17.9 L137.5 16.4 L136.8 15 L136.8 14.7 L166.2 10 L166.6 11.5 L167.4 13.1 L169.9 16.2 L174.2 17 L175.6 16.4 L178.6 18.3 L178.8 20 L180.9 21.8 L182.5 21.3 L184.8 22 L184.9 24.1 L192.5 25.4 L193.8 27.1 L197.1 27.7 L200.4 29.7 Z"/>
  </g>
</svg>
