<svg xmlns="http://www.w3.org/2000/svg" viewBox="0 0 240 180">
  <g fill="#17324a" stroke="#fffaf3" stroke-width="3.2" stroke-linejoin="round" stroke-linecap="round">
  <path d="M33.7 61.4 L35.6 62.6 L39.2 63 L43.1 61.8 L46.8 64.1 L47.1 65.6 L48.5 66.2 L49.4 66.3 L54.9 63.5 L65.8 67.9 L72.9 65.3 L75.8 62.6 L76 60.8 L85.3 51.2 L86.8 47.4 L89.8 42.7 L90.7 41.7 L97.3 38.6 L99.5 36.7 L101 35.8 L111.1 32.3 L112.8 30.6 L113.9 28.2 L113.9 20.5 L115.6 18.2 L118 17.8 L121.2 14.7 L129.6 11.1 L135.8 10 L144 10.9 L148.2 10.5 L148.4 19.1 L158.5 19 L161.5 20.6 L164.2 19 L165.2 19.1 L167.5 19.6 L170.7 22.9 L177.5 24.2 L180.9 27.1 L182 29.2 L190.5 29.7 L199 33.2 L200.2 35.8 L205.6 35.2 L204.4 39.1 L202.5 41.3 L205.3 46.6 L205.9 50.2 L206.8 50.8 L204.9 54.4 L206.8 57.7 L204.7 65.8 L205.7 69.8 L205.2 72 L207.2 74.6 L206 76 L206.2 77.3 L203.4 78.9 L204.4 84 L204.1 84.5 L203.7 84.9 L199.4 85.9 L200 88 L199.2 88.8 L199.6 90.4 L201.9 90.3 L203.1 91.8 L201 100.8 L202.4 101.2 L202.3 105.8 L205.4 105.4 L205.5 107.2 L207 108.4 L206.5 114.2 L205.3 114.2 L203.7 115.9 L203 119.9 L199 126 L195.4 126.8 L194.7 127.7 L194.9 135.5 L191.6 140.2 L194 144.4 L193.1 143.9 L171.4 167.8 L169.9 168.8 L168.1 170 L165.1 168.1 L163.6 168.6 L158.1 167.3 L146.9 168.8 L134 163.7 L125.2 165.2 L122.4 162.3 L120.3 162.4 L119.5 162.3 L118.7 161.8 L118 161.1 L117.6 160.2 L117.4 159.2 L118.3 156.1 L108.5 152.3 L105.1 152.6 L101.1 151.1 L95.1 150.6 L93.7 149.1 L92.4 144.7 L87.3 138.7 L88.3 131.3 L88 125.5 L85.6 124.6 L78.5 125.1 L78.8 121.7 L78.4 119 L77.3 116.1 L77 115.6 L66.1 111.7 L57.1 105.2 L57.2 103.6 L53.6 102.5 L49 92.3 L48.8 88 L46 85.5 L44.9 81.1 L39.2 75.7 L36.5 69.5 L33.5 66.3 L32.8 63.4 L33.7 61.4 Z"/>
  </g>
</svg>
